<?xml version="1.0" encoding="UTF-8"?>
<svg width="256px" height="256px" viewBox="0 0 256 256" version="1.1" xmlns="http://www.w3.org/2000/svg" xmlns:xlink="http://www.w3.org/1999/xlink">
    
    <title>book</title>
    <desc>Created with sketchtool.</desc>
    <defs></defs>
    <g id="Page-1" stroke="none" stroke-width="1" fill="none" fill-rule="evenodd">
        <g id="book" fill="#000000" fill-rule="nonzero">
            <path d="M243.211184,67.1370874 L243.211184,188.405903 L235.478369,189.648621 L235.478369,67.1370874 L235.478369,42.6027184 C193.936777,43.8702913 154.610951,50.5486602 127.983223,67.1252816 C101.354252,50.5486602 62.0296699,43.8702913 20.4880777,42.6027184 L20.4880777,67.1370874 L20.4880777,189.648621 L12.7552621,188.405903 L12.7552621,67.1370874 L0.0173980583,67.1370874 L0.0173980583,203.215379 L96.6076893,203.215379 C112.375301,203.215379 114.105786,212.892427 127.983223,212.892427 C141.886757,212.892427 143.56132,203.215379 159.359379,203.215379 L255.983223,203.215379 L255.983223,67.1370874 L243.211184,67.1370874 Z M117.425709,187.952311 C96.671068,179.717437 71.512233,174.419107 40.9805049,172.123806 L40.9805049,64.9281553 C66.054835,67.0320777 96.0546796,72.1278447 117.425709,85.423068 L117.425709,187.952311 Z M214.98532,172.123806 C184.452971,174.418485 159.294136,179.717437 138.540117,187.952311 L138.540117,85.4236893 C159.911146,72.128466 189.91099,67.0320777 214.98532,64.9287767 L214.98532,172.123806 Z"></path>
        </g>
    </g>
</svg>