<?xml version="1.0" encoding="UTF-8"?>
<svg width="256px" height="256px" viewBox="0 0 256 256" version="1.1" xmlns="http://www.w3.org/2000/svg" xmlns:xlink="http://www.w3.org/1999/xlink">
    
    <title>copy</title>
    <desc>Created with sketchtool.</desc>
    <defs></defs>
    <g id="Page-1" stroke="none" stroke-width="1" fill="none" fill-rule="evenodd">
        <g id="copy" fill="#000000" fill-rule="nonzero">
            <path d="M158.382333,140.025333 L166.473333,118.333333 L192.554,172.863 L137.666667,197.049 L145.448333,175.492333 C145.448333,175.492333 67.5833333,141.291667 70.9376667,70 C97.1826667,127.400667 158.382333,140.025333 158.382333,140.025333 Z M244,70 L244,244 L70,244 L70,186 L12,186 L12,12 L186,12 L186,70 L244,70 Z M224.666667,89.3333333 L107.584,89.3333333 C102.151333,83.746 97.144,77.3176667 92.881,70 L166.666667,70 L166.666667,31.3333333 L31.3333333,31.3333333 L31.3333333,166.666667 L70,166.666667 L70,136.468 C75.8,145.757667 82.441,154.090333 89.3333333,161.369333 L89.3333333,224.666667 L224.666667,224.666667 L224.666667,89.3333333 Z"></path>
        </g>
    </g>
</svg>