<?xml version="1.0" encoding="UTF-8"?>
<svg width="256px" height="256px" viewBox="0 0 256 256" version="1.1" xmlns="http://www.w3.org/2000/svg" xmlns:xlink="http://www.w3.org/1999/xlink">
    
    <title>flask</title>
    <desc>Created with sketchtool.</desc>
    <defs></defs>
    <g id="Page-1" stroke="none" stroke-width="1" fill="none" fill-rule="evenodd">
        <g id="flask" fill="#000000" fill-rule="nonzero">
            <path d="M209.750667,207.314667 L174.816,133.992 C165.1,113.589333 156,91.236 156,68.5933333 L156,44 L137.333333,44 C137.333333,75.6493333 136.558667,92.4213333 157.96,142.018667 L192.894667,215.322667 C194.229333,218.141333 192.26,221.333333 189.376,221.333333 L177.746667,221.333333 L132.2,128 L104.349333,128 C121.102667,88.9586667 118.610667,72.3453333 118.666667,44 L100,44 L100,68.5933333 C100,91.236 90.9,113.58 81.184,133.982667 L46.2493333,207.305333 C44.7093333,210.553333 44,213.913333 44,217.18 C44,229.154667 53.548,240 66.6146667,240 L189.376,240 C202.442667,240 212,229.154667 212,217.170667 C212,213.904 211.290667,210.553333 209.750667,207.314667 Z M86,221.333333 C78.2626667,221.333333 72,215.070667 72,207.333333 C72,199.596 78.2626667,193.333333 86,193.333333 C93.7373333,193.333333 100,199.596 100,207.333333 C100,215.070667 93.7373333,221.333333 86,221.333333 Z M109.333333,184 C104.172,184 100,179.828 100,174.666667 C100,169.505333 104.172,165.333333 109.333333,165.333333 C114.485333,165.333333 118.666667,169.505333 118.666667,174.666667 C118.666667,179.828 114.485333,184 109.333333,184 Z M137.333333,212 C132.181333,212 128,207.818667 128,202.666667 C128,197.514667 132.181333,193.333333 137.333333,193.333333 C142.485333,193.333333 146.666667,197.514667 146.666667,202.666667 C146.666667,207.818667 142.485333,212 137.333333,212 Z M90.6666667,25.3333333 C90.6666667,20.1813333 94.848,16 100,16 L156,16 C161.161333,16 165.333333,20.1813333 165.333333,25.3333333 C165.333333,30.4853333 161.161333,34.6666667 156,34.6666667 L100,34.6666667 C94.848,34.6666667 90.6666667,30.4853333 90.6666667,25.3333333 Z"></path>
        </g>
    </g>
</svg>