<?xml version="1.0" encoding="UTF-8"?>
<svg width="256px" height="256px" viewBox="0 0 256 256" version="1.1" xmlns="http://www.w3.org/2000/svg" xmlns:xlink="http://www.w3.org/1999/xlink">
    
    <title>flask</title>
    <desc>Created with sketchtool.</desc>
    <defs></defs>
    <g id="Page-1" stroke="none" stroke-width="1" fill="none" fill-rule="evenodd">
        <g id="flask" fill="#000000" fill-rule="nonzero">
            <g id="iconmonstr-flask-21" transform="translate(44.000000, 16.000000)">
                <path d="M165.750667,191.314667 L130.816,117.992 C121.1,97.5893333 112,75.236 112,52.5933333 L112,28 L93.3333333,28 C93.3333333,59.6493333 92.5586667,76.4213333 113.96,126.018667 L148.894667,199.322667 C150.229333,202.141333 148.26,205.333333 145.376,205.333333 L133.746667,205.333333 L88.2,112 L60.3493333,112 C77.1026667,72.9586667 74.6106667,56.3453333 74.6666667,28 L56,28 L56,52.5933333 C56,75.236 46.9,97.58 37.184,117.982667 L2.24933333,191.305333 C0.709333333,194.553333 3.55271368e-15,197.913333 3.55271368e-15,201.18 C3.55271368e-15,213.154667 9.548,224 22.6146667,224 L145.376,224 C158.442667,224 168,213.154667 168,201.170667 C168,197.904 167.290667,194.553333 165.750667,191.314667 Z M42,205.333333 C34.2626667,205.333333 28,199.070667 28,191.333333 C28,183.596 34.2626667,177.333333 42,177.333333 C49.7373333,177.333333 56,183.596 56,191.333333 C56,199.070667 49.7373333,205.333333 42,205.333333 Z M65.3333333,168 C60.172,168 56,163.828 56,158.666667 C56,153.505333 60.172,149.333333 65.3333333,149.333333 C70.4853333,149.333333 74.6666667,153.505333 74.6666667,158.666667 C74.6666667,163.828 70.4853333,168 65.3333333,168 Z M93.3333333,196 C88.1813333,196 84,191.818667 84,186.666667 C84,181.514667 88.1813333,177.333333 93.3333333,177.333333 C98.4853333,177.333333 102.666667,181.514667 102.666667,186.666667 C102.666667,191.818667 98.4853333,196 93.3333333,196 Z M46.6666667,9.33333333 C46.6666667,4.18133333 50.848,0 56,0 L112,0 C117.161333,0 121.333333,4.18133333 121.333333,9.33333333 C121.333333,14.4853333 117.161333,18.6666667 112,18.6666667 L56,18.6666667 C50.848,18.6666667 46.6666667,14.4853333 46.6666667,9.33333333 Z" id="Shape"></path>
            </g>
        </g>
    </g>
</svg>