<?xml version="1.0" encoding="UTF-8"?>
<svg width="256px" height="256px" viewBox="0 0 256 256" version="1.1" xmlns="http://www.w3.org/2000/svg" xmlns:xlink="http://www.w3.org/1999/xlink">
    
    <title>javascript</title>
    <desc>Created with sketchtool.</desc>
    <defs></defs>
    <g id="Page-1" stroke="none" stroke-width="1" fill="none" fill-rule="evenodd">
        <g id="javascript" fill="#000000" fill-rule="nonzero">
            <path d="M24,16 L232,16 C236.418278,16 240,19.581722 240,24 L240,232 C240,236.418278 236.418278,240 232,240 L24,240 C19.581722,240 16,236.418278 16,232 L16,24 C16,19.581722 19.581722,16 24,16 Z M166.471111,191.000889 L149.365333,200.938667 C155.544889,213.148444 168.174222,222.464 187.722667,222.464 C207.715556,222.464 222.602667,212.081778 222.602667,193.130667 C222.602667,175.552 212.504889,167.733333 194.620444,160.064 L189.358222,157.809778 C180.327111,153.898667 176.416,151.342222 176.416,145.027556 C176.416,139.918222 180.323556,136.007111 186.488889,136.007111 C192.533333,136.007111 196.426667,138.556444 200.035556,145.027556 L216.426667,134.503111 C209.493333,122.307556 199.872,117.649778 186.488889,117.649778 C167.690667,117.649778 155.662222,129.667556 155.662222,145.454222 C155.662222,162.592 165.752889,170.698667 180.942222,177.169778 L186.204444,179.427556 C195.804444,183.626667 201.528889,186.183111 201.528889,193.400889 C201.528889,199.424 195.957333,203.783111 187.235556,203.783111 C176.853333,203.783111 170.983111,198.368 166.471111,191.000889 Z M92.1137778,192.824889 L74.9795556,203.198222 C79.9431111,213.703111 89.7031111,222.424889 106.556444,222.424889 C125.208889,222.424889 137.987556,212.504889 137.987556,190.709333 L137.987556,118.851556 L116.938667,118.851556 L116.938667,190.424889 C116.938667,200.945778 112.576,203.651556 105.660444,203.651556 C98.4284444,203.651556 95.4204444,198.691556 92.1137778,192.824889 Z" id="Combined-Shape"></path>
        </g>
    </g>
</svg>