<?xml version="1.0" encoding="UTF-8"?>
<svg width="256px" height="256px" viewBox="0 0 256 256" version="1.1" xmlns="http://www.w3.org/2000/svg" xmlns:xlink="http://www.w3.org/1999/xlink">
    
    <title>puzzle</title>
    <desc>Created with sketchtool.</desc>
    <defs></defs>
    <g id="Page-1" stroke="none" stroke-width="1" fill="none" fill-rule="evenodd">
        <g id="puzzle" fill="#000000" fill-rule="nonzero">
            <path d="M35.9636667,186 C45.4176667,186 48.6173333,180.934667 52.4743333,177.087333 C60.3333333,169.199333 70,172.553667 70,185.275 L70,244 L128.725,244 C141.436667,244 144.800667,234.333333 136.912667,226.474333 C133.065333,222.617333 128,219.417667 128,209.963667 C128,199.456 138.710667,186 157,186 C175.289333,186 186,199.456 186,209.963667 C186,219.417667 180.934667,222.617333 177.087333,226.474333 C169.199333,234.333333 172.553667,244 185.275,244 L244,244 L244,185.275 C244,172.563333 234.333333,169.199333 226.474333,177.087333 C222.617333,180.934667 219.417667,186 209.963667,186 C199.456,186 186,175.289333 186,157 C186,138.710667 199.456,128 209.963667,128 C219.417667,128 222.617333,133.065333 226.474333,136.912667 C234.333333,144.800667 244,141.446333 244,128.725 L244,70 L185.275,70 C172.563333,70 169.199333,60.3333333 177.087333,52.4743333 C180.934667,48.6173333 186,45.4176667 186,35.9636667 C186,25.456 175.289333,12 157,12 C138.710667,12 128,25.456 128,35.9636667 C128,45.4176667 133.065333,48.6173333 136.912667,52.4743333 C144.800667,60.3333333 141.446333,70 128.725,70 L70,70 L70,128.725 C70,141.436667 60.3333333,144.800667 52.4743333,136.912667 C48.6173333,133.065333 45.4176667,128 35.9636667,128 C25.456,128 12,138.710667 12,157 C12,175.289333 25.456,186 35.9636667,186 Z"></path>
        </g>
    </g>
</svg>