<?xml version="1.0" encoding="UTF-8"?>
<svg width="256px" height="256px" viewBox="0 0 256 256" version="1.1" xmlns="http://www.w3.org/2000/svg" xmlns:xlink="http://www.w3.org/1999/xlink">
    
    <title>wrench</title>
    <desc>Created with sketchtool.</desc>
    <defs></defs>
    <g id="Page-1" stroke="none" stroke-width="1" fill="none" fill-rule="evenodd">
        <g id="wrench" fill="#000000" fill-rule="nonzero">
            <path d="M52.3155483,3.03700136 L96.1833457,46.9164348 C100.942478,68.8968775 69.0714179,101.14029 46.8233466,96.2764338 L2.95554921,52.3970004 C0.954153683,59.2040724 0,66.2322288 0,73.2603852 C0,91.9012901 7.01652038,110.518923 21.2473735,124.761412 C36.9676372,140.481676 58.0637424,147.533104 78.6245907,145.950605 C89.4809979,145.112812 100.174501,149.080695 107.877546,156.783741 L196.555659,245.345493 C203.269643,252.071113 212.113018,255.992452 220.944758,255.992452 C240.272188,255.992452 256.399712,239.574027 255.992452,220.188416 C255.806275,211.612669 251.896572,203.083466 245.357129,196.532387 L156.679016,107.958998 C148.975971,100.267589 145.019724,89.56245 145.845881,78.7060429 C147.440016,58.1451946 140.365316,37.0490894 124.668324,21.3404616 C110.414199,7.09797252 91.7965659,0 73.1556611,0 C66.1391407,0 59.1109843,1.04724185 52.3155483,3.03700136 L52.3155483,3.03700136 Z M232.19679,220.537497 C232.19679,226.972216 226.995488,232.173518 220.560769,232.173518 C214.12605,232.173518 208.924749,226.96058 208.924749,220.537497 C208.924749,214.114414 214.12605,208.901477 220.560769,208.901477 C226.995488,208.901477 232.19679,214.102778 232.19679,220.537497 Z"></path>
        </g>
    </g>
</svg>