<?xml version="1.0" encoding="utf-8"?>
<svg xmlns="http://www.w3.org/2000/svg"
xmlns:xlink="http://www.w3.org/1999/xlink">
  <symbol viewBox="0 0 256 256"
  aria-labelledby="aarb-icon-arrow-down-desc aarb-icon-arrow-down-title"
  id="rb-icon-arrow-down">
    <desc id="aarb-icon-arrow-down-desc">A downward arrow</desc>
    <title id="aarb-icon-arrow-down-title">Down Arrow</title>
    <path d="M23.429 159.143l91.428 91.428c3.429 3.62 7.714 5.429 12.857 5.429 5.143 0 9.429-1.81 12.857-5.429L232 159.143c3.62-3.429 5.429-7.714 5.429-12.857 0-5.143-1.81-9.429-5.429-12.857-3.429-3.62-7.714-5.429-12.857-5.429-5.143 0-9.429 1.81-12.857 5.429l-60.286 60V18.286c0-5.143-1.762-9.476-5.286-13-3.524-3.524-7.857-5.286-13-5.286s-9.476 1.762-13 5.286c-3.524 3.524-5.285 7.857-5.285 13v175.143l-60.286-60c-1.714-1.905-3.714-3.286-6-4.143-2.286-.857-4.572-1.286-6.857-1.286-2.286 0-4.572.429-6.857 1.286-2.286.857-4.286 2.238-6 4.143-3.62 3.428-5.429 7.714-5.429 12.857 0 5.143 1.81 9.428 5.429 12.857z"
    fill-rule="nonzero" />
  </symbol>
  <symbol viewBox="0 0 256 256"
  aria-labelledby="abrb-icon-arrow-left-desc abrb-icon-arrow-left-title"
  id="rb-icon-arrow-left">
    <desc id="abrb-icon-arrow-left-desc">A leftward arrow</desc>
    <title id="abrb-icon-arrow-left-title">Left Arrow</title>
    <path d="M96.857 23.429L5.43 114.857C1.809 118.286 0 122.571 0 127.714c0 5.143 1.81 9.429 5.429 12.857L96.857 232c3.429 3.62 7.714 5.429 12.857 5.429 5.143 0 9.429-1.81 12.857-5.429 3.62-3.429 5.429-7.714 5.429-12.857 0-5.143-1.81-9.429-5.429-12.857l-60-60.286h175.143c5.143 0 9.476-1.762 13-5.286 3.524-3.524 5.286-7.857 5.286-13s-1.762-9.476-5.286-13c-3.524-3.524-7.857-5.285-13-5.285H62.571l60-60.286c1.905-1.714 3.286-3.714 4.143-6 .857-2.286 1.286-4.572 1.286-6.857 0-2.286-.429-4.572-1.286-6.857-.857-2.286-2.238-4.286-4.143-6-3.428-3.62-7.714-5.429-12.857-5.429-5.143 0-9.428 1.81-12.857 5.429z"
    fill-rule="nonzero" />
  </symbol>
  <symbol viewBox="0 0 256 256"
  aria-labelledby="acrb-icon-arrow-right-desc acrb-icon-arrow-right-title"
  id="rb-icon-arrow-right">
    <desc id="acrb-icon-arrow-right-desc">A rightward arrow</desc>
    <title id="acrb-icon-arrow-right-title">Right Arrow</title>
    <path d="M159.143 232l91.428-91.429c3.62-3.428 5.429-7.714 5.429-12.857 0-5.143-1.81-9.428-5.429-12.857L159.143 23.43c-3.429-3.62-7.714-5.429-12.857-5.429-5.143 0-9.429 1.81-12.857 5.429-3.62 3.428-5.429 7.714-5.429 12.857 0 5.143 1.81 9.428 5.429 12.857l60 60.286H18.286c-5.143 0-9.476 1.761-13 5.285-3.524 3.524-5.286 7.857-5.286 13s1.762 9.476 5.286 13c3.524 3.524 7.857 5.286 13 5.286h175.143l-60 60.286c-1.905 1.714-3.286 3.714-4.143 6-.857 2.285-1.286 4.571-1.286 6.857 0 2.286.429 4.571 1.286 6.857.857 2.286 2.238 4.286 4.143 6 3.428 3.62 7.714 5.429 12.857 5.429 5.143 0 9.428-1.81 12.857-5.429z"
    fill-rule="nonzero" />
  </symbol>
  <symbol viewBox="0 0 256 256"
  aria-labelledby="adrb-icon-arrow-up-desc adrb-icon-arrow-up-title"
  id="rb-icon-arrow-up">
    <desc id="adrb-icon-arrow-up-desc">An upward arrow</desc>
    <title id="adrb-icon-arrow-up-title">Up Arrow</title>
    <path d="M232 96.857L140.571 5.43C137.143 1.809 132.857 0 127.714 0c-5.143 0-9.428 1.81-12.857 5.429L23.43 96.857c-3.62 3.429-5.429 7.714-5.429 12.857 0 5.143 1.81 9.429 5.429 12.857 3.428 3.62 7.714 5.429 12.857 5.429 5.143 0 9.428-1.81 12.857-5.429l60.286-60v175.143c0 5.143 1.761 9.476 5.285 13 3.524 3.524 7.857 5.286 13 5.286s9.476-1.762 13-5.286c3.524-3.524 5.286-7.857 5.286-13V62.571l60.286 60c1.714 1.905 3.714 3.286 6 4.143 2.285.857 4.571 1.286 6.857 1.286 2.286 0 4.571-.429 6.857-1.286 2.286-.857 4.286-2.238 6-4.143 3.62-3.428 5.429-7.714 5.429-12.857 0-5.143-1.81-9.428-5.429-12.857z"
    fill-rule="nonzero" />
  </symbol>
  <symbol viewBox="0 0 256 256"
  aria-labelledby="aerb-icon-avatar-desc aerb-icon-avatar-title"
  id="rb-icon-avatar">
    <desc id="aerb-icon-avatar-desc">Silhouette representing a
    person</desc>
    <title id="aerb-icon-avatar-title">Avatar</title>
    <path d="M222.136 192.621c-18.434-4.142-34.175-9.113-47.223-14.912-13.049-5.8-15.43-16.466-7.146-32 12.634-23.82 20.142-44.79 22.524-62.913 2.382-18.123 1.191-33.346-3.573-45.67-4.763-12.323-12.427-21.592-22.99-27.806C153.165 3.107 141.256 0 128 0c-13.463 0-25.527 3.21-36.194 9.631-10.667 6.42-18.33 15.845-22.99 28.272-4.66 12.427-5.748 27.65-3.263 45.67 2.486 18.02 10.046 38.731 22.68 62.136 8.492 15.534 6.058 26.2-7.301 32-13.36 5.8-29.048 10.77-47.068 14.912-18.227 4.143-28.427 11.288-30.602 21.437C1.087 224.208 0 237.98 0 255.378h256c0-17.398-1.087-31.17-3.262-41.32-2.175-10.149-12.375-17.294-30.602-21.437z"
    fill-rule="nonzero" />
  </symbol>
  <symbol viewBox="0 0 256 256"
  aria-labelledby="afrb-icon-basket-desc afrb-icon-basket-title"
  id="rb-icon-basket">
    <desc id="afrb-icon-basket-desc">A two-handled shopping
    basket</desc>
    <title id="afrb-icon-basket-title">Basket</title>
    <path d="M78.291 86.272l41.942-41.631c2.278-2.279 3.417-4.92 3.417-7.923s-1.139-5.54-3.417-7.611c-2.071-2.071-4.608-3.107-7.612-3.107-3.003 0-5.54 1.036-7.611 3.107L47.845 86.272H78.29zm99.107 0h30.757L150.99 29.107C148.92 27.036 146.382 26 143.38 26c-3.004 0-5.54 1.036-7.612 3.107-2.278 2.071-3.417 4.608-3.417 7.611 0 3.004 1.139 5.644 3.417 7.923l41.631 41.63zM0 101.806v24.854h6.835c2.9 0 5.54.725 7.922 2.175 2.382 1.45 4.194 3.521 5.437 6.214l46.602 94.757h122.719l46.29-94.757c1.244-2.693 3.056-4.764 5.438-6.214 2.382-1.45 5.022-2.175 7.922-2.175H256v-24.854H0z"
    fill-rule="nonzero" />
  </symbol>
  <symbol viewBox="0 0 256 256"
  aria-labelledby="agrb-icon-bookmark-desc agrb-icon-bookmark-title"
  id="rb-icon-bookmark">
    <desc id="agrb-icon-bookmark-desc">A simple bookmark with a
    decorative notch</desc>
    <title id="agrb-icon-bookmark-title">Bookmark</title>
    <path d="M191.379 256l-63.69-56.233L64 256V0h127.379z"
    fill-rule="nonzero" />
  </symbol>
  <symbol viewBox="0 0 256 256"
  aria-labelledby="ahrb-icon-cart-desc ahrb-icon-cart-title"
  id="rb-icon-cart">
    <desc id="ahrb-icon-cart-desc">A wheeled shopping cart</desc>
    <title id="ahrb-icon-cart-title">Shopping Cart</title>
    <path d="M256 73.148H67.95L48.46 21H0l9.481 28.444 18.963.264 48.198 138.008c-5.443.878-10.008 3.512-13.695 7.901-3.688 4.39-5.531 9.482-5.531 15.276 0 6.497 2.282 12.071 6.847 16.724 4.566 4.653 10.096 6.98 16.593 6.98 6.672 0 12.29-2.327 16.856-6.98 4.565-4.653 6.848-10.227 6.848-16.724 0-1.23-.088-2.458-.264-3.687a19.57 19.57 0 0 0-.79-3.424h77.696a19.57 19.57 0 0 0-.79 3.424 26.041 26.041 0 0 0-.264 3.687c0 6.497 2.283 12.071 6.848 16.724 4.565 4.653 10.096 6.98 16.592 6.98 6.673 0 12.291-2.327 16.856-6.98 4.566-4.653 6.848-10.227 6.848-16.724 0-3.512-.702-6.76-2.107-9.745-1.404-2.985-3.248-5.53-5.53-7.638l-6.848-19.753H100.082l-5.267-17.91h135.374L256 73.149z"
    fill-rule="nonzero" />
  </symbol>
  <symbol viewBox="0 0 256 256"
  aria-labelledby="airb-icon-chat-double-o-desc airb-icon-chat-double-o-title"
  id="rb-icon-chat-double-o">
    <desc id="airb-icon-chat-double-o-desc">Two outlined chat
    bubbles</desc>
    <title id="airb-icon-chat-double-o-title">Open Double Chat
    Bubble</title>
    <path d="M242.64 212.33a56.317 56.317 0 0 0 9.943-17.243C254.86 188.77 256 182.194 256 175.36c0-10.977-2.848-20.919-8.544-29.825-5.696-8.906-13.1-16.259-22.213-22.058a108.035 108.035 0 0 0 2.951-12.427 73.762 73.762 0 0 0 1.088-12.738c0-13.877-3.159-26.719-9.476-38.525-6.317-11.805-14.757-22.006-25.32-30.602-10.564-8.595-22.732-15.275-36.505-20.038C144.207 4.382 129.76 2 114.64 2 99.52 2 85.023 4.382 71.146 9.146c-13.877 4.763-26.097 11.443-36.66 20.038C23.921 37.78 15.533 47.981 9.32 59.786 3.107 71.592 0 84.434 0 98.311c0 9.941 1.709 19.624 5.126 29.048 3.418 9.424 8.233 17.864 14.447 25.32.207 8.907-1.76 19.056-5.903 30.447C9.527 194.518 5.178 204.874.62 214.194c12.428-2.278 26.2-5.696 41.32-10.252 15.12-4.557 26.72-9.32 34.797-14.292a252.876 252.876 0 0 0 13.98 2.641c4.557.725 9.01 1.295 13.36 1.709 2.692 7.87 7.093 15.12 13.204 21.748 6.11 6.627 13.514 12.064 22.213 16.31 8.7 4.246 18.486 6.939 29.36 8.078 10.873 1.14 22.627.155 35.262-2.952 5.385 3.314 13.203 6.525 23.456 9.632 10.252 3.106 19.624 5.385 28.116 6.834-3.106-6.213-6.058-13.203-8.854-20.97-2.796-7.767-4.194-14.55-4.194-20.35zM76.118 166.35c-10.77 6.213-20.195 10.718-28.272 13.514l-12.117 4.194 3.573-11.184c2.382-7.457 4.194-16.156 5.437-26.097-6.628-6.628-12.013-13.67-16.155-21.127-4.143-7.456-6.214-16.569-6.214-27.34 0-10.148 2.434-19.727 7.3-28.737 4.868-9.01 11.444-16.88 19.73-23.612 8.284-6.731 18.07-12.013 29.358-15.844 11.288-3.832 23.25-5.748 35.884-5.748s24.595 1.916 35.883 5.748c11.288 3.831 21.075 9.113 29.36 15.844 8.284 6.732 14.86 14.602 19.728 23.612 4.867 9.01 7.3 18.589 7.3 28.738 0 10.563-2.95 21.074-8.854 31.534-5.903 10.46-14.446 19.314-25.63 26.563-11.185 7.249-24.907 12.064-41.166 14.446-16.259 2.382-34.64.88-55.145-4.504zm153.165 64.31l-7.923-2.64c-5.281-1.761-11.34-4.609-18.175-8.544-20.297 5.385-37.281 5.074-50.951-.932-13.67-6.007-23.094-14.084-28.272-24.233 10.77-.622 20.971-2.434 30.602-5.437s18.434-6.887 26.408-11.65c7.974-4.764 15.068-10.305 21.281-16.622 6.214-6.317 11.496-13.1 15.845-20.35 6.007 4.35 10.77 9.58 14.291 15.69 3.521 6.11 5.282 12.686 5.282 19.728 0 6.835-1.346 12.634-4.039 17.398-2.693 4.764-6.11 9.32-10.252 13.67.828 6.42 2.02 12.013 3.572 16.777l2.33 7.145z"
    fill-rule="nonzero" />
  </symbol>
  <symbol viewBox="0 0 256 256"
  aria-labelledby="ajrb-icon-chat-help-desc ajrb-icon-chat-help-title"
  id="rb-icon-chat-help">
    <desc id="ajrb-icon-chat-help-desc">A question mark enclosed
    within a chat bubble</desc>
    <title id="ajrb-icon-chat-help-title">Chat Help</title>
    <path d="M128 10c-16.984 0-33.19 2.693-48.621 8.078-15.43 5.385-28.997 12.841-40.7 22.369-11.702 9.527-21.074 20.867-28.116 34.019C3.521 87.618 0 102.065 0 117.806c0 10.977 1.916 21.696 5.748 32.155 3.831 10.46 9.165 19.935 16 28.427.414 9.735-1.71 21.023-6.37 33.864C10.719 225.094 5.8 236.59.622 246.738c6.835-1.243 14.292-2.848 22.37-4.816 8.077-1.967 16-4.142 23.766-6.524 7.767-2.382 15.068-4.919 21.903-7.612 6.835-2.692 12.53-5.488 17.088-8.388 24.647 6.214 47.378 7.405 68.194 3.573 20.815-3.832 38.783-10.822 53.903-20.971 15.12-10.149 26.925-22.68 35.417-37.592C251.754 149.495 256 133.96 256 117.806c0-15.741-3.521-30.188-10.563-43.34-7.042-13.152-16.466-24.544-28.272-34.175-11.806-9.63-25.424-17.087-40.854-22.369C160.88 12.641 144.777 10 128 10zm3.417 172.427c-3.728 0-6.938-1.346-9.63-4.039-2.693-2.692-4.04-5.903-4.04-9.63 0-3.729 1.347-6.94 4.04-9.632 2.692-2.692 5.902-4.039 9.63-4.039 3.936 0 7.25 1.347 9.942 4.04 2.693 2.692 4.04 5.902 4.04 9.63 0 3.728-1.347 6.939-4.04 9.631-2.692 2.693-6.006 4.04-9.942 4.04zm10.874-40.699v2.486h-22.68v-2.486c0-3.52.518-7.404 1.554-11.65s3.625-8.337 7.767-12.272a249.278 249.278 0 0 1 12.117-11.34c4.142-3.625 6.213-7.819 6.213-12.583 0-5.385-1.657-9.527-4.97-12.427-3.315-2.9-7.353-4.35-12.117-4.35-7.87 0-12.635 2.9-14.292 8.7-1.656 5.8-2.589 9.63-2.796 11.495H91.03c.207-8.492 2.848-17.45 7.922-26.874 5.075-9.424 15.483-14.136 31.224-14.136 13.877 0 23.974 3.78 30.291 11.34 6.317 7.56 9.476 15.69 9.476 24.388 0 13.67-4.609 23.146-13.825 28.428-9.217 5.281-13.826 12.375-13.826 21.281z"
    fill-rule="nonzero" />
  </symbol>
  <symbol viewBox="0 0 256 256"
  aria-labelledby="akrb-icon-chat-single-desc akrb-icon-chat-single-title"
  id="rb-icon-chat-single">
    <desc id="akrb-icon-chat-single-desc">A chat bubble</desc>
    <title id="akrb-icon-chat-single-title">Chat</title>
    <path d="M128 14c-17.605 0-34.175 2.744-49.709 8.233-15.534 5.489-29.1 13.049-40.699 22.68-11.599 9.63-20.763 20.815-27.495 33.553C3.366 91.204 0 104.926 0 119.631c0 12.22 2.33 23.87 6.99 34.952 4.66 11.08 10.926 20.66 18.796 28.737L7.767 241.417l73.01-23.3c25.268 6.627 48.621 8.284 70.058 4.97 21.437-3.314 39.922-9.941 55.456-19.883 15.534-9.942 27.702-22.317 36.505-37.126C251.6 151.268 256 135.786 256 119.63c0-14.706-3.366-28.427-10.097-41.165-6.732-12.738-15.896-23.922-27.495-33.553-11.599-9.631-25.165-17.191-40.7-22.68C162.176 16.744 145.606 14 128 14z"
    fill-rule="nonzero" />
  </symbol>
  <symbol viewBox="0 0 256 256"
  aria-labelledby="alrb-icon-check-desc alrb-icon-check-title"
  id="rb-icon-check">
    <desc id="alrb-icon-check-desc">A check mark</desc>
    <title id="alrb-icon-check-title">Check</title>
    <path d="M96 224.747L0 132.608l29.77-30.613 65.665 62.656L225.675 32 256 62.048z"
    fill-rule="nonzero" />
  </symbol>
  <symbol viewBox="0 0 256 256"
  aria-labelledby="amrb-icon-check-circle-desc amrb-icon-check-circle-title"
  id="rb-icon-check-circle">
    <desc id="amrb-icon-check-circle-desc">A check mark within a
    circle</desc>
    <title id="amrb-icon-check-circle-title">Circled Check</title>
    <path d="M128 0C57.312 0 0 57.312 0 128s57.312 128 128 128 128-57.312 128-128S198.688 0 128 0zm-13.333 176.192l-48-46.07 14.89-15.306 32.832 31.328 65.12-66.325 15.158 15.029-80 81.344z"
    fill-rule="nonzero" />
  </symbol>
  <symbol viewBox="0 0 256 256"
  aria-labelledby="anrb-icon-chevron-down-desc anrb-icon-chevron-down-title"
  id="rb-icon-chevron-down">
    <desc id="anrb-icon-chevron-down-desc">A downward
    chevron</desc>
    <title id="anrb-icon-chevron-down-title">Down Chevron</title>
    <path d="M221.825 47L256 81.175 128 208.553 0 81.175 34.175 47 128 140.515z"
    fill-rule="nonzero" />
  </symbol>
  <symbol viewBox="0 0 256 256"
  aria-labelledby="aorb-icon-chevron-left-desc aorb-icon-chevron-left-title"
  id="rb-icon-chevron-left">
    <desc id="aorb-icon-chevron-left-desc">A leftward
    chevron</desc>
    <title id="aorb-icon-chevron-left-title">Left Chevron</title>
    <path d="M208.553 221.825L174.38 256 47 128 174.379 0l34.174 34.175L115.04 128z"
    fill-rule="nonzero" />
  </symbol>
  <symbol viewBox="0 0 256 256"
  aria-labelledby="aprb-icon-chevron-right-desc aprb-icon-chevron-right-title"
  id="rb-icon-chevron-right">
    <desc id="aprb-icon-chevron-right-desc">A rightward
    chevron</desc>
    <title id="aprb-icon-chevron-right-title">Right Chevron</title>
    <path d="M47 34.175L81.175 0l127.378 128L81.175 256 47 221.825 140.204 128z"
    fill-rule="nonzero" />
  </symbol>
  <symbol viewBox="0 0 256 256"
  aria-labelledby="aqrb-icon-chevron-up-desc aqrb-icon-chevron-up-title"
  id="rb-icon-chevron-up">
    <desc id="aqrb-icon-chevron-up-desc">An upward chevron</desc>
    <title id="aqrb-icon-chevron-up-title">Up Chevron</title>
    <path d="M34.175 208.553L0 174.38 128 47l128 127.379-34.175 34.174L128 115.04z"
    fill-rule="nonzero" />
  </symbol>
  <symbol viewBox="0 0 256 256"
  aria-labelledby="arrb-icon-close-desc arrb-icon-close-title"
  id="rb-icon-close">
    <desc id="arrb-icon-close-desc">An "x" character representing a
    close action</desc>
    <title id="arrb-icon-close-title">Close</title>
    <path d="M256 224.81l-97.963-97.013 96.982-97.856L224.81 0l-96.96 97.91L29.973.97 0 30.945l97.984 97.12L.971 226.027 30.944 256l97.195-98.048 97.92 97.067z"
    fill-rule="nonzero" />
  </symbol>
  <symbol viewBox="0 0 256 256"
  aria-labelledby="asrb-icon-credit-card-desc asrb-icon-credit-card-title"
  id="rb-icon-credit-card">
    <desc id="asrb-icon-credit-card-desc">The back side of a credit
    card</desc>
    <title id="asrb-icon-credit-card-title">Credit Card</title>
    <path d="M232 32H24c-6.667 0-12.333 2.333-17 7S0 49.333 0 56v144c0 6.667 2.333 12.333 7 17s10.333 7 17 7h208c6.667 0 12.333-2.333 17-7s7-10.333 7-17V56c0-6.667-2.333-12.333-7-17s-10.333-7-17-7zM24 48h208c2.167 0 4.042.792 5.625 2.375C239.208 51.958 240 53.833 240 56v24H16V56c0-2.167.792-4.042 2.375-5.625C19.958 48.792 21.833 48 24 48zm208 160H24c-2.167 0-4.042-.792-5.625-2.375C16.792 204.042 16 202.167 16 200v-72h224v72c0 2.167-.792 4.042-2.375 5.625-1.583 1.583-3.458 2.375-5.625 2.375zM32 192h16v-32H32v32zm32 0h16v-32H64v32zm32 0h16v-32H96v32z"
    fill-rule="nonzero" />
  </symbol>
  <symbol viewBox="0 0 256 256"
  aria-labelledby="atrb-icon-cta-arrow-desc atrb-icon-cta-arrow-title"
  id="rb-icon-cta-arrow">
    <desc id="atrb-icon-cta-arrow-desc">A slim rightward chevron
    indicating a call-to-action</desc>
    <title id="atrb-icon-cta-arrow-title">CTA Arrow</title>
    <path d="M193.14 128.248l-88.745 127.256H63.372l84.735-127.256L63.372.713h41.023z"
    fill-rule="nonzero" />
  </symbol>
  <symbol viewBox="0 0 256 256"
  aria-labelledby="aurb-icon-edit-desc aurb-icon-edit-title"
  id="rb-icon-edit">
    <desc id="aurb-icon-edit-desc">A pencil</desc>
    <title id="aurb-icon-edit-title">Edit</title>
    <path d="M76.117 241.777L0 255.757l15.223-74.874 60.894 60.894zM195.417 1L256 61.583 93.515 224.068l-60.583-60.583L195.417 1z"
    fill-rule="nonzero" />
  </symbol>
  <symbol viewBox="0 0 256 256"
  aria-labelledby="avrb-icon-envelope-desc avrb-icon-envelope-title"
  id="rb-icon-envelope">
    <desc id="avrb-icon-envelope-desc">An envelop</desc>
    <title id="avrb-icon-envelope-title">Envelope</title>
    <path d="M128 138.631L.621 33H256L128 138.631zm128-71.456v155.34H0V66.865l128 106.252L256 67.175z"
    fill-rule="nonzero" />
  </symbol>
  <symbol viewBox="0 0 256 256"
  aria-labelledby="awrb-icon-filter-desc awrb-icon-filter-title"
  id="rb-icon-filter">
    <desc id="awrb-icon-filter-desc">A funnel</desc>
    <title id="awrb-icon-filter-title">Filter</title>
    <path d="M11 0h233.631l-95.068 160.932V256l-44.116-32.31v-62.758z"
    fill-rule="nonzero" />
  </symbol>
  <symbol viewBox="0 0 256 256"
  aria-labelledby="axrb-icon-heart-desc axrb-icon-heart-title"
  id="rb-icon-heart">
    <desc id="axrb-icon-heart-desc">A heart</desc>
    <title id="axrb-icon-heart-title">Heart</title>
    <path d="M128 45.647C94.421-11.974 0 4.847 0 77.05c0 49.717 59.424 100.554 128 168.618 68.587-68.064 128-118.9 128-168.618 0-72.448-94.667-88.598-128-31.403z"
    fill-rule="nonzero" />
  </symbol>
  <symbol viewBox="0 0 256 256"
  aria-labelledby="ayrb-icon-heart-o-desc ayrb-icon-heart-o-title"
  id="rb-icon-heart-o">
    <desc id="ayrb-icon-heart-o-desc">The outline of a heart</desc>
    <title id="ayrb-icon-heart-o-title">Open Heart</title>
    <path d="M66.987 32.333c34.517.011 53.045 37.238 61.013 53.664 8-16.501 26.336-53.557 61.077-53.557 21.952 0 45.59 13.963 45.59 44.608 0 36.715-50.603 83.744-106.667 138.667C71.915 160.77 21.333 113.752 21.333 77.048c0-28.544 20.96-44.725 45.654-44.715zM66.997 11C33.045 11 0 34.328 0 77.048c0 49.717 59.413 100.555 128 168.619 68.587-68.064 128-118.902 128-168.619 0-42.784-33.035-65.941-66.923-65.941-23.509 0-47.424 11.114-61.077 34.538C114.293 22.115 90.432 11 66.997 11z"
    fill-rule="nonzero" />
  </symbol>
  <symbol viewBox="0 0 256 256"
  aria-labelledby="azrb-icon-history-desc azrb-icon-history-title"
  id="rb-icon-history">
    <desc id="azrb-icon-history-desc">A counterclockwise circular
    arrow with clock arms inside</desc>
    <title id="azrb-icon-history-title">History</title>
    <path d="M136.368 65.085v62.605h56.097v25.104h-81.201v-87.71h25.104zM128.31 0c17.563 0 34.092 3.358 49.588 10.073 15.497 6.715 29.03 15.858 40.6 27.428 11.571 11.57 20.714 25.104 27.43 40.6C252.641 93.599 256 110.128 256 127.692c0 17.562-3.358 34.091-10.073 49.587-6.715 15.497-15.858 29.03-27.428 40.6-11.57 11.572-25.104 20.714-40.6 27.43-15.497 6.715-32.026 10.072-49.59 10.072-17.148 0-33.316-3.15-48.503-9.453-15.186-6.302-28.513-14.98-39.98-26.034-11.468-11.054-20.662-23.967-27.584-38.74C5.32 166.379 1.446 150.418.62 133.269l27.893-4.96c0 13.638 2.635 26.5 7.903 38.587 5.27 12.087 12.398 22.625 21.385 31.612 8.988 8.988 19.526 16.065 31.613 21.23 12.087 5.166 25.052 7.749 38.896 7.749 13.843 0 26.809-2.635 38.896-7.903 12.087-5.27 22.624-12.398 31.612-21.385 8.988-8.988 16.117-19.526 21.385-31.613 5.27-12.087 7.904-25.052 7.904-38.896 0-13.843-2.635-26.809-7.904-38.896-5.268-12.087-12.397-22.624-21.385-31.612-8.988-8.988-19.525-16.117-31.612-21.385-12.087-5.27-25.053-7.904-38.896-7.904-13.637 0-26.86 2.532-39.67 7.594-12.811 5.062-23.659 12.035-32.543 20.92l22.315 22.005L0 92.668l14.257-78.101L36.262 36.57c5.785-5.578 12.19-10.64 19.215-15.186A134.444 134.444 0 0 1 77.792 9.763c7.851-3.203 16.064-5.63 24.639-7.284C111.006.826 119.631 0 128.31 0z"
    fill-rule="nonzero" />
  </symbol>
  <symbol viewBox="0 0 256 256"
  aria-labelledby="barb-icon-home-desc barb-icon-home-title"
  id="rb-icon-home">
    <desc id="barb-icon-home-desc">A house</desc>
    <title id="barb-icon-home-title">Home</title>
    <path d="M229.592 140v103.146H155.65v-56.233h-55.3v56.233H26.408V140H0L128 12l128 128h-26.408zm-15.844-62.757l-29.826-29.826V23.495h29.826v53.748z"
    fill-rule="nonzero" />
  </symbol>
  <symbol viewBox="0 0 256 256"
  aria-labelledby="bbrb-icon-info-desc bbrb-icon-info-title"
  id="rb-icon-info">
    <desc id="bbrb-icon-info-desc">A circle with an "i"
    inside</desc>
    <title id="bbrb-icon-info-title">Info</title>
    <path d="M128 256c70.688 0 128-57.312 128-128S198.688 0 128 0 0 57.312 0 128s57.312 128 128 128zm10.667-64h-21.334v-85.333h21.334V192zM128 61.333c7.36 0 13.333 5.974 13.333 13.334C141.333 82.027 135.36 88 128 88s-13.333-5.973-13.333-13.333S120.64 61.333 128 61.333z"
    fill-rule="nonzero" />
  </symbol>
  <symbol viewBox="0 0 256 256"
  aria-labelledby="bcrb-icon-lock-check-desc bcrb-icon-lock-check-title"
  id="rb-icon-lock-check">
    <desc id="bcrb-icon-lock-check-desc">A lock with a
    checkmark</desc>
    <title id="bcrb-icon-lock-check-title">Lock With Check</title>
    <path d="M90.369 107.806H59.3V68.66c0-9.32 1.812-18.175 5.437-26.563 3.624-8.388 8.544-15.69 14.757-21.903 6.214-6.213 13.463-11.132 21.748-14.757C109.528 1.812 118.433 0 127.96 0c9.528 0 18.434 1.812 26.719 5.437 8.284 3.625 15.534 8.544 21.747 14.757 6.214 6.214 11.133 13.515 14.757 21.903 3.625 8.388 5.437 17.243 5.437 26.563v39.146h-31.068V68.66c0-10.356-3.676-19.21-11.029-26.563-7.353-7.353-16.207-11.029-26.563-11.029-10.356 0-19.21 3.676-26.563 11.03-7.353 7.352-11.03 16.206-11.03 26.562v39.146zm129.553 18.64V256H36V126.447h183.922zm-48.466 44.738l-12.738-13.048-40.388 40.078-17.398-17.398-12.738 13.048L118.33 224l53.126-52.816z"
    fill-rule="nonzero" />
  </symbol>
  <symbol viewBox="0 0 256 256"
  aria-labelledby="bdrb-icon-menu-desc bdrb-icon-menu-title"
  id="rb-icon-menu">
    <desc id="bdrb-icon-menu-desc">Three parallel horizontal
    lines</desc>
    <title id="bdrb-icon-menu-title">Menu</title>
    <path d="M256 30H0v40.388h256V30zm0 77.67H0v40.388h256V107.67zm0 77.67H0v40.388h256V185.34z"
    fill-rule="nonzero" />
  </symbol>
  <symbol viewBox="0 0 256 256"
  aria-labelledby="berb-icon-minus-desc berb-icon-minus-title"
  id="rb-icon-minus">
    <desc id="berb-icon-minus-desc">A minus sign</desc>
    <title id="berb-icon-minus-title">Minus</title>
    <path d="M0 107h256v42.667H0z" fill-rule="nonzero" />
  </symbol>
  <symbol viewBox="0 0 256 256"
  aria-labelledby="bfrb-icon-p1apron-desc bfrb-icon-p1apron-title"
  id="rb-icon-p1apron">
    <desc id="bfrb-icon-p1apron-desc">An apron with "P1" on the
    front</desc>
    <title id="bfrb-icon-p1apron-title">Pier 1 Apron</title>
    <path d="M190.197 155.14c-5.65-8.734-9.889-18.023-12.714-27.87-2.826-9.846-4.795-18.964-5.908-27.354-1.113-8.39-1.627-15.326-1.541-20.805l.128-8.22h-2.825c-1.199-25.514-4.238-41.396-9.118-47.646l-7.32-9.375C139.425 0 128.937-3.468 119.433 3.468L105.179 13.87c-4.281 4.795-7.492 10.445-9.632 16.952-2.14 6.507-3.682 12.715-4.624 18.622-.941 5.908-1.498 10.916-1.67 15.026l-.256 6.165-2.055.513c0 15.925-1.027 29.239-3.082 39.94-2.055 10.703-4.367 19.308-6.935 25.815-2.569 6.506-4.923 11.173-7.064 13.998l-3.21 4.238L61 228.085l4.11 9.632c2.74 6.422 8.561 10.745 17.466 12.971 13.185 3.254 26.455 5.009 39.812 5.266 13.356.257 26.541-.557 39.555-2.44 12.843-1.713 21.704-5.266 26.584-10.66 4.88-5.394 7.32-11.087 7.32-17.08 0-2.911-.299-8.22-.898-15.925-.6-7.706-1.242-15.625-1.927-23.76a1893.91 1893.91 0 0 0-1.926-21.575l-.9-9.375zm-82.193 32.62v39.298h-13.1V147.69h13.1v40.07zm19.007-7.45c0 3.94-.685 6.936-2.055 8.99-1.37 2.055-2.996 3.596-4.88 4.624l-1.413.642c-.941.428-2.097.728-3.467.899h-5.651v-7.449c1.541.171 2.654.129 3.34-.128.684-.257 1.198-.642 1.54-1.156.343-.343.514-.77.514-1.284V157.45c0-.514-.171-.942-.514-1.285-.342-.513-.856-.898-1.54-1.155-.686-.257-1.799-.3-3.34-.129v-7.192l.257-.128.257-.129h2.825c1.028 0 1.798.086 2.312.257 1.37.172 2.526.428 3.467.77l1.413.515c1.884 1.027 3.51 2.568 4.88 4.623s2.055 5.051 2.055 8.99v17.723zM98.501 70.892l-.129-6.678c-.086-4.452.086-9.717.514-15.796.428-6.08 1.241-12.33 2.44-18.75 1.199-6.422 3.082-11.687 5.65-15.797 3.94-3.938 10.874-6.079 20.806-6.421 9.931-.343 17.38 1.883 22.346 6.678 2.568 3.938 4.452 9.075 5.65 15.411a160.73 160.73 0 0 1 2.44 18.75c.429 6.165.6 11.473.514 15.925l-.128 6.678H98.5zM162.2 227.058h-13.613V171.32h-7.449v-10.017c3.254-.514 5.522-2.055 6.807-4.624 1.284-2.568 1.926-5.565 1.926-8.99H162.2v79.368z"
    fill-rule="nonzero" />
  </symbol>
  <symbol viewBox="0 0 1083 256"
  aria-labelledby="bgrb-icon-p1logo-desc bgrb-icon-p1logo-title"
  id="rb-icon-p1logo">
    <desc id="bgrb-icon-p1logo-desc">The Pier 1 Imports logo</desc>
    <title id="bgrb-icon-p1logo-title">Pier 1 Logo</title>
    <path d="M503.25 216h32V37.5h-32V216zm50-179.5c-2.5.167-5 .667-7.5 1.5s-4.417 2-5.75 3.5v13.75c6-1.667 9.375-.708 10.125 2.875s1.125 6.542 1.125 8.875v149H583V69.75c0-12.667-2.667-21.5-8-26.5S562.417 36 553.25 36.5zm46.75-.25c-.833 0-1.75.042-2.75.125-1 .083-1.917.125-2.75.125-.167 0-.25.042-.25.125 0 .083-.083.125-.25.125a29.058 29.058 0 0 0-6.875 1.875c-2.25.917-4.458 2.292-6.625 4.125 1 1.5 1.958 3.083 2.875 4.75a23.911 23.911 0 0 1 2.125 5.25l.5 1.5c.167.5.25 1 .25 1.5a4.462 4.462 0 0 1 1.125-.375 7.024 7.024 0 0 1 1.375-.125H591c4.333.5 6.75 2.583 7.25 6.25L599 67v149h32V69.75c0-12.167-2.667-20.792-8-25.875-5.333-5.083-13-7.625-23-7.625zM648.75 256h32V37.5h-32V256zm50-219.5c-2.5.167-5 .667-7.5 1.5s-4.417 2-5.75 3.5v13.75c6-1.667 9.375-.708 10.125 2.875s1.125 6.542 1.125 8.875v119.75c0 2.167-.375 5.042-1.125 8.625s-4.125 4.542-10.125 2.875V212c1.333 1.5 3.25 2.708 5.75 3.625 2.5.917 5 1.375 7.5 1.375 9.167.5 16.458-1.75 21.875-6.75 5.417-5 8.125-13.833 8.125-26.5v-114c0-12.667-2.708-21.5-8.125-26.5S707.917 36 698.75 36.5zM840.25 216h32V37.5h-32V216zm50-179.5a28.788 28.788 0 0 0-7.625 1.5c-2.417.833-4.292 2-5.625 3.5v13.75c5.167-1.167 8-.375 8.5 2.375s.75 5.875.75 9.375v20.75h29.25v-18c0-12.833-1.958-21.708-5.875-26.625C905.708 38.208 899.25 36 890.25 36.5zM808 41.25l-3.125-1.375c-2.083-.917-4.708-1.542-7.875-1.875-1.333-.167-2.917-.292-4.75-.375-1.833-.083-3.75-.125-5.75-.125H781v19.25c.167 0 .292-.042.375-.125.083-.083.208-.125.375-.125l1.375-.125c.917-.083 2.042-.042 3.375.125 3 .5 4.667 1.833 5 4l.5 3.25v126l-.5 3.375c-.333 2.25-2 3.542-5 3.875-1.333.167-2.458.208-3.375.125L781.75 197h-.375c-.083 0-.208-.083-.375-.25V216h5.5c2 0 3.917-.042 5.75-.125 1.833-.083 3.417-.208 4.75-.375 3.167-.333 5.792-.958 7.875-1.875L808 212.25c4.333-2.5 8.083-6.125 11.25-10.875S824 189.75 824 180.75v-108c0-9-1.583-15.875-4.75-20.625S812.333 43.75 808 41.25zm-47.5 0c-4.333 2.5-8.125 6.125-11.375 10.875S744.25 63.75 744.25 72.75v108c0 9 1.625 15.875 4.875 20.625s7.042 8.375 11.375 10.875l3 1.375c2 .917 4.583 1.542 7.75 1.875.833.167 1.667.292 2.5.375a25.11 25.11 0 0 0 2.5.125V37.5c-.833.167-1.667.25-2.5.25s-1.667.083-2.5.25c-3.167.333-5.75.958-7.75 1.875l-3 1.375zM956.5 58h11V37.5h-11V7.75h-32v176c0 12.167 2.667 20.792 8 25.875 5.333 5.083 12.583 7.625 21.75 7.625 2.167 0 4.5-.167 7-.5 2.5-.333 4.583-1.083 6.25-2.25v-16.25c-6 .833-9.333-.875-10-5.125l-1-6.375V58zm79-16.75l-3.125-1.375c-2.083-.917-4.708-1.542-7.875-1.875-1.333-.167-2.917-.292-4.75-.375-1.833-.083-3.75-.125-5.75-.125h-5.5v19.25c.167 0 .333-.042.5-.125l.25-.125c1.5-.167 2.667-.208 3.5-.125l1.25.125c3.167.5 4.917 1.833 5.25 4l.5 3.25v24h32v-15c0-9-1.625-15.875-4.875-20.625s-7.042-8.375-11.375-10.875zM1009.25 197c-3-.333-4.667-1.625-5-3.875l-.5-3.375v-33h-32v24c0 9 1.625 15.875 4.875 20.625s7.042 8.375 11.375 10.875l3.125 1.375c2.083.917 4.708 1.542 7.875 1.875 1.333.167 2.917.292 4.75.375 1.833.083 3.667.125 5.5.125h5.75v-19.25c-.167.167-.333.25-.5.25h-.5c-1.333.167-2.458.208-3.375.125l-1.375-.125zm42.5-40c0-2.5-.417-6.083-1.25-10.75s-3.333-9.25-7.5-13.75c-1.833-2-3.625-3.833-5.375-5.5-1.75-1.667-4.375-4-7.875-7l-16.25-14-.625-.5c-.417-.333-.958-.75-1.625-1.25-.333-.5-1.042-1.292-2.125-2.375s-1.958-2.208-2.625-3.375c-.667-1.333-1.292-3-1.875-5s-.875-4.25-.875-6.75V37.5c-.833.167-1.667.25-2.5.25s-1.583.083-2.25.25c-3.167.333-5.792.958-7.875 1.875L988 41.25c-4.333 2.5-8.125 6.125-11.375 10.875S971.75 63.75 971.75 72.75v20c0 2.5.417 6.083 1.25 10.75s3.333 9.25 7.5 13.75a106.07 106.07 0 0 0 5.25 5.375c1.833 1.75 4.5 4.042 8 6.875l16.25 14 .625.5c.417.333.958.833 1.625 1.5l2.125 2.125c1.083 1.083 1.958 2.208 2.625 3.375.667 1.5 1.292 3.208 1.875 5.125.583 1.917.875 4.208.875 6.875v53c.833-.167 1.667-.25 2.5-.25s1.583-.083 2.25-.25c3.167-.333 5.792-.958 7.875-1.875l3.125-1.375c4.333-2.5 8.125-6.125 11.375-10.875s4.875-11.625 4.875-20.625V157zM1056 51.25c0 3.667 1.333 6.833 4 9.5s5.917 4 9.75 4c3.667 0 6.833-1.333 9.5-4s4-5.917 4-9.75c0-3.667-1.292-6.833-3.875-9.5s-5.792-4-9.625-4-7.083 1.333-9.75 4-4 5.833-4 9.5v.25zm25.75-.25c0 3.333-1.167 6.208-3.5 8.625s-5.167 3.625-8.5 3.625c-3.5 0-6.375-1.167-8.625-3.5s-3.375-5.167-3.375-8.5V51c0-3.167 1.125-5.958 3.375-8.375S1066.25 39 1069.75 39c3.333 0 6.167 1.167 8.5 3.5s3.5 5.167 3.5 8.5zm-17.25-7v13.75h2.25v-5h3.25l3.5 5h2.75l-3.75-5.5c.833-.167 1.583-.583 2.25-1.25s1-1.583 1-2.75c0-1.333-.5-2.375-1.5-3.125s-2.167-1.125-3.5-1.125h-6.25zm2.25 6.75V46h3.75c.833 0 1.542.208 2.125.625.583.417.875.958.875 1.625 0 .833-.25 1.458-.75 1.875-.5.417-1.25.625-2.25.625h-3.75zM357.75 0c0 9.667-1.75 18-5.25 25s-10 11.167-19.5 12.5v27.25h22V216h36.75V0h-34zM97.25 216h32V37.5h-32V216zm0-184.75h32V7.75h-32v23.5zm356 184.75h32V37.5h-32V216zm0-184.75h32V7.75h-32v23.5zm-261.5 158.5l-.5 3.375c-.333 2.25-2 3.542-5 3.875-1.5.167-2.667.208-3.5.125L181.5 197h-.5c-.167 0-.25-.083-.25-.25V216h5.5c1.833 0 3.667-.042 5.5-.125 1.833-.083 3.5-.208 5-.375 3.167-.333 5.75-.958 7.75-1.875l3-1.375c4.333-2.5 8.125-6.125 11.375-10.875s4.875-11.625 4.875-20.625v-24h-32v33zM160 41.25c-4.333 2.5-8.083 6.125-11.25 10.875S144 63.75 144 72.75v108c0 9 1.583 15.875 4.75 20.625s6.917 8.375 11.25 10.875l3.125 1.375c2.083.917 4.708 1.542 7.875 1.875.667.167 1.417.292 2.25.375.833.083 1.75.125 2.75.125V37.5c-1 .167-1.917.25-2.75.25s-1.583.083-2.25.25c-3.167.333-5.792.958-7.875 1.875L160 41.25zm47.5 0l-3-1.375c-2-.917-4.583-1.542-7.75-1.875a77.408 77.408 0 0 0-5-.375 121.109 121.109 0 0 0-5.5-.125h-5.5v19.25l.25-.125a1.11 1.11 0 0 1 .5-.125l1.25-.125c.833-.083 2-.042 3.5.125 3 .5 4.667 1.833 5 4l.5 3.25v39c0 .833-.333 2.042-1 3.625-.667 1.583-2.167 2.542-4.5 2.875h-5.75V130h43.25V72.75c0-9-1.625-15.875-4.875-20.625S211.833 43.75 207.5 41.25zM237.75 216h32V37.5h-32V216zm50-179.5c-2.5.167-5 .667-7.5 1.5s-4.417 2-5.75 3.5v13.75c5.167-1.167 8-.375 8.5 2.375s.75 5.875.75 9.375v20.75H313v-18c0-12.833-1.917-21.708-5.75-26.625-3.833-4.917-10.333-7.125-19.5-6.625zm-219.5-32l-3.625-1.625C62.208 1.792 59.167 1 55.5.5 54 .333 51.792.208 48.875.125A265.217 265.217 0 0 0 41.5 0h-1.75v20.25c4-.5 7-.333 9 .5S52.167 22.5 53 23.5c.833 1.167 1.292 2.375 1.375 3.625L54.5 29v72l-.125 1.875c-.083 1.25-.542 2.458-1.375 3.625-.833 1.167-2.25 2.125-4.25 2.875s-5 .875-9 .375V130h1.75c2 0 4.458-.042 7.375-.125 2.917-.083 5.125-.208 6.625-.375 3.667-.5 6.708-1.292 9.125-2.375l3.625-1.625c5-2.833 9.417-7.042 13.25-12.625s5.75-13.625 5.75-24.125v-47.5c0-10.5-1.917-18.542-5.75-24.125-3.833-5.583-8.25-9.792-13.25-12.625zM0 216h35V0H0v216z"
    fill-rule="nonzero" />
  </symbol>
  <symbol viewBox="0 0 574 256"
  aria-labelledby="bhrb-icon-p1logo-alt-1-desc bhrb-icon-p1logo-alt-1-title"
  id="rb-icon-p1logo-alt-1">
    <desc id="bhrb-icon-p1logo-alt-1-desc">An alternate Pier 1
    Imports logo</desc>
    <title id="bhrb-icon-p1logo-alt-1-title">Pier 1 Logo
    (alternate)</title>
    <g fill-rule="nonzero">
      <path d="M428.354 49.288V80.74h25.281v174.782h37.624V5.89H456.82c0 22.295-6.569 40.212-28.466 43.397zM125.572 255.522h37.026V49.089h-37.026v95.95zM125.572 41.723h37.026V5.891h-37.026v22.295zM244.415 225.263s.597 7.565-6.37 8.361c-3.384.398-5.574 0-5.574 0-.398 0-.597-.199-.995-.199v22.097h6.569c4.38 0 8.76-.2 12.143-.597 7.366-.797 12.74-3.783 12.74-3.783 9.954-5.574 18.713-15.527 18.713-36.43v-27.869h-37.027v38.42h-.199zM207.787 53.468c-9.954 5.574-18.713 15.527-18.713 36.43v124.815c0 20.902 8.76 30.855 18.713 36.43 0 0 5.375 2.985 12.74 3.782 1.593.199 3.583.398 5.574.398V49.487c-1.99 0-3.981.199-5.574.398-7.365.796-12.74 3.583-12.74 3.583zm55.142 0s-5.375-2.986-12.74-3.782c-3.186-.398-7.764-.597-12.144-.597h-6.569v22.096c.199 0 .597-.199.995-.199 0 0 2.19-.398 5.574 0 6.967.995 6.37 8.36 6.37 8.36v45.19c0 1.99-.796 6.768-6.37 7.564h-6.57v23.888h49.967v-66.09c0-20.903-8.76-30.657-18.513-36.43zM309.51 255.522h37.027V49.288H309.51V255.52zm57.73-207.628c-5.773.2-12.143 2.588-15.328 5.773v16.125c12.143-2.588 10.75 5.573 10.75 13.337v24.087h34.04V86.513c0-29.66-8.36-39.614-29.462-38.619zM79.19 10.868s-6.172-3.385-14.931-4.38c-3.384-.398-11.347-.597-15.925-.597h-2.19v23.49c9.157-1.195 13.337 1.194 15.129 3.782 1.99 2.588 1.792 6.37 1.792 6.37v83.012s.199 3.782-1.792 6.37c-1.99 2.588-5.972 4.976-15.13 3.981v23.49h2.19c4.58 0 12.542-.199 15.926-.597 8.56-.996 14.93-4.38 14.93-4.38 11.546-6.569 21.898-18.115 21.898-42.6V54.065c0-25.082-10.352-36.628-21.898-43.197zM.16 255.522h40.61V5.692H.16V255.522zM556.155 254.327h-29.462v-5.574h29.462zM556.155 226.856h-29.462v-7.764l20.504-5.574-20.504-5.573v-7.963h29.462v4.777h-23.29l23.29 6.57v4.18l-23.29 6.37h23.29zM556.155 179.279h-29.462v-10.75c0-6.37 2.588-10.351 8.76-10.351 6.17 0 8.758 3.981 8.758 10.351v5.176h11.944v5.574zm-16.323-5.574v-4.38c0-4.18-1.593-5.374-4.18-5.374-2.589 0-4.181 1.194-4.181 5.374v4.38h8.36zM556.553 131.304c0 7.962-5.574 12.342-15.129 12.342s-15.129-4.38-15.129-12.342c0-7.963 5.574-12.343 15.13-12.343 9.754 0 15.128 4.38 15.128 12.343zm-25.48 0c0 4.578 3.583 6.569 10.351 6.569 6.968 0 10.352-1.99 10.352-6.57 0-4.578-3.583-6.768-10.352-6.768-6.768 0-10.351 2.19-10.351 6.769zM556.155 100.05h-29.462V88.504c0-6.57 3.783-9.356 8.76-9.356 3.582 0 6.568 1.791 7.564 5.375l13.138-6.37v6.17l-11.944 5.574v4.778h11.944v5.375zm-16.522-5.574v-4.18c0-4.38-1.394-5.773-4.18-5.773-2.788 0-4.181 1.592-4.181 4.777v5.176h8.36zM526.693 40.728h4.778v7.564h24.684v5.574h-24.684v7.565h-4.778zM534.656 9.673c-2.389.796-3.782 2.588-3.782 5.176 0 2.389.995 4.18 3.185 4.18 4.976 0 3.981-15.129 13.536-15.129 5.972 0 8.958 3.782 8.958 10.153 0 4.777-2.787 9.356-6.967 10.948l-1.99-4.578c2.786-1.394 4.578-2.986 4.578-6.37 0-2.787-.995-4.977-3.981-4.977-5.773 0-4.579 15.13-13.736 15.13-5.375 0-8.162-4.38-8.162-9.357 0-4.778 2.389-8.56 6.57-10.352l1.79 5.176zM569.44.425v.442h-1.251v3.27h-.51V.867h-1.252V.425h3.013zm.447 0h.72l1.067 3.139 1.059-3.14h.712v3.713h-.477v-2.19c0-.077.001-.202.005-.377.003-.176.005-.363.005-.564l-1.06 3.131h-.497l-1.067-3.131v.114c0 .09.003.23.007.415.004.187.006.324.006.411v2.191h-.48V.425z" />
    </g>
  </symbol>
  <symbol viewBox="0 0 256 256"
  aria-labelledby="birb-icon-phone-desc birb-icon-phone-title"
  id="rb-icon-phone">
    <desc id="birb-icon-phone-desc">A phone handset</desc>
    <title id="birb-icon-phone-title">Phone</title>
    <path d="M212.542 238.248l-36.295-71.66c-.207 0-3.723 1.757-10.548 5.273a3799.318 3799.318 0 0 1-10.858 5.584c-5.79 2.688-12.615-.104-20.474-8.376-7.859-8.273-14.735-18.303-20.63-30.091-5.894-11.789-9.875-23.37-11.943-34.745-2.068-11.374-.31-18.613 5.274-21.715l21.715-10.858L92.488 0 81.785 5.429c-7.135 3.619-10.806 5.429-11.013 5.429-3.722 2.068-8.375 5.222-13.96 9.461-5.583 4.24-9.461 11.53-11.633 21.87-2.171 10.341-1.344 24.663 2.482 42.966 3.826 18.303 13.288 42.448 28.385 72.436 15.097 30.195 28.85 52.323 41.26 66.386 12.408 14.064 23.369 23.267 32.882 27.61 9.514 4.343 17.63 5.48 24.352 3.412 6.722-2.068 12.047-4.033 15.977-5.894.827-.207 4.704-2.068 11.633-5.584l10.392-5.273z"
    fill-rule="nonzero" />
  </symbol>
  <symbol viewBox="0 0 256 256"
  aria-labelledby="bjrb-icon-pin-desc bjrb-icon-pin-title"
  id="rb-icon-pin">
    <desc id="bjrb-icon-pin-desc">A pin that indicates a
    location</desc>
    <title id="bjrb-icon-pin-title">Pin</title>
    <path d="M128.087 0c-11.184 0-21.695 2.123-31.534 6.369-9.838 4.246-18.433 10.045-25.786 17.398-7.353 7.353-13.152 15.948-17.398 25.786C49.123 59.392 47 69.903 47 81.087c0 11.185 2.071 22.939 6.214 35.263 4.142 12.323 9.89 25.579 17.242 39.767 7.353 14.187 15.948 29.514 25.787 45.98A6860.047 6860.047 0 0 1 128.087 256a6860.005 6860.005 0 0 1 31.845-53.903c9.838-16.466 18.434-31.793 25.786-45.98 7.353-14.188 13.1-27.444 17.243-39.767 4.143-12.324 6.214-24.078 6.214-35.263 0-11.184-2.123-21.695-6.37-31.534-4.245-9.838-10.044-18.433-17.397-25.786-7.353-7.353-15.948-13.152-25.787-17.398C149.783 2.123 139.271 0 128.087 0zm0 108.117c-8.077 0-14.964-2.848-20.66-8.544-5.696-5.696-8.544-12.48-8.544-20.35 0-8.077 2.848-14.964 8.544-20.66 5.696-5.696 12.583-8.544 20.66-8.544 8.078 0 14.965 2.848 20.66 8.544 5.696 5.696 8.544 12.583 8.544 20.66 0 7.87-2.848 14.654-8.543 20.35-5.696 5.696-12.583 8.544-20.66 8.544z"
    fill-rule="nonzero" />
  </symbol>
  <symbol viewBox="0 0 256 256"
  aria-labelledby="bkrb-icon-pin-map-desc bkrb-icon-pin-map-title"
  id="rb-icon-pin-map">
    <desc id="bkrb-icon-pin-map-desc">A pin indicating a location
    on a map</desc>
    <title id="bkrb-icon-pin-map-title">Pin On Map</title>
    <path d="M197.592 69.592c0-9.527-1.812-18.537-5.437-27.029-3.624-8.492-8.595-15.896-14.912-22.213-6.317-6.318-13.722-11.288-22.214-14.913C146.537 1.812 137.528 0 128 0c-9.528 0-18.537 1.812-27.03 5.437-8.491 3.625-15.896 8.595-22.213 14.913C72.44 26.667 67.47 34.07 63.845 42.563c-3.625 8.492-5.437 17.502-5.437 27.03 0 9.527 1.812 19.572 5.437 30.135 3.624 10.563 8.543 21.955 14.757 34.175 6.214 12.22 13.566 25.372 22.058 39.456 8.492 14.084 17.605 29.515 27.34 46.291 9.735-16.776 18.848-32.207 27.34-46.29 8.492-14.085 15.844-27.237 22.058-39.457 6.214-12.22 11.133-23.612 14.757-34.175 3.625-10.563 5.437-20.608 5.437-30.136zm-94.446-1.553c0-7.042 2.433-12.997 7.3-17.864 4.868-4.868 10.719-7.301 17.554-7.301 6.835 0 12.686 2.433 17.553 7.3 4.868 4.868 7.301 10.823 7.301 17.865 0 6.835-2.433 12.686-7.3 17.553-4.868 4.868-10.719 7.301-17.554 7.301-6.835 0-12.686-2.433-17.553-7.3-4.868-4.868-7.301-10.72-7.301-17.554zm110.912 104.388h-36.66a212.314 212.314 0 0 1-5.281 9.32l-5.593 9.321h36.04l8.387 16.466h-54.058a311 311 0 0 0-2.951 4.816 245.756 245.756 0 0 0-2.641 4.504h23.3l8.39 20.505H79.844l8.699-20.505h16.155a245.756 245.756 0 0 0-2.64-4.504 311.001 311.001 0 0 0-2.952-4.816H65.864l-6.524-16.466h30.136l-5.593-9.32a212.314 212.314 0 0 1-5.281-9.32h-36.66L0 256h256l-41.942-83.573zM69.592 237.36H30.136l20.815-41.63 8.7 21.125H78.6l-9.009 20.505zm114.952-20.505h31.068l10.252 20.505h-32.932l-8.388-20.505z"
    fill-rule="nonzero" />
  </symbol>
  <symbol viewBox="0 0 256 256"
  aria-labelledby="blrb-icon-play-desc blrb-icon-play-title"
  id="rb-icon-play">
    <desc id="blrb-icon-play-desc">A triangular play symbol</desc>
    <title id="blrb-icon-play-title">Play</title>
    <path d="M21 0l213.333 128L21 256z" fill-rule="nonzero" />
  </symbol>
  <symbol viewBox="0 0 256 256"
  aria-labelledby="bmrb-icon-plus-desc bmrb-icon-plus-title"
  id="rb-icon-plus">
    <desc id="bmrb-icon-plus-desc">A plus sign</desc>
    <title id="bmrb-icon-plus-title">Plus</title>
    <path d="M256 106.667H149.333V0h-42.666v106.667H0v42.666h106.667V256h42.666V149.333H256z"
    fill-rule="nonzero" />
  </symbol>
  <symbol viewBox="0 0 256 256"
  aria-labelledby="bnrb-icon-question-desc bnrb-icon-question-title"
  id="rb-icon-question">
    <desc id="bnrb-icon-question-desc">A circle with a question
    mark inside</desc>
    <title id="bnrb-icon-question-title">Question</title>
    <path d="M128 0c-17.605 0-34.175 3.366-49.709 10.097-15.534 6.732-29.1 15.896-40.699 27.495-11.599 11.599-20.763 25.165-27.495 40.7C3.366 93.824 0 110.394 0 128c0 17.605 3.366 34.175 10.097 49.709 6.732 15.534 15.896 29.1 27.495 40.699 11.599 11.599 25.165 20.763 40.7 27.495C93.824 252.634 110.394 256 128 256c17.605 0 34.175-3.366 49.709-10.097 15.534-6.732 29.1-15.896 40.699-27.495 11.599-11.599 20.763-25.165 27.495-40.7C252.634 162.176 256 145.606 256 128c0-17.605-3.366-34.175-10.097-49.709-6.732-15.534-15.896-29.1-27.495-40.699-11.599-11.599-25.165-20.763-40.7-27.495C162.176 3.366 145.606 0 128 0zm1.243 213.126c-4.971 0-9.217-1.76-12.738-5.281-3.521-3.521-5.282-7.87-5.282-13.049 0-4.97 1.76-9.217 5.282-12.738 3.52-3.52 7.767-5.281 12.738-5.281 5.178 0 9.527 1.76 13.048 5.281 3.521 3.521 5.282 7.767 5.282 12.738 0 5.178-1.76 9.528-5.282 13.049-3.52 3.52-7.767 5.281-12.738 5.281h-.31zm14.602-53.747v3.106h-30.136v-3.106c0-4.764.673-9.942 2.02-15.534 1.345-5.593 4.711-10.874 10.096-15.845a716.03 716.03 0 0 1 16.156-15.068c5.385-4.867 8.077-10.511 8.077-16.932 0-7.042-2.174-12.427-6.524-16.155-4.35-3.729-9.631-5.593-15.845-5.593-10.356 0-16.673 3.78-18.951 11.34-2.278 7.56-3.521 12.583-3.728 15.068H75.806c.414-11.184 3.987-22.99 10.718-35.417 6.732-12.428 20.453-18.641 41.165-18.641 18.227 0 31.534 4.97 39.923 14.913 8.388 9.941 12.582 20.608 12.582 32 0 18.02-6.058 30.601-18.175 37.747-12.116 7.146-18.174 16.518-18.174 28.117z"
    fill-rule="nonzero" />
  </symbol>
  <symbol viewBox="0 0 256 256"
  aria-labelledby="borb-icon-search-desc borb-icon-search-title"
  id="rb-icon-search">
    <desc id="borb-icon-search-desc">A magnifying glass</desc>
    <title id="borb-icon-search-title">Search</title>
    <path d="M225.835 256l-78.795-78.795C132.235 186.528 114.784 192 96 192c-53.024 0-96-42.976-96-96S42.976 0 96 0s96 42.976 96 96c0 18.784-5.483 36.245-14.795 51.04L256 225.835 225.835 256zM96 170.667c41.163 0 74.667-33.494 74.667-74.667S137.163 21.333 96 21.333c-41.163 0-74.667 33.494-74.667 74.667S54.837 170.667 96 170.667z"
    fill-rule="nonzero" />
  </symbol>
  <symbol viewBox="0 0 256 256"
  aria-labelledby="bprb-icon-shipment-desc bprb-icon-shipment-title"
  id="rb-icon-shipment">
    <desc id="bprb-icon-shipment-desc">A box with motion lines
    behind it</desc>
    <title id="bprb-icon-shipment-title">Shipment</title>
    <path d="M201.505 167.194l2.788-1.52v14.7l-2.788 1.521v-14.7zm-5.07 3.042l3.042-1.775v14.701l-3.041 1.775v-14.701zm21.545-12.42l2.788-1.774v14.7l-2.788 1.521v-14.447zM256 84.31v98.344l-81.616 47.652-102.4-59.818V72.145L153.854 25 256 84.31zM138.392 51.107l79.842 47.144 16.221-9.124L153.6 42.489l-15.208 8.618zm28.135 84.15l-79.588-46.13v72.744l79.588 46.384v-72.998zm23.572-21.544l-78.574-46.891-16.729 9.631 79.588 46.131 15.715-8.871zm50.947-11.153l-14.195 8.111v26.614h-.253v.254L198.463 153v-.253.253-26.867l-16.982 9.631v72.998l59.565-34.47V102.56zm-32.697 60.832l2.788-1.774v14.7l-2.788 1.775v-14.7zm16.728-9.885l2.788-1.52v14.7l-2.788 1.52v-14.7zm-11.913 7.097l2.788-1.774v14.7l-2.788 1.775v-14.701zM10.14 89.38h46.637v14.955H15.208l-5.07-14.955zM0 113.713h56.776v14.954H5.07L0 113.713zm29.909 39.54L25.093 138.3h31.683v14.954H29.91z"
    fill-rule="nonzero" />
  </symbol>
  <symbol viewBox="0 0 256 256"
  aria-labelledby="bqrb-icon-sort-both-desc bqrb-icon-sort-both-title"
  id="rb-icon-sort-both">
    <desc id="bqrb-icon-sort-both-desc">An upward-pointing triangle
    above a downward-pointing triangle</desc>
    <title id="bqrb-icon-sort-both-title">Sort Both</title>
    <path d="M128.02 0l82.019 109.36H46L128.02 0zm0 256L46 146.64h164.039L128.019 256z"
    fill-rule="nonzero" />
  </symbol>
  <symbol viewBox="0 0 256 256"
  aria-labelledby="brrb-icon-sort-down-desc brrb-icon-sort-down-title"
  id="rb-icon-sort-down">
    <desc id="brrb-icon-sort-down-desc">A downward-pointing
    triangle</desc>
    <title id="brrb-icon-sort-down-title">Sort Down</title>
    <path d="M128.02 256L46 146.64h164.039z" fill-rule="nonzero" />
  </symbol>
  <symbol viewBox="0 0 256 256"
  aria-labelledby="bsrb-icon-sort-up-desc bsrb-icon-sort-up-title"
  id="rb-icon-sort-up">
    <desc id="bsrb-icon-sort-up-desc">An upward-pointing
    triangle</desc>
    <title id="bsrb-icon-sort-up-title">Sort Up</title>
    <path d="M128.02 0l82.019 109.36H46z" fill-rule="nonzero" />
  </symbol>
  <symbol viewBox="0 0 256 256"
  aria-labelledby="btrb-icon-specs-desc btrb-icon-specs-title"
  id="rb-icon-specs">
    <desc id="btrb-icon-specs-desc">A square with perpendicular
    arrows that indicate measurements</desc>
    <title id="btrb-icon-specs-title">Specs</title>
    <g fill-rule="evenodd">
      <path d="M234.667 64v170.667H64V64h170.667zM256 42.667H42.667V256H256V42.667z"
      fill-rule="nonzero" />
      <path d="M75.486 12V0L42.9 17.951 75.486 36V24h147.961v12l32.586-18.049L223.447 0v12H75.486zM24 75.586h12L18.049 43 0 75.586h12v147.961H0l18.049 32.586L36 223.547H24V75.586z" />
    </g>
  </symbol>
  <symbol viewBox="0 0 256 256"
  aria-labelledby="burb-icon-stack-o-desc burb-icon-stack-o-title"
  id="rb-icon-stack-o">
    <desc id="burb-icon-stack-o-desc">A square stacked on another
    square</desc>
    <title id="burb-icon-stack-o-title">Stack</title>
    <path d="M234.667 64v170.667H64V64h170.667zM256 42.667H42.667V256H256V42.667zM0 0v213.333h21.333v-192h192V0H0z"
    fill-rule="nonzero" />
  </symbol>
  <symbol viewBox="0 0 256 256"
  aria-labelledby="bvrb-icon-star-desc bvrb-icon-star-title"
  id="rb-icon-star">
    <desc id="bvrb-icon-star-desc">A star</desc>
    <title id="bvrb-icon-star-title">Star</title>
    <path d="M128 6l39.146 80.777L256 98.893l-64.621 62.447 15.844 88.233L128 207.32l-79.223 42.253L64.62 161.34 0 99.204l88.854-12.427z"
    fill-rule="nonzero" />
  </symbol>
  <symbol viewBox="0 0 256 256"
  aria-labelledby="bwrb-icon-star-o-desc bwrb-icon-star-o-title"
  id="rb-icon-star-o">
    <desc id="bwrb-icon-star-o-desc">The outline of a star</desc>
    <title id="bwrb-icon-star-o-title">Open Star</title>
    <path d="M128 48.874l26.718 54.99 60.583 8.388-44.117 42.564 10.874 60.271L128 186.194l-54.058 28.893 10.874-60.271-44.117-42.564 60.583-8.388L128 48.874zM128 6L88.854 86.777 0 98.893l64.621 62.447-15.844 88.233L128 207.32l79.223 42.253-15.844-88.233L256 99.204l-88.854-12.427L128 6z"
    fill-rule="nonzero" />
  </symbol>
  <symbol viewBox="0 0 256 256"
  aria-labelledby="bxrb-icon-star-o-half-desc bxrb-icon-star-o-half-title"
  id="rb-icon-star-o-half">
    <desc id="bxrb-icon-star-o-half-desc">A half-filled star</desc>
    <title id="bxrb-icon-star-o-half-title">Half Star</title>
    <path d="M128 55.179l24.907 51.381 56.586 7.808-41.184 39.573 10.048 56.214L128 183.232V55.179zm0-48.918L88.875 86.987 0 99.264l64.683 62.165-15.787 88.31L128 207.424l79.104 42.304-15.787-88.31L256 99.265l-88.875-12.267L128 6.261z"
    fill-rule="nonzero" />
  </symbol>
  <symbol viewBox="0 0 256 256"
  aria-labelledby="byrb-icon-zoom-in-desc byrb-icon-zoom-in-title"
  id="rb-icon-zoom-in">
    <desc id="byrb-icon-zoom-in-desc">A magnifying glass with a
    plus sign inside</desc>
    <title id="byrb-icon-zoom-in-title">Zoom In</title>
    <path d="M138.667 106.667h-32v32H85.333v-32h-32V85.333h32v-32h21.334v32h32v21.334zM225.835 256l-78.795-78.795C132.235 186.528 114.784 192 96 192c-53.024 0-96-42.976-96-96S42.976 0 96 0s96 42.976 96 96c0 18.784-5.483 36.245-14.795 51.04L256 225.835 225.835 256zM96 170.667c41.163 0 74.667-33.494 74.667-74.667S137.163 21.333 96 21.333c-41.163 0-74.667 33.494-74.667 74.667S54.837 170.667 96 170.667z"
    fill-rule="nonzero" />
  </symbol>
  <symbol viewBox="0 0 256 256"
  aria-labelledby="bzrb-icon-zoom-out-desc bzrb-icon-zoom-out-title"
  id="rb-icon-zoom-out">
    <desc id="bzrb-icon-zoom-out-desc">A magnifying glass with a
    minus sign inside</desc>
    <title id="bzrb-icon-zoom-out-title">Zoom Out</title>
    <path d="M138.667 106.667H53.333V85.333h85.334v21.334zM225.835 256l-78.795-78.795C132.235 186.528 114.784 192 96 192c-53.024 0-96-42.976-96-96S42.976 0 96 0s96 42.976 96 96c0 18.784-5.483 36.245-14.795 51.04L256 225.835 225.835 256zM96 170.667c41.163 0 74.667-33.494 74.667-74.667S137.163 21.333 96 21.333c-41.163 0-74.667 33.494-74.667 74.667S54.837 170.667 96 170.667z"
    fill-rule="nonzero" />
  </symbol>
</svg>
