<?xml version="1.0" encoding="utf-8" standalone="no"?>
<svg xmlns="http://www.w3.org/2000/svg"
xmlns:xlink="http://www.w3.org/1999/xlink">
  <symbol viewBox="-80 -80 416 416" id="rb-icon-arrow-down">
    <title>arrow-down</title>
    <path d="M50.071 151.357l68.572 68.572c2.571 2.714 5.786 4.071 9.643 4.071 3.857 0 7.071-1.357 9.643-4.071l68.571-68.572c2.714-2.571 4.071-5.786 4.071-9.643 0-3.857-1.357-7.071-4.071-9.643-2.571-2.714-5.786-4.071-9.643-4.071-3.857 0-7.071 1.357-9.643 4.071l-45.214 45V45.714c0-3.857-1.321-7.107-3.964-9.75S132.143 32 128.286 32s-7.107 1.321-9.75 3.964-3.965 5.893-3.965 9.75v131.357l-45.214-45c-1.286-1.428-2.786-2.464-4.5-3.107-1.714-.643-3.428-.964-5.143-.964-1.714 0-3.428.321-5.143.964-1.714.643-3.214 1.679-4.5 3.107-2.714 2.572-4.071 5.786-4.071 9.643 0 3.857 1.357 7.072 4.071 9.643z"
    fill-rule="evenodd" />
  </symbol>
  <symbol viewBox="-80 -80 416 416" id="rb-icon-arrow-left">
    <title>arrow-left</title>
    <path d="M104.643 50.071L36.07 118.643c-2.714 2.571-4.071 5.786-4.071 9.643 0 3.857 1.357 7.071 4.071 9.643l68.572 68.571c2.571 2.714 5.786 4.071 9.643 4.071 3.857 0 7.071-1.357 9.643-4.071 2.714-2.571 4.071-5.786 4.071-9.643 0-3.857-1.357-7.071-4.071-9.643l-45-45.214h131.357c3.857 0 7.107-1.321 9.75-3.964s3.964-5.893 3.964-9.75-1.321-7.107-3.964-9.75-5.893-3.965-9.75-3.965H78.929l45-45.214c1.428-1.286 2.464-2.786 3.107-4.5.643-1.714.964-3.428.964-5.143 0-1.714-.321-3.428-.964-5.143-.643-1.714-1.679-3.214-3.107-4.5-2.572-2.714-5.786-4.071-9.643-4.071-3.857 0-7.072 1.357-9.643 4.071z"
    fill-rule="evenodd" />
  </symbol>
  <symbol viewBox="-80 -80 416 416" id="rb-icon-arrow-right">
    <title>arrow-right</title>
    <path d="M151.357 206.5l68.572-68.571c2.714-2.572 4.071-5.786 4.071-9.643 0-3.857-1.357-7.072-4.071-9.643L151.357 50.07c-2.571-2.714-5.786-4.071-9.643-4.071-3.857 0-7.071 1.357-9.643 4.071-2.714 2.572-4.071 5.786-4.071 9.643 0 3.857 1.357 7.072 4.071 9.643l45 45.214H45.714c-3.857 0-7.107 1.322-9.75 3.965S32 124.429 32 128.286s1.321 7.107 3.964 9.75S41.857 142 45.714 142h131.357l-45 45.214c-1.428 1.286-2.464 2.786-3.107 4.5-.643 1.715-.964 3.429-.964 5.143s.321 3.429.964 5.143 1.679 3.214 3.107 4.5c2.572 2.714 5.786 4.071 9.643 4.071 3.857 0 7.072-1.357 9.643-4.071z"
    fill-rule="evenodd" />
  </symbol>
  <symbol viewBox="-80 -80 416 416" id="rb-icon-arrow-up">
    <title>arrow-up</title>
    <path d="M206.5 104.643L137.929 36.07c-2.572-2.714-5.786-4.071-9.643-4.071-3.857 0-7.072 1.357-9.643 4.071L50.07 104.643c-2.714 2.571-4.071 5.786-4.071 9.643 0 3.857 1.357 7.071 4.071 9.643 2.572 2.714 5.786 4.071 9.643 4.071 3.857 0 7.072-1.357 9.643-4.071l45.214-45v131.357c0 3.857 1.322 7.107 3.965 9.75s5.893 3.964 9.75 3.964 7.107-1.321 9.75-3.964 3.964-5.893 3.964-9.75V78.929l45.214 45c1.286 1.428 2.786 2.464 4.5 3.107 1.715.643 3.429.964 5.143.964s3.429-.321 5.143-.964 3.214-1.679 4.5-3.107c2.714-2.572 4.071-5.786 4.071-9.643 0-3.857-1.357-7.072-4.071-9.643z"
    fill-rule="evenodd" />
  </symbol>
  <symbol viewBox="-80 -80 416 416" id="rb-icon-avatar">
    <title>avatar</title>
    <path d="M198.602 176.466c-13.825-3.107-25.631-6.835-35.418-11.184-9.786-4.35-11.572-12.35-5.359-24 9.476-17.865 15.107-33.593 16.893-47.185 1.787-13.592.894-25.01-2.68-34.252-3.572-9.243-9.32-16.194-17.242-20.855C146.874 34.33 137.942 32 128 32c-10.097 0-19.146 2.408-27.146 7.223-8 4.816-13.747 11.884-17.242 21.204-3.496 9.32-4.311 20.738-2.447 34.253 1.864 13.514 7.534 29.048 17.01 46.602 6.369 11.65 4.543 19.65-5.476 24-10.02 4.35-21.786 8.077-35.3 11.184-13.67 3.107-21.321 8.466-22.952 16.078-1.631 7.611-2.447 17.941-2.447 30.99h192c0-13.049-.816-23.379-2.447-30.99-1.63-7.612-9.281-12.971-22.951-16.078z"
    fill-rule="evenodd" />
  </symbol>
  <symbol viewBox="-80 -80 416 416" id="rb-icon-basket">
    <title>basket</title>
    <path d="M90.718 97.204l31.457-31.223c1.709-1.71 2.563-3.69 2.563-5.942 0-2.253-.854-4.155-2.563-5.709-1.554-1.553-3.457-2.33-5.709-2.33s-4.155.777-5.709 2.33L67.883 97.204h22.835zm74.33 0h23.069L145.243 54.33c-1.554-1.553-3.457-2.33-5.709-2.33s-4.155.777-5.709 2.33c-1.709 1.554-2.563 3.456-2.563 5.709 0 2.252.854 4.233 2.563 5.942l31.224 31.223zM32 108.854v18.641h5.126c2.175 0 4.156.544 5.942 1.631 1.786 1.088 3.146 2.641 4.078 4.66l34.951 71.068h92.039l34.718-71.068c.932-2.019 2.292-3.572 4.078-4.66 1.786-1.087 3.767-1.63 5.942-1.63H224v-18.642H32z"
    fill-rule="evenodd" />
  </symbol>
  <symbol viewBox="-80 -80 416 416" id="rb-icon-bookmark">
    <title>bookmark</title>
    <path d="M175.534 224l-47.767-42.175L80 224V32h95.534z"
    fill-rule="evenodd" />
  </symbol>
  <symbol viewBox="-80 -80 416 416" id="rb-icon-cart">
    <title>cart</title>
    <path d="M224 87.111H82.963L68.346 48H32l7.111 21.333 14.222.198 36.148 103.506c-4.082.658-7.506 2.634-10.271 5.926-2.766 3.292-4.148 7.111-4.148 11.457 0 4.872 1.712 9.053 5.136 12.543 3.423 3.49 7.572 5.235 12.444 5.235 5.004 0 9.218-1.745 12.642-5.235 3.424-3.49 5.136-7.67 5.136-12.543 0-.922-.066-1.844-.198-2.766a14.677 14.677 0 0 0-.592-2.568H167.9c-.263.79-.46 1.647-.592 2.568a19.53 19.53 0 0 0-.198 2.766c0 4.872 1.712 9.053 5.136 12.543 3.424 3.49 7.572 5.235 12.444 5.235 5.004 0 9.218-1.745 12.642-5.235 3.424-3.49 5.136-7.67 5.136-12.543 0-2.634-.527-5.07-1.58-7.309-1.054-2.239-2.436-4.148-4.148-5.728l-5.136-14.815h-84.543l-3.95-13.432h101.53L224 87.11z"
    fill-rule="evenodd" />
  </symbol>
  <symbol viewBox="-80 -80 416 416" id="rb-icon-chat-double-o">
    <title>chat-double-o</title>
    <path d="M213.98 191.748a42.238 42.238 0 0 0 7.457-12.932c1.709-4.738 2.563-9.67 2.563-14.797 0-8.233-2.136-15.689-6.408-22.369s-9.825-12.194-16.66-16.543a81.027 81.027 0 0 0 2.214-9.32c.543-3.107.815-6.292.815-9.554 0-10.408-2.369-20.039-7.107-28.893-4.738-8.855-11.068-16.505-18.99-22.952-7.922-6.446-17.048-11.456-27.379-15.029C140.155 35.786 129.32 34 117.981 34c-11.34 0-22.214 1.786-32.622 5.36-10.408 3.572-19.573 8.582-27.495 15.028-7.922 6.447-14.213 14.097-18.874 22.952C34.33 86.194 32 95.825 32 106.233c0 7.456 1.282 14.718 3.845 21.786 2.563 7.068 6.174 13.398 10.835 18.99.155 6.68-1.32 14.292-4.428 22.836-3.106 8.543-6.368 16.31-9.786 23.3 9.32-1.708 19.65-4.271 30.99-7.689 11.34-3.417 20.04-6.99 26.097-10.718 3.573.777 7.068 1.437 10.486 1.98 3.417.544 6.757.971 10.02 1.282 2.019 5.903 5.32 11.34 9.902 16.31 4.583 4.972 10.136 9.05 16.66 12.234 6.525 3.184 13.864 5.204 22.02 6.058 8.155.854 16.97.116 26.446-2.214 4.04 2.486 9.903 4.894 17.593 7.224 7.689 2.33 14.718 4.038 21.087 5.126-2.33-4.66-4.544-9.903-6.64-15.728-2.098-5.826-3.146-10.913-3.146-15.262zM89.088 157.262c-8.077 4.66-15.145 8.039-21.204 10.136l-9.087 3.146 2.68-8.389c1.786-5.592 3.145-12.116 4.077-19.572-4.97-4.971-9.01-10.253-12.116-15.845-3.107-5.592-4.66-12.427-4.66-20.505 0-7.612 1.825-14.796 5.475-21.553 3.65-6.758 8.583-12.66 14.797-17.71 6.213-5.048 13.553-9.009 22.019-11.883 8.466-2.873 17.437-4.31 26.913-4.31 9.475 0 18.446 1.437 26.912 4.31 8.466 2.874 15.806 6.835 22.02 11.884 6.213 5.048 11.145 10.951 14.796 17.709 3.65 6.757 5.475 13.941 5.475 21.553 0 7.922-2.213 15.806-6.64 23.65-4.428 7.845-10.835 14.486-19.224 19.923-8.388 5.437-18.68 9.048-30.873 10.835-12.195 1.786-25.98.66-41.36-3.379zm114.874 48.233l-5.942-1.98c-3.96-1.32-8.504-3.457-13.63-6.408-15.224 4.039-27.962 3.806-38.214-.7-10.253-4.504-17.32-10.562-21.204-18.174 8.078-.466 15.728-1.825 22.951-4.078 7.224-2.252 13.826-5.165 19.806-8.738 5.98-3.572 11.301-7.728 15.961-12.466 4.66-4.737 8.622-9.825 11.884-15.262 4.505 3.262 8.077 7.185 10.718 11.767 2.641 4.583 3.961 9.515 3.961 14.796 0 5.127-1.01 9.476-3.029 13.049-2.02 3.573-4.582 6.99-7.689 10.252.621 4.816 1.515 9.01 2.68 12.583l1.747 5.36z"
    fill-rule="evenodd" />
  </symbol>
  <symbol viewBox="-80 -80 416 416" id="rb-icon-chat-help">
    <title>chat-help</title>
    <path d="M128 39c-12.738 0-24.893 2.02-36.466 6.058-11.573 4.04-21.748 9.631-30.524 16.777-8.777 7.146-15.806 15.65-21.088 25.515C34.641 97.214 32 108.048 32 119.854c0 8.233 1.437 16.272 4.31 24.117 2.874 7.845 6.874 14.951 12 21.32.311 7.301-1.28 15.767-4.776 25.398-3.495 9.631-7.184 18.253-11.068 25.864 5.126-.932 10.718-2.136 16.777-3.611a315.31 315.31 0 0 0 17.825-4.893c5.825-1.787 11.3-3.69 16.427-5.71 5.126-2.019 9.398-4.116 12.816-6.29 18.485 4.66 35.534 5.553 51.145 2.68 15.612-2.875 29.088-8.117 40.427-15.729 11.34-7.612 20.195-17.01 26.564-28.194C220.816 143.62 224 131.97 224 119.854c0-11.806-2.64-22.64-7.922-32.504-5.282-9.865-12.35-18.408-21.204-25.632-8.855-7.223-19.068-12.815-30.641-16.776C152.66 40.98 140.583 39 128 39zm2.563 129.32c-2.796 0-5.204-1.01-7.223-3.029-2.02-2.02-3.03-4.427-3.03-7.223 0-2.796 1.01-5.204 3.03-7.223 2.02-2.02 4.427-3.03 7.223-3.03 2.952 0 5.437 1.01 7.456 3.03 2.02 2.02 3.03 4.427 3.03 7.223 0 2.796-1.01 5.204-3.03 7.223-2.019 2.02-4.504 3.03-7.456 3.03zm8.155-30.524v1.864h-17.01v-1.864c0-2.64.39-5.553 1.166-8.738.776-3.184 2.718-6.252 5.825-9.204a186.958 186.958 0 0 1 9.087-8.504c3.107-2.719 4.66-5.865 4.66-9.437 0-4.04-1.242-7.146-3.728-9.32-2.485-2.176-5.514-3.263-9.087-3.263-5.903 0-9.476 2.175-10.718 6.524-1.243 4.35-1.942 7.224-2.097 8.622h-16.544c.155-6.37 2.136-13.088 5.942-20.156 3.805-7.068 11.611-10.602 23.417-10.602 10.408 0 17.98 2.835 22.719 8.505 4.737 5.67 7.106 11.767 7.106 18.292 0 10.252-3.456 17.359-10.369 21.32-6.912 3.961-10.369 9.281-10.369 15.961z"
    fill-rule="evenodd" />
  </symbol>
  <symbol viewBox="-80 -80 416 416" id="rb-icon-chat-single">
    <title>chat-single</title>
    <path d="M128 43c-13.204 0-25.631 2.058-37.282 6.175-11.65 4.116-21.825 9.786-30.524 17.01-8.699 7.223-15.573 15.611-20.621 25.165C34.524 100.903 32 111.194 32 122.223c0 9.165 1.748 17.903 5.243 26.214 3.495 8.31 8.194 15.495 14.097 21.553l-13.515 43.573 54.758-17.476c18.951 4.971 36.465 6.214 52.543 3.729 16.078-2.486 29.942-7.457 41.592-14.913 11.651-7.456 20.777-16.738 27.38-27.845 6.601-11.107 9.902-22.718 9.902-34.835 0-11.029-2.524-21.32-7.573-30.873-5.048-9.554-11.922-17.942-20.621-25.166-8.7-7.223-18.874-12.893-30.524-17.01C153.63 45.059 141.204 43 128 43z"
    fill-rule="evenodd" />
  </symbol>
  <symbol viewBox="-80 -80 416 416" id="rb-icon-check">
    <title>check</title>
    <path d="M104 200.56l-72-69.104 22.328-22.96 49.248 46.992L201.256 56 224 78.536z"
    fill-rule="evenodd" />
  </symbol>
  <symbol viewBox="-80 -80 416 416" id="rb-icon-check-circle">
    <title>check-circle</title>
    <path d="M128 32c-53.016 0-96 42.984-96 96s42.984 96 96 96 96-42.984 96-96-42.984-96-96-96zm-10 132.144l-36-34.552 11.168-11.48 24.624 23.496 48.84-49.744L178 103.136l-60 61.008z"
    fill-rule="evenodd" />
  </symbol>
  <symbol viewBox="-80 -80 416 416" id="rb-icon-chevron-down">
    <title>chevron-down</title>
    <path d="M198.369 67L224 92.631l-96 95.534-96-95.534L57.631 67 128 137.136z"
    fill-rule="evenodd" />
  </symbol>
  <symbol viewBox="-80 -80 416 416" id="rb-icon-chevron-left">
    <title>chevron-left</title>
    <path d="M188.165 198.369L162.534 224 67 128l95.534-96 25.631 25.631L118.029 128z"
    fill-rule="evenodd" />
  </symbol>
  <symbol viewBox="-80 -80 416 416" id="rb-icon-chevron-right">
    <title>chevron-right</title>
    <path d="M67 57.631L92.631 32l95.534 96-95.534 96L67 198.369 136.903 128z"
    fill-rule="evenodd" />
  </symbol>
  <symbol viewBox="-80 -80 416 416" id="rb-icon-chevron-up">
    <title>chevron-up</title>
    <path d="M57.631 188.165L32 162.534 128 67l96 95.534-25.631 25.631L128 118.029z"
    fill-rule="evenodd" />
  </symbol>
  <symbol viewBox="-80 -80 416 416" id="rb-icon-close">
    <title>close</title>
    <path d="M224 200.608l-73.472-72.76 72.736-73.392L200.608 32l-72.72 73.432L54.48 32.728 32 55.208l73.488 72.84-72.76 73.472L55.208 224l72.896-73.536 73.44 72.8z"
    fill-rule="evenodd" />
  </symbol>
  <symbol viewBox="-80 -80 416 416" id="rb-icon-credit-card">
    <title>credit-card</title>
    <path d="M206 56H50c-5 0-9.25 1.75-12.75 5.25S32 69 32 74v108c0 5 1.75 9.25 5.25 12.75S45 200 50 200h156c5 0 9.25-1.75 12.75-5.25S224 187 224 182V74c0-5-1.75-9.25-5.25-12.75S211 56 206 56zM50 68h156c1.625 0 3.031.594 4.219 1.781C211.406 70.97 212 72.375 212 74v18H44V74c0-1.625.594-3.031 1.781-4.219C46.97 68.594 48.375 68 50 68zm156 120H50c-1.625 0-3.031-.594-4.219-1.781C44.594 185.03 44 183.625 44 182v-54h168v54c0 1.625-.594 3.031-1.781 4.219C209.03 187.406 207.625 188 206 188zM56 176h12v-24H56v24zm24 0h12v-24H80v24zm24 0h12v-24h-12v24z"
    fill-rule="evenodd" />
  </symbol>
  <symbol viewBox="-80 -80 416 416" id="rb-icon-edit">
    <title>edit</title>
    <path d="M89.087 212.583L32 223.068l11.417-56.155 45.67 45.67zM178.563 32L224 77.437 102.136 199.3l-45.437-45.437L178.563 32z"
    fill-rule="evenodd" />
  </symbol>
  <symbol viewBox="-80 -80 416 416" id="rb-icon-envelope">
    <title>envelope</title>
    <path d="M128 136.223L32.466 57H224l-96 79.223zm96-53.592v116.505H32V82.398l96 79.69 96-79.457z"
    fill-rule="evenodd" />
  </symbol>
  <symbol viewBox="-80 -80 416 416" id="rb-icon-filter">
    <title>filter</title>
    <path d="M40 32h175.223l-71.3 120.699V224l-33.088-24.233v-47.068z"
    fill-rule="evenodd" />
  </symbol>
  <symbol viewBox="-80 -80 416 416" id="rb-icon-heart">
    <title>heart</title>
    <path d="M128 65.985c-25.184-43.216-96-30.6-96 23.552 0 37.288 44.568 75.416 96 126.464 51.44-51.048 96-89.176 96-126.464 0-54.336-71-66.448-96-23.552z"
    fill-rule="evenodd" />
  </symbol>
  <symbol viewBox="-80 -80 416 416" id="rb-icon-heart-o">
    <title>heart-o</title>
    <path d="M82.24 56c25.888.008 39.784 27.928 45.76 40.248 6-12.376 19.752-40.168 45.808-40.168C190.272 56.08 208 66.552 208 89.536c0 27.536-37.952 62.808-80 104-42.064-41.208-80-76.472-80-104C48 68.128 63.72 55.992 82.24 56zm.008-16C56.784 40 32 57.496 32 89.536c0 37.288 44.56 75.416 96 126.464 51.44-51.048 96-89.176 96-126.464 0-32.088-24.776-49.456-50.192-49.456-17.632 0-35.568 8.336-45.808 25.904C117.72 48.336 99.824 40 82.248 40z"
    fill-rule="evenodd" />
  </symbol>
  <symbol viewBox="-80 -80 416 416" id="rb-icon-history">
    <title>history</title>
    <path d="M134.276 80.814v46.954h42.073v18.828h-60.901V80.814h18.828zM128.232 32c13.172 0 25.57 2.518 37.192 7.554 11.622 5.037 21.772 11.894 30.45 20.572 8.678 8.678 15.535 18.828 20.572 30.45 5.036 11.623 7.554 24.02 7.554 37.192s-2.518 25.569-7.554 37.19c-5.037 11.623-11.894 21.773-20.572 30.451-8.678 8.678-18.828 15.535-30.45 20.572-11.623 5.036-24.02 7.554-37.192 7.554-12.862 0-24.987-2.363-36.377-7.09-11.39-4.726-21.385-11.234-29.986-19.525-8.6-8.29-15.496-17.976-20.687-29.056-5.192-11.08-8.097-23.05-8.717-35.912l20.92-3.72c0 10.228 1.976 19.874 5.927 28.94 3.952 9.065 9.298 16.968 16.04 23.71 6.74 6.74 14.643 12.048 23.709 15.922 9.065 3.874 18.789 5.811 29.171 5.811 10.383 0 20.107-1.976 29.172-5.927 9.066-3.952 16.969-9.298 23.71-16.04 6.74-6.74 12.087-14.643 16.039-23.709 3.951-9.065 5.927-18.789 5.927-29.171 0-10.383-1.976-20.107-5.927-29.172-3.952-9.066-9.298-16.969-16.04-23.71-6.74-6.74-14.643-12.087-23.709-16.039-9.065-3.951-18.789-5.927-29.172-5.927-10.227 0-20.145 1.898-29.753 5.695-9.607 3.797-17.743 9.027-24.406 15.69L90.809 90.81 32 101.5l10.692-58.576 16.504 16.504c4.34-4.184 9.143-7.981 14.412-11.39a100.833 100.833 0 0 1 16.736-8.717c5.888-2.402 12.048-4.223 18.48-5.462A102.31 102.31 0 0 1 128.231 32z"
    fill-rule="evenodd" />
  </symbol>
  <symbol viewBox="-80 -80 416 416" id="rb-icon-home">
    <title>home</title>
    <path d="M204.194 137v77.36h-55.456v-42.176h-41.476v42.175H51.806V137H32l96-96 96 96h-19.806zm-11.883-47.068l-22.37-22.369V49.621h22.37v40.311z"
    fill-rule="evenodd" />
  </symbol>
  <symbol viewBox="-80 -80 416 416" id="rb-icon-info">
    <title>info</title>
    <path d="M128 224c53.016 0 96-42.984 96-96s-42.984-96-96-96-96 42.984-96 96 42.984 96 96 96zm8-48h-16v-64h16v64zm-8-98c5.52 0 10 4.48 10 10s-4.48 10-10 10-10-4.48-10-10 4.48-10 10-10z"
    fill-rule="evenodd" />
  </symbol>
  <symbol viewBox="-80 -80 416 416" id="rb-icon-lock-check">
    <title>lock-check</title>
    <path d="M99.777 112.854H76.476V83.495c0-6.99 1.359-13.63 4.077-19.922 2.719-6.291 6.408-11.767 11.068-16.427 4.66-4.66 10.097-8.35 16.311-11.068C114.146 33.359 120.825 32 127.971 32c7.146 0 13.825 1.36 20.039 4.078 6.213 2.718 11.65 6.407 16.31 11.068 4.66 4.66 8.35 10.136 11.068 16.427 2.719 6.291 4.078 12.932 4.078 19.922v29.36h-23.301v-29.36c0-7.767-2.757-14.408-8.272-19.922-5.514-5.515-12.155-8.272-19.922-8.272-7.767 0-14.408 2.757-19.922 8.272-5.515 5.514-8.272 12.155-8.272 19.922v29.36zm97.165 13.981V224H59v-97.165h137.942zm-36.35 33.553l-9.553-9.786-30.291 30.058-13.049-13.048-9.553 9.786L120.748 200l39.844-39.612z"
    fill-rule="evenodd" />
  </symbol>
  <symbol viewBox="-80 -80 416 416" id="rb-icon-menu">
    <title>menu</title>
    <path d="M224 55H32v30.291h192V55zm0 58.252H32v30.292h192v-30.292zm0 58.253H32v30.291h192v-30.291z"
    fill-rule="evenodd" />
  </symbol>
  <symbol viewBox="-80 -80 416 416" id="rb-icon-minus">
    <title>minus</title>
    <path d="M32 112h192v32H32z" fill-rule="evenodd" />
  </symbol>
  <symbol viewBox="-80 -80 416 416" id="rb-icon-p1apron">
    <title>p1apron</title>
    <path d="M190.197 155.14c-5.65-8.734-9.889-18.023-12.714-27.87-2.826-9.846-4.795-18.964-5.908-27.354-1.113-8.39-1.627-15.326-1.541-20.805l.128-8.22h-2.825c-1.199-25.514-4.238-41.396-9.118-47.646l-7.32-9.375C139.425 0 128.937-3.468 119.433 3.468L105.179 13.87c-4.281 4.795-7.492 10.445-9.632 16.952-2.14 6.507-3.682 12.715-4.624 18.622-.941 5.908-1.498 10.916-1.67 15.026l-.256 6.165-2.055.513c0 15.925-1.027 29.239-3.082 39.94-2.055 10.703-4.367 19.308-6.935 25.815-2.569 6.506-4.923 11.173-7.064 13.998l-3.21 4.238L61 228.085l4.11 9.632c2.74 6.422 8.561 10.745 17.466 12.971 13.185 3.254 26.455 5.009 39.812 5.266 13.356.257 26.541-.557 39.555-2.44 12.843-1.713 21.704-5.266 26.584-10.66 4.88-5.394 7.32-11.087 7.32-17.08 0-2.911-.299-8.22-.898-15.925-.6-7.706-1.242-15.625-1.927-23.76a1893.91 1893.91 0 0 0-1.926-21.575l-.9-9.375zm-82.193 32.62v39.298h-13.1V147.69h13.1v40.07zm19.007-7.45c0 3.94-.685 6.936-2.055 8.99-1.37 2.055-2.996 3.596-4.88 4.624l-1.413.642c-.941.428-2.097.728-3.467.899h-5.651v-7.449c1.541.171 2.654.129 3.34-.128.684-.257 1.198-.642 1.54-1.156.343-.343.514-.77.514-1.284V157.45c0-.514-.171-.942-.514-1.285-.342-.513-.856-.898-1.54-1.155-.686-.257-1.799-.3-3.34-.129v-7.192l.257-.128.257-.129h2.825c1.028 0 1.798.086 2.312.257 1.37.172 2.526.428 3.467.77l1.413.515c1.884 1.027 3.51 2.568 4.88 4.623s2.055 5.051 2.055 8.99v17.723zM98.501 70.892l-.129-6.678c-.086-4.452.086-9.717.514-15.796.428-6.08 1.241-12.33 2.44-18.75 1.199-6.422 3.082-11.687 5.65-15.797 3.94-3.938 10.874-6.079 20.806-6.421 9.931-.343 17.38 1.883 22.346 6.678 2.568 3.938 4.452 9.075 5.65 15.411a160.73 160.73 0 0 1 2.44 18.75c.429 6.165.6 11.473.514 15.925l-.128 6.678H98.5zM162.2 227.058h-13.613V171.32h-7.449v-10.017c3.254-.514 5.522-2.055 6.807-4.624 1.284-2.568 1.926-5.565 1.926-8.99H162.2v79.368z"
    fill-rule="evenodd" />
  </symbol>
  <symbol viewBox="-338.44 -338.44 1759.88 932.88"
  id="rb-icon-p1logo">
    <title>p1logo</title>
    <path d="M503.25 216h32V37.5h-32V216zm50-179.5c-2.5.167-5 .667-7.5 1.5s-4.417 2-5.75 3.5v13.75c6-1.667 9.375-.708 10.125 2.875s1.125 6.542 1.125 8.875v149H583V69.75c0-12.667-2.667-21.5-8-26.5S562.417 36 553.25 36.5zm46.75-.25c-.833 0-1.75.042-2.75.125-1 .083-1.917.125-2.75.125-.167 0-.25.042-.25.125 0 .083-.083.125-.25.125a29.058 29.058 0 0 0-6.875 1.875c-2.25.917-4.458 2.292-6.625 4.125 1 1.5 1.958 3.083 2.875 4.75a23.911 23.911 0 0 1 2.125 5.25l.5 1.5c.167.5.25 1 .25 1.5a4.462 4.462 0 0 1 1.125-.375 7.024 7.024 0 0 1 1.375-.125H591c4.333.5 6.75 2.583 7.25 6.25L599 67v149h32V69.75c0-12.167-2.667-20.792-8-25.875-5.333-5.083-13-7.625-23-7.625zM648.75 256h32V37.5h-32V256zm50-219.5c-2.5.167-5 .667-7.5 1.5s-4.417 2-5.75 3.5v13.75c6-1.667 9.375-.708 10.125 2.875s1.125 6.542 1.125 8.875v119.75c0 2.167-.375 5.042-1.125 8.625s-4.125 4.542-10.125 2.875V212c1.333 1.5 3.25 2.708 5.75 3.625 2.5.917 5 1.375 7.5 1.375 9.167.5 16.458-1.75 21.875-6.75 5.417-5 8.125-13.833 8.125-26.5v-114c0-12.667-2.708-21.5-8.125-26.5S707.917 36 698.75 36.5zM840.25 216h32V37.5h-32V216zm50-179.5a28.788 28.788 0 0 0-7.625 1.5c-2.417.833-4.292 2-5.625 3.5v13.75c5.167-1.167 8-.375 8.5 2.375s.75 5.875.75 9.375v20.75h29.25v-18c0-12.833-1.958-21.708-5.875-26.625C905.708 38.208 899.25 36 890.25 36.5zM808 41.25l-3.125-1.375c-2.083-.917-4.708-1.542-7.875-1.875-1.333-.167-2.917-.292-4.75-.375-1.833-.083-3.75-.125-5.75-.125H781v19.25c.167 0 .292-.042.375-.125.083-.083.208-.125.375-.125l1.375-.125c.917-.083 2.042-.042 3.375.125 3 .5 4.667 1.833 5 4l.5 3.25v126l-.5 3.375c-.333 2.25-2 3.542-5 3.875-1.333.167-2.458.208-3.375.125L781.75 197h-.375c-.083 0-.208-.083-.375-.25V216h5.5c2 0 3.917-.042 5.75-.125 1.833-.083 3.417-.208 4.75-.375 3.167-.333 5.792-.958 7.875-1.875L808 212.25c4.333-2.5 8.083-6.125 11.25-10.875S824 189.75 824 180.75v-108c0-9-1.583-15.875-4.75-20.625S812.333 43.75 808 41.25zm-47.5 0c-4.333 2.5-8.125 6.125-11.375 10.875S744.25 63.75 744.25 72.75v108c0 9 1.625 15.875 4.875 20.625s7.042 8.375 11.375 10.875l3 1.375c2 .917 4.583 1.542 7.75 1.875.833.167 1.667.292 2.5.375a25.11 25.11 0 0 0 2.5.125V37.5c-.833.167-1.667.25-2.5.25s-1.667.083-2.5.25c-3.167.333-5.75.958-7.75 1.875l-3 1.375zM956.5 58h11V37.5h-11V7.75h-32v176c0 12.167 2.667 20.792 8 25.875 5.333 5.083 12.583 7.625 21.75 7.625 2.167 0 4.5-.167 7-.5 2.5-.333 4.583-1.083 6.25-2.25v-16.25c-6 .833-9.333-.875-10-5.125l-1-6.375V58zm79-16.75l-3.125-1.375c-2.083-.917-4.708-1.542-7.875-1.875-1.333-.167-2.917-.292-4.75-.375-1.833-.083-3.75-.125-5.75-.125h-5.5v19.25c.167 0 .333-.042.5-.125l.25-.125c1.5-.167 2.667-.208 3.5-.125l1.25.125c3.167.5 4.917 1.833 5.25 4l.5 3.25v24h32v-15c0-9-1.625-15.875-4.875-20.625s-7.042-8.375-11.375-10.875zM1009.25 197c-3-.333-4.667-1.625-5-3.875l-.5-3.375v-33h-32v24c0 9 1.625 15.875 4.875 20.625s7.042 8.375 11.375 10.875l3.125 1.375c2.083.917 4.708 1.542 7.875 1.875 1.333.167 2.917.292 4.75.375 1.833.083 3.667.125 5.5.125h5.75v-19.25c-.167.167-.333.25-.5.25h-.5c-1.333.167-2.458.208-3.375.125l-1.375-.125zm42.5-40c0-2.5-.417-6.083-1.25-10.75s-3.333-9.25-7.5-13.75c-1.833-2-3.625-3.833-5.375-5.5-1.75-1.667-4.375-4-7.875-7l-16.25-14-.625-.5c-.417-.333-.958-.75-1.625-1.25-.333-.5-1.042-1.292-2.125-2.375s-1.958-2.208-2.625-3.375c-.667-1.333-1.292-3-1.875-5s-.875-4.25-.875-6.75V37.5c-.833.167-1.667.25-2.5.25s-1.583.083-2.25.25c-3.167.333-5.792.958-7.875 1.875L988 41.25c-4.333 2.5-8.125 6.125-11.375 10.875S971.75 63.75 971.75 72.75v20c0 2.5.417 6.083 1.25 10.75s3.333 9.25 7.5 13.75a106.07 106.07 0 0 0 5.25 5.375c1.833 1.75 4.5 4.042 8 6.875l16.25 14 .625.5c.417.333.958.833 1.625 1.5l2.125 2.125c1.083 1.083 1.958 2.208 2.625 3.375.667 1.5 1.292 3.208 1.875 5.125.583 1.917.875 4.208.875 6.875v53c.833-.167 1.667-.25 2.5-.25s1.583-.083 2.25-.25c3.167-.333 5.792-.958 7.875-1.875l3.125-1.375c4.333-2.5 8.125-6.125 11.375-10.875s4.875-11.625 4.875-20.625V157zM1056 51.25c0 3.667 1.333 6.833 4 9.5s5.917 4 9.75 4c3.667 0 6.833-1.333 9.5-4s4-5.917 4-9.75c0-3.667-1.292-6.833-3.875-9.5s-5.792-4-9.625-4-7.083 1.333-9.75 4-4 5.833-4 9.5v.25zm25.75-.25c0 3.333-1.167 6.208-3.5 8.625s-5.167 3.625-8.5 3.625c-3.5 0-6.375-1.167-8.625-3.5s-3.375-5.167-3.375-8.5V51c0-3.167 1.125-5.958 3.375-8.375S1066.25 39 1069.75 39c3.333 0 6.167 1.167 8.5 3.5s3.5 5.167 3.5 8.5zm-17.25-7v13.75h2.25v-5h3.25l3.5 5h2.75l-3.75-5.5c.833-.167 1.583-.583 2.25-1.25s1-1.583 1-2.75c0-1.333-.5-2.375-1.5-3.125s-2.167-1.125-3.5-1.125h-6.25zm2.25 6.75V46h3.75c.833 0 1.542.208 2.125.625.583.417.875.958.875 1.625 0 .833-.25 1.458-.75 1.875-.5.417-1.25.625-2.25.625h-3.75zM357.75 0c0 9.667-1.75 18-5.25 25s-10 11.167-19.5 12.5v27.25h22V216h36.75V0h-34zM97.25 216h32V37.5h-32V216zm0-184.75h32V7.75h-32v23.5zm356 184.75h32V37.5h-32V216zm0-184.75h32V7.75h-32v23.5zm-261.5 158.5l-.5 3.375c-.333 2.25-2 3.542-5 3.875-1.5.167-2.667.208-3.5.125L181.5 197h-.5c-.167 0-.25-.083-.25-.25V216h5.5c1.833 0 3.667-.042 5.5-.125 1.833-.083 3.5-.208 5-.375 3.167-.333 5.75-.958 7.75-1.875l3-1.375c4.333-2.5 8.125-6.125 11.375-10.875s4.875-11.625 4.875-20.625v-24h-32v33zM160 41.25c-4.333 2.5-8.083 6.125-11.25 10.875S144 63.75 144 72.75v108c0 9 1.583 15.875 4.75 20.625s6.917 8.375 11.25 10.875l3.125 1.375c2.083.917 4.708 1.542 7.875 1.875.667.167 1.417.292 2.25.375.833.083 1.75.125 2.75.125V37.5c-1 .167-1.917.25-2.75.25s-1.583.083-2.25.25c-3.167.333-5.792.958-7.875 1.875L160 41.25zm47.5 0l-3-1.375c-2-.917-4.583-1.542-7.75-1.875a77.408 77.408 0 0 0-5-.375 121.109 121.109 0 0 0-5.5-.125h-5.5v19.25l.25-.125a1.11 1.11 0 0 1 .5-.125l1.25-.125c.833-.083 2-.042 3.5.125 3 .5 4.667 1.833 5 4l.5 3.25v39c0 .833-.333 2.042-1 3.625-.667 1.583-2.167 2.542-4.5 2.875h-5.75V130h43.25V72.75c0-9-1.625-15.875-4.875-20.625S211.833 43.75 207.5 41.25zM237.75 216h32V37.5h-32V216zm50-179.5c-2.5.167-5 .667-7.5 1.5s-4.417 2-5.75 3.5v13.75c5.167-1.167 8-.375 8.5 2.375s.75 5.875.75 9.375v20.75H313v-18c0-12.833-1.917-21.708-5.75-26.625-3.833-4.917-10.333-7.125-19.5-6.625zm-219.5-32l-3.625-1.625C62.208 1.792 59.167 1 55.5.5 54 .333 51.792.208 48.875.125A265.217 265.217 0 0 0 41.5 0h-1.75v20.25c4-.5 7-.333 9 .5S52.167 22.5 53 23.5c.833 1.167 1.292 2.375 1.375 3.625L54.5 29v72l-.125 1.875c-.083 1.25-.542 2.458-1.375 3.625-.833 1.167-2.25 2.125-4.25 2.875s-5 .875-9 .375V130h1.75c2 0 4.458-.042 7.375-.125 2.917-.083 5.125-.208 6.625-.375 3.667-.5 6.708-1.292 9.125-2.375l3.625-1.625c5-2.833 9.417-7.042 13.25-12.625s5.75-13.625 5.75-24.125v-47.5c0-10.5-1.917-18.542-5.75-24.125-3.833-5.583-8.25-9.792-13.25-12.625zM0 216h35V0H0v216z"
    fill-rule="evenodd" />
  </symbol>
  <symbol viewBox="-179.37 -179.37 932.75 614.75"
  id="rb-icon-p1logo-alt-1">
    <title>p1logo-alt-1</title>
    <g fill-rule="evenodd">
      <path d="M428.354 49.288V80.74h25.281v174.782h37.624V5.89H456.82c0 22.295-6.569 40.212-28.466 43.397zM125.572 255.522h37.026V49.089h-37.026v95.95zM125.572 41.723h37.026V5.891h-37.026v22.295zM244.415 225.263s.597 7.565-6.37 8.361c-3.384.398-5.574 0-5.574 0-.398 0-.597-.199-.995-.199v22.097h6.569c4.38 0 8.76-.2 12.143-.597 7.366-.797 12.74-3.783 12.74-3.783 9.954-5.574 18.713-15.527 18.713-36.43v-27.869h-37.027v38.42h-.199zM207.787 53.468c-9.954 5.574-18.713 15.527-18.713 36.43v124.815c0 20.902 8.76 30.855 18.713 36.43 0 0 5.375 2.985 12.74 3.782 1.593.199 3.583.398 5.574.398V49.487c-1.99 0-3.981.199-5.574.398-7.365.796-12.74 3.583-12.74 3.583zm55.142 0s-5.375-2.986-12.74-3.782c-3.186-.398-7.764-.597-12.144-.597h-6.569v22.096c.199 0 .597-.199.995-.199 0 0 2.19-.398 5.574 0 6.967.995 6.37 8.36 6.37 8.36v45.19c0 1.99-.796 6.768-6.37 7.564h-6.57v23.888h49.967v-66.09c0-20.903-8.76-30.657-18.513-36.43zM309.51 255.522h37.027V49.288H309.51V255.52zm57.73-207.628c-5.773.2-12.143 2.588-15.328 5.773v16.125c12.143-2.588 10.75 5.573 10.75 13.337v24.087h34.04V86.513c0-29.66-8.36-39.614-29.462-38.619zM79.19 10.868s-6.172-3.385-14.931-4.38c-3.384-.398-11.347-.597-15.925-.597h-2.19v23.49c9.157-1.195 13.337 1.194 15.129 3.782 1.99 2.588 1.792 6.37 1.792 6.37v83.012s.199 3.782-1.792 6.37c-1.99 2.588-5.972 4.976-15.13 3.981v23.49h2.19c4.58 0 12.542-.199 15.926-.597 8.56-.996 14.93-4.38 14.93-4.38 11.546-6.569 21.898-18.115 21.898-42.6V54.065c0-25.082-10.352-36.628-21.898-43.197zM.16 255.522h40.61V5.692H.16V255.522zM556.155 254.327h-29.462v-5.574h29.462zM556.155 226.856h-29.462v-7.764l20.504-5.574-20.504-5.573v-7.963h29.462v4.777h-23.29l23.29 6.57v4.18l-23.29 6.37h23.29zM556.155 179.279h-29.462v-10.75c0-6.37 2.588-10.351 8.76-10.351 6.17 0 8.758 3.981 8.758 10.351v5.176h11.944v5.574zm-16.323-5.574v-4.38c0-4.18-1.593-5.374-4.18-5.374-2.589 0-4.181 1.194-4.181 5.374v4.38h8.36zM556.553 131.304c0 7.962-5.574 12.342-15.129 12.342s-15.129-4.38-15.129-12.342c0-7.963 5.574-12.343 15.13-12.343 9.754 0 15.128 4.38 15.128 12.343zm-25.48 0c0 4.578 3.583 6.569 10.351 6.569 6.968 0 10.352-1.99 10.352-6.57 0-4.578-3.583-6.768-10.352-6.768-6.768 0-10.351 2.19-10.351 6.769zM556.155 100.05h-29.462V88.504c0-6.57 3.783-9.356 8.76-9.356 3.582 0 6.568 1.791 7.564 5.375l13.138-6.37v6.17l-11.944 5.574v4.778h11.944v5.375zm-16.522-5.574v-4.18c0-4.38-1.394-5.773-4.18-5.773-2.788 0-4.181 1.592-4.181 4.777v5.176h8.36zM526.693 40.728h4.778v7.564h24.684v5.574h-24.684v7.565h-4.778zM534.656 9.673c-2.389.796-3.782 2.588-3.782 5.176 0 2.389.995 4.18 3.185 4.18 4.976 0 3.981-15.129 13.536-15.129 5.972 0 8.958 3.782 8.958 10.153 0 4.777-2.787 9.356-6.967 10.948l-1.99-4.578c2.786-1.394 4.578-2.986 4.578-6.37 0-2.787-.995-4.977-3.981-4.977-5.773 0-4.579 15.13-13.736 15.13-5.375 0-8.162-4.38-8.162-9.357 0-4.778 2.389-8.56 6.57-10.352l1.79 5.176zM569.44.425v.442h-1.251v3.27h-.51V.867h-1.252V.425h3.013zm.447 0h.72l1.067 3.139 1.059-3.14h.712v3.713h-.477v-2.19c0-.077.001-.202.005-.377.003-.176.005-.363.005-.564l-1.06 3.131h-.497l-1.067-3.131v.114c0 .09.003.23.007.415.004.187.006.324.006.411v2.191h-.48V.425z" />
    </g>
  </symbol>
  <symbol viewBox="-80 -80 416 416" id="rb-icon-phone">
    <title>phone</title>
    <path d="M191.407 210.686l-27.222-53.746c-.155 0-2.792 1.319-7.91 3.956a2849.803 2849.803 0 0 1-8.144 4.188c-4.343 2.016-9.462-.078-15.356-6.282-5.894-6.205-11.051-13.727-15.472-22.569-4.42-8.841-7.406-17.527-8.957-26.058-1.551-8.531-.233-13.96 3.955-16.286l16.286-8.144L101.366 32l-8.027 4.072c-5.351 2.714-8.105 4.071-8.26 4.071-2.792 1.551-6.282 3.917-10.47 7.096-4.188 3.18-7.096 8.648-8.724 16.403-1.63 7.756-1.009 18.497 1.86 32.224 2.87 13.727 9.967 31.836 21.29 54.327 11.323 22.646 21.637 39.243 30.944 49.79 9.306 10.548 17.527 17.45 24.662 20.707 7.135 3.257 13.223 4.11 18.264 2.56 5.041-1.552 9.035-3.025 11.982-4.421.62-.155 3.53-1.551 8.725-4.188l7.795-3.955z"
    fill-rule="evenodd" />
  </symbol>
  <symbol viewBox="-80 -80 416 416" id="rb-icon-pin">
    <title>pin</title>
    <path d="M127.816 32c-8.389 0-16.272 1.592-23.651 4.777-7.379 3.184-13.825 7.534-19.34 13.048-5.514 5.515-9.864 11.961-13.048 19.34C68.592 76.544 67 84.427 67 92.815c0 8.389 1.553 17.204 4.66 26.447 3.107 9.243 7.418 19.185 12.932 29.825 5.515 10.641 11.961 22.136 19.34 34.486A5144.997 5144.997 0 0 1 127.816 224a5144.997 5144.997 0 0 1 23.883-40.427c7.379-12.35 13.825-23.845 19.34-34.486 5.514-10.64 9.825-20.582 12.932-29.825 3.107-9.243 4.66-18.058 4.66-26.446 0-8.389-1.592-16.272-4.777-23.651-3.184-7.379-7.534-13.825-13.048-19.34-5.515-5.514-11.961-9.864-19.34-13.048-7.379-3.185-15.262-4.777-23.65-4.777zm0 81.087c-6.059 0-11.224-2.136-15.496-6.407-4.271-4.272-6.407-9.36-6.407-15.263 0-6.058 2.136-11.223 6.407-15.495 4.272-4.272 9.437-6.407 15.496-6.407 6.058 0 11.223 2.135 15.495 6.407 4.272 4.272 6.407 9.437 6.407 15.495 0 5.903-2.135 10.99-6.407 15.263-4.272 4.271-9.437 6.407-15.495 6.407z"
    fill-rule="evenodd" />
  </symbol>
  <symbol viewBox="-80 -80 416 416" id="rb-icon-pin-map">
    <title>pin-map</title>
    <path d="M180.194 84.194c0-7.145-1.359-13.903-4.077-20.272-2.719-6.369-6.447-11.922-11.185-16.66-4.738-4.738-10.291-8.466-16.66-11.184C141.902 33.359 135.146 32 128 32c-7.146 0-13.903 1.36-20.272 4.078-6.369 2.718-11.922 6.446-16.66 11.184C86.33 52 82.602 57.553 79.883 63.922c-2.718 6.37-4.077 13.127-4.077 20.272 0 7.146 1.359 14.68 4.077 22.602 2.719 7.922 6.408 16.466 11.068 25.631 4.66 9.165 10.175 19.03 16.544 29.592 6.37 10.564 13.204 22.136 20.505 34.719 7.301-12.583 14.136-24.155 20.505-34.719 6.369-10.563 11.883-20.427 16.544-29.592 4.66-9.165 8.349-17.709 11.068-25.63 2.718-7.923 4.077-15.457 4.077-22.603zM109.36 83.03c0-5.281 1.825-9.747 5.476-13.398 3.65-3.65 8.039-5.476 13.165-5.476 5.126 0 9.515 1.826 13.165 5.476 3.65 3.65 5.476 8.117 5.476 13.398 0 5.126-1.825 9.515-5.476 13.165-3.65 3.65-8.039 5.476-13.165 5.476-5.126 0-9.515-1.825-13.165-5.476-3.65-3.65-5.476-8.039-5.476-13.165zm83.185 78.291h-27.495a159.236 159.236 0 0 1-3.962 6.99l-4.194 6.991h27.03l6.29 12.35H149.67a233.253 233.253 0 0 0-2.214 3.611 184.318 184.318 0 0 0-1.98 3.379h17.475l6.292 15.378h-77.36l6.525-15.378h12.116a184.318 184.318 0 0 0-1.98-3.379 233.253 233.253 0 0 0-2.214-3.612H81.398l-4.893-12.349h22.602l-4.194-6.99a159.236 159.236 0 0 1-3.962-6.99H63.456L32 224h192l-31.456-62.68zm-108.35 48.7H54.602l15.612-31.224 6.524 15.845H90.95l-6.757 15.378zm86.214-15.38h23.3l7.69 15.38H176.7l-6.291-15.38z"
    fill-rule="evenodd" />
  </symbol>
  <symbol viewBox="-80 -80 416 416" id="rb-icon-play">
    <title>play</title>
    <path d="M48 32l160 96-160 96z" fill-rule="evenodd" />
  </symbol>
  <symbol viewBox="-80 -80 416 416" id="rb-icon-plus">
    <title>plus</title>
    <path d="M224 112h-80V32h-32v80H32v32h80v80h32v-80h80z"
    fill-rule="evenodd" />
  </symbol>
  <symbol viewBox="-80 -80 416 416" id="rb-icon-question">
    <title>question</title>
    <path d="M128 32c-13.204 0-25.631 2.524-37.282 7.573-11.65 5.048-21.825 11.922-30.524 20.621-8.699 8.7-15.573 18.874-20.621 30.524C34.524 102.37 32 114.796 32 128c0 13.204 2.524 25.631 7.573 37.282 5.048 11.65 11.922 21.825 20.621 30.524 8.7 8.699 18.874 15.573 30.524 20.621C102.37 221.476 114.796 224 128 224c13.204 0 25.631-2.524 37.282-7.573 11.65-5.048 21.825-11.922 30.524-20.621 8.699-8.7 15.573-18.874 20.621-30.524C221.476 153.63 224 141.204 224 128c0-13.204-2.524-25.631-7.573-37.282-5.048-11.65-11.922-21.825-20.621-30.524-8.7-8.699-18.874-15.573-30.524-20.621C153.63 34.524 141.204 32 128 32zm.932 159.845c-3.728 0-6.913-1.32-9.553-3.962-2.641-2.64-3.962-5.902-3.962-9.786 0-3.728 1.32-6.913 3.962-9.553 2.64-2.641 5.825-3.961 9.553-3.961 3.884 0 7.146 1.32 9.786 3.96 2.641 2.641 3.962 5.826 3.962 9.554 0 3.884-1.32 7.146-3.962 9.786-2.64 2.641-5.825 3.962-9.553 3.962h-.233zm10.951-40.311v2.33h-22.601v-2.33c0-3.573.504-7.456 1.514-11.65 1.01-4.195 3.534-8.156 7.573-11.884a537.023 537.023 0 0 1 12.116-11.301c4.04-3.65 6.059-7.883 6.059-12.699 0-5.282-1.631-9.32-4.894-12.117-3.262-2.796-7.223-4.194-11.883-4.194-7.767 0-12.505 2.835-14.214 8.505-1.708 5.67-2.64 9.437-2.796 11.301H88.854c.311-8.388 2.99-17.243 8.04-26.563 5.048-9.32 15.339-13.98 30.873-13.98 13.67 0 23.65 3.728 29.942 11.184 6.291 7.456 9.437 15.456 9.437 24 0 13.515-4.544 22.951-13.631 28.31-9.088 5.36-13.632 12.389-13.632 21.088z"
    fill-rule="evenodd" />
  </symbol>
  <symbol viewBox="-80 -80 416 416" id="rb-icon-search">
    <title>search</title>
    <path d="M201.376 224l-59.096-59.096C131.176 171.896 118.088 176 104 176c-39.768 0-72-32.232-72-72s32.232-72 72-72 72 32.232 72 72c0 14.088-4.112 27.184-11.096 38.28L224 201.376 201.376 224zM104 160c30.872 0 56-25.12 56-56s-25.128-56-56-56-56 25.12-56 56 25.128 56 56 56z"
    fill-rule="evenodd" />
  </symbol>
  <symbol viewBox="-80 -80 416 416" id="rb-icon-shipment">
    <title>shipment</title>
    <path d="M183.129 157.646l2.09-1.141v11.026l-2.09 1.14v-11.025zm-3.802 2.28l2.28-1.33v11.026l-2.28 1.33v-11.025zm16.158-9.314l2.091-1.33v11.025l-2.09 1.14v-10.835zM224 95.483v73.759l-61.212 35.738-76.8-44.863V86.358L147.39 51 224 95.483zM135.794 70.58l59.881 35.359 12.167-6.844L147.2 64.117l-11.406 6.463zm21.101 63.113L97.204 99.095v54.558l59.691 34.789v-54.749zm17.68-16.158l-58.931-35.169-12.547 7.224 59.691 34.598 11.786-6.653zm38.21-8.365l-10.646 6.083v19.96h-.19v.191L180.848 147v-.19.19-20.15l-12.737 7.223v54.749l44.673-25.854V109.17zm-24.524 45.624l2.091-1.33v11.025l-2.09 1.33v-11.025zm12.547-7.414l2.091-1.14v11.025l-2.091 1.14V147.38zm-8.935 5.323l2.091-1.33v11.025l-2.09 1.33v-11.025zM39.604 99.285h34.978v11.216H43.406l-3.802-11.216zM32 117.535h42.582v11.215h-38.78L32 117.535zm22.432 29.655l-3.612-11.216h23.762v11.216h-20.15z"
    fill-rule="evenodd" />
  </symbol>
  <symbol viewBox="-80 -80 416 416" id="rb-icon-sort-both">
    <title>sort-both</title>
    <path d="M127.515 32l61.514 82.02H66L127.515 32zm0 192L66 141.98h123.03L127.514 224z"
    fill-rule="evenodd" />
  </symbol>
  <symbol viewBox="-80 -80 416 416" id="rb-icon-sort-down">
    <title>sort-down</title>
    <path d="M127.515 224L66 141.98h123.03z" fill-rule="evenodd" />
  </symbol>
  <symbol viewBox="-80 -80 416 416" id="rb-icon-sort-up">
    <title>sort-up</title>
    <path d="M127.515 32l61.514 82.02H66z" fill-rule="evenodd" />
  </symbol>
  <symbol viewBox="-80 -80 416 416" id="rb-icon-star">
    <title>star</title>
    <path d="M128 37l29.36 60.583L224 106.67l-48.466 46.835 11.883 66.175L128 187.99l-59.417 31.69 11.883-66.175L32 106.903l66.64-9.32z"
    fill-rule="evenodd" />
  </symbol>
  <symbol viewBox="-80 -80 416 416" id="rb-icon-star-o">
    <title>star-o</title>
    <path d="M128 69.155l20.039 41.243 45.437 6.291-33.088 31.923 8.156 45.204L128 172.146l-40.544 21.67 8.156-45.204-33.088-31.923 45.437-6.29L128 69.154zM128 37L98.64 97.583 32 106.67l48.466 46.835-11.883 66.175L128 187.99l59.417 31.69-11.883-66.175L224 106.903l-66.64-9.32L128 37z"
    fill-rule="evenodd" />
  </symbol>
  <symbol viewBox="-80 -80 416 416" id="rb-icon-zoom">
    <title>zoom</title>
    <path d="M136 112h-24v24H96v-24H72V96h24V72h16v24h24v16zm65.376 112l-59.096-59.096C131.176 171.896 118.088 176 104 176c-39.768 0-72-32.232-72-72s32.232-72 72-72 72 32.232 72 72c0 14.088-4.112 27.184-11.096 38.28L224 201.376 201.376 224zM104 160c30.872 0 56-25.12 56-56s-25.128-56-56-56-56 25.12-56 56 25.128 56 56 56z"
    fill-rule="evenodd" />
  </symbol>
</svg>
