<?xml version="1.0" encoding="utf-8" standalone="no"?>
<svg xmlns="http://www.w3.org/2000/svg"
xmlns:xlink="http://www.w3.org/1999/xlink">
  <symbol viewBox="-160 -160 832 832" id="rb-icon-p1apron">
    <title>p1apron</title>
    <path d="M376.338 309.006c-11.037-17.057-19.314-35.2-24.833-54.43-5.518-19.231-9.364-37.04-11.538-53.428-2.174-16.388-3.177-29.933-3.01-40.635l.25-16.053h-5.517c-2.342-49.833-8.278-80.852-17.81-93.06l-14.297-18.31C277.175 6 256.69-.772 238.129 12.773L210.286 33.09c-8.36 9.364-14.631 20.401-18.812 33.11-4.18 12.709-7.19 24.832-9.03 36.37-1.84 11.539-2.926 21.321-3.26 29.348l-.502 12.04-4.014 1.003c0 31.104-2.006 57.107-6.02 78.01-4.013 20.902-8.528 37.708-13.545 50.417-5.016 12.709-9.615 21.822-13.796 27.34l-6.27 8.278L124 451.479l8.027 18.812c5.35 12.542 16.722 20.987 34.113 25.335 25.752 6.354 51.671 9.782 77.758 10.284 26.087.501 51.839-1.087 77.257-4.766 25.083-3.345 42.39-10.284 51.922-20.82 9.532-10.534 14.297-21.654 14.297-33.36 0-5.686-.585-16.053-1.755-31.103a7288.824 7288.824 0 0 0-3.763-46.404c-1.338-15.886-2.592-29.933-3.762-42.14l-1.756-18.311zm-160.533 63.712v76.754H190.22V294.458h25.585v78.26zm37.123-14.549c0 7.692-1.338 13.545-4.013 17.559-2.676 4.013-5.853 7.023-9.532 9.03l-2.76 1.254c-1.839.836-4.096 1.421-6.772 1.755h-11.036V373.22c3.01.335 5.184.251 6.521-.25 1.338-.502 2.342-1.255 3.01-2.258.67-.669 1.004-1.505 1.004-2.508V313.52c0-1.003-.335-1.84-1.004-2.508-.668-1.004-1.672-1.756-3.01-2.258-1.337-.501-3.511-.585-6.521-.25v-14.047l.501-.251.502-.251h5.518c2.007 0 3.512.167 4.515.502 2.676.334 4.933.836 6.773 1.505l2.76 1.003c3.678 2.007 6.855 5.017 9.53 9.03 2.676 4.013 4.014 9.866 4.014 17.558v34.615zm-55.685-213.71l-.25-13.043c-.168-8.695.167-18.98 1.003-30.852.836-11.873 2.424-24.08 4.765-36.622 2.342-12.541 6.02-22.825 11.037-30.852 7.692-7.692 21.237-11.873 40.635-12.542 19.398-.669 33.946 3.68 43.645 13.044 5.017 7.692 8.695 17.725 11.037 30.1 2.34 12.374 3.93 24.581 4.765 36.621.836 12.04 1.17 22.408 1.004 31.103l-.251 13.044h-117.39zm124.413 305.013h-26.588V340.611H280.52v-19.565c6.354-1.003 10.785-4.013 13.294-9.03 2.508-5.017 3.762-10.87 3.762-17.558h24.08v155.014z"
    fill-rule="evenodd" />
  </symbol>
  <symbol viewBox="-665 -665 3458 1842" id="rb-icon-p1logo">
    <title>p1logo</title>
    <path d="M988.91 427.875h62.5V79.242h-62.5v348.633zm97.656-350.586c-4.883.326-9.766 1.302-14.649 2.93-4.882 1.627-8.626 3.906-11.23 6.836v26.855c11.719-3.255 18.31-1.383 19.775 5.615 1.465 7 2.198 12.777 2.198 17.334v291.016h62.011V142.23c0-24.74-5.208-41.992-15.625-51.757-10.416-9.766-24.576-14.16-42.48-13.184zm91.308-.488c-1.627 0-3.418.081-5.37.244a65.08 65.08 0 0 1-5.372.244c-.325 0-.488.081-.488.244 0 .163-.163.244-.488.244-4.558.651-9.033 1.872-13.428 3.662-4.395 1.79-8.708 4.476-12.94 8.057a127.391 127.391 0 0 1 5.616 9.277 46.702 46.702 0 0 1 4.15 10.254l.977 2.93c.325.977.488 1.953.488 2.93a8.714 8.714 0 0 1 2.197-.733 13.718 13.718 0 0 1 2.686-.244h4.394c8.464.977 13.184 5.046 14.16 12.207l1.465 10.742v291.016h62.5V142.23c0-23.763-5.208-40.608-15.625-50.537-10.416-9.928-25.39-14.892-44.922-14.892zM1273.09 506h62.5V79.242h-62.5V506zm97.656-428.711c-4.882.326-9.765 1.302-14.648 2.93-4.883 1.627-8.626 3.906-11.23 6.836v26.855c11.718-3.255 18.31-1.383 19.775 5.615 1.465 7 2.197 12.777 2.197 17.334V370.746c0 4.232-.732 9.847-2.197 16.846-1.465 6.998-8.057 8.87-19.775 5.615v26.855c2.604 2.93 6.347 5.29 11.23 7.08s9.766 2.686 14.648 2.686c17.904.976 32.146-3.418 42.725-13.184 10.58-9.765 15.87-27.018 15.87-51.757V142.23c0-24.74-5.29-41.992-15.87-51.757-10.58-9.766-24.82-14.16-42.725-13.184zm276.368 350.586h62.5V79.242h-62.5v348.633zm97.656-350.586c-5.209.326-10.173 1.302-14.893 2.93-4.72 1.627-8.382 3.906-10.986 6.836v26.855c10.091-2.279 15.625-.732 16.601 4.639.977 5.37 1.465 11.474 1.465 18.31v40.528h57.13V142.23c0-25.065-3.826-42.399-11.475-52.002-7.65-9.602-20.264-13.916-37.842-12.939zm-160.645 9.277l-6.103-2.685c-4.07-1.79-9.196-3.011-15.381-3.662-2.604-.326-5.697-.57-9.277-.733a247.63 247.63 0 0 0-11.23-.244h-10.743v37.598c.325 0 .57-.082.732-.244.163-.163.407-.244.733-.244l2.685-.245c1.79-.162 3.988-.081 6.592.245 5.86.976 9.115 3.58 9.766 7.812l.976 6.348v246.093l-.976 6.592c-.651 4.395-3.906 6.917-9.766 7.568-2.604.326-4.801.407-6.592.245l-2.685-.245h-.733c-.162 0-.407-.162-.732-.488v37.598H1542.132c3.906 0 7.65-.082 11.23-.244 3.581-.163 6.674-.407 9.278-.733 6.185-.65 11.312-1.871 15.38-3.662l6.104-2.685c8.464-4.883 15.788-11.963 21.973-21.24 6.185-9.278 9.277-22.706 9.277-40.284V148.09c0-17.578-3.092-31.006-9.277-40.283-6.185-9.278-13.51-16.358-21.973-21.24zm-92.773 0c-8.464 4.883-15.87 11.963-22.217 21.24-6.348 9.278-9.521 22.706-9.521 40.284v210.937c0 17.578 3.173 31.006 9.521 40.283 6.348 9.278 13.753 16.358 22.217 21.24l5.86 2.686c3.906 1.79 8.951 3.011 15.136 3.662 1.628.326 3.255.57 4.883.733 1.627.162 3.255.244 4.883.244V79.242a24.841 24.841 0 0 1-4.883.488c-1.628 0-3.255.163-4.883.489-6.185.65-11.23 1.871-15.137 3.662l-5.86 2.685zm382.812 32.715h21.485V79.242h-21.485V21.137h-62.5v343.75c0 23.763 5.209 40.608 15.625 50.537 10.417 9.928 24.577 14.892 42.48 14.892 4.232 0 8.79-.325 13.673-.976 4.882-.651 8.951-2.116 12.207-4.395v-31.738c-11.72 1.627-18.23-1.71-19.532-10.01l-1.953-12.451V119.28zm154.297-32.715l-6.104-2.685c-4.069-1.79-9.195-3.011-15.38-3.662-2.605-.326-5.697-.57-9.278-.733a247.63 247.63 0 0 0-11.23-.244h-10.742v37.598c.325 0 .65-.082.976-.244l.488-.244c2.93-.326 5.209-.407 6.836-.245l2.442.245c6.185.976 9.603 3.58 10.254 7.812l.976 6.348v46.875h62.5V148.09c0-17.578-3.174-31.006-9.521-40.283-6.348-9.278-13.753-16.358-22.217-21.24zm-51.27 304.2c-5.859-.652-9.114-3.174-9.765-7.569l-.977-6.592v-64.453h-62.5v46.875c0 17.578 3.174 31.006 9.522 40.283 6.348 9.278 13.753 16.358 22.217 21.24l6.103 2.686c4.07 1.79 9.196 3.011 15.381 3.662 2.604.326 5.697.57 9.277.733 3.581.162 7.162.244 10.742.244H1988.421v-37.598c-.326.326-.651.488-.977.488h-.976c-2.604.326-4.802.407-6.592.245l-2.686-.245zm83.008-78.126c0-4.882-.814-11.881-2.441-20.996-1.628-9.114-6.51-18.066-14.649-26.855-3.58-3.906-7.08-7.487-10.498-10.742-3.418-3.255-8.544-7.813-15.38-13.672l-31.739-27.344-1.22-.976a133.019 133.019 0 0 0-3.174-2.442c-.651-.976-2.035-2.523-4.15-4.638-2.117-2.116-3.826-4.314-5.128-6.592-1.302-2.604-2.522-5.86-3.662-9.766-1.139-3.906-1.709-8.3-1.709-13.183V79.242a24.841 24.841 0 0 1-4.883.488c-1.627 0-3.092.163-4.394.489-6.185.65-11.312 1.871-15.38 3.662l-6.104 2.685c-8.464 4.883-15.87 11.963-22.217 21.24-6.348 9.278-9.522 22.706-9.522 40.284v39.062c0 4.883.814 11.882 2.442 20.996 1.627 9.115 6.51 18.067 14.648 26.856 3.255 3.58 6.673 7.08 10.254 10.498 3.58 3.418 8.79 7.894 15.625 13.428l31.738 27.343 1.221.977c.814.65 1.872 1.627 3.174 2.93l4.15 4.15c2.116 2.116 3.825 4.313 5.127 6.592 1.302 2.93 2.523 6.266 3.662 10.01 1.14 3.743 1.71 8.219 1.71 13.427V427.875a24.841 24.841 0 0 1 4.882-.488c1.628 0 3.093-.163 4.395-.489 6.185-.65 11.311-1.871 15.38-3.662l6.104-2.685c8.464-4.883 15.87-11.963 22.217-21.24 6.347-9.278 9.521-22.706 9.521-40.284V312.64zm8.301-206.542c0 7.161 2.604 13.346 7.813 18.554 5.208 5.209 11.555 7.813 19.043 7.813 7.161 0 13.346-2.604 18.554-7.813 5.209-5.208 7.813-11.556 7.813-19.043 0-7.161-2.523-13.346-7.569-18.554-5.045-5.209-11.311-7.813-18.798-7.813-7.488 0-13.835 2.604-19.043 7.813-5.209 5.208-7.813 11.393-7.813 18.554v.489zm50.293-.489c0 6.51-2.279 12.126-6.836 16.846-4.557 4.72-10.091 7.08-16.602 7.08-6.835 0-12.45-2.279-16.845-6.836s-6.592-10.09-6.592-16.601v-.489c0-6.185 2.197-11.637 6.592-16.357 4.394-4.72 10.01-7.08 16.845-7.08 6.511 0 12.045 2.278 16.602 6.836 4.557 4.557 6.836 10.09 6.836 16.601zm-33.691-13.672v26.856h4.394v-9.766h6.348l6.836 9.766h5.37l-7.323-10.742c1.627-.326 3.092-1.14 4.394-2.442 1.302-1.302 1.953-3.092 1.953-5.37 0-2.605-.976-4.64-2.93-6.104-1.953-1.465-4.231-2.198-6.835-2.198H2085.1zm4.394 13.184v-9.277h7.324c1.628 0 3.011.407 4.15 1.22 1.14.814 1.71 1.872 1.71 3.174 0 1.628-.489 2.849-1.465 3.662-.977.814-2.442 1.221-4.395 1.221h-7.324zM704.73 6c0 18.88-3.418 35.156-10.254 48.828-6.836 13.672-19.53 21.81-38.086 24.414v53.223h42.97v295.41h71.776V6H704.73zM195.941 427.875h62.5V79.242h-62.5v348.633zm0-360.84h62.5V21.137h-62.5v45.898zm695.312 360.84h62.5V79.242h-62.5v348.633zm0-360.84h62.5V21.137h-62.5v45.898zm-510.741 309.57l-.977 6.592c-.651 4.395-3.906 6.917-9.766 7.568-2.93.326-5.208.407-6.836.245l-2.441-.245h-.977c-.325 0-.488-.162-.488-.488v37.598H369.77c3.581 0 7.162-.082 10.743-.244 3.58-.163 6.835-.407 9.765-.733 6.185-.65 11.23-1.871 15.137-3.662l5.86-2.685c8.463-4.883 15.868-11.963 22.216-21.24 6.348-9.278 9.522-22.706 9.522-40.284v-46.875h-62.5v64.453zM318.5 86.566c-8.464 4.883-15.788 11.963-21.973 21.24-6.185 9.278-9.277 22.706-9.277 40.284v210.937c0 17.578 3.092 31.006 9.277 40.283 6.185 9.278 13.51 16.358 21.973 21.24l6.103 2.686c4.07 1.79 9.196 3.011 15.381 3.662 1.302.326 2.767.57 4.395.733 1.627.162 3.418.244 5.37.244V79.242c-1.952.326-3.743.488-5.37.488-1.628 0-3.093.163-4.395.489-6.185.65-11.312 1.871-15.38 3.662l-6.104 2.685zm92.773 0l-5.86-2.685c-3.905-1.79-8.95-3.011-15.136-3.662-2.93-.326-6.185-.57-9.765-.733a236.54 236.54 0 0 0-10.743-.244H359.027v37.598l.488-.244c.326-.163.652-.244.977-.244l2.441-.245c1.628-.162 3.907-.081 6.836.245 5.86.976 9.115 3.58 9.766 7.812l.977 6.348v76.172c0 1.627-.651 3.987-1.954 7.08-1.302 3.092-4.231 4.964-8.789 5.615h-11.23v40.527h84.473V148.09c0-17.578-3.174-31.006-9.522-40.283-6.348-9.278-13.753-16.358-22.217-21.24zm59.082 341.309h62.5V79.242h-62.5v348.633zm97.656-350.586c-4.882.326-9.765 1.302-14.648 2.93-4.883 1.627-8.626 3.906-11.23 6.836v26.855c10.09-2.279 15.625-.732 16.601 4.639.977 5.37 1.465 11.474 1.465 18.31v40.528h57.129V142.23c0-25.065-3.744-42.399-11.23-52.002-7.488-9.602-20.183-13.916-38.087-12.939zm-428.71-62.5l-7.08-3.174C127.5 9.5 121.56 7.953 114.398 6.977c-2.93-.326-7.242-.57-12.94-.733C95.763 6.081 90.962 6 87.056 6h-3.418v39.55c7.812-.976 13.672-.65 17.578.977 3.906 1.628 6.673 3.418 8.3 5.371 1.628 2.28 2.523 4.64 2.686 7.08l.244 3.663v140.625l-.244 3.662c-.163 2.441-1.058 4.801-2.685 7.08-1.628 2.278-4.395 4.15-8.301 5.615-3.906 1.465-9.766 1.709-17.578.732v39.551h3.418c3.906 0 8.707-.081 14.404-.244 5.697-.163 10.01-.407 12.94-.732 7.16-.977 13.102-2.523 17.822-4.64l7.08-3.173c9.765-5.534 18.392-13.753 25.879-24.658 7.487-10.905 11.23-26.611 11.23-47.12V86.567c0-20.508-3.743-36.214-11.23-47.119-7.487-10.905-16.114-19.124-25.88-24.658zM6 427.875h68.36V6H6v421.875z"
    fill-rule="evenodd" />
  </symbol>
  <symbol viewBox="-354.37 -354.37 1842.75 1220.75"
  id="rb-icon-p1logo-alt-1">
    <title>p1logo-alt-1</title>
    <g transform="translate(6 6)" fill-rule="evenodd">
      <path d="M836.629 96.265v61.431h49.378v341.37h73.484V11.506h-67.264c0 43.546-12.83 78.538-55.598 84.759zM245.258 499.066h72.317V95.876h-72.317V283.28zM245.258 81.49h72.317V11.506h-72.317v43.546zM477.374 439.968s1.166 14.774-12.442 16.33c-6.61.777-10.887 0-10.887 0-.777 0-1.166-.39-1.944-.39v43.158h12.831c8.554 0 17.107-.389 23.717-1.167 14.386-1.555 24.883-7.387 24.883-7.387 19.44-10.886 36.548-30.327 36.548-71.15v-54.434h-72.318v75.04h-.388zm-71.54-335.538c-19.44 10.886-36.548 30.327-36.548 71.15v243.781c0 40.824 17.107 60.265 36.548 71.151 0 0 10.497 5.832 24.883 7.387 3.11.39 6.999.778 10.887.778V96.654c-3.888 0-7.776.389-10.887.777-14.386 1.556-24.883 6.999-24.883 6.999zm107.698 0s-10.497-5.832-24.883-7.387c-6.221-.778-15.163-1.167-23.717-1.167H452.1v43.157c.39 0 1.167-.388 1.944-.388 0 0 4.277-.778 10.887 0 13.608 1.944 12.442 16.33 12.442 16.33v88.258c0 3.888-1.556 13.22-12.442 14.774h-12.83v46.657h97.59V175.58c0-40.824-17.108-59.876-36.16-71.151zM604.513 499.066h72.317V96.265h-72.317v402.801zM717.266 93.543c-11.276.39-23.717 5.055-29.938 11.276v31.493c23.717-5.055 20.995 10.886 20.995 26.05v47.045h66.486V168.97c0-57.932-16.33-77.372-57.543-75.428zM154.666 21.226s-12.053-6.61-29.16-8.554c-6.61-.778-22.162-1.166-31.104-1.166h-4.277v45.879c17.885-2.333 26.05 2.332 29.549 7.387 3.888 5.054 3.5 12.442 3.5 12.442v162.13s.388 7.388-3.5 12.443c-3.888 5.054-11.664 9.72-29.55 7.776v45.878h4.278c8.942 0 24.494-.388 31.104-1.166 16.719-1.944 29.16-8.554 29.16-8.554 22.55-12.83 42.769-35.38 42.769-83.204v-106.92c0-48.99-20.218-71.54-42.769-84.371zM.311 499.066h79.316V11.117H.311v487.948zM1086.24 496.733h-57.542v-10.886h57.543zM1086.24 443.078h-57.542v-15.163l40.047-10.887-40.047-10.886V390.59h57.543v9.33h-45.49l45.49 12.831v8.165l-45.49 12.442h45.49zM1086.24 350.154h-57.542v-20.995c0-12.442 5.054-20.218 17.107-20.218 12.053 0 17.107 7.776 17.107 20.218v10.108h23.329v10.887zm-31.881-10.887v-8.553c0-8.165-3.11-10.498-8.165-10.498s-8.165 2.333-8.165 10.498v8.553h16.33zM1087.018 256.452c0 15.552-10.886 24.106-29.549 24.106-18.662 0-29.549-8.554-29.549-24.106 0-15.552 10.887-24.106 29.55-24.106 19.05 0 29.548 8.554 29.548 24.106zm-49.767 0c0 8.943 6.999 12.83 20.218 12.83 13.608 0 20.218-3.887 20.218-12.83 0-8.942-6.998-13.22-20.218-13.22-13.22 0-20.218 4.278-20.218 13.22zM1086.24 195.41h-57.542v-22.55c0-12.831 7.387-18.274 17.107-18.274 6.999 0 12.83 3.499 14.775 10.497l25.66-12.442v12.053l-23.328 10.887v9.331h23.329v10.498zm-32.27-10.887v-8.164c0-8.554-2.722-11.276-8.165-11.276s-8.165 3.11-8.165 9.332v10.108h16.33zM1028.698 79.546h9.331v14.775h48.212v10.886h-48.212v14.775h-9.331zM1044.25 18.893c-4.666 1.555-7.387 5.054-7.387 10.109 0 4.665 1.944 8.165 6.22 8.165 9.72 0 7.777-29.55 26.44-29.55 11.663 0 17.495 7.388 17.495 19.83 0 9.33-5.443 18.273-13.608 21.384l-3.888-8.943c5.443-2.721 8.943-5.832 8.943-12.441 0-5.444-1.944-9.72-7.776-9.72-11.276 0-8.943 29.549-26.828 29.549-10.498 0-15.94-8.554-15.94-18.274 0-9.331 4.665-16.719 12.83-20.218l3.499 10.109zM1112.187.83v.863h-2.444v6.388h-.997V1.693h-2.443V.83h5.884zm.873 0h1.407l2.083 6.13 2.068-6.13h1.392v7.25h-.933V3.802c0-.148.004-.393.01-.735.007-.343.01-.71.01-1.101l-2.068 6.116h-.973l-2.082-6.116v.222c0 .178.004.448.012.812.008.364.012.631.012.802v4.28h-.938V.83z" />
    </g>
  </symbol>
</svg>
