<svg viewBox="42 83 210 245" xmlns="http://www.w3.org/2000/svg" xmlns:xlink="http://www.w3.org/1999/xlink">
    <defs>
        <rect id="path-1" x="24" width="4" height="24" rx="2"/>
        <mask id="mask-2" x="0" y="0" width="4" height="24" fill="#fff">
            <use xlink:href="#path-1"/>
        </mask>
        <rect id="path-3" x="16" width="4" height="24" rx="2"/>
        <mask id="mask-4" x="0" y="0" width="4" height="24" fill="#fff">
            <use xlink:href="#path-3"/>
        </mask>
        <rect id="path-5" x="8" width="4" height="24" rx="2"/>
        <mask id="mask-6" x="0" y="0" width="4" height="24" fill="#fff">
            <use xlink:href="#path-5"/>
        </mask>
        <rect id="path-7" width="4" height="24" rx="2"/>
        <mask id="mask-8" x="0" y="0" width="4" height="24" fill="#fff">
            <use xlink:href="#path-7"/>
        </mask>
    </defs>
    <g id="Group-6" fill="none" fill-rule="evenodd">
        <g id="Group-5">
            <g id="Tanks" transform="translate(79 84)" stroke="#9B9B9B" stroke-width="3" fill="#B4B0B0">
                <rect id="Rectangle" width="68" height="224" rx="34"/>
                <rect id="Rectangle-Copy-2" x="68" width="68" height="224" rx="34"/>
            </g>
            <g id="Bracket---Bottom" transform="translate(107 308)" stroke="#979797" stroke-width="3" fill="#E6E5E5">
                <rect id="Rectangle-18-Copy-3" transform="matrix(1 0 0 -1 0 16)" width="12" height="16" rx="2"/>
                <rect id="Rectangle-18-Copy-2" transform="matrix(1 0 0 -1 0 16)" x="68" width="12" height="16" rx="2"/>
                <rect id="Rectangle-13" x="6" y="6" width="68" height="4" rx="2"/>
            </g>
            <g id="Straps" transform="translate(75 257)">
                <rect id="Rectangle-3-Copy" stroke="#979797" stroke-width="3" fill="#E6E5E5" width="144" height="22" rx="1"/>
                <path d="M3.963 14.632V19h-.67V9.006H4.66c.975 0 1.688.23 2.14.69.45.46.676 1.15.676 2.065 0 .693-.123 1.263-.37 1.71-.245.446-.657.78-1.236 1.005L7.852 19H7.1l-1.866-4.368h-1.27zm0-.615H4.9c.605 0 1.072-.187 1.4-.56.33-.375.493-.93.493-1.67 0-.75-.168-1.293-.503-1.626-.335-.332-.862-.498-1.582-.498h-.745v4.355zm10.905-.028c0 1.654-.248 2.925-.742 3.814-.494.888-1.21 1.333-2.143 1.333-.943 0-1.66-.448-2.147-1.344-.487-.895-.73-2.168-.73-3.817 0-1.723.24-3.006.724-3.85.483-.842 1.207-1.264 2.173-1.264.93 0 1.64.443 2.13 1.33.49.886.735 2.152.735 3.797zm-5.066 0c0 1.485.186 2.607.557 3.366.37.76.912 1.138 1.623 1.138.715 0 1.26-.376 1.63-1.128.372-.752.557-1.877.557-3.377 0-1.482-.182-2.6-.546-3.354-.365-.754-.905-1.13-1.62-1.13-.734 0-1.285.38-1.65 1.144-.368.763-.552 1.876-.552 3.34zm9.94-4.5c-.75 0-1.35.4-1.793 1.194-.445.795-.667 1.897-.667 3.305 0 .915.102 1.713.307 2.392.205.68.5 1.2.882 1.565.383.365.827.547 1.333.547.52 0 .966-.093 1.34-.28v.615c-.356.204-.823.307-1.402.307-.633 0-1.188-.205-1.664-.616-.477-.41-.845-1.002-1.105-1.78-.26-.776-.39-1.698-.39-2.764 0-1.595.284-2.85.85-3.76.57-.912 1.342-1.367 2.322-1.367.61 0 1.144.14 1.6.422l-.308.588c-.384-.246-.82-.37-1.307-.37zM27.546 19h-.752l-2.35-4.983-.774 1.018V19H23V9.006h.67v5.29c.23-.437 1.216-2.2 2.952-5.29h.732l-2.51 4.395 2.7 5.6zm4.917 0H28.84V9.006h3.622v.642H29.51v3.794h2.788v.643h-2.79v4.272h2.954V19zm3.625 0h-.67V9.648h-1.99v-.642h4.65v.642h-1.99V19zm3.4-9.994H41.4c.784 0 1.386.2 1.808.6.422.402.632.995.632 1.78 0 1.352-.494 2.127-1.483 2.323v.054c.57.118.993.372 1.27.762.28.39.418.933.418 1.63 0 .893-.198 1.59-.594 2.092-.396.5-.952.752-1.667.752h-2.297V9.006zm.67 4.45h1.257c.624 0 1.07-.172 1.336-.516.267-.344.4-.867.4-1.57 0-.564-.147-.997-.44-1.298-.295-.3-.73-.45-1.31-.45h-1.244v3.834zm0 .615v4.315h1.537c1.103 0 1.654-.748 1.654-2.242 0-.666-.162-1.177-.485-1.535-.324-.358-.777-.537-1.36-.537h-1.347zM49.508 19h-3.624V9.006h3.623v.642h-2.954v3.794h2.79v.643h-2.79v4.272h2.953V19zm1.963 0V9.006h.67v9.35h2.816V19h-3.487zm6.44 0h-.67V9.648h-1.988v-.642h4.648v.642h-1.99V19zm2.375-.615c0-.488.178-.732.533-.732.147 0 .272.055.377.164.105.11.157.3.157.568 0 .26-.052.445-.157.557-.105.112-.23.167-.376.167-.354 0-.532-.242-.532-.725zm3.27.615V9.006h.67V19h-.67zm8.484-5.01c0 1.654-.247 2.925-.74 3.814-.496.888-1.21 1.333-2.144 1.333-.944 0-1.66-.448-2.147-1.344-.487-.895-.73-2.168-.73-3.817 0-1.723.24-3.006.724-3.85.483-.842 1.208-1.264 2.174-1.264.93 0 1.64.443 2.13 1.33.49.886.734 2.152.734 3.797zm-5.065 0c0 1.485.186 2.607.557 3.366.37.76.913 1.138 1.624 1.138.715 0 1.258-.376 1.63-1.128.37-.752.557-1.877.557-3.377 0-1.482-.182-2.6-.547-3.354-.364-.754-.904-1.13-1.62-1.13-.734 0-1.284.38-1.65 1.144-.368.763-.55 1.876-.55 3.34z" id="uri" stroke="#1492d9" stroke-width=".5" fill="#1492d9"/>
            </g>
            <g id="flame-l" stroke="#979797" stroke-width="2">
                <path d="M56.053 327c-1.675 0-8.765-10.838-10.937-21.913-2.51-12.8 0-26.087 0-26.087h21.82s2.393 13.636 0 26.087C64.724 316.6 57.786 327 56.053 327z" id="Path-9" fill="#1492d9"/>
                <path d="M55.99 302.853c-.833 0-4.356-5.386-5.436-10.89-1.247-6.36 0-12.963 0-12.963h10.844s1.19 6.776 0 12.963c-1.1 5.72-4.547 10.89-5.41 10.89z" id="Path-9-Copy" fill="#BFE5FB"/>
            </g>
            <g id="flame-r" stroke="#979797" stroke-width="2">
                <path d="M238.053 327c-1.675 0-8.765-10.838-10.937-21.913-2.51-12.8 0-26.087 0-26.087h21.82s2.393 13.636 0 26.087C246.724 316.6 239.786 327 238.053 327z" id="Path-9" fill="#1492d9"/>
                <path d="M237.99 302.853c-.833 0-4.356-5.386-5.436-10.89-1.247-6.36 0-12.963 0-12.963h10.844s1.19 6.776 0 12.963c-1.1 5.72-4.547 10.89-5.41 10.89z" id="Path-9-Copy" fill="#BFE5FB"/>
            </g>
            <path d="M44.977 276H67l7.884-135.996c.064-1.107 1.017-2.004 2.124-2.004h139.984c1.11 0 2.06.9 2.124 2.004L227 276h22l-7.6-152.01c-.22-4.413-3.988-7.99-8.404-7.99H60.98c-4.42 0-8.182 3.585-8.402 7.99L44.978 276z" id="Path-10" stroke="#979797" stroke-width="3" fill="#E6E5E5"/>
            <g id="Top-Box" transform="translate(111 110)">
                <rect id="Rectangle-6" stroke="#979797" stroke-width="3" fill="#F3F2F2" y=".5" width="74" height="33" rx="2"/>
                <g id="Vents" transform="translate(40 5)" stroke="#827B7B" stroke-width="3" fill="#827B7B">
                    <use id="Rectangle-7" mask="url(#mask-2)" xlink:href="#path-1"/>
                    <use id="Rectangle-7-Copy" mask="url(#mask-4)" xlink:href="#path-3"/>
                    <use id="Rectangle-7-Copy-2" mask="url(#mask-6)" xlink:href="#path-5"/>
                    <use id="Rectangle-7-Copy-3" mask="url(#mask-8)" xlink:href="#path-7"/>
                </g>
                <g id="Lights" transform="translate(5 4.5)">
                    <ellipse id="light-1" fill="#5b14d9" cx="3.5" cy="3.5" rx="3.5" ry="3.5"/>
                    <ellipse id="light-2" fill="#14d9be" cx="3.5" cy="12.5" rx="3.5" ry="3.5"/>
                    <ellipse id="light-3" fill="#1492d9" cx="3.5" cy="21.5" rx="3.5" ry="3.5"/>
                </g>
            </g>
        </g>
    </g>
</svg>
