<svg xmlns="http://www.w3.org/2000/svg" width="102" height="120" viewBox="0 0 102 120">
  <path fill="#FFF" fill-rule="evenodd" d="M186.895636,182.814433 L214.623851,182.814433 L214.623851,181.329897 L220.565612,181.329897 L220.565612,186.776165 C220.565612,187.320495 220.120475,187.762887 219.571357,187.762887 L215.618601,187.762887 C215.071434,187.76453 214.626308,187.322996 214.623851,186.776165 L214.623851,184.793814 L186.895636,184.793814 L186.895636,186.776165 C186.895636,187.320495 186.450499,187.762887 185.901382,187.762887 L181.948626,187.762887 C181.401458,187.76453 180.956332,187.322996 180.953876,186.776165 L180.953876,181.329897 L186.895636,181.329897 L186.895636,182.814433 Z M167.089768,97.2061856 L181.696596,97.2061856 L181.696596,98.1747838 C181.696596,99.279615 182.592239,100.175258 183.69707,100.175258 L219.307858,100.175258 C220.412689,100.175258 221.308332,99.279615 221.308332,98.1747838 L221.308332,97.2061856 L234.429719,97.2061856 L234.429719,153.123711 L167.089768,153.123711 L167.089768,97.2061856 Z M183.924756,179.845361 C175.990525,179.845361 169.337734,174.360495 167.557682,166.979381 L200.29183,166.979381 C198.512768,174.36099 191.861462,179.845361 183.924756,179.845361 Z M201.228153,166.979381 C203.008205,174.360495 209.660501,179.845361 217.594732,179.845361 C225.531438,179.845361 232.182744,174.36099 233.962301,166.979381 L201.228153,166.979381 Z M183.924756,69 C175.465175,69 168.465286,75.2315876 167.270497,83.3505155 L181.449518,83.3505155 L181.449518,81.3696495 C181.450336,80.8240244 181.892863,80.3819883 182.438821,80.3814433 L199.861053,80.3814433 C197.597737,73.7614021 191.317791,69 183.924756,69 Z M217.594732,69 C226.052828,69 233.054202,75.2325773 234.249981,83.3505155 L221.060758,83.3505155 L221.060758,81.3696495 C221.06089,81.1075207 220.956754,80.8560902 220.771288,80.6707371 C220.585823,80.485384 220.334239,80.3813119 220.071951,80.3814433 L201.659425,80.3814433 C203.921751,73.7609072 210.200706,69 217.594732,69 Z M165.844474,154.360825 L236.155306,154.360825 C236.428768,154.360825 236.650452,154.582375 236.650452,154.85567 L236.650452,164.752577 C236.650452,165.025873 236.428768,165.247423 236.155306,165.247423 L165.844474,165.247423 C165.571012,165.247423 165.349328,165.025873 165.349328,164.752577 L165.349328,154.85567 C165.349328,154.582375 165.571012,154.360825 165.844474,154.360825 Z M150.552364,178.156454 C149.309545,171.822433 150.552364,165.247423 150.552364,165.247423 L161.356465,165.247423 C161.356465,165.247423 162.541846,171.995134 161.356465,178.156454 C160.261695,183.853113 156.827358,189 155.968278,189 C155.138908,189 151.627822,183.636866 150.552364,178.156454 Z M155.936589,177.050969 C156.363405,177.050969 158.070176,174.493113 158.614342,171.662103 C159.203567,168.600495 158.614342,165.247423 158.614342,165.247423 L153.245467,165.247423 C153.245467,165.247423 152.627523,168.514887 153.245467,171.662103 C153.780225,174.385732 155.524627,177.050969 155.936589,177.050969 Z M240.669063,178.156454 C239.426245,171.822433 240.669063,165.247423 240.669063,165.247423 L251.473164,165.247423 C251.473164,165.247423 252.658545,171.995134 251.473164,178.156454 C250.377899,183.853113 246.943562,189 246.084482,189 C245.255607,189 241.744522,183.636866 240.669063,178.156454 Z M246.053288,177.050969 C245.641326,177.050969 243.896429,174.385732 243.362166,171.662103 C242.744223,168.514887 243.362166,165.247423 243.362166,165.247423 L248.731041,165.247423 C248.731041,165.247423 249.320266,168.600495 248.731041,171.662103 C248.18638,174.493113 246.480105,177.050969 246.053288,177.050969 Z M150.484033,163.762887 L154.247148,88.5414433 C154.356081,86.3616495 156.219318,84.5876289 158.408361,84.5876289 L181.696596,84.5876289 L181.698576,95.4742268 L166.344077,95.4742268 C165.795455,95.4742268 165.324075,95.9181031 165.291891,96.4658969 L161.388154,163.762887 L150.484033,163.762887 Z M221.308332,84.5876289 L243.58003,84.5876289 C245.766598,84.5876289 247.631816,86.3576907 247.741243,88.5414433 L251.504358,163.762887 L240.611131,163.762887 L236.707889,96.4658969 C236.668994,95.9119806 236.211283,95.4805946 235.655703,95.4742268 L221.308332,95.4742268 L221.308332,84.5876289 Z M183.174609,82.8566598 C183.174346,82.5940918 183.278496,82.3421808 183.464134,82.1563779 C183.649771,81.970575 183.901679,81.8661105 184.164407,81.8659794 L218.826161,81.8659794 C219.372803,81.8659794 219.815465,82.3113402 219.815465,82.8566598 L219.815465,97.2051959 C219.815465,97.7515052 219.372803,98.1948866 218.826161,98.1958763 L184.164407,98.1958763 C183.617765,98.1958763 183.174609,97.7505155 183.174609,97.2051959 L183.174609,82.8566598 Z" transform="translate(-150 -69)"/>
</svg>
