<svg version="1" xmlns="http://www.w3.org/2000/svg" width="126.667" height="126.667" viewBox="0 0 95.000000 95.000000"><path d="M28.2 6c-3.9 2.4-6.3 6.7-4.3 8 1.8 1 8.5.3 8.9-1 .2-.5 3.3-1 6.8-1 6.2 0 6.4-.1 5.4-2.1C43.4 7.1 38.1 4 34.5 4c-1.6 0-4.5.9-6.3 2zM51.2 7.4c-2 1.9-3.4 3.8-3 4.2.4.4 3.3.6 6.5.5 3.6-.1 5.9.3 6.4 1.1.7 1.1 8.5 1.6 9.5.5 1.2-1.2-2.8-6.6-6-8.1-5.4-2.6-9.1-2.1-13.4 1.8z"/><path d="M34 19.2c0 6.4-.5 6 7.8 6 2.3 0 4.2.3 4.2.7 0 1.3-12.1.6-13-.8-.4-.8-1.5-1.1-2.4-.8-.9.4-1.6.2-1.6-.3 0-.6.9-1 2-1 1.7 0 2-.7 2-3.9v-3.8l-9 .1c-4.9.1-9.4.6-9.9 1.1-.9 1-1.3 6.5-2.6 35-.3 7.2-.8 14.4-1 16-.6 4.3.6 5.7 4.5 5.3 3.1-.3 3.4-.6 3.6-3.8.1-3.4 1.5-26.7 1.9-34.5.2-2.2.3-5.6.4-7.5.1-2.8.5-3.6 2.1-3.7 1.1-.1 2 .2 2 .8 0 .5-.6.8-1.2.7-1-.2-1.3 4.3-1.3 19.7v20l24.3.3c22.5.2 24.2.1 24.3-1.5.4-7.9.3-38.3-.1-38.4-2.9-.7-7.9-.4-9.5.4-2.4 1.3-7.5 1.6-7.5.4 0-.5 1.5-.7 3.3-.6 2.1.2 3.1-.1 2.9-.9-.1-.9 1.4-1.1 5.8-.9 3.3.2 6.2.5 6.4.8.4.4.9 6.4 2.1 28.4.6 10.3 1.2 17.9 1.4 19.8.1.5 1.8.7 3.9.5 3.4-.3 3.7-.5 3.6-3.3-.1-2.8-.7-16.7-2-41.5-.3-5.8-1-11-1.5-11.5-.6-.6-4.8-1-9.4-1.1-8.4-.1-8.5 0-8.5 2.4 0 3.3-.8 2.5-1.3-1.3l-.4-3-13.1-.1-13.2-.1v5.9zm-6 4.2c0 .3-.4.8-1 1.1-.5.3-1 .1-1-.4 0-.6.5-1.1 1-1.1.6 0 1 .2 1 .4zM49 26c0 .5-.4 1-1 1-.5 0-1-.5-1-1 0-.6.5-1 1-1 .6 0 1 .4 1 1zm4-.2c0 .5-.7.9-1.5.9s-1.5-.4-1.5-.9c0-.4.7-.8 1.5-.8s1.5.4 1.5.8z"/><path d="M21 70v4l25.8-.2 25.7-.3.3-3.8.3-3.7H21v4zM10.1 78.7c.3 5.7 1.5 9.8 3.4 11.3 2 1.7 4.6-3.9 4.9-10.6.3-5.9-1.8-7.9-2.2-2.2-.4 4.6-1.9 5.7-3.2 2.4-.5-1.5-1-3.4-1-4.2 0-.8-.5-1.4-1.1-1.4-.6 0-1 1.9-.8 4.7zM75.6 78.7c.1 2.7.9 6.5 1.8 8.7 1.3 3.2 1.8 3.6 3.1 2.6 2.8-2.3 5-16 2.5-16-.5 0-1 1-1 2.3 0 1.3-.6 3.2-1.4 4.3-1.6 2.1-2.2 1.3-2.8-3.5-.6-4.7-2.4-3.3-2.2 1.6zM23 76c0 .5 1.3 2.4 2.8 4.1 2.3 2.5 3.8 3.3 7.8 3.6 4.6.5 5.4.2 8.7-2.7 6.1-5.4 5.3-6-7.8-6-6.9 0-11.5.4-11.5 1z"/><path d="M48.1 77.2c1.5 2.8 2.9 4.2 5.6 5.6 5.2 2.8 13.7 0 16.1-5.3L71 75H46.9l1.2 2.2zM32.6 86.7c-1.1 2.6 1 3.9 3.9 2.3 1.4-.8 5.4-1.3 9.5-1.3 3.8 0 7-.3 7-.7 0-.4-3.6-.7-8-.6-4.4.1-8-.2-8-.6 0-1.5-3.8-.8-4.4.9zM55.8 85.7c-1 .2-1.8.9-1.8 1.4 0 .6.5.7 1 .4.6-.3 1.3.1 1.6.9 1 2.7 4.4 2 4.4-.9 0-2.5-1.1-2.9-5.2-1.8z"/></svg>