<svg width="64" height="55" viewBox="0 0 64 55" xmlns="http://www.w3.org/2000/svg">
  <path d="M40.36.75v10.408l-14.22-.001v43.214H14.97l-.001-43.214H.75V.75h39.61zm14.913 6.035v8.808h6.312v9.021h-6.312v18.158l2.129 2.232h5.848v9.367H52.125L44.38 46.78V24.614h-2.913v-9.02l3.397-.001 2.22-8.808h8.19zM37.86 3.25H3.25v5.407h14.22l-.001 43.214h6.171V8.658l14.219-.001V3.25zm14.914 6.034h-3.742l-2.219 8.81-2.846-.001v4.021h2.914V45.73l6.266 6.142h7.604v-4.367h-4.418l-3.559-3.732V22.114h6.312v-4.021h-6.312V9.285z" fill="#001E5D" fill-rule="nonzero"/>
</svg>
