<?xml version="1.0" encoding="UTF-8"?>
<svg width="295px" height="246px" viewBox="0 0 295 246" version="1.1" xmlns="http://www.w3.org/2000/svg" xmlns:xlink="http://www.w3.org/1999/xlink">
    <defs>
        <path d="M92.6500246,197.410004 C92.6500246,197.410004 91.3838471,204.094093 92.6500246,210.532199 C93.7457551,216.103792 97.3200687,221.555936 98.164187,221.555936 C99.0387423,221.555936 102.535949,216.323457 103.650956,210.532199 C104.858289,204.269218 103.650956,197.410004 103.650956,197.410004 L109.269619,197.410525 C109.269619,197.410525 111.698488,211.213985 109.269619,223.817892 C107.026415,235.471268 99.9893899,246 98.2291192,246 C96.5297223,246 89.3354398,235.028901 87.131804,223.817892 C84.5852451,210.860699 87.131804,197.410525 87.131804,197.410525 L92.6500246,197.410004 Z M277.300908,197.410004 C277.300908,197.410004 276.034731,204.094093 277.300908,210.532199 C278.395624,216.103792 281.970952,221.555936 282.815071,221.555936 C283.689626,221.555936 287.185818,216.323457 288.30184,210.532199 C289.46754,204.485183 288.382233,197.882344 288.305998,197.434166 L288.30184,197.410004 L293.920503,197.410525 C293.920503,197.410525 296.349372,211.213985 293.920503,223.817892 C291.676284,235.471268 284.639259,246 282.878988,246 C281.180606,246 273.986324,235.028901 271.782688,223.817892 C269.236129,210.860699 271.782688,197.410525 271.782688,197.410525 Z M161.599882,229.787726 L161.599882,232.824568 L218.415539,232.824568 L218.415539,229.787726 L230.590322,229.787726 L230.590322,240.928888 C230.590322,242.042397 229.678228,242.947385 228.553075,242.947385 L220.4538,242.947385 C219.332643,242.950738 218.420571,242.047514 218.415539,240.928888 L218.415539,236.873691 L161.599882,236.873691 L161.599882,240.928888 C161.599882,242.042397 160.687788,242.947385 159.562635,242.947385 L151.46336,242.947385 C150.342203,242.950738 149.430131,242.047514 149.425099,240.928888 L149.425099,229.787726 L161.599882,229.787726 Z M189.048946,200.431585 C185.403613,215.531777 171.774957,226.750884 155.51249,226.750884 C139.255096,226.750884 125.623397,215.530764 121.976034,200.431585 L189.048946,200.431585 Z M258.040401,200.431585 C254.394053,215.531777 240.765398,226.750884 224.50293,226.750884 C208.245536,226.750884 194.614851,215.530764 190.967489,200.431585 L190.967489,200.431585 Z M262.533911,175.139164 C263.094239,175.139164 263.548476,175.592377 263.548476,176.151444 L263.548476,196.397059 C263.548476,196.956126 263.094239,197.40934 262.533911,197.40934 L118.465639,197.40934 C117.90531,197.40934 117.451073,196.956126 117.451073,196.397059 L117.451073,176.151444 C117.451073,175.592377 117.90531,175.139164 118.465639,175.139164 L262.533911,175.139164 Z M150.946946,32.4156964 L150.951005,54.6858725 L119.489335,54.6858725 C118.365197,54.6858725 117.39933,55.5938884 117.333384,56.7144831 L109.334551,194.380614 L86.9917939,194.380614 L94.7024902,40.5038195 C94.9256946,36.0447229 98.7435038,32.4156964 103.228897,32.4156964 L150.946946,32.4156964 Z M277.747317,32.4156964 C282.227637,32.4156964 286.049505,36.0366246 286.273724,40.5038195 L293.98442,194.380614 L271.663984,194.380614 L263.666165,56.7144831 C263.586468,55.5813639 262.648609,54.6988989 261.510214,54.6858725 L232.11217,54.6858725 L232.11217,32.4156964 L277.747317,32.4156964 Z M72.989,158.5 L71.874,180.75 L-4.26325641e-12,180.75 L-4.26325641e-12,158.5 L72.989,158.5 Z M150.946946,57.7000017 L150.946946,59.6777159 C150.946946,61.9398578 152.780775,63.7736861 155.042917,63.7736861 L228.0162,63.7736861 C230.278342,63.7736861 232.11217,61.9398578 232.11217,59.6777159 L232.11217,57.7000017 L258.99815,57.7000017 L258.99815,172.087724 L121.01727,172.087724 L121.01727,57.7000017 L150.946946,57.7000017 Z M75.107,112.25 L73.992,134.5 L-4.05009359e-12,134.5 L-4.05009359e-12,112.25 L75.107,112.25 Z M77.224,66 L76.109,88.25 L-4.05009359e-12,88.25 L-4.05009359e-12,66 L77.224,66 Z M227.026154,26.8452309 C228.146234,26.8452309 229.053256,27.7562836 229.053256,28.871817 L229.053256,58.2239091 C229.053256,59.341467 228.146234,60.2484705 227.026154,60.2504951 L156.00354,60.2504951 C154.88346,60.2504951 153.975423,59.3394424 153.975423,58.2239091 L153.975423,28.871817 C153.975423,28.3346945 154.188291,27.8193726 154.568666,27.4392848 C154.949041,27.0591971 155.465205,26.8452309 156.00354,26.8452309 L227.026154,26.8452309 Z M155.51249,0 C170.660965,0 183.528696,9.7401652 188.166274,23.2824568 L188.166274,23.2824568 L152.46778,23.2824568 C151.349102,23.2835717 150.442356,24.1878231 150.440678,25.3039815 L150.440678,25.3039815 L150.440678,29.3561412 L121.387587,29.3561412 C123.835733,12.7476513 138.178642,0 155.51249,0 Z M224.50293,0 C241.833735,0 256.179688,12.7496758 258.629863,29.3561412 L231.604887,29.3561412 L231.604887,25.3039815 C231.605157,24.7677575 231.391781,24.2534186 231.011758,23.8742509 C230.631734,23.4950833 230.116235,23.2821881 229.578801,23.2824568 L191.851176,23.2824568 C196.486724,9.73915292 209.352427,0 224.50293,0 Z" id="path-1"></path>
    </defs>
    <g id="Artboard-Copy-23" stroke="none" stroke-width="1" fill="none" fill-rule="evenodd">
        <use fill="#fff" fill-rule="evenodd" xlink:href="#path-1"></use>
    </g>
</svg>
