<svg width="56" height="47" viewBox="0 0 56 47" xmlns="http://www.w3.org/2000/svg">
  <g fill="none" fill-rule="evenodd">
    <path d="M25.962.04c8.096 0 15.448 4.423 19.586 11.007 3.166-1.918 6.81-4.543 9.087-7.103l1.29-1.685c0 .003.002.002.003 0l-.006.01-.147.418c-1.51 4.113-4.654 7.856-8.636 11.356A22.43 22.43 0 0149.05 23.1c0 12.65-10.424 23.06-23.09 23.06-5.924 0-11.358-2.277-15.464-5.997-1.553 1.292-2.9 2.512-3.996 3.64l.053-.797a126.388 126.388 0 013.547-3.211l-.01.007.008-.008C6.95 36.807 4.634 32.95 3.552 28.63a25.588 25.588 0 00-2.894 1.524l-.585-.213c.96-.596 2.093-1.207 3.357-1.825a22.78 22.78 0 01-.558-5.015c0-12.65 10.18-23.06 23.09-23.06z" fill="#FFF" fill-rule="nonzero"/>
    <path d="M49.05 23.1c0 12.65-10.423 23.06-23.088 23.06-12.666 0-23.09-10.41-23.09-23.06 0-12.65 10.18-23.06 23.09-23.06C38.382.04 49.05 10.45 49.05 23.1" fill="#F2F3F3" fill-rule="nonzero"/>
    <path d="M31.17 35.237c9.864 4.057 8.153-6.195 2.894-14.045-2.98-4.447-6.866-8.153-9.318-9.94C16.618 5.32 11.6 8.916 17.34 20.613c1.855 3.782 4.239 6.335 6.1 8.74 1.422 1.838 4.192 2.757 3.216 3.63-1.1.982-3.761-3.353-3.761-3.353-1.966-2.37-3.84-4.9-5.77-8.371-4.413-7.928-3.777-16.02 4.21-12.495 6.777 2.993 13.251 11.387 15.854 17.348 1.202 2.752 4.48 13.643-5.96 9.24l-.059-.116z" fill="#D4D6D8" fill-rule="nonzero"/>
    <path d="M.495 29.936c4.34-2.89 8.454-4.755 15.455-7.067 9.84-3.25 17.245-5.434 26.33-10 4.067-2.043 11.124-6.626 13.648-10.61-.756 1.542-3.096 4.543-4.155 5.87C39.445 23.562 13.186 22.687.668 30.096" fill="#B6B9BC" fill-rule="nonzero"/>
    <path d="M3.72 27.603v-.637c.388 0 .682-.065.881-.195.2-.131.3-.384.3-.759v-5.763c0-.375-.09-.634-.269-.777a.992.992 0 00-.636-.214.882.882 0 00-.276.037v-.728h5.985c.57 0 1.133.124 1.65.364.2.093.354.176.46.248.343.232.596.515.76.847.162.332.248.715.256 1.147 0 .555-.136 1.051-.41 1.49-.273.438-.677.78-1.211 1.024-.535.245-1.17.314-1.903.367-.403.03-.808.055-1.426.05v1.932c0 .367.136.622.407.765.271.143.578.214.92.214.16 0 .28-.008.362-.024v.612H3.72zm4.161-4.179c.73-.026 1.292-.189 1.689-.49.595-.452.634-.827.655-1.737.021-.909-.318-1.545-.655-1.783-.549-.386-1.543-.316-1.689-.278v4.288zm6.73-3.267c-.011-.64-.321-.96-.93-.96-.117 0-.205.004-.262.012v-.642h5.335v.642c-.783 0-1.174.316-1.174.948v5.855c0 .212.03.386.091.523.062.137.18.243.355.318.176.076.418.113.728.113v.637h-5.323v-.637c.302 0 .538-.032.71-.098a.644.644 0 00.364-.309c.071-.14.107-.323.107-.547v-5.855zM28.6 27.603h-9.258v-.624c.416 0 .714-.079.893-.236.18-.157.27-.397.27-.719v-5.848c0-.363-.094-.617-.282-.762a1.024 1.024 0 00-.643-.217c-.077 0-.157.008-.238.024v-.654h8.884l.129 2.196h-.643c0-.375-.04-.67-.122-.884-.082-.214-.197-.369-.346-.465a1.215 1.215 0 00-.51-.18 6.718 6.718 0 00-.802-.037h-2.454v3.505h2.331c.808 0 1.212-.279 1.212-.838 0-.07-.008-.16-.024-.275h.63c-.033.457-.05.975-.05 1.554 0 .453.013.911.038 1.376h-.63c.016-.147.024-.25.024-.312 0-.575-.404-.862-1.212-.862h-2.319v2.502c0 .363.027.618.08.764a.465.465 0 00.33.294c.167.05.453.074.857.074h1.689c1.121 0 1.682-.573 1.682-1.72h.686l-.202 2.344zm1.064 0v-.637c.082.017.161.025.239.025a.87.87 0 00.636-.279c.184-.185.276-.51.276-.975v-5.225c0-.836-.296-1.254-.888-1.254-.06 0-.148.008-.263.025v-.637c4.443-.085 7.122-.05 8.034.107.657.186 1.15.47 1.481.85.33.382.496.88.496 1.497 0 .505-.153.966-.46 1.382-.305.416-.727.691-1.266.826.225.143.433.316.624.52.192.204.427.506.704.905.098.172.265.43.502.777.236.347 1.169 1.554 1.474 1.554a.64.64 0 00.251-.049v.612l-1.566.19a4.91 4.91 0 01-.728-.05 3.208 3.208 0 01-.747-.226 3.38 3.38 0 01-.575-.315c-.175-.12-.382-.3-.621-.538a9.507 9.507 0 01-.765-.881 21.996 21.996 0 01-.823-1.135l-.502-.801a7.143 7.143 0 01-.875.049c-.216 0-.383-.004-.501-.012v1.865c0 .253.025.46.076.621.051.161.14.286.27.373.128.088.295.15.501.184.206.035.487.052.842.052v.6h-5.826zm4.137-4.326c.46 0 .816-.02 1.064-.06 1.204-.192 1.805-.865 1.805-2.02 0-.391-.073-.748-.22-1.07-.147-.322-.455-.702-.77-.893-.317-.192-1.79-.115-1.88-.086v4.13zm8.713-2.129l-.239-.575c.327-.11.654-.244.982-.403a7.667 7.667 0 002.175-1.652h1.481v7.494c0 .363.084.613.251.75.168.136.484.204.949.204v.637h-5.25v-.637c.265 0 .481-.025.648-.076a.67.67 0 00.386-.29c.09-.143.134-.34.134-.588v-5.488c-.342.168-.627.3-.853.395a4.944 4.944 0 01-.664.23z" fill="#53565A"/>
    <path d="M55.926 2.26c-3.519 10.436-17.615 18.495-29.48 26.188-7.16 4.643-14.266 9.986-19.159 14.534-1.29 1.199.263-.449-.231.058 6.828-7.86 14.682-12.543 19.023-15.49 7.34-4.985 11.515-6.242 24.18-17.905M3.43 28.115c-1.264.618-2.396 1.23-3.357 1.825l.585.213a25.65 25.65 0 012.91-1.532" fill="#B6B9BC" fill-rule="nonzero"/>
    <path d="M10.101 39.795a126.388 126.388 0 00-3.547 3.211l-.053.797c1.097-1.129 2.444-2.349 3.998-3.643" fill="#B6B9BC" fill-rule="nonzero"/>
    <path d="M31.17 35.237c9.864 4.057 8.153-6.195 2.894-14.045-2.98-4.447-6.655-7.975-9.318-9.94-3.11-2.296-3.413-2.487-3.413-2.487 6.944 3.295 13.252 11.387 15.855 17.348 1.202 2.752 4.48 13.643-5.96 9.24" fill="#D4D6D8" fill-rule="nonzero"/>
  </g>
</svg>
