<svg width="128" height="106" viewBox="0 0 128 106" xmlns="http://www.w3.org/2000/svg">
  <g fill="none" fill-rule="evenodd">
    <path d="M59.341.09c18.507 0 35.31 10.11 44.768 25.16 7.223-4.376 15.538-10.362 20.744-16.205l2.977-3.88-.006.016.01-.017-.015.03-.238.684c-3.411 9.505-10.65 18.147-19.837 26.22a51.243 51.243 0 014.372 20.702c0 28.914-23.825 52.71-52.775 52.71-13.542 0-25.963-5.207-35.349-13.71-3.55 2.956-6.627 5.742-9.132 8.322l.121-1.822a288.888 288.888 0 018.107-7.34l-.035.03.031-.032C15.887 84.13 10.591 75.315 8.12 65.436a58.541 58.541 0 00-6.615 3.485l-1.336-.486c2.195-1.363 4.783-2.758 7.67-4.171l.005.012A52.035 52.035 0 016.566 52.8C6.566 23.884 29.834.09 59.34.09z" fill="#FFF" fill-rule="nonzero"/>
    <path d="M112.116 52.8c0 28.914-23.825 52.71-52.775 52.71S6.566 81.713 6.566 52.8C6.566 23.884 29.834.09 59.34.09c28.391 0 52.775 23.796 52.775 52.71" fill="#1A5DAD" fill-rule="nonzero"/>
    <path d="M71.246 80.542c22.547 9.273 18.634-14.16 6.616-32.103-6.812-10.166-15.696-18.635-21.3-22.722-18.579-13.557-30.048-5.335-16.929 21.402 4.242 8.644 9.69 14.478 13.946 19.978 3.25 4.198 9.58 6.3 7.35 8.293-2.513 2.246-8.598-7.662-8.598-7.662-4.493-5.42-8.776-11.2-13.19-19.134-10.086-18.121-8.632-36.616 9.623-28.56 15.492 6.84 30.29 26.027 36.24 39.652 2.747 6.29 10.24 31.184-13.623 21.12" fill="#FFF" fill-rule="nonzero"/>
    <path d="M1.13 68.425c9.92-6.604 19.324-10.869 35.328-16.153 22.49-7.428 39.416-12.42 60.182-22.857 9.296-4.67 25.426-15.145 31.195-24.251-1.728 3.524-7.076 10.383-9.497 13.418C90.16 53.856 30.138 51.856 1.527 68.79" fill="#EE293D" fill-rule="nonzero"/>
    <path d="M8.503 63.092v-1.455c.886 0 1.558-.149 2.014-.447.457-.298.686-.876.686-1.734V46.284c0-.858-.205-1.45-.616-1.776-.41-.326-.895-.49-1.454-.49-.252 0-.462.029-.63.085v-1.665h13.68a8.96 8.96 0 013.77.832c.46.213.811.402 1.054.567.783.531 1.361 1.177 1.734 1.937s.569 1.633.588 2.621c0 1.268-.313 2.403-.937 3.405-.625 1.002-1.548 1.783-2.77 2.342-1.221.56-2.675.719-4.35.84a36.1 36.1 0 01-3.258.111v4.419c0 .839.31 1.421.93 1.748.62.326 1.322.49 2.105.49.364 0 .639-.02.825-.057v1.399H8.504zm9.511-9.55c1.667-.06 2.953-.434 3.86-1.122 1.36-1.032 1.449-1.89 1.497-3.969.049-2.078-.725-3.533-1.497-4.076-1.254-.882-3.527-.722-3.86-.636v9.802zm15.385-7.468c-.028-1.463-.737-2.195-2.126-2.195-.27 0-.471.01-.602.028v-1.469c.017.002 4.082.002 12.196 0v1.469c-1.79 0-2.685.722-2.685 2.167v13.382c0 .485.07.883.21 1.195.14.313.41.555.81.728.402.172.957.258 1.665.258v1.455H30.7v-1.455c.69 0 1.231-.074 1.623-.223.391-.15.669-.385.832-.707.163-.321.245-.738.245-1.251V46.074zM65.37 63.092H44.21v-1.427c.95 0 1.631-.18 2.042-.538.41-.359.615-.907.615-1.643V46.116c0-.83-.214-1.41-.643-1.74a2.34 2.34 0 00-1.469-.497c-.177 0-.359.018-.545.056v-1.496h20.307l.294 5.02h-1.468c0-.858-.094-1.532-.28-2.021-.187-.49-.45-.844-.79-1.063-.34-.219-.73-.356-1.168-.412-.438-.056-1.05-.084-1.832-.084h-5.609v8.012h5.329c1.846 0 2.77-.638 2.77-1.916a4.67 4.67 0 00-.057-.629h1.44a50.334 50.334 0 00-.111 3.552c0 1.035.028 2.083.084 3.146h-1.44c.037-.336.055-.573.055-.713 0-1.314-.923-1.972-2.769-1.972h-5.3v5.72c0 .83.06 1.412.181 1.747.121.336.373.56.755.671.383.112 1.035.168 1.958.168h3.86c2.565 0 3.847-1.31 3.847-3.929h1.566l-.461 5.356zm2.433 0v-1.455c.187.038.368.056.546.056.55 0 1.035-.212 1.454-.636.42-.424.63-1.168.63-2.23V46.885c0-1.91-.676-2.866-2.028-2.866-.14 0-.34.018-.602.056V42.62c10.156-.195 16.277-.114 18.364.245 1.501.424 2.63 1.072 3.384 1.944.756.871 1.133 2.01 1.133 3.419a5.21 5.21 0 01-1.049 3.16c-.699.95-1.664 1.58-2.895 1.887.513.327.989.723 1.427 1.189.438.466.974 1.156 1.608 2.07.224.391.606.983 1.147 1.775.54.793 2.671 3.552 3.37 3.552.206 0 .397-.037.574-.112v1.398l-3.58.434c-.616 0-1.17-.037-1.665-.112-.494-.075-1.063-.247-1.706-.517a7.726 7.726 0 01-1.315-.72c-.4-.275-.874-.686-1.42-1.23a21.73 21.73 0 01-1.747-2.015 50.276 50.276 0 01-1.882-2.593l-1.146-1.832c-.13.019-.366.042-.707.07-.34.028-.771.042-1.293.042-.495 0-.877-.01-1.147-.028v4.265c0 .578.058 1.05.175 1.419.116.368.321.652.615.853.294.2.676.34 1.147.42.47.079 1.112.118 1.923.118v1.37H67.804zm9.455-9.886c1.053 0 1.865-.047 2.433-.14 2.75-.438 4.126-1.977 4.126-4.615 0-.895-.168-1.71-.503-2.447-.336-.736-1.04-1.603-1.763-2.041-.722-.438-4.088-.261-4.293-.196v9.439zm19.916-4.867l-.546-1.314c.746-.252 1.495-.56 2.245-.923s1.564-.864 2.44-1.503a17.524 17.524 0 002.532-2.272h3.385v17.129c0 .83.19 1.4.573 1.713.382.312 1.105.468 2.168.468v1.455h-12v-1.455c.606 0 1.1-.058 1.483-.175.382-.116.676-.337.88-.664.206-.326.308-.773.308-1.342V46.913a41.62 41.62 0 01-1.95.902 11.3 11.3 0 01-1.518.524z" fill="#FFF"/>
    <path d="M127.83 5.164C119.787 29.02 87.568 47.44 60.446 65.025 44.084 75.636 27.84 87.85 16.656 98.244c-2.948 2.74.6-1.025-.529.132 15.607-17.966 33.56-28.668 43.481-35.403 16.778-11.397 26.322-14.269 55.268-40.926M7.839 64.264C4.95 65.677 2.363 67.072.168 68.435l1.336.486a58.63 58.63 0 016.652-3.502" fill="#EE293D" fill-rule="nonzero"/>
    <path d="M23.088 90.96a288.888 288.888 0 00-8.107 7.34l-.12 1.822c2.506-2.581 5.584-5.369 9.138-8.327" fill="#EE293D" fill-rule="nonzero"/>
    <path d="M71.246 80.542c22.547 9.273 18.634-14.16 6.616-32.103-6.812-10.166-15.213-18.23-21.3-22.722-7.107-5.247-7.8-5.682-7.8-5.682C64.632 27.567 79.052 46.062 85 59.687c2.748 6.291 10.24 31.184-13.623 21.12" fill="#FFF" fill-rule="nonzero"/>
  </g>
</svg>
