<svg width="64" height="64" viewBox="0 0 64 64" xmlns="http://www.w3.org/2000/svg">
  <path d="M28.142.574c1.4-.138 2.364.335 3.535 1.71 2.881 3.384 2.425 11.033-.562 21.15l-.184.612c3.448 5.373 7.478 10.677 11.396 14.911l.148.158c6.409-.362 11.997.039 15.7 1.183 4.616 1.426 6.64 4.282 4.46 7.9-4.363 6.451-11.98 3.555-20.91-5.526l-.459-.473c-6.316.46-12.92 1.634-18.684 3.363l-.78.24c-5.095 9.371-10.37 15.766-14.878 17.3-1.898.646-4.237.69-4.95-.747-.335-.672-.474-1.69-.474-2.706 0-6.957 6.778-12.472 17.963-16.242l.266-.09.015-.026c2.98-5.638 5.67-11.961 7.625-17.92l.286-.892a96.982 96.982 0 01-3.125-5.36c-2.48-4.607-2.426-12.773.14-16.048.858-1.096 2.072-2.36 3.472-2.497zM17.491 47.322l-.246.099C9.128 50.699 4.43 54.889 4.43 59.565c0 .104-.033.817.122.932.155.115.723-.065.963-.116l.232-.056.211-.063c2.96-1.008 6.858-5.305 10.819-11.753l.516-.853.198-.334zm39.799-4.158c-2.693-.832-6.684-1.236-11.36-1.171l-.613.01.114.11c6.725 6.386 11.818 8.138 14.444 4.79l.12-.16.112-.158c.9-1.494.193-2.491-2.817-3.421zM29.773 27.749l-.02.066-.028-.046-.182.531a122.772 122.772 0 01-5.112 12.35l-.53 1.091-.138.276.059-.019-.059.11.578-.155c4.164-1.09 8.63-1.908 13.06-2.407l1.212-.129-.055-.059.089-.006-.27-.307c-2.702-3.103-5.398-6.614-7.887-10.24l-.717-1.056zM28.575 3.534c-.518 0-1.133.863-1.543 1.387-1.768 2.256-1.813 9.148.14 12.777.362.674.749 1.367 1.155 2.074l.473.81.077-.285c2.028-7.692 2.238-13.329.71-15.813-.33-.633-.667-.95-1.012-.95z" fill="#FE391A" fill-rule="nonzero"/>
</svg>
