<?xml version="1.0" encoding="UTF-8"?>
<svg width="209px" height="246px" viewBox="0 0 209 246" version="1.1" xmlns="http://www.w3.org/2000/svg" xmlns:xlink="http://www.w3.org/1999/xlink">
    <!-- Generator: Sketch 63.1 (92452) - https://sketch.com -->
    <title>Shape Copy</title>
    <desc>Created with Sketch.</desc>
    <g id="Page-1" stroke="none" stroke-width="1" fill="none" fill-rule="evenodd">
        <g id="Artboard-Copy-18" fill="#FFFFFF">
            <path d="M75.5998821,232.824568 L132.415539,232.824568 L132.415539,229.787726 L144.590322,229.787726 L144.590322,240.928888 C144.590322,242.042397 143.678228,242.947385 142.553075,242.947385 L134.4538,242.947385 C133.332643,242.950738 132.420571,242.047514 132.415539,240.928888 L132.415539,236.873691 L75.5998821,236.873691 L75.5998821,240.928888 C75.5998821,242.042397 74.6877879,242.947385 73.562635,242.947385 L65.4633602,242.947385 C64.3422033,242.950738 63.4301312,242.047514 63.4250985,240.928888 L63.4250985,229.787726 L75.5998821,229.787726 L75.5998821,232.824568 Z M35.0172703,57.7000017 L64.9469465,57.7000017 L64.9469465,59.6777159 C64.9469465,61.9398578 66.7807748,63.7736861 69.0429167,63.7736861 L142.0162,63.7736861 C144.278342,63.7736861 146.11217,61.9398578 146.11217,59.6777159 L146.11217,57.7000017 L146.11217,57.7000017 L172.99815,57.7000017 L172.99815,172.087724 L35.0172703,172.087724 L35.0172703,57.7000017 Z M69.5124903,226.750884 C53.255096,226.750884 39.6233967,215.530764 35.9760345,200.431585 L103.048946,200.431585 C99.4036131,215.531777 85.7749574,226.750884 69.5124903,226.750884 Z M104.967489,200.431585 C108.614851,215.530764 122.245536,226.750884 138.50293,226.750884 C154.765398,226.750884 168.394053,215.531777 172.040401,200.431585 L104.967489,200.431585 Z M69.5124903,0 C52.1786422,0 37.8357327,12.7476513 35.3875866,29.3561412 L64.4406784,29.3561412 L64.4406784,25.3039815 C64.4423559,24.1878231 65.3491018,23.2835717 66.4677799,23.2824568 L102.166274,23.2824568 C97.5286964,9.7401652 84.6609647,0 69.5124903,0 Z M138.50293,0 C155.833735,0 170.179688,12.7496758 172.629863,29.3561412 L145.604887,29.3561412 L145.604887,25.3039815 C145.605157,24.7677575 145.391781,24.2534186 145.011758,23.8742509 C144.631734,23.4950833 144.116235,23.2821881 143.578801,23.2824568 L105.851176,23.2824568 C110.486724,9.73915292 123.352427,0 138.50293,0 Z M32.4656385,175.139164 L176.533911,175.139164 C177.094239,175.139164 177.548476,175.592377 177.548476,176.151444 L177.548476,196.397059 C177.548476,196.956126 177.094239,197.40934 176.533911,197.40934 L32.4656385,197.40934 C31.9053096,197.40934 31.4510732,196.956126 31.4510732,196.397059 L31.4510732,176.151444 C31.4510732,175.592377 31.9053096,175.139164 32.4656385,175.139164 Z M1.13180395,223.817892 C-1.41475494,210.860699 1.13180395,197.410525 1.13180395,197.410525 L23.2696187,197.410525 C23.2696187,197.410525 25.698488,211.213985 23.2696187,223.817892 C21.0264148,235.471268 13.9893899,246 12.2291192,246 C10.5297223,246 3.33543977,235.028901 1.13180395,223.817892 Z M12.164187,221.555936 C13.0387423,221.555936 16.5359488,216.323457 17.6509561,210.532199 C18.8582888,204.269218 17.6509561,197.410004 17.6509561,197.410004 L6.6500246,197.410004 C6.6500246,197.410004 5.38384711,204.094093 6.6500246,210.532199 C7.74575511,216.103792 11.3200687,221.555936 12.164187,221.555936 Z M185.782688,223.817892 C183.236129,210.860699 185.782688,197.410525 185.782688,197.410525 L207.920503,197.410525 C207.920503,197.410525 210.349372,211.213985 207.920503,223.817892 C205.676284,235.471268 198.639259,246 196.878988,246 C195.180606,246 187.986324,235.028901 185.782688,223.817892 Z M196.815071,221.555936 C195.970952,221.555936 192.395624,216.103792 191.300908,210.532199 C190.034731,204.094093 191.300908,197.410004 191.300908,197.410004 L202.30184,197.410004 C202.30184,197.410004 203.509173,204.269218 202.30184,210.532199 C201.185818,216.323457 197.689626,221.555936 196.815071,221.555936 Z M0.991793941,194.380614 L8.70249019,40.5038195 C8.92569455,36.0447229 12.7435038,32.4156964 17.2288969,32.4156964 L64.9469465,32.4156964 L64.9510047,54.6858725 L33.4893349,54.6858725 C32.3651966,54.6858725 31.3993304,55.5938884 31.3333837,56.7144831 L23.3345509,194.380614 L0.991793941,194.380614 Z M146.11217,32.4156964 L191.747317,32.4156964 C196.227637,32.4156964 200.049505,36.0366246 200.273724,40.5038195 L207.98442,194.380614 L185.663984,194.380614 L177.666165,56.7144831 C177.586468,55.5813639 176.648609,54.6988989 175.510214,54.6858725 L146.11217,54.6858725 L146.11217,32.4156964 Z M67.9754229,28.871817 C67.9754229,28.3346945 68.1882913,27.8193726 68.568666,27.4392848 C68.9490408,27.0591971 69.4652051,26.8452309 70.0035399,26.8452309 L141.026154,26.8452309 C142.146234,26.8452309 143.053256,27.7562836 143.053256,28.871817 L143.053256,58.2239091 C143.053256,59.341467 142.146234,60.2484705 141.026154,60.2504951 L70.0035399,60.2504951 C68.8834598,60.2504951 67.9754229,59.3394424 67.9754229,58.2239091 L67.9754229,28.871817 Z" id="Shape-Copy"></path>
        </g>
    </g>
</svg>