<svg width="209" height="246" viewBox="0 0 209 246" xmlns="http://www.w3.org/2000/svg" xmlns:xlink="http://www.w3.org/1999/xlink">
  <defs>
    <filter x="-8.9%" y="-7.1%" width="117.7%" height="115%" filterUnits="objectBoundingBox" id="a">
      <feOffset dy="1" in="SourceAlpha" result="shadowOffsetOuter1"/>
      <feGaussianBlur stdDeviation="6" in="shadowOffsetOuter1" result="shadowBlurOuter1"/>
      <feColorMatrix values="0 0 0 0 0 0 0 0 0 0 0 0 0 0 0 0 0 0 0.12 0" in="shadowBlurOuter1"/>
    </filter>
    <path d="M75.6 232.825h56.816v-3.037h12.174v11.14a2.029 2.029 0 01-2.037 2.02h-8.1a2.03 2.03 0 01-2.037-2.02v-4.054H75.6v4.055a2.029 2.029 0 01-2.037 2.018h-8.1a2.03 2.03 0 01-2.038-2.018v-11.141H75.6v3.037zM35.017 57.7h29.93v1.978a4.096 4.096 0 004.096 4.096h72.973a4.096 4.096 0 004.096-4.096V57.7h26.886v114.388H35.018V57.7zm34.495 169.05c-16.257 0-29.889-11.22-33.536-26.318h67.073c-3.645 15.1-17.274 26.319-33.537 26.319zm35.455-26.318c3.648 15.099 17.279 26.319 33.536 26.319 16.262 0 29.891-11.22 33.537-26.32h-67.073zM69.512 0C52.18 0 37.836 12.748 35.388 29.356H64.44v-4.052a2.027 2.027 0 012.027-2.022h35.698C97.53 9.74 84.661 0 69.512 0zm68.99 0c17.332 0 31.678 12.75 34.128 29.356h-27.025v-4.052c0-.536-.213-1.05-.593-1.43a2.027 2.027 0 00-1.433-.592H105.85C110.487 9.74 123.352 0 138.503 0zM32.467 175.14h144.068c.56 0 1.014.452 1.014 1.011v20.246c0 .56-.454 1.012-1.014 1.012H32.466c-.56 0-1.015-.453-1.015-1.012v-20.246c0-.559.454-1.012 1.015-1.012zM1.132 223.817c-2.547-12.957 0-26.407 0-26.407H23.27s2.428 13.803 0 26.407C21.026 235.47 13.99 246 12.23 246c-1.7 0-8.895-10.971-11.098-22.182zm11.032-2.262c.875 0 4.372-5.233 5.487-11.024 1.207-6.263 0-13.122 0-13.122H6.65s-1.266 6.684 0 13.122c1.096 5.572 4.67 11.024 5.514 11.024zm173.619 2.262c-2.547-12.957 0-26.407 0-26.407h22.138s2.428 13.803 0 26.407C205.676 235.47 198.639 246 196.879 246c-1.698 0-8.893-10.971-11.096-22.182zm11.032-2.262c-.844 0-4.42-5.452-5.514-11.024-1.266-6.438 0-13.122 0-13.122h11s1.208 6.86 0 13.122c-1.115 5.791-4.611 11.024-5.486 11.024zM.992 194.38l7.71-153.877c.224-4.46 4.042-8.088 8.527-8.088h47.718l.004 22.27H33.489c-1.124 0-2.09.908-2.156 2.028l-7.998 137.667H.992zm145.12-161.965h45.635c4.48 0 8.303 3.62 8.527 8.088l7.71 153.877h-22.32l-7.998-137.667a2.184 2.184 0 00-2.156-2.028h-29.398v-22.27zm-78.137-3.544a2.025 2.025 0 012.029-2.027h71.022c1.12 0 2.027.911 2.027 2.027v29.352a2.029 2.029 0 01-2.027 2.026H70.004a2.03 2.03 0 01-2.029-2.026V28.872z" id="b"/>
  </defs>
  <g fill="none" fill-rule="evenodd">
    <use fill="#000" filter="url(#a)" xlink:href="#b"/>
    <use fill="#001E5D" xlink:href="#b"/>
  </g>
</svg>
