<svg width="102" height="120" xmlns="http://www.w3.org/2000/svg">
  <path d="M36.896 113.814h27.728v-1.484h5.942v5.446a.99.99 0 01-.995.987H65.62a.991.991 0 01-.995-.987v-1.982H36.896v1.982a.99.99 0 01-.995.987H31.95a.991.991 0 01-.995-.987v-5.446h5.942v1.484zM17.09 28.206h14.607v.969a2 2 0 002 2h35.61a2 2 0 002.001-2v-.969H84.43v55.918H17.09V28.206zm16.835 82.64c-7.934 0-14.587-5.486-16.367-12.867h32.734c-1.78 7.382-8.43 12.866-16.367 12.866zm17.303-12.867c1.78 7.381 8.433 12.866 16.367 12.866 7.936 0 14.588-5.484 16.367-12.866H51.228zM33.925 0c-8.46 0-15.46 6.232-16.655 14.35h14.18v-1.98a.99.99 0 01.989-.989H49.86C47.598 4.761 41.318 0 33.925 0zm33.67 0c8.458 0 15.46 6.233 16.655 14.35H71.06v-1.98a.987.987 0 00-.988-.989H51.659C53.922 4.761 60.201 0 67.595 0zm-51.75 85.36h70.31c.274 0 .495.222.495.496v9.897a.495.495 0 01-.495.494h-70.31a.495.495 0 01-.496-.494v-9.897c0-.274.222-.495.495-.495zM.551 109.157c-1.242-6.334 0-12.909 0-12.909h10.804s1.186 6.748 0 12.91C10.262 114.852 6.827 120 5.968 120c-.83 0-4.34-5.363-5.416-10.844zm5.385-1.105c.426 0 2.133-2.558 2.677-5.389.59-3.062 0-6.415 0-6.415H3.245s-.617 3.268 0 6.415c.535 2.724 2.28 5.389 2.692 5.389zm84.732 1.105c-1.243-6.334 0-12.909 0-12.909h10.804s1.186 6.748 0 12.91c-1.095 5.696-4.53 10.843-5.389 10.843-.828 0-4.34-5.363-5.415-10.844zm5.384-1.105c-.412 0-2.157-2.665-2.69-5.389-.619-3.147 0-6.415 0-6.415h5.368s.59 3.353 0 6.415c-.545 2.831-2.25 5.389-2.678 5.389zM.484 94.763L4.247 19.54c.11-2.18 1.972-3.953 4.161-3.953h23.289l.002 10.886H16.344c-.549 0-1.02.444-1.052.992l-3.904 67.297H.484zm70.824-79.175H93.58c2.187 0 4.052 1.77 4.161 3.953l3.763 75.222H90.611l-3.903-67.297a1.067 1.067 0 00-1.052-.992H71.308V15.588zm-38.133-1.731a.99.99 0 01.99-.991h34.661c.547 0 .99.445.99.99v14.35c0 .546-.443.989-.99.99H34.164a.991.991 0 01-.99-.99v-14.35z" fill="#FFF" fill-rule="evenodd"/>
</svg>