<svg width="64" height="64" viewBox="0 0 64 64" xmlns="http://www.w3.org/2000/svg">
  <path d="M31.882 3l19.475 1.429L64 22.567v.819L32.422 61.582h-.955L0 23.386v-.82L12.476 4.43 31.882 3zm18.573 20.656h-36.91l.366.68L32 58.195l18.207-33.86.248-.68zm-39.314.339H3.048l23.026 27.767-14.933-27.767zm49.811 0H52.86L37.926 51.762l23.026-27.767zm-49.1-14.9l-.264.074-8.46 12.199-.08.256h7.893l.91-12.529zm40.296 0l.91 12.53h7.894l-.08-.257-8.46-12.2-.264-.073zM31.832 5.37L14.334 21.42l-.112.204H49.44l-.074-.204L31.832 5.37zm-2.71 0l-15.123.949-.16.995-.971 12.956.26-.076L29.008 5.61l.114-.239zm5.756 0l.114.24 15.88 14.584.26.076-.97-12.956L50 6.32 34.878 5.37z" fill="#FDAE37" fill-rule="evenodd"/>
</svg>
