<?xml version="1.0" encoding="UTF-8"?>
<svg width="256px" height="256px" viewBox="0 0 256 256" version="1.1" xmlns="http://www.w3.org/2000/svg" xmlns:xlink="http://www.w3.org/1999/xlink">
    
    <title>a11y</title>
    <desc>Created with sketchtool.</desc>
    <defs></defs>
    <g id="Page-1" stroke="none" stroke-width="1" fill="none" fill-rule="evenodd">
        <g id="a11y" fill="#000000" fill-rule="nonzero">
            <path d="M126.193932,1.13686838e-13 C137.894765,1.13686838e-13 147.357733,9.46296826 147.357733,21.0678922 C147.357733,32.7687245 137.894765,42.2316928 126.193932,42.2316928 C114.589008,42.2316928 105.12604,32.7687245 105.12604,21.0678922 C105.094071,9.46296826 114.557039,1.13686838e-13 126.193932,1.13686838e-13 L126.193932,1.13686838e-13 Z M217.658636,68.1909165 L154.870562,76.1193494 L154.902532,138.971362 L185.337484,240.538423 C186.935958,246.96429 183.09962,253.358187 176.737692,254.956662 C170.407733,256.555136 163.917927,253.038492 162.319453,246.644595 L131.149203,154.188837 L121.558357,154.188837 L92.8817265,248.562764 C90.484015,254.732875 83.6105752,257.54619 77.4724336,255.148479 C71.3662615,252.782736 67.657801,245.845358 70.0555126,239.675247 L96.3983701,139.994385 L96.3983701,76.1193494 L38.533598,68.2548555 C32.5872734,67.7753132 28.559118,62.5642867 29.0386603,56.6179621 C29.4862331,50.639668 34.8890765,46.1959092 40.8034316,46.6754515 L111.104334,52.7176846 L141.92292,52.7176846 L216.76349,46.5475736 C222.709815,46.3237872 227.760994,50.9273933 227.952811,56.937657 C228.208566,62.8520121 223.60496,67.9351606 217.658636,68.1909165 Z"></path>
        </g>
    </g>
</svg>