<?xml version="1.0" encoding="UTF-8"?>
<svg width="256px" height="256px" viewBox="0 0 256 256" version="1.1" xmlns="http://www.w3.org/2000/svg" xmlns:xlink="http://www.w3.org/1999/xlink">
    
    <title>a11y</title>
    <desc>Created with sketchtool.</desc>
    <defs></defs>
    <g id="Page-1" stroke="none" stroke-width="1" fill="none" fill-rule="evenodd">
        <g id="a11y" fill="#000000">
            <path d="M98.5917894,154.669091 L98.5917894,79.9392021 L42.7510078,75.0537668 C35.6688896,74.4341617 30.4299423,68.1911978 31.049796,61.1062379 C31.6695134,54.0228354 37.9189108,48.783402 44.9952031,49.4024973 L105.750721,54.7179164 L151.246602,54.7179164 L212.00212,49.4024973 C219.084238,48.7828923 225.327673,54.021278 225.947527,61.1062379 C226.567244,68.1896403 221.322607,74.4346714 214.246315,75.0537668 L158.67338,79.9157686 L158.67338,154.814229 L158.653578,154.814229 L182.957897,239.57346 C184.917681,246.408042 180.967031,253.536954 174.130516,255.497293 C167.295503,257.457201 160.168272,253.513732 158.206126,246.670916 L132.181673,155.912862 C132.076825,155.547215 131.988894,155.180725 131.917417,154.814229 L125.286428,154.814229 C125.214901,155.180682 125.126938,155.547169 125.022077,155.912862 L98.997624,246.670916 C97.0378393,253.505498 89.9097501,257.457632 83.0732345,255.497293 C76.2382217,253.537384 72.2837076,246.416275 74.2458533,239.57346 L98.5917894,154.669091 Z M128.632585,45.0611929 C116.18928,45.0611929 106.101988,34.9739013 106.101988,22.5305965 C106.101988,10.0872916 116.18928,0 128.632585,0 C141.07589,0 151.163181,10.0872916 151.163181,22.5305965 C151.163181,34.9739013 141.07589,45.0611929 128.632585,45.0611929 Z" id="Combined-Shape"></path>
        </g>
    </g>
</svg>