<?xml version="1.0" encoding="UTF-8"?>
<svg width="16px" height="16px" viewBox="0 0 16 16" version="1.1" xmlns="http://www.w3.org/2000/svg" xmlns:xlink="http://www.w3.org/1999/xlink">
    
    <title>Icon/account</title>
    <desc>Created with sketchtool.</desc>
    <g id="Icons" stroke="none" stroke-width="1" fill="none" fill-rule="evenodd">
        <g id="Icon/account" fill="#00205B">
            <path d="M7.90816719,1.58985 L7.93916719,1.58985 C9.61216719,1.60685 10.9601672,2.98285 10.9431672,4.65585 C10.9271672,6.32985 9.55316719,7.69385 7.87816719,7.65985 C7.06716719,7.65185 6.30716719,7.32785 5.74016719,6.74885 C5.17316719,6.16985 4.86516719,5.40485 4.87416719,4.59385 C4.88216719,3.78285 5.20516719,3.02385 5.78416719,2.45685 C6.35516719,1.89685 7.10916719,1.58985 7.90816719,1.58985 Z M7.91016719,8.37985 C7.89616719,8.37985 7.88416719,8.37985 7.87016719,8.37985 C6.86716719,8.36985 5.92916719,7.96985 5.22616719,7.25285 C4.52416719,6.53685 4.14316719,5.58885 4.15316719,4.58585 C4.16416719,3.58385 4.56316719,2.64485 5.28016719,1.94285 C5.98716719,1.24985 6.91916719,0.86985 7.90816719,0.86985 C7.92116719,0.86985 7.93316719,0.86985 7.94716719,0.86985 C10.0161672,0.89185 11.6841672,2.59285 11.6641672,4.66385 C11.6421672,6.72085 9.96216719,8.37985 7.91016719,8.37985 Z M11.1513672,14.40015 L14.2053672,14.39715 C14.0663672,12.02615 12.3383672,10.25215 10.5513672,9.46315 C9.84236719,10.18815 8.93636719,10.60715 7.96136719,10.56715 C7.01336719,10.55615 6.12736719,10.16515 5.43936719,9.46015 C3.41436719,10.32915 1.97036719,12.30115 1.80236719,14.41015 L3.16436719,14.40815 L3.59036719,13.30515 C3.66336719,13.12015 3.87036719,13.02715 4.05636719,13.09915 C4.24236719,13.17115 4.33436719,13.37915 4.26236719,13.56515 L3.93736719,14.40715 L10.3723672,14.40115 L9.73836719,12.86715 C9.66336719,12.68315 9.75036719,12.47315 9.93336719,12.39715 C10.1183672,12.32215 10.3283672,12.40815 10.4043672,12.59215 L11.1513672,14.40015 Z M10.1853672,8.79815 C10.2853672,8.68215 10.4483672,8.64115 10.5893672,8.69815 C12.7723672,9.55915 14.9623672,11.76715 14.9333672,14.76015 C14.9313672,14.95815 14.7703672,15.11715 14.5733672,15.11715 L1.42636719,15.13015 C1.33136719,15.13015 1.23836719,15.09215 1.17136719,15.02415 C1.10336719,14.95515 1.06536719,14.86315 1.06632941,14.76715 C1.09036719,12.15615 2.87636719,9.66015 5.40836719,8.69515 C5.55136719,8.64215 5.71036719,8.68215 5.80936719,8.79715 C6.38136719,9.46515 7.14836719,9.83815 7.96836719,9.84715 L8.00036719,9.84715 C8.82736719,9.84715 9.60136719,9.47515 10.1853672,8.79815 Z" id="Icon-Color"></path>
        </g>
    </g>
</svg>