<?xml version="1.0" encoding="UTF-8" standalone="no"?>
<svg width="256px" height="256px" viewBox="0 0 256 256" version="1.1" xmlns="http://www.w3.org/2000/svg" xmlns:xlink="http://www.w3.org/1999/xlink">
    <!-- Generator: sketchtool 41 (35326) - http://www.bohemiancoding.com/sketch -->
    <title>arrow-up</title>
    <desc>Created with sketchtool.</desc>
    <defs></defs>
    <g id="Page-1" stroke="none" stroke-width="1" fill="none" fill-rule="evenodd">
        <g id="arrow-up" fill="#000000">
            <path d="M232,96.8571429 L140.571429,5.42857143 C137.14284,1.80950571 132.857169,0 127.714286,0 C122.571403,0 118.285731,1.80950571 114.857143,5.42857143 L23.4285714,96.8571429 C19.8095057,100.285731 18,104.571403 18,109.714286 C18,114.857169 19.8095057,119.14284 23.4285714,122.571429 C26.85716,126.190494 31.1428314,128 36.2857143,128 C41.4285971,128 45.7142686,126.190494 49.1428571,122.571429 L109.428571,62.5714286 L109.428571,237.714286 C109.428571,242.857169 111.190459,247.190459 114.714286,250.714286 C118.238113,254.238113 122.571403,256 127.714286,256 C132.857169,256 137.190459,254.238113 140.714286,250.714286 C144.238113,247.190459 146,242.857169 146,237.714286 L146,62.5714286 L206.285714,122.571429 C208.000009,124.4762 209.999989,125.857139 212.285714,126.714286 C214.57144,127.571433 216.857131,128 219.142857,128 C221.428583,128 223.714274,127.571433 226,126.714286 C228.285726,125.857139 230.285706,124.4762 232,122.571429 C235.619066,119.14284 237.428571,114.857169 237.428571,109.714286 C237.428571,104.571403 235.619066,100.285731 232,96.8571429 Z"></path>
        </g>
    </g>
</svg>