<?xml version="1.0" encoding="UTF-8" standalone="no"?>
<svg width="256px" height="256px" viewBox="0 0 256 256" version="1.1" xmlns="http://www.w3.org/2000/svg" xmlns:xlink="http://www.w3.org/1999/xlink">
    <!-- Generator: sketchtool 41 (35326) - http://www.bohemiancoding.com/sketch -->
    <title>arrow-down</title>
    <desc>Created with sketchtool.</desc>
    <defs></defs>
    <g id="Page-1" stroke="none" stroke-width="1" fill="none" fill-rule="evenodd">
        <g id="arrow-down" fill="#000000">
            <path d="M50.0714286,151.357143 L118.642857,219.928571 C121.214299,222.642871 124.428552,224 128.285714,224 C132.142876,224 135.35713,222.642871 137.928571,219.928571 L206.5,151.357143 C209.214299,148.785701 210.571429,145.571448 210.571429,141.714286 C210.571429,137.857124 209.214299,134.64287 206.5,132.071429 C203.928559,129.357129 200.714305,128 196.857143,128 C192.999981,128 189.785727,129.357129 187.214286,132.071429 L142,177.071429 L142,45.7142857 C142,41.8571236 140.678585,38.6071561 138.035714,35.9642857 C135.392844,33.3214154 132.142876,32 128.285714,32 C124.428552,32 121.178585,33.3214154 118.535714,35.9642857 C115.892844,38.6071561 114.571429,41.8571236 114.571429,45.7142857 L114.571429,177.071429 L69.3571429,132.071429 C68.0714221,130.64285 66.5714371,129.607146 64.8571429,128.964286 C63.1428486,128.321425 61.42858,128 59.7142857,128 C57.9999914,128 56.2857229,128.321425 54.5714286,128.964286 C52.8571343,129.607146 51.3571493,130.64285 50.0714286,132.071429 C47.3571293,134.64287 46,137.857124 46,141.714286 C46,145.571448 47.3571293,148.785701 50.0714286,151.357143 Z"></path>
        </g>
    </g>
</svg>