<?xml version="1.0" encoding="UTF-8"?>
<svg width="256px" height="256px" viewBox="0 0 256 256" version="1.1" xmlns="http://www.w3.org/2000/svg" xmlns:xlink="http://www.w3.org/1999/xlink">
    <!-- Generator: sketchtool 42 (36781) - http://www.bohemiancoding.com/sketch -->
    <title>arrow-right</title>
    <desc>Created with sketchtool.</desc>
    <defs></defs>
    <g id="Page-1" stroke="none" stroke-width="1" fill="none" fill-rule="evenodd">
        <g id="arrow-right" fill="#000000" fill-rule="nonzero">
            <path d="M159.142857,232 L250.571429,140.571429 C254.190494,137.14284 256,132.857169 256,127.714286 C256,122.571403 254.190494,118.285731 250.571429,114.857143 L159.142857,23.4285714 C155.714269,19.8095057 151.428597,18 146.285714,18 C141.142831,18 136.85716,19.8095057 133.428571,23.4285714 C129.809506,26.85716 128,31.1428314 128,36.2857143 C128,41.4285971 129.809506,45.7142686 133.428571,49.1428571 L193.428571,109.428571 L18.2857143,109.428571 C13.1428314,109.428571 8.80954143,111.190459 5.28571429,114.714286 C1.76188714,118.238113 0,122.571403 0,127.714286 C0,132.857169 1.76188714,137.190459 5.28571429,140.714286 C8.80954143,144.238113 13.1428314,146 18.2857143,146 L193.428571,146 L133.428571,206.285714 C131.5238,208.000009 130.142861,209.999989 129.285714,212.285714 C128.428567,214.57144 128,216.857131 128,219.142857 C128,221.428583 128.428567,223.714274 129.285714,226 C130.142861,228.285726 131.5238,230.285706 133.428571,232 C136.85716,235.619066 141.142831,237.428571 146.285714,237.428571 C151.428597,237.428571 155.714269,235.619066 159.142857,232 Z"></path>
        </g>
    </g>
</svg>