<?xml version="1.0" encoding="UTF-8"?>
<svg width="256px" height="256px" viewBox="0 0 256 256" version="1.1" xmlns="http://www.w3.org/2000/svg" xmlns:xlink="http://www.w3.org/1999/xlink">
    <!-- Generator: sketchtool 42 (36781) - http://www.bohemiancoding.com/sketch -->
    <title>arrow-left</title>
    <desc>Created with sketchtool.</desc>
    <defs></defs>
    <g id="Page-1" stroke="none" stroke-width="1" fill="none" fill-rule="evenodd">
        <g id="arrow-left" fill="#000000" fill-rule="nonzero">
            <path d="M96.8571429,23.4285714 L5.42857143,114.857143 C1.80950571,118.285731 0,122.571403 0,127.714286 C0,132.857169 1.80950571,137.14284 5.42857143,140.571429 L96.8571429,232 C100.285731,235.619066 104.571403,237.428571 109.714286,237.428571 C114.857169,237.428571 119.14284,235.619066 122.571429,232 C126.190494,228.571411 128,224.28574 128,219.142857 C128,213.999974 126.190494,209.714303 122.571429,206.285714 L62.5714286,146 L237.714286,146 C242.857169,146 247.190459,144.238113 250.714286,140.714286 C254.238113,137.190459 256,132.857169 256,127.714286 C256,122.571403 254.238113,118.238113 250.714286,114.714286 C247.190459,111.190459 242.857169,109.428571 237.714286,109.428571 L62.5714286,109.428571 L122.571429,49.1428571 C124.4762,47.4285629 125.857139,45.4285829 126.714286,43.1428571 C127.571433,40.8571314 128,38.57144 128,36.2857143 C128,33.9999886 127.571433,31.7142971 126.714286,29.4285714 C125.857139,27.1428457 124.4762,25.1428657 122.571429,23.4285714 C119.14284,19.8095057 114.857169,18 109.714286,18 C104.571403,18 100.285731,19.8095057 96.8571429,23.4285714 Z"></path>
        </g>
    </g>
</svg>