<?xml version="1.0" encoding="UTF-8" standalone="no"?>
<svg width="256px" height="256px" viewBox="0 0 256 256" version="1.1" xmlns="http://www.w3.org/2000/svg" xmlns:xlink="http://www.w3.org/1999/xlink">
    <!-- Generator: sketchtool 41 (35326) - http://www.bohemiancoding.com/sketch -->
    <title>arrow-right</title>
    <desc>Created with sketchtool.</desc>
    <defs></defs>
    <g id="Page-1" stroke="none" stroke-width="1" fill="none" fill-rule="evenodd">
        <g id="arrow-right" fill="#000000">
            <path d="M151.357143,206.5 L219.928571,137.928571 C222.642871,135.35713 224,132.142876 224,128.285714 C224,124.428552 222.642871,121.214299 219.928571,118.642857 L151.357143,50.0714286 C148.785701,47.3571293 145.571448,46 141.714286,46 C137.857124,46 134.64287,47.3571293 132.071429,50.0714286 C129.357129,52.64287 128,55.8571236 128,59.7142857 C128,63.5714479 129.357129,66.7857014 132.071429,69.3571429 L177.071429,114.571429 L45.7142857,114.571429 C41.8571236,114.571429 38.6071561,115.892844 35.9642857,118.535714 C33.3214154,121.178585 32,124.428552 32,128.285714 C32,132.142876 33.3214154,135.392844 35.9642857,138.035714 C38.6071561,140.678585 41.8571236,142 45.7142857,142 L177.071429,142 L132.071429,187.214286 C130.64285,188.500006 129.607146,189.999991 128.964286,191.714286 C128.321425,193.42858 128,195.142849 128,196.857143 C128,198.571437 128.321425,200.285706 128.964286,202 C129.607146,203.714294 130.64285,205.214279 132.071429,206.5 C134.64287,209.214299 137.857124,210.571429 141.714286,210.571429 C145.571448,210.571429 148.785701,209.214299 151.357143,206.5 Z"></path>
        </g>
    </g>
</svg>