<?xml version="1.0" encoding="UTF-8" standalone="no"?>
<svg width="256px" height="256px" viewBox="0 0 256 256" version="1.1" xmlns="http://www.w3.org/2000/svg" xmlns:xlink="http://www.w3.org/1999/xlink">
    <!-- Generator: sketchtool 41 (35326) - http://www.bohemiancoding.com/sketch -->
    <title>arrow-down</title>
    <desc>Created with sketchtool.</desc>
    <defs></defs>
    <g id="Page-1" stroke="none" stroke-width="1" fill="none" fill-rule="evenodd">
        <g id="arrow-down" fill="#000000">
            <path d="M23.4285714,159.142857 L114.857143,250.571429 C118.285731,254.190494 122.571403,256 127.714286,256 C132.857169,256 137.14284,254.190494 140.571429,250.571429 L232,159.142857 C235.619066,155.714269 237.428571,151.428597 237.428571,146.285714 C237.428571,141.142831 235.619066,136.85716 232,133.428571 C228.571411,129.809506 224.28574,128 219.142857,128 C213.999974,128 209.714303,129.809506 206.285714,133.428571 L146,193.428571 L146,18.2857143 C146,13.1428314 144.238113,8.80954143 140.714286,5.28571429 C137.190459,1.76188714 132.857169,0 127.714286,0 C122.571403,0 118.238113,1.76188714 114.714286,5.28571429 C111.190459,8.80954143 109.428571,13.1428314 109.428571,18.2857143 L109.428571,193.428571 L49.1428571,133.428571 C47.4285629,131.5238 45.4285829,130.142861 43.1428571,129.285714 C40.8571314,128.428567 38.57144,128 36.2857143,128 C33.9999886,128 31.7142971,128.428567 29.4285714,129.285714 C27.1428457,130.142861 25.1428657,131.5238 23.4285714,133.428571 C19.8095057,136.85716 18,141.142831 18,146.285714 C18,151.428597 19.8095057,155.714269 23.4285714,159.142857 Z"></path>
        </g>
    </g>
</svg>