<?xml version="1.0" encoding="UTF-8" standalone="no"?>
<svg width="256px" height="256px" viewBox="0 0 256 256" version="1.1" xmlns="http://www.w3.org/2000/svg" xmlns:xlink="http://www.w3.org/1999/xlink">
    <!-- Generator: sketchtool 41 (35326) - http://www.bohemiancoding.com/sketch -->
    <title>arrow-up</title>
    <desc>Created with sketchtool.</desc>
    <defs></defs>
    <g id="Page-1" stroke="none" stroke-width="1" fill="none" fill-rule="evenodd">
        <g id="arrow-up" fill="#000000">
            <path d="M206.5,104.642857 L137.928571,36.0714286 C135.35713,33.3571293 132.142876,32 128.285714,32 C124.428552,32 121.214299,33.3571293 118.642857,36.0714286 L50.0714286,104.642857 C47.3571293,107.214299 46,110.428552 46,114.285714 C46,118.142876 47.3571293,121.35713 50.0714286,123.928571 C52.64287,126.642871 55.8571236,128 59.7142857,128 C63.5714479,128 66.7857014,126.642871 69.3571429,123.928571 L114.571429,78.9285714 L114.571429,210.285714 C114.571429,214.142876 115.892844,217.392844 118.535714,220.035714 C121.178585,222.678585 124.428552,224 128.285714,224 C132.142876,224 135.392844,222.678585 138.035714,220.035714 C140.678585,217.392844 142,214.142876 142,210.285714 L142,78.9285714 L187.214286,123.928571 C188.500006,125.35715 189.999991,126.392854 191.714286,127.035714 C193.42858,127.678575 195.142849,128 196.857143,128 C198.571437,128 200.285706,127.678575 202,127.035714 C203.714294,126.392854 205.214279,125.35715 206.5,123.928571 C209.214299,121.35713 210.571429,118.142876 210.571429,114.285714 C210.571429,110.428552 209.214299,107.214299 206.5,104.642857 Z"></path>
        </g>
    </g>
</svg>