<?xml version="1.0" encoding="UTF-8" standalone="no"?>
<svg width="256px" height="256px" viewBox="0 0 256 256" version="1.1" xmlns="http://www.w3.org/2000/svg" xmlns:xlink="http://www.w3.org/1999/xlink">
    <!-- Generator: sketchtool 41 (35326) - http://www.bohemiancoding.com/sketch -->
    <title>arrow-left</title>
    <desc>Created with sketchtool.</desc>
    <defs></defs>
    <g id="Page-1" stroke="none" stroke-width="1" fill="none" fill-rule="evenodd">
        <g id="arrow-left" fill="#000000">
            <path d="M104.642857,50.0714286 L36.0714286,118.642857 C33.3571293,121.214299 32,124.428552 32,128.285714 C32,132.142876 33.3571293,135.35713 36.0714286,137.928571 L104.642857,206.5 C107.214299,209.214299 110.428552,210.571429 114.285714,210.571429 C118.142876,210.571429 121.35713,209.214299 123.928571,206.5 C126.642871,203.928559 128,200.714305 128,196.857143 C128,192.999981 126.642871,189.785727 123.928571,187.214286 L78.9285714,142 L210.285714,142 C214.142876,142 217.392844,140.678585 220.035714,138.035714 C222.678585,135.392844 224,132.142876 224,128.285714 C224,124.428552 222.678585,121.178585 220.035714,118.535714 C217.392844,115.892844 214.142876,114.571429 210.285714,114.571429 L78.9285714,114.571429 L123.928571,69.3571429 C125.35715,68.0714221 126.392854,66.5714371 127.035714,64.8571429 C127.678575,63.1428486 128,61.42858 128,59.7142857 C128,57.9999914 127.678575,56.2857229 127.035714,54.5714286 C126.392854,52.8571343 125.35715,51.3571493 123.928571,50.0714286 C121.35713,47.3571293 118.142876,46 114.285714,46 C110.428552,46 107.214299,47.3571293 104.642857,50.0714286 Z"></path>
        </g>
    </g>
</svg>