<?xml version="1.0" encoding="UTF-8"?>
<svg width="16px" height="16px" viewBox="0 0 16 16" version="1.1" xmlns="http://www.w3.org/2000/svg" xmlns:xlink="http://www.w3.org/1999/xlink">
    
    <title>Icon/avatar</title>
    <desc>Created with sketchtool.</desc>
    <g id="Icons" stroke="none" stroke-width="1" fill="none" fill-rule="evenodd">
        <g id="Icon/avatar" fill="#00205B">
            <path d="M4.0874047,5.19907311 C4.0984047,4.15407311 4.5154047,3.17607311 5.2614047,2.44507311 C5.9984047,1.72307311 6.9684047,1.32707311 7.9974047,1.32707311 L8.0384047,1.32707311 C10.1954047,1.34907311 11.9324047,3.12207311 11.9104047,5.27907311 C11.8994047,6.32407311 11.4834047,7.30207311 10.7364047,8.03307311 C9.9904047,8.76407311 9.0224047,9.14807311 7.9594047,9.15107311 C5.8024047,9.12807311 4.0664047,7.35507311 4.0874047,5.19907311 M9.4094047,9.63207311 C10.0874047,9.41507311 10.7174047,9.06007311 11.2404047,8.54807311 C12.1244047,7.68207311 12.6184047,6.52407311 12.6314047,5.28707311 L12.6314047,5.28607311 C12.6564047,2.73307311 10.5994047,0.634073114 8.0464047,0.608073114 C6.7824047,0.560073114 5.6414047,1.06407311 4.7574047,1.93007311 C3.8734047,2.79607311 3.3794047,3.95407311 3.3664047,5.19207311 C3.3464047,7.28407311 4.7334047,9.05107311 6.6354047,9.64207311 C3.8854047,10.0030731 1.0954047,12.1450731 1.06638615,15.0320731 C1.0644047,15.2300731 1.2244047,15.3930731 1.4224047,15.3950731 L1.4264047,15.3950731 C1.6234047,15.3950731 1.7844047,15.2360731 1.7864047,15.0380731 C1.8134047,12.3910731 4.5794047,10.4580731 7.1304047,10.3150731 L8.7974047,10.3000731 C8.9184047,10.2980731 9.0434047,10.3030731 9.1644047,10.3190731 C11.6114047,10.6540731 14.2374047,12.5510731 14.2124047,15.0320731 C14.2104047,15.2300731 14.3704047,15.3930731 14.5684047,15.3950731 L14.5724047,15.3950731 C14.7704047,15.3950731 14.9314047,15.2360731 14.9334047,15.0380731 C14.9614047,12.1780731 12.1734047,10.0700731 9.4094047,9.63207311" id="Icon-Color"></path>
        </g>
    </g>
</svg>