<?xml version="1.0" encoding="UTF-8" standalone="no"?>
<svg width="256px" height="256px" viewBox="0 0 256 256" version="1.1" xmlns="http://www.w3.org/2000/svg" xmlns:xlink="http://www.w3.org/1999/xlink">
    <!-- Generator: sketchtool 41 (35326) - http://www.bohemiancoding.com/sketch -->
    <title>avatar</title>
    <desc>Created with sketchtool.</desc>
    <defs></defs>
    <g id="Page-1" stroke="none" stroke-width="1" fill="none" fill-rule="evenodd">
        <g id="avatar" fill="#000000">
            <path d="M198.601942,176.466019 C184.77663,173.359208 172.970923,169.63109 163.184466,165.281553 C153.398009,160.932017 151.611619,152.932097 157.825243,141.281553 C167.301018,123.417386 172.93203,107.689388 174.718447,94.0970874 C176.504863,80.5047864 175.611668,69.0874249 172.038835,59.8446602 C168.466002,50.6018955 162.718486,43.6505087 154.796117,38.9902913 C146.873747,34.3300738 137.941797,32 128,32 C117.902862,32 108.854409,34.4077429 100.854369,39.223301 C92.8543289,44.038859 87.1068136,51.1067495 83.6116505,60.4271845 C80.1164874,69.7476194 79.3009616,81.164981 81.1650485,94.6796117 C83.0291355,108.194242 88.6989817,123.728068 98.1747573,141.281553 C104.543721,152.932097 102.718497,160.932017 92.6990291,165.281553 C82.6795616,169.63109 70.9126889,173.359208 57.3980583,176.466019 C43.728087,179.572831 36.0776781,184.932001 34.4466019,192.543689 C32.8155258,200.155378 32,210.485372 32,223.533981 L224,223.533981 C224,210.485372 223.184474,200.155378 221.553398,192.543689 C219.922322,184.932001 212.271913,179.572831 198.601942,176.466019 Z"></path>
        </g>
    </g>
</svg>