<?xml version="1.0" encoding="UTF-8"?>
<svg width="256px" height="256px" viewBox="0 0 256 256" version="1.1" xmlns="http://www.w3.org/2000/svg" xmlns:xlink="http://www.w3.org/1999/xlink">
    
    <title>avatar</title>
    <desc>Created with sketchtool.</desc>
    <defs></defs>
    <g id="Page-1" stroke="none" stroke-width="1" fill="none" fill-rule="evenodd">
        <g id="avatar" fill="#000000" fill-rule="nonzero">
            <path d="M222.135922,192.621359 C203.702173,188.478944 187.96123,183.50812 174.912621,177.708738 C161.864012,171.909356 159.482159,161.242796 167.76699,145.708738 C180.401358,121.889849 187.909373,100.919184 190.291262,82.7961165 C192.673151,64.6730485 191.482224,49.4498998 186.718447,37.1262136 C181.954669,24.8025274 174.291315,15.5340117 163.728155,9.32038835 C153.164996,3.10676505 141.25573,0 128,0 C114.53715,0 102.472545,3.21032388 91.8058252,9.63106796 C81.1391052,16.051812 73.4757515,25.475666 68.815534,37.9029126 C64.1553165,50.3301592 63.0679487,65.553308 65.5533981,83.5728155 C68.0388474,101.592323 75.5986423,122.30409 88.2330097,145.708738 C96.7249616,161.242796 94.2913289,171.909356 80.9320388,177.708738 C67.5727487,183.50812 51.8835852,188.478944 33.8640777,192.621359 C15.6374493,196.763775 5.43690408,203.909334 3.26213592,214.058252 C1.08736777,224.20717 0,237.980496 0,255.378641 L256,255.378641 C256,237.980496 254.912632,224.20717 252.737864,214.058252 C250.563096,203.909334 240.362551,196.763775 222.135922,192.621359 Z"></path>
        </g>
    </g>
</svg>