<?xml version="1.0" encoding="UTF-8" standalone="no"?>
<svg width="256px" height="256px" viewBox="0 0 256 256" version="1.1" xmlns="http://www.w3.org/2000/svg" xmlns:xlink="http://www.w3.org/1999/xlink">
    <!-- Generator: sketchtool 41 (35326) - http://www.bohemiancoding.com/sketch -->
    <title>basket</title>
    <desc>Created with sketchtool.</desc>
    <defs></defs>
    <g id="Page-1" stroke="none" stroke-width="1" fill="none" fill-rule="evenodd">
        <g id="basket" fill="#000000">
            <path d="M90.7184466,97.2038835 L122.174757,65.9805825 C123.883504,64.2718361 124.737864,62.2912734 124.737864,60.038835 C124.737864,57.7863965 123.883504,55.8835029 122.174757,54.3300971 C120.621351,52.7766913 118.718458,52 116.466019,52 C114.213581,52 112.310687,52.7766913 110.757282,54.3300971 L67.8834951,97.2038835 L90.7184466,97.2038835 Z M165.048544,97.2038835 L188.116505,97.2038835 L145.242718,54.3300971 C143.689313,52.7766913 141.786419,52 139.533981,52 C137.281542,52 135.378649,52.7766913 133.825243,54.3300971 C132.116496,55.8835029 131.262136,57.7863965 131.262136,60.038835 C131.262136,62.2912734 132.116496,64.2718361 133.825243,65.9805825 L165.048544,97.2038835 Z M32,108.854369 L32,127.495146 L37.1262136,127.495146 C39.3009817,127.495146 41.2815445,128.03883 43.0679612,129.126214 C44.8543779,130.213598 46.2135876,131.76698 47.1456311,133.786408 L82.0970874,204.854369 L174.135922,204.854369 L208.854369,133.786408 C209.786412,131.76698 211.145622,130.213598 212.932039,129.126214 C214.718456,128.03883 216.699018,127.495146 218.873786,127.495146 L224,127.495146 L224,108.854369 L32,108.854369 Z"></path>
        </g>
    </g>
</svg>