<?xml version="1.0" encoding="UTF-8"?>
<svg width="16px" height="16px" viewBox="0 0 16 16" version="1.1" xmlns="http://www.w3.org/2000/svg" xmlns:xlink="http://www.w3.org/1999/xlink">
    
    <title>Icon/basket</title>
    <desc>Created with sketchtool.</desc>
    <g id="Icons" stroke="none" stroke-width="1" fill="none" fill-rule="evenodd">
        <g id="Icon/basket" fill="#00205B">
            <path d="M12.074,14.1399678 L3.969,14.1399678 L1.516,6.57696784 L14.526,6.57696784 L12.074,14.1399678 Z M15.637,5.85696784 L13.379,5.85696784 L9.29,1.26096784 C9.159,1.11096784 8.93,1.09996784 8.782,1.23096784 C8.634,1.36296784 8.62,1.59096784 8.753,1.73896784 L12.416,5.85696784 L3.615,5.85696784 L7.213,1.73696784 C7.344,1.58696784 7.328,1.35896784 7.178,1.22896784 C7.029,1.09796784 6.801,1.11396784 6.67,1.26296784 L2.659,5.85696784 L0.363,5.85696784 C0.164,5.85696784 0.003,6.01796784 0.003,6.21696784 C0.003,6.41496784 0.164,6.57696784 0.363,6.57696784 L0.76,6.57696784 L3.364,14.6109678 C3.413,14.7589678 3.551,14.8599678 3.707,14.8599678 L12.336,14.8599678 C12.492,14.8599678 12.63,14.7589678 12.678,14.6109678 L15.283,6.57696784 L15.637,6.57696784 C15.836,6.57696784 15.997,6.41496784 15.997,6.21696784 C15.997,6.01796784 15.836,5.85696784 15.637,5.85696784 L15.637,5.85696784 Z M9.7654,12.9118678 C9.8064,12.9278678 9.8504,12.9348678 9.8924,12.9348678 C10.0374,12.9348678 10.1744,12.8468678 10.2294,12.7028678 L11.9914,8.04786784 C12.0614,7.86186784 11.9674,7.65386784 11.7814,7.58286784 C11.5984,7.51386784 11.3864,7.60686784 11.3174,7.79286784 L9.5554,12.4478678 C9.4854,12.6338678 9.5784,12.8408678 9.7654,12.9118678" id="Icon-Color"></path>
        </g>
    </g>
</svg>