<?xml version="1.0" encoding="UTF-8"?>
<svg width="256px" height="256px" viewBox="0 0 256 256" version="1.1" xmlns="http://www.w3.org/2000/svg" xmlns:xlink="http://www.w3.org/1999/xlink">
    
    <title>basket</title>
    <desc>Created with sketchtool.</desc>
    <defs></defs>
    <g id="Page-1" stroke="none" stroke-width="1" fill="none" fill-rule="evenodd">
        <g id="basket" fill="#000000" fill-rule="nonzero">
            <path d="M84.5048544,91.7378641 L121.203883,55.3106796 C123.197421,53.3171421 124.194175,51.0064856 124.194175,48.3786408 C124.194175,45.7507959 123.197421,43.5307534 121.203883,41.7184466 C119.391577,39.9061398 117.171534,39 114.543689,39 C111.915844,39 109.695802,39.9061398 107.883495,41.7184466 L57.8640777,91.7378641 L84.5048544,91.7378641 Z M171.223301,91.7378641 L198.135922,91.7378641 L148.116505,41.7184466 C146.304198,39.9061398 144.084156,39 141.456311,39 C138.828466,39 136.608423,39.9061398 134.796117,41.7184466 C132.802579,43.5307534 131.805825,45.7507959 131.805825,48.3786408 C131.805825,51.0064856 132.802579,53.3171421 134.796117,55.3106796 L171.223301,91.7378641 Z M16,105.330097 L16,127.07767 L21.9805825,127.07767 C24.517812,127.07767 26.8284685,127.711968 28.9126214,128.980583 C30.9967742,130.249197 32.5825188,132.061477 33.6699029,134.417476 L74.4466019,217.330097 L181.825243,217.330097 L222.330097,134.417476 C223.417481,132.061477 225.003226,130.249197 227.087379,128.980583 C229.171531,127.711968 231.482188,127.07767 234.019417,127.07767 L240,127.07767 L240,105.330097 L16,105.330097 Z"></path>
        </g>
    </g>
</svg>