<?xml version="1.0" encoding="UTF-8"?>
<svg width="256px" height="256px" viewBox="0 0 256 256" version="1.1" xmlns="http://www.w3.org/2000/svg" xmlns:xlink="http://www.w3.org/1999/xlink">
    
    <title>basket</title>
    <desc>Created with sketchtool.</desc>
    <defs></defs>
    <g id="Page-1" stroke="none" stroke-width="1" fill="none" fill-rule="evenodd">
        <g id="basket" fill="#000000">
            <path d="M163.101754,72.7741935 C163.101754,53.3907804 147.354745,37.6774194 127.929825,37.6774194 C108.504904,37.6774194 92.7578947,53.3907804 92.7578947,72.7741935 L71.0340557,72.7741935 C71.0340557,41.4186723 96.5071591,16 127.929825,16 C159.35249,16 184.825593,41.4186723 184.825593,72.7741935 L163.101754,72.7741935 Z M43.9464988,81.0322581 L211.91315,81.0322581 C214.092741,81.0322581 215.859649,82.7991658 215.859649,84.9787569 L215.859649,236.053501 C215.859649,238.233092 214.092741,240 211.91315,240 L43.9464988,240 C41.7669077,240 40,238.233092 40,236.053501 L40,84.9787569 C40,82.7991658 41.7669077,81.0322581 43.9464988,81.0322581 Z"></path>
        </g>
    </g>
</svg>