<?xml version="1.0" encoding="UTF-8"?>
<svg width="256px" height="256px" viewBox="0 0 256 256" version="1.1" xmlns="http://www.w3.org/2000/svg" xmlns:xlink="http://www.w3.org/1999/xlink">
    
    <title>basket</title>
    <desc>Created with sketchtool.</desc>
    <defs></defs>
    <g id="Page-1" stroke="none" stroke-width="1" fill="none" fill-rule="evenodd">
        <g id="basket" fill="#000000" fill-rule="nonzero">
            <path d="M78.2912621,86.2718447 L120.23301,44.6407767 C122.511338,42.3624482 123.650485,39.7216979 123.650485,36.7184466 C123.650485,33.7151953 122.511338,31.1780039 120.23301,29.1067961 C118.161802,27.0355883 115.62461,26 112.621359,26 C109.618108,26 107.080917,27.0355883 105.009709,29.1067961 L47.8446602,86.2718447 L78.2912621,86.2718447 Z M177.398058,86.2718447 L208.15534,86.2718447 L150.990291,29.1067961 C148.919083,27.0355883 146.381892,26 143.378641,26 C140.37539,26 137.838198,27.0355883 135.76699,29.1067961 C133.488662,31.1780039 132.349515,33.7151953 132.349515,36.7184466 C132.349515,39.7216979 133.488662,42.3624482 135.76699,44.6407767 L177.398058,86.2718447 Z M0,101.805825 L0,126.660194 L6.83495146,126.660194 C9.73464233,126.660194 12.3753926,127.385106 14.7572816,128.834951 C17.1391705,130.284797 18.9514501,132.355974 20.1941748,135.048544 L66.7961165,229.805825 L189.514563,229.805825 L235.805825,135.048544 C237.04855,132.355974 238.86083,130.284797 241.242718,128.834951 C243.624607,127.385106 246.265358,126.660194 249.165049,126.660194 L256,126.660194 L256,101.805825 L0,101.805825 Z"></path>
        </g>
    </g>
</svg>