<?xml version="1.0" encoding="UTF-8"?>
<svg width="16px" height="16px" viewBox="0 0 16 16" version="1.1" xmlns="http://www.w3.org/2000/svg" xmlns:xlink="http://www.w3.org/1999/xlink">
    
    <title>Icon/bookmark</title>
    <desc>Created with sketchtool.</desc>
    <g id="Icons" stroke="none" stroke-width="1" fill="none" fill-rule="evenodd">
        <g id="Icon/bookmark" fill="#00205B">
            <path d="M6.9974,5.8659 C7.1144,5.8489 7.2164,5.7759 7.2684,5.6699 L8.0114,4.1779 L8.7444,5.6729 C8.7964,5.7799 8.8974,5.8529 9.0154,5.8699 L10.6634,6.1139 L9.4674,7.2749 C9.3824,7.3569 9.3434,7.4759 9.3634,7.5929 L9.6414,9.2349 L8.1674,8.4559 C8.1144,8.4279 8.0574,8.4139 7.9994,8.4139 C7.9414,8.4139 7.8854,8.4279 7.8324,8.4549 L6.3554,9.2269 L6.6414,7.5859 C6.6614,7.4689 6.6234,7.3499 6.5384,7.2669 L5.3494,6.1009 L6.9974,5.8659 Z M3.1055,0.1335 L12.9185,0.1475 C13.1165,0.1475 13.2775,0.3085 13.2775,0.5075 L13.2775,0.5075 L13.2565,15.5075 C13.2555,15.6375 13.1845,15.7585 13.0715,15.8215 C13.0165,15.8515 12.9565,15.8665 12.8955,15.8665 C12.8305,15.8665 12.7655,15.8495 12.7075,15.8135 L12.7075,15.8135 L7.9935,12.9225 L3.2695,15.8005 C3.1585,15.8665 3.0185,15.8705 2.9055,15.8065 C2.7925,15.7425 2.7225,15.6225 2.7225,15.4925 L2.7225,15.4925 L2.7445,0.4925 C2.7455,0.2935 2.9065,0.1335 3.1045,0.1335 L3.1045,0.1335 L3.1055,0.1335 Z M3.4645,0.8535 L3.4435,14.8515 L7.8075,12.1925 C7.8645,12.1575 7.9305,12.1405 7.9945,12.1405 C8.0595,12.1405 8.1255,12.1575 8.1825,12.1935 L8.1825,12.1935 L12.5365,14.8645 L12.5575,0.8665 L3.4645,0.8535 Z M8.0144,3.0049 C8.1504,3.0049 8.2754,3.0829 8.3364,3.2059 L8.3364,3.2059 L9.3084,5.1859 L11.4894,5.5079 C11.6254,5.5279 11.7374,5.6229 11.7794,5.7539 C11.8214,5.8839 11.7854,6.0269 11.6874,6.1219 L11.6874,6.1219 L10.1044,7.6589 L10.4724,9.8339 C10.4954,9.9689 10.4394,10.1049 10.3284,10.1849 C10.2664,10.2309 10.1914,10.2539 10.1174,10.2539 C10.0604,10.2539 10.0024,10.2399 9.9494,10.2119 L9.9494,10.2119 L7.9984,9.1809 L6.0434,10.2019 C5.9204,10.2669 5.7734,10.2539 5.6644,10.1739 C5.5534,10.0939 5.4984,9.9569 5.5214,9.8219 L5.5214,9.8219 L5.8994,7.6489 L4.3244,6.1049 C4.2264,6.0089 4.1914,5.8659 4.2344,5.7359 C4.2764,5.6059 4.3904,5.5109 4.5254,5.4909 L4.5254,5.4909 L6.7084,5.1799 L7.6904,3.2039 C7.7514,3.0819 7.8764,3.0049 8.0134,3.0049 L8.0134,3.0049 Z" id="Icon-Color"></path>
        </g>
    </g>
</svg>