<?xml version="1.0" encoding="UTF-8"?>
<svg width="256px" height="256px" viewBox="0 0 256 256" version="1.1" xmlns="http://www.w3.org/2000/svg" xmlns:xlink="http://www.w3.org/1999/xlink">
    
    <title>calendar-add</title>
    <desc>Created with sketchtool.</desc>
    <defs></defs>
    <g id="Page-1" stroke="none" stroke-width="1" fill="none" fill-rule="evenodd">
        <g id="calendar-add" fill-rule="nonzero" fill="#000000">
            <path d="M178,38 L178,18 C178,12.48 182.47,8 188,8 C193.53,8 198,12.48 198,18 L198,38 C198,43.52 193.53,48 188,48 C182.47,48 178,43.52 178,38 Z M58,48 C63.53,48 68,43.52 68,38 L68,18 C68,12.48 63.53,8 58,8 C52.47,8 48,12.48 48,18 L48,38 C48,43.52 52.47,48 58,48 Z M137,183 C137,208.361333 157.638667,229 183,229 C208.361333,229 229,208.361333 229,183 C229,157.638667 208.361333,137 183,137 C157.638667,137 137,157.638667 137,183 Z M248,183 C248,218.9 218.9,248 183,248 C147.1,248 118,218.9 118,183 C118,147.1 147.1,118 183,118 C218.9,118 248,147.1 248,183 Z M105.63,218 L28,218 L28,68 L218,68 L218,105.63 C225.27,108.93 231.99,113.2 238,118.31 L238,28 L208,28 L208,38 C208,51.16 195.22,61.39 181.42,56.94 C173.11,54.26 168,45.83 168,37.1 L168,28 L78,28 L78,38 C78,51.16 65.22,61.39 51.42,56.94 C43.11,54.26 38,45.83 38,37.1 L38,28 L8,28 L8,238 L118.31,238 C113.2,231.99 108.93,225.27 105.63,218 Z M213,191.001366 L191,191.001366 L191,213.002186 L175,213.002186 L175,191.001366 L153,191.001366 L153,175.00082 L175,175.00082 L175,153 L191,153 L191,175.00082 L213,175.00082 L213,191.001366 Z" id="Shape"></path>
        </g>
    </g>
</svg>