<?xml version="1.0" encoding="UTF-8"?>
<svg width="16px" height="16px" viewBox="0 0 16 16" version="1.1" xmlns="http://www.w3.org/2000/svg" xmlns:xlink="http://www.w3.org/1999/xlink">
    
    <title>Icon/calendar-add</title>
    <desc>Created with sketchtool.</desc>
    <g id="Icons" stroke="none" stroke-width="1" fill="none" fill-rule="evenodd">
        <g id="Icon/calendar-add" fill="#00205B">
            <path d="M1.353,5.119 L14.634,5.119 L14.652,12.132 L12.004,12.14 C11.898,12.14 11.797,12.188 11.729,12.269 C11.661,12.351 11.632,12.458 11.651,12.563 L12.105,15.14 L1.374,15.14 L1.353,5.119 Z M3.653,1.86 L3.653,3.147 C3.653,3.346 3.814,3.507 4.013,3.507 C4.212,3.507 4.374,3.346 4.374,3.147 L4.374,1.86 L11.645,1.86 L11.645,3.147 C11.645,3.346 11.806,3.507 12.005,3.507 C12.205,3.507 12.366,3.346 12.366,3.147 L12.366,1.86 L14.626,1.86 L14.632,4.399 L1.352,4.399 L1.347,1.86 L3.653,1.86 Z M12.434,12.859 L14.224,12.853 L12.736,14.577 L12.434,12.859 Z M15.365,12.513 C15.366,12.504 15.374,12.498 15.374,12.489 L15.346,1.499 C15.345,1.301 15.184,1.14 14.986,1.14 L12.366,1.14 L12.366,0.5 C12.366,0.302 12.205,0.14 12.005,0.14 C11.806,0.14 11.645,0.302 11.645,0.5 L11.645,1.14 L4.374,1.14 L4.374,0.5 C4.374,0.302 4.212,0.14 4.013,0.14 C3.814,0.14 3.653,0.302 3.653,0.5 L3.653,1.14 L0.987,1.14 C0.891,1.14 0.799,1.179 0.732,1.246 C0.665,1.314 0.626,1.406 0.626,1.501 L0.654,15.501 C0.655,15.7 0.816,15.86 1.014,15.86 L12.625,15.86 C12.736,15.86 12.839,15.81 12.908,15.724 L15.295,12.714 C15.305,12.702 15.302,12.684 15.31,12.671 C15.34,12.621 15.362,12.57 15.365,12.513 L15.365,12.513 Z M11.392,9.6405 L8.373,9.6405 L8.373,6.6215 C8.373,6.4225 8.212,6.2615 8.013,6.2615 C7.814,6.2615 7.653,6.4225 7.653,6.6215 L7.653,9.6405 L4.634,9.6405 C4.435,9.6405 4.274,9.8015 4.274,10.0005 C4.274,10.1995 4.435,10.3605 4.634,10.3605 L7.653,10.3605 L7.653,13.3795 C7.653,13.5785 7.814,13.7395 8.013,13.7395 C8.212,13.7395 8.373,13.5785 8.373,13.3795 L8.373,10.3605 L11.392,10.3605 C11.591,10.3605 11.752,10.1995 11.752,10.0005 C11.752,9.8015 11.591,9.6405 11.392,9.6405" id="Icon-Color"></path>
        </g>
    </g>
</svg>