<?xml version="1.0" encoding="UTF-8"?>
<svg width="256px" height="256px" viewBox="0 0 256 256" version="1.1" xmlns="http://www.w3.org/2000/svg" xmlns:xlink="http://www.w3.org/1999/xlink">
    
    <title>calendar-add</title>
    <desc>Created with sketchtool.</desc>
    <defs></defs>
    <g id="Page-1" stroke="none" stroke-width="1" fill="none" fill-rule="evenodd">
        <g id="calendar-add" fill="#000000" fill-rule="nonzero">
            <path d="M174.666667,44 L174.666667,25.3333333 C174.666667,20.1813333 178.838667,16 184,16 C189.161333,16 193.333333,20.1813333 193.333333,25.3333333 L193.333333,44 C193.333333,49.152 189.161333,53.3333333 184,53.3333333 C178.838667,53.3333333 174.666667,49.152 174.666667,44 Z M62.6666667,53.3333333 C67.828,53.3333333 72,49.152 72,44 L72,25.3333333 C72,20.1813333 67.828,16 62.6666667,16 C57.5053333,16 53.3333333,20.1813333 53.3333333,25.3333333 L53.3333333,44 C53.3333333,49.152 57.5053333,53.3333333 62.6666667,53.3333333 Z M136.4,179.333333 C136.4,203.003911 155.662756,222.266667 179.333333,222.266667 C203.003911,222.266667 222.266667,203.003911 222.266667,179.333333 C222.266667,155.662756 203.003911,136.4 179.333333,136.4 C155.662756,136.4 136.4,155.662756 136.4,179.333333 Z M240,179.333333 C240,212.84 212.84,240 179.333333,240 C145.826667,240 118.666667,212.84 118.666667,179.333333 C118.666667,145.826667 145.826667,118.666667 179.333333,118.666667 C212.84,118.666667 240,145.826667 240,179.333333 Z M107.121333,212 L34.6666667,212 L34.6666667,72 L212,72 L212,107.121333 C218.785333,110.201333 225.057333,114.186667 230.666667,118.956 L230.666667,34.6666667 L202.666667,34.6666667 L202.666667,44 C202.666667,56.2826667 190.738667,65.8306667 177.858667,61.6773333 C170.102667,59.176 165.333333,51.308 165.333333,43.16 L165.333333,34.6666667 L81.3333333,34.6666667 L81.3333333,44 C81.3333333,56.2826667 69.4053333,65.8306667 56.5253333,61.6773333 C48.7693333,59.176 44,51.308 44,43.16 L44,34.6666667 L16,34.6666667 L16,230.666667 L118.956,230.666667 C114.186667,225.057333 110.201333,218.785333 107.121333,212 Z M207.333333,186.801275 L186.8,186.801275 L186.8,207.335374 L171.866667,207.335374 L171.866667,186.801275 L151.333333,186.801275 L151.333333,171.867432 L171.866667,171.867432 L171.866667,151.333333 L186.8,151.333333 L186.8,171.867432 L207.333333,171.867432 L207.333333,186.801275 Z"></path>
        </g>
    </g>
</svg>