<?xml version="1.0" encoding="UTF-8"?>
<svg width="16px" height="16px" viewBox="0 0 16 16" version="1.1" xmlns="http://www.w3.org/2000/svg" xmlns:xlink="http://www.w3.org/1999/xlink">
    
    <title>Icon/carrier</title>
    <desc>Created with sketchtool.</desc>
    <g id="Icons" stroke="none" stroke-width="1" fill="none" fill-rule="evenodd">
        <g id="Icon/carrier" fill="#00205B">
            <path d="M8.5145,14.1135 L14.0725,14.1135 L14.0725,9.5545 L8.5145,9.5545 L8.5145,14.1135 Z M1.9265,14.1235 L7.4845,14.1235 L7.4845,9.5645 L1.9265,9.5645 L1.9265,14.1235 Z M2.7645,7.6885 L4.3855,7.6885 L4.3855,8.6725 C4.3855,8.7365 4.4055,8.7925 4.4355,8.8445 L2.1545,8.8445 L2.7645,7.6885 Z M5.9425,1.8755 L7.5225,1.8755 L7.5245,3.0145 L5.3425,3.0145 L5.9425,1.8755 Z M10.4275,3.0145 L8.2455,3.0145 L8.2435,1.8755 L9.8265,1.8755 L10.4275,3.0145 Z M7.8865,3.7525 L10.6635,3.7525 L10.6635,8.3125 L5.1055,8.3125 L5.1055,3.7525 L7.8855,3.7525 L7.8865,3.7525 Z M13.2355,7.6775 L13.8455,8.8335 L11.3425,8.8335 C11.3665,8.7845 11.3845,8.7315 11.3845,8.6725 L11.3845,7.6775 L13.2355,7.6775 Z M14.7895,9.1715 C14.7885,9.1335 14.7795,9.0965 14.7665,9.0585 C14.7655,9.0565 14.7655,9.0545 14.7645,9.0525 C14.7595,9.0375 14.7595,9.0225 14.7515,9.0085 L13.7705,7.1495 C13.7085,7.0315 13.5865,6.9565 13.4525,6.9565 L11.3845,6.9565 L11.3845,3.3925 C11.3845,3.3905 11.3835,3.3885 11.3835,3.3865 C11.3835,3.3775 11.3785,3.3685 11.3785,3.3605 C11.3745,3.3205 11.3675,3.2805 11.3515,3.2445 C11.3465,3.2325 11.3495,3.2185 11.3425,3.2065 L10.3615,1.3475 C10.2995,1.2295 10.1775,1.1555 10.0435,1.1555 L7.8825,1.1555 L7.8815,1.1555 L5.7265,1.1555 C5.5925,1.1555 5.4705,1.2295 5.4075,1.3475 L4.4275,3.2065 C4.4215,3.2185 4.4235,3.2325 4.4185,3.2445 C4.4025,3.2805 4.3955,3.3195 4.3925,3.3605 C4.3915,3.3685 4.3865,3.3775 4.3865,3.3865 C4.3865,3.3885 4.3855,3.3905 4.3855,3.3925 L4.3855,6.9675 L2.5475,6.9675 C2.4135,6.9675 2.2915,7.0415 2.2285,7.1595 L1.2485,9.0195 C1.2415,9.0325 1.2405,9.0485 1.2355,9.0635 C1.2345,9.0655 1.2345,9.0675 1.2335,9.0685 C1.2215,9.1065 1.2115,9.1445 1.2115,9.1825 C1.2105,9.1905 1.2065,9.1975 1.2065,9.2045 L1.2065,14.4845 C1.2065,14.6835 1.3675,14.8445 1.5665,14.8445 L7.8455,14.8445 C7.9045,14.8445 7.9585,14.8265 8.0085,14.8015 C8.0535,14.8215 8.1025,14.8335 8.1545,14.8335 L14.4335,14.8335 C14.6325,14.8335 14.7935,14.6725 14.7935,14.4735 L14.7935,9.1945 C14.7935,9.1865 14.7895,9.1795 14.7895,9.1715 L14.7895,9.1715 Z M9.7319,11.4812 L12.8069,11.4812 C13.0059,11.4812 13.1679,11.3202 13.1679,11.1212 C13.1679,10.9212 13.0059,10.7602 12.8069,10.7602 L9.7319,10.7602 C9.5329,10.7602 9.3719,10.9212 9.3719,11.1212 C9.3719,11.3202 9.5329,11.4812 9.7319,11.4812 M6.3227,5.6795 L9.3977,5.6795 C9.5967,5.6795 9.7587,5.5185 9.7587,5.3195 C9.7587,5.1195 9.5967,4.9585 9.3977,4.9585 L6.3227,4.9585 C6.1237,4.9585 5.9627,5.1195 5.9627,5.3195 C5.9627,5.5185 6.1237,5.6795 6.3227,5.6795 M3.144,11.491 L6.219,11.491 C6.418,11.491 6.58,11.33 6.58,11.131 C6.58,10.931 6.418,10.77 6.219,10.77 L3.144,10.77 C2.945,10.77 2.784,10.931 2.784,11.131 C2.784,11.33 2.945,11.491 3.144,11.491" id="Icon-Color"></path>
        </g>
    </g>
</svg>