<?xml version="1.0" encoding="UTF-8"?>
<svg width="256px" height="256px" viewBox="0 0 256 256" version="1.1" xmlns="http://www.w3.org/2000/svg" xmlns:xlink="http://www.w3.org/1999/xlink">
    
    <title>cart-add</title>
    <desc>Created with sketchtool.</desc>
    <defs>
        <path d="M48.4691835,21 L84.8913082,126.906234 L215.386128,126.906234 L232.175593,73.143986 L256,73.143986 L230.186479,155.855136 L94.8031607,155.855136 L100.107463,173.768393 L212.823881,173.768393 L219.679017,193.524671 C222.003029,195.680582 223.884838,198.268546 225.219315,201.143986 C226.640443,204.193856 227.362266,207.522689 227.332046,210.88727 C227.332046,217.405268 225.039508,222.968042 220.47691,227.631782 C216.07917,232.208863 209.965976,234.73565 203.620018,234.599298 C197.135733,234.599298 191.595435,232.273047 187.021598,227.631782 C182.458999,222.968042 180.166462,217.405268 180.166462,210.88727 C180.166462,209.673573 180.256365,208.437401 180.436172,207.201229 C180.604741,205.976295 180.885689,204.830026 181.222827,203.784899 L103.512555,203.784899 C103.872169,204.841264 104.141879,205.965057 104.29921,207.201229 C104.479017,208.437401 104.56892,209.651097 104.56892,210.88727 C104.56892,217.405268 102.287621,222.968042 97.713784,227.631782 C93.3160442,232.208863 87.2028509,234.73565 80.856892,234.599298 C74.3613696,234.599298 68.832309,232.273047 64.2809482,227.631782 C59.6958736,222.968042 57.4258121,217.405268 57.4258121,210.88727 C57.3594794,205.296472 59.3286206,199.872347 62.9661106,195.626163 C66.652151,191.232133 71.2147498,188.613696 76.6539069,187.714662 L28.4431958,49.7129061 L9.48481124,49.4319579 L0,21 L48.4691835,21 Z M192.660004,74.3333333 L160.661253,74.3333333 L160.661253,106.333333 L139.328753,106.333333 L139.328753,74.3333333 L107.330002,74.3333333 L107.330002,53 L139.328753,53 L139.328753,21 L160.661253,21 L160.661253,53 L192.660004,53 L192.660004,74.3333333 Z" id="path-1"></path>
    </defs>
    <g id="Page-1" stroke="none" stroke-width="1" fill="none" fill-rule="evenodd">
        <g id="cart-add">
            <mask id="mask-2" fill="white">
                <use xlink:href="#path-1"></use>
            </mask>
            <use id="Combined-Shape" fill="#000000" fill-rule="nonzero" xlink:href="#path-1"></use>
        </g>
    </g>
</svg>