<?xml version="1.0" encoding="UTF-8"?>
<svg width="256px" height="256px" viewBox="0 0 256 256" version="1.1" xmlns="http://www.w3.org/2000/svg" xmlns:xlink="http://www.w3.org/1999/xlink">
    
    <title>cart</title>
    <desc>Created with sketchtool.</desc>
    <defs></defs>
    <g id="Page-1" stroke="none" stroke-width="1" fill="none" fill-rule="evenodd">
        <g id="cart" fill="#000000" fill-rule="nonzero">
            <path d="M240,80.6296296 L75.4567901,80.6296296 L58.4032922,35 L16,35 L24.2962963,59.8888889 L40.8888889,60.1193416 L83.0617284,180.876543 C78.299016,181.644723 74.3045429,183.949226 71.0781893,187.790123 C67.8518357,191.631021 66.2386831,196.086394 66.2386831,201.156379 C66.2386831,206.840906 68.2359197,211.718773 72.2304527,215.790123 C76.2249857,219.861474 81.0644435,221.897119 86.7489712,221.897119 C92.5871348,221.897119 97.5034094,219.861474 101.497942,215.790123 C105.492475,211.718773 107.489712,206.840906 107.489712,201.156379 C107.489712,200.080927 107.412895,199.005492 107.259259,197.930041 C107.105623,196.85459 106.875173,195.855972 106.567901,194.934156 L174.55144,194.934156 C174.244169,195.855972 174.013718,196.85459 173.860082,197.930041 C173.706446,199.005492 173.62963,200.080927 173.62963,201.156379 C173.62963,206.840906 175.626866,211.718773 179.621399,215.790123 C183.615932,219.861474 188.45539,221.897119 194.139918,221.897119 C199.978081,221.897119 204.894356,219.861474 208.888889,215.790123 C212.883422,211.718773 214.880658,206.840906 214.880658,201.156379 C214.880658,198.083661 214.266124,195.24144 213.037037,192.62963 C211.80795,190.01782 210.194797,187.790133 208.197531,185.946502 L202.205761,168.662551 L103.572016,168.662551 L98.962963,152.99177 L217.415638,152.99177 L240,80.6296296 Z"></path>
        </g>
    </g>
</svg>