<?xml version="1.0" encoding="UTF-8"?>
<svg width="16px" height="16px" viewBox="0 0 16 16" version="1.1" xmlns="http://www.w3.org/2000/svg" xmlns:xlink="http://www.w3.org/1999/xlink">
    
    <title>Icon/cart-add</title>
    <desc>Created with sketchtool.</desc>
    <g id="Icons" stroke="none" stroke-width="1" fill="none" fill-rule="evenodd">
        <g id="Icon/cart-add" fill="#18225E">
            <path d="M15.637,5.58998757 C15.836,5.58998757 15.997,5.75098757 15.997,5.94998757 C15.997,6.14898757 15.836,6.30998757 15.637,6.30998757 L15.283,6.30998757 L14.499,8.72898757 C14.45,8.88098757 14.309,8.97798757 14.157,8.97798757 C14.119,8.97798757 14.082,8.97198757 14.045,8.95998757 C13.857,8.89898757 13.753,8.69598757 13.814,8.50698757 L14.526,6.30998757 L1.517,6.30998757 L3.97,13.8729876 L9.395,13.8729876 C9.594,13.8729876 9.755,14.0339876 9.755,14.2329876 C9.755,14.4319876 9.594,14.5929876 9.395,14.5929876 L3.708,14.5929876 C3.552,14.5929876 3.414,14.4919876 3.366,14.3439876 L0.759,6.30998757 L0.364,6.30998757 C0.164,6.30998757 0.003,6.14898757 0.003,5.94998757 C0.003,5.75098757 0.164,5.58998757 0.364,5.58998757 L2.658,5.58998757 L6.67,0.995987568 C6.801,0.845987568 7.03,0.830987568 7.178,0.961987568 C7.328,1.09198757 7.344,1.31998757 7.213,1.46998757 L3.616,5.58998757 L12.416,5.58998757 L8.753,1.47198757 C8.62,1.32398757 8.634,1.09598757 8.783,0.963987568 C8.931,0.832987568 9.159,0.844987568 9.29,0.993987568 L13.379,5.58998757 L15.637,5.58998757 Z M15.0911,10.8731876 C15.2901,10.8731876 15.4511,11.0341876 15.4511,11.2331876 C15.4511,11.4321876 15.2901,11.5931876 15.0911,11.5931876 L11.9171,11.5931876 L11.9171,14.7681876 C11.9171,14.9661876 11.7561,15.1271876 11.5571,15.1271876 C11.3581,15.1271876 11.1961,14.9661876 11.1961,14.7681876 L11.1961,11.5931876 L8.0221,11.5931876 C7.8221,11.5931876 7.6611,11.4321876 7.6611,11.2331876 C7.6611,11.0341876 7.8221,10.8731876 8.0221,10.8731876 L11.1961,10.8731876 L11.1961,7.69818757 C11.1961,7.49918757 11.3581,7.33818757 11.5571,7.33818757 C11.7561,7.33818757 11.9171,7.49918757 11.9171,7.69818757 L11.9171,10.8731876 L15.0911,10.8731876 Z" id="cart-add"></path>
        </g>
    </g>
</svg>