<?xml version="1.0" encoding="UTF-8"?>
<svg width="256px" height="256px" viewBox="0 0 256 256" version="1.1" xmlns="http://www.w3.org/2000/svg" xmlns:xlink="http://www.w3.org/1999/xlink">
    
    <title>cart-add</title>
    <desc>Created with sketchtool.</desc>
    <defs>
        <path d="M58.4105356,35 L90.2798946,127.667954 L204.462862,127.667954 L219.153644,80.6259877 L240,80.6259877 L217.413169,152.998244 L98.9527656,152.998244 L103.59403,168.672344 L202.220896,168.672344 L208.21914,185.959087 C210.25265,187.845509 211.899233,190.109978 213.066901,192.625988 C214.310387,195.294624 214.941983,198.207353 214.91554,201.151361 C214.91554,206.854609 212.90957,211.722037 208.917296,215.802809 C205.069274,219.807755 199.720229,222.018694 194.167515,221.899385 C188.493766,221.899385 183.646005,219.863916 179.643898,215.802809 C175.651624,211.722037 173.645654,206.854609 173.645654,201.151361 C173.645654,200.089377 173.72432,199.007726 173.881651,197.926076 C174.029148,196.854258 174.274978,195.851273 174.569974,194.936787 L106.573486,194.936787 C106.888147,195.861106 107.124144,196.844425 107.261809,197.926076 C107.41914,199.007726 107.497805,200.06971 107.497805,201.151361 C107.497805,206.854609 105.501668,211.722037 101.499561,215.802809 C97.6515387,219.807755 92.3024946,222.018694 86.7497805,221.899385 C81.0661984,221.899385 76.2282704,219.863916 72.2458297,215.802809 C68.2338894,211.722037 66.2475856,206.854609 66.2475856,201.151361 C66.1895444,196.259413 67.912543,191.513304 71.0953468,187.797893 C74.3206321,183.953117 78.3129061,181.661984 83.0721686,180.875329 L40.8877963,60.1237928 L24.2992098,59.8779631 L16,35 L58.4105356,35 Z M184.577503,81.6666667 L156.578596,81.6666667 L156.578596,109.666667 L137.912658,109.666667 L137.912658,81.6666667 L109.913752,81.6666667 L109.913752,63 L137.912658,63 L137.912658,35 L156.578596,35 L156.578596,63 L184.577503,63 L184.577503,81.6666667 Z" id="path-1"></path>
    </defs>
    <g id="Page-1" stroke="none" stroke-width="1" fill="none" fill-rule="evenodd">
        <g id="cart-add">
            <mask id="mask-2" fill="white">
                <use xlink:href="#path-1"></use>
            </mask>
            <use id="Combined-Shape" fill="#000000" fill-rule="nonzero" xlink:href="#path-1"></use>
        </g>
    </g>
</svg>