<?xml version="1.0" encoding="UTF-8" standalone="no"?>
<svg width="256px" height="256px" viewBox="0 0 256 256" version="1.1" xmlns="http://www.w3.org/2000/svg" xmlns:xlink="http://www.w3.org/1999/xlink">
    <!-- Generator: sketchtool 41 (35326) - http://www.bohemiancoding.com/sketch -->
    <title>cart</title>
    <desc>Created with sketchtool.</desc>
    <defs></defs>
    <g id="Page-1" stroke="none" stroke-width="1" fill="none" fill-rule="evenodd">
        <g id="cart" fill="#000000">
            <path d="M224,87.1111111 L82.962963,87.1111111 L68.345679,48 L32,48 L39.1111111,69.3333333 L53.3333333,69.5308642 L89.4814815,173.037037 C85.3991565,173.695477 81.9753225,175.670765 79.2098765,178.962963 C76.4444306,182.25516 75.0617284,186.074052 75.0617284,190.419753 C75.0617284,195.292205 76.7736454,199.473234 80.1975309,202.962963 C83.6214163,206.452692 87.769523,208.197531 92.6419753,208.197531 C97.6461156,208.197531 101.860065,206.452692 105.283951,202.962963 C108.707836,199.473234 110.419753,195.292205 110.419753,190.419753 C110.419753,189.497938 110.35391,188.576136 110.222222,187.654321 C110.090534,186.732506 109.893005,185.876547 109.62963,185.08642 L167.901235,185.08642 C167.637859,185.876547 167.44033,186.732506 167.308642,187.654321 C167.176954,188.576136 167.111111,189.497938 167.111111,190.419753 C167.111111,195.292205 168.823028,199.473234 172.246914,202.962963 C175.670799,206.452692 179.818906,208.197531 184.691358,208.197531 C189.695498,208.197531 193.909448,206.452692 197.333333,202.962963 C200.757219,199.473234 202.469136,195.292205 202.469136,190.419753 C202.469136,187.785995 201.942392,185.349805 200.888889,183.111111 C199.835386,180.872417 198.452683,178.962971 196.740741,177.382716 L191.604938,162.567901 L107.061728,162.567901 L103.111111,149.135802 L204.641975,149.135802 L224,87.1111111 Z"></path>
        </g>
    </g>
</svg>