<?xml version="1.0" encoding="UTF-8"?>
<svg width="256px" height="256px" viewBox="0 0 256 256" version="1.1" xmlns="http://www.w3.org/2000/svg" xmlns:xlink="http://www.w3.org/1999/xlink">
    
    <title>cart</title>
    <desc>Created with sketchtool.</desc>
    <defs></defs>
    <g id="Page-1" stroke="none" stroke-width="1" fill="none" fill-rule="evenodd">
        <g id="cart" fill="#000000" fill-rule="nonzero">
            <path d="M256,73.1481481 L67.9506173,73.1481481 L48.4609053,21 L0,21 L9.48148148,49.4444444 L28.4444444,49.7078189 L76.6419753,187.716049 C71.1988754,188.593969 66.6337633,191.227687 62.9465021,195.617284 C59.2592408,200.006881 57.4156379,205.098736 57.4156379,210.893004 C57.4156379,217.389607 59.6981939,222.964311 64.2633745,227.617284 C68.8285551,232.270256 74.359364,234.596708 80.8559671,234.596708 C87.5281541,234.596708 93.1467536,232.270256 97.7119342,227.617284 C102.277115,222.964311 104.559671,217.389607 104.559671,210.893004 C104.559671,209.663917 104.47188,208.434848 104.296296,207.205761 C104.120712,205.976674 103.857341,204.835396 103.506173,203.781893 L181.201646,203.781893 C180.850478,204.835396 180.587107,205.976674 180.411523,207.205761 C180.235939,208.434848 180.148148,209.663917 180.148148,210.893004 C180.148148,217.389607 182.430704,222.964311 186.995885,227.617284 C191.561065,232.270256 197.091874,234.596708 203.588477,234.596708 C210.260664,234.596708 215.879264,232.270256 220.444444,227.617284 C225.009625,222.964311 227.292181,217.389607 227.292181,210.893004 C227.292181,207.381327 226.589856,204.133074 225.185185,201.148148 C223.780514,198.163222 221.936911,195.617294 219.654321,193.510288 L212.806584,173.757202 L100.082305,173.757202 L94.8148148,155.847737 L230.1893,155.847737 L256,73.1481481 Z"></path>
        </g>
    </g>
</svg>