<?xml version="1.0" encoding="UTF-8"?>
<svg width="16px" height="16px" viewBox="0 0 16 16" version="1.1" xmlns="http://www.w3.org/2000/svg" xmlns:xlink="http://www.w3.org/1999/xlink">
    
    <title>Icon/chat-help</title>
    <desc>Created with sketchtool.</desc>
    <g id="Icons" stroke="none" stroke-width="1" fill="none" fill-rule="evenodd">
        <g id="Icon/chat-help" fill="#00205B">
            <path d="M14.327,9.9175 L7.813,9.9175 C7.697,9.9175 7.588,9.9735 7.52,10.0675 L4.874,13.7665 L4.874,10.2775 C4.874,10.0785 4.713,9.9175 4.514,9.9175 L1.673,9.9175 L1.673,1.4725 L14.327,1.4725 L14.327,9.9175 Z M14.687,0.7525 L1.312,0.7525 C1.113,0.7525 0.952,0.9135 0.952,1.1125 L0.952,10.2775 C0.952,10.4765 1.113,10.6375 1.312,10.6375 L4.153,10.6375 L4.153,14.8875 C4.153,15.0435 4.255,15.1825 4.403,15.2305 C4.439,15.2425 4.476,15.2475 4.514,15.2475 C4.628,15.2475 4.737,15.1935 4.806,15.0975 L7.998,10.6375 L14.687,10.6375 C14.887,10.6375 15.048,10.4765 15.048,10.2775 L15.048,1.1125 C15.048,0.9135 14.887,0.7525 14.687,0.7525 L14.687,0.7525 Z M7.3788,4.3999 C7.3788,4.0219 7.5968,3.7719 7.9828,3.7719 C8.3548,3.7719 8.5788,3.9739 8.5788,4.3119 C8.5788,4.5939 8.3938,4.7789 8.1278,4.9399 L7.5798,5.2629 C7.0088,5.5929 6.9038,5.7939 6.9038,6.3099 L6.9038,6.5999 L8.2008,6.5999 L8.2008,6.5439 C8.2008,6.3499 8.2408,6.2539 8.4098,6.1579 L8.8058,5.9149 C9.5298,5.4959 9.8938,5.1009 9.8938,4.3119 C9.8938,3.3049 9.2068,2.7019 7.9828,2.7019 C6.7908,2.7019 6.1068,3.3449 6.1068,4.3119 L6.1068,4.6099 L7.3788,4.6099 L7.3788,4.3999 Z M7.5614,7.2017 C7.1734,7.2017 6.8614,7.5147 6.8614,7.9027 C6.8614,8.2897 7.1734,8.6037 7.5614,8.6037 C7.9484,8.6037 8.2624,8.2897 8.2624,7.9027 C8.2624,7.5147 7.9484,7.2017 7.5614,7.2017" id="Icon-Color"></path>
        </g>
    </g>
</svg>