<?xml version="1.0" encoding="UTF-8" standalone="no"?>
<svg width="256px" height="256px" viewBox="0 0 256 256" version="1.1" xmlns="http://www.w3.org/2000/svg" xmlns:xlink="http://www.w3.org/1999/xlink">
    <!-- Generator: sketchtool 41 (35326) - http://www.bohemiancoding.com/sketch -->
    <title>chat-single</title>
    <desc>Created with sketchtool.</desc>
    <defs></defs>
    <g id="Page-1" stroke="none" stroke-width="1" fill="none" fill-rule="evenodd">
        <g id="chat-single" fill="#000000">
            <path d="M128,43 C114.79605,43 102.36899,45.0582318 90.7184466,49.1747573 C79.0679029,53.2912827 68.8932474,58.9611289 60.1941748,66.184466 C51.4951021,73.4078031 44.6213845,81.7960687 39.5728155,91.3495146 C34.5242466,100.90296 32,111.19412 32,122.223301 C32,131.388395 33.7475553,140.126172 37.2427184,148.436893 C40.7378816,156.747614 45.4368637,163.932009 51.3398058,169.990291 L37.8252427,213.563107 L92.5825243,196.087379 C111.534075,201.058277 129.048463,202.300983 145.126214,199.815534 C161.203964,197.330085 175.067903,192.359261 186.718447,184.902913 C198.36899,177.446565 207.495113,168.165104 214.097087,157.058252 C220.699062,145.951401 224,134.339866 224,122.223301 C224,111.19412 221.475753,100.90296 216.427184,91.3495146 C211.378616,81.7960687 204.504898,73.4078031 195.805825,66.184466 C187.106753,58.9611289 176.932097,53.2912827 165.281553,49.1747573 C153.63101,45.0582318 141.20395,43 128,43 Z"></path>
        </g>
    </g>
</svg>