<?xml version="1.0" encoding="UTF-8"?>
<svg width="256px" height="256px" viewBox="0 0 256 256" version="1.1" xmlns="http://www.w3.org/2000/svg" xmlns:xlink="http://www.w3.org/1999/xlink">
    
    <title>chat-single</title>
    <desc>Created with sketchtool.</desc>
    <defs></defs>
    <g id="Page-1" stroke="none" stroke-width="1" fill="none" fill-rule="evenodd">
        <g id="chat-single" fill="#000000" fill-rule="nonzero">
            <path d="M128,29 C112.595392,29 98.0971553,31.4012705 84.5048544,36.2038835 C70.9125534,41.0064965 59.0421219,47.6213171 48.8932039,56.0485437 C38.7442858,64.4757703 30.7249485,74.2620802 24.8349515,85.407767 C18.9449544,96.5534538 16,108.559806 16,121.427184 C16,132.119795 18.0388146,142.313867 22.1165049,152.009709 C26.1941951,161.70555 31.676341,170.087343 38.5631068,177.15534 L22.7961165,227.990291 L86.6796117,207.601942 C108.789755,213.401323 129.223207,214.851147 147.980583,211.951456 C166.737958,209.051765 182.912553,203.252471 196.504854,194.553398 C210.097155,185.854325 220.744298,175.025955 228.446602,162.067961 C236.148906,149.109968 240,135.563177 240,121.427184 C240,108.559806 237.055046,96.5534538 231.165049,85.407767 C225.275051,74.2620802 217.255714,64.4757703 207.106796,56.0485437 C196.957878,47.6213171 185.087447,41.0064965 171.495146,36.2038835 C157.902845,31.4012705 143.404608,29 128,29 Z"></path>
        </g>
    </g>
</svg>