<?xml version="1.0" encoding="UTF-8"?>
<svg width="256px" height="256px" viewBox="0 0 256 256" version="1.1" xmlns="http://www.w3.org/2000/svg" xmlns:xlink="http://www.w3.org/1999/xlink">
    
    <title>chat-help</title>
    <desc>Created with sketchtool.</desc>
    <defs></defs>
    <g id="Page-1" stroke="none" stroke-width="1" fill="none" fill-rule="evenodd">
        <g id="chat-help" fill="#000000" fill-rule="nonzero">
            <path d="M128,24 C113.139084,24 98.9579963,26.3559635 85.4563107,31.0679612 C71.954625,35.7799588 60.0841936,42.3041654 49.8446602,50.6407767 C39.6051268,58.977388 31.4045616,68.8996188 25.2427184,80.407767 C19.0808753,91.9159151 16,104.556565 16,118.330097 C16,127.935323 17.6763586,137.31387 21.0291262,146.466019 C24.3818938,155.618169 29.0485138,163.909348 35.0291262,171.339806 C35.3915876,179.857648 33.534001,189.734572 29.4563107,200.970874 C25.3786204,212.207176 21.0744563,222.265328 16.5436893,231.145631 C22.5243017,230.058247 29.0485083,228.65373 36.1165049,226.932039 C43.1845014,225.210347 50.1164709,223.307454 56.9126214,221.223301 C63.7087718,219.139148 70.0970575,216.919106 76.0776699,214.563107 C82.0582823,212.207108 87.0420513,209.76053 91.0291262,207.223301 C112.595577,212.660221 132.485346,213.702282 150.699029,210.349515 C168.912712,206.996747 184.634238,200.880303 197.864078,192 C211.093917,183.119697 221.423911,172.155405 228.854369,159.106796 C236.284827,146.058187 240,132.46609 240,118.330097 C240,104.556565 236.919125,91.9159151 230.757282,80.407767 C224.595438,68.8996188 216.349566,58.932081 206.019417,50.5048544 C195.689269,42.0776278 183.77353,35.5534212 170.271845,30.9320388 C156.770159,26.3106565 142.679685,24 128,24 Z M130.990291,174.873786 C127.728139,174.873786 124.919106,173.695805 122.563107,171.339806 C120.207108,168.983807 119.029126,166.174774 119.029126,162.912621 C119.029126,159.650469 120.207108,156.841436 122.563107,154.485437 C124.919106,152.129438 127.728139,150.951456 130.990291,150.951456 C134.433674,150.951456 137.333322,152.129438 139.68932,154.485437 C142.045319,156.841436 143.223301,159.650469 143.223301,162.912621 C143.223301,166.174774 142.045319,168.983807 139.68932,171.339806 C137.333322,173.695805 134.433674,174.873786 130.990291,174.873786 Z M140.504854,139.262136 L140.504854,141.436893 L120.660194,141.436893 L120.660194,139.262136 C120.660194,136.181214 121.113264,132.78319 122.019417,129.067961 C122.925571,125.352732 125.19092,121.77348 128.815534,118.330097 C132.258917,114.886714 135.792862,111.579304 139.417476,108.407767 C143.042089,105.23623 144.854369,101.566364 144.854369,97.3980583 C144.854369,92.6860606 143.404545,89.0615014 140.504854,86.5242718 C137.605163,83.9870423 134.071218,82.7184466 129.902913,82.7184466 C123.016147,82.7184466 118.847904,85.2556381 117.398058,90.3300971 C115.948213,95.4045561 115.132687,98.7572734 114.951456,100.38835 L95.6504854,100.38835 C95.8317161,92.9578917 98.1423726,85.1197823 102.582524,76.8737864 C107.022676,68.6277905 116.129381,64.5048544 129.902913,64.5048544 C142.045368,64.5048544 150.880231,67.8122647 156.407767,74.4271845 C161.935303,81.0421043 164.699029,88.1553017 164.699029,95.7669903 C164.699029,107.728215 160.666707,116.019394 152.601942,120.640777 C144.537177,125.262159 140.504854,131.469217 140.504854,139.262136 Z"></path>
        </g>
    </g>
</svg>