<?xml version="1.0" encoding="UTF-8"?>
<svg width="256px" height="256px" viewBox="0 0 256 256" version="1.1" xmlns="http://www.w3.org/2000/svg" xmlns:xlink="http://www.w3.org/1999/xlink">
    
    <title>chat-single</title>
    <desc>Created with sketchtool.</desc>
    <defs></defs>
    <g id="Page-1" stroke="none" stroke-width="1" fill="none" fill-rule="evenodd">
        <g id="chat-single" fill="#000000" fill-rule="nonzero">
            <path d="M128,14 C110.394734,14 93.8253204,16.7443091 78.2912621,22.2330097 C62.7572039,27.7217103 49.1909965,35.2815052 37.592233,44.9126214 C25.9934695,54.5437375 16.8285126,65.7280917 10.0970874,78.4660194 C3.36566214,91.2039472 0,104.925493 0,119.631068 C0,131.851194 2.33007379,143.501563 6.99029126,154.582524 C11.6505087,165.663486 17.9158183,175.242678 25.7864078,183.320388 L7.76699029,241.417476 L80.776699,218.116505 C106.045434,224.74437 129.397951,226.401311 150.834951,223.087379 C172.271952,219.773446 190.757204,213.145681 206.291262,203.203883 C221.82532,193.262086 233.993483,180.886805 242.796117,166.07767 C251.59875,151.268534 256,135.786489 256,119.631068 C256,104.925493 252.634338,91.2039472 245.902913,78.4660194 C239.171487,65.7280917 230.00653,54.5437375 218.407767,44.9126214 C206.809003,35.2815052 193.242796,27.7217103 177.708738,22.2330097 C162.17468,16.7443091 145.605266,14 128,14 Z"></path>
        </g>
    </g>
</svg>