<?xml version="1.0" encoding="UTF-8"?>
<svg width="256px" height="256px" viewBox="0 0 256 256" version="1.1" xmlns="http://www.w3.org/2000/svg" xmlns:xlink="http://www.w3.org/1999/xlink">
    <!-- Generator: sketchtool 42 (36781) - http://www.bohemiancoding.com/sketch -->
    <title>chat-help</title>
    <desc>Created with sketchtool.</desc>
    <defs></defs>
    <g id="Page-1" stroke="none" stroke-width="1" fill="none" fill-rule="evenodd">
        <g id="chat-help" fill="#000000" fill-rule="nonzero">
            <path d="M128,10 C111.016096,10 94.8091386,12.6925297 79.3786408,18.0776699 C63.9481429,23.4628101 50.3819355,30.9190462 38.6796117,40.4466019 C26.9772878,49.9741577 17.6052132,61.3138501 10.5631068,74.4660194 C3.52100039,87.6181887 0,102.064646 0,117.805825 C0,128.783226 1.91583845,139.501566 5.74757282,149.961165 C9.57930718,160.420764 14.9125872,169.896398 21.7475728,178.38835 C22.1618144,188.123026 20.0388583,199.410939 15.3786408,212.252427 C10.7184233,225.093915 5.79937864,236.588946 0.621359223,246.737864 C7.45634485,245.495139 14.912581,243.889977 22.9902913,241.92233 C31.0680016,239.954683 38.9902524,237.779947 46.7572816,235.398058 C54.5243107,233.016169 61.8252085,230.478978 68.6601942,227.786408 C75.4951798,225.093838 81.1909157,222.297749 85.7475728,219.398058 C110.394945,225.611682 133.12611,226.802608 153.941748,222.970874 C174.757386,219.139139 192.724843,212.148918 207.84466,202 C222.964477,191.851082 234.770184,179.320463 243.262136,164.407767 C251.754088,149.495071 256,133.961246 256,117.805825 C256,102.064646 252.479,87.6181887 245.436893,74.4660194 C238.394787,61.3138501 228.970933,49.9223783 217.165049,40.2912621 C205.359164,30.660146 191.741177,23.2039099 176.31068,17.9223301 C160.880182,12.6407503 144.776783,10 128,10 Z M131.417476,182.427184 C127.689302,182.427184 124.478978,181.08092 121.786408,178.38835 C119.093838,175.695779 117.747573,172.485456 117.747573,168.757282 C117.747573,165.029108 119.093838,161.818784 121.786408,159.126214 C124.478978,156.433643 127.689302,155.087379 131.417476,155.087379 C135.35277,155.087379 138.666653,156.433643 141.359223,159.126214 C144.051793,161.818784 145.398058,165.029108 145.398058,168.757282 C145.398058,172.485456 144.051793,175.695779 141.359223,178.38835 C138.666653,181.08092 135.35277,182.427184 131.417476,182.427184 Z M142.291262,141.728155 L142.291262,144.213592 L119.61165,144.213592 L119.61165,141.728155 C119.61165,138.207102 120.129445,134.323646 121.165049,130.07767 C122.200652,125.831694 124.789623,121.74112 128.932039,117.805825 C132.867334,113.87053 136.906128,110.090633 141.048544,106.466019 C145.190959,102.841406 147.262136,98.647273 147.262136,93.8834951 C147.262136,88.498355 145.605195,84.3560016 142.291262,81.4563107 C138.97733,78.5566198 134.938535,77.1067961 130.174757,77.1067961 C122.304168,77.1067961 117.540461,80.0064435 115.883495,85.8058252 C114.226529,91.605207 113.294499,95.4368839 113.087379,97.3009709 L91.0291262,97.3009709 C91.236247,88.809019 93.8769973,79.8511798 98.9514563,70.4271845 C104.025915,61.0031891 114.433578,56.2912621 130.174757,56.2912621 C144.051849,56.2912621 154.148836,60.0711596 160.466019,67.631068 C166.783203,75.1909763 169.941748,83.3203449 169.941748,92.0194175 C169.941748,105.689389 165.333379,115.165022 156.116505,120.446602 C146.89963,125.728182 142.291262,132.821962 142.291262,141.728155 Z"></path>
        </g>
    </g>
</svg>