<?xml version="1.0" encoding="UTF-8" standalone="no"?>
<svg width="256px" height="256px" viewBox="0 0 256 256" version="1.1" xmlns="http://www.w3.org/2000/svg" xmlns:xlink="http://www.w3.org/1999/xlink">
    <!-- Generator: sketchtool 41 (35326) - http://www.bohemiancoding.com/sketch -->
    <title>chat-help</title>
    <desc>Created with sketchtool.</desc>
    <defs></defs>
    <g id="Page-1" stroke="none" stroke-width="1" fill="none" fill-rule="evenodd">
        <g id="chat-help" fill="#000000">
            <path d="M128,39 C115.262072,39 103.106854,41.0193973 91.5339806,45.0582524 C79.9611072,49.0971076 69.7864517,54.6892847 61.0097087,61.8349515 C52.2329658,68.9806183 45.2039099,77.4853876 39.9223301,87.3495146 C34.6407503,97.2136416 32,108.048485 32,119.854369 C32,128.08742 33.4368788,136.126174 36.3106796,143.970874 C39.1844804,151.815573 43.1844404,158.922298 48.3106796,165.291262 C48.6213608,172.59227 47.0291437,181.058204 43.5339806,190.68932 C40.0388175,200.320437 36.349534,208.94171 32.4660194,216.553398 C37.5922586,215.621355 43.1844357,214.417483 49.2427184,212.941748 C55.3010012,211.466012 61.2426893,209.83496 67.0679612,208.048544 C72.893233,206.262127 78.3689064,204.359233 83.4951456,202.339806 C88.6213849,200.320378 92.8931868,198.223312 96.3106796,196.048544 C114.796209,200.708761 131.844582,201.601956 147.456311,198.728155 C163.068039,195.854355 176.543633,190.611689 187.883495,183 C199.223358,175.388311 208.077638,165.990347 214.446602,154.805825 C220.815566,143.621303 224,131.970934 224,119.854369 C224,108.048485 221.35925,97.2136416 216.07767,87.3495146 C210.79609,77.4853876 203.7282,68.9417837 194.873786,61.7184466 C186.019373,54.4951095 175.805883,48.9029324 164.23301,44.9417476 C152.660136,40.9805627 140.582587,39 128,39 Z M130.563107,168.320388 C127.766976,168.320388 125.359233,167.31069 123.339806,165.291262 C121.320378,163.271835 120.31068,160.864092 120.31068,158.067961 C120.31068,155.271831 121.320378,152.864088 123.339806,150.84466 C125.359233,148.825233 127.766976,147.815534 130.563107,147.815534 C133.514578,147.815534 135.99999,148.825233 138.019417,150.84466 C140.038845,152.864088 141.048544,155.271831 141.048544,158.067961 C141.048544,160.864092 140.038845,163.271835 138.019417,165.291262 C135.99999,167.31069 133.514578,168.320388 130.563107,168.320388 Z M138.718447,137.796117 L138.718447,139.660194 L121.708738,139.660194 L121.708738,137.796117 C121.708738,135.155327 122.097083,132.242734 122.873786,129.058252 C123.650489,125.87377 125.592217,122.80584 128.699029,119.854369 C131.6505,116.902898 134.679596,114.067975 137.786408,111.349515 C140.893219,108.631054 142.446602,105.485455 142.446602,101.912621 C142.446602,97.8737662 141.203896,94.7670012 138.718447,92.592233 C136.232997,90.4174649 133.203901,89.3300971 129.631068,89.3300971 C123.728126,89.3300971 120.155346,91.5048326 118.912621,95.8543689 C117.669897,100.203905 116.970875,103.077663 116.815534,104.475728 L100.271845,104.475728 C100.427185,98.1067643 102.407748,91.3883849 106.213592,84.3203883 C110.019437,77.2523918 117.825184,73.7184466 129.631068,73.7184466 C140.038887,73.7184466 147.611627,76.5533697 152.349515,82.223301 C157.087402,87.8932322 159.456311,93.9902586 159.456311,100.514563 C159.456311,110.767042 156.000035,117.873767 149.087379,121.834951 C142.174723,125.796136 138.718447,131.116471 138.718447,137.796117 Z"></path>
        </g>
    </g>
</svg>