<?xml version="1.0" encoding="UTF-8" standalone="no"?>
<svg width="256px" height="256px" viewBox="0 0 256 256" version="1.1" xmlns="http://www.w3.org/2000/svg" xmlns:xlink="http://www.w3.org/1999/xlink">
    <!-- Generator: sketchtool 41 (35326) - http://www.bohemiancoding.com/sketch -->
    <title>chat-double-o</title>
    <desc>Created with sketchtool.</desc>
    <defs></defs>
    <g id="Page-1" stroke="none" stroke-width="1" fill="none" fill-rule="evenodd">
        <g id="chat-double-o" fill="#000000">
            <path d="M242.640777,212.330097 C246.990313,207.152078 250.304196,201.404562 252.582524,195.087379 C254.860853,188.770195 256,182.194209 256,175.359223 C256,164.381822 253.152132,154.440174 247.456311,145.533981 C241.760489,136.627787 234.356033,129.27511 225.242718,123.475728 C226.485443,119.333313 227.469252,115.190959 228.194175,111.048544 C228.919097,106.906128 229.281553,102.660216 229.281553,98.3106796 C229.281553,84.4335876 226.123009,71.592292 219.805825,59.7864078 C213.488642,47.9805235 205.048597,37.7799783 194.485437,29.184466 C183.922277,20.5889538 171.754114,13.9094089 157.980583,9.14563107 C144.207051,4.3818532 129.760593,2 114.640777,2 C99.52096,2 85.0227231,4.3818532 71.1456311,9.14563107 C57.268539,13.9094089 45.0485965,20.5889538 34.4854369,29.184466 C23.9222773,37.7799783 15.5340117,47.9805235 9.32038835,59.7864078 C3.10676505,71.592292 0,84.4335876 0,98.3106796 C0,108.252477 1.70872078,117.935228 5.12621359,127.359223 C8.54370641,136.783219 13.3591922,145.223264 19.5728155,152.679612 C19.7799363,161.585805 17.8123184,171.734571 13.6699029,183.126214 C9.52748738,194.517856 5.17801631,204.87374 0.621359223,214.194175 C13.0486058,211.915846 26.8219309,208.498405 41.9417476,203.941748 C57.0615643,199.38509 68.6601538,194.621384 76.7378641,189.650485 C81.5016419,190.686089 86.1617895,191.566339 90.7184466,192.291262 C95.2751037,193.016185 99.7281336,193.585758 104.07767,194 C106.77024,201.87059 111.17149,209.119708 117.281553,215.747573 C123.391616,222.375438 130.796073,227.812277 139.495146,232.058252 C148.194218,236.304228 157.980528,238.996758 168.854369,240.135922 C179.72821,241.275087 191.482137,240.291278 204.116505,237.184466 C209.501645,240.498398 217.320337,243.708722 227.572816,246.815534 C237.825294,249.922346 247.197369,252.20064 255.68932,253.650485 C252.582509,247.436862 249.631082,240.446641 246.834951,232.679612 C244.038821,224.912583 242.640777,218.129479 242.640777,212.330097 Z M76.1165049,166.349515 C65.3462245,172.563138 55.9223705,177.067947 47.8446602,179.864078 L35.7281553,184.058252 L39.3009709,172.873786 C41.6828598,165.417438 43.4951394,156.718496 44.7378641,146.776699 C38.1099992,140.148834 32.7249398,133.106833 28.5825243,125.650485 C24.4401087,118.194137 22.368932,109.08096 22.368932,98.3106796 C22.368932,88.1617616 24.8025647,78.5825693 29.6699029,69.5728155 C34.5372412,60.5630617 41.1132272,52.6925903 49.3980583,45.961165 C57.6828893,39.2297398 67.4691992,33.9482392 78.7572816,30.1165049 C90.0453639,26.2847705 102.006409,24.368932 114.640777,24.368932 C127.275144,24.368932 139.23619,26.2847705 150.524272,30.1165049 C161.812354,33.9482392 171.598664,39.2297398 179.883495,45.961165 C188.168326,52.6925903 194.744312,60.5630617 199.61165,69.5728155 C204.478989,78.5825693 206.912621,88.1617616 206.912621,98.3106796 C206.912621,108.873839 203.961195,119.385061 198.058252,129.84466 C192.15531,140.304259 183.611706,149.15854 172.427184,156.407767 C161.242663,163.656994 147.521117,168.47248 131.262136,170.854369 C115.003155,173.236258 96.6214617,171.734655 76.1165049,166.349515 Z M229.281553,230.660194 L221.359223,228.019417 C216.077643,226.258891 210.019452,223.411023 203.184466,219.475728 C182.88663,224.860868 165.902981,224.550192 152.23301,218.543689 C138.563038,212.537187 129.139184,204.459598 123.961165,194.31068 C134.731445,193.689317 144.931991,191.877038 154.563107,188.873786 C164.194223,185.870535 172.996724,181.987079 180.970874,177.223301 C188.945024,172.459523 196.038804,166.919125 202.252427,160.601942 C208.46605,154.284758 213.747551,147.501654 218.097087,140.252427 C224.10359,144.601963 228.867296,149.831685 232.38835,155.941748 C235.909403,162.05181 237.669903,168.627797 237.669903,175.669903 C237.669903,182.504889 236.323638,188.304183 233.631068,193.067961 C230.938498,197.831739 227.521056,202.388328 223.378641,206.737864 C224.207124,213.158608 225.39805,218.750785 226.951456,223.514563 L229.281553,230.660194 Z"></path>
        </g>
    </g>
</svg>