<?xml version="1.0" encoding="UTF-8" standalone="no"?>
<svg width="256px" height="256px" viewBox="0 0 256 256" version="1.1" xmlns="http://www.w3.org/2000/svg" xmlns:xlink="http://www.w3.org/1999/xlink">
    <!-- Generator: sketchtool 41 (35326) - http://www.bohemiancoding.com/sketch -->
    <title>chat-double-o</title>
    <desc>Created with sketchtool.</desc>
    <defs></defs>
    <g id="Page-1" stroke="none" stroke-width="1" fill="none" fill-rule="evenodd">
        <g id="chat-double-o" fill="#000000">
            <path d="M213.980583,191.747573 C217.242735,187.864058 219.728147,183.553422 221.436893,178.815534 C223.14564,174.077646 224,169.145657 224,164.019417 C224,155.786367 221.864099,148.33013 217.592233,141.650485 C213.320367,134.97084 207.767024,129.456332 200.932039,125.106796 C201.864082,121.999984 202.601939,118.893219 203.145631,115.786408 C203.689323,112.679596 203.961165,109.495162 203.961165,106.23301 C203.961165,95.8251907 201.592257,86.194219 196.854369,77.3398058 C192.116481,68.4853926 185.786447,60.8349837 177.864078,54.3883495 C169.941708,47.9417153 160.815586,42.9320567 150.485437,39.3592233 C140.155288,35.7863899 129.320445,34 117.980583,34 C106.64072,34 95.7670423,35.7863899 85.3592233,39.3592233 C74.9514043,42.9320567 65.7864474,47.9417153 57.8640777,54.3883495 C49.941708,60.8349837 43.6505087,68.4853926 38.9902913,77.3398058 C34.3300738,86.194219 32,95.8251907 32,106.23301 C32,113.689358 33.2815406,120.951421 35.8446602,128.019417 C38.4077798,135.087414 42.0193942,141.417448 46.6796117,147.009709 C46.8349522,153.689354 45.3592388,161.300928 42.2524272,169.84466 C39.1456155,178.388392 35.8835122,186.155305 32.4660194,193.145631 C41.7864544,191.436885 52.1164482,188.873803 63.4563107,185.456311 C74.7961732,182.038818 83.4951153,178.466038 89.5533981,174.737864 C93.1262315,175.514567 96.6213421,176.174755 100.038835,176.718447 C103.456328,177.262139 106.7961,177.689319 110.058252,178 C112.07768,183.902942 115.378618,189.339781 119.961165,194.31068 C124.543712,199.281578 130.097055,203.359207 136.621359,206.543689 C143.145664,209.728171 150.485396,211.747569 158.640777,212.601942 C166.796157,213.456315 175.611603,212.718458 185.087379,210.38835 C189.126234,212.873799 194.990253,215.281542 202.679612,217.61165 C210.36897,219.941759 217.398026,221.65048 223.76699,222.737864 C221.436882,218.077647 219.223311,212.834981 217.126214,207.009709 C215.029116,201.184437 213.980583,196.097109 213.980583,191.747573 Z M89.0873786,157.262136 C81.0096683,161.922353 73.9417779,165.30096 67.8834951,167.398058 L58.7961165,170.543689 L61.4757282,162.15534 C63.2621449,156.563079 64.6213546,150.038872 65.5533981,142.582524 C60.5824994,137.611626 56.5437049,132.330125 53.4368932,126.737864 C50.3300816,121.145603 48.776699,114.31072 48.776699,106.23301 C48.776699,98.6213212 50.6019235,91.436927 54.2524272,84.6796117 C57.9029309,77.9222963 62.8349204,72.0194427 69.0485437,66.9708738 C75.262167,61.9223049 82.6018994,57.9611794 91.0679612,55.0873786 C99.5340229,52.2135779 108.504807,50.776699 117.980583,50.776699 C127.456358,50.776699 136.427142,52.2135779 144.893204,55.0873786 C153.359266,57.9611794 160.698998,61.9223049 166.912621,66.9708738 C173.126245,72.0194427 178.058234,77.9222963 181.708738,84.6796117 C185.359242,91.436927 187.184466,98.6213212 187.184466,106.23301 C187.184466,114.155379 184.970896,122.038796 180.543689,129.883495 C176.116483,137.728195 169.70878,144.368905 161.320388,149.805825 C152.931997,155.242746 142.640838,158.85436 130.446602,160.640777 C118.252366,162.427193 104.466096,161.300991 89.0873786,157.262136 Z M203.961165,205.495146 L198.019417,203.514563 C194.058233,202.194168 189.514589,200.058267 184.38835,197.106796 C169.164972,201.145651 156.427236,200.912644 146.174757,196.407767 C135.922279,191.90289 128.854388,185.844698 124.970874,178.23301 C133.048584,177.766988 140.698993,176.407778 147.92233,174.15534 C155.145667,171.902901 161.747543,168.990309 167.728155,165.417476 C173.708768,161.844642 179.029103,157.689344 183.68932,152.951456 C188.349538,148.213569 192.310663,143.126241 195.572816,137.68932 C200.077692,140.951473 203.650472,144.873763 206.291262,149.456311 C208.932052,154.038858 210.252427,158.970847 210.252427,164.252427 C210.252427,169.378666 209.242729,173.728137 207.223301,177.300971 C205.203873,180.873804 202.640792,184.291246 199.533981,187.553398 C200.155343,192.368956 201.048538,196.563089 202.213592,200.135922 L203.961165,205.495146 Z"></path>
        </g>
    </g>
</svg>