<?xml version="1.0" encoding="UTF-8"?>
<svg width="256px" height="256px" viewBox="0 0 256 256" version="1.1" xmlns="http://www.w3.org/2000/svg" xmlns:xlink="http://www.w3.org/1999/xlink">
    
    <title>chat-double-o</title>
    <desc>Created with sketchtool.</desc>
    <defs></defs>
    <g id="Page-1" stroke="none" stroke-width="1" fill="none" fill-rule="evenodd">
        <g id="chat-double-o" fill="#000000" fill-rule="nonzero">
            <path d="M228.31068,202.038835 C232.116524,197.508068 235.016171,192.478992 237.009709,186.951456 C239.003246,181.423921 240,175.669933 240,169.68932 C240,160.084094 237.508116,151.385152 232.524272,143.592233 C227.540428,135.799314 221.061529,129.365721 213.087379,124.291262 C214.174763,120.666649 215.035596,117.042089 215.669903,113.417476 C216.30421,109.792862 216.621359,106.077689 216.621359,102.271845 C216.621359,90.1293891 213.857633,78.8932555 208.330097,68.5631068 C202.802561,58.2329581 195.417522,49.307481 186.174757,41.7864078 C176.931993,34.2653346 166.28485,28.4207328 154.23301,24.2524272 C142.18117,20.0841216 129.540519,18 116.31068,18 C103.08084,18 90.3948827,20.0841216 78.2524272,24.2524272 C66.1099717,28.4207328 55.4175219,34.2653346 46.1747573,41.7864078 C36.9319926,49.307481 29.5922602,58.2329581 24.1553398,68.5631068 C18.7184194,78.8932555 16,90.1293891 16,102.271845 C16,110.970917 17.4951307,119.443324 20.4854369,127.68932 C23.4757431,135.935316 27.6892932,143.320356 33.1262136,149.84466 C33.3074443,157.637579 31.5857786,166.51775 27.961165,176.485437 C24.3365515,186.453124 20.5307643,195.514522 16.5436893,203.669903 C27.4175301,201.676365 39.4691895,198.686104 52.6990291,194.699029 C65.9288687,190.711954 76.0776346,186.543711 83.1456311,182.194175 C87.3139367,183.100328 91.3915658,183.870547 95.3786408,184.504854 C99.3657157,185.139162 103.262117,185.637539 107.067961,186 C109.42396,192.886766 113.275054,199.229744 118.621359,205.029126 C123.967664,210.828508 130.446564,215.585742 138.058252,219.300971 C145.669941,223.0162 154.232962,225.372163 163.747573,226.368932 C173.262183,227.365701 183.54687,226.504868 194.601942,223.786408 C199.313939,226.686099 206.155295,229.495132 215.126214,232.213592 C224.097132,234.932052 232.297697,236.92556 239.728155,238.194175 C237.009695,232.757254 234.427197,226.640811 231.980583,219.84466 C229.533968,213.04851 228.31068,207.113294 228.31068,202.038835 Z M82.6019417,161.805825 C73.1779464,167.242746 64.9320742,171.184454 57.8640777,173.631068 L47.2621359,177.300971 L50.3883495,167.514563 C52.4725023,160.990259 54.058247,153.378684 55.1456311,144.679612 C49.3462493,138.88023 44.6343223,132.718479 41.0097087,126.194175 C37.3850951,119.66987 35.5728155,111.69584 35.5728155,102.271845 C35.5728155,93.3915414 37.7022441,85.0097482 41.961165,77.1262136 C46.220086,69.242679 51.9740738,62.3560165 59.223301,56.4660194 C66.4725282,50.5760223 75.0355493,45.9547093 84.9126214,42.6019417 C94.7896934,39.2491742 105.255608,37.5728155 116.31068,37.5728155 C127.365751,37.5728155 137.831666,39.2491742 147.708738,42.6019417 C157.58581,45.9547093 166.148831,50.5760223 173.398058,56.4660194 C180.647285,62.3560165 186.401273,69.242679 190.660194,77.1262136 C194.919115,85.0097482 197.048544,93.3915414 197.048544,102.271845 C197.048544,111.514609 194.466045,120.711928 189.300971,129.864078 C184.135897,139.016227 176.660243,146.763722 166.873786,153.106796 C157.08733,159.44987 145.080977,163.66342 130.854369,165.747573 C116.627761,167.831726 100.543779,166.517823 82.6019417,161.805825 Z M216.621359,218.07767 L209.68932,215.76699 C205.067938,214.22653 199.76702,211.734645 193.786408,208.291262 C176.025801,213.00326 161.165108,212.731418 149.203883,207.475728 C137.242659,202.220038 128.996786,195.152148 124.466019,186.271845 C133.890015,185.728153 142.815492,184.142408 151.242718,181.514563 C159.669945,178.886718 167.372133,175.488694 174.349515,171.320388 C181.326896,167.152083 187.533953,162.304235 192.970874,156.776699 C198.407794,151.249163 203.029107,145.313948 206.834951,138.970874 C212.090641,142.776718 216.258884,147.352724 219.339806,152.699029 C222.420727,158.045334 223.961165,163.799322 223.961165,169.961165 C223.961165,175.941777 222.783183,181.01616 220.427184,185.184466 C218.071186,189.352772 215.080924,193.339787 211.456311,197.145631 C212.181233,202.763782 213.223294,207.656937 214.582524,211.825243 L216.621359,218.07767 Z"></path>
        </g>
    </g>
</svg>