<?xml version="1.0" encoding="UTF-8"?>
<svg width="16px" height="16px" viewBox="0 0 16 16" version="1.1" xmlns="http://www.w3.org/2000/svg" xmlns:xlink="http://www.w3.org/1999/xlink">
    
    <title>Icon/check-circle</title>
    <desc>Created with sketchtool.</desc>
    <g id="Icons" stroke="none" stroke-width="1" fill="none" fill-rule="evenodd">
        <g id="Icon/check-circle" fill="#00205B">
            <path d="M6.4448,11.5008 C6.3456,11.5008 6.2464,11.4624 6.17173333,11.3866667 L3.41013333,8.5888 C3.26186667,8.43733333 3.26293333,8.19413333 3.41333333,8.0448 C3.5648,7.89653333 3.80693333,7.8976 3.95626667,8.04906667 L6.44906667,10.5749333 L12.5312,4.60906667 C12.6826667,4.45973333 12.9248,4.46293333 13.0741333,4.6144 C13.2224,4.76586667 13.2202667,5.00906667 13.0688,5.15733333 L6.7136,11.3909333 C6.63893333,11.4645333 6.54186667,11.5008 6.4448,11.5008 Z M8,0.768 C4.0128,0.768 0.769066667,4.0128 0.769066667,8 C0.769066667,11.9882667 4.0128,15.232 8,15.232 C11.9872,15.232 15.2309333,11.9882667 15.2309333,8 C15.2309333,4.0128 11.9872,0.768 8,0.768 Z M8,16 C3.58826667,16 2.66453526e-14,12.4117333 2.66453526e-14,8 C2.66453526e-14,3.58933333 3.58826667,1.77635684e-15 8,1.77635684e-15 C12.4117333,1.77635684e-15 16,3.58933333 16,8 C16,12.4117333 12.4117333,16 8,16 Z" id="Icon-Color"></path>
        </g>
    </g>
</svg>