<?xml version="1.0" encoding="UTF-8"?>
<svg width="256px" height="256px" viewBox="0 0 256 256" version="1.1" xmlns="http://www.w3.org/2000/svg" xmlns:xlink="http://www.w3.org/1999/xlink">
    
    <title>chevron-down</title>
    <desc>Created with sketchtool.</desc>
    <defs></defs>
    <g id="Page-1" stroke="none" stroke-width="1" fill="none" fill-rule="evenodd">
        <g id="chevron-down" fill="#030001">
            <path d="M78.4514768,240 C75.6160196,240 73.3319355,239.133623 71.5991561,237.400844 C69.8663767,235.668064 69,233.38398 69,230.548523 L69,222.514768 C69,219.049209 69.6300922,216.135033 70.8902954,213.772152 C72.1504986,211.409271 74.3558211,208.652618 77.5063291,205.50211 L154.413218,130.870572 C155.998592,129.332104 156.036615,126.799729 154.498146,125.214356 C154.470264,125.185623 154.441951,125.15731 154.413218,125.129428 L77.5063291,50.4978903 C74.3558211,47.3473823 72.1504986,44.5907291 70.8902954,42.2278481 C69.6300922,39.8649671 69,36.9507909 69,33.4852321 L69,25.4514768 C69,22.6160196 69.8663767,20.3319355 71.5991561,18.5991561 C73.3319355,16.8663767 75.6160196,16 78.4514768,16 C81.6019848,16 85.3825377,17.8902765 89.7932489,21.6708861 L178.637131,107.679325 C181.013318,110.055513 187.25333,118.286589 187.25333,128 C187.25333,137.713411 180.986705,145.971101 178.637131,148.320675 L89.7932489,234.329114 C85.3825377,238.109724 81.6019848,240 78.4514768,240 Z" id="›" transform="translate(128.126665, 128.000000) scale(1, -1) rotate(-90.000000) translate(-128.126665, -128.000000) "></path>
        </g>
    </g>
</svg>