<?xml version="1.0" encoding="UTF-8"?>
<svg width="16px" height="16px" viewBox="0 0 16 16" version="1.1" xmlns="http://www.w3.org/2000/svg" xmlns:xlink="http://www.w3.org/1999/xlink">
    
    <title>Icon/circle-slash</title>
    <desc>Created with sketchtool.</desc>
    <g id="Icons" stroke="none" stroke-width="1" fill="none" fill-rule="evenodd">
        <g id="Icon/circle-slash" fill="#00205B">
            <path d="M7.9995,14.868 C6.2645,14.868 4.6835,14.217 3.4735,13.151 L13.0465,3.357 C14.1725,4.581 14.8675,6.209 14.8675,8 C14.8675,11.787 11.7865,14.868 7.9995,14.868 M1.1325,8 C1.1325,4.213 4.2125,1.132 7.9995,1.132 C9.7365,1.132 11.3205,1.785 12.5315,2.852 L2.9575,12.647 C1.8285,11.423 1.1325,9.793 1.1325,8 M7.9995,0.411 C3.8155,0.411 0.4115,3.815 0.4115,8 C0.4115,12.184 3.8155,15.589 7.9995,15.589 C12.1845,15.589 15.5885,12.184 15.5885,8 C15.5885,3.815 12.1845,0.411 7.9995,0.411" id="Icon-Color"></path>
        </g>
    </g>
</svg>