<?xml version="1.0" encoding="UTF-8"?>
<svg width="16px" height="16px" viewBox="0 0 16 16" version="1.1" xmlns="http://www.w3.org/2000/svg" xmlns:xlink="http://www.w3.org/1999/xlink">
    
    <title>Icon/close</title>
    <desc>Created with sketchtool.</desc>
    <g id="Icons" stroke="none" stroke-width="1" fill="none" fill-rule="evenodd">
        <g id="Icon/close" fill="#00205B">
            <path d="M8.76706137,7.99965167 L15.8406742,0.926038828 C16.0531086,0.713604448 16.0531086,0.371600164 15.8406742,0.159165785 C15.6297465,-0.0532685948 15.2847289,-0.0532685948 15.0738012,0.159165785 L7.9986817,7.23277863 L0.926575484,0.159165785 C0.714141105,-0.0532685948 0.370630194,-0.0532685948 0.158195814,0.159165785 C-0.0527319381,0.371600164 -0.0527319381,0.713604448 0.158195814,0.926038828 L7.23180866,7.99965167 L0.158195814,15.0732645 C-0.0527319381,15.2856989 -0.0527319381,15.6277032 0.158195814,15.8401376 C0.263659691,15.9456014 0.403775983,15.99984 0.542385649,15.99984 C0.680995315,15.99984 0.821111608,15.9456014 0.926575484,15.8401376 L7.9986817,8.76652471 L15.0738012,15.8401376 C15.179265,15.9456014 15.3193813,15.99984 15.4564844,15.99984 C15.595094,15.99984 15.7352103,15.9456014 15.8406742,15.8401376 C16.0531086,15.6277032 16.0531086,15.2856989 15.8406742,15.0732645 L8.76706137,7.99965167 Z" id="Icon-Color"></path>
        </g>
    </g>
</svg>