<?xml version="1.0" encoding="UTF-8"?>
<svg width="16px" height="16px" viewBox="0 0 16 16" version="1.1" xmlns="http://www.w3.org/2000/svg" xmlns:xlink="http://www.w3.org/1999/xlink">
    
    <title>Icon/coupon</title>
    <desc>Created with sketchtool.</desc>
    <g id="Icons" stroke="none" stroke-width="1" fill="none" fill-rule="evenodd">
        <g id="Icon/coupon" fill="#00205B">
            <path d="M14.8191773,5.8384 L15.2221773,6.2414 C15.7771773,6.7954 15.7771773,7.6934 15.2221773,8.2484 L15.2221773,8.2484 L12.1421773,11.3284 L13.0931773,12.2794 C13.5781773,12.2184 14.0841773,12.3654 14.4541773,12.7364 C14.7611773,13.0444 14.9311773,13.4544 14.9311773,13.8914 C14.9311773,14.3274 14.7611773,14.7374 14.4541773,15.0464 C14.1351773,15.3634 13.7161773,15.5224 13.2991773,15.5224 C12.8811773,15.5224 12.4631773,15.3634 12.1451773,15.0464 C11.8371773,14.7374 11.6671773,14.3274 11.6671773,13.8914 C11.6671773,13.8214 11.6781773,13.7534 11.6871773,13.6854 L11.6871773,13.6854 L10.7361773,12.7344 L9.78617733,13.6844 C9.79417733,13.7534 9.80517733,13.8204 9.80517733,13.8914 C9.80517733,14.3274 9.63517733,14.7374 9.32817733,15.0464 C9.00917733,15.3634 8.59117733,15.5224 8.17317733,15.5224 C7.75517733,15.5224 7.33717733,15.3634 7.01917733,15.0464 C6.71117733,14.7374 6.54117733,14.3274 6.54117733,13.8914 C6.54117733,13.4544 6.71117733,13.0444 7.01917733,12.7364 C7.38917733,12.3654 7.89417733,12.2174 8.37917733,12.2784 L8.37917733,12.2784 L9.33017733,11.3284 L6.25017733,8.2484 C5.69517733,7.6934 5.69517733,6.7954 6.25017733,6.2414 L6.25017733,6.2414 L6.65317733,5.8384 L10.7361773,9.9214 L14.8191773,5.8384 Z M13.2991773,12.9784 C13.0651773,12.9784 12.8321773,13.0674 12.6541773,13.2464 L12.6541773,13.2464 C12.4811773,13.4184 12.3861773,13.6464 12.3861773,13.8914 C12.3861773,14.1354 12.4811773,14.3644 12.6541773,14.5364 C13.0091773,14.8924 13.5881773,14.8914 13.9451773,14.5364 C14.1171773,14.3644 14.2121773,14.1354 14.2121773,13.8914 C14.2121773,13.6464 14.1171773,13.4184 13.9451773,13.2464 C13.7661773,13.0684 13.5331773,12.9784 13.2991773,12.9784 Z M8.17317733,12.9784 C7.93917733,12.9784 7.70617733,13.0674 7.52817733,13.2464 C7.35517733,13.4184 7.26017733,13.6464 7.26017733,13.8914 C7.26017733,14.1354 7.35517733,14.3644 7.52817733,14.5364 C7.88417733,14.8924 8.46317733,14.8914 8.81917733,14.5364 C8.99117733,14.3644 9.08617733,14.1354 9.08617733,13.8914 C9.08617733,13.6464 8.99117733,13.4184 8.81917733,13.2464 L8.81917733,13.2464 C8.64017733,13.0674 8.40717733,12.9784 8.17317733,12.9784 Z M5.35337733,12.5951 C5.55237733,12.5951 5.71337733,12.7561 5.71337733,12.9551 C5.71337733,13.1301 5.59011171,13.2752406 5.42598085,13.3087914 L5.35337733,13.3161 L3.73637733,13.3161 C3.53737733,13.3161 3.37537733,13.1551 3.37537733,12.9551 C3.37537733,12.780975 3.49940858,12.6359438 3.66373085,12.6024066 L3.73637733,12.5951 L5.35337733,12.5951 Z M0.725977331,9.3611 C0.901227331,9.3611 1.04614921,9.4836 1.08101249,9.64686953 L1.08897733,9.7191 L1.10197733,11.7461 C1.10381066,12.1686833 1.34932455,12.5299264 1.65442814,12.587199 L1.73897733,12.5951 C1.94097733,12.5951 2.10197733,12.7551 2.10298199,12.9531 C2.10385291,13.1281 1.98146178,13.2740062 1.81753593,13.3084184 L1.74497733,13.3161 C1.03909498,13.3161 0.459883905,12.695145 0.389181687,11.9009353 L0.381977331,11.7501 L0.367972669,9.7231 C0.367101748,9.54985 0.489492883,9.4041625 0.653418728,9.36910781 L0.725977331,9.3611 L0.727977331,9.3611 Z M0.736177331,5.556 C0.910302331,5.556 1.05533358,5.67926562 1.08887069,5.84339648 L1.09617733,5.916 L1.09617733,7.838 C1.09617733,8.037 0.935177331,8.199 0.736177331,8.199 C0.562052331,8.199 0.417021081,8.07496875 0.383483972,7.91064648 L0.376177331,7.838 L0.376177331,5.916 C0.376177331,5.717 0.537177331,5.556 0.736177331,5.556 Z M11.8533773,5.433 C12.0275023,5.433 12.1725336,5.55626562 12.2060707,5.72039648 L12.2133773,5.793 L12.2133773,6.883 C12.2133773,7.082 12.0523773,7.244 11.8533773,7.244 C11.6792523,7.244 11.5342211,7.11996875 11.500684,6.95564648 L11.4933773,6.883 L11.4933773,5.793 C11.4933773,5.594 11.6543773,5.433 11.8533773,5.433 Z M10.8439773,0.4783 C11.5432714,0.4783 12.1229808,1.09925502 12.1937644,1.89263096 L12.2009773,2.0433 L12.213982,4.0703 C12.2148529,4.244425 12.0924618,4.39022187 11.927866,4.42529023 L11.8549773,4.4333 C11.6799773,4.4333 11.5356023,4.3108 11.5009031,4.14686055 L11.4929773,4.0743 L11.4799773,2.0473 C11.478144,1.62471667 11.2326301,1.26347361 10.9275265,1.20620104 L10.8429773,1.1983 L10.8409773,1.1983 L8.62097733,1.2103 C8.42097733,1.2103 8.25997733,1.0503 8.25897267,0.8523 C8.25810175,0.6773 8.38049288,0.53139375 8.54441873,0.496981641 L8.61697733,0.4893 L10.8369773,0.4783 Z M1.73857733,0.478 L3.95757733,0.49 C4.15757733,0.491 4.31757733,0.653 4.31658199,0.852 C4.31570291,1.026125 4.18467115,1.15201562 4.02397187,1.19617578 L3.95357733,1.21 L1.73457733,1.199 C1.41741066,1.199 1.145619,1.5241875 1.10098242,1.9334728 L1.09457733,2.047 L1.08157733,4.075 C1.07982733,4.24825 0.957108581,4.39240625 0.793811706,4.42573828 L0.721577331,4.433 C0.545702331,4.43125 0.401217956,4.307 0.368511708,4.14332031 L0.361572669,4.071 L0.373577331,2.043 C0.37922439,1.22982353 0.919016777,0.561034602 1.60194615,0.485167311 L1.73157733,0.478 L1.73857733,0.478 Z M7.11877733,0.4776 C7.31777733,0.4776 7.47977733,0.6386 7.47977733,0.8386 C7.47977733,1.012725 7.35574608,1.15775625 7.19142382,1.19129336 L7.11877733,1.1986 L5.50077733,1.1986 C5.30177733,1.1986 5.14077733,1.0376 5.14077733,0.8386 C5.14077733,0.6636 5.26404296,0.518459375 5.42817382,0.484908594 L5.50077733,0.4776 L7.11877733,0.4776 Z" id="Icon-Color"></path>
        </g>
    </g>
</svg>