<?xml version="1.0" encoding="UTF-8"?>
<svg width="16px" height="16px" viewBox="0 0 16 16" version="1.1" xmlns="http://www.w3.org/2000/svg" xmlns:xlink="http://www.w3.org/1999/xlink">
    
    <title>Icon/coupon</title>
    <desc>Created with sketchtool.</desc>
    <g id="Icons" stroke="none" stroke-width="1" fill="none" fill-rule="evenodd">
        <g id="Icon/coupon" fill="#00205B">
            <path d="M0.736177331,5.556 C0.935177331,5.556 1.09617733,5.717 1.09617733,5.916 L1.09617733,7.838 C1.09617733,8.037 0.935177331,8.199 0.736177331,8.199 C0.537177331,8.199 0.376177331,8.037 0.376177331,7.838 L0.376177331,5.916 C0.376177331,5.717 0.537177331,5.556 0.736177331,5.556 Z M11.8533773,5.433 C12.0523773,5.433 12.2133773,5.594 12.2133773,5.793 L12.2133773,6.883 C12.2133773,7.082 12.0523773,7.244 11.8533773,7.244 C11.6543773,7.244 11.4933773,7.082 11.4933773,6.883 L11.4933773,5.793 C11.4933773,5.594 11.6543773,5.433 11.8533773,5.433 Z M5.35337733,12.5951 C5.55237733,12.5951 5.71337733,12.7561 5.71337733,12.9551 C5.71337733,13.1551 5.55237733,13.3161 5.35337733,13.3161 L3.73637733,13.3161 C3.53737733,13.3161 3.37537733,13.1551 3.37537733,12.9551 C3.37537733,12.7561 3.53737733,12.5951 3.73637733,12.5951 L5.35337733,12.5951 Z M5.50077733,1.1986 C5.30177733,1.1986 5.14077733,1.0376 5.14077733,0.8386 C5.14077733,0.6386 5.30177733,0.4776 5.50077733,0.4776 L7.11877733,0.4776 C7.31777733,0.4776 7.47977733,0.6386 7.47977733,0.8386 C7.47977733,1.0376 7.31777733,1.1986 7.11877733,1.1986 L5.50077733,1.1986 Z M1.74297733,12.5951 C1.94097733,12.5951 2.10197733,12.7551 2.10298199,12.9531 C2.10397733,13.1531 1.94397733,13.3151 1.74497733,13.3161 L1.73797733,13.3161 C0.994977331,13.3161 0.387977331,12.6151 0.381977331,11.7501 L0.367972669,9.7231 C0.366977331,9.5251 0.526977331,9.3631 0.725977331,9.3611 L0.727977331,9.3611 C0.925977331,9.3611 1.08697733,9.5211 1.08897733,9.7191 L1.10197733,11.7461 C1.10397733,12.2071 1.39597733,12.5951 1.73897733,12.5951 L1.74297733,12.5951 Z M8.61897733,1.2103 C8.42097733,1.2103 8.25997733,1.0503 8.25897267,0.8523 C8.25797733,0.6523 8.41797733,0.4903 8.61697733,0.4893 L10.8369773,0.4783 L10.8439773,0.4783 C11.5869773,0.4783 12.1949773,1.1793 12.2009773,2.0433 L12.213982,4.0703 C12.2149773,4.2693 12.0549773,4.4313 11.8549773,4.4333 L11.8529773,4.4333 C11.6549773,4.4333 11.4949773,4.2733 11.4929773,4.0743 L11.4799773,2.0473 C11.4779773,1.5863 11.1859773,1.1983 10.8429773,1.1983 L10.8409773,1.1983 L8.62097733,1.2103 L8.61897733,1.2103 Z M0.719577331,4.433 C0.520577331,4.431 0.360577331,4.269 0.361572669,4.071 L0.373577331,2.043 C0.379577331,1.179 0.988577331,0.478 1.73157733,0.478 L1.73857733,0.478 L3.95757733,0.49 C4.15757733,0.491 4.31757733,0.653 4.31658199,0.852 C4.31557733,1.051 4.14457733,1.187 3.95357733,1.21 L1.73457733,1.199 L1.73257733,1.199 C1.38857733,1.199 1.09657733,1.586 1.09457733,2.047 L1.08157733,4.075 C1.07957733,4.273 0.919577331,4.433 0.721577331,4.433 L0.719577331,4.433 Z M13.9451773,13.2464 C13.7661773,13.0684 13.5331773,12.9784 13.2991773,12.9784 C13.0651773,12.9784 12.8321773,13.0674 12.6541773,13.2464 L12.6531773,13.2464 C12.4811773,13.4184 12.3861773,13.6464 12.3861773,13.8914 C12.3861773,14.1354 12.4811773,14.3644 12.6541773,14.5364 C13.0091773,14.8924 13.5881773,14.8914 13.9451773,14.5364 C14.1171773,14.3644 14.2121773,14.1354 14.2121773,13.8914 C14.2121773,13.6464 14.1171773,13.4184 13.9451773,13.2464 Z M8.81917733,14.5364 C8.99117733,14.3644 9.08617733,14.1354 9.08617733,13.8914 C9.08617733,13.6464 8.99117733,13.4184 8.81917733,13.2464 L8.81817733,13.2464 C8.64017733,13.0674 8.40717733,12.9784 8.17317733,12.9784 C7.93917733,12.9784 7.70617733,13.0674 7.52817733,13.2464 C7.35517733,13.4184 7.26017733,13.6464 7.26017733,13.8914 C7.26017733,14.1354 7.35517733,14.3644 7.52817733,14.5364 C7.88417733,14.8924 8.46317733,14.8914 8.81917733,14.5364 Z M15.2221773,8.2484 L12.1421773,11.3284 L13.0931773,12.2794 C13.5781773,12.2184 14.0841773,12.3654 14.4541773,12.7364 C14.7611773,13.0444 14.9311773,13.4544 14.9311773,13.8914 C14.9311773,14.3274 14.7611773,14.7374 14.4541773,15.0464 C14.1351773,15.3634 13.7161773,15.5224 13.2991773,15.5224 C12.8811773,15.5224 12.4631773,15.3634 12.1451773,15.0464 C11.8371773,14.7374 11.6671773,14.3274 11.6671773,13.8914 C11.6671773,13.8214 11.6781773,13.7534 11.6871773,13.6854 L10.7361773,12.7344 L9.78617733,13.6844 C9.79417733,13.7534 9.80517733,13.8204 9.80517733,13.8914 C9.80517733,14.3274 9.63517733,14.7374 9.32817733,15.0464 C9.00917733,15.3634 8.59117733,15.5224 8.17317733,15.5224 C7.75517733,15.5224 7.33717733,15.3634 7.01917733,15.0464 C6.71117733,14.7374 6.54117733,14.3274 6.54117733,13.8914 C6.54117733,13.4544 6.71117733,13.0444 7.01917733,12.7364 C7.38917733,12.3654 7.89417733,12.2174 8.37917733,12.2784 L9.33017733,11.3284 L6.25017733,8.2484 C5.69517733,7.6934 5.69517733,6.7954 6.25017733,6.2414 L6.65317733,5.8384 L10.7361773,9.9214 L14.8191773,5.8384 L15.2221773,6.2414 C15.7771773,6.7954 15.7771773,7.6934 15.2221773,8.2484 Z" id="Icon-Color"></path>
        </g>
    </g>
</svg>