<?xml version="1.0" encoding="UTF-8" standalone="no"?>
<svg width="256px" height="256px" viewBox="0 0 256 256" version="1.1" xmlns="http://www.w3.org/2000/svg" xmlns:xlink="http://www.w3.org/1999/xlink">
    <!-- Generator: sketchtool 41 (35326) - http://www.bohemiancoding.com/sketch -->
    <title>credit-card</title>
    <desc>Created with sketchtool.</desc>
    <defs></defs>
    <g id="Page-1" stroke="none" stroke-width="1" fill="none" fill-rule="evenodd">
        <g id="credit-card" fill="#000000">
            <path d="M206,56 L50,56 C44.999975,56 40.7500175,57.7499825 37.25,61.25 C33.7499825,64.7500175 32,68.999975 32,74 L32,182 C32,187.000025 33.7499825,191.249982 37.25,194.75 C40.7500175,198.250018 44.999975,200 50,200 L206,200 C211.000025,200 215.249982,198.250018 218.75,194.75 C222.250018,191.249982 224,187.000025 224,182 L224,74 C224,68.999975 222.250018,64.7500175 218.75,61.25 C215.249982,57.7499825 211.000025,56 206,56 Z M50,68 L206,68 C207.625008,68 209.031244,68.5937441 210.21875,69.78125 C211.406256,70.9687559 212,72.3749919 212,74 L212,92 L44,92 L44,74 C44,72.3749919 44.5937441,70.9687559 45.78125,69.78125 C46.9687559,68.5937441 48.3749919,68 50,68 Z M206,188 L50,188 C48.3749919,188 46.9687559,187.406256 45.78125,186.21875 C44.5937441,185.031244 44,183.625008 44,182 L44,128 L212,128 L212,182 C212,183.625008 211.406256,185.031244 210.21875,186.21875 C209.031244,187.406256 207.625008,188 206,188 Z M56,176 L68,176 L68,152 L56,152 L56,176 Z M80,176 L92,176 L92,152 L80,152 L80,176 Z M104,176 L116,176 L116,152 L104,152 L104,176 Z"></path>
        </g>
    </g>
</svg>