<?xml version="1.0" encoding="UTF-8"?>
<svg width="256px" height="256px" viewBox="0 0 256 256" version="1.1" xmlns="http://www.w3.org/2000/svg" xmlns:xlink="http://www.w3.org/1999/xlink">
    <!-- Generator: sketchtool 42 (36781) - http://www.bohemiancoding.com/sketch -->
    <title>credit-card</title>
    <desc>Created with sketchtool.</desc>
    <defs></defs>
    <g id="Page-1" stroke="none" stroke-width="1" fill="none" fill-rule="evenodd">
        <g id="credit-card" fill="#000000" fill-rule="nonzero">
            <path d="M232,32 L24,32 C17.3333,32 11.66669,34.33331 7,39 C2.33331,43.66669 0,49.3333 0,56 L0,200 C0,206.6667 2.33331,212.33331 7,217 C11.66669,221.66669 17.3333,224 24,224 L232,224 C238.6667,224 244.33331,221.66669 249,217 C253.66669,212.33331 256,206.6667 256,200 L256,56 C256,49.3333 253.66669,43.66669 249,39 C244.33331,34.33331 238.6667,32 232,32 Z M24,48 L232,48 C234.166678,48 236.041659,48.7916588 237.625,50.375 C239.208341,51.9583412 240,53.8333225 240,56 L240,80 L16,80 L16,56 C16,53.8333225 16.7916588,51.9583412 18.375,50.375 C19.9583412,48.7916588 21.8333225,48 24,48 Z M232,208 L24,208 C21.8333225,208 19.9583412,207.208341 18.375,205.625 C16.7916588,204.041659 16,202.166678 16,200 L16,128 L240,128 L240,200 C240,202.166678 239.208341,204.041659 237.625,205.625 C236.041659,207.208341 234.166678,208 232,208 Z M32,192 L48,192 L48,160 L32,160 L32,192 Z M64,192 L80,192 L80,160 L64,160 L64,192 Z M96,192 L112,192 L112,160 L96,160 L96,192 Z"></path>
        </g>
    </g>
</svg>