<?xml version="1.0" encoding="UTF-8"?>
<svg width="256px" height="256px" viewBox="0 0 256 256" version="1.1" xmlns="http://www.w3.org/2000/svg" xmlns:xlink="http://www.w3.org/1999/xlink">
    
    <title>cta-arrow</title>
    <desc>Created with sketchtool.</desc>
    <defs></defs>
    <g id="Page-1" stroke="none" stroke-width="1" fill="none" fill-rule="evenodd">
        <g id="cta-arrow" fill="#000000">
            <path d="M58.9896907,240 C56.5927715,240 54.6619489,239.267981 53.1971649,237.803922 C51.732381,236.339862 51,234.409994 51,232.01426 L51,214.445633 C51,211.517514 51.6658009,209.121816 52.9974227,207.258467 C54.3290445,205.395118 56.7259277,203.265609 60.1881443,200.869875 L166.850515,127.800357 L60.1881443,54.7308378 C56.7259277,52.6012965 54.3290445,50.6048816 52.9974227,48.741533 C51.6658009,46.8781844 51,44.4824864 51,41.5543672 L51,23.9857398 C51,21.5900058 51.732381,19.660138 53.1971649,18.1960784 C54.6619489,16.7320188 56.5927715,16 58.9896907,16 C61.3866099,16 64.5824543,17.3309433 68.5773196,19.9928699 L194.414948,106.238859 C198.676138,109.433171 201.672242,112.361246 203.403351,115.023173 C205.134459,117.685099 206,120.879363 206,124.606061 L206,131.393939 C206,135.120637 205.067879,138.314901 203.203608,140.976827 C201.339338,143.638754 198.409814,146.433735 194.414948,149.361854 L68.5773196,236.00713 C64.5824543,238.669057 61.3866099,240 58.9896907,240 Z" id="&gt;"></path>
        </g>
    </g>
</svg>