<?xml version="1.0" encoding="UTF-8"?>
<svg width="256px" height="256px" viewBox="0 0 256 256" version="1.1" xmlns="http://www.w3.org/2000/svg" xmlns:xlink="http://www.w3.org/1999/xlink">
    
    <title>dots-circle-o</title>
    <desc>Created with sketchtool.</desc>
    <defs></defs>
    <g id="Page-1" stroke="none" stroke-width="1" fill="none" fill-rule="evenodd">
        <g id="dots-circle-o" fill="#000000">
            <path d="M128,24.8543689 C155.551068,24.8543689 181.453049,35.5833786 200.935146,55.0648544 C220.416,74.5469515 231.145631,100.448932 231.145631,128 C231.145631,155.551068 220.416,181.453049 200.935146,200.935146 C181.453049,220.416621 155.551068,231.145631 128,231.145631 C100.448311,231.145631 74.5469515,220.416621 55.0648544,200.935146 C35.5827573,181.45367 24.8543689,155.551068 24.8543689,128 C24.8543689,100.448932 35.5833786,74.5469515 55.0648544,55.0648544 C74.5463301,35.5827573 100.448311,24.8543689 128,24.8543689 L128,24.8543689 Z M128,0 C57.3073398,0 0,57.3073398 0,128 C0,198.69266 57.3073398,256 128,256 C198.69266,256 256,198.69266 256,128 C256,57.3073398 198.69266,0 128,0 L128,0 Z M89.5633398,128 C89.5633398,138.699806 80.8897864,147.373981 70.1899806,147.373981 C59.4895534,147.373981 50.816,138.699806 50.816,128 C50.816,117.299573 59.4895534,108.625398 70.1899806,108.625398 C80.8897864,108.625398 89.5633398,117.299573 89.5633398,128 L89.5633398,128 Z M128,108.625398 C117.299573,108.625398 108.625398,117.299573 108.625398,128 C108.625398,138.699806 117.299573,147.373981 128,147.373981 C138.699806,147.373981 147.373981,138.699806 147.373981,128 C147.373981,117.299573 138.699806,108.625398 128,108.625398 L128,108.625398 Z M185.809398,108.625398 C175.109592,108.625398 166.43666,117.299573 166.43666,128 C166.43666,138.699806 175.109592,147.373981 185.809398,147.373981 C196.510447,147.373981 205.184,138.699806 205.184,128 C205.184,117.299573 196.510447,108.625398 185.809398,108.625398 L185.809398,108.625398 Z"></path>
        </g>
    </g>
</svg>