<?xml version="1.0" encoding="UTF-8"?>
<svg width="16px" height="16px" viewBox="0 0 16 16" version="1.1" xmlns="http://www.w3.org/2000/svg" xmlns:xlink="http://www.w3.org/1999/xlink">
    
    <title>Icon/edit</title>
    <desc>Created with sketchtool.</desc>
    <g id="Icons" stroke="none" stroke-width="1" fill="none" fill-rule="evenodd">
        <g id="Icon/edit" fill="#00205B">
            <path d="M14.1992303,3.662 L13.8062303,4.053 L11.9572303,2.2 L12.3472303,1.81 C12.5952303,1.564 12.9232303,1.429 13.2732303,1.429 L13.2742303,1.429 C13.6252303,1.429 13.9532303,1.565 14.1992303,1.812 C14.4452303,2.058 14.5812303,2.386 14.5812303,2.737 C14.5802303,3.088 14.4452303,3.416 14.1992303,3.662 L14.1992303,3.662 Z M1.75223026,14.24 L2.98623026,11.396 L4.59623026,13.01 L1.75223026,14.24 Z M11.4482303,2.709 L13.2982303,4.562 L5.22523026,12.62 L3.37723026,10.768 L11.4482303,2.709 Z M15.3012303,2.737 C15.3012303,2.194 15.0912303,1.684 14.7092303,1.303 C14.3272303,0.92 13.8182303,0.709 13.2752303,0.709 L13.2732303,0.709 C12.7302303,0.709 12.2212303,0.919 11.8402303,1.3 L11.8392303,1.3 L11.1932303,1.945 C11.1932303,1.946 11.1932303,1.946 11.1922303,1.947 L2.61423026,10.513 C2.60723026,10.519 2.59423026,10.533 2.58823026,10.539 C2.56323026,10.567 2.55323026,10.589 2.53723026,10.624 L0.728230257,14.788 C0.670230257,14.924 0.699230257,15.081 0.803230257,15.186 C0.873230257,15.255 0.965230257,15.291 1.05823026,15.291 C1.10623026,15.291 1.15523026,15.282 1.20123026,15.262 L5.36823026,13.46 C5.40223026,13.446 5.43123026,13.43 5.45923026,13.406 C5.46723026,13.399 5.47223026,13.391 5.47923026,13.384 L14.0602303,4.817 L14.0602303,4.816 L14.7072303,4.172 C15.0902303,3.79 15.3012303,3.281 15.3012303,2.737 L15.3012303,2.737 Z" id="Icon-Color"></path>
        </g>
    </g>
</svg>