<?xml version="1.0" encoding="UTF-8"?>
<svg width="16px" height="16px" viewBox="0 0 16 16" version="1.1" xmlns="http://www.w3.org/2000/svg" xmlns:xlink="http://www.w3.org/1999/xlink">
    
    <title>Icon/envelope-circle</title>
    <desc>Created with sketchtool.</desc>
    <g id="Icons" stroke="none" stroke-width="1" fill="none" fill-rule="evenodd">
        <g id="Icon/envelope-circle" fill="#00205B">
            <path d="M12.7597916,10.6981137 C12.7597916,10.8637911 12.6036013,11.0041419 12.4178616,11.0041419 L3.58256052,11.0041419 C3.39682079,11.0041419 3.23957523,10.8637911 3.23957523,10.6981137 L3.23957523,5.30146419 C3.23957523,5.13578684 3.39682079,4.99649123 3.58256052,4.99649123 L12.4178616,4.99649123 C12.6036013,4.99649123 12.7597916,5.13578684 12.7597916,5.30146419 L12.7597916,10.6981137 Z M12.4178616,4.23669701 L3.58256052,4.23669701 C2.97468505,4.23669701 2.47973089,4.7147342 2.47973089,5.30146419 L2.47973089,10.6981137 C2.47973089,11.285899 2.97468505,11.7628809 3.58256052,11.7628809 L12.4178616,11.7628809 C13.0257371,11.7628809 13.5206912,11.285899 13.5206912,10.6981137 L13.5206912,5.30146419 C13.5206912,4.7147342 13.0257371,4.23669701 12.4178616,4.23669701 L12.4178616,4.23669701 Z M7.99947233,0 C12.4107908,0 16,3.58791716 16,8 C16,12.4110276 12.4107908,16 7.99947233,16 C3.58815382,16 0,12.4110276 0,8 C0,3.58791716 3.58815382,0 7.99947233,0 Z M7.99947233,0.759794222 C4.00817888,0.759794222 0.760899677,4.00685925 0.760899677,8 C0.760899677,11.9920855 4.00817888,15.2402058 7.99947233,15.2402058 C11.9918211,15.2402058 15.2391003,11.9920855 15.2391003,8 C15.2391003,4.00685925 11.9918211,0.759794222 7.99947233,0.759794222 Z M3.96638744,5.59641208 C4.10252622,5.43495581 4.34208825,5.41596096 4.5014445,5.55103548 L4.5014445,5.55103548 L8.01361388,8.52373038 L11.4972891,5.55209075 C11.65559,5.41807149 11.8972627,5.43601108 12.0323462,5.59430154 C12.1695403,5.75364728 12.1494888,5.99424878 11.9901326,6.13037858 L11.9901326,6.13037858 L10.0440868,7.7903179 L11.708357,9.20965572 C11.8687686,9.34684079 11.8877647,9.58638702 11.7505705,9.74573275 C11.6756414,9.83332014 11.5690522,9.87869674 11.4624629,9.87869674 C11.3748697,9.87869674 11.2872766,9.84914919 11.2155135,9.78794354 L11.2155135,9.78794354 L9.4594288,8.28946049 L8.26161863,9.31201688 C8.18985555,9.37216726 8.10226238,9.40171481 8.01466922,9.40171481 C7.92707605,9.40171481 7.84053822,9.37216726 7.76983049,9.31201688 L7.76983049,9.31201688 L6.62584262,8.34433452 L4.82015698,9.88502836 C4.74839391,9.94623401 4.66080074,9.97578156 4.57320757,9.97578156 C4.4666183,9.97578156 4.36002902,9.93146023 4.28509993,9.84281757 C4.14790581,9.68347184 4.16795726,9.4439256 4.3273135,9.30779581 L4.3273135,9.30779581 L6.0380186,7.84730247 L4.01071169,6.13143385 C3.85030011,5.99530405 3.83024866,5.75575782 3.96638744,5.59641208 Z" id="envelope-circle"></path>
        </g>
    </g>
</svg>