<?xml version="1.0" encoding="UTF-8"?>
<svg width="256px" height="256px" viewBox="0 0 256 256" version="1.1" xmlns="http://www.w3.org/2000/svg" xmlns:xlink="http://www.w3.org/1999/xlink">
    
    <title>error</title>
    <desc>Created with sketchtool.</desc>
    <defs></defs>
    <g id="Page-1" stroke="none" stroke-width="1" fill="none" fill-rule="evenodd">
        <g id="error" fill="#000000" fill-rule="nonzero">
            <path d="M174.396,16 L81.604,16 L16,81.604 L16,174.386667 L81.604,240 L174.386667,240 L240,174.396 L240,81.604 L174.396,16 Z M128,195.666667 C121.56,195.666667 116.333333,190.44 116.333333,184 C116.333333,177.56 121.56,172.333333 128,172.333333 C134.44,172.333333 139.666667,177.56 139.666667,184 C139.666667,190.44 134.44,195.666667 128,195.666667 Z M133.133333,151.352 C132.862667,153.993333 130.650667,156 128,156 C125.349333,156 123.137333,153.993333 122.866667,151.352 L115.390667,76.592 C114.644,69.1253333 120.524,62.6666667 128,62.6666667 C135.476,62.6666667 141.356,69.1253333 140.609333,76.6013333 L133.133333,151.352 Z"></path>
        </g>
    </g>
</svg>