<?xml version="1.0" encoding="UTF-8"?>
<svg width="256px" height="256px" viewBox="0 0 256 256" version="1.1" xmlns="http://www.w3.org/2000/svg" xmlns:xlink="http://www.w3.org/1999/xlink">
    
    <title>facebook</title>
    <desc>Created with sketchtool.</desc>
    <defs></defs>
    <g id="Page-1" stroke="none" stroke-width="1" fill="none" fill-rule="evenodd">
        <g id="facebook" fill="#000000" fill-rule="nonzero">
            <path d="M128,16 C66.148,16 16,66.148 16,128 C16,189.852 66.148,240 128,240 C189.852,240 240,189.852 240,128 C240,66.148 189.852,16 128,16 Z M156,90.6666667 L143.4,90.6666667 C138.378667,90.6666667 137.333333,92.7293333 137.333333,97.928 L137.333333,109.333333 L156,109.333333 L154.049333,128 L137.333333,128 L137.333333,193.333333 L109.333333,193.333333 L109.333333,128 L90.6666667,128 L90.6666667,109.333333 L109.333333,109.333333 L109.333333,87.792 C109.333333,71.2813333 118.022667,62.6666667 137.604,62.6666667 L156,62.6666667 L156,90.6666667 Z"></path>
        </g>
    </g>
</svg>