<?xml version="1.0" encoding="UTF-8"?>
<svg width="16px" height="16px" viewBox="0 0 16 16" version="1.1" xmlns="http://www.w3.org/2000/svg" xmlns:xlink="http://www.w3.org/1999/xlink">
    
    <title>Icon/facebook</title>
    <desc>Created with sketchtool.</desc>
    <g id="Icons" stroke="none" stroke-width="1" fill="none" fill-rule="evenodd">
        <g id="Icon/facebook" fill="#00205B">
            <path d="M8,0 C12.418278,0 16,3.60974195 16,8.0625843 C16,12.0299624 13.1566886,15.3280544 9.41170013,16.0000364 L9.41190303,9.52479715 L11.3621173,9.52479715 C11.3621173,9.52479715 11.5447634,8.45976001 11.6332983,7.2952466 L9.42289245,7.2952466 L9.42289245,7.2952466 L9.42289245,5.77653878 L9.42289245,5.77653878 C9.42289245,5.54955008 9.73975947,5.24421959 10.0529416,5.24421959 L11.6363636,5.24421959 L11.6363636,5.24421959 L11.6363636,2.93184884 L11.6363636,2.93184884 L9.48344839,2.93184884 L9.48344839,2.93184884 C6.6032586,2.93170399 6.50732653,4.91490051 6.50555689,5.41485089 L6.50567452,7.3034366 L6.50567452,7.3034366 L5.09090909,7.3034366 L5.09090909,9.52461311 L6.50567452,9.52461311 L6.50544399,15.9847133 C2.80145363,15.279285 0,12.0006513 0,8.0625843 C0,3.60974195 3.581722,0 8,0 Z" id="Icon-Color"></path>
        </g>
    </g>
</svg>