<?xml version="1.0" encoding="UTF-8"?>
<svg width="16px" height="16px" viewBox="0 0 16 16" version="1.1" xmlns="http://www.w3.org/2000/svg" xmlns:xlink="http://www.w3.org/1999/xlink">
    
    <title>Icon/facebook</title>
    <desc>Created with sketchtool.</desc>
    <g id="Icons" stroke="none" stroke-width="1" fill="none" fill-rule="evenodd">
        <g id="Icon/facebook" fill="#00205B">
            <path d="M5.51828485,3.02311275 C5.51828485,3.41648505 5.51828485,5.1722705 5.51828485,5.1722705 L4,5.1722705 L4,7.80026893 L5.51828485,7.80026893 L5.51828485,15.6097561 L8.63716423,15.6097561 L8.63716423,7.80048668 L10.7300771,7.80048668 C10.7300771,7.80048668 10.9260876,6.54038154 11.0211007,5.16258046 C10.7486948,5.16258046 8.64895775,5.16258046 8.64895775,5.16258046 C8.64895775,5.16258046 8.64895775,3.6336945 8.64895775,3.36571212 C8.64895775,3.09714906 8.98901016,2.73589545 9.32510807,2.73589545 C9.66057605,2.73589545 10.3686074,2.73589545 11.0243902,2.73589545 C11.0243902,2.37808961 11.0243902,1.14179222 11.0243902,0 C10.1489399,0 9.15296463,0 8.71394461,0 C5.4411895,-0.000181461527 5.51828485,2.63043001 5.51828485,3.02311275 Z" id="Icon-Color"></path>
        </g>
    </g>
</svg>