<?xml version="1.0" encoding="UTF-8"?>
<svg width="16px" height="16px" viewBox="0 0 16 16" version="1.1" xmlns="http://www.w3.org/2000/svg" xmlns:xlink="http://www.w3.org/1999/xlink">
    
    <title>Icon/facebook</title>
    <desc>Created with sketchtool.</desc>
    <g id="Icons" stroke="none" stroke-width="1" fill="none" fill-rule="evenodd">
        <g id="Icon/facebook" fill="#00205B">
            <path d="M8.0141,0.1205 C3.5881,0.1205 0.0001,3.7085 0.0001,8.1345 C0.0001,12.1345 2.9301,15.4495 6.7621,16.0515 L6.7621,10.4505 L4.7271,10.4505 L4.7271,8.1345 L6.7621,8.1345 L6.7621,6.3685 C6.7621,4.3595 7.9581,3.2505 9.7881,3.2505 C10.6651,3.2505 11.5821,3.4075 11.5821,3.4075 L11.5821,5.3795 L10.5721,5.3795 C9.5761,5.3795 9.2661,5.9975 9.2661,6.6315 L9.2661,8.1345 L11.4891,8.1345 L11.1331,10.4505 L9.2661,10.4505 L9.2661,16.0515 C13.0971,15.4495 16.0291,12.1345 16.0291,8.1345 C16.0291,3.7085 12.4401,0.1205 8.0141,0.1205" id="Icon-Color"></path>
        </g>
    </g>
</svg>