<?xml version="1.0" encoding="UTF-8"?>
<svg width="16px" height="16px" viewBox="0 0 16 16" version="1.1" xmlns="http://www.w3.org/2000/svg" xmlns:xlink="http://www.w3.org/1999/xlink">
    
    <title>Icon/ffwd</title>
    <desc>Created with sketchtool.</desc>
    <g id="Icons" stroke="none" stroke-width="1" fill="none" fill-rule="evenodd">
        <g id="Icon/ffwd" fill="#00205B">
            <path d="M8.4705,12.4444294 L8.4705,3.54842943 L14.8685,7.95642943 L8.4705,12.4444294 Z M1.1625,12.4444294 L1.1625,3.54842943 L7.5615,7.95642943 L1.1625,12.4444294 Z M15.2825,7.45342943 L8.3175,2.56742943 C8.2055,2.49042943 8.0625,2.48142943 7.9445,2.54342943 C7.8245,2.60442943 7.7495,2.72742943 7.7495,2.86242943 L7.7495,7.29542943 L1.0095,2.56742943 C0.8975,2.49042943 0.7545,2.48142943 0.6365,2.54342943 C0.5175,2.60442943 0.4425,2.72742943 0.4425,2.86242943 L0.4425,13.1364294 C0.4425,13.2714294 0.5175,13.3944294 0.6365,13.4564294 C0.6885,13.4834294 0.7455,13.4974294 0.8025,13.4974294 C0.8745,13.4974294 0.9475,13.4744294 1.0095,13.4314294 L7.7495,8.70342943 L7.7495,13.1364294 C7.7495,13.2714294 7.8245,13.3944294 7.9445,13.4564294 C7.9955,13.4834294 8.0535,13.4974294 8.1105,13.4974294 C8.1825,13.4974294 8.2545,13.4744294 8.3175,13.4314294 L15.2825,8.54642943 C15.4535,8.42542943 15.5575,8.22142943 15.5575,8.00042943 C15.5575,7.77942943 15.4545,7.57642943 15.2825,7.45342943 L15.2825,7.45342943 Z" id="Icon-Color"></path>
        </g>
    </g>
</svg>