<?xml version="1.0" encoding="UTF-8"?>
<svg width="16px" height="16px" viewBox="0 0 16 16" version="1.1" xmlns="http://www.w3.org/2000/svg" xmlns:xlink="http://www.w3.org/1999/xlink">
    
    <title>Icon/gift-card</title>
    <desc>Created with sketchtool.</desc>
    <g id="Icons" stroke="none" stroke-width="1" fill="none" fill-rule="evenodd">
        <g id="Icon/gift-card" fill="#00205B">
            <path d="M14.4455,12.577 L10.3605,12.577 L10.3605,8.915 L10.4165,8.915 C10.5935,8.99 10.7675,9.044 10.9295,9.092 C11.5065,9.263 11.8225,9.357 11.9095,10.349 C11.9425,10.734 12.1085,11.055 12.3865,11.274 C12.7565,11.564 13.2395,11.621 13.5645,11.621 C13.7475,11.621 13.8805,11.603 13.9145,11.598 C14.1115,11.568 14.2465,11.385 14.2165,11.188 C14.1865,10.991 13.9975,10.851 13.8065,10.887 C13.6405,10.908 13.1165,10.931 12.8325,10.708 C12.7085,10.61 12.6425,10.476 12.6265,10.287 C12.5655,9.591 12.3705,9.181 12.1185,8.915 L15.1095,8.915 C15.1205,8.915 15.1295,8.91 15.1395,8.909 L15.1395,11.937 C15.1395,12.29 14.8285,12.577 14.4455,12.577 M0.8605,11.937 L0.8605,8.911 C0.8675,8.911 0.8735,8.915 0.8805,8.915 L8.5305,8.915 C8.5465,8.915 8.5615,8.92 8.5775,8.92 C8.5985,8.92 8.6185,8.916 8.6395,8.915 L8.9215,8.915 C8.4885,9.482 7.9965,9.906 6.8445,10.012 C5.4375,10.14 5.2415,11.154 5.2335,11.197 C5.1995,11.39 5.3265,11.571 5.5175,11.609 C5.5415,11.614 5.5645,11.616 5.5885,11.616 C5.7535,11.616 5.9035,11.499 5.9405,11.331 C5.9535,11.277 6.0835,10.805 6.9115,10.728 C8.4895,10.584 9.1165,9.887 9.6395,9.157 L9.6395,12.577 L1.5535,12.577 C1.1715,12.577 0.8605,12.29 0.8605,11.937 M1.5535,3.423 L9.6395,3.423 L9.6395,5.229 C9.5595,5.131 9.4775,5.035 9.3925,4.957 C8.9695,4.566 8.4205,4.356 7.8435,4.39 C7.2685,4.414 6.7375,4.661 6.3485,5.085 C5.9585,5.509 5.7575,6.058 5.7815,6.635 C5.8055,7.21 6.0525,7.741 6.4765,8.132 C6.5015,8.154 6.5365,8.173 6.5615,8.194 L0.8805,8.194 C0.8735,8.194 0.8675,8.198 0.8605,8.198 L0.8605,4.062 C0.8605,3.71 1.1715,3.423 1.5535,3.423 M9.4115,7.899 C8.9205,8.434 7.5945,8.181 6.9645,7.601 C6.6815,7.342 6.5165,6.987 6.5015,6.604 C6.4845,6.221 6.6185,5.854 6.8795,5.572 C7.1375,5.29 7.4915,5.126 7.8755,5.109 C7.8955,5.108 7.9165,5.108 7.9365,5.108 C8.2975,5.108 8.6385,5.241 8.9055,5.486 C8.9065,5.486 8.9065,5.486 8.9065,5.487 C9.5375,6.066 9.9015,7.365 9.4115,7.899 M10.5905,7.9 C10.0985,7.365 10.4635,6.066 11.0925,5.487 C11.6745,4.953 12.5855,4.988 13.1225,5.573 C13.3815,5.854 13.5145,6.222 13.4995,6.604 C13.4825,6.987 13.3185,7.342 13.0355,7.601 C12.4065,8.18 11.0805,8.433 10.5905,7.9 M15.1395,4.062 L15.1395,8.2 C15.1295,8.199 15.1205,8.194 15.1095,8.194 L13.4375,8.194 C13.4645,8.173 13.4985,8.154 13.5225,8.132 C13.9475,7.742 14.1945,7.21 14.2175,6.635 C14.2425,6.059 14.0415,5.509 13.6525,5.086 C12.8475,4.211 11.4805,4.152 10.6065,4.957 L10.6055,4.957 C10.5205,5.035 10.4395,5.129 10.3605,5.227 L10.3605,3.423 L14.4455,3.423 C14.8285,3.423 15.1395,3.71 15.1395,4.062 M14.4455,2.702 L1.5535,2.702 C0.7745,2.702 0.1395,3.312 0.1395,4.062 L0.1395,11.937 C0.1395,12.687 0.7745,13.298 1.5535,13.298 L14.4455,13.298 C15.2255,13.298 15.8605,12.687 15.8605,11.937 L15.8605,4.062 C15.8605,3.312 15.2255,2.702 14.4455,2.702" id="Icon-Color"></path>
        </g>
    </g>
</svg>