<?xml version="1.0" encoding="UTF-8"?>
<svg width="16px" height="16px" viewBox="0 0 16 16" version="1.1" xmlns="http://www.w3.org/2000/svg" xmlns:xlink="http://www.w3.org/1999/xlink">
    
    <title>Icon/grid</title>
    <desc>Created with sketchtool.</desc>
    <g id="Icons" stroke="none" stroke-width="1" fill="none" fill-rule="evenodd">
        <g id="Icon/grid" fill="#00205B">
            <path d="M9.377,14.571 L14.518,14.571 L14.518,9.428 L9.377,9.428 L9.377,14.571 Z M14.879,8.709 C15.053125,8.709 15.1981563,8.83226563 15.2316934,8.99639648 L15.239,9.069 L15.239,14.931 C15.239,15.105125 15.1157344,15.2501563 14.9516035,15.2836934 L14.879,15.291 L9.017,15.291 C8.842875,15.291 8.69784375,15.1677344 8.66430664,15.0036035 L8.657,14.931 L8.657,9.069 C8.657,8.894875 8.78026563,8.74984375 8.94439648,8.71630664 L9.017,8.709 L14.879,8.709 Z M6.916,8.709 C7.090125,8.709 7.23515625,8.83226563 7.26869336,8.99639648 L7.276,9.069 L7.276,14.931 C7.276,15.105125 7.15273438,15.2501563 6.98860352,15.2836934 L6.916,15.291 L1.052,15.291 C0.877875,15.291 0.73284375,15.1677344 0.699306641,15.0036035 L0.692,14.931 L0.692,9.069 C0.692,8.894875 0.815265625,8.74984375 0.979396484,8.71630664 L1.052,8.709 L6.916,8.709 Z M6.555,9.428 L1.412,9.428 L1.412,14.571 L6.555,14.571 L6.555,9.428 Z M9.088,0.709 L14.948,0.709 C15.122125,0.709 15.2671562,0.832265625 15.3006934,0.996396484 L15.308,1.069 L15.308,6.931 C15.308,7.105125 15.1847344,7.25015625 15.0206035,7.28369336 L14.948,7.291 L9.088,7.291 C8.913,7.291 8.76785937,7.16773438 8.73430859,7.00360352 L8.727,6.931 L8.727,1.069 C8.727,0.894875 8.85026562,0.74984375 9.01506641,0.716306641 L9.088,0.709 L14.948,0.709 Z M6.916,0.709 C7.115,0.709 7.276,0.87 7.276,1.069 L7.276,1.069 L7.276,6.931 C7.276,7.13 7.115,7.291 6.916,7.291 L6.916,7.291 L1.052,7.291 C0.853,7.291 0.692,7.13 0.692,6.931 L0.692,6.931 L0.692,1.069 C0.692,0.87 0.853,0.709 1.052,0.709 L1.052,0.709 Z M14.588,1.428 L9.448,1.428 L9.448,6.571 L14.588,6.571 L14.588,1.428 Z M6.555,1.428 L1.412,1.428 L1.412,6.571 L6.555,6.571 L6.555,1.428 Z" id="Icon-Color"></path>
        </g>
    </g>
</svg>