<?xml version="1.0" encoding="UTF-8" standalone="no"?>
<svg width="256px" height="256px" viewBox="0 0 256 256" version="1.1" xmlns="http://www.w3.org/2000/svg" xmlns:xlink="http://www.w3.org/1999/xlink">
    <!-- Generator: sketchtool 41 (35326) - http://www.bohemiancoding.com/sketch -->
    <title>heart-o</title>
    <desc>Created with sketchtool.</desc>
    <defs></defs>
    <g id="Page-1" stroke="none" stroke-width="1" fill="none" fill-rule="evenodd">
        <g id="heart-o" fill="#000000">
            <path d="M82.24,56 C108.128,56.008 122.024,83.928 128,96.248 C134,83.872 147.752,56.08 173.808,56.08 C190.272,56.08 208,66.552 208,89.536 C208,117.072 170.048,152.344 128,193.536 C85.936,152.328 48,117.064 48,89.536 C48,68.128 63.72,55.992 82.24,56 Z M82.248,40 C56.784,40 32,57.496 32,89.536 C32,126.824 76.56,164.952 128,216 C179.44,164.952 224,126.824 224,89.536 C224,57.448 199.224,40.08 173.808,40.08 C156.176,40.08 138.24,48.416 128,65.984 C117.72,48.336 99.824,40 82.248,40 L82.248,40 Z"></path>
        </g>
    </g>
</svg>