<?xml version="1.0" encoding="UTF-8"?>
<svg width="256px" height="256px" viewBox="0 0 256 256" version="1.1" xmlns="http://www.w3.org/2000/svg" xmlns:xlink="http://www.w3.org/1999/xlink">
    
    <title>heart-o</title>
    <desc>Created with sketchtool.</desc>
    <defs></defs>
    <g id="Page-1" stroke="none" stroke-width="1" fill="none" fill-rule="evenodd">
        <g id="heart-o" fill="#000000" fill-rule="nonzero">
            <path d="M74.6133333,43.6666667 C104.816,43.676 121.028,76.2493333 128,90.6226667 C135,76.184 151.044,43.76 181.442667,43.76 C200.650667,43.76 221.333333,55.9773333 221.333333,82.792 C221.333333,114.917333 177.056,156.068 128,204.125333 C78.9253333,156.049333 34.6666667,114.908 34.6666667,82.792 C34.6666667,57.816 53.0066667,43.6573333 74.6133333,43.6666667 Z M74.6226667,25 C44.9146667,25 16,45.412 16,82.792 C16,126.294667 67.9866667,170.777333 128,230.333333 C188.013333,170.777333 240,126.294667 240,82.792 C240,45.356 211.094667,25.0933333 181.442667,25.0933333 C160.872,25.0933333 139.946667,34.8186667 128,55.3146667 C116.006667,34.7253333 95.128,25 74.6226667,25 L74.6226667,25 Z"></path>
        </g>
    </g>
</svg>