<?xml version="1.0" encoding="UTF-8"?>
<svg width="16px" height="16px" viewBox="0 0 16 16" version="1.1" xmlns="http://www.w3.org/2000/svg" xmlns:xlink="http://www.w3.org/1999/xlink">
    
    <title>Icon/heart</title>
    <desc>Created with sketchtool.</desc>
    <g id="Icons" stroke="none" stroke-width="1" fill="none" fill-rule="evenodd">
        <g id="Icon/heart" fill="#00205B">
            <path d="M13.752,6.354625 C13.726,6.532625 13.571,6.660625 13.397,6.660625 C13.379,6.660625 13.36,6.659625 13.342,6.656625 C13.146,6.625625 13.011,6.442625 13.041,6.246625 C13.209,5.146625 12.525,4.093625 11.452,3.796625 C11.26,3.743625 11.148,3.544625 11.201,3.353625 C11.254,3.162625 11.451,3.050625 11.644,3.102625 C13.069,3.496625 13.976,4.895625 13.752,6.354625 M14.108,2.875625 C12.594,1.360625 10.138,1.360625 8.623,2.875625 L8,3.498625 L7.377,2.875625 C5.862,1.360625 3.406,1.360625 1.892,2.875625 C0.377,4.389625 0.377,6.845625 1.892,8.360625 L7.793,14.260625 L8.208,14.260625 L14.108,8.360625 C15.623,6.845625 15.623,4.389625 14.108,2.875625" id="Icon-Color"></path>
        </g>
    </g>
</svg>