<?xml version="1.0" encoding="UTF-8"?>
<svg width="16px" height="16px" viewBox="0 0 16 16" version="1.1" xmlns="http://www.w3.org/2000/svg" xmlns:xlink="http://www.w3.org/1999/xlink">
    
    <title>Icon/heart-o</title>
    <desc>Created with sketchtool.</desc>
    <g id="Icons" stroke="none" stroke-width="1" fill="none" fill-rule="evenodd">
        <g id="Icon/heart-o" fill="#00205B">
            <path d="M13.853,8.012 L8,13.866 L2.147,8.012 C0.775,6.64 0.775,4.408 2.147,3.036 C2.811,2.371 3.695,2.006 4.634,2.006 C5.574,2.006 6.457,2.371 7.123,3.036 L7.747,3.659 C7.887,3.799 8.115,3.8 8.255,3.659 L8.878,3.036 C10.207,1.707 12.525,1.707 13.853,3.036 C15.225,4.408 15.225,6.64 13.853,8.012 M14.363,2.527 C12.71,0.875 10.021,0.875 8.369,2.527 L8,2.896 L7.631,2.527 C5.979,0.875 3.29,0.875 1.637,2.527 C-0.015,4.179 -0.015,6.868 1.637,8.521 L7.544,14.428 L7.739,14.613 C7.808,14.679 7.897,14.712 7.987,14.712 C8.069,14.712 8.151,14.684 8.218,14.628 L14.363,8.521 C16.015,6.868 16.015,4.179 14.363,2.527 M11.4418,3.1292 C11.2478,3.0762 11.0518,3.1902 10.9998,3.3802 C10.9458,3.5722 11.0578,3.7702 11.2508,3.8232 C12.3238,4.1202 13.0068,5.1742 12.8388,6.2742 C12.8088,6.4702 12.9438,6.6532 13.1398,6.6842 C13.1588,6.6872 13.1768,6.6882 13.1948,6.6882 C13.3698,6.6882 13.5238,6.5602 13.5498,6.3822 C13.7738,4.9222 12.8678,3.5242 11.4418,3.1292" id="Icon-Color"></path>
        </g>
    </g>
</svg>