<?xml version="1.0" encoding="UTF-8"?>
<svg width="256px" height="256px" viewBox="0 0 256 256" version="1.1" xmlns="http://www.w3.org/2000/svg" xmlns:xlink="http://www.w3.org/1999/xlink">
    
    <title>heart-o</title>
    <desc>Created with sketchtool.</desc>
    <defs></defs>
    <g id="Page-1" stroke="none" stroke-width="1" fill="none" fill-rule="evenodd">
        <g id="heart-o" fill="#000000" fill-rule="nonzero">
            <path d="M66.9866667,32.3333333 C101.504,32.344 120.032,69.5706667 128,85.9973333 C136,69.496 154.336,32.44 189.077333,32.44 C211.029333,32.44 234.666667,46.4026667 234.666667,77.048 C234.666667,113.762667 184.064,160.792 128,215.714667 C71.9146667,160.770667 21.3333333,113.752 21.3333333,77.048 C21.3333333,48.504 42.2933333,32.3226667 66.9866667,32.3333333 Z M66.9973333,11 C33.0453333,11 0,34.328 0,77.048 C0,126.765333 59.4133333,177.602667 128,245.666667 C196.586667,177.602667 256,126.765333 256,77.048 C256,34.264 222.965333,11.1066667 189.077333,11.1066667 C165.568,11.1066667 141.653333,22.2213333 128,45.6453333 C114.293333,22.1146667 90.432,11 66.9973333,11 L66.9973333,11 Z"></path>
        </g>
    </g>
</svg>