<?xml version="1.0" encoding="UTF-8"?>
<svg width="16px" height="16px" viewBox="0 0 16 16" version="1.1" xmlns="http://www.w3.org/2000/svg" xmlns:xlink="http://www.w3.org/1999/xlink">
    
    <title>Icon/help</title>
    <desc>Created with sketchtool.</desc>
    <g id="Icons" stroke="none" stroke-width="1" fill="none" fill-rule="evenodd">
        <g id="Icon/help" fill="#00205B">
            <path d="M14.3045,8.882 C14.3045,9.129 14.1045,9.33 13.8575,9.33 C13.6105,9.33 13.4095,9.129 13.4095,8.882 L13.4095,7.302 C13.4095,7.055 13.6105,6.854 13.8575,6.854 C14.1045,6.854 14.3045,7.055 14.3045,7.302 L14.3045,8.882 Z M8.5335,14.821 L7.7935,14.821 C7.6315,14.821 7.4995,14.689 7.4995,14.526 L7.4995,14.469 C7.4995,14.307 7.6315,14.175 7.7935,14.175 L8.5335,14.175 C8.6965,14.175 8.8275,14.307 8.8275,14.526 C8.8275,14.689 8.6965,14.821 8.5335,14.821 L8.5335,14.821 Z M2.5895,8.882 C2.5895,9.129 2.3895,9.33 2.1425,9.33 C1.8955,9.33 1.6955,9.129 1.6955,8.882 L1.6955,7.302 C1.6955,7.055 1.8955,6.854 2.1425,6.854 C2.3895,6.854 2.5895,7.055 2.5895,7.302 L2.5895,8.882 Z M7.9935,0.459 C10.9675,0.459 13.4675,2.85 13.9815,6.159 C14.5219286,6.21935714 14.9588878,6.63582143 15.0185532,7.17540197 L15.0255,7.302 L15.0255,8.882 C15.0255,9.36783333 14.7204792,9.76963889 14.2976094,9.9426088 L14.1795,9.984 L13.9725,11.453 C13.5435,13.353 11.6795,14.721 9.4805,14.836 C9.35231818,15.2169091 9.03818595,15.4879008 8.65155184,15.534024 L8.5335,15.541 L7.7935,15.541 C7.27176667,15.541 6.84062889,15.1446444 6.78546267,14.6364963 L6.7795,14.526 L6.7795,14.469 C6.7795,13.9472667 7.17585556,13.5161289 7.68319067,13.4609627 L7.7935,13.455 L8.5335,13.455 C8.9685,13.455 9.3325,13.732 9.4775,14.116 C11.2707692,14.0111923 12.7912944,12.9596391 13.2185318,11.500072 L13.2645,11.323 L13.4545,9.968 C13.0508636,9.818 12.7488802,9.4572562 12.6973099,9.01649737 L12.6895,8.882 L12.6895,7.302 C12.6895,6.874 12.9315,6.516 13.2755,6.313 C12.8315,3.335 10.6205,1.178 7.9935,1.178 C5.4065,1.178 3.1885,3.306 2.7195,6.237 C2.7155,6.258 2.7045,6.276 2.6985,6.295 C3.01761111,6.47188889 3.25296914,6.78309877 3.30133128,7.15839643 L3.3105,7.302 L3.3105,8.882 C3.3105,9.526 2.7855,10.049 2.1425,10.049 C1.54143333,10.049 1.0449,9.59340889 0.981366963,9.00906756 L0.9745,8.882 L0.9745,7.302 C0.9745,6.705 1.4315,6.23 2.0105,6.161 C2.0105,6.149 2.0065,6.137 2.0085,6.124 C2.5335,2.841 5.0505,0.459 7.9935,0.459 Z M8.6014,10.9758 C8.6924,10.7988 8.9094,10.7298 9.0854,10.8198 C9.2624,10.9108 9.3324,11.1278 9.2424,11.3048 C9.0274,11.7238 8.6004,11.9968 8.1294,12.0178 L8.1294,12.0178 L8.0744,12.0178 C7.6224,12.0178 7.1984,11.7838 6.9574,11.3968 C6.8524,11.2278 6.9044,11.0068 7.0734,10.9018 C7.2424,10.7978 7.4634,10.8478 7.5694,11.0178 C7.6824,11.1988 7.8834,11.3188 8.0984,11.2978 C8.3114,11.2888 8.5034,11.1648 8.6014,10.9758 Z M6.0223,7.3845 C6.3543,7.3845 6.6263,7.6555 6.6263,7.9885 C6.6263,8.3215 6.3543,8.5925 6.0223,8.5925 C5.6883,8.5925 5.4183,8.3215 5.4183,7.9885 C5.4183,7.6555 5.6883,7.3845 6.0223,7.3845 Z M10.0218,7.3845 C10.3548,7.3845 10.6258,7.6555 10.6258,7.9885 C10.6258,8.3215 10.3548,8.5925 10.0218,8.5925 C9.6888,8.5925 9.4178,8.3215 9.4178,7.9885 C9.4178,7.6555 9.6888,7.3845 10.0218,7.3845 Z M8.830025,2.45565 L8.8669,2.4569 C10.4709,2.7519 11.6499,4.2339 12.1039,6.5219 C12.1419,6.7169 12.0159,6.9069 11.8209,6.9449 C11.7969,6.9499 11.7729,6.9519 11.7509,6.9519 C11.5819,6.9519 11.4319,6.8329 11.3969,6.6619 C11.0319,4.8139 10.1609,3.5939 8.9949,3.2399 C8.3479,5.0459 6.6549,6.7229 4.7029,6.7229 C4.5349,6.7229 4.3659,6.7109 4.1949,6.6849 C3.9989,6.6559 3.8629,6.4719 3.8919,6.2749 C3.9229,6.0789 4.0929,5.9389 4.3029,5.9729 C6.1839,6.2569 7.9149,4.5019 8.4219,2.7129 C8.4689,2.5459 8.6269,2.4459 8.7939,2.4589 L8.830025,2.45565 Z" id="Icon-Color"></path>
        </g>
    </g>
</svg>