<?xml version="1.0" encoding="UTF-8"?>
<svg width="16px" height="16px" viewBox="0 0 16 16" version="1.1" xmlns="http://www.w3.org/2000/svg" xmlns:xlink="http://www.w3.org/1999/xlink">
    
    <title>Icon/hide</title>
    <desc>Created with sketchtool.</desc>
    <g id="Icons" stroke="none" stroke-width="1" fill="none" fill-rule="evenodd">
        <g id="Icon/hide" fill="#00205B">
            <path d="M15.1934937,6.80033199 L14.9164937,6.52933199 C14.4474937,6.07133199 13.9174937,5.55133199 12.8154937,4.69333199 C12.6584937,4.57133199 12.4324937,4.60033199 12.3094937,4.75533199 C12.1874937,4.91233199 12.2154937,5.13933199 12.3724937,5.26133199 C13.4424937,6.09433199 13.9574937,6.59933199 14.4124937,7.04433199 L14.5514937,7.18033199 L14.4124937,7.31733199 C13.9574937,7.76233199 13.4424937,8.26733199 12.3734937,9.10033199 C11.2514937,9.97333199 9.75849375,10.451332 8.08649375,10.451332 C8.05649375,10.451332 8.02649375,10.451332 7.99649375,10.450332 C6.37649375,10.510332 4.84049375,9.98833199 3.69949375,9.10033199 C2.62649375,8.26433199 2.11049375,7.75933199 1.65549375,7.31333199 C1.60849375,7.26733199 1.56349375,7.22533199 1.51849375,7.18033199 C1.56449375,7.13533199 1.61049375,7.09233199 1.65849375,7.04533199 C2.11349375,6.60033199 2.62949375,6.09533199 3.69949375,5.26133199 C3.85549375,5.13933199 3.88349375,4.91233199 3.76149375,4.75533199 C3.63949375,4.60033199 3.41549375,4.57133199 3.25549375,4.69333199 C2.15449375,5.55233199 1.62349375,6.07133199 1.15449375,6.53033199 C1.01849375,6.66333199 0.889493745,6.79033199 0.754493745,6.91733199 C0.751493745,6.92033199 0.752493745,6.92533199 0.749493745,6.92933199 C0.745493745,6.93233199 0.740493745,6.93133199 0.737493745,6.93433199 C0.706493745,6.96733199 0.709493745,7.01233199 0.692493745,7.05233199 C0.674493745,7.09633199 0.644493745,7.13333199 0.644493745,7.18033199 C0.644493745,7.22733199 0.674493745,7.26433199 0.692493745,7.30833199 C0.709493745,7.34733199 0.706493745,7.39333199 0.737493745,7.42633199 C0.741493745,7.43033199 0.747493745,7.43233199 0.751493745,7.43633199 C0.753493745,7.43833199 0.752493745,7.44133199 0.754493745,7.44333199 C0.888493745,7.56933199 1.01649375,7.69533199 1.15149375,7.82633199 C1.62049375,8.28633199 2.15149375,8.80733199 3.25649375,9.66833199 C3.39349375,9.77533199 3.55349375,9.85633199 3.70049375,9.95233199 L2.60849375,11.578332 C2.49749375,11.743332 2.54149375,11.967332 2.70749375,12.077332 C2.76849375,12.118332 2.83849375,12.139332 2.90749375,12.139332 C3.02249375,12.139332 3.13649375,12.082332 3.20649375,11.979332 L4.31149375,10.332332 C5.28749375,10.830332 6.42349375,11.102332 7.63949375,11.147332 L7.63949375,13.022332 C7.63949375,13.221332 7.80049375,13.382332 8.00049375,13.382332 C8.19949375,13.382332 8.36049375,13.221332 8.36049375,13.022332 L8.36049375,11.155332 C9.53549375,11.128332 10.6534937,10.863332 11.6314937,10.387332 L12.6994937,11.979332 C12.7684937,12.082332 12.8824937,12.139332 12.9984937,12.139332 C13.0674937,12.139332 13.1364937,12.118332 13.1984937,12.077332 C13.3634937,11.967332 13.4084937,11.743332 13.2974937,11.578332 L12.2554937,10.027332 C12.4444937,9.90833199 12.6414937,9.80333199 12.8154937,9.66833199 C13.9174937,8.81033199 14.4474937,8.28933199 14.9164937,7.83133199 L15.1954937,7.55933199 C15.2974937,7.45933199 15.3564937,7.32133199 15.3555063,7.17833199 C15.3555063,7.03633199 15.2964937,6.89833199 15.1934937,6.80033199" id="Icon-Color"></path>
        </g>
    </g>
</svg>