<?xml version="1.0" encoding="UTF-8"?>
<svg width="16px" height="16px" viewBox="0 0 16 16" version="1.1" xmlns="http://www.w3.org/2000/svg" xmlns:xlink="http://www.w3.org/1999/xlink">
    
    <title>Icon/history</title>
    <desc>Created with sketchtool.</desc>
    <g id="Icons" stroke="none" stroke-width="1" fill="none" fill-rule="evenodd">
        <g id="Icon/history" fill="#00205B">
            <path d="M4.77623162,1.11227403 C8.56723162,-0.693725965 13.1262316,0.927274035 14.9332316,4.72327403 C16.7362316,8.51927403 15.1162316,13.076274 11.3202316,14.880274 C10.2562316,15.386274 9.13523162,15.626274 8.03423162,15.626274 C5.28423162,15.626274 2.65023162,14.129274 1.29023162,11.523274 C1.19923162,11.347274 1.26723162,11.129274 1.44423162,11.037274 C1.61923162,10.948274 1.83623162,11.013274 1.92923162,11.191274 C3.65323162,14.495274 7.64123162,15.829274 11.0112316,14.230274 C14.4482316,12.596274 15.9152316,8.46927403 14.2832316,5.03227403 C12.6482316,1.59527403 8.52223162,0.128274035 5.08423162,1.76227403 C3.83523162,2.35627403 2.80523162,3.29627403 2.10623162,4.48327403 C2.08923162,4.51027403 2.06223162,4.53627403 2.03723162,4.56127403 L2.03723162,4.56127403 L4.90223162,4.02627403 C5.10423162,3.98227403 5.28623162,4.11927403 5.32223162,4.31327403 C5.35923162,4.50827403 5.23023162,4.69727403 5.03523162,4.73327403 L5.03523162,4.73327403 L1.43023162,5.40727403 C1.40823162,5.41127403 1.38623162,5.41327403 1.36423162,5.41327403 C1.29123162,5.41327403 1.22023162,5.39127403 1.16123162,5.35027403 C1.08123162,5.29627403 1.02823162,5.21327403 1.01023162,5.11927403 L1.01023162,5.11927403 L0.336231625,1.51427403 C0.299231625,1.31927403 0.428231625,1.13027403 0.623231625,1.09427403 C0.824231625,1.05027403 1.00723162,1.18727403 1.04323162,1.38127403 L1.04323162,1.38127403 L1.54023162,4.03727403 C2.31323162,2.76627403 3.42623162,1.75327403 4.77623162,1.11227403 Z M7.68033162,3.63537403 C7.87933162,3.63537403 8.04033162,3.79637403 8.04033162,3.99537403 L8.04033162,3.99537403 L8.04033162,8.31837403 L12.1803316,10.683374 C12.3533316,10.781374 12.4123316,11.001374 12.3143316,11.174374 C12.2473316,11.290374 12.1263316,11.356374 12.0013316,11.356374 C11.9413316,11.356374 11.8793316,11.340374 11.8233316,11.308374 L11.8233316,11.308374 L7.50133162,8.83937403 C7.38933162,8.77537403 7.32033162,8.65637403 7.32033162,8.52737403 L7.32033162,8.52737403 L7.32033162,3.99537403 C7.32033162,3.79637403 7.48133162,3.63537403 7.68033162,3.63537403 Z" id="Icon-Color"></path>
        </g>
    </g>
</svg>