<?xml version="1.0" encoding="UTF-8"?>
<svg width="256px" height="256px" viewBox="0 0 256 256" version="1.1" xmlns="http://www.w3.org/2000/svg" xmlns:xlink="http://www.w3.org/1999/xlink">
    
    <title>history</title>
    <desc>Created with sketchtool.</desc>
    <defs></defs>
    <g id="Page-1" stroke="none" stroke-width="1" fill="none" fill-rule="evenodd">
        <g id="history" fill="#000000" fill-rule="nonzero">
            <path d="M135.322034,72.9491525 L135.322034,127.728814 L184.40678,127.728814 L184.40678,149.694915 L113.355932,149.694915 L113.355932,72.9491525 L135.322034,72.9491525 Z M128.271186,16 C143.638495,16 158.101627,18.9378237 171.661017,24.8135593 C185.220407,30.6892949 197.062096,38.6892149 207.186441,48.8135593 C217.310785,58.9379037 225.310705,70.7795932 231.186441,84.3389831 C237.062176,97.8983729 240,112.361505 240,127.728814 C240,143.096122 237.062176,157.559254 231.186441,171.118644 C225.310705,184.678034 217.310785,196.519723 207.186441,206.644068 C197.062096,216.768412 185.220407,224.768332 171.661017,230.644068 C158.101627,236.519803 143.638495,239.457627 128.271186,239.457627 C113.265462,239.457627 99.1187105,236.700593 85.8305085,231.186441 C72.5423064,225.672289 60.8814061,218.079144 50.8474576,208.40678 C40.8135092,198.734415 32.7683919,187.435093 26.7118644,174.508475 C20.6553369,161.581856 17.2655403,147.615894 16.5423729,132.610169 L40.9491525,128.271186 C40.9491525,140.203449 43.2542142,151.457574 47.8644068,162.033898 C52.4745993,172.610222 58.7118251,181.830469 66.5762712,189.694915 C74.4407173,197.559361 83.6609641,203.75139 94.2372881,208.271186 C104.813612,212.790983 116.158132,215.050847 128.271186,215.050847 C140.384241,215.050847 151.728761,212.745786 162.305085,208.135593 C172.881409,203.525401 182.101656,197.288175 189.966102,189.423729 C197.830548,181.559283 204.067774,172.339036 208.677966,161.762712 C213.288159,151.186388 215.59322,139.841868 215.59322,127.728814 C215.59322,115.615759 213.288159,104.271239 208.677966,93.6949153 C204.067774,83.1185912 197.830548,73.8983444 189.966102,66.0338983 C182.101656,58.1694522 172.881409,51.9322264 162.305085,47.3220339 C151.728761,42.7118414 140.384241,40.4067797 128.271186,40.4067797 C116.338923,40.4067797 104.768418,42.6214468 93.559322,47.0508475 C82.3502264,51.4802481 72.8587959,57.581882 65.0847458,65.3559322 L84.6101695,84.6101695 L16,97.0847458 L28.4745763,28.7457627 L47.7288136,48 C52.7909858,43.1186197 58.3954495,38.6892854 64.5423729,34.7118644 C70.6892963,30.7344434 77.1977058,27.3446468 84.0677966,24.5423729 C90.9378875,21.740099 98.1242563,19.6158264 105.627119,18.1694915 C113.129981,16.7231566 120.677928,16 128.271186,16 Z"></path>
        </g>
    </g>
</svg>