<?xml version="1.0" encoding="UTF-8"?>
<svg width="256px" height="256px" viewBox="0 0 256 256" version="1.1" xmlns="http://www.w3.org/2000/svg" xmlns:xlink="http://www.w3.org/1999/xlink">
    <!-- Generator: sketchtool 42 (36781) - http://www.bohemiancoding.com/sketch -->
    <title>history</title>
    <desc>Created with sketchtool.</desc>
    <defs></defs>
    <g id="Page-1" stroke="none" stroke-width="1" fill="none" fill-rule="evenodd">
        <g id="history" fill="#000000" fill-rule="nonzero">
            <path d="M136.368039,65.0847458 L136.368039,127.690073 L192.464891,127.690073 L192.464891,152.794189 L111.263923,152.794189 L111.263923,65.0847458 L136.368039,65.0847458 Z M128.309927,0 C145.872566,0 162.40186,3.35751283 177.898305,10.0726392 C193.394751,16.7877656 206.92811,25.9305313 218.498789,37.5012107 C230.069469,49.07189 239.212234,62.6052494 245.927361,78.1016949 C252.642487,93.5981404 256,110.127434 256,127.690073 C256,145.252711 252.642487,161.782005 245.927361,177.27845 C239.212234,192.774896 230.069469,206.308255 218.498789,217.878935 C206.92811,229.449614 193.394751,238.59238 177.898305,245.307506 C162.40186,252.022632 145.872566,255.380145 128.309927,255.380145 C111.160528,255.380145 94.992812,252.229249 79.8062954,245.927361 C64.6197788,239.625473 51.2930355,230.947594 39.8256659,219.893462 C28.3582962,208.839331 19.1638764,195.92582 12.2421308,181.152542 C5.32038508,166.379264 1.44633182,150.418165 0.619854722,133.268765 L28.5133172,128.309927 C28.5133172,141.946799 31.1476734,154.808656 36.4164649,166.895884 C41.6852564,178.983111 48.8135144,189.520536 57.8014528,198.508475 C66.7893912,207.496413 77.3268161,214.573017 89.4140436,219.738499 C101.501271,224.903981 114.466436,227.486683 128.309927,227.486683 C142.153419,227.486683 155.118584,224.852327 167.205811,219.583535 C179.293039,214.314744 189.830464,207.186486 198.818402,198.198547 C207.80634,189.210609 214.934598,178.673184 220.20339,166.585956 C225.472181,154.498729 228.106538,141.533564 228.106538,127.690073 C228.106538,113.846581 225.472181,100.881416 220.20339,88.7941889 C214.934598,76.7069614 207.80634,66.1695365 198.818402,57.1815981 C189.830464,48.1936597 179.293039,41.0654016 167.205811,35.7966102 C155.118584,30.5278187 142.153419,27.8934625 128.309927,27.8934625 C114.673055,27.8934625 101.44962,30.4245106 88.6392252,35.4866828 C75.8288302,40.548855 64.9814811,47.5221509 56.0968523,56.4067797 L78.4116223,78.4116223 L0,92.6682809 L14.2566586,14.566586 L36.2615012,36.5714286 C42.0468409,30.9927082 48.4519423,25.9306119 55.4769976,21.3849879 C62.5020529,16.8393639 69.9402352,12.9653106 77.7917676,9.76271186 C85.6433,6.56011312 93.8562929,4.13237308 102.430993,2.47941889 C111.005693,0.826464697 119.631918,0 128.309927,0 Z"></path>
        </g>
    </g>
</svg>