<?xml version="1.0" encoding="UTF-8" standalone="no"?>
<svg width="256px" height="256px" viewBox="0 0 256 256" version="1.1" xmlns="http://www.w3.org/2000/svg" xmlns:xlink="http://www.w3.org/1999/xlink">
    <!-- Generator: sketchtool 41 (35326) - http://www.bohemiancoding.com/sketch -->
    <title>history</title>
    <desc>Created with sketchtool.</desc>
    <defs></defs>
    <g id="Page-1" stroke="none" stroke-width="1" fill="none" fill-rule="evenodd">
        <g id="history" fill="#000000">
            <path d="M134.276029,80.8135593 L134.276029,127.767554 L176.348668,127.767554 L176.348668,146.595642 L115.447942,146.595642 L115.447942,80.8135593 L134.276029,80.8135593 Z M128.232446,32 C141.404424,32 153.801395,34.5181346 165.423729,39.5544794 C177.046063,44.5908242 187.196083,51.4478985 195.874092,60.125908 C204.552102,68.8039175 211.409176,78.953937 216.445521,90.5762712 C221.481865,102.198605 224,114.595576 224,127.767554 C224,140.939533 221.481865,153.336504 216.445521,164.958838 C211.409176,176.581172 204.552102,186.731191 195.874092,195.409201 C187.196083,204.08721 177.046063,210.944285 165.423729,215.98063 C153.801395,221.016974 141.404424,223.535109 128.232446,223.535109 C115.370396,223.535109 103.244609,221.171936 91.8547215,216.445521 C80.4648341,211.719105 70.4697767,205.210695 61.8692494,196.920097 C53.2687221,188.629498 46.3729073,178.944365 41.1815981,167.864407 C35.9902888,156.784448 33.0847489,144.813624 32.464891,131.951574 L53.3849879,128.232446 C53.3849879,138.4601 55.3607551,148.106492 59.3123487,157.171913 C63.2639423,166.237333 68.6101358,174.140402 75.3510896,180.881356 C82.0920434,187.62231 89.9951121,192.929763 99.0605327,196.803874 C108.125953,200.677985 117.849827,202.615012 128.232446,202.615012 C138.615064,202.615012 148.338938,200.639245 157.404358,196.687651 C166.469779,192.736058 174.372848,187.389864 181.113801,180.64891 C187.854755,173.907957 193.200949,166.004888 197.152542,156.939467 C201.104136,147.874047 203.079903,138.150173 203.079903,127.767554 C203.079903,117.384936 201.104136,107.661062 197.152542,98.5956416 C193.200949,89.530221 187.854755,81.6271523 181.113801,74.8861985 C174.372848,68.1452447 166.469779,62.7990512 157.404358,58.8474576 C148.338938,54.895864 138.615064,52.9200969 128.232446,52.9200969 C118.004791,52.9200969 108.087215,54.818383 98.4794189,58.6150121 C88.8716227,62.4116413 80.7361108,67.6416132 74.0726392,74.3050847 L90.8087167,90.8087167 L32,101.501211 L42.6924939,42.9249395 L59.1961259,59.4285714 C63.5351307,55.2445311 68.3389567,51.4479589 73.6077482,48.0387409 C78.8765397,44.6295229 84.4551764,41.723983 90.3438257,39.3220339 C96.232475,36.9200848 102.39222,35.0992798 108.823245,33.8595642 C115.254269,32.6198485 121.723938,32 128.232446,32 Z"></path>
        </g>
    </g>
</svg>