<?xml version="1.0" encoding="UTF-8"?>
<svg width="16px" height="16px" viewBox="0 0 16 16" version="1.1" xmlns="http://www.w3.org/2000/svg" xmlns:xlink="http://www.w3.org/1999/xlink">
    
    <title>Icon/home</title>
    <desc>Created with sketchtool.</desc>
    <g id="Icons" stroke="none" stroke-width="1" fill="none" fill-rule="evenodd">
        <g id="Icon/home" fill="#00205B">
            <path d="M12.7095,15.14 L10.5105,15.14 L10.5105,9.089 C10.5105,8.89 10.3495,8.729 10.1495,8.729 L5.8495,8.729 C5.6495,8.729 5.4885,8.89 5.4885,9.089 L5.4885,15.14 L3.2905,15.14 L3.2905,5.375 L7.9995,0.992 L12.7095,5.375 L12.7095,15.14 Z M6.2095,15.14 L9.7895,15.14 L9.7895,9.449 L6.2095,9.449 L6.2095,15.14 Z M15.6925,7.169 L8.2445,0.236 C8.1055,0.108 7.8935,0.108 7.7545,0.236 L0.3075,7.169 C0.1615,7.305 0.1525,7.532 0.2885,7.678 C0.3595,7.754 0.4555,7.792 0.5525,7.792 C0.6405,7.792 0.7285,7.761 0.7975,7.696 L2.5695,6.046 L2.5695,15.5 C2.5695,15.699 2.7305,15.86 2.9305,15.86 L13.0695,15.86 C13.2695,15.86 13.4305,15.699 13.4305,15.5 L13.4305,6.046 L15.2025,7.696 C15.3475,7.831 15.5745,7.823 15.7115,7.678 C15.8475,7.532 15.8385,7.305 15.6925,7.169 L15.6925,7.169 Z" id="Icon-Color"></path>
        </g>
    </g>
</svg>