<?xml version="1.0" encoding="UTF-8"?>
<svg width="256px" height="256px" viewBox="0 0 256 256" version="1.1" xmlns="http://www.w3.org/2000/svg" xmlns:xlink="http://www.w3.org/1999/xlink">
    
    <title>horizon</title>
    <desc>Created with sketchtool.</desc>
    <defs></defs>
    <g id="Page-1" stroke="none" stroke-width="1" fill="none" fill-rule="evenodd">
        <g id="horizon" fill="#000000">
            <path d="M21.9448964,156.269144 L234.036344,156.269144 C237.145817,165.428394 238.730559,175.035989 238.727352,184.708664 L17.2543935,184.708664 C17.2543935,174.820523 18.8934934,165.272829 21.9448964,156.269144 L21.9448964,156.269144 Z M35.9012386,130.017785 L220.080001,130.017785 C224.199219,135.488186 227.718359,141.347526 230.553067,147.518523 L25.4286782,147.518523 C28.2633866,141.347021 31.7820214,135.488691 35.9017438,130.017785 L35.9012386,130.017785 Z M52.7034019,112.516542 L203.278343,112.516542 C206.583459,115.239695 209.719319,118.162 212.668441,121.267163 L43.3127989,121.267163 C46.2622465,118.161969 49.398445,115.239664 52.703907,112.516542 L52.7034019,112.516542 Z M72.7079976,99.3906093 L183.272737,99.3906093 C187.118724,101.362843 190.848395,103.554098 194.443367,105.953575 L61.5373675,105.953575 C65.1323397,103.554098 68.8620109,101.362843 72.7079976,99.3906093 L72.7079976,99.3906093 Z M95.2442323,90.640998 L160.737513,90.640998 C165.138032,91.8489505 169.465289,93.3094714 173.697767,95.0152986 L82.2834728,95.0152986 C86.516281,93.3094347 90.8438765,91.8489135 95.2447374,90.640998 L95.2442323,90.640998 Z M238.727352,184.708664 L17.2543935,184.708664 L238.727352,184.708664 L238.727352,184.708664 Z M151.315088,88.4528375 L104.665647,88.4528375 C112.185302,87.0193196 119.989337,86.2656872 127.990367,86.2656872 C135.991903,86.2656872 143.795433,87.0193196 151.315088,88.4528375 Z M34.4414547,107.148174 C74.7057295,68.4260167 127.822164,71.0728221 127.822164,71.0728221 C127.822164,71.0728221 179.485381,67.6935992 221.38623,106.973909 C258.880956,142.669919 255.946235,184.708664 255.946235,184.708664 L246.077793,184.708664 C246.077793,184.708664 248.438703,144.755036 213.525117,112.271056 C176.241024,77.2625079 127.822164,79.7658605 127.822164,79.7658605 C127.822164,79.7658605 78.813329,77.7464086 42.4626895,112.270045 C7.50364319,144.548443 9.87970667,184.708664 9.87970667,184.708664 L0.040056019,184.708664 C0.040056019,184.708664 -2.574422,141.62736 34.4414547,107.148174 Z"></path>
        </g>
    </g>
</svg>