<?xml version="1.0" encoding="UTF-8"?>
<svg width="256px" height="256px" viewBox="0 0 256 256" version="1.1" xmlns="http://www.w3.org/2000/svg" xmlns:xlink="http://www.w3.org/1999/xlink">
    
    <title>info</title>
    <desc>Created with sketchtool.</desc>
    <defs>
        <path d="M128,16 C66.148,16 16,66.148 16,128 C16,189.852 66.148,240 128,240 C189.852,240 240,189.852 240,128 C240,66.148 189.852,16 128,16 Z M127.990667,69.6666667 C134.430667,69.6666667 139.666667,74.8933333 139.666667,81.3333333 C139.666667,87.7733333 134.430667,93 127.990667,93 C121.550667,93 116.333333,87.7733333 116.333333,81.3333333 C116.333333,74.8933333 121.550667,69.6666667 127.990667,69.6666667 Z M146.666667,184 L109.333333,184 L109.333333,174.666667 C113.850667,172.996 118.666667,172.790667 118.666667,167.806667 L118.666667,126.114667 C118.666667,121.130667 113.850667,120.346667 109.333333,118.676 L109.333333,109.342667 L137.333333,109.342667 L137.333333,167.816 C137.333333,172.809333 142.158667,173.024 146.666667,174.676 L146.666667,184 Z" id="path-1"></path>
    </defs>
    <g id="Page-1" stroke="none" stroke-width="1" fill="none" fill-rule="evenodd">
        <g id="info">
            <mask id="mask-2" fill="white">
                <use xlink:href="#path-1"></use>
            </mask>
            <use id="Mask" fill="#000000" fill-rule="nonzero" xlink:href="#path-1"></use>
        </g>
    </g>
</svg>