<?xml version="1.0" encoding="UTF-8"?>
<svg width="16px" height="16px" viewBox="0 0 16 16" version="1.1" xmlns="http://www.w3.org/2000/svg" xmlns:xlink="http://www.w3.org/1999/xlink">
    
    <title>Icon/info</title>
    <desc>Created with sketchtool.</desc>
    <g id="Icons" stroke="none" stroke-width="1" fill="none" fill-rule="evenodd">
        <g id="Icon/info" fill="#00205B">
            <path d="M7,13.00015 L9,13.00015 L9,7.00015 L7,7.00015 L7,13.00015 Z M8,3.00015 C8.55191257,3.00015 9,3.44823743 9,4.00015 C9,4.55315546 8.55191257,5.00015 8,5.00015 C7.44808743,5.00015 7,4.55315546 7,4.00015 C7,3.44823743 7.44808743,3.00015 8,3.00015 L8,3.00015 Z M7.99947233,0.00015 C3.58815382,0.00015 0,3.58912243 0,8.00015 C0,12.4122328 3.58815382,16.00015 7.99947233,16.00015 C12.4107908,16.00015 16,12.4122328 16,8.00015 C16,3.58912243 12.4107908,0.00015 7.99947233,0.00015 L7.99947233,0.00015 Z" id="Icon-Color"></path>
        </g>
    </g>
</svg>