<?xml version="1.0" encoding="UTF-8"?>
<svg width="256px" height="256px" viewBox="0 0 256 256" version="1.1" xmlns="http://www.w3.org/2000/svg" xmlns:xlink="http://www.w3.org/1999/xlink">
    
    <title>info-circle</title>
    <desc>Created with sketchtool.</desc>
    <defs></defs>
    <g id="Page-1" stroke="none" stroke-width="1" fill="none" fill-rule="evenodd">
        <g id="info-circle" fill="#000000" fill-rule="nonzero">
            <path d="M128,34.6666667 C179.464,34.6666667 221.333333,76.536 221.333333,128 C221.333333,179.464 179.464,221.333333 128,221.333333 C76.536,221.333333 34.6666667,179.464 34.6666667,128 C34.6666667,76.536 76.536,34.6666667 128,34.6666667 Z M128,16 C66.148,16 16,66.148 16,128 C16,189.852 66.148,240 128,240 C189.852,240 240,189.852 240,128 C240,66.148 189.852,16 128,16 Z M109.025333,165.426667 C114.289333,148.729333 124.257333,128.728 126.021333,123.669333 C128.569333,116.324 124.052,113.066667 109.781333,125.62 L106.608,119.646667 C122.885333,101.941333 156.401333,97.9373333 144.996,125.368 C137.874667,142.494667 132.778667,154.058667 129.866667,162.981333 C125.62,175.982667 136.344,170.709333 146.844,161.012 C148.272,163.345333 148.738667,164.101333 150.166667,166.789333 C126.852,188.984 100.970667,190.944 109.025333,165.426667 Z M153.284,89.1826667 C148.318667,93.4106667 140.964,93.3173333 136.848,88.9773333 C132.732,84.6373333 133.422667,77.7026667 138.378667,73.4746667 C143.344,69.2466667 150.698667,69.3493333 154.814667,73.68 C158.912,78.0293333 158.24,84.964 153.284,89.1826667 Z"></path>
        </g>
    </g>
</svg>