<?xml version="1.0" encoding="UTF-8"?>
<svg width="16px" height="16px" viewBox="0 0 16 16" version="1.1" xmlns="http://www.w3.org/2000/svg" xmlns:xlink="http://www.w3.org/1999/xlink">
    
    <title>Icon/info-circle</title>
    <desc>Created with sketchtool.</desc>
    <g id="Icons" stroke="none" stroke-width="1" fill="none" fill-rule="evenodd">
        <g id="Icon/info-circle" fill="#00205B">
            <path d="M7.9989071,4.99975 C7.44808743,4.99975 7,4.55275546 7,3.99975 C7,3.44783743 7.44808743,2.99975 7.9989071,2.99975 C8.55191257,2.99975 9,3.44783743 9,3.99975 C9,4.55275546 8.55191257,4.99975 7.9989071,4.99975 Z M8,15.2399558 C11.9920855,15.2399558 15.2391505,11.9918355 15.2391505,7.99975 C15.2391505,4.00660925 11.9920855,0.759544222 8,0.759544222 C4.00791452,0.759544222 0.760849492,4.00660925 0.760849492,7.99975 C0.760849492,11.9918355 4.00791452,15.2399558 8,15.2399558 Z M8,-0.00025 C12.4110276,-0.00025 16,3.58766716 16,7.99975 C16,12.4107776 12.4110276,15.99975 8,15.99975 C3.58897243,15.99975 2.5243549e-29,12.4107776 2.5243549e-29,7.99975 C2.5243549e-29,3.58766716 3.58897243,-0.00025 8,-0.00025 Z M7,12.99975 L7,6.99975 L9,6.99975 L9,12.99975 L7,12.99975 Z" id="Icon-Color"></path>
        </g>
    </g>
</svg>