<?xml version="1.0" encoding="UTF-8"?>
<svg width="256px" height="256px" viewBox="0 0 256 256" version="1.1" xmlns="http://www.w3.org/2000/svg" xmlns:xlink="http://www.w3.org/1999/xlink">
    
    <title>info-circle</title>
    <desc>Created with sketchtool.</desc>
    <defs></defs>
    <g id="Page-1" stroke="none" stroke-width="1" fill="none" fill-rule="evenodd">
        <g id="info-circle" fill="#000000" fill-rule="nonzero">
            <path d="M128,34.6666667 C179.464,34.6666667 221.333333,76.536 221.333333,128 C221.333333,179.464 179.464,221.333333 128,221.333333 C76.536,221.333333 34.6666667,179.464 34.6666667,128 C34.6666667,76.536 76.536,34.6666667 128,34.6666667 Z M128,16 C66.148,16 16,66.148 16,128 C16,189.852 66.148,240 128,240 C189.852,240 240,189.852 240,128 C240,66.148 189.852,16 128,16 Z M137.333333,184 L118.666667,184 L118.666667,109.333333 L137.333333,109.333333 L137.333333,184 Z M128,69.6666667 C134.44,69.6666667 139.666667,74.8933333 139.666667,81.3333333 C139.666667,87.7733333 134.44,93 128,93 C121.56,93 116.333333,87.7733333 116.333333,81.3333333 C116.333333,74.8933333 121.56,69.6666667 128,69.6666667 Z"></path>
        </g>
    </g>
</svg>