<?xml version="1.0" encoding="UTF-8"?>
<svg width="16px" height="16px" viewBox="0 0 16 16" version="1.1" xmlns="http://www.w3.org/2000/svg" xmlns:xlink="http://www.w3.org/1999/xlink">
    
    <title>Icon/instagram</title>
    <desc>Created with sketchtool.</desc>
    <g id="Icons" stroke="none" stroke-width="1" fill="none" fill-rule="evenodd">
        <g id="Icon/instagram" fill="#00205B">
            <path d="M11,0 C13.761,0 16,2.239 16,5 L16,11 C16,13.761 13.761,16 11,16 L5,16 C2.239,16 0,13.761 0,11 L0,5 C0,2.239 2.239,0 5,0 L11,0 Z M14.5,11 L14.5,5 C14.5,3.07 12.93,1.5 11,1.5 L5,1.5 C3.07,1.5 1.5,3.07 1.5,5 L1.5,11 C1.5,12.93 3.07,14.5 5,14.5 L11,14.5 C12.93,14.5 14.5,12.93 14.5,11 Z M8,4 C10.209,4 12,5.791 12,8 C12,10.209 10.209,12 8,12 C5.791,12 4,10.209 4,8 C4,5.791 5.791,4 8,4 Z M8,10.5 C9.378,10.5 10.5,9.378 10.5,8 C10.5,6.621 9.378,5.5 8,5.5 C6.622,5.5 5.5,6.621 5.5,8 C5.5,9.378 6.622,10.5 8,10.5 Z M12.3,4.233 C12.0056322,4.233 11.767,3.99436777 11.767,3.7 C11.767,3.40563223 12.0056322,3.167 12.3,3.167 C12.5943678,3.167 12.833,3.40563223 12.833,3.7 C12.833,3.99436777 12.5943678,4.233 12.3,4.233 Z" id="Icon-Color"></path>
        </g>
    </g>
</svg>