<?xml version="1.0" encoding="UTF-8"?>
<svg width="16px" height="16px" viewBox="0 0 16 16" version="1.1" xmlns="http://www.w3.org/2000/svg" xmlns:xlink="http://www.w3.org/1999/xlink">
    
    <title>Icon/instagram</title>
    <desc>Created with sketchtool.</desc>
    <g id="Icons" stroke="none" stroke-width="1" fill="none" fill-rule="evenodd">
        <g id="Icon/instagram" fill="#00205B">
            <path d="M5,0 L11,0 C13.6883421,0 15.8817964,2.12270845 15.9953796,4.78314209 L16,5 L16,11 C16,13.6883421 13.8772916,15.8817964 11.2168579,15.9953796 L11,16 L5,16 C2.31165789,16 0.118203601,13.8772916 0.00462037105,11.2168579 L0,11 L0,5 C0,2.31165789 2.12270845,0.118203601 4.78314209,0.00462037105 L5,0 L11,0 Z M11,1.5 L5,1.5 C3.13433333,1.5 1.60506667,2.96707778 1.50518852,4.80824481 L1.5,5 L1.5,11 C1.5,12.8656667 2.96707778,14.3949333 4.80824481,14.4948115 L5,14.5 L11,14.5 C12.8656667,14.5 14.3949333,13.0329222 14.4948115,11.1917552 L14.5,11 L14.5,5 C14.5,3.07 12.93,1.5 11,1.5 Z M8,4 C10.209,4 12,5.791 12,8 C12,10.209 10.209,12 8,12 C5.791,12 4,10.209 4,8 C4,5.791 5.791,4 8,4 Z M8,5.5 C6.622,5.5 5.5,6.621 5.5,8 C5.5,9.378 6.622,10.5 8,10.5 C9.378,10.5 10.5,9.378 10.5,8 C10.5,6.621 9.378,5.5 8,5.5 Z M12.3,3.167 C12.5943678,3.167 12.833,3.40563223 12.833,3.7 C12.833,3.99436777 12.5943678,4.233 12.3,4.233 C12.0056322,4.233 11.767,3.99436777 11.767,3.7 C11.767,3.40563223 12.0056322,3.167 12.3,3.167 Z" id="Icon-Color"></path>
        </g>
    </g>
</svg>