<?xml version="1.0" encoding="UTF-8"?>
<svg width="16px" height="16px" viewBox="0 0 16 16" version="1.1" xmlns="http://www.w3.org/2000/svg" xmlns:xlink="http://www.w3.org/1999/xlink">
    
    <title>Icon/instagram</title>
    <desc>Created with sketchtool.</desc>
    <g id="Icons" stroke="none" stroke-width="1" fill="none" fill-rule="evenodd">
        <g id="Icon/instagram" fill="#00205B">
            <path d="M14.1755,11.151 C14.1415,11.891 14.0185,12.293 13.9135,12.56 C13.7765,12.914 13.6125,13.167 13.3465,13.432 C13.0805,13.698 12.8285,13.862 12.4745,14 C12.2065,14.103 11.8055,14.227 11.0655,14.261 C10.2665,14.297 10.0265,14.305 8.0005,14.305 C5.9745,14.305 5.7355,14.297 4.9345,14.261 C4.1955,14.227 3.7935,14.103 3.5265,14 C3.1725,13.862 2.9185,13.698 2.6545,13.432 C2.3885,13.167 2.2235,12.914 2.0865,12.56 C1.9825,12.293 1.8595,11.891 1.8245,11.151 C1.7885,10.351 1.7805,10.112 1.7805,8.086 C1.7805,6.06 1.7885,5.82 1.8245,5.02 C1.8595,4.281 1.9825,3.88 2.0865,3.612 C2.2235,3.257 2.3885,3.005 2.6545,2.74 C2.9185,2.474 3.1725,2.309 3.5265,2.172 C3.7935,2.068 4.1955,1.945 4.9345,1.911 C5.7355,1.875 5.9745,1.867 8.0005,1.867 C10.0265,1.867 10.2665,1.875 11.0655,1.911 C11.8055,1.945 12.2065,2.068 12.4745,2.172 C12.8285,2.309 13.0805,2.474 13.3465,2.74 C13.6125,3.005 13.7765,3.257 13.9135,3.612 C14.0185,3.88 14.1415,4.281 14.1755,5.02 C14.2115,5.82 14.2195,6.06 14.2195,8.086 C14.2195,10.112 14.2115,10.351 14.1755,11.151 M15.5405,4.958 C15.5035,4.151 15.3755,3.599 15.1885,3.117 C14.9945,2.618 14.7355,2.195 14.3135,1.773 C13.8915,1.351 13.4685,1.091 12.9695,0.898 C12.4875,0.711 11.9355,0.583 11.1275,0.546 C10.3195,0.508 10.0605,0.5 8.0005,0.5 C5.9405,0.5 5.6815,0.508 4.8715,0.546 C4.0655,0.583 3.5135,0.711 3.0305,0.898 C2.5315,1.091 2.1095,1.351 1.6875,1.773 C1.2655,2.195 1.0065,2.618 0.8125,3.117 C0.6245,3.599 0.4965,4.151 0.4595,4.958 C0.4225,5.767 0.4135,6.026 0.4135,8.086 C0.4135,10.146 0.4225,10.405 0.4595,11.213 C0.4965,12.021 0.6245,12.573 0.8125,13.055 C1.0065,13.554 1.2655,13.977 1.6875,14.399 C2.1095,14.821 2.5315,15.08 3.0305,15.274 C3.5135,15.462 4.0655,15.589 4.8715,15.627 C5.6815,15.664 5.9405,15.672 8.0005,15.672 C10.0605,15.672 10.3195,15.664 11.1275,15.627 C11.9355,15.589 12.4875,15.462 12.9695,15.274 C13.4685,15.08 13.8915,14.821 14.3135,14.399 C14.7355,13.977 14.9945,13.554 15.1885,13.055 C15.3755,12.573 15.5035,12.021 15.5405,11.213 C15.5775,10.405 15.5865,10.146 15.5865,8.086 C15.5865,6.026 15.5775,5.767 15.5405,4.958 M12.0495,3.1257 C11.5465,3.1257 11.1395,3.5337 11.1395,4.0367 C11.1395,4.5387 11.5465,4.9467 12.0495,4.9467 C12.5525,4.9467 12.9595,4.5387 12.9595,4.0367 C12.9595,3.5337 12.5525,3.1257 12.0495,3.1257 M8.0007,10.6149 C6.6047,10.6149 5.4717,9.4819 5.4717,8.0859 C5.4717,6.6889 6.6047,5.5569 8.0007,5.5569 C9.3967,5.5569 10.5287,6.6889 10.5287,8.0859 C10.5287,9.4819 9.3967,10.6149 8.0007,10.6149 M8.0007,4.1899 C5.8487,4.1899 4.1047,5.9339 4.1047,8.0859 C4.1047,10.2369 5.8487,11.9809 8.0007,11.9809 C10.1507,11.9809 11.8957,10.2369 11.8957,8.0859 C11.8957,5.9339 10.1507,4.1899 8.0007,4.1899" id="Icon-Color"></path>
        </g>
    </g>
</svg>