<?xml version="1.0" encoding="UTF-8"?>
<svg width="16px" height="16px" viewBox="0 0 16 16" version="1.1" xmlns="http://www.w3.org/2000/svg" xmlns:xlink="http://www.w3.org/1999/xlink">
    
    <title>Icon/lines</title>
    <desc>Created with sketchtool.</desc>
    <g id="Icons" stroke="none" stroke-width="1" fill="none" fill-rule="evenodd">
        <g id="Icon/lines" fill="#00205B">
            <path d="M1.378,6.5715 L2.622,6.5715 L2.622,1.4285 L1.378,1.4285 L1.378,6.5715 Z M2.982,0.7085 C3.181,0.7085 3.343,0.8705 3.343,1.0685 L3.343,6.9315 C3.343,7.1305 3.181,7.2915 2.982,7.2915 L1.017,7.2915 C0.818,7.2915 0.657,7.1305 0.657,6.9315 L0.657,1.0685 C0.657,0.8705 0.818,0.7085 1.017,0.7085 L2.982,0.7085 Z M1.378,14.5715 L2.622,14.5715 L2.622,9.4285 L1.378,9.4285 L1.378,14.5715 Z M2.982,8.7085 C3.181,8.7085 3.343,8.8705 3.343,9.0685 L3.343,14.9315 C3.343,15.1305 3.181,15.2915 2.982,15.2915 L1.017,15.2915 C0.818,15.2915 0.657,15.1305 0.657,14.9315 L0.657,9.0685 C0.657,8.8705 0.818,8.7085 1.017,8.7085 L2.982,8.7085 Z M5.343,14.5715 L14.622,14.5715 L14.622,9.4285 L5.343,9.4285 L5.343,14.5715 Z M14.982,8.7085 C15.181,8.7085 15.343,8.8705 15.343,9.0685 L15.343,14.9315 C15.343,15.1305 15.181,15.2915 14.982,15.2915 L4.982,15.2915 C4.783,15.2915 4.622,15.1305 4.622,14.9315 L4.622,9.0685 C4.622,8.8705 4.783,8.7085 4.982,8.7085 L14.982,8.7085 Z M5.343,6.5715 L14.622,6.5715 L14.622,1.4285 L5.343,1.4285 L5.343,6.5715 Z M14.982,0.7085 C15.181,0.7085 15.343,0.8705 15.343,1.0685 L15.343,6.9315 C15.343,7.1305 15.181,7.2915 14.982,7.2915 L4.982,7.2915 C4.783,7.2915 4.622,7.1305 4.622,6.9315 L4.622,1.0685 C4.622,0.8705 4.783,0.7085 4.982,0.7085 L14.982,0.7085 Z" id="Icon-Color"></path>
        </g>
    </g>
</svg>