<?xml version="1.0" encoding="UTF-8"?>
<svg width="16px" height="16px" viewBox="0 0 16 16" version="1.1" xmlns="http://www.w3.org/2000/svg" xmlns:xlink="http://www.w3.org/1999/xlink">
    
    <title>Icon/lines</title>
    <desc>Created with sketchtool.</desc>
    <g id="Icons" stroke="none" stroke-width="1" fill="none" fill-rule="evenodd">
        <g id="Icon/lines" fill="#00205B">
            <path d="M1.378,6.5715 L2.622,6.5715 L2.622,1.4285 L1.378,1.4285 L1.378,6.5715 Z M2.982,8.7085 C3.156125,8.7085 3.30192188,8.83253125 3.33565039,8.99618359 L3.343,9.0685 L3.343,14.9315 C3.343,15.105625 3.21896875,15.2506562 3.05464648,15.2841934 L2.982,15.2915 L1.017,15.2915 C0.842875,15.2915 0.69784375,15.1682344 0.664306641,15.0041035 L0.657,14.9315 L0.657,9.0685 C0.657,8.89525 0.780265625,8.7495625 0.944396484,8.71584766 L1.017,8.7085 L2.982,8.7085 Z M4.982,8.7085 L14.982,8.7085 C15.156125,8.7085 15.3019219,8.83253125 15.3356504,8.99618359 L15.343,9.0685 L15.343,14.9315 C15.343,15.105625 15.2189688,15.2506562 15.0546465,15.2841934 L14.982,15.2915 L4.982,15.2915 C4.807875,15.2915 4.66284375,15.1682344 4.62930664,15.0041035 L4.622,14.9315 L4.622,9.0685 C4.622,8.89525 4.74526563,8.7495625 4.90939648,8.71584766 L4.982,8.7085 L14.982,8.7085 Z M2.622,9.4285 L1.378,9.4285 L1.378,14.5715 L2.622,14.5715 L2.622,9.4285 Z M14.622,9.4285 L5.343,9.4285 L5.343,14.5715 L14.622,14.5715 L14.622,9.4285 Z M2.982,0.7085 C3.156125,0.7085 3.30192188,0.83253125 3.33565039,0.996183594 L3.343,1.0685 L3.343,6.9315 C3.343,7.105625 3.21896875,7.25065625 3.05464648,7.28419336 L2.982,7.2915 L1.017,7.2915 C0.842875,7.2915 0.69784375,7.16823437 0.664306641,7.00410352 L0.657,6.9315 L0.657,1.0685 C0.657,0.89525 0.780265625,0.7495625 0.944396484,0.715847656 L1.017,0.7085 L2.982,0.7085 Z M14.982,0.7085 C15.181,0.7085 15.343,0.8705 15.343,1.0685 L15.343,1.0685 L15.343,6.9315 C15.343,7.1305 15.181,7.2915 14.982,7.2915 L14.982,7.2915 L4.982,7.2915 C4.783,7.2915 4.622,7.1305 4.622,6.9315 L4.622,6.9315 L4.622,1.0685 C4.622,0.8705 4.783,0.7085 4.982,0.7085 L4.982,0.7085 Z M14.622,1.4285 L5.343,1.4285 L5.343,6.5715 L14.622,6.5715 L14.622,1.4285 Z" id="Icon-Color"></path>
        </g>
    </g>
</svg>