<?xml version="1.0" encoding="UTF-8"?>
<svg width="256px" height="256px" viewBox="0 0 256 256" version="1.1" xmlns="http://www.w3.org/2000/svg" xmlns:xlink="http://www.w3.org/1999/xlink">
    
    <title>link-circle</title>
    <desc>Created with sketchtool.</desc>
    <defs></defs>
    <g id="Page-1" stroke="none" stroke-width="1" fill="none" fill-rule="evenodd">
        <g id="link-circle" fill="#000000">
            <path d="M128,240 C66.144108,240 16,189.855892 16,128 C16,66.144108 66.144108,16 128,16 C189.855892,16 240,66.144108 240,128 C240,189.855892 189.855892,240 128,240 Z M95.6382085,110.531785 L71.5430371,134.613719 C57.4856543,148.656853 57.4856543,171.424515 71.5430371,185.467649 C85.6004199,199.510784 108.391183,199.510784 122.448565,185.467649 L138.846046,169.086789 C131.691393,169.618091 124.447166,168.549895 117.689993,165.871018 L110.261022,173.292459 C102.944017,180.602047 91.0419874,180.602047 83.7249825,173.292459 C76.4079776,165.982871 76.4079776,154.092905 83.7249825,146.783317 L107.820154,122.701383 C110.423373,120.100803 113.608817,118.428602 116.962211,117.679187 C125.869139,115.688205 134.820854,120.363657 138.426172,128.579254 L151,116.023764 C140.609517,100.286058 119.884535,95.5546794 103.722183,104.452579 C100.822253,106.052076 98.0958712,108.076614 95.6382085,110.531785 Z M133.561077,71.5292269 L117.164488,87.9117531 C124.313155,87.3748045 131.562585,88.4487017 138.31939,91.1222584 L145.742359,83.7056556 C153.058966,76.3953238 164.960347,76.3953238 172.276954,83.7056556 C179.593561,91.0159873 179.593561,102.907162 172.276954,110.217494 L148.177496,134.296284 C140.838497,141.628988 128.920322,141.567463 121.642901,134.296284 C119.946702,132.601539 118.48562,130.492898 117.573144,128.417815 L105,140.974582 C106.321132,142.976953 107.692646,144.705256 109.456021,146.467119 C114.001609,151.008809 119.789958,154.392704 126.451597,155.997957 C135.083737,158.07304 144.331659,156.926431 152.275243,152.546944 C155.175016,150.947284 157.901249,148.92254 160.358778,146.467119 L184.452638,122.388329 C198.514854,108.343767 198.514854,85.5737893 184.458236,71.5292269 C170.401619,57.4902577 147.617694,57.4902577 133.561077,71.5292269 Z" id="Combined-Shape"></path>
        </g>
    </g>
</svg>