<?xml version="1.0" encoding="UTF-8"?>
<svg width="16px" height="16px" viewBox="0 0 16 16" version="1.1" xmlns="http://www.w3.org/2000/svg" xmlns:xlink="http://www.w3.org/1999/xlink">
    
    <title>Icon/link</title>
    <desc>Created with sketchtool.</desc>
    <g id="Icons" stroke="none" stroke-width="1" fill="none" fill-rule="evenodd">
        <g id="Icon/link" fill="#00205B">
            <path d="M8.16187293,5.25836306 C8.78152518,5.42699628 9.35128595,5.75727792 9.81028762,6.21528176 C11.2591364,7.66512835 11.2591364,10.0220021 9.81028762,11.4708509 L6.36977075,14.9113678 C5.66829646,15.6128421 4.73432784,16 3.74248509,16 C2.74964452,16 1.81667373,15.6128421 1.11519944,14.9113678 C0.412727318,14.2098935 0.0265672163,13.2759249 0.0265672163,12.2840821 C0.0265672163,11.2912415 0.412727318,10.3582708 1.11519944,9.65579864 L2.80153167,7.96946641 C2.94222566,7.82877242 3.16973084,7.82877242 3.31042483,7.96946641 C3.45012099,8.10916257 3.45012099,8.33666775 3.31042483,8.47736174 L1.62309477,10.1646918 C1.05632749,10.7304612 0.744006785,11.4828249 0.744006785,12.2840821 C0.744006785,13.0843416 1.05632749,13.8367052 1.62309477,14.4034724 C2.79055554,15.5709332 4.69341682,15.5729289 5.86087759,14.4034724 L9.3023923,10.9629556 C10.4698531,9.79349914 10.4698531,7.89263352 9.3023923,6.72317709 C8.93219747,6.35497792 8.4731958,6.08755956 7.97328311,5.95085689 C7.7816998,5.89996757 7.66894504,5.70139946 7.72083219,5.51081398 C7.77271934,5.31923067 7.96829396,5.20747374 8.16187293,5.25836306 Z M14.8875446,1.08863222 C16.3353955,2.53748098 16.3353955,4.89435478 14.8875446,6.34320353 L13.0066356,8.22311473 C12.8669394,8.36380872 12.6384364,8.36380872 12.4977424,8.22311473 C12.3580462,8.08341856 12.3580462,7.85591339 12.4977424,7.71621723 L14.3786514,5.8353082 C15.5481079,4.6668496 15.5481079,2.76498616 14.3786514,1.59652755 C13.2451169,0.46299299 11.2714097,0.46399082 10.1398708,1.59652755 L6.69935391,5.03704443 C5.52989747,6.20550303 5.52989747,8.10736648 6.69935391,9.27582508 C7.0685509,9.64502208 7.5285504,9.91244044 8.02946092,10.0481453 C8.2200464,10.1010303 8.33379899,10.2976027 8.28191184,10.489186 C8.23800733,10.6498366 8.09232419,10.7546087 7.9346671,10.7546087 C7.90373438,10.7546087 7.87280166,10.7506174 7.84087111,10.7416369 C7.21922319,10.5720059 6.64846459,10.2407264 6.19046075,9.78372041 C5.48898645,9.08224611 5.10282635,8.14927533 5.10282635,7.15643475 C5.10282635,6.16359418 5.48898645,5.23062339 6.19046075,4.5291491 L9.63097762,1.08863222 C10.3334497,0.386160102 11.2664205,-2.84217094e-14 12.2592611,-2.84217094e-14 C13.2511038,-2.84217094e-14 14.1850725,0.386160102 14.8875446,1.08863222 Z" id="Icon-Color"></path>
        </g>
    </g>
</svg>