<?xml version="1.0" encoding="UTF-8"?>
<svg width="256px" height="256px" viewBox="0 0 256 256" version="1.1" xmlns="http://www.w3.org/2000/svg" xmlns:xlink="http://www.w3.org/1999/xlink">
    
    <title>link</title>
    <desc>Created with sketchtool.</desc>
    <defs></defs>
    <g id="Page-1" stroke="none" stroke-width="1" fill="none" fill-rule="evenodd">
        <g id="link" fill="#000000" fill-rule="nonzero">
            <path d="M73.7515769,97.3781766 C77.8491877,93.2805658 82.3948288,89.9016704 87.2298228,87.2321563 C114.176981,72.3818175 148.73132,80.2783521 166.05516,106.544131 L145.091074,127.498883 C139.08,113.787288 124.15499,105.984093 109.304651,109.306984 C103.713606,110.557736 98.4025793,113.348591 94.0622854,117.688885 L53.8888987,157.88094 C41.689406,170.080432 41.689406,189.924443 53.8888987,202.123935 C66.0883914,214.323428 85.9324016,214.323428 98.1318943,202.123935 L110.518066,189.737763 C121.784162,194.208733 133.862314,195.99152 145.791121,195.104793 L118.451937,222.443978 C95.0143499,245.881565 57.0157771,245.881565 33.5781902,222.443978 C10.1406033,199.006391 10.1406033,161.007818 33.5781902,137.570231 L73.7515769,97.3781766 Z M137.558564,33.5711897 L110.219379,60.9103741 C122.138853,60.0143134 134.226338,61.8064348 145.492434,66.2680702 L157.869272,53.8912322 C170.068765,41.6917395 189.912775,41.6917395 202.112268,53.8912322 C214.311761,66.0907249 214.311761,85.9347351 202.112268,98.1342278 L161.929547,138.316948 C149.692719,150.553777 129.820707,150.451103 117.686552,138.316948 C114.85836,135.488757 112.422195,131.969852 110.900759,128.506951 L89.9366727,149.461703 C92.1394886,152.803263 94.4263101,155.687458 97.3665091,158.627657 C104.945689,166.206837 114.597009,171.853886 125.704428,174.532734 C140.097402,177.995635 155.517113,176.082172 168.76201,168.773677 C173.597004,166.104163 178.142645,162.725268 182.240256,158.627657 L222.413642,118.444936 C245.860563,95.0073494 245.860563,57.0087766 222.422976,33.5711897 C198.985389,10.1429368 160.996151,10.1429368 137.558564,33.5711897 Z"></path>
        </g>
    </g>
</svg>