<?xml version="1.0" encoding="UTF-8"?>
<svg width="256px" height="256px" viewBox="0 0 256 256" version="1.1" xmlns="http://www.w3.org/2000/svg" xmlns:xlink="http://www.w3.org/1999/xlink">
    
    <title>lock-check</title>
    <desc>Created with sketchtool.</desc>
    <defs></defs>
    <g id="Page-1" stroke="none" stroke-width="1" fill="none" fill-rule="evenodd">
        <g id="lock-check" fill="#000000" fill-rule="nonzero">
            <path d="M192,109.333333 L192,72 C192,41.0786667 163.338667,16 128,16 C92.6613333,16 64,41.0786667 64,72 L64,109.333333 L32,109.333333 L32,240 L224,240 L224,109.333333 L192,109.333333 Z M85.3333333,72 C85.3333333,51.4106667 104.469333,34.6666667 128,34.6666667 C151.52,34.6666667 170.666667,51.4106667 170.666667,72 L170.666667,109.333333 L85.3333333,109.333333 L85.3333333,72 Z M121.685333,202.666667 L91.3706667,176.944 L103.872,165.996 L121.685333,180.770667 L159.701333,146.666667 L172.224,157.614667 L121.685333,202.666667 Z"></path>
        </g>
    </g>
</svg>