<?xml version="1.0" encoding="UTF-8"?>
<svg width="256px" height="256px" viewBox="0 0 256 256" version="1.1" xmlns="http://www.w3.org/2000/svg" xmlns:xlink="http://www.w3.org/1999/xlink">
    
    <title>lock-check</title>
    <desc>Created with sketchtool.</desc>
    <defs></defs>
    <g id="Page-1" stroke="none" stroke-width="1" fill="none" fill-rule="evenodd">
        <g id="lock-check" fill="#000000" fill-rule="nonzero">
            <path d="M90.368932,107.805825 L59.3009709,107.805825 L59.3009709,68.6601942 C59.3009709,59.3397592 61.1132505,50.4854788 64.7378641,42.0970874 C68.3624777,33.7086959 73.2815223,26.4077981 79.4951456,20.1941748 C85.7087689,13.9805515 92.9578874,9.0615068 101.242718,5.4368932 C109.52755,1.81227961 118.433609,0 127.961165,0 C137.488721,0 146.394781,1.81227961 154.679612,5.4368932 C162.964443,9.0615068 170.213561,13.9805515 176.427184,20.1941748 C182.640808,26.4077981 187.559852,33.7086959 191.184466,42.0970874 C194.80908,50.4854788 196.621359,59.3397592 196.621359,68.6601942 L196.621359,107.805825 L165.553398,107.805825 L165.553398,68.6601942 C165.553398,58.3041553 161.877059,49.449875 154.524272,42.0970874 C147.171484,34.7442998 138.317204,31.0679612 127.961165,31.0679612 C117.605126,31.0679612 108.750846,34.7442998 101.398058,42.0970874 C94.0452707,49.449875 90.368932,58.3041553 90.368932,68.6601942 L90.368932,107.805825 Z M219.92233,126.446602 L219.92233,256 L36,256 L36,126.446602 L219.92233,126.446602 Z M171.456311,171.184466 L158.718447,158.135922 L118.330097,198.213592 L100.932039,180.815534 L88.1941748,193.864078 L118.330097,224 L171.456311,171.184466 Z"></path>
        </g>
    </g>
</svg>