<?xml version="1.0" encoding="UTF-8"?>
<svg width="256px" height="256px" viewBox="0 0 256 256" version="1.1" xmlns="http://www.w3.org/2000/svg" xmlns:xlink="http://www.w3.org/1999/xlink">
    
    <title>lock-check</title>
    <desc>Created with sketchtool.</desc>
    <defs></defs>
    <g id="Page-1" stroke="none" stroke-width="1" fill="none" fill-rule="evenodd">
        <g id="lock-check" fill="#000000" fill-rule="nonzero">
            <path d="M192,106.666667 L192,64 C192,28.6613333 163.338667,0 128,0 C92.6613333,0 64,28.6613333 64,64 L64,106.666667 L32,106.666667 L32,256 L224,256 L224,106.666667 L192,106.666667 Z M85.3333333,64 C85.3333333,40.4693333 104.469333,21.3333333 128,21.3333333 C151.52,21.3333333 170.666667,40.4693333 170.666667,64 L170.666667,106.666667 L85.3333333,106.666667 L85.3333333,64 Z M121.685333,213.333333 L91.3706667,183.936 L103.872,171.424 L121.685333,188.309333 L159.701333,149.333333 L172.224,161.845333 L121.685333,213.333333 L121.685333,213.333333 Z"></path>
        </g>
    </g>
</svg>