<?xml version="1.0" encoding="UTF-8" standalone="no"?>
<svg width="256px" height="256px" viewBox="0 0 256 256" version="1.1" xmlns="http://www.w3.org/2000/svg" xmlns:xlink="http://www.w3.org/1999/xlink">
    <!-- Generator: sketchtool 41 (35326) - http://www.bohemiancoding.com/sketch -->
    <title>lock-check</title>
    <desc>Created with sketchtool.</desc>
    <defs></defs>
    <g id="Page-1" stroke="none" stroke-width="1" fill="none" fill-rule="evenodd">
        <g id="lock-check" fill="#000000">
            <path d="M99.776699,112.854369 L76.4757282,112.854369 L76.4757282,83.4951456 C76.4757282,76.5048194 77.8349379,69.8641091 80.5533981,63.5728155 C83.2718583,57.2815219 86.9611417,51.8058485 91.6213592,47.1456311 C96.2815767,42.4854136 101.718416,38.7961301 107.932039,36.0776699 C114.145662,33.3592097 120.825207,32 127.970874,32 C135.116541,32 141.796085,33.3592097 148.009709,36.0776699 C154.223332,38.7961301 159.660171,42.4854136 164.320388,47.1456311 C168.980606,51.8058485 172.669889,57.2815219 175.38835,63.5728155 C178.10681,69.8641091 179.466019,76.5048194 179.466019,83.4951456 L179.466019,112.854369 L156.165049,112.854369 L156.165049,83.4951456 C156.165049,75.7281165 153.407795,69.0874062 147.893204,63.5728155 C142.378613,58.0582249 135.737903,55.3009709 127.970874,55.3009709 C120.203845,55.3009709 113.563134,58.0582249 108.048544,63.5728155 C102.533953,69.0874062 99.776699,75.7281165 99.776699,83.4951456 L99.776699,112.854369 Z M196.941748,126.834951 L196.941748,224 L59,224 L59,126.834951 L196.941748,126.834951 Z M160.592233,160.38835 L151.038835,150.601942 L120.747573,180.660194 L107.699029,167.61165 L98.1456311,177.398058 L120.747573,200 L160.592233,160.38835 Z"></path>
        </g>
    </g>
</svg>