<?xml version="1.0" encoding="UTF-8"?>
<svg width="256px" height="256px" viewBox="0 0 256 256" version="1.1" xmlns="http://www.w3.org/2000/svg" xmlns:xlink="http://www.w3.org/1999/xlink">
    
    <title>lock-check</title>
    <desc>Created with sketchtool.</desc>
    <defs></defs>
    <g id="Page-1" stroke="none" stroke-width="1" fill="none" fill-rule="evenodd">
        <g id="lock-check" fill="#000000" fill-rule="nonzero">
            <path d="M184,109.333333 L184,72 C184,41.0786667 158.921333,16 128,16 C97.0786667,16 72,41.0786667 72,72 L72,109.333333 L44,109.333333 L44,240 L212,240 L212,109.333333 L184,109.333333 Z M90.6666667,72 C90.6666667,51.4106667 107.410667,34.6666667 128,34.6666667 C148.58,34.6666667 165.333333,51.4106667 165.333333,72 L165.333333,109.333333 L90.6666667,109.333333 L90.6666667,72 Z M122.474667,202.666667 L95.9493333,176.944 L106.888,165.996 L122.474667,180.770667 L155.738667,146.666667 L166.696,157.614667 L122.474667,202.666667 Z"></path>
        </g>
    </g>
</svg>