<?xml version="1.0" encoding="UTF-8"?>
<svg width="16px" height="16px" viewBox="0 0 16 16" version="1.1" xmlns="http://www.w3.org/2000/svg" xmlns:xlink="http://www.w3.org/1999/xlink">
    
    <title>Icon/loyalty</title>
    <desc>Created with sketchtool.</desc>
    <g id="Icons" stroke="none" stroke-width="1" fill="none" fill-rule="evenodd">
        <g id="Icon/loyalty" fill="#00205B">
            <path d="M12.7575,7.7952 C12.7625,7.7082 12.7835,7.6252 12.7835,7.5362 L12.7835,3.6862 L14.9005,3.6862 C14.4995,5.2402 13.7455,6.6542 12.7575,7.7952 M8.3415,11.2572 L7.3775,11.2572 C5.3245,11.2572 3.6555,9.5882 3.6555,7.5362 L3.6555,1.9372 L12.0635,1.9372 L12.0635,7.5362 C12.0635,9.5882 10.3945,11.2572 8.3415,11.2572 M0.8195,3.6862 L2.9355,3.6862 L2.9355,7.5362 C2.9355,7.6242 2.9555,7.7072 2.9615,7.7942 C1.9745,6.6542 1.2205,5.2402 0.8195,3.6862 M4.2258,14.0628 L11.4928,14.0628 C11.6918,14.0628 11.8528,14.2238 11.8528,14.4228 C11.8528,14.5978 11.7295344,14.7429406 11.5654035,14.7764914 L11.4928,14.7838 L4.2258,14.7838 C4.0268,14.7838 3.8658,14.6228 3.8658,14.4228 C3.8658,14.248675 3.98906562,14.1036437 4.15319648,14.0701066 L4.2258,14.0628 L11.4928,14.0628 Z M9.7086,12.7158 C9.9076,12.7158 10.0686,12.8768 10.0686,13.0768 C10.0686,13.2758 9.9076,13.4368 9.7086,13.4368 L9.7086,13.4368 L6.0106,13.4368 C5.8116,13.4368 5.6496,13.2758 5.6496,13.0768 C5.6496,12.8768 5.8116,12.7158 6.0106,12.7158 L6.0106,12.7158 Z M3.2955,1.2162 L12.4235,1.2162 C12.597625,1.2162 12.7426563,1.33946563 12.7761934,1.50359648 L12.7835,1.5762 L12.7835,2.9652 L15.3605,2.9652 C15.4705,2.9652 15.5745,3.0162 15.6435,3.1032 C15.6945,3.16845 15.7213125,3.2488875 15.7201406,3.33016875 L15.7095,3.4112 L15.6325,3.7272 C15.1165,5.8342 14.0125,7.7402 12.5235,9.0942 C12.5115,9.1052 12.4945,9.1012 12.4825,9.1092 C11.8690385,10.7168923 10.3578328,11.8854204 8.55873464,11.9729289 L8.3415,11.9782 L7.3775,11.9782 C5.4845,11.9782 3.8755,10.7812 3.2365,9.1092 C3.2255,9.1012 3.2085,9.1052 3.1965,9.0942 C1.79508824,7.82172941 0.734714533,6.05851834 0.184621311,4.09719776 L0.0875,3.7272 L0.0105,3.4112 C-0.0155,3.3042 0.0085,3.1902 0.0765,3.1032 C0.12825,3.03795 0.1996875,2.99295 0.279,2.97452813 L0.3605,2.9652 L2.9355,2.9652 L2.9355,1.5762 C2.9355,1.402075 3.05876563,1.25704375 3.22289648,1.22350664 L3.2955,1.2162 L12.4235,1.2162 Z" id="Icon-Color"></path>
        </g>
    </g>
</svg>