<?xml version="1.0" encoding="UTF-8"?>
<svg width="16px" height="16px" viewBox="0 0 16 16" version="1.1" xmlns="http://www.w3.org/2000/svg" xmlns:xlink="http://www.w3.org/1999/xlink">
    
    <title>Icon/loyalty2</title>
    <desc>Created with sketchtool.</desc>
    <g id="Icons" stroke="none" stroke-width="1" fill="none" fill-rule="evenodd">
        <g id="Icon/loyalty2" fill="#00205B">
            <path d="M9.0397,6.5481 C8.9557,6.6311 8.9167,6.7501 8.9367,6.8671 L9.1427,8.0581 L8.0707,7.4961 C7.9677,7.4401 7.8417,7.4401 7.7357,7.4961 L6.6657,8.0591 L6.8687,6.8671 C6.8897,6.7511 6.8507,6.6321 6.7657,6.5491 L5.8997,5.7051 L7.0967,5.5301 C7.2137,5.5131 7.3147,5.4401 7.3677,5.3331 L7.9017,4.2481 L8.4387,5.3321 C8.4907,5.4391 8.5927,5.5121 8.7097,5.5291 L9.9057,5.7021 L9.0397,6.5481 Z M10.7307,5.0941 C10.8667,5.1131 10.9787,5.2081 11.0207,5.3391 C11.0637,5.4691 11.0287,5.6121 10.9317,5.7081 L9.6787,6.9311 L9.9757,8.6531 C9.9987,8.7891 9.9427,8.9251 9.8327,9.0061 C9.7217,9.0871 9.5747,9.0981 9.4537,9.0331 L7.9037,8.2211 L6.3557,9.0351 C6.3037,9.0641 6.2457,9.0771 6.1877,9.0771 C6.1137,9.0771 6.0397,9.0541 5.9767,9.0081 C5.8657,8.9281 5.8107,8.7911 5.8337,8.6561 L6.1277,6.9331 L4.8757,5.7121 C4.7767,5.6161 4.7417,5.4741 4.7837,5.3431 C4.8267,5.2131 4.9387,5.1181 5.0747,5.0981 L6.8057,4.8451 L7.5787,3.2771 C7.6397,3.1531 7.7657,3.0751 7.9017,3.0751 C8.0387,3.0751 8.1637,3.1531 8.2247,3.2771 L9.0007,4.8441 L10.7307,5.0941 Z M12.7575,7.7952 C13.7455,6.6552 14.4995,5.2412 14.9005,3.6862 L12.7835,3.6862 L12.7835,7.5362 C12.7835,7.6252 12.7625,7.7082 12.7575,7.7952 Z M8.3425,11.2572 C10.3945,11.2572 12.0635,9.5882 12.0635,7.5362 L12.0635,1.9372 L3.6565,1.9372 L3.6565,7.5362 C3.6565,9.5882 5.3255,11.2572 7.3775,11.2572 L8.3425,11.2572 Z M0.8195,3.6862 C1.2205,5.2402 1.9745,6.6542 2.9625,7.7952 C2.9575,7.7082 2.9365,7.6252 2.9365,7.5362 L2.9365,3.6862 L0.8195,3.6862 Z M15.6435,3.1032 C15.7115,3.1902 15.7365,3.3042 15.7095,3.4112 L15.6325,3.7272 C15.1165,5.8362 14.0125,7.7422 12.5235,9.0942 C12.5115,9.1052 12.4945,9.1012 12.4825,9.1092 C11.8445,10.7812 10.2365,11.9782 8.3425,11.9782 L7.3775,11.9782 C5.4845,11.9782 3.8755,10.7812 3.2375,9.1092 C3.2255,9.1012 3.2085,9.1052 3.1965,9.0942 C1.7075,7.7402 0.6035,5.8342 0.0875,3.7272 L0.0105,3.4112 C-0.0155,3.3042 0.0085,3.1902 0.0765,3.1032 C0.1455,3.0162 0.2495,2.9652 0.3605,2.9652 L2.9365,2.9652 L2.9365,1.5762 C2.9365,1.3772 3.0975,1.2162 3.2965,1.2162 L12.4235,1.2162 C12.6225,1.2162 12.7835,1.3772 12.7835,1.5762 L12.7835,2.9652 L15.3605,2.9652 C15.4705,2.9652 15.5745,3.0162 15.6435,3.1032 Z M9.7096,13.4368 L6.0116,13.4368 C5.8126,13.4368 5.6506,13.2758 5.6506,13.0768 C5.6506,12.8768 5.8126,12.7158 6.0116,12.7158 L9.7096,12.7158 C9.9086,12.7158 10.0696,12.8768 10.0696,13.0768 C10.0696,13.2758 9.9086,13.4368 9.7096,13.4368 Z M11.4938,14.0628 C11.6928,14.0628 11.8538,14.2238 11.8538,14.4228 C11.8538,14.6228 11.6928,14.7838 11.4938,14.7838 L4.2268,14.7838 C4.0278,14.7838 3.8668,14.6228 3.8668,14.4228 C3.8668,14.2238 4.0278,14.0628 4.2268,14.0628 L11.4938,14.0628 Z" id="Icon-Color"></path>
        </g>
    </g>
</svg>