<?xml version="1.0" encoding="UTF-8"?>
<svg width="16px" height="16px" viewBox="0 0 16 16" version="1.1" xmlns="http://www.w3.org/2000/svg" xmlns:xlink="http://www.w3.org/1999/xlink">
    
    <title>Icon/more-vert-o</title>
    <desc>Created with sketchtool.</desc>
    <g id="Icons" stroke="none" stroke-width="1" fill="none" fill-rule="evenodd">
        <g id="Icon/more-vert-o" fill="#00205B">
            <path d="M8.1592,0.82065 C8.8872,0.82065 9.4782,1.41265 9.4782,2.13965 C9.4782,2.86765 8.8872,3.45965 8.1592,3.45965 C7.4312,3.45965 6.8402,2.86765 6.8402,2.13965 C6.8402,1.41265 7.4312,0.82065 8.1592,0.82065 M8.0273,11.87795 C9.1443,11.87795 10.0543,12.78695 10.0543,13.90495 C10.0543,15.02295 9.1443,15.93295 8.0273,15.93295 C6.9103,15.93295 6.0003,15.02295 6.0003,13.90495 C6.0003,12.78695 6.9103,11.87795 8.0273,11.87795 Z M8.0273,12.58595 C7.2993,12.58595 6.7083,13.17795 6.7083,13.90495 C6.7083,14.63295 7.2993,15.22495 8.0273,15.22495 C8.7553,15.22495 9.3463,14.63295 9.3463,13.90495 C9.3463,13.17795 8.7553,12.58595 8.0273,12.58595 Z M8.0879,5.95995 C9.2049,5.95995 10.1149,6.86895 10.1149,7.98795 C10.1149,9.10495 9.2049,10.01495 8.0879,10.01495 C6.9709,10.01495 6.0609,9.10495 6.0609,7.98795 C6.0609,6.86895 6.9709,5.95995 8.0879,5.95995 Z M8.0879,6.66795 C7.3599,6.66795 6.7689,7.25995 6.7689,7.98795 C6.7689,8.71495 7.3599,9.30695 8.0879,9.30695 C8.8159,9.30695 9.4069,8.71495 9.4069,7.98795 C9.4069,7.25995 8.8159,6.66795 8.0879,6.66795 Z M8.1592,0.11265 C9.2762,0.11265 10.1862,1.02265 10.1862,2.13965 C10.1862,3.25765 9.2762,4.16665 8.1592,4.16665 C7.0422,4.16665 6.1322,3.25765 6.1322,2.13965 C6.1322,1.02265 7.0422,0.11265 8.1592,0.11265 Z" id="Icon-Color"></path>
        </g>
    </g>
</svg>