<?xml version="1.0" encoding="UTF-8"?>
<svg width="16px" height="16px" viewBox="0 0 16 16" version="1.1" xmlns="http://www.w3.org/2000/svg" xmlns:xlink="http://www.w3.org/1999/xlink">
    
    <title>Icon/more-horz-o</title>
    <desc>Created with sketchtool.</desc>
    <g id="Icons" stroke="none" stroke-width="1" fill="none" fill-rule="evenodd">
        <g id="Icon/more-horz-o" fill="#00205B">
            <path d="M8.1589,0.82065 C8.8869,0.82065 9.4779,1.41265 9.4779,2.13965 C9.4779,2.86765 8.8869,3.45965 8.1589,3.45965 C7.4309,3.45965 6.8399,2.86765 6.8399,2.13965 C6.8399,1.41265 7.4309,0.82065 8.1589,0.82065 M8.027,11.87795 C9.144,11.87795 10.054,12.78695 10.054,13.90495 C10.054,15.02295 9.144,15.93295 8.027,15.93295 C6.91,15.93295 6,15.02295 6,13.90495 C6,12.78695 6.91,11.87795 8.027,11.87795 Z M8.027,12.58595 C7.299,12.58595 6.708,13.17795 6.708,13.90495 C6.708,14.63295 7.299,15.22495 8.027,15.22495 C8.755,15.22495 9.346,14.63295 9.346,13.90495 C9.346,13.17795 8.755,12.58595 8.027,12.58595 Z M8.0876,5.95995 C9.2046,5.95995 10.1146,6.86895 10.1146,7.98795 C10.1146,9.10495 9.2046,10.01495 8.0876,10.01495 C6.9706,10.01495 6.0606,9.10495 6.0606,7.98795 C6.0606,6.86895 6.9706,5.95995 8.0876,5.95995 Z M8.0876,6.66795 C7.3596,6.66795 6.7686,7.25995 6.7686,7.98795 C6.7686,8.71495 7.3596,9.30695 8.0876,9.30695 C8.8156,9.30695 9.4066,8.71495 9.4066,7.98795 C9.4066,7.25995 8.8156,6.66795 8.0876,6.66795 Z M8.1589,0.11265 C9.2759,0.11265 10.1859,1.02265 10.1859,2.13965 C10.1859,3.25765 9.2759,4.16665 8.1589,4.16665 C7.0419,4.16665 6.1319,3.25765 6.1319,2.13965 C6.1319,1.02265 7.0419,0.11265 8.1589,0.11265 Z" id="Icon-Color" transform="translate(8.092950, 8.022800) rotate(-270.000000) translate(-8.092950, -8.022800) "></path>
        </g>
    </g>
</svg>