<?xml version="1.0" encoding="UTF-8"?>
<svg width="16px" height="16px" viewBox="0 0 16 16" version="1.1" xmlns="http://www.w3.org/2000/svg" xmlns:xlink="http://www.w3.org/1999/xlink">
    
    <title>Icon/more-horz</title>
    <desc>Created with sketchtool.</desc>
    <g id="Icons" stroke="none" stroke-width="1" fill="none" fill-rule="evenodd">
        <g id="Icon/more-horz" fill="#00205B">
            <path d="M7.998,11.82235 C9.099,11.82235 9.995,12.71835 9.995,13.81935 C9.995,14.92035 9.099,15.81635 7.998,15.81635 C6.896,15.81635 6,14.92035 6,13.81935 C6,12.71835 6.896,11.82235 7.998,11.82235 Z M8.0576,5.99085 C9.1586,5.99085 10.0546,6.88685 10.0546,7.98885 C10.0546,9.08985 9.1586,9.98585 8.0576,9.98585 C6.9556,9.98585 6.0596,9.08985 6.0596,7.98885 C6.0596,6.88685 6.9556,5.99085 8.0576,5.99085 Z M8.127,0.22925 C9.229,0.22925 10.125,1.12525 10.125,2.22625 C10.125,3.32825 9.229,4.22425 8.127,4.22425 C7.026,4.22425 6.13,3.32825 6.13,2.22625 C6.13,1.12525 7.026,0.22925 8.127,0.22925 Z" id="Icon-Color" transform="translate(8.062500, 8.022800) rotate(-270.000000) translate(-8.062500, -8.022800) "></path>
        </g>
    </g>
</svg>