<?xml version="1.0" encoding="UTF-8" standalone="no"?>
<svg width="512px" height="512px" viewBox="0 0 512 512" version="1.1" xmlns="http://www.w3.org/2000/svg" xmlns:xlink="http://www.w3.org/1999/xlink">
    <!-- Generator: sketchtool 41 (35326) - http://www.bohemiancoding.com/sketch -->
    <title>p1apron</title>
    <desc>Created with sketchtool.</desc>
    <defs></defs>
    <g id="Page-1" stroke="none" stroke-width="1" fill="none" fill-rule="evenodd">
        <g id="p1apron" fill="#000000">
            <path d="M376.33773,309.006003 C365.301035,291.949292 357.023637,273.805905 351.50529,254.575299 C345.986942,235.344694 342.140878,217.535748 339.966984,201.147927 C337.793089,184.760107 336.789768,171.215274 336.956991,160.513024 C337.124214,149.810774 337.207824,144.459729 337.207824,144.459729 L331.689504,144.459729 C329.348386,94.627377 323.412071,63.6080391 313.88038,51.400785 C304.348688,39.1935309 299.582914,33.0899955 299.582914,33.0899955 C277.175077,5.99992475 256.690609,-0.77249134 238.128894,12.772544 C219.567179,26.3175794 210.28646,33.0899955 210.28646,33.0899955 C201.925328,42.4544643 195.654572,53.4909943 191.474005,66.1999163 C187.293439,78.9088384 184.283476,91.0322993 182.444027,102.570663 C180.604578,114.109026 179.517647,123.891405 179.183201,131.918093 C178.848756,139.94478 178.681536,143.958064 178.681536,143.958064 L174.668212,144.961395 C174.668212,176.064809 172.66157,202.067543 168.648227,222.970375 C164.634883,243.873207 160.119939,260.678832 155.103259,273.387755 C150.086579,286.096677 145.488025,295.210175 141.307459,300.728523 C137.126892,306.24687 135.03664,309.006003 135.03664,309.006003 L124,451.478996 C124,451.478996 126.675522,457.749751 132.026647,470.291451 C137.377773,482.83315 148.748743,491.277768 166.139899,495.625557 C191.892189,501.980018 217.811312,505.408031 243.898047,505.909699 C269.984782,506.411367 295.736685,504.822775 321.154529,501.143877 C346.237928,497.799424 363.545213,490.859787 373.076905,480.32476 C382.608596,469.789732 387.374371,458.669592 387.374371,446.964006 C387.374371,441.278436 386.7891,430.910787 385.618541,415.860747 C384.447983,400.810708 383.193832,385.342844 381.85605,369.456692 C380.518269,353.570539 379.264118,339.524046 378.093559,327.316792 C376.923001,315.109538 376.33773,309.006003 376.33773,309.006003 L376.33773,309.006003 Z M215.804781,372.717517 L215.804781,449.472334 L190.219842,449.472334 L190.219842,294.457704 L215.804781,294.457704 L215.804781,372.717517 Z M252.928025,358.169219 C252.928025,365.861461 251.590264,371.714166 248.914701,375.72751 C246.239139,379.740854 243.061956,382.750816 239.383058,384.757488 C239.383058,384.757488 238.463347,385.175539 236.623898,386.011652 C234.784448,386.847765 232.526976,387.433036 229.851414,387.767481 L225.336424,387.767481 L219.818104,387.767481 L219.316439,387.767481 L218.814773,387.767481 L218.814773,373.219183 C221.824781,373.553628 223.998643,373.470018 225.336424,372.96835 C226.674206,372.466682 227.677527,371.714191 228.346417,370.710855 C229.015308,370.041965 229.349748,369.205864 229.349748,368.202528 L229.349748,366.697532 L229.349748,315.025988 L229.349748,313.520992 C229.349748,312.517656 229.015308,311.681555 228.346417,311.012665 C227.677527,310.009329 226.674206,309.256838 225.336424,308.75517 C223.998643,308.253502 221.824781,308.169892 218.814773,308.504337 L218.814773,294.457704 C218.814773,294.457704 218.981994,294.374094 219.316439,294.206871 C219.650884,294.039649 219.818104,293.956039 219.818104,293.956039 L225.336424,293.956039 C227.343096,293.956039 228.848078,294.123259 229.851414,294.457704 C232.526976,294.792149 234.784448,295.29381 236.623898,295.962701 C238.463347,296.631591 239.383058,296.966031 239.383058,296.966031 C243.061956,298.972703 246.239139,301.982666 248.914701,305.99601 C251.590264,310.009354 252.928025,315.862059 252.928025,323.554301 L252.928025,358.169219 Z M197.243158,144.459729 C197.243158,144.459729 197.159548,140.112005 196.992326,131.416427 C196.825103,122.720849 197.159543,112.43681 197.995656,100.564001 C198.83177,88.6911921 200.420361,76.4841211 202.761478,63.9424217 C205.102596,51.4007223 208.781439,41.1166831 213.798119,33.0899955 C221.490361,25.3977532 235.035193,21.2172494 254.433022,20.5483588 C273.83085,19.8794681 288.379003,24.227192 298.077917,33.5916609 C303.094597,41.2839032 306.77344,51.3171122 309.114558,63.691589 C311.455675,76.0660657 313.044266,88.2731367 313.88038,100.313168 C314.716493,112.3532 315.050933,122.720849 314.88371,131.416427 C314.716488,140.112005 314.632878,144.459729 314.632878,144.459729 L197.243158,144.459729 Z M321.656194,449.472334 L295.067925,449.472334 L295.067925,340.610927 L280.519626,340.610927 L280.519626,321.045974 C286.874087,320.042638 291.305421,317.032675 293.813761,312.015996 C296.322101,306.999316 297.576252,301.146611 297.576252,294.457704 L321.656194,294.457704 L321.656194,449.472334 Z" id="Type-something"></path>
        </g>
    </g>
</svg>