<?xml version="1.0" encoding="UTF-8"?>
<svg width="256px" height="256px" viewBox="0 0 256 256" version="1.1" xmlns="http://www.w3.org/2000/svg" xmlns:xlink="http://www.w3.org/1999/xlink">
    
    <title>p1apron</title>
    <desc>Created with sketchtool.</desc>
    <defs></defs>
    <g id="Page-1" stroke="none" stroke-width="1" fill="none" fill-rule="evenodd">
        <g id="p1apron" fill="#000000" fill-rule="nonzero">
            <path d="M190.196918,155.139073 C184.54613,146.406037 180.308102,137.116623 177.482708,127.270553 C174.657314,117.424483 172.68813,108.306303 171.575096,99.9157387 C170.462062,91.5251746 169.948361,84.5902205 170.033979,79.1106684 C170.119597,73.6311163 170.162406,70.8913814 170.162406,70.8913814 L167.337026,70.8913814 C166.138374,45.377217 163.09898,29.495316 158.218754,23.2452019 C153.338528,16.9950878 150.898452,13.8700777 150.898452,13.8700777 C139.42564,-3.85278693e-05 128.937592,-3.46751557 119.433994,3.46754254 C109.930396,10.4026006 105.178668,13.8700777 105.178668,13.8700777 C100.897768,18.6646857 97.6871408,24.3153891 95.5466908,30.8223572 C93.4062407,37.3293253 91.8651398,43.5365372 90.9233418,49.4441793 C89.9815438,55.3518214 89.4250351,60.3603994 89.2537991,64.4700634 C89.0825631,68.5797275 88.9969464,70.6345287 88.9969464,70.6345287 L86.9421247,71.1482341 C86.9421247,87.0731824 85.9147241,100.386582 83.859892,111.088832 C81.80506,121.791082 79.4934086,130.395562 76.9248686,136.90253 C74.3563286,143.409498 72.0018689,148.075609 69.8614188,150.901004 C67.7209688,153.726398 66.6507598,155.139073 66.6507598,155.139073 L61,228.085246 C61,228.085246 62.3698675,231.295873 65.1096435,237.717223 C67.8494196,244.138573 73.6713563,248.462217 82.5756284,250.688285 C95.7608006,253.941769 109.031392,255.696912 122.3878,255.953766 C135.744208,256.21062 148.929183,255.397261 161.943119,253.513665 C174.785819,251.801305 183.647149,248.248211 188.527375,242.854277 C193.407601,237.460343 195.847678,231.766831 195.847678,225.773571 C195.847678,222.862559 195.548019,217.554323 194.948693,209.848703 C194.349367,202.143083 193.707242,194.223536 193.022298,186.089826 C192.337354,177.956116 191.695228,170.764312 191.095902,164.514198 C190.496576,158.264084 190.196918,155.139073 190.196918,155.139073 L190.196918,155.139073 Z M108.004048,187.759369 L108.004048,227.057835 L94.904559,227.057835 L94.904559,147.690345 L108.004048,147.690345 L108.004048,187.759369 Z M127.011149,180.31064 C127.011149,184.249068 126.326215,187.245653 124.956327,189.300485 C123.586439,191.355317 121.959722,192.896418 120.076125,193.923834 C120.076125,193.923834 119.605234,194.137876 118.663436,194.565966 C117.721638,194.994056 116.565812,195.293714 115.195924,195.46495 L112.884249,195.46495 L110.058869,195.46495 L109.802017,195.46495 L109.545164,195.46495 L109.545164,188.016221 C111.086288,188.187457 112.199305,188.144649 112.884249,187.887795 C113.569193,187.630941 114.082894,187.245666 114.425366,186.731958 C114.767838,186.389486 114.939071,185.961402 114.939071,185.447694 L114.939071,184.677136 L114.939071,158.221306 L114.939071,157.450748 C114.939071,156.93704 114.767838,156.508956 114.425366,156.166484 C114.082894,155.652776 113.569193,155.267501 112.884249,155.010647 C112.199305,154.753793 111.086288,154.710985 109.545164,154.882221 L109.545164,147.690345 C109.545164,147.690345 109.630781,147.647536 109.802017,147.561918 C109.973253,147.4763 110.058869,147.433492 110.058869,147.433492 L112.884249,147.433492 C113.911665,147.433492 114.682216,147.519109 115.195924,147.690345 C116.565812,147.861581 117.721638,148.118431 118.663436,148.460903 C119.605234,148.803375 120.076125,148.974608 120.076125,148.974608 C121.959722,150.002024 123.586439,151.543125 124.956327,153.597957 C126.326215,155.652789 127.011149,158.649374 127.011149,162.587802 L127.011149,180.31064 Z M98.500497,70.8913814 C98.500497,70.8913814 98.4576887,68.6653468 98.3720707,64.2132107 C98.2864527,59.7610746 98.4576861,54.4956465 98.8857761,48.4167684 C99.3138661,42.3378904 100.127225,36.08787 101.325877,29.6665199 C102.524529,23.2451698 104.408097,17.9797417 106.976637,13.8700777 C110.915065,9.93164962 117.850019,7.79123169 127.781707,7.44875969 C137.713395,7.10628768 145.16205,9.33232232 150.127894,14.1269304 C152.696434,18.0653585 154.580001,23.2023615 155.778653,29.5380936 C156.977306,35.8738257 157.790664,42.123846 158.218754,48.2883421 C158.646844,54.4528382 158.818078,59.7610746 158.73246,64.2132107 C158.646842,68.6653468 158.604033,70.8913814 158.604033,70.8913814 L98.500497,70.8913814 Z M162.199971,227.057835 L148.586777,227.057835 L148.586777,171.320795 L141.138048,171.320795 L141.138048,161.303539 C144.391533,160.789831 146.660376,159.24873 147.944646,156.68019 C149.228916,154.11165 149.871041,151.115065 149.871041,147.690345 L162.199971,147.690345 L162.199971,227.057835 Z"></path>
        </g>
    </g>
</svg>