<?xml version="1.0" encoding="UTF-8"?>
<svg width="16px" height="16px" viewBox="0 0 16 16" version="1.1" xmlns="http://www.w3.org/2000/svg" xmlns:xlink="http://www.w3.org/1999/xlink">
    
    <title>Icon/p1apron</title>
    <desc>Created with sketchtool.</desc>
    <g id="Icons" stroke="none" stroke-width="1" fill="none" fill-rule="evenodd">
        <g id="Icon/p1apron" fill="#00205B">
            <path d="M4.562,14.9095 L5.313,8.4875 C5.314,8.4805 5.312,8.4735 5.313,8.4665 C5.313,8.4625 5.312,8.4595 5.312,8.4545 C5.313,8.4345 5.314,8.4145 5.312,8.3945 L5.007,6.2485 C5.436,5.8975 6.347,4.8845 6.242,2.6735 L9.741,2.6735 C9.717,3.5135 9.804,5.4375 11.031,6.1795 L10.617,8.4175 C10.611,8.4535 10.61,8.4905 10.614,8.5265 L11.387,14.9095 L4.562,14.9095 Z M15.227,8.2735 C15.064,8.1645 14.839,8.2105 14.729,8.3765 C14.611,8.5565 14.416,8.7755 14.164,8.7915 C13.885,8.8215 13.56,8.6025 13.219,8.2095 C12.88,7.8185 12.491,7.6175 12.061,7.6115 L12.042,7.6115 C11.831,7.6115 11.645,7.6655 11.476,7.7345 L11.788,6.0455 C11.818,5.8785 11.727,5.7125 11.57,5.6475 C10.448,5.1855 10.403,3.1105 10.481,2.3495 C10.491,2.2485 10.458,2.1475 10.39,2.0725 C10.322,1.9965 10.224,1.9535 10.123,1.9535 L9.809,1.9535 L9.809,0.7305 C9.809,0.5315 9.648,0.3705 9.449,0.3705 C9.249,0.3705 9.088,0.5315 9.088,0.7305 L9.088,1.9535 L6.89,1.9535 L6.89,0.7305 C6.89,0.5315 6.729,0.3705 6.53,0.3705 C6.331,0.3705 6.169,0.5315 6.169,0.7305 L6.169,1.9535 L5.855,1.9535 C5.753,1.9535 5.657,1.9955 5.588,2.0715 C5.52,2.1465 5.487,2.2465 5.497,2.3475 C5.75,4.9755 4.497,5.7405 4.446,5.7695 C4.316,5.8415 4.244,5.9875 4.264,6.1355 L4.488,7.7165 C4.329,7.6565 4.154,7.6115 3.958,7.6115 L3.94,7.6115 C3.51,7.6175 3.121,7.8185 2.781,8.2095 C2.441,8.6025 2.099,8.8185 1.836,8.7915 C1.583,8.7755 1.389,8.5565 1.271,8.3765 C1.161,8.2095 0.936,8.1635 0.773,8.2735 C0.606,8.3825 0.56,8.6055 0.669,8.7715 C1.046,9.3455 1.486,9.4905 1.789,9.5105 C1.817,9.5125 1.845,9.5135 1.873,9.5135 C2.359,9.5135 2.847,9.2335 3.326,8.6815 C3.526,8.4495 3.729,8.3355 3.946,8.3315 C4.189,8.3245 4.436,8.4875 4.576,8.5955 L3.8,15.2275 C3.789,15.3295 3.821,15.4315 3.889,15.5085 C3.958,15.5855 4.055,15.6295 4.158,15.6295 L11.793,15.6295 C11.896,15.6295 11.995,15.5855 12.063,15.5085 C12.131,15.4305 12.164,15.3285 12.151,15.2255 L11.353,8.6425 C11.447,8.5445 11.71,8.3065 12.055,8.3315 C12.271,8.3355 12.474,8.4505 12.674,8.6815 C13.154,9.2335 13.641,9.5135 14.127,9.5135 C14.155,9.5135 14.183,9.5125 14.211,9.5105 C14.514,9.4905 14.954,9.3455 15.331,8.7715 C15.44,8.6055 15.394,8.3825 15.227,8.2735 L15.227,8.2735 Z M8.5971,6.9451 L8.5971,7.6161 L9.1361,7.6161 L9.1361,11.3351 L9.9381,11.3351 L9.9381,6.0221 L9.2021,6.0221 C9.2021,6.4971 9.0641,6.8761 8.5971,6.9451 M6.0151,8.7186 L6.0151,11.3346 L6.8761,11.3346 L6.8761,8.6946 L6.8761,6.0226 L6.0151,6.0226 L6.0151,8.7186 Z M7.6938,6.1312 C7.6938,6.1312 7.5608,6.0582 7.3788,6.0362 C7.3048,6.0272 7.1368,6.0222 7.0378,6.0222 L6.9928,6.0222 L6.9928,6.5202 C7.1888,6.4962 7.2748,6.5462 7.3158,6.6032 C7.3558,6.6562 7.3528,6.7362 7.3528,6.7362 L7.3528,8.5052 C7.3528,8.5052 7.3558,8.5852 7.3158,8.6392 C7.2748,8.6952 7.1888,8.7452 6.9928,8.7222 L6.9928,9.2202 L7.0378,9.2202 C7.1368,9.2192 7.3048,9.2162 7.3788,9.2062 C7.5608,9.1842 7.6938,9.1112 7.6938,9.1112 C7.9408,8.9722 8.1578,8.7252 8.1578,8.2032 L8.1578,7.0392 C8.1578,6.5162 7.9408,6.2702 7.6938,6.1312" id="Icon-Color"></path>
        </g>
    </g>
</svg>