<?xml version="1.0" encoding="UTF-8"?>
<svg width="62px" height="32px" viewBox="0 0 62 32" version="1.1" xmlns="http://www.w3.org/2000/svg" xmlns:xlink="http://www.w3.org/1999/xlink">
    
    <title>Icon/p1logo</title>
    <desc>Created with sketchtool.</desc>
    <g id="Icons" stroke="none" stroke-width="1" fill="none" fill-rule="evenodd">
        <g id="Icon/p1logo" fill="#0033A0">
            <path d="M53.2980855,0 C53.2980855,2.85803035 52.4548058,5.14241874 49.625,5.55797983 L49.625,9.6040119 L52.8890948,9.6040119 L52.8890948,32 L57.75,32 L57.75,0 L53.2980855,0" id="Fill-2"></path>
            <polygon id="Fill-3" points="14.875 32 19.625 32 19.625 5.625 14.875 5.625"></polygon>
            <polygon id="Fill-4" points="14.875 4.625 19.625 4.625 19.625 0 14.875 0"></polygon>
            <path d="M28.7412197,28.1165278 C28.7412197,28.1165278 28.8121835,29.0703735 27.9155145,29.1916201 C27.4885293,29.2435828 27.2106882,29.1916201 27.2106882,29.1916201 C27.1673883,29.1856473 27.1270954,29.1778828 27.0898093,29.1683264 L27.0898093,32 L27.9155145,32 C28.477812,32 29.0539413,31.9856654 29.4713043,31.9283272 C30.4160843,31.8172343 31.1016662,31.4403547 31.1016662,31.4403547 C32.3772093,30.7260156 33.5,29.4627822 33.5,26.7828161 L33.5,23.2260524 L28.7412197,23.2260524 L28.7412197,28.1165278 Z M24.025138,6.18524253 C22.7477907,6.89838708 21.625,8.16221778 21.625,10.8439757 L21.625,26.7828161 C21.625,29.4627822 22.7477907,30.7260156 24.025138,31.4403547 C24.025138,31.4403547 24.7095171,31.8172343 25.6548985,31.9283272 C25.8653841,31.956399 26.1155614,31.9749145 26.3843816,31.9856654 L26.3843816,28.2204534 C26.3819761,28.1559478 26.3843816,28.1165278 26.3843816,28.1165278 L26.3843816,9.50847223 C26.3843816,9.50847223 26.3819761,9.46905218 26.3843816,9.40454664 L26.3843816,5.63993184 C26.1155614,5.64948821 25.8653841,5.66740642 25.6548985,5.69667282 C24.7095171,5.80836296 24.025138,6.18524253 24.025138,6.18524253 L24.025138,6.18524253 Z M31.1016662,6.18524253 C31.1016662,6.18524253 30.4160843,5.80836296 29.4713043,5.69667282 C29.0539413,5.63993184 28.477812,5.625 27.9155145,5.625 L27.2106882,5.625 C27.1697939,5.625 27.1295009,5.62559727 27.0898093,5.62619455 L27.0898093,8.45607634 C27.1270954,8.44771451 27.1673883,8.43935268 27.2106882,8.43337995 C27.2106882,8.43337995 27.4885293,8.38201443 27.9155145,8.43337995 C28.8121835,8.55582101 28.7412197,9.50847223 28.7412197,9.50847223 L28.7412197,15.2578268 C28.7303948,15.5080844 28.6305644,16.1322352 27.9155145,16.2295908 L27.0777816,16.2295908 L27.0777816,19.2947983 L33.5,19.2947983 L33.5,10.8439757 C33.5,8.16221778 32.3772093,6.89838708 31.1016662,6.18524253 L31.1016662,6.18524253 Z" id="Fill-5"></path>
            <path d="M35.625,32 L40.3457038,32 L40.3457038,5.54237527 L35.625,5.54237527 L35.625,32 Z M42.9982273,5.38420111 C42.2521304,5.41955064 41.4354031,5.70654088 41.0522078,6.12654122 L41.046239,8.1834045 C42.6005079,7.84069381 42.4118946,8.89279167 42.4118946,9.89875539 L42.4118946,12.9789576 L46.75,12.9789576 L46.75,10.3235489 C46.75,6.53156295 45.6985009,5.25179016 42.9982273,5.38420111 L42.9982273,5.38420111 Z" id="Fill-6"></path>
            <path d="M10.0870687,0.658071518 C10.0870687,0.658071518 9.29051688,0.215564829 8.19122762,0.0844295578 C7.75115365,0.0233528564 6.73844611,0.00419153833 6.14551062,0.00059879119 C6.08400775,0 5.9377145,0 5.87800297,0 L5.87621162,0 L5.87621162,3.00114145 C7.05312587,2.85683277 7.57201906,3.15862353 7.81623922,3.49873692 C8.05926514,3.82148538 8.03657476,4.30291349 8.03657476,4.30291349 L8.03657476,14.9596003 C8.03657476,14.9596003 8.05926514,15.4410284 7.81623922,15.7649745 C7.57201906,16.1044891 7.05312587,16.4050822 5.87621162,16.2619711 L5.87621162,19.2625138 L5.87800297,19.2625138 C5.9377145,19.2625138 6.08400775,19.2625138 6.14551062,19.261915 C6.73844611,19.2595198 7.75115365,19.2391609 8.19122762,19.178683 C9.29051688,19.0481466 10.0870687,18.6050411 10.0870687,18.6050411 C11.5703031,17.7685298 12.875,16.2829288 12.875,13.1368799 L12.875,6.12623267 C12.875,2.97898617 11.5703031,1.4951816 10.0870687,0.658071518 L10.0870687,0.658071518 Z M0,32 L5.1763925,32 L5.1763925,0 L0,0 L0,32 Z" id="Fill-7"></path>
            <path d="M61.8809135,1.5 L61.8160685,0.595740599 C61.8087276,0.478319263 61.8160685,0.335571757 61.812398,0.188219493 L61.8001631,0.188219493 C61.7603997,0.328089025 61.7126835,0.48637759 61.6649674,0.6176132 L61.3321778,1.48100537 L61.1474307,1.48100537 L60.8232055,0.595740599 C60.7834421,0.474865695 60.7430669,0.328089025 60.7069739,0.188219493 L60.694739,0.188219493 C60.6910685,0.331542594 60.694739,0.45990023 60.6867863,0.595740599 L60.627447,1.5 L60.3943719,1.5 L60.519168,0 L60.8348287,0 L61.1474307,0.813891021 C61.1878059,0.927283193 61.2196166,1.05161167 61.2599918,1.1909056 L61.2679445,1.1909056 C61.3034258,1.05161167 61.3401305,0.919224866 61.379894,0.810437452 L61.6918842,0 L62.0050979,0 L62.125,1.5 L61.8809135,1.5 Z M60.3380914,0 L60.3380914,0.192248657 L59.8499184,0.192248657 L59.8499184,1.5 L59.6095024,1.5 L59.6095024,0.192248657 L59.125,0.192248657 L59.125,0 L60.3380914,0 L60.3380914,0 Z" id="Fill-8"></path>
        </g>
    </g>
</svg>