<?xml version="1.0" encoding="UTF-8" standalone="no"?>
<svg width="1134px" height="512px" viewBox="0 0 1134 512" version="1.1" xmlns="http://www.w3.org/2000/svg" xmlns:xlink="http://www.w3.org/1999/xlink">
    <!-- Generator: sketchtool 41 (35326) - http://www.bohemiancoding.com/sketch -->
    <title>p1logo-alt-1</title>
    <desc>Created with sketchtool.</desc>
    <defs></defs>
    <g id="Page-1" stroke="none" stroke-width="1" fill="none" fill-rule="evenodd">
        <g id="p1logo-alt-1" fill="#000000">
            <g id="Group" transform="translate(6.000000, 6.000000)">
                <path d="M836.628508,96.2649134 L836.628508,157.69595 L886.00662,157.69595 L886.00662,499.065889 L959.490581,499.065889 L959.490581,11.5056349 L892.227484,11.5056349 C892.227484,55.0516863 879.396951,90.044049 836.628508,96.2649134 Z" id="Shape"></path>
                <polygon id="Shape" points="245.257578 499.065889 317.575128 499.065889 317.575128 281.335632 317.575128 95.8761094 245.257578 95.8761094 245.257578 283.279652"></polygon>
                <polygon id="Shape" points="245.257578 81.4903603 317.575128 81.4903603 317.575128 52.7188621 317.575128 11.5056349 245.257578 11.5056349 245.257578 55.0516863"></polygon>
                <path d="M477.373584,439.967676 C477.373584,439.967676 478.539996,454.742229 464.931855,456.297445 C458.322187,457.075053 454.045342,456.297445 454.045342,456.297445 C453.267734,456.297445 452.87893,455.908641 452.101322,455.908641 L452.101322,499.065889 L454.045342,499.065889 L464.931855,499.065889 C473.485544,499.065889 482.039232,498.677085 488.648901,497.899477 C503.03465,496.34426 513.532359,490.5122 513.532359,490.5122 C532.97256,479.625687 550.079938,460.185486 550.079938,419.361062 L550.079938,364.928498 L477.762388,364.928498 L477.762388,439.967676 L477.373584,439.967676 Z M405.833643,104.429798 C386.393441,115.316311 369.286064,134.756512 369.286064,175.580936 L369.286064,419.361062 C369.286064,460.185486 386.393441,479.625687 405.833643,490.5122 C405.833643,490.5122 416.331351,496.34426 430.7171,497.899477 C433.827533,498.288281 437.715573,498.677085 441.603613,498.677085 L441.603613,441.522892 L441.603613,439.967676 L441.603613,155.75193 L441.603613,154.196714 L441.603613,96.6537175 C437.715573,96.6537175 433.827533,97.0425215 430.7171,97.4313255 C416.331351,98.9865417 405.833643,104.429798 405.833643,104.429798 L405.833643,104.429798 Z M513.532359,104.429798 C513.532359,104.429798 503.03465,98.5977376 488.648901,97.0425215 C482.428036,96.2649134 473.485544,95.8761094 464.931855,95.8761094 L454.045342,95.8761094 L452.101322,95.8761094 L452.101322,139.033357 C452.490126,139.033357 453.267734,138.644553 454.045342,138.644553 C454.045342,138.644553 458.322187,137.866945 464.931855,138.644553 C478.539996,140.588573 477.373584,154.974322 477.373584,154.974322 L477.373584,243.232837 C477.373584,247.120877 475.818368,256.452174 464.931855,258.00739 L452.101322,258.00739 L452.101322,304.663874 L549.691134,304.663874 L549.691134,175.580936 C549.691134,134.756512 532.583756,115.705115 513.532359,104.429798 L513.532359,104.429798 Z" id="Shape"></path>
                <path d="M604.512502,499.065889 L676.830052,499.065889 L676.830052,286.00128 L676.830052,96.2649134 L604.512502,96.2649134 L604.512502,290.666929 L604.512502,499.065889 L604.512502,499.065889 Z M717.265671,93.5432852 C705.990354,93.9320893 693.548625,98.5977376 687.32776,104.818602 L687.32776,136.311729 C711.044806,131.257276 708.323178,147.198241 708.323178,162.361599 L708.323178,209.406886 L774.808667,209.406886 L774.808667,168.971267 C774.808667,111.039467 758.478898,91.5992651 717.265671,93.5432852 L717.265671,93.5432852 Z" id="Shape"></path>
                <path d="M154.666239,21.2257356 C154.666239,21.2257356 142.613314,14.6160671 125.505937,12.672047 C118.896268,11.8944389 103.344107,11.5056349 94.4016144,11.5056349 L90.12477,11.5056349 L90.12477,11.5056349 L90.12477,57.3845104 C108.009755,55.0516863 116.17464,59.7173346 119.673876,64.771787 C123.561917,69.8262394 123.173113,77.213516 123.173113,77.213516 L123.173113,239.344797 C123.173113,239.344797 123.561917,246.732073 119.673876,251.786525 C115.785836,256.840978 108.009755,261.506626 90.12477,259.562606 L90.12477,305.441482 L90.12477,305.441482 L94.4016144,305.441482 C103.344107,305.441482 118.896268,305.052678 125.505937,304.27507 C142.22451,302.331049 154.666239,295.721381 154.666239,295.721381 C177.216873,282.890848 197.434682,260.340214 197.434682,212.517318 L197.434682,105.59621 C197.434682,56.6069024 177.216873,34.0562686 154.666239,21.2257356 L154.666239,21.2257356 Z M0.311039092,499.065889 L79.6270612,499.065889 L79.6270612,256.452174 L79.6270612,11.1168309 L0.311039092,11.1168309 L0.311039092,258.784998 L0.311039092,499.065889 L0.311039092,499.065889 Z" id="Shape"></path>
                <polygon id="Shape" points="1086.2407 496.733064 1028.6977 496.733064 1028.6977 485.846552 1086.2407 485.846552"></polygon>
                <polygon id="Shape" points="1086.2407 443.078108 1028.6977 443.078108 1028.6977 427.914751 1068.74451 417.028238 1068.74451 417.028238 1028.6977 406.141725 1028.6977 390.589564 1086.2407 390.589564 1086.2407 399.920861 1040.75062 399.920861 1040.75062 399.920861 1086.2407 412.751394 1086.2407 420.916279 1040.75062 433.358008 1040.75062 433.358008 1086.2407 433.358008"></polygon>
                <path d="M1086.2407,350.153945 L1028.6977,350.153945 L1028.6977,329.158527 C1028.6977,316.716799 1033.75215,308.940718 1045.80508,308.940718 C1057.858,308.940718 1062.91245,316.716799 1062.91245,329.158527 L1062.91245,339.267432 L1086.2407,339.267432 L1086.2407,350.153945 L1086.2407,350.153945 Z M1054.35876,339.267432 L1054.35876,330.713744 C1054.35876,322.548859 1051.24833,320.216035 1046.19388,320.216035 C1041.13943,320.216035 1038.029,322.548859 1038.029,330.713744 L1038.029,339.267432 L1054.35876,339.267432 L1054.35876,339.267432 Z" id="Shape"></path>
                <path d="M1087.0183,256.452174 C1087.0183,272.004335 1076.13179,280.558024 1057.4692,280.558024 C1038.8066,280.558024 1027.92009,272.004335 1027.92009,256.452174 C1027.92009,240.900013 1038.8066,232.346324 1057.4692,232.346324 C1076.52059,232.346324 1087.0183,240.900013 1087.0183,256.452174 L1087.0183,256.452174 Z M1037.25139,256.452174 C1037.25139,265.394667 1044.24986,269.282707 1057.4692,269.282707 C1071.07734,269.282707 1077.68701,265.394667 1077.68701,256.452174 C1077.68701,247.509681 1070.68853,243.232837 1057.4692,243.232837 C1044.24986,243.232837 1037.25139,247.509681 1037.25139,256.452174 L1037.25139,256.452174 Z" id="Shape"></path>
                <path d="M1086.2407,195.409941 L1028.6977,195.409941 L1028.6977,172.859307 C1028.6977,160.028774 1036.08498,154.585518 1045.80508,154.585518 C1052.80355,154.585518 1058.63561,158.084754 1060.57963,165.083227 L1086.2407,152.641498 L1086.2407,164.694423 L1062.91245,175.580936 L1062.91245,184.912232 L1086.2407,184.912232 L1086.2407,195.409941 L1086.2407,195.409941 Z M1053.96996,184.523428 L1053.96996,176.358544 C1053.96996,167.804855 1051.24833,165.083227 1045.80508,165.083227 C1040.36182,165.083227 1037.64019,168.193659 1037.64019,174.414524 L1037.64019,184.523428 L1053.96996,184.523428 L1053.96996,184.523428 Z" id="Shape"></path>
                <polygon id="Shape" points="1028.6977 79.5463402 1038.029 79.5463402 1038.029 94.3208933 1086.2407 94.3208933 1086.2407 105.207406 1038.029 105.207406 1038.029 119.981959 1028.6977 119.981959"></polygon>
                <path d="M1044.24986,18.8929115 C1039.58421,20.4481276 1036.86258,23.9473638 1036.86258,29.0018162 C1036.86258,33.6674646 1038.8066,37.1667009 1043.08345,37.1667009 C1052.80355,37.1667009 1050.85953,7.61759458 1069.52212,7.61759458 C1081.18624,7.61759458 1087.0183,15.0048712 1087.0183,27.4466001 C1087.0183,36.7778968 1081.57505,45.7203895 1073.41016,48.8308218 L1069.52212,39.8883291 C1074.96538,37.1667009 1078.46461,34.0562686 1078.46461,27.4466001 C1078.46461,22.0033437 1076.52059,17.7264994 1070.68853,17.7264994 C1059.41322,17.7264994 1061.74604,47.2756057 1043.86106,47.2756057 C1033.36335,47.2756057 1027.92009,38.721917 1027.92009,29.0018162 C1027.92009,19.6705195 1032.58574,12.2832429 1040.75062,8.78400667 L1044.24986,18.8929115 L1044.24986,18.8929115 Z" id="Shape"></path>
                <path d="M1112.18667,0.82961635 L1112.18667,1.69341613 L1109.74335,1.69341613 L1109.74335,8.08059852 L1108.74628,8.08059852 L1108.74628,1.69341613 L1106.30296,1.69341613 L1106.30296,0.82961635 L1112.18667,0.82961635 Z M1113.06034,0.82961635 L1114.4671,0.82961635 L1116.5501,6.9601268 L1118.61828,0.82961635 L1120.01023,0.82961635 L1120.01023,8.08059852 L1119.07733,8.08059852 L1119.07733,3.8010876 C1119.07733,3.6530069 1119.08062,3.40785474 1119.0872,3.06562378 C1119.09378,2.72339283 1119.09707,2.35648726 1119.09707,1.96489606 L1117.02889,8.08059852 L1116.0565,8.08059852 L1113.9735,1.96489606 L1113.9735,2.18701601 C1113.9735,2.36471285 1113.97762,2.63536741 1113.98584,2.9989878 C1113.99407,3.36260819 1113.99818,3.62997212 1113.99818,3.8010876 L1113.99818,8.08059852 L1113.06034,8.08059852 L1113.06034,0.82961635 Z" id="TM"></path>
            </g>
        </g>
    </g>
</svg>