<?xml version="1.0" encoding="UTF-8" standalone="no"?>
<svg width="2128px" height="512px" viewBox="0 0 2128 512" version="1.1" xmlns="http://www.w3.org/2000/svg" xmlns:xlink="http://www.w3.org/1999/xlink">
    <!-- Generator: sketchtool 41 (35326) - http://www.bohemiancoding.com/sketch -->
    <title>p1logo</title>
    <desc>Created with sketchtool.</desc>
    <defs></defs>
    <g id="Page-1" stroke="none" stroke-width="1" fill="none" fill-rule="evenodd">
        <g id="p1logo" fill="#000000">
            <path d="M988.909703,427.874805 L1051.40967,427.874805 L1051.40967,79.2421537 L988.909703,79.2421537 L988.909703,427.874805 Z M1086.56591,77.2890296 C1081.68307,77.6145519 1076.80031,78.5911042 1071.91748,80.2187158 C1067.03464,81.8463273 1063.29119,84.1249493 1060.68701,87.0546501 L1060.68701,113.910106 C1072.40582,110.654883 1078.99754,112.526609 1080.46239,119.525338 C1081.92725,126.524068 1082.65966,132.302002 1082.65966,136.859315 L1082.65966,427.874805 L1144.67135,427.874805 L1144.67135,142.230406 C1144.67135,117.49071 1139.46307,100.238287 1129.04636,90.4726173 C1118.62964,80.7069479 1104.46963,76.3124627 1086.56591,77.2890296 L1086.56591,77.2890296 Z M1177.87446,76.8007486 C1176.24685,76.8007486 1174.4565,76.8821279 1172.50337,77.0448891 C1170.55023,77.2076502 1168.75989,77.2890296 1167.13228,77.2890296 L1167.13228,77.2890296 C1166.80675,77.2890296 1166.644,77.370409 1166.644,77.5331701 C1166.644,77.6959313 1166.48124,77.7773106 1166.15571,77.7773106 C1161.5984,78.4283552 1157.12254,79.6490456 1152.72799,81.4394183 C1148.33344,83.229791 1144.02033,85.9153098 1139.78854,89.4960552 C1141.74167,92.425756 1143.6134,95.5181716 1145.40377,98.7733947 C1147.19414,102.028618 1148.57759,105.446551 1149.55416,109.027296 C1149.87968,110.003863 1150.2052,110.980415 1150.53072,111.956982 C1150.85624,112.933549 1151.019,113.910102 1151.019,114.886669 C1151.67005,114.561146 1152.40246,114.317008 1153.21627,114.154247 C1154.03007,113.991486 1154.92525,113.910106 1155.90181,113.910106 L1155.90181,113.910106 L1156.39009,113.910106 L1156.87838,113.910106 L1157.6108,113.910106 L1157.85494,113.910106 L1158.58736,113.910106 L1158.8315,113.910106 L1159.56392,113.910106 L1159.80806,113.910106 L1160.29634,113.910106 C1168.75992,114.886673 1173.47993,118.955641 1174.45649,126.117132 C1175.43306,133.278623 1175.92134,136.859315 1175.92134,136.859315 L1175.92134,427.874805 L1238.42131,427.874805 L1238.42131,142.230406 C1238.42131,118.467277 1233.21303,101.62175 1222.79631,91.6933198 C1212.3796,81.7648894 1197.4058,76.8007486 1177.87446,76.8007486 L1177.87446,76.8007486 Z M1273.08926,505.999769 L1335.58923,505.999769 L1335.58923,79.2421537 L1273.08926,79.2421537 L1273.08926,505.999769 Z M1370.74546,77.2890296 C1365.86263,77.6145519 1360.97987,78.5911042 1356.09703,80.2187158 C1351.2142,81.8463273 1347.47075,84.1249493 1344.86657,87.0546501 L1344.86657,113.910106 C1356.58537,110.654883 1363.1771,112.526609 1364.64195,119.525338 C1366.1068,126.524068 1366.83922,132.302002 1366.83922,136.859315 L1366.83922,255.511604 L1366.83922,268.695191 L1366.83922,273.578002 L1366.83922,370.745925 C1366.83922,374.977715 1366.1068,380.592891 1364.64195,387.591621 C1363.1771,394.59035 1356.58537,396.462076 1344.86657,393.206853 L1344.86657,420.062309 C1347.47075,422.99201 1351.2142,425.352011 1356.09703,427.142384 C1360.97987,428.932756 1365.86263,429.827929 1370.74546,429.827929 C1388.64919,430.804496 1402.89058,426.410011 1413.47005,416.644342 C1424.04953,406.878672 1429.33919,389.626249 1429.33919,364.886553 L1429.33919,142.230406 C1429.33919,117.49071 1424.04953,100.238287 1413.47005,90.4726173 C1402.89058,80.7069479 1388.64919,76.3124627 1370.74546,77.2890296 L1370.74546,77.2890296 Z M1647.11252,427.874805 L1709.6125,427.874805 L1709.6125,79.2421537 L1647.11252,79.2421537 L1647.11252,427.874805 Z M1744.76873,77.2890296 C1739.56037,77.6145519 1734.59623,78.5911042 1729.87616,80.2187158 C1725.15608,81.8463273 1721.49401,84.1249493 1718.88983,87.0546501 L1718.88983,113.910106 C1728.98103,111.63145 1734.51482,113.177658 1735.49139,118.548776 C1736.46796,123.919894 1736.95623,130.023346 1736.95623,136.859315 L1736.95623,177.38664 L1794.08511,177.38664 L1794.08511,142.230406 C1794.08511,117.165188 1790.26028,99.8313849 1782.61051,90.2284768 C1774.96073,80.6255686 1762.34693,76.3124627 1744.76873,77.2890296 L1744.76873,77.2890296 Z M1584.12427,86.5663691 C1584.12427,86.5663691 1582.08979,85.6711961 1578.02076,83.8808234 C1573.95173,82.0904507 1568.82483,80.8697604 1562.63991,80.2187158 C1560.03573,79.8931934 1556.94331,79.6490554 1553.36257,79.4862942 C1549.78182,79.3235331 1546.03837,79.2421537 1542.1321,79.2421537 L1532.85476,79.2421537 L1532.12234,79.2421537 L1531.38992,79.2421537 L1531.38992,116.839793 C1531.71544,116.839793 1531.95958,116.758413 1532.12234,116.595652 C1532.2851,116.432891 1532.52924,116.351512 1532.85476,116.351512 C1532.85476,116.351512 1533.74994,116.270132 1535.54031,116.107371 C1537.33068,115.94461 1539.52793,116.025989 1542.1321,116.351512 C1547.99151,117.328079 1551.24668,119.932218 1551.89772,124.164008 C1552.54877,128.395798 1552.87429,130.511661 1552.87429,130.511661 L1552.87429,376.605298 C1552.87429,376.605298 1552.54877,378.80254 1551.89772,383.197092 C1551.24668,387.591643 1547.99151,390.114403 1542.1321,390.765447 C1539.52793,391.09097 1537.33068,391.172349 1535.54031,391.009588 C1533.74994,390.846827 1532.85476,390.765447 1532.85476,390.765447 L1532.12234,390.765447 C1531.95958,390.765447 1531.71544,390.602689 1531.38992,390.277166 L1531.38992,427.874805 L1532.12234,427.874805 L1532.85476,427.874805 L1542.1321,427.874805 C1546.03837,427.874805 1549.78182,427.793426 1553.36257,427.630665 C1556.94331,427.467904 1560.03573,427.223766 1562.63991,426.898243 C1568.82483,426.247199 1573.95173,425.026508 1578.02076,423.236136 C1582.08979,421.445763 1584.12427,420.55059 1584.12427,420.55059 C1592.58785,415.667755 1599.91199,408.587751 1606.09692,399.310365 C1612.28184,390.03298 1615.37426,376.605386 1615.37426,359.027181 L1615.37426,148.089778 C1615.37426,130.511573 1612.28184,117.08398 1606.09692,107.806594 C1599.91199,98.5292078 1592.58785,91.4492037 1584.12427,86.5663691 L1584.12427,86.5663691 Z M1491.35088,86.5663691 C1482.8873,91.4492037 1475.48178,98.5292078 1469.13409,107.806594 C1462.78641,117.08398 1459.61261,130.511573 1459.61261,148.089778 L1459.61261,359.027181 C1459.61261,376.605386 1462.78641,390.03298 1469.13409,399.310365 C1475.48178,408.587751 1482.8873,415.667755 1491.35088,420.55059 C1491.35088,420.55059 1493.30398,421.445763 1497.21025,423.236136 C1501.11652,425.026508 1506.16204,426.247199 1512.34696,426.898243 C1513.97457,427.223766 1515.60216,427.467904 1517.22977,427.630665 C1518.85738,427.793426 1520.48497,427.874805 1522.11258,427.874805 L1522.11258,378.070141 L1522.11258,376.849438 L1522.11258,376.605298 L1522.11258,130.511661 L1522.11258,130.267521 L1522.11258,129.046818 L1522.11258,79.2421537 C1520.48497,79.567676 1518.85738,79.7304347 1517.22977,79.7304347 C1515.60216,79.7304347 1513.97457,79.8931934 1512.34696,80.2187158 C1506.16204,80.8697604 1501.11652,82.0904507 1497.21025,83.8808234 C1493.30398,85.6711961 1491.35088,86.5663691 1491.35088,86.5663691 L1491.35088,86.5663691 Z M1874.1632,119.281198 L1895.64757,119.281198 L1895.64757,79.2421537 L1874.1632,79.2421537 L1874.1632,21.1367118 L1811.66323,21.1367118 L1811.66323,364.886553 C1811.66323,388.649682 1816.87151,405.495209 1827.28822,415.423639 C1837.70494,425.35207 1851.86494,430.31621 1869.76867,430.31621 C1874.00046,430.31621 1878.55771,429.990693 1883.44054,429.339648 C1888.32337,428.688604 1892.39234,427.223775 1895.64757,424.945119 L1895.64757,393.206853 C1883.92876,394.834464 1877.41841,391.49791 1876.11632,383.197092 C1874.81424,374.896273 1874.1632,370.745925 1874.1632,370.745925 L1874.1632,119.281198 Z M2028.46,86.5663691 C2028.46,86.5663691 2026.42552,85.6711961 2022.35649,83.8808234 C2018.28746,82.0904507 2013.16056,80.8697604 2006.97564,80.2187158 C2004.37146,79.8931934 2001.27905,79.6490554 1997.6983,79.4862942 C1994.11755,79.3235331 1990.3741,79.2421537 1986.46784,79.2421537 L1977.1905,79.2421537 L1976.70222,79.2421537 L1975.72565,79.2421537 L1975.72565,116.839793 C1976.05118,116.839793 1976.37669,116.758413 1976.70222,116.595652 C1977.02774,116.432891 1977.1905,116.351512 1977.1905,116.351512 C1980.1202,116.025989 1982.39882,115.94461 1984.02643,116.107371 C1985.65404,116.270132 1986.46784,116.351512 1986.46784,116.351512 C1992.65276,117.328079 1996.07069,119.932218 1996.72174,124.164008 C1997.37278,128.395798 1997.6983,130.511661 1997.6983,130.511661 L1997.6983,177.38664 L2060.19827,177.38664 L2060.19827,148.089778 C2060.19827,130.511573 2057.02448,117.08398 2050.67679,107.806594 C2044.32911,98.5292078 2036.92358,91.4492037 2028.46,86.5663691 L2028.46,86.5663691 Z M1977.1905,390.765447 C1971.3311,390.114403 1968.07592,387.591643 1967.42488,383.197092 C1966.77383,378.80254 1966.44831,376.605298 1966.44831,376.605298 L1966.44831,312.152202 L1903.94834,312.152202 L1903.94834,359.027181 C1903.94834,376.605386 1907.12214,390.03298 1913.46982,399.310365 C1919.81751,408.587751 1927.22303,415.667755 1935.68661,420.55059 C1935.68661,420.55059 1937.72109,421.445763 1941.79012,423.236136 C1945.85915,425.026508 1950.98605,426.247199 1957.17097,426.898243 C1959.77515,427.223766 1962.86757,427.467904 1966.44831,427.630665 C1970.02906,427.793426 1973.60975,427.874805 1977.1905,427.874805 L1986.46784,427.874805 L1987.4444,427.874805 L1988.42096,427.874805 L1988.42096,390.277166 C1988.09544,390.602689 1987.76992,390.765447 1987.4444,390.765447 L1986.46784,390.765447 C1983.86366,391.09097 1981.66641,391.172349 1979.87604,391.009588 C1978.08567,390.846827 1977.1905,390.765447 1977.1905,390.765447 L1977.1905,390.765447 Z M2060.19827,312.640483 C2060.19827,307.757649 2059.38448,300.759024 2057.75687,291.644399 C2056.12925,282.529775 2051.24649,273.578045 2043.10843,264.788943 C2039.52769,260.882675 2036.02838,257.301984 2032.61039,254.046761 C2029.19241,250.791537 2024.06551,246.234293 2017.22954,240.374892 L1985.49127,213.031154 C1985.49127,213.031154 1985.08438,212.705637 1984.27057,212.054592 C1983.45677,211.403548 1982.39883,210.589754 1981.09674,209.613187 C1980.4457,208.63662 1979.06225,207.090413 1976.94636,204.974518 C1974.83046,202.858623 1973.12149,200.66138 1971.81941,198.382724 C1970.51732,195.778545 1969.29663,192.523371 1968.1573,188.617103 C1967.01797,184.710835 1966.44831,180.31635 1966.44831,175.433516 L1966.44831,157.367118 L1966.44831,130.511661 L1966.44831,130.267521 L1966.44831,129.046818 L1966.44831,79.2421537 C1964.8207,79.567676 1963.19312,79.7304347 1961.5655,79.7304347 C1959.93789,79.7304347 1958.47306,79.8931934 1957.17097,80.2187158 C1950.98605,80.8697604 1945.85915,82.0904507 1941.79012,83.8808234 C1937.72109,85.6711961 1935.68661,86.5663691 1935.68661,86.5663691 C1927.22303,91.4492037 1919.81751,98.5292078 1913.46982,107.806594 C1907.12214,117.08398 1903.94834,130.511573 1903.94834,148.089778 L1903.94834,157.367118 L1903.94834,187.15226 C1903.94834,192.035095 1904.76214,199.03372 1906.38975,208.148344 C1908.01736,217.262969 1912.90012,226.214698 1921.03818,235.003801 C1924.2934,238.584546 1927.71133,242.083858 1931.29208,245.501843 C1934.87283,248.919827 1940.0811,253.395691 1946.91707,258.929571 L1978.65534,286.273308 C1978.65534,286.273308 1979.06224,286.598826 1979.87604,287.24987 C1980.68985,287.900915 1981.74778,288.877467 1983.04987,290.179556 C1983.70091,290.830601 1985.08436,292.21405 1987.20026,294.329945 C1989.31615,296.44584 1991.02512,298.643083 1992.32721,300.921739 C1993.6293,303.85144 1994.84999,307.187993 1995.98932,310.9315 C1997.12864,314.675006 1997.6983,319.150871 1997.6983,324.359228 L1997.6983,349.749841 L1997.6983,376.605298 L1997.6983,376.849438 L1997.6983,378.070141 L1997.6983,427.874805 C1999.32591,427.549283 2000.9535,427.386524 2002.58111,427.386524 C2004.20872,427.386524 2005.67355,427.223766 2006.97564,426.898243 C2013.16056,426.247199 2018.28746,425.026508 2022.35649,423.236136 C2026.42552,421.445763 2028.46,420.55059 2028.46,420.55059 C2036.92358,415.667755 2044.32911,408.587751 2050.67679,399.310365 C2057.02448,390.03298 2060.19827,376.605386 2060.19827,359.027181 L2060.19827,349.749841 L2060.19827,312.640483 Z M2068.49905,106.09761 C2068.49905,113.259101 2071.10319,119.443932 2076.31154,124.652289 C2081.5199,129.860646 2087.86749,132.464785 2095.3545,132.464785 C2102.516,132.464785 2108.70083,129.860646 2113.90918,124.652289 C2119.11754,119.443932 2121.72168,113.096342 2121.72168,105.609329 C2121.72168,98.4478382 2119.19892,92.2630071 2114.15332,87.0546501 C2109.10773,81.8462931 2102.84152,79.2421537 2095.3545,79.2421537 C2087.86749,79.2421537 2081.5199,81.8462931 2076.31154,87.0546501 C2071.10319,92.2630071 2068.49905,98.4478382 2068.49905,105.609329 L2068.49905,106.09761 L2068.49905,106.09761 Z M2118.79199,105.609329 C2118.79199,112.119775 2116.51337,117.734951 2111.95606,122.455024 C2107.39875,127.175098 2101.86495,129.535099 2095.3545,129.535099 C2088.51854,129.535099 2082.90336,127.256477 2078.50881,122.699165 C2074.11426,118.141853 2071.91702,112.608056 2071.91702,106.09761 L2071.91702,105.609329 C2071.91702,99.4244051 2074.11426,93.9719882 2078.50881,89.2519147 C2082.90336,84.5318412 2088.51854,82.1718398 2095.3545,82.1718398 C2101.86495,82.1718398 2107.39875,84.4504618 2111.95606,89.0077742 C2116.51337,93.5650865 2118.79199,99.0988828 2118.79199,105.609329 L2118.79199,105.609329 Z M2085.1006,91.9374603 L2085.1006,118.792917 L2089.49513,118.792917 L2089.49513,109.027296 L2095.84279,109.027296 L2102.67872,118.792917 L2108.04981,118.792917 L2100.7256,108.050734 C2102.35321,107.725212 2103.81804,106.911418 2105.12013,105.609329 C2106.42221,104.30724 2107.07325,102.516894 2107.07325,100.238238 C2107.07325,97.6340593 2106.0967,95.5995754 2104.14356,94.134725 C2102.19043,92.6698746 2099.91181,91.9374603 2097.30763,91.9374603 L2085.1006,91.9374603 L2085.1006,91.9374603 Z M2089.49513,105.121048 L2089.49513,95.8437085 L2096.81935,95.8437085 C2098.44696,95.8437085 2099.83041,96.2506053 2100.96974,97.0644111 C2102.10906,97.8782169 2102.67872,98.9361485 2102.67872,100.238238 C2102.67872,101.865849 2102.19044,103.08654 2101.21388,103.900345 C2100.23731,104.714151 2098.77248,105.121048 2096.81935,105.121048 L2089.49513,105.121048 Z M704.730146,6 C704.730146,24.880294 701.312213,41.1561654 694.476245,54.8281025 C687.640276,68.5000395 674.945097,76.6379752 656.390325,79.2421537 L656.390325,132.464785 L699.359055,132.464785 L699.359055,427.874805 L771.136366,427.874805 L771.136366,6 L704.730146,6 Z M195.941319,427.874805 L258.44129,427.874805 L258.44129,79.2421537 L195.941319,79.2421537 L195.941319,427.874805 Z M195.941319,67.0351281 L258.44129,67.0351281 L258.44129,21.1367118 L195.941319,21.1367118 L195.941319,67.0351281 Z M891.253498,427.874805 L953.753469,427.874805 L953.753469,79.2421537 L891.253498,79.2421537 L891.253498,427.874805 Z M891.253498,67.0351281 L953.753469,67.0351281 L953.753469,21.1367118 L891.253498,21.1367118 L891.253498,67.0351281 Z M380.511546,376.605298 C380.511546,376.605298 380.186028,378.80254 379.534984,383.197092 C378.883939,387.591643 375.628765,390.114403 369.769363,390.765447 C366.839663,391.09097 364.561041,391.172349 362.933429,391.009588 C361.305817,390.846827 360.492024,390.765447 360.492024,390.765447 L359.515462,390.765447 C359.18994,390.765447 359.027181,390.602689 359.027181,390.277166 L359.027181,427.874805 L359.515462,427.874805 L360.492024,427.874805 L369.769363,427.874805 C373.350109,427.874805 376.930801,427.793426 380.511546,427.630665 C384.092291,427.467904 387.347466,427.223766 390.277166,426.898243 C396.46209,426.247199 401.50761,425.026508 405.413878,423.236136 C409.320146,421.445763 411.27325,420.55059 411.27325,420.55059 C419.736831,415.667755 427.142352,408.587751 433.490037,399.310365 C439.837722,390.03298 443.011517,376.605386 443.011517,359.027181 L443.011517,312.152202 L380.511546,312.152202 L380.511546,376.605298 Z M318.499856,86.5663691 C310.036276,91.4492037 302.712134,98.5292078 296.52721,107.806594 C290.342286,117.08398 287.24987,130.511573 287.24987,148.089778 L287.24987,359.027181 C287.24987,376.605386 290.342286,390.03298 296.52721,399.310365 C302.712134,408.587751 310.036276,415.667755 318.499856,420.55059 C318.499856,420.55059 320.53434,421.445763 324.603369,423.236136 C328.672397,425.026508 333.799297,426.247199 339.984221,426.898243 C341.28631,427.223766 342.751139,427.467904 344.37875,427.630665 C346.006362,427.793426 347.796708,427.874805 349.749841,427.874805 L349.749841,378.070141 L349.749841,376.849438 L349.749841,376.605298 L349.749841,130.511661 L349.749841,130.267521 L349.749841,129.046818 L349.749841,79.2421537 C347.796708,79.567676 346.006362,79.7304347 344.37875,79.7304347 C342.751139,79.7304347 341.28631,79.8931934 339.984221,80.2187158 C333.799297,80.8697604 328.672397,82.0904507 324.603369,83.8808234 C320.53434,85.6711961 318.499856,86.5663691 318.499856,86.5663691 L318.499856,86.5663691 Z M411.27325,86.5663691 C411.27325,86.5663691 409.320146,85.6711961 405.413878,83.8808234 C401.50761,82.0904507 396.46209,80.8697604 390.277166,80.2187158 C387.347466,79.8931934 384.092291,79.6490554 380.511546,79.4862942 C376.930801,79.3235331 373.350109,79.2421537 369.769363,79.2421537 L360.492024,79.2421537 L359.515462,79.2421537 L359.027181,79.2421537 L359.027181,116.839793 C359.027181,116.839793 359.18994,116.758413 359.515462,116.595652 C359.840984,116.432891 360.166502,116.351512 360.492024,116.351512 C360.492024,116.351512 361.305817,116.270132 362.933429,116.107371 C364.561041,115.94461 366.839663,116.025989 369.769363,116.351512 C375.628765,117.328079 378.883939,119.932218 379.534984,124.164008 C380.186028,128.395798 380.511546,130.511661 380.511546,130.511661 L380.511546,206.683501 C380.511546,208.311113 379.860511,210.671114 378.558422,213.763576 C377.256333,216.856038 374.326676,218.727763 369.769363,219.378808 L358.5389,219.378808 L358.5389,259.906133 L443.011517,259.906133 L443.011517,148.089778 C443.011517,130.511573 439.837722,117.08398 433.490037,107.806594 C427.142352,98.5292078 419.736831,91.4492037 411.27325,86.5663691 L411.27325,86.5663691 Z M470.355254,427.874805 L532.855226,427.874805 L532.855226,79.2421537 L470.355254,79.2421537 L470.355254,427.874805 Z M568.011459,77.2890296 C563.128625,77.6145519 558.245863,78.5911042 553.363029,80.2187158 C548.480194,81.8463273 544.736744,84.1249493 542.132565,87.0546501 L542.132565,113.910106 C552.223757,111.63145 557.757553,113.177658 558.73412,118.548776 C559.710687,123.919894 560.198963,130.023346 560.198963,136.859315 L560.198963,177.38664 L617.327843,177.38664 L617.327843,142.230406 C617.327843,117.165188 613.584392,99.8313849 606.097379,90.2284768 C598.610366,80.6255686 585.915186,76.3124627 568.011459,77.2890296 L568.011459,77.2890296 Z M139.30072,14.7890584 C139.30072,14.7890584 136.940718,13.7311268 132.220645,11.6152318 C127.500571,9.49933676 121.559878,7.95312898 114.398387,6.97656205 C111.468687,6.65103974 107.155581,6.40690167 101.45894,6.24414051 C95.7622999,6.08137936 90.9609178,6 87.0546501,6 L85.3456665,6 L83.6366829,6 L83.6366829,45.550763 C91.4492184,44.5741961 97.3085321,44.8997135 101.2148,46.527325 C105.121068,48.1549366 107.887966,49.9452825 109.515577,51.8984163 C111.143189,54.1770725 112.038362,56.5370738 112.201123,58.9784912 C112.363884,61.4199085 112.445263,62.6405989 112.445263,62.6405989 L112.445263,203.265534 C112.445263,203.265534 112.363884,204.486224 112.201123,206.927642 C112.038362,209.369059 111.143189,211.72906 109.515577,214.007717 C107.887966,216.286373 105.121068,218.158098 101.2148,219.622948 C97.3085321,221.087799 91.4492184,221.331937 83.6366829,220.35537 L83.6366829,259.906133 L85.3456665,259.906133 L87.0546501,259.906133 C90.9609178,259.906133 95.7622999,259.824753 101.45894,259.661992 C107.155581,259.499231 111.468687,259.255093 114.398387,258.929571 C121.559878,257.953004 127.500571,256.406796 132.220645,254.290901 C136.940718,252.175006 139.30072,251.117074 139.30072,251.117074 C149.066389,245.583195 157.692601,237.36388 165.179614,226.458883 C172.666627,215.553885 176.410078,199.847669 176.410078,179.339764 L176.410078,86.5663691 C176.410078,66.0584635 172.666627,50.3522476 165.179614,39.4472502 C157.692601,28.5422528 149.066389,20.3229377 139.30072,14.7890584 L139.30072,14.7890584 Z M6,427.874805 L74.3593435,427.874805 L74.3593435,6 L6,6 L6,427.874805 Z"></path>
        </g>
    </g>
</svg>