<?xml version="1.0" encoding="UTF-8"?>
<svg width="17px" height="9px" viewBox="0 0 17 9" version="1.1" xmlns="http://www.w3.org/2000/svg" xmlns:xlink="http://www.w3.org/1999/xlink">
    
    <title>Icon/p1logo</title>
    <desc>Created with sketchtool.</desc>
    <g id="Icons" stroke="none" stroke-width="1" fill="none" fill-rule="evenodd">
        <g id="Icon/p1logo" fill="#0033A0" fill-rule="nonzero">
            <path d="M7.8137738,7.90846763 C7.8137738,7.90846763 7.83307984,8.1765633 7.58934112,8.21060719 C7.52598825,8.21976269 7.46170212,8.21976269 7.39834925,8.21060719 C7.38673806,8.20906502 7.37522612,8.20681511 7.36387419,8.20386934 L7.36387419,8.99893613 L7.58796212,8.99893613 C7.72900838,9.00133368 7.8700613,8.99458243 8.01028168,8.97872257 C8.16446658,8.95999842 8.31427819,8.9136718 8.45294153,8.84183774 C8.7976922,8.64076599 9.10383079,8.28578746 9.10383079,7.53221167 L9.10383079,6.53359076 L7.8137738,6.53359076 L7.8137738,7.90846763 Z M5.88213583,3.05260255 L5.88213583,7.53327554 C5.88213583,8.28685133 6.18689542,8.64182986 6.53371459,8.84290161 C6.67221288,8.91484649 6.82193084,8.96118024 6.97602969,8.97978644 C7.03291355,8.98794279 7.10082943,8.99290752 7.17391657,8.99609914 L7.17391657,7.93754679 L7.17391657,2.67741046 L7.17391657,1.58977895 C7.10772342,1.59143664 7.04166528,1.59676373 6.97602969,1.60573703 C6.82189031,1.62436003 6.67215558,1.67081902 6.53371459,1.74297648 C6.18689542,1.94333898 5.88213583,2.29867213 5.88213583,3.05260255 Z M8.01166068,1.60573703 C7.87139123,1.59064679 7.7303492,1.58448823 7.58934112,1.58729658 L7.36525319,1.58729658 L7.36525319,2.3812995 C7.37559571,2.37917176 7.38662773,2.37668939 7.39972826,2.37491627 C7.46309603,2.36598276 7.52735235,2.36598276 7.59072012,2.37491627 C7.83445884,2.41037866 7.81515281,2.67741046 7.81515281,2.67741046 L7.81515281,4.29343158 C7.81205005,4.36435636 7.7851595,4.53918594 7.59072012,4.56684661 L7.36352944,4.56684661 L7.36352944,5.42822806 L9.10658879,5.42822806 L9.10658879,3.05224792 C9.10658879,2.29831751 8.80182921,1.94298436 8.45569954,1.74262185 C8.31571395,1.67093075 8.16588583,1.62447899 8.01166068,1.60573703 Z M9.69300967,8.99893613 L10.9837562,8.99893613 L10.9837562,1.58729658 L9.69300967,1.58729658 L9.69300967,8.99893613 Z M11.1771613,1.74935971 L11.1771613,2.32562355 C11.6005151,2.22952047 11.5491472,2.52456756 11.5491472,2.80649356 L11.5491472,3.66964813 L12.7354343,3.66964813 L12.7354343,2.92493794 C12.7354343,1.86106624 12.4479122,1.50360534 11.7094563,1.54190472 C11.5053639,1.55112495 11.2819655,1.63162457 11.1771613,1.74935971 Z M2.24087932,0.0507112179 C2.11883758,0.0333346468 1.8420028,0.0269514165 1.67996999,0.0269514165 L1.60619334,0.0269514165 L1.60619334,0.868473935 C1.92819046,0.82804681 2.06850398,0.913511171 2.13745412,1.00819575 C2.20640425,1.10288033 2.19709598,1.23267268 2.19709598,1.23267268 L2.19709598,4.2210883 C2.19709598,4.2210883 2.20330149,4.35620001 2.13676462,4.44698373 C2.07022774,4.53776745 1.92991422,4.62642342 1.60619334,4.58635092 L1.60619334,5.42751881 L1.67996999,5.42751881 C1.8420028,5.42751881 2.11883758,5.42113558 2.23915556,5.40411364 C2.41938978,5.38212603 2.59444426,5.3276255 2.75628156,5.24311439 C3.16205309,5.00870799 3.51852976,4.5920249 3.51852976,3.71007526 L3.51852976,1.7447496 C3.51955953,0.862445329 3.16308734,0.446116868 2.75800531,0.211355845 C2.5961107,0.127057149 2.42107295,0.0726818627 2.24087932,0.0507112179 Z M0,8.99893613 L1.41520148,8.99893613 L1.41520148,0.0269514165 L0,0.0269514165 L0,8.99893613 Z M16.5887125,0.846132629 C16.3615646,0.846132629 16.1774249,0.656719388 16.1774249,0.423066315 C16.1774249,0.189413241 16.3615646,0 16.5887125,0 C16.8158603,0 17,0.189413241 17,0.423066315 C16.9998099,0.656638345 16.8157815,0.84593709 16.5887125,0.846132629 Z M16.2784369,0.420583947 C16.2784369,0.596851983 16.417352,0.739745459 16.5887125,0.739745459 C16.7600729,0.739745459 16.8989881,0.596851983 16.8989881,0.420583947 C16.8982288,0.244870122 16.7595358,0.102839196 16.5887125,0.102840931 C16.417352,0.101422436 16.2784369,0.244315912 16.2784369,0.420583947 Z M5.34535905,1.58552346 L5.34535905,9 L4.05426781,9 L4.05426781,1.58552346 L5.34535905,1.58552346 Z M15.716838,0.0269514165 L15.716838,8.99893613 L14.3995457,8.99893613 L14.3995457,2.72209307 L13.5149155,2.72209307 L13.5149155,1.58729658 C14.2340439,1.47625497 14.4795777,0.906418693 14.5074604,0.175248448 L14.5102107,0.0269514165 L15.716838,0.0269514165 Z M5.34535905,0.0315615272 L5.34535905,1.31991016 L4.05426781,1.31991016 L4.05426781,0.0315615272 L5.34535905,0.0315615272 Z M16.6355568,0.232987903 C16.6700317,0.231500269 16.7035983,0.244324068 16.7283803,0.268450294 C16.7519134,0.291339571 16.7647311,0.323150322 16.7636744,0.356042397 C16.7650046,0.383422167 16.7562043,0.410328081 16.7389686,0.431577288 C16.7239727,0.449518575 16.7035018,0.461984323 16.6807333,0.467039678 L16.7643803,0.61172623 L16.6719097,0.61172623 L16.598145,0.477323772 L16.5392039,0.477323772 L16.5392039,0.61172623 L16.4590862,0.61172623 L16.4590862,0.232987903 L16.6355568,0.232987903 Z M16.6232039,0.305331179 L16.538498,0.305331179 L16.538498,0.407108239 L16.6232039,0.406044367 C16.6378814,0.406766745 16.6522776,0.401818234 16.6634391,0.392214035 C16.6741374,0.382755754 16.6799804,0.368926636 16.6793215,0.354623902 C16.6795401,0.341018005 16.673719,0.328020547 16.6634391,0.319161511 C16.6521906,0.309711494 16.6378562,0.304784242 16.6232039,0.305331179 Z" id="Shape"></path>
        </g>
    </g>
</svg>