<?xml version="1.0" encoding="UTF-8"?>
<svg width="16px" height="16px" viewBox="0 0 16 16" version="1.1" xmlns="http://www.w3.org/2000/svg" xmlns:xlink="http://www.w3.org/1999/xlink">
    
    <title>Icon/p1logo-alt-1</title>
    <desc>Created with sketchtool.</desc>
    <g id="Icons" stroke="none" stroke-width="1" fill="none" fill-rule="evenodd">
        <g id="Icon/p1logo-alt-1">
            <g id="Group">
                <polygon id="Path" fill="#0033A0" points="0 0 15.6155 0 15.6155 16 0 16"></polygon>
                <path d="M12.957,4.645 L13.872,4.645 L13.872,11.223 L12.873,11.223 L12.873,6.6195 L12.202,6.6195 L12.202,5.7875 C12.784,5.7025 12.957,5.2325 12.957,4.645 Z M5.059,11.223 L5.059,5.8015 L6.0355,5.8015 L6.0355,11.223 L5.059,11.223 L5.059,11.223 Z M5.059,5.596 L5.059,4.645 L6.0355,4.645 L6.0355,5.596 L5.059,5.596 L5.059,5.596 Z M7.909,10.4245 L7.909,9.4195 L8.8875,9.4195 L8.8875,10.15 C8.8875,10.701 8.6565,10.9605 8.3945,11.1075 C8.3945,11.1075 8.2535,11.185 8.0595,11.2075 C7.9735,11.2195 7.855,11.2225 7.7395,11.2225 L7.5695,11.2225 L7.5695,10.6405 C7.62551431,10.6514309 7.68294008,10.6531199 7.7395,10.6455 C7.924,10.6205 7.9095,10.424 7.9095,10.424 L7.909,10.4245 Z M6.94,5.9165 C6.94,5.9165 7.0805,5.839 7.275,5.8165 C7.318,5.81 7.37,5.8065 7.425,5.8045 L7.425,6.5785 C7.42469488,6.58549667 7.42469488,6.59250333 7.425,6.5995 L7.425,11.22 C7.374853,11.2184151 7.32480253,11.2145779 7.275,11.2085 C7.0805,11.1855 6.94,11.108 6.94,11.108 C6.6775,10.961 6.4465,10.7015 6.4465,10.1505 L6.4465,6.874 C6.4465,6.323 6.6775,6.063 6.94,5.9165 Z M8.395,5.9165 C8.6565,6.063 8.8875,6.323 8.8875,6.874 L8.8875,8.6115 L7.5675,8.6115 L7.5675,7.9815 L7.7395,7.9815 C7.8865,7.9615 7.907,7.833 7.9095,7.7815 L7.9095,6.6 C7.9095,6.6 7.924,6.4045 7.7395,6.379 C7.652,6.369 7.5945,6.379 7.5945,6.379 C7.58609958,6.38031166 7.57775872,6.38197983 7.5695,6.384 L7.5695,5.802 L7.74,5.802 C7.8555,5.802 7.974,5.805 8.06,5.817 C8.254,5.8395 8.395,5.917 8.395,5.917 L8.395,5.9165 Z M9.3245,11.223 L9.3245,5.7845 L10.2945,5.7845 L10.2945,11.223 L9.3245,11.223 L9.3245,11.223 Z M10.84,5.752 C11.395,5.7245 11.611,5.988 11.611,6.767 L11.611,7.313 L10.72,7.313 L10.72,6.68 C10.72,6.473 10.7585,6.257 10.439,6.3275 L10.4405,5.9045 C10.519,5.818 10.687,5.7595 10.8405,5.752 L10.84,5.752 Z M4.075,4.78 C4.38,4.952 4.648,5.257 4.648,5.904 L4.648,7.345 C4.648,7.9915 4.3795,8.297 4.075,8.469 C4.075,8.469 3.911,8.56 3.685,8.587 C3.595,8.5995 3.3865,8.6035 3.265,8.604 L3.2095,8.604 L3.2095,7.9875 C3.451,8.017 3.558,7.955 3.608,7.8855 C3.658,7.8185 3.653,7.7195 3.653,7.7195 L3.653,5.5295 C3.653,5.5295 3.658,5.43 3.608,5.364 C3.558,5.294 3.451,5.232 3.2095,5.2615 L3.2095,4.645 L3.2645,4.645 C3.3865,4.646 3.5945,4.65 3.685,4.6625 C3.911,4.6895 4.075,4.7805 4.075,4.7805 L4.075,4.78 Z M2.0015,11.223 L2.0015,4.645 L3.065,4.645 L3.065,11.223 L2.0015,11.223 L2.0015,11.223 Z" id="Shape" fill="#FFFFFF"></path>
            </g>
        </g>
    </g>
</svg>