<?xml version="1.0" encoding="UTF-8"?>
<svg width="497px" height="256px" viewBox="0 0 497 256" version="1.1" xmlns="http://www.w3.org/2000/svg" xmlns:xlink="http://www.w3.org/1999/xlink">
    
    <title>p1logo-alt-1</title>
    <desc>Created with sketchtool.</desc>
    <defs></defs>
    <g id="Page-1" stroke="none" stroke-width="1" fill="none" fill-rule="evenodd">
        <g id="p1logo-alt-1" fill="#000000">
            <path d="M426.384684,0 C426.384684,22.8642428 419.638446,41.1393499 397,44.4638386 L397,76.8320952 L423.112759,76.8320952 L423.112759,256 L462,256 L462,0 L426.384684,0" id="Fill-2"></path>
            <polygon id="Fill-3" points="119 256 157 256 157 45 119 45"></polygon>
            <polygon id="Fill-4" points="119 37 157 37 157 0 119 0"></polygon>
            <path d="M229.929758,224.932222 C229.929758,224.932222 230.497468,232.562988 223.324116,233.53296 C219.908235,233.948663 217.685506,233.53296 217.685506,233.53296 C217.339107,233.485179 217.016763,233.423062 216.718475,233.346611 L216.718475,256 L223.324116,256 C227.822496,256 232.43153,255.885323 235.770435,255.426617 C243.328674,254.537874 248.813329,251.522838 248.813329,251.522838 C259.017674,245.808125 268,235.702258 268,214.262529 L268,185.80842 L229.929758,185.80842 L229.929758,224.932222 Z M192.201104,49.4819403 C181.982326,55.1870966 173,65.2977422 173,86.751806 L173,214.262529 C173,235.702258 181.982326,245.808125 192.201104,251.522838 C192.201104,251.522838 197.676137,254.537874 205.239188,255.426617 C206.923073,255.651192 208.924491,255.799316 211.075053,255.885323 L211.075053,225.763627 C211.055809,225.247583 211.075053,224.932222 211.075053,224.932222 L211.075053,76.0677778 C211.075053,76.0677778 211.055809,75.7524174 211.075053,75.2363731 L211.075053,45.1194547 C208.924491,45.1959057 206.923073,45.3392513 205.239188,45.5733825 C197.676137,46.4669037 192.201104,49.4819403 192.201104,49.4819403 Z M248.813329,49.4819403 C248.813329,49.4819403 243.328674,46.4669037 235.770435,45.5733825 C232.43153,45.1194547 227.822496,45 223.324116,45 L217.685506,45 C217.358351,45 217.036007,45.0047782 216.718475,45.0095564 L216.718475,67.6486107 C217.016763,67.5817161 217.339107,67.5148214 217.685506,67.4670396 C217.685506,67.4670396 219.908235,67.0561154 223.324116,67.4670396 C230.497468,68.4465681 229.929758,76.0677778 229.929758,76.0677778 L229.929758,122.062615 C229.843158,124.064675 229.044515,129.057882 223.324116,129.836726 L216.622253,129.836726 L216.622253,154.358387 L268,154.358387 L268,86.751806 C268,65.2977422 259.017674,55.1870966 248.813329,49.4819403 Z" id="Fill-5"></path>
            <path d="M285,256 L322.765631,256 L322.765631,44.3390022 L285,44.3390022 L285,256 Z M343.985818,43.0736089 C338.017043,43.3564051 331.483225,45.6523271 328.417662,49.0123298 L328.369912,65.467236 C340.804063,62.7255505 339.295157,71.1423333 339.295157,79.1900431 L339.295157,103.831661 L374,103.831661 L374,82.588391 C374,52.2525036 365.588007,42.0143213 343.985818,43.0736089 Z" id="Fill-6"></path>
            <path d="M80.6965495,5.26457214 C80.6965495,5.26457214 74.3241351,1.72451863 65.529821,0.675436463 C62.0092292,0.186822851 53.9075689,0.0335323067 49.164085,0.00479032952 C48.672062,0 47.501716,0 47.0240237,0 L47.009693,0 L47.009693,24.0091316 C56.425007,22.8546622 60.5761525,25.2689882 62.5299137,27.9898954 C64.4741211,30.571883 64.2925981,34.4233079 64.2925981,34.4233079 L64.2925981,119.676802 C64.2925981,119.676802 64.4741211,123.528227 62.5299137,126.119796 C60.5761525,128.835913 56.425007,131.240658 47.009693,130.095769 L47.009693,154.10011 L47.0240237,154.10011 C47.501716,154.10011 48.672062,154.10011 49.164085,154.09532 C53.9075689,154.076159 62.0092292,153.913288 65.529821,153.429464 C74.3241351,152.385172 80.6965495,148.840329 80.6965495,148.840329 C92.5624246,142.148238 103,130.263431 103,105.095039 L103,49.0098613 C103,23.8318894 92.5624246,11.9614528 80.6965495,5.26457214 Z M0,256 L41.41114,256 L41.41114,0 L0,0 L0,256 Z" id="Fill-7"></path>
            <path d="M495.047308,12 L494.528548,4.76592479 C494.469821,3.82655411 494.528548,2.68457406 494.499184,1.50575595 L494.401305,1.50575595 C494.083197,2.6247122 493.701468,3.89102072 493.319739,4.9409056 L490.657423,11.848043 L489.179445,11.848043 L486.585644,4.76592479 C486.267537,3.79892556 485.944535,2.6247122 485.655791,1.50575595 L485.557912,1.50575595 C485.528548,2.65234075 485.557912,3.67920184 485.49429,4.76592479 L485.019576,12 L483.154976,12 L484.153344,0 L486.67863,0 L489.179445,6.51112817 C489.502447,7.41826554 489.756933,8.41289332 490.079935,9.52724482 L490.143556,9.52724482 C490.427406,8.41289332 490.721044,7.35379893 491.039152,6.48349962 L493.535073,0 L496.040783,0 L497,12 L495.047308,12 Z M482.704731,0 L482.704731,1.53798926 L478.799347,1.53798926 L478.799347,12 L476.87602,12 L476.87602,1.53798926 L473,1.53798926 L473,0 L482.704731,0 Z" id="Fill-8"></path>
        </g>
    </g>
</svg>