<?xml version="1.0" encoding="UTF-8"?>
<svg width="574px" height="256px" viewBox="0 0 574 256" version="1.1" xmlns="http://www.w3.org/2000/svg" xmlns:xlink="http://www.w3.org/1999/xlink">
    <!-- Generator: sketchtool 42 (36781) - http://www.bohemiancoding.com/sketch -->
    <title>p1logo-alt-1</title>
    <desc>Created with sketchtool.</desc>
    <defs></defs>
    <g id="Page-1" stroke="none" stroke-width="1" fill="none" fill-rule="evenodd">
        <g id="p1logo-alt-1" fill-rule="nonzero" fill="#000000">
            <path d="M428.353796,49.2876357 L428.353796,80.7403265 L453.635389,80.7403265 L453.635389,255.521735 L491.259178,255.521735 L491.259178,5.89088506 L456.820472,5.89088506 C456.820472,28.1864634 450.251239,46.1025531 428.353796,49.2876357 Z" id="Shape"></path>
            <polygon id="Shape" points="125.57188 255.521735 162.598465 255.521735 162.598465 144.043843 162.598465 49.088568 125.57188 49.088568 125.57188 145.039182"></polygon>
            <polygon id="Shape" points="125.57188 41.7230645 162.598465 41.7230645 162.598465 26.9920574 162.598465 5.89088506 125.57188 5.89088506 125.57188 28.1864634"></polygon>
            <path d="M244.415275,225.26345 C244.415275,225.26345 245.012478,232.828021 238.04511,233.624292 C234.66096,234.022427 232.471215,233.624292 232.471215,233.624292 C232.07308,233.624292 231.874012,233.425224 231.475877,233.425224 L231.475877,255.521735 L232.471215,255.521735 L238.04511,255.521735 C242.424598,255.521735 246.804087,255.322667 250.188237,254.924532 C257.553741,254.128261 262.928568,251.142246 262.928568,251.142246 C272.881951,245.568352 281.640928,235.614969 281.640928,214.712864 L281.640928,186.843391 L244.614343,186.843391 L244.614343,225.26345 L244.415275,225.26345 Z M207.786825,53.4680566 C197.833442,59.0419512 189.074465,68.9953344 189.074465,89.897439 L189.074465,214.712864 C189.074465,235.614969 197.833442,245.568352 207.786825,251.142246 C207.786825,251.142246 213.161652,254.128261 220.527155,254.924532 C222.119697,255.1236 224.110373,255.322667 226.10105,255.322667 L226.10105,226.059721 L226.10105,225.26345 L226.10105,79.7449882 L226.10105,78.9487175 L226.10105,49.4867033 C224.110373,49.4867033 222.119697,49.685771 220.527155,49.8848387 C213.161652,50.6811093 207.786825,53.4680566 207.786825,53.4680566 L207.786825,53.4680566 Z M262.928568,53.4680566 C262.928568,53.4680566 257.553741,50.4820417 250.188237,49.685771 C247.003155,49.2876357 242.424598,49.088568 238.04511,49.088568 L232.471215,49.088568 L231.475877,49.088568 L231.475877,71.1850787 C231.674945,71.1850787 232.07308,70.986011 232.471215,70.986011 C232.471215,70.986011 234.66096,70.5878757 238.04511,70.986011 C245.012478,71.9813493 244.415275,79.3468529 244.415275,79.3468529 L244.415275,124.535212 C244.415275,126.525889 243.619004,131.303513 238.04511,132.099784 L231.475877,132.099784 L231.475877,155.987903 L281.44186,155.987903 L281.44186,89.897439 C281.44186,68.9953344 272.682883,59.2410189 262.928568,53.4680566 L262.928568,53.4680566 Z" id="Shape"></path>
            <path d="M309.510401,255.521735 L346.536986,255.521735 L346.536986,146.432655 L346.536986,49.2876357 L309.510401,49.2876357 L309.510401,148.821467 L309.510401,255.521735 L309.510401,255.521735 Z M367.240023,47.894162 C361.467061,48.0932297 355.096896,50.4820417 351.911813,53.6671243 L351.911813,69.791605 C364.054941,67.2037254 362.661467,75.3654996 362.661467,83.1291385 L362.661467,107.216326 L396.702038,107.216326 L396.702038,86.5132887 C396.702038,56.8522069 388.341196,46.8988237 367.240023,47.894162 L367.240023,47.894162 Z" id="Shape"></path>
            <path d="M79.1891144,10.8675766 C79.1891144,10.8675766 73.0180168,7.48342637 64.2590396,6.48808805 C60.8748894,6.08995272 52.9121828,5.89088506 48.3336266,5.89088506 L46.1438823,5.89088506 L46.1438823,5.89088506 L46.1438823,29.3808693 C55.3009948,28.1864634 59.4814157,30.5752753 61.2730247,33.1631549 C63.2637013,35.7510346 63.0646337,39.5333202 63.0646337,39.5333202 L63.0646337,122.544536 C63.0646337,122.544536 63.2637013,126.326821 61.2730247,128.914701 C59.2823481,131.502581 55.3009948,133.891393 46.1438823,132.896054 L46.1438823,156.386039 L46.1438823,156.386039 L48.3336266,156.386039 C52.9121828,156.386039 60.8748894,156.186971 64.2590396,155.788836 C72.8189492,154.793497 79.1891144,151.409347 79.1891144,151.409347 C90.7350389,144.840114 101.086557,133.29419 101.086557,108.808867 L101.086557,54.0652596 C101.086557,28.982734 90.7350389,17.4368095 79.1891144,10.8675766 L79.1891144,10.8675766 Z M0.159252015,255.521735 L40.7690554,255.521735 L40.7690554,131.303513 L40.7690554,5.6918174 L0.159252015,5.6918174 L0.159252015,132.497919 L0.159252015,255.521735 L0.159252015,255.521735 Z" id="Shape"></path>
            <polygon id="Shape" points="556.155236 254.327329 526.693222 254.327329 526.693222 248.753434 556.155236 248.753434"></polygon>
            <polygon id="Shape" points="556.155236 226.855991 526.693222 226.855991 526.693222 219.092353 547.197191 213.518458 547.197191 213.518458 526.693222 207.944563 526.693222 199.981857 556.155236 199.981857 556.155236 204.759481 532.864319 204.759481 532.864319 204.759481 556.155236 211.328714 556.155236 215.509135 532.864319 221.8793 532.864319 221.8793 556.155236 221.8793"></polygon>
            <path d="M556.155236,179.27882 L526.693222,179.27882 L526.693222,168.529166 C526.693222,162.159001 529.281101,158.177648 535.452199,158.177648 C541.623297,158.177648 544.211176,162.159001 544.211176,168.529166 L544.211176,173.704925 L556.155236,173.704925 L556.155236,179.27882 L556.155236,179.27882 Z M539.831688,173.704925 L539.831688,169.325437 C539.831688,165.145016 538.239146,163.95061 535.651267,163.95061 C533.063387,163.95061 531.470846,165.145016 531.470846,169.325437 L531.470846,173.704925 L539.831688,173.704925 L539.831688,173.704925 Z" id="Shape"></path>
            <path d="M556.553371,131.303513 C556.553371,139.26622 550.979477,143.645708 541.424229,143.645708 C531.868981,143.645708 526.295086,139.26622 526.295086,131.303513 C526.295086,123.340806 531.868981,118.961318 541.424229,118.961318 C551.178544,118.961318 556.553371,123.340806 556.553371,131.303513 L556.553371,131.303513 Z M531.07271,131.303513 C531.07271,135.882069 534.655928,137.872746 541.424229,137.872746 C548.391597,137.872746 551.775747,135.882069 551.775747,131.303513 C551.775747,126.724957 548.192529,124.535212 541.424229,124.535212 C534.655928,124.535212 531.07271,126.724957 531.07271,131.303513 L531.07271,131.303513 Z" id="Shape"></path>
            <path d="M556.155236,100.04989 L526.693222,100.04989 L526.693222,88.5039654 C526.693222,81.9347325 530.475507,79.1477852 535.452199,79.1477852 C539.035417,79.1477852 542.021432,80.9393942 543.01677,84.5226121 L556.155236,78.1524469 L556.155236,84.3235444 L544.211176,89.897439 L544.211176,94.6750629 L556.155236,94.6750629 L556.155236,100.04989 L556.155236,100.04989 Z M539.63262,94.4759953 L539.63262,90.2955744 C539.63262,85.9160858 538.239146,84.5226121 535.452199,84.5226121 C532.665252,84.5226121 531.271778,86.1151534 531.271778,89.300236 L531.271778,94.4759953 L539.63262,94.4759953 L539.63262,94.4759953 Z" id="Shape"></path>
            <polygon id="Shape" points="526.693222 40.7277262 531.470846 40.7277262 531.470846 48.2922974 556.155236 48.2922974 556.155236 53.8661919 531.470846 53.8661919 531.470846 61.4307632 526.693222 61.4307632"></polygon>
            <path d="M534.655928,9.67317067 C532.267116,10.4694413 530.873643,12.2610503 530.873643,14.8489299 C530.873643,17.2377419 531.868981,19.0293508 534.058725,19.0293508 C539.035417,19.0293508 538.040079,3.90020843 547.595326,3.90020843 C553.567356,3.90020843 556.553371,7.68249403 556.553371,14.0526593 C556.553371,18.8302832 553.766424,23.4088394 549.586003,25.0013807 L547.595326,20.4228245 C550.382274,19.0293508 552.173883,17.4368095 552.173883,14.0526593 C552.173883,11.265712 551.178544,9.07596767 548.192529,9.07596767 C542.419567,9.07596767 543.613973,24.2051101 534.456861,24.2051101 C529.082034,24.2051101 526.295086,19.8256215 526.295086,14.8489299 C526.295086,10.071306 528.683898,6.28902039 532.864319,4.49741142 L534.655928,9.67317067 L534.655928,9.67317067 Z" id="Shape"></path>
            <path d="M569.439576,0.424763571 L569.439576,0.867029059 L568.188597,0.867029059 L568.188597,4.13726644 L567.678096,4.13726644 L567.678096,0.867029059 L566.427117,0.867029059 L566.427117,0.424763571 L569.439576,0.424763571 Z M569.886896,0.424763571 L570.607157,0.424763571 L571.673649,3.56358492 L572.732559,0.424763571 L573.445238,0.424763571 L573.445238,4.13726644 L572.967591,4.13726644 L572.967591,1.94615685 C572.967591,1.87033953 572.969276,1.74482163 572.972646,1.56959938 C572.976016,1.39437713 572.9777,1.20652147 572.9777,1.00602678 L571.91879,4.13726644 L571.420926,4.13726644 L570.354434,1.00602678 L570.354434,1.1197522 C570.354434,1.21073298 570.35654,1.34930811 570.360752,1.53548175 C570.364964,1.7216554 570.36707,1.85854573 570.36707,1.94615685 L570.36707,4.13726644 L569.886896,4.13726644 L569.886896,0.424763571 Z" id="TM"></path>
        </g>
    </g>
</svg>