<?xml version="1.0" encoding="UTF-8"?>
<svg width="16px" height="9px" viewBox="0 0 16 9" version="1.1" xmlns="http://www.w3.org/2000/svg" xmlns:xlink="http://www.w3.org/1999/xlink">
    
    <title>Icon/p1logo</title>
    <desc>Created with sketchtool.</desc>
    <g id="Icons" stroke="none" stroke-width="1" fill="none" fill-rule="evenodd">
        <g id="Icon/p1logo" fill="#0033A0">
            <path d="M14.7665691,0 L16,0 L16,8.86580087 L14.6532557,8.86580087 L14.6532557,2.66085178 L13.7489177,2.66085178 L13.7489177,1.5398732 C14.5329332,1.42473939 14.7665691,0.791835249 14.7665691,0 Z M4.12121212,8.86580087 L4.12121212,1.55844156 L5.43722944,1.55844156 L5.43722944,8.86580087 L4.12121212,8.86580087 Z M4.12121212,1.28138528 L4.12121212,0 L5.43722944,0 L5.43722944,1.28138528 L4.12121212,1.28138528 Z M7.96293534,7.78986051 L7.96293534,6.43492362 L9.28138528,6.43492362 L9.28138528,7.42034731 C9.28138528,8.16284875 8.97030907,8.5128355 8.61691184,8.71074763 C8.61691184,8.71074763 8.42696707,8.81516448 8.16520985,8.84594346 C8.04957681,8.86182938 7.88995656,8.86580087 7.73416853,8.86580087 L7.50540172,8.86580087 L7.50540172,8.08126792 C7.51573205,8.08391557 7.52689547,8.08606679 7.53889198,8.08772157 C7.53889198,8.08772157 7.6158696,8.10211819 7.73416853,8.08772157 C7.98259629,8.05412946 7.96293534,7.78986051 7.96293534,7.78986051 Z M6.65631529,1.71366027 C6.65631529,1.71366027 6.84592682,1.60924342 7.10785066,1.57829896 C7.16616703,1.57019052 7.23548021,1.56522617 7.30995855,1.56257852 L7.30995855,2.60558868 C7.30929208,2.62346034 7.30995855,2.63438192 7.30995855,2.63438192 L7.30995855,7.78986051 C7.30995855,7.78986051 7.30929208,7.80078208 7.30995855,7.81865375 L7.30995855,8.86182938 C7.23548021,8.85885077 7.16616703,8.85372094 7.10785066,8.84594346 C6.84592682,8.81516448 6.65631529,8.71074763 6.65631529,8.71074763 C6.3024182,8.5128355 5.99134199,8.16284875 5.99134199,7.42034731 L5.99134199,3.00439155 C5.99134199,2.26139367 6.3024182,1.91124144 6.65631529,1.71366027 Z M8.61691184,1.71366027 C8.97030907,1.91124144 9.28138528,2.26139367 9.28138528,3.00439155 L9.28138528,5.345745 L7.50206935,5.345745 L7.50206935,4.49651 L7.73416853,4.49651 C7.93227759,4.46953703 7.95993621,4.29661213 7.96293534,4.2272767 L7.96293534,2.63438192 C7.96293534,2.63438192 7.98259629,2.37044392 7.73416853,2.33652085 C7.6158696,2.32228971 7.53889198,2.33652085 7.53889198,2.33652085 C7.52689547,2.33817563 7.51573205,2.34049233 7.50540172,2.34280903 L7.50540172,1.55877252 C7.51639852,1.55860704 7.52756194,1.55844156 7.53889198,1.55844156 L7.73416853,1.55844156 C7.88995656,1.55844156 8.04957681,1.56257852 8.16520985,1.57829896 C8.42696707,1.60924342 8.61691184,1.71366027 8.61691184,1.71366027 Z M9.87012987,8.86580087 L9.87012987,1.53554986 L11.1780305,1.53554986 L11.1780305,8.86580087 L9.87012987,8.86580087 Z M11.9129288,1.49172671 C12.6610565,1.45504143 12.952381,1.80961051 12.952381,2.86020402 L12.952381,3.59590167 L11.7504816,3.59590167 L11.7504816,2.74251231 C11.7504816,2.46380375 11.8027381,2.17231344 11.3721182,2.26726359 L11.3737719,1.6973967 C11.4799385,1.58103297 11.706218,1.50152052 11.9129288,1.49172671 Z M2.7946857,0.182322845 C3.2056251,0.414249448 3.56709957,0.825346818 3.56709957,1.69731122 L3.56709957,3.63965504 C3.56709957,4.51128764 3.2056251,4.92288271 2.7946857,5.15464341 C2.7946857,5.15464341 2.57399602,5.27740857 2.26943103,5.31357452 C2.14750577,5.3303303 1.86692879,5.33597087 1.70265229,5.33663446 C1.68561254,5.33680036 1.64508107,5.33680036 1.62853762,5.33680036 L1.62804132,5.33680036 L1.62804132,4.50548118 C1.9541128,4.54513101 2.09787541,4.46184978 2.16553814,4.36778513 C2.23287,4.27803385 2.22658348,4.14465117 2.22658348,4.14465117 L2.22658348,1.19214919 C2.22658348,1.19214919 2.23287,1.05876651 2.16553814,0.969347027 C2.09787541,0.875116475 1.9541128,0.791503451 1.62804132,0.831485076 L1.62804132,0 L1.62853762,0 C1.64508107,0 1.68561254,0 1.70265229,0.000165898858 C1.86692879,0.00116129201 2.14750577,0.00647005546 2.26943103,0.023391739 C2.57399602,0.0597235888 2.7946857,0.182322845 2.7946857,0.182322845 Z M0,8.86580087 L0,0 L1.43415203,0 L1.43415203,8.86580087 L0,8.86580087 Z" id="Icon-Color"></path>
        </g>
    </g>
</svg>