<?xml version="1.0" encoding="UTF-8"?>
<svg width="1083px" height="256px" viewBox="0 0 1083 256" version="1.1" xmlns="http://www.w3.org/2000/svg" xmlns:xlink="http://www.w3.org/1999/xlink">
    
    <title>p1logo</title>
    <desc>Created with sketchtool.</desc>
    <defs></defs>
    <g id="Page-1" stroke="none" stroke-width="1" fill="none" fill-rule="evenodd">
        <g id="p1logo" fill="#000000" fill-rule="nonzero">
            <path d="M503.25,216 L535.25,216 L535.25,37.5 L503.25,37.5 L503.25,216 Z M553.25,36.5 C550.749987,36.6666675 548.250013,37.1666625 545.75,38 C543.249987,38.8333375 541.33334,39.9999925 540,41.5 L540,55.25 C546.00003,53.583325 549.374996,54.5416487 550.125,58.125 C550.875004,61.7083513 551.25,64.666655 551.25,67 L551.25,216 L583,216 L583,69.75 C583,57.08327 580.33336,48.250025 575,43.25 C569.66664,38.249975 562.416713,35.9999975 553.25,36.5 L553.25,36.5 Z M600,36.25 C599.166663,36.25 598.250005,36.2916663 597.25,36.375 C596.249995,36.4583337 595.333337,36.5 594.5,36.5 L594.5,36.5 C594.333332,36.5 594.25,36.5416663 594.25,36.625 C594.25,36.7083337 594.166668,36.75 594,36.75 C591.666655,37.083335 589.375011,37.7083288 587.125,38.625 C584.874989,39.5416712 582.666677,40.9166575 580.5,42.75 C581.500005,44.2500075 582.458329,45.833325 583.375,47.5 C584.291671,49.166675 584.999997,50.9166575 585.5,52.75 C585.666668,53.2500025 585.833332,53.7499975 586,54.25 C586.166668,54.7500025 586.25,55.2499975 586.25,55.75 C586.583335,55.5833325 586.958331,55.4583337 587.375,55.375 C587.791669,55.2916663 588.249997,55.25 588.75,55.25 L588.75,55.25 L589,55.25 L589.25,55.25 L589.625,55.25 L589.75,55.25 L590.125,55.25 L590.25,55.25 L590.625,55.25 L590.75,55.25 L591,55.25 C595.333355,55.7500025 597.749997,57.833315 598.25,61.5 C598.750003,65.166685 599,67 599,67 L599,216 L631,216 L631,69.75 C631,57.5832725 628.33336,48.9583587 623,43.875 C617.66664,38.7916413 610.00005,36.25 600,36.25 L600,36.25 Z M648.75,256 L680.75,256 L680.75,37.5 L648.75,37.5 L648.75,256 Z M698.75,36.5 C696.249987,36.6666675 693.750013,37.1666625 691.25,38 C688.749987,38.8333375 686.83334,39.9999925 685.5,41.5 L685.5,55.25 C691.50003,53.583325 694.874996,54.5416487 695.625,58.125 C696.375004,61.7083513 696.75,64.666655 696.75,67 L696.75,127.75 L696.75,134.5 L696.75,137 L696.75,186.75 C696.75,188.916677 696.375004,191.791649 695.625,195.375 C694.874996,198.958351 691.50003,199.916675 685.5,198.25 L685.5,212 C686.83334,213.500008 688.749987,214.708329 691.25,215.625 C693.750013,216.541671 696.249987,217 698.75,217 C707.916712,217.500002 715.208306,215.250025 720.625,210.25 C726.041694,205.249975 728.75,196.41673 728.75,183.75 L728.75,69.75 C728.75,57.08327 726.041694,48.250025 720.625,43.25 C715.208306,38.249975 707.916712,35.9999975 698.75,36.5 L698.75,36.5 Z M840.25,216 L872.25,216 L872.25,37.5 L840.25,37.5 L840.25,216 Z M890.25,36.5 C887.58332,36.6666675 885.041679,37.1666625 882.625,38 C880.208321,38.8333375 878.33334,39.9999925 877,41.5 L877,55.25 C882.166692,54.0833275 884.999997,54.8749863 885.5,57.625 C886.000002,60.3750137 886.25,63.4999825 886.25,67 L886.25,87.75 L915.5,87.75 L915.5,69.75 C915.5,56.9166025 913.541686,48.0416912 909.625,43.125 C905.708314,38.2083088 899.250045,35.9999975 890.25,36.5 L890.25,36.5 Z M808,41.25 C808,41.25 806.958344,40.7916712 804.875,39.875 C802.791656,38.9583288 800.166682,38.333335 797,38 C795.66666,37.8333325 794.083342,37.7083337 792.25,37.625 C790.416658,37.5416663 788.50001,37.5 786.5,37.5 L781.75,37.5 L781.375,37.5 L781,37.5 L781,56.75 C781.166668,56.75 781.291666,56.7083337 781.375,56.625 C781.458334,56.5416663 781.583332,56.5 781.75,56.5 C781.75,56.5 782.208329,56.4583337 783.125,56.375 C784.041671,56.2916663 785.16666,56.3333325 786.5,56.5 C789.500015,57.0000025 791.166665,58.3333225 791.5,60.5 C791.833335,62.6666775 792,63.75 792,63.75 L792,189.75 C792,189.75 791.833335,190.874989 791.5,193.125 C791.166665,195.375011 789.500015,196.666665 786.5,197 C785.16666,197.166667 784.041671,197.208334 783.125,197.125 C782.208329,197.041666 781.75,197 781.75,197 L781.375,197 C781.291666,197 781.166668,196.916667 781,196.75 L781,216 L781.375,216 L781.75,216 L786.5,216 C788.50001,216 790.416658,215.958334 792.25,215.875 C794.083342,215.791666 795.66666,215.666667 797,215.5 C800.166682,215.166665 802.791656,214.541671 804.875,213.625 C806.958344,212.708329 808,212.25 808,212.25 C812.333355,209.749988 816.083317,206.125024 819.25,201.375 C822.416682,196.624976 824,189.750045 824,180.75 L824,72.75 C824,63.749955 822.416682,56.8750237 819.25,52.125 C816.083317,47.3749763 812.333355,43.7500125 808,41.25 L808,41.25 Z M760.5,41.25 C756.166645,43.7500125 752.375016,47.3749763 749.125,52.125 C745.874984,56.8750237 744.25,63.749955 744.25,72.75 L744.25,180.75 C744.25,189.750045 745.874984,196.624976 749.125,201.375 C752.375016,206.125024 756.166645,209.749988 760.5,212.25 C760.5,212.25 761.49999,212.708329 763.5,213.625 C765.50001,214.541671 768.083317,215.166665 771.25,215.5 C772.083337,215.666667 772.916662,215.791666 773.75,215.875 C774.583337,215.958334 775.416662,216 776.25,216 L776.25,190.5 L776.25,189.875 L776.25,189.75 L776.25,63.75 L776.25,63.625 L776.25,63 L776.25,37.5 C775.416662,37.6666675 774.583337,37.75 773.75,37.75 C772.916662,37.75 772.083337,37.8333325 771.25,38 C768.083317,38.333335 765.50001,38.9583288 763.5,39.875 C761.49999,40.7916712 760.5,41.25 760.5,41.25 L760.5,41.25 Z M956.5,58 L967.5,58 L967.5,37.5 L956.5,37.5 L956.5,7.75 L924.5,7.75 L924.5,183.75 C924.5,195.916728 927.16664,204.541641 932.5,209.625 C937.83336,214.708359 945.083287,217.25 954.25,217.25 C956.416677,217.25 958.749987,217.083335 961.25,216.75 C963.750013,216.416665 965.833325,215.666673 967.5,214.5 L967.5,198.25 C961.49997,199.083337 958.16667,197.375021 957.5,193.125 C956.83333,188.874979 956.5,186.75 956.5,186.75 L956.5,58 Z M1035.5,41.25 C1035.5,41.25 1034.45834,40.7916712 1032.375,39.875 C1030.29166,38.9583288 1027.66668,38.333335 1024.5,38 C1023.16666,37.8333325 1021.58334,37.7083337 1019.75,37.625 C1017.91666,37.5416663 1016.00001,37.5 1014,37.5 L1009.25,37.5 L1009,37.5 L1008.5,37.5 L1008.5,56.75 C1008.66667,56.75 1008.83333,56.7083337 1009,56.625 C1009.16667,56.5416663 1009.25,56.5 1009.25,56.5 C1010.75001,56.3333325 1011.91666,56.2916663 1012.75,56.375 C1013.58334,56.4583337 1014,56.5 1014,56.5 C1017.16668,57.0000025 1018.91666,58.3333225 1019.25,60.5 C1019.58333,62.6666775 1019.75,63.75 1019.75,63.75 L1019.75,87.75 L1051.75,87.75 L1051.75,72.75 C1051.75,63.749955 1050.12502,56.8750237 1046.875,52.125 C1043.62498,47.3749763 1039.83335,43.7500125 1035.5,41.25 L1035.5,41.25 Z M1009.25,197 C1006.24998,196.666665 1004.58333,195.375011 1004.25,193.125 C1003.91666,190.874989 1003.75,189.75 1003.75,189.75 L1003.75,156.75 L971.75,156.75 L971.75,180.75 C971.75,189.750045 973.374984,196.624976 976.625,201.375 C979.875016,206.125024 983.666645,209.749988 988,212.25 C988,212.25 989.041656,212.708329 991.125,213.625 C993.208344,214.541671 995.833317,215.166665 999,215.5 C1000.33334,215.666667 1001.91666,215.791666 1003.75,215.875 C1005.58334,215.958334 1007.41666,216 1009.25,216 L1014,216 L1014.5,216 L1015,216 L1015,196.75 C1014.83333,196.916667 1014.66667,197 1014.5,197 L1014,197 C1012.66666,197.166667 1011.54167,197.208334 1010.625,197.125 C1009.70833,197.041666 1009.25,197 1009.25,197 L1009.25,197 Z M1051.75,157 C1051.75,154.499988 1051.33334,150.91669 1050.5,146.25 C1049.66666,141.58331 1047.16669,137.000022 1043,132.5 C1041.16666,130.49999 1039.37501,128.666675 1037.625,127 C1035.87499,125.333325 1033.25002,123.000015 1029.75,120 L1013.5,106 C1013.5,106 1013.29167,105.833335 1012.875,105.5 C1012.45833,105.166665 1011.91667,104.750002 1011.25,104.25 C1010.91666,103.749998 1010.20834,102.958339 1009.125,101.875 C1008.04166,100.791661 1007.16667,99.6666725 1006.5,98.5 C1005.83333,97.16666 1005.20834,95.50001 1004.625,93.5 C1004.04166,91.49999 1003.75,89.2500125 1003.75,86.75 L1003.75,77.5 L1003.75,63.75 L1003.75,63.625 L1003.75,63 L1003.75,37.5 C1002.91666,37.6666675 1002.08334,37.75 1001.25,37.75 C1000.41666,37.75 999.66667,37.8333325 999,38 C995.833317,38.333335 993.208344,38.9583288 991.125,39.875 C989.041656,40.7916712 988,41.25 988,41.25 C983.666645,43.7500125 979.875016,47.3749763 976.625,52.125 C973.374984,56.8750237 971.75,63.749955 971.75,72.75 L971.75,77.5 L971.75,92.75 C971.75,95.2500125 972.166662,98.83331 973,103.5 C973.833337,108.16669 976.333312,112.749978 980.5,117.25 C982.166675,119.083343 983.916657,120.874991 985.75,122.625 C987.583342,124.375009 990.249982,126.666653 993.75,129.5 L1010,143.5 C1010,143.5 1010.20833,143.666665 1010.625,144 C1011.04167,144.333335 1011.58333,144.83333 1012.25,145.5 C1012.58334,145.833335 1013.29166,146.541661 1014.375,147.625 C1015.45834,148.708339 1016.33333,149.833327 1017,151 C1017.66667,152.500008 1018.29166,154.208324 1018.875,156.125 C1019.45834,158.041676 1019.75,160.33332 1019.75,163 L1019.75,176 L1019.75,189.75 L1019.75,189.875 L1019.75,190.5 L1019.75,216 C1020.58334,215.833333 1021.41666,215.75 1022.25,215.75 C1023.08334,215.75 1023.83333,215.666667 1024.5,215.5 C1027.66668,215.166665 1030.29166,214.541671 1032.375,213.625 C1034.45834,212.708329 1035.5,212.25 1035.5,212.25 C1039.83335,209.749988 1043.62498,206.125024 1046.875,201.375 C1050.12502,196.624976 1051.75,189.750045 1051.75,180.75 L1051.75,176 L1051.75,157 Z M1056,51.25 C1056,54.916685 1057.33332,58.08332 1060,60.75 C1062.66668,63.41668 1065.91665,64.75 1069.75,64.75 C1073.41669,64.75 1076.58332,63.41668 1079.25,60.75 C1081.91668,58.08332 1083.25,54.8333525 1083.25,51 C1083.25,47.333315 1081.95835,44.16668 1079.375,41.5 C1076.79165,38.83332 1073.58335,37.5 1069.75,37.5 C1065.91665,37.5 1062.66668,38.83332 1060,41.5 C1057.33332,44.16668 1056,47.333315 1056,51 L1056,51.25 L1056,51.25 Z M1081.75,51 C1081.75,54.33335 1080.58335,57.2083213 1078.25,59.625 C1075.91665,62.0416787 1073.08335,63.25 1069.75,63.25 C1066.24998,63.25 1063.37501,62.083345 1061.125,59.75 C1058.87499,57.416655 1057.75,54.58335 1057.75,51.25 L1057.75,51 C1057.75,47.8333175 1058.87499,45.0416787 1061.125,42.625 C1063.37501,40.2083213 1066.24998,39 1069.75,39 C1073.08335,39 1075.91665,40.166655 1078.25,42.5 C1080.58335,44.833345 1081.75,47.66665 1081.75,51 L1081.75,51 Z M1064.5,44 L1064.5,57.75 L1066.75,57.75 L1066.75,52.75 L1070,52.75 L1073.5,57.75 L1076.25,57.75 L1072.5,52.25 C1073.33334,52.0833325 1074.08333,51.66667 1074.75,51 C1075.41667,50.33333 1075.75,49.4166725 1075.75,48.25 C1075.75,46.91666 1075.25001,45.8750037 1074.25,45.125 C1073.24999,44.3749963 1072.08334,44 1070.75,44 L1064.5,44 L1064.5,44 Z M1066.75,50.75 L1066.75,46 L1070.5,46 C1071.33334,46 1072.04166,46.2083313 1072.625,46.625 C1073.20834,47.0416687 1073.5,47.58333 1073.5,48.25 C1073.5,49.0833375 1073.25,49.7083313 1072.75,50.125 C1072.25,50.5416687 1071.50001,50.75 1070.5,50.75 L1066.75,50.75 Z M357.75,0 C357.75,9.666715 356.000018,17.999965 352.5,25 C348.999983,32.000035 342.500048,36.16666 333,37.5 L333,64.75 L355,64.75 L355,216 L391.75,216 L391.75,0 L357.75,0 Z M97.25,216 L129.25,216 L129.25,37.5 L97.25,37.5 L97.25,216 Z M97.25,31.25 L129.25,31.25 L129.25,7.75 L97.25,7.75 L97.25,31.25 Z M453.25,216 L485.25,216 L485.25,37.5 L453.25,37.5 L453.25,216 Z M453.25,31.25 L485.25,31.25 L485.25,7.75 L453.25,7.75 L453.25,31.25 Z M191.75,189.75 C191.75,189.75 191.583335,190.874989 191.25,193.125 C190.916665,195.375011 189.250015,196.666665 186.25,197 C184.749992,197.166667 183.583337,197.208334 182.75,197.125 C181.916662,197.041666 181.5,197 181.5,197 L181,197 C180.833332,197 180.75,196.916667 180.75,196.75 L180.75,216 L181,216 L181.5,216 L186.25,216 C188.083342,216 189.916657,215.958334 191.75,215.875 C193.583343,215.791666 195.249992,215.666667 196.75,215.5 C199.916682,215.166665 202.49999,214.541671 204.5,213.625 C206.50001,212.708329 207.5,212.25 207.5,212.25 C211.833355,209.749988 215.624984,206.125024 218.875,201.375 C222.125016,196.624976 223.75,189.750045 223.75,180.75 L223.75,156.75 L191.75,156.75 L191.75,189.75 Z M160,41.25 C155.666645,43.7500125 151.916682,47.3749763 148.75,52.125 C145.583317,56.8750237 144,63.749955 144,72.75 L144,180.75 C144,189.750045 145.583317,196.624976 148.75,201.375 C151.916682,206.125024 155.666645,209.749988 160,212.25 C160,212.25 161.041656,212.708329 163.125,213.625 C165.208344,214.541671 167.833317,215.166665 171,215.5 C171.66667,215.666667 172.416662,215.791666 173.25,215.875 C174.083337,215.958334 174.999995,216 176,216 L176,190.5 L176,189.875 L176,189.75 L176,63.75 L176,63.625 L176,63 L176,37.5 C174.999995,37.6666675 174.083337,37.75 173.25,37.75 C172.416662,37.75 171.66667,37.8333325 171,38 C167.833317,38.333335 165.208344,38.9583288 163.125,39.875 C161.041656,40.7916712 160,41.25 160,41.25 L160,41.25 Z M207.5,41.25 C207.5,41.25 206.50001,40.7916712 204.5,39.875 C202.49999,38.9583288 199.916682,38.333335 196.75,38 C195.249992,37.8333325 193.583342,37.7083337 191.75,37.625 C189.916657,37.5416663 188.083342,37.5 186.25,37.5 L181.5,37.5 L181,37.5 L180.75,37.5 L180.75,56.75 C180.75,56.75 180.833332,56.7083337 181,56.625 C181.166667,56.5416663 181.333332,56.5 181.5,56.5 C181.5,56.5 181.916662,56.4583337 182.75,56.375 C183.583337,56.2916663 184.749992,56.3333325 186.25,56.5 C189.250015,57.0000025 190.916665,58.3333225 191.25,60.5 C191.583335,62.6666775 191.75,63.75 191.75,63.75 L191.75,102.75 C191.75,103.583337 191.41667,104.791659 190.75,106.375 C190.08333,107.958341 188.583345,108.916665 186.25,109.25 L180.5,109.25 L180.5,130 L223.75,130 L223.75,72.75 C223.75,63.749955 222.125016,56.8750237 218.875,52.125 C215.624984,47.3749763 211.833355,43.7500125 207.5,41.25 L207.5,41.25 Z M237.75,216 L269.75,216 L269.75,37.5 L237.75,37.5 L237.75,216 Z M287.75,36.5 C285.249988,36.6666675 282.750013,37.1666625 280.25,38 C277.749988,38.8333375 275.83334,39.9999925 274.5,41.5 L274.5,55.25 C279.666693,54.0833275 282.499998,54.8749863 283,57.625 C283.500003,60.3750137 283.75,63.4999825 283.75,67 L283.75,87.75 L313,87.75 L313,69.75 C313,56.9166025 311.083353,48.0416912 307.25,43.125 C303.416648,38.2083088 296.916713,35.9999975 287.75,36.5 L287.75,36.5 Z M68.25,4.5 C68.25,4.5 67.0416788,3.95833875 64.625,2.875 C62.2083212,1.79166125 59.166685,1.0000025 55.5,0.5 C53.9999925,0.3333325 51.7916813,0.20833375 48.875,0.125 C45.9583188,0.04166625 43.50001,0 41.5,0 L40.625,0 L39.75,0 L39.75,20.25 C43.75002,19.7499975 46.74999,19.9166625 48.75,20.75 C50.75001,21.5833375 52.1666625,22.499995 53,23.5 C53.8333375,24.6666725 54.2916663,25.8749937 54.375,27.125 C54.4583338,28.3750063 54.5,29 54.5,29 L54.5,101 C54.5,101 54.4583338,101.624994 54.375,102.875 C54.2916663,104.125006 53.8333375,105.333327 53,106.5 C52.1666625,107.666673 50.75001,108.624996 48.75,109.375 C46.74999,110.125004 43.75002,110.250002 39.75,109.75 L39.75,130 L40.625,130 L41.5,130 C43.50001,130 45.9583188,129.958334 48.875,129.875 C51.7916813,129.791666 53.9999925,129.666667 55.5,129.5 C59.166685,128.999998 62.2083212,128.208339 64.625,127.125 C67.0416788,126.041661 68.25,125.5 68.25,125.5 C73.250025,122.666653 77.6666475,118.458361 81.5,112.875 C85.3333525,107.291639 87.25,99.2500525 87.25,88.75 L87.25,41.25 C87.25,30.7499475 85.3333525,22.7083613 81.5,17.125 C77.6666475,11.5416387 73.250025,7.3333475 68.25,4.5 L68.25,4.5 Z M0,216 L35,216 L35,0 L0,0 L0,216 Z"></path>
        </g>
    </g>
</svg>