<?xml version="1.0" encoding="UTF-8"?>
<svg width="16px" height="16px" viewBox="0 0 16 16" version="1.1" xmlns="http://www.w3.org/2000/svg" xmlns:xlink="http://www.w3.org/1999/xlink">
    
    <title>Icon/p1rcc</title>
    <desc>Created with sketchtool.</desc>
    <g id="Icons" stroke="none" stroke-width="1" fill="none" fill-rule="evenodd">
        <g id="Icon/p1rcc" fill="#00205B">
            <path d="M14.4455,12.577 L1.5535,12.577 C1.1715,12.577 0.8605,12.29 0.8605,11.937 L0.8605,5.357 C0.8675,5.357 0.8735,5.361 0.8805,5.361 L15.1095,5.361 C15.1205,5.361 15.1295,5.356 15.1395,5.355 L15.1395,11.937 C15.1395,12.29 14.8285,12.577 14.4455,12.577 M1.5535,3.423 L14.4455,3.423 C14.8285,3.423 15.1395,3.71 15.1395,4.062 L15.1395,4.646 C15.1295,4.645 15.1205,4.64 15.1095,4.64 L0.8805,4.64 C0.8735,4.64 0.8675,4.644 0.8605,4.644 L0.8605,4.062 C0.8605,3.71 1.1715,3.423 1.5535,3.423 M14.4455,2.702 L1.5535,2.702 C0.7745,2.702 0.1395,3.312 0.1395,4.062 L0.1395,11.937 C0.1395,12.687 0.7745,13.298 1.5535,13.298 L14.4455,13.298 C15.2255,13.298 15.8605,12.687 15.8605,11.937 L15.8605,4.062 C15.8605,3.312 15.2255,2.702 14.4455,2.702 M5.5002,8.1405 L2.5002,8.1405 C2.3012,8.1405 2.1402,8.3015 2.1402,8.5005 C2.1402,8.7005 2.3012,8.8615 2.5002,8.8615 L5.5002,8.8615 C5.6992,8.8615 5.8602,8.7005 5.8602,8.5005 C5.8602,8.3015 5.6992,8.1405 5.5002,8.1405 M12.5705,6.4207 L7.9205,11.0707 C7.7795,11.2117 7.7795,11.4407 7.9205,11.5807 C7.9905,11.6507 8.0835,11.6867 8.1745,11.6867 C8.2665,11.6867 8.3595,11.6507 8.4295,11.5807 L13.0805,6.9307 C13.2205,6.7897 13.2205,6.5617 13.0805,6.4207 C12.9395,6.2797 12.7115,6.2797 12.5705,6.4207 M9.0002,8.3739 C9.4822,8.3739 9.8732,7.9829 9.8732,7.5009 C9.8732,7.0189 9.4822,6.6279 9.0002,6.6279 C8.5182,6.6279 8.1272,7.0189 8.1272,7.5009 C8.1272,7.9829 8.5182,8.3739 9.0002,8.3739 M12.0002,10.1278 C11.5182,10.1278 11.1272,10.5188 11.1272,11.0008 C11.1272,11.4828 11.5182,11.8738 12.0002,11.8738 C12.4822,11.8738 12.8732,11.4828 12.8732,11.0008 C12.8732,10.5188 12.4822,10.1278 12.0002,10.1278" id="Icon-Color"></path>
        </g>
    </g>
</svg>