<?xml version="1.0" encoding="UTF-8"?>
<svg width="16px" height="16px" viewBox="0 0 16 16" version="1.1" xmlns="http://www.w3.org/2000/svg" xmlns:xlink="http://www.w3.org/1999/xlink">
    
    <title>Icon/package-error</title>
    <desc>Created with sketchtool.</desc>
    <g id="Icons" stroke="none" stroke-width="1" fill="none" fill-rule="evenodd">
        <g id="Icon/package-error" fill="#00205B">
            <path d="M10.3507082,11.285625 L10.3507082,5.394625 L15.1977082,3.246625 L15.1977082,8.796625 L10.3507082,11.285625 Z M7.01470822,2.070625 L11.8377082,3.948625 L9.98670822,4.768625 L5.07870822,2.726625 L7.01470822,2.070625 Z M9.79370822,1.129625 L14.5667082,2.738625 L12.7567082,3.540625 C12.7457082,3.534625 12.7367082,3.523625 12.7227082,3.518625 L8.07770822,1.710625 L9.79370822,1.129625 Z M5.12050822,5.088125 C5.24350822,4.844125 5.64150822,4.844125 5.76450822,5.088125 L5.76450822,5.088125 L10.7645082,15.088125 C10.8205082,15.200125 10.8145082,15.332125 10.7495082,15.439125 C10.6825082,15.544125 10.5675082,15.610125 10.4425082,15.610125 L10.4425082,15.610125 L0.44250822,15.610125 C0.31750822,15.610125 0.20250822,15.544125 0.13550822,15.439125 C0.0705082196,15.332125 0.0645082196,15.200125 0.12050822,15.088125 L0.12050822,15.088125 Z M5.44250822,6.054125 L1.02450822,14.889125 L9.86050822,14.889125 L5.44250822,6.054125 Z M5.44250822,12.521925 C5.79150822,12.521925 6.07450822,12.804925 6.07450822,13.153925 C6.07450822,13.501925 5.79150822,13.785925 5.44250822,13.785925 C5.09450822,13.785925 4.81150822,13.501925 4.81150822,13.153925 C4.81150822,12.804925 5.09450822,12.521925 5.44250822,12.521925 Z M9.83293044,0.391958333 L9.90970822,0.408625 L15.6727082,2.351625 C15.6757082,2.352625 15.6767082,2.355625 15.6797082,2.356625 C15.7417082,2.379625 15.7907082,2.417625 15.8317082,2.466625 C15.8397082,2.476625 15.8457082,2.486625 15.8537082,2.497625 C15.8847082,2.546625 15.9067082,2.599625 15.9127082,2.661625 C15.9127082,2.666625 15.9167082,2.670625 15.9167082,2.676625 C15.9167082,2.678625 15.9157082,2.679625 15.9157082,2.681625 L15.9167082,2.68675 L15.9177082,2.692625 L15.9177082,9.015625 C15.9177082,9.123625 15.8690682,9.224585 15.7881722,9.292393 L15.7217082,9.336625 L10.1547082,12.195625 C10.1027082,12.222625 10.0467082,12.235625 9.99070822,12.235625 C9.92470822,12.235625 9.86070822,12.218625 9.80270822,12.182625 C9.71710822,12.130625 9.65774822,12.045345 9.63742822,11.949313 L9.62970822,11.875625 L9.62970822,5.399625 L4.42070822,3.233625 L4.42370822,3.868625 C4.42458322,4.04275 4.30219259,4.18854688 4.13826681,4.22294531 L4.06570822,4.230625 C3.89070822,4.230625 3.74556759,4.108125 3.71134689,3.94485547 L3.70370822,3.872625 L3.69770822,2.813625 C3.69770822,2.785625 3.70670822,2.761625 3.71270822,2.734625 C3.71070822,2.715625 3.69770822,2.700625 3.69870822,2.681625 C3.70287489,2.55579167 3.770236,2.44384722 3.87532859,2.38225 L3.94270822,2.351625 L9.67870822,0.408625 L9.75481933,0.391958333 L9.83293044,0.391958333 Z M6.04050822,8.462925 L5.86050822,11.728925 L5.02650822,11.728925 L4.84650822,8.462925 L6.04050822,8.462925 Z" id="Icon-Color"></path>
        </g>
    </g>
</svg>