<?xml version="1.0" encoding="UTF-8"?>
<svg width="16px" height="16px" viewBox="0 0 16 16" version="1.1" xmlns="http://www.w3.org/2000/svg" xmlns:xlink="http://www.w3.org/1999/xlink">
    
    <title>Icon/pause-circle</title>
    <desc>Created with sketchtool.</desc>
    <g id="Icons" stroke="none" stroke-width="1" fill="none" fill-rule="evenodd">
        <g id="Icon/pause-circle" fill="#22275D">
            <path d="M7.99947233,15.2391505 C4.00817888,15.2391505 0.760899677,11.9920855 0.760899677,8 C0.760899677,4.00685925 4.00817888,0.759794222 7.99947233,0.759794222 C11.9918211,0.759794222 15.2391003,4.00685925 15.2391003,8 C15.2391003,11.9920855 11.9918211,15.2391505 7.99947233,15.2391505 M7.99947233,0 C3.58815382,0 0,3.58897243 0,8 C0,12.4099723 3.58815382,16 7.99947233,16 C12.4107908,16 16,12.4099723 16,8 C16,3.58897243 12.4107908,0 7.99947233,0 M4.43717433,12.2205514 L7.40584394,12.2205514 L7.40584394,3.77839335 L4.43717433,3.77839335 L4.43717433,12.2205514 Z M8.61526285,12.2205514 L11.560715,12.2205514 L11.560715,3.77839335 L8.61526285,3.77839335 L8.61526285,12.2205514 Z" id="pause-circle"></path>
        </g>
    </g>
</svg>