<?xml version="1.0" encoding="UTF-8"?>
<svg width="16px" height="16px" viewBox="0 0 16 16" version="1.1" xmlns="http://www.w3.org/2000/svg" xmlns:xlink="http://www.w3.org/1999/xlink">
    
    <title>Icon/phone</title>
    <desc>Created with sketchtool.</desc>
    <g id="Icons" stroke="none" stroke-width="1" fill="none" fill-rule="evenodd">
        <g id="Icon/phone" fill="#00205B">
            <path d="M11.5166,14.5088 C11.5166,14.8728 11.2296,15.1688 10.8766,15.1688 L4.3606,15.1688 C4.0076,15.1688 3.7206,14.8728 3.7206,14.5088 L3.7206,1.5368 C3.7206,1.1738 4.0076,0.8778 4.3606,0.8778 L10.8766,0.8778 C11.2296,0.8778 11.5166,1.1738 11.5166,1.5368 L11.5166,14.5088 Z M10.8766,0.1578 L4.3606,0.1578 C3.6106,0.1578 2.9996,0.7768 2.9996,1.5368 L2.9996,14.5088 C2.9996,15.2698 3.6106,15.8878 4.3606,15.8878 L10.8766,15.8878 C11.6266,15.8878 12.2376,15.2698 12.2376,14.5088 L12.2376,1.5368 C12.2376,0.7768 11.6266,0.1578 10.8766,0.1578 L10.8766,0.1578 Z M9.5967,2.2222 L6.6407,2.2222 C6.4417,2.2222 6.2807,2.3832 6.2807,2.5822 C6.2807,2.7812 6.4417,2.9422 6.6407,2.9422 L9.2367,2.9422 L9.2367,9.4532 C9.2367,9.6522 9.3977,9.8132 9.5967,9.8132 C9.7957,9.8132 9.9567,9.6522 9.9567,9.4532 L9.9567,2.5822 C9.9567,2.3832 9.7957,2.2222 9.5967,2.2222 M7.6182,13.0249 C7.3522,13.0249 7.1372,13.2469 7.1372,13.5169 C7.1372,13.7889 7.3522,14.0099 7.6182,14.0099 C7.8862,14.0099 8.1002,13.7889 8.1002,13.5169 C8.1002,13.2469 7.8862,13.0249 7.6182,13.0249" id="Icon-Color"></path>
        </g>
    </g>
</svg>