<?xml version="1.0" encoding="UTF-8" standalone="no"?>
<svg width="256px" height="256px" viewBox="0 0 256 256" version="1.1" xmlns="http://www.w3.org/2000/svg" xmlns:xlink="http://www.w3.org/1999/xlink">
    <!-- Generator: sketchtool 41 (35326) - http://www.bohemiancoding.com/sketch -->
    <title>phone</title>
    <desc>Created with sketchtool.</desc>
    <defs></defs>
    <g id="Page-1" stroke="none" stroke-width="1" fill="none" fill-rule="evenodd">
        <g id="phone" fill="#000000">
            <path d="M191.406533,210.685632 L164.184894,156.940344 C164.029784,156.940344 161.392956,158.258758 156.274332,160.895625 C151.155708,163.532492 148.441326,164.92846 148.131107,165.08357 C143.788031,167.099997 138.669484,165.006046 132.77531,158.801653 C126.881137,152.59726 121.723812,145.074546 117.303182,136.233285 C112.882552,127.392025 109.896732,118.706005 108.345634,110.174964 C106.794536,101.643923 108.112949,96.2151606 112.300915,93.8885131 L128.587366,85.7452877 L101.365726,32 L93.3388328,36.0716127 C87.9875436,38.7860347 85.2343854,40.1432254 85.0792756,40.1432254 C82.2872986,41.6943237 78.7973798,44.0597132 74.6094143,47.2394647 C70.4214489,50.4192162 67.5131832,55.8867558 65.88453,63.6422473 C64.2558767,71.3977389 64.8763068,82.1389336 67.7458386,95.8661536 C70.6153705,109.593374 77.7115388,127.702175 89.0345565,150.1931 C100.357574,172.839136 110.672223,189.435639 119.978813,199.983107 C129.285403,210.530576 137.506101,217.43286 144.641153,220.690166 C151.776205,223.947472 157.864175,224.800564 162.905244,223.249465 C167.946314,221.698367 171.940332,220.224846 174.887419,218.828857 C175.507858,218.673748 178.416124,217.27778 183.612303,214.640913 L191.406533,210.685632 Z"></path>
        </g>
    </g>
</svg>