<?xml version="1.0" encoding="UTF-8" standalone="no"?>
<svg width="256px" height="256px" viewBox="0 0 256 256" version="1.1" xmlns="http://www.w3.org/2000/svg" xmlns:xlink="http://www.w3.org/1999/xlink">
    <!-- Generator: sketchtool 41 (35326) - http://www.bohemiancoding.com/sketch -->
    <title>phone</title>
    <desc>Created with sketchtool.</desc>
    <defs></defs>
    <g id="Page-1" stroke="none" stroke-width="1" fill="none" fill-rule="evenodd">
        <g id="phone" fill="#000000">
            <path d="M212.542044,238.247509 L176.246525,166.587126 C176.039712,166.587126 172.523942,168.345011 165.699109,171.860833 C158.874277,175.376656 155.255102,177.237946 154.841476,177.444759 C149.050708,180.13333 142.225978,177.341395 134.36708,169.06887 C126.508182,160.796346 119.631749,150.766061 113.737576,138.977714 C107.843402,127.189367 103.86231,115.608006 101.794179,104.233285 C99.7260475,92.8585643 101.483933,85.6202141 107.067886,82.5180175 L128.783154,71.6603836 L92.4876352,0 L81.7851104,5.42881694 C74.6500581,9.04804633 70.9791805,10.8576339 70.7723674,10.8576339 C67.0497315,12.925765 62.3965064,16.0796176 56.8125524,20.3192863 C51.2285985,24.558955 47.3509109,31.8490077 45.1793733,42.1896631 C43.0078356,52.5303185 43.8350757,66.8519114 47.6611182,85.1548715 C51.4871607,103.457832 60.9487184,127.6029 76.0460753,157.5908 C91.1434322,187.785514 104.896298,209.914185 117.305084,223.977476 C129.713871,238.040767 140.674801,247.243813 150.188204,251.586888 C159.701607,255.929963 167.8189,257.067418 174.540326,254.999287 C181.261752,252.931156 186.587109,250.966461 190.516558,249.105143 C191.343811,248.89833 195.221498,247.03704 202.149737,243.521217 L212.542044,238.247509 Z"></path>
        </g>
    </g>
</svg>