<?xml version="1.0" encoding="UTF-8"?>
<svg width="256px" height="256px" viewBox="0 0 256 256" version="1.1" xmlns="http://www.w3.org/2000/svg" xmlns:xlink="http://www.w3.org/1999/xlink">
    
    <title>phone</title>
    <desc>Created with sketchtool.</desc>
    <defs></defs>
    <g id="Page-1" stroke="none" stroke-width="1" fill="none" fill-rule="evenodd">
        <g id="phone" fill="#000000" fill-rule="nonzero">
            <path d="M201.474289,224.466571 L169.71571,161.763735 C169.534748,161.763735 166.458449,163.301884 160.486721,166.378229 C154.514992,169.454574 151.348214,171.083203 150.986291,171.264165 C145.91937,173.616664 139.947731,171.17372 133.071195,163.935262 C126.194659,156.696803 120.177781,147.920303 115.020379,137.6055 C109.862977,127.290696 106.379521,117.157005 104.569906,107.204125 C102.760292,97.2512438 104.298441,90.9176874 109.184401,88.2032653 L128.18526,78.7028357 L96.4266808,16 L87.0619716,20.7502148 C80.8188009,23.9170405 77.606783,25.5004296 77.4258215,25.5004296 C74.1685151,27.3100443 70.0969431,30.0696654 65.2109834,33.7793755 C60.3250237,37.4890856 56.932047,43.8678817 55.0319516,52.9159552 C53.1318562,61.9640287 53.8556912,74.4954225 57.2034784,90.5105125 C60.5512656,106.525603 68.8301286,127.652537 82.0403159,153.89195 C95.2505032,180.312325 107.28426,199.674912 118.141949,211.980292 C128.999637,224.285672 138.590451,232.338336 146.914678,236.138527 C155.238906,239.938718 162.341537,240.933991 168.222785,239.124376 C174.104033,237.314762 178.763721,235.595653 182.201988,233.967 C182.925834,233.786039 186.318811,232.15741 192.38102,229.081065 L201.474289,224.466571 Z"></path>
        </g>
    </g>
</svg>