<?xml version="1.0" encoding="UTF-8"?>
<svg width="16px" height="16px" viewBox="0 0 16 16" version="1.1" xmlns="http://www.w3.org/2000/svg" xmlns:xlink="http://www.w3.org/1999/xlink">
    
    <title>Icon/pickup-complete</title>
    <desc>Created with sketchtool.</desc>
    <g id="Icons" stroke="none" stroke-width="1" fill="none" fill-rule="evenodd">
        <g id="Icon/pickup-complete" fill="#00205B">
            <path d="M12.4561,10.10325 C13.4791,10.10325 14.3121,10.93625 14.3121,11.95925 C14.3121,12.98325 13.4791,13.81625 12.4561,13.81625 C11.4331,13.81625 10.6001,12.98325 10.6001,11.95925 C10.6001,10.93625 11.4331,10.10325 12.4561,10.10325 Z M4.8304,10.10355 C5.8534,10.10355 6.6864,10.93655 6.6864,11.95955 C6.6864,12.98255 5.8534,13.81555 4.8304,13.81555 C3.8064,13.81555 2.9734,12.98255 2.9734,11.95955 C2.9734,10.93655 3.8064,10.10355 4.8304,10.10355 Z M12.4561,10.82425 C11.8301,10.82425 11.3201,11.33325 11.3201,11.95925 C11.3201,12.58525 11.8301,13.09525 12.4561,13.09525 C13.0821,13.09525 13.5921,12.58525 13.5921,11.95925 C13.5921,11.33325 13.0821,10.82425 12.4561,10.82425 Z M4.8304,10.82355 C4.2044,10.82355 3.6944,11.33355 3.6944,11.95955 C3.6944,12.58555 4.2044,13.09555 4.8304,13.09555 C5.4564,13.09555 5.9654,12.58555 5.9654,11.95955 C5.9654,11.33355 5.4564,10.82355 4.8304,10.82355 Z M12.2685,6.01755 C12.3405,6.01755 12.41025,6.038925 12.4688906,6.07787812 L12.5235,6.12255 L15.4415,9.04055 C15.49175,9.0908 15.5256875,9.1551125 15.5395156,9.22462812 L15.5465,9.29555 L15.5465,11.74255 C15.5465,11.916675 15.4232344,12.0624719 15.2591035,12.0962004 L15.1865,12.10355 L14.7805,12.10355 C14.5815,12.10355 14.4205,11.94155 14.4205,11.74255 C14.4205,11.568425 14.5437656,11.4233937 14.7078965,11.3898566 L14.7805,11.38255 L14.8265,11.38255 L14.8265,9.44455 L12.1195,6.73755 L10.9755,6.73755 L10.9755,9.95555 C10.9755,10.15455 10.8145,10.31555 10.6155,10.31555 C10.441375,10.31555 10.2955781,10.1922844 10.2618496,10.0281535 L10.2545,9.95555 L10.2545,9.14455 L1.1735,9.14455 L1.1735,11.38255 L2.3135,11.38255 C2.5125,11.38255 2.6735,11.54355 2.6735,11.74255 C2.6735,11.916675 2.55023437,12.0624719 2.38610352,12.0962004 L2.3135,12.10355 L0.8135,12.10355 C0.639375,12.10355 0.49434375,11.9795187 0.460806641,11.8151965 L0.4535,11.74255 L0.4535,8.78355 C0.4535,8.609425 0.576765625,8.46439375 0.740896484,8.43085664 L0.8135,8.42355 L10.2545,8.42355 L10.2545,6.37755 C10.2545,6.203425 10.3785312,6.05839375 10.5428535,6.02485664 L10.6155,6.01755 L12.2685,6.01755 Z M5.566,2.18375 C7.682,2.18375 9.404,3.90575 9.404,6.02175 C9.404,6.61575 9.272,7.18575 9.011,7.71775 C8.948,7.84475 8.82,7.91875 8.688,7.91875 C8.634,7.91875 8.58,7.90675 8.528,7.88175 C8.351,7.79375 8.276,7.57775 8.364,7.39875 C8.576,6.96875 8.684,6.50475 8.684,6.02175 C8.684,4.30375 7.285,2.90475 5.566,2.90475 C3.847,2.90475 2.448,4.30375 2.448,6.02175 C2.448,6.47075 2.541,6.90175 2.725,7.30675 C2.807,7.48775 2.727,7.70175 2.545,7.78375 C2.366,7.86475 2.151,7.78575 2.068,7.60375 C1.843,7.10475 1.728,6.57275 1.728,6.02175 C1.728,3.90575 3.449,2.18375 5.566,2.18375 Z M8.0149,4.34735 C8.13404286,4.46820714 8.14959388,4.65371735 8.0621828,4.79178732 L8.0099,4.85635 L5.1079,7.70235 C5.0369,7.77235 4.9459,7.80635 4.8559,7.80635 C4.78615,7.80635 4.7164,7.7861 4.65635312,7.7456 L4.5999,7.69835 L3.3389,6.42035 C3.1989,6.27935 3.1999,6.05035 3.3419,5.91135 C3.46447143,5.79220714 3.64875714,5.77665612 3.78644227,5.86280773 L3.8509,5.91435 L4.8599,6.93735 L7.5059,4.34235 C7.6489,4.20035 7.8759,4.20435 8.0149,4.34735 Z" id="Icon-Color"></path>
        </g>
    </g>
</svg>