<?xml version="1.0" encoding="UTF-8" standalone="no"?>
<svg width="256px" height="256px" viewBox="0 0 256 256" version="1.1" xmlns="http://www.w3.org/2000/svg" xmlns:xlink="http://www.w3.org/1999/xlink">
    <!-- Generator: sketchtool 41 (35326) - http://www.bohemiancoding.com/sketch -->
    <title>pin-map</title>
    <desc>Created with sketchtool.</desc>
    <defs></defs>
    <g id="Page-1" stroke="none" stroke-width="1" fill="none" fill-rule="evenodd">
        <g id="pin-map" fill="#000000">
            <path d="M180.194175,84.1941748 C180.194175,77.048508 178.834965,70.291294 176.116505,63.9223301 C173.398045,57.5533662 169.669927,52.0000237 164.932039,47.2621359 C160.194151,42.5242482 154.640809,38.7961301 148.271845,36.0776699 C141.902881,33.3592097 135.145667,32 128,32 C120.854333,32 114.097119,33.3592097 107.728155,36.0776699 C101.359191,38.7961301 95.8058489,42.5242482 91.0679612,47.2621359 C86.3300734,52.0000237 82.6019553,57.5533662 79.8834951,63.9223301 C77.165035,70.291294 75.8058252,77.048508 75.8058252,84.1941748 C75.8058252,91.3398416 77.165035,98.8737468 79.8834951,106.796117 C82.6019553,114.718486 86.2912388,123.26209 90.9514563,132.427184 C95.6116738,141.592279 101.126182,151.456258 107.495146,162.019417 C113.86411,172.582577 120.698993,184.155277 128,196.737864 C135.301007,184.155277 142.13589,172.582577 148.504854,162.019417 C154.873818,151.456258 160.388326,141.592279 165.048544,132.427184 C169.708761,123.26209 173.398045,114.718486 176.116505,106.796117 C178.834965,98.8737468 180.194175,91.3398416 180.194175,84.1941748 Z M109.359223,83.0291262 C109.359223,77.7475464 111.184448,73.2815717 114.834951,69.631068 C118.485455,65.9805643 122.873761,64.1553398 128,64.1553398 C133.126239,64.1553398 137.514545,65.9805643 141.165049,69.631068 C144.815552,73.2815717 146.640777,77.7475464 146.640777,83.0291262 C146.640777,88.1553654 144.815552,92.5436711 141.165049,96.1941748 C137.514545,99.8446784 133.126239,101.669903 128,101.669903 C122.873761,101.669903 118.485455,99.8446784 114.834951,96.1941748 C111.184448,92.5436711 109.359223,88.1553654 109.359223,83.0291262 Z M192.543689,161.320388 L165.048544,161.320388 C163.805819,163.650497 162.485444,165.980571 161.087379,168.31068 L156.893204,175.300971 L183.92233,175.300971 L190.213592,187.650485 L149.669903,187.650485 C148.8932,188.89321 148.155343,190.097082 147.456311,191.262136 C146.757278,192.42719 146.09709,193.553393 145.475728,194.640777 L162.951456,194.640777 L169.242718,210.019417 L91.8834951,210.019417 L98.407767,194.640777 L110.524272,194.640777 C109.90291,193.553393 109.242722,192.42719 108.543689,191.262136 C107.844657,190.097082 107.1068,188.89321 106.330097,187.650485 L81.3980583,187.650485 L76.5048544,175.300971 L99.1067961,175.300971 L94.9126214,168.31068 C93.5145561,165.980571 92.194181,163.650497 90.9514563,161.320388 L63.4563107,161.320388 L32,224 L224,224 L192.543689,161.320388 Z M84.1941748,210.019417 L54.6019417,210.019417 L70.2135922,178.796117 L76.7378641,194.640777 L90.9514563,194.640777 L84.1941748,210.019417 Z M170.407767,194.640777 L193.708738,194.640777 L201.398058,210.019417 L176.699029,210.019417 L170.407767,194.640777 Z"></path>
        </g>
    </g>
</svg>