<?xml version="1.0" encoding="UTF-8" standalone="no"?>
<svg width="256px" height="256px" viewBox="0 0 256 256" version="1.1" xmlns="http://www.w3.org/2000/svg" xmlns:xlink="http://www.w3.org/1999/xlink">
    <!-- Generator: sketchtool 41 (35326) - http://www.bohemiancoding.com/sketch -->
    <title>pin-map</title>
    <desc>Created with sketchtool.</desc>
    <defs></defs>
    <g id="Page-1" stroke="none" stroke-width="1" fill="none" fill-rule="evenodd">
        <g id="pin-map" fill="#000000">
            <path d="M197.592233,69.592233 C197.592233,60.0646773 195.779953,51.0550586 192.15534,42.5631068 C188.530726,34.071155 183.559902,26.6666983 177.242718,20.3495146 C170.925535,14.0323309 163.521078,9.0615068 155.029126,5.4368932 C146.537174,1.81227961 137.527556,0 128,0 C118.472444,0 109.462826,1.81227961 100.970874,5.4368932 C92.4789219,9.0615068 85.0744652,14.0323309 78.7572816,20.3495146 C72.4400979,26.6666983 67.4692738,34.071155 63.8446602,42.5631068 C60.2200466,51.0550586 58.407767,60.0646773 58.407767,69.592233 C58.407767,79.1197887 60.2200466,89.1649957 63.8446602,99.7281553 C67.4692738,110.291315 72.3883184,121.682787 78.6019417,133.902913 C84.815565,146.123038 92.1682423,159.27501 100.660194,173.359223 C109.152146,187.443436 118.265323,202.873703 128,219.650485 C137.734677,202.873703 146.847854,187.443436 155.339806,173.359223 C163.831758,159.27501 171.184435,146.123038 177.398058,133.902913 C183.611682,121.682787 188.530726,110.291315 192.15534,99.7281553 C195.779953,89.1649957 197.592233,79.1197887 197.592233,69.592233 Z M103.145631,68.038835 C103.145631,60.9967285 105.579264,55.0420955 110.446602,50.1747573 C115.31394,45.307419 121.165014,42.8737864 128,42.8737864 C134.834986,42.8737864 140.68606,45.307419 145.553398,50.1747573 C150.420736,55.0420955 152.854369,60.9967285 152.854369,68.038835 C152.854369,74.8738206 150.420736,80.7248948 145.553398,85.592233 C140.68606,90.4595713 134.834986,92.8932039 128,92.8932039 C121.165014,92.8932039 115.31394,90.4595713 110.446602,85.592233 C105.579264,80.7248948 103.145631,74.8738206 103.145631,68.038835 Z M214.058252,172.427184 L177.398058,172.427184 C175.741092,175.533996 173.980592,178.640761 172.116505,181.747573 L166.524272,191.067961 L202.563107,191.067961 L210.951456,207.533981 L156.893204,207.533981 C155.8576,209.190947 154.873791,210.796109 153.941748,212.349515 C153.009704,213.90292 152.129454,215.404523 151.300971,216.854369 L174.601942,216.854369 L182.990291,237.359223 L79.8446602,237.359223 L88.5436893,216.854369 L104.699029,216.854369 C103.870546,215.404523 102.990296,213.90292 102.058252,212.349515 C101.126209,210.796109 100.1424,209.190947 99.1067961,207.533981 L65.8640777,207.533981 L59.3398058,191.067961 L89.4757282,191.067961 L83.8834951,181.747573 C82.0194082,178.640761 80.258908,175.533996 78.6019417,172.427184 L41.9417476,172.427184 L0,256 L256,256 L214.058252,172.427184 Z M69.592233,237.359223 L30.1359223,237.359223 L50.9514563,195.728155 L59.6504854,216.854369 L78.6019417,216.854369 L69.592233,237.359223 Z M184.543689,216.854369 L215.61165,216.854369 L225.864078,237.359223 L192.932039,237.359223 L184.543689,216.854369 Z"></path>
        </g>
    </g>
</svg>