<?xml version="1.0" encoding="UTF-8"?>
<svg width="256px" height="256px" viewBox="0 0 256 256" version="1.1" xmlns="http://www.w3.org/2000/svg" xmlns:xlink="http://www.w3.org/1999/xlink">
    
    <title>pin-map</title>
    <desc>Created with sketchtool.</desc>
    <defs></defs>
    <g id="Page-1" stroke="none" stroke-width="1" fill="none" fill-rule="evenodd">
        <g id="pin-map" fill="#000000" fill-rule="nonzero">
            <path d="M188.893204,76.8932039 C188.893204,68.5565926 187.307459,60.6731763 184.135922,53.2427184 C180.964385,45.8122606 176.614914,39.333361 171.087379,33.8058252 C165.559843,28.2782895 159.080943,23.9288184 151.650485,20.7572816 C144.220028,17.5857447 136.336611,16 128,16 C119.663389,16 111.779972,17.5857447 104.349515,20.7572816 C96.9190567,23.9288184 90.4401571,28.2782895 84.9126214,33.8058252 C79.3850856,39.333361 75.0356146,45.8122606 71.8640777,53.2427184 C68.6925408,60.6731763 67.1067961,68.5565926 67.1067961,76.8932039 C67.1067961,85.2298151 68.6925408,94.0193713 71.8640777,103.262136 C75.0356146,112.504901 79.3397786,122.472438 84.776699,133.165049 C90.2136194,143.857659 96.647212,155.365634 104.07767,167.68932 C111.508128,180.013007 119.482158,193.51449 128,208.194175 C136.517842,193.51449 144.491872,180.013007 151.92233,167.68932 C159.352788,155.365634 165.786381,143.857659 171.223301,133.165049 C176.660221,122.472438 180.964385,112.504901 184.135922,103.262136 C187.307459,94.0193713 188.893204,85.2298151 188.893204,76.8932039 Z M106.252427,75.5339806 C106.252427,69.3721375 108.381856,64.1618336 112.640777,59.9029126 C116.899698,55.6439917 122.019388,53.5145631 128,53.5145631 C133.980612,53.5145631 139.100302,55.6439917 143.359223,59.9029126 C147.618144,64.1618336 149.747573,69.3721375 149.747573,75.5339806 C149.747573,81.514593 147.618144,86.6342829 143.359223,90.8932039 C139.100302,95.1521249 133.980612,97.2815534 128,97.2815534 C122.019388,97.2815534 116.899698,95.1521249 112.640777,90.8932039 C108.381856,86.6342829 106.252427,81.514593 106.252427,75.5339806 Z M203.300971,166.873786 L171.223301,166.873786 C169.773456,169.592247 168.233018,172.310666 166.601942,175.029126 L161.708738,183.184466 L193.242718,183.184466 L200.582524,197.592233 L153.281553,197.592233 C152.3754,199.042078 151.514567,200.446595 150.699029,201.805825 C149.883491,203.165055 149.113272,204.478958 148.38835,205.747573 L168.776699,205.747573 L176.116505,223.68932 L85.8640777,223.68932 L93.4757282,205.747573 L107.61165,205.747573 C106.886728,204.478958 106.116509,203.165055 105.300971,201.805825 C104.485433,200.446595 103.6246,199.042078 102.718447,197.592233 L73.631068,197.592233 L67.9223301,183.184466 L94.2912621,183.184466 L89.3980583,175.029126 C87.7669821,172.310666 86.2265445,169.592247 84.776699,166.873786 L52.6990291,166.873786 L16,240 L240,240 L203.300971,166.873786 Z M76.8932039,223.68932 L42.368932,223.68932 L60.5825243,187.262136 L68.1941748,205.747573 L84.776699,205.747573 L76.8932039,223.68932 Z M177.475728,205.747573 L204.660194,205.747573 L213.631068,223.68932 L184.815534,223.68932 L177.475728,205.747573 Z"></path>
        </g>
    </g>
</svg>