<?xml version="1.0" encoding="UTF-8"?>
<svg width="256px" height="256px" viewBox="0 0 256 256" version="1.1" xmlns="http://www.w3.org/2000/svg" xmlns:xlink="http://www.w3.org/1999/xlink">
    
    <title>pin</title>
    <desc>Created with sketchtool.</desc>
    <defs></defs>
    <g id="Page-1" stroke="none" stroke-width="1" fill="none" fill-rule="evenodd">
        <g id="pin" fill="#000000" fill-rule="nonzero">
            <path d="M127.951456,16 C118.165,16 108.967681,17.8575866 100.359223,21.5728155 C91.750766,25.2880445 84.2298056,30.3624274 77.7961165,36.7961165 C71.3624274,43.2298056 66.2880445,50.750766 62.5728155,59.3592233 C58.8575866,67.9676806 57,77.1649996 57,86.9514563 C57,96.737913 58.8122796,107.0226 62.4368932,117.805825 C66.0615068,128.589051 71.0905827,140.18764 77.5242718,152.601942 C83.957961,165.016243 91.4789214,178.427112 100.087379,192.834951 C108.695836,207.24279 117.983769,222.964316 127.951456,240 C137.919144,222.964316 147.207077,207.24279 155.815534,192.834951 C164.423991,178.427112 171.944952,165.016243 178.378641,152.601942 C184.81233,140.18764 189.841406,128.589051 193.466019,117.805825 C197.090633,107.0226 198.902913,96.737913 198.902913,86.9514563 C198.902913,77.1649996 197.045326,67.9676806 193.330097,59.3592233 C189.614868,50.750766 184.540485,43.2298056 178.106796,36.7961165 C171.673107,30.3624274 164.152147,25.2880445 155.543689,21.5728155 C146.935232,17.8575866 137.737913,16 127.951456,16 Z M127.951456,110.601942 C120.88346,110.601942 114.85763,108.110057 109.873786,103.126214 C104.889943,98.1423699 102.398058,92.2071542 102.398058,85.3203883 C102.398058,78.2523918 104.889943,72.2265621 109.873786,67.2427184 C114.85763,62.2588748 120.88346,59.7669903 127.951456,59.7669903 C135.019453,59.7669903 141.045283,62.2588748 146.029126,67.2427184 C151.01297,72.2265621 153.504854,78.2523918 153.504854,85.3203883 C153.504854,92.2071542 151.01297,98.1423699 146.029126,103.126214 C141.045283,108.110057 135.019453,110.601942 127.951456,110.601942 Z"></path>
        </g>
    </g>
</svg>