<?xml version="1.0" encoding="UTF-8" standalone="no"?>
<svg width="256px" height="256px" viewBox="0 0 256 256" version="1.1" xmlns="http://www.w3.org/2000/svg" xmlns:xlink="http://www.w3.org/1999/xlink">
    <!-- Generator: sketchtool 41 (35326) - http://www.bohemiancoding.com/sketch -->
    <title>pin</title>
    <desc>Created with sketchtool.</desc>
    <defs></defs>
    <g id="Page-1" stroke="none" stroke-width="1" fill="none" fill-rule="evenodd">
        <g id="pin" fill="#000000">
            <path d="M127.815534,32 C119.427143,32 111.543726,33.5922171 104.165049,36.776699 C96.7863709,39.961181 90.3398334,44.310652 84.8252427,49.8252427 C79.310652,55.3398334 74.961181,61.7863709 71.776699,69.1650485 C68.5922171,76.5437262 67,84.4271425 67,92.815534 C67,101.203925 68.5533825,110.019371 71.6601942,119.262136 C74.7670058,128.504901 79.0776423,138.446549 84.592233,149.087379 C90.1068237,159.728209 96.5533612,171.223239 103.932039,183.572816 C111.310717,195.922392 119.271802,209.397985 127.815534,224 C136.359266,209.397985 144.320351,195.922392 151.699029,183.572816 C159.077707,171.223239 165.524244,159.728209 171.038835,149.087379 C176.553426,138.446549 180.864062,128.504901 183.970874,119.262136 C187.077685,110.019371 188.631068,101.203925 188.631068,92.815534 C188.631068,84.4271425 187.038851,76.5437262 183.854369,69.1650485 C180.669887,61.7863709 176.320416,55.3398334 170.805825,49.8252427 C165.291235,44.310652 158.844697,39.961181 151.466019,36.776699 C144.087342,33.5922171 136.203925,32 127.815534,32 Z M127.815534,113.087379 C121.757251,113.087379 116.592254,110.951478 112.320388,106.679612 C108.048522,102.407746 105.912621,97.3204179 105.912621,91.4174757 C105.912621,85.359193 108.048522,80.1941961 112.320388,75.9223301 C116.592254,71.6504641 121.757251,69.5145631 127.815534,69.5145631 C133.873817,69.5145631 139.038814,71.6504641 143.31068,75.9223301 C147.582546,80.1941961 149.718447,85.359193 149.718447,91.4174757 C149.718447,97.3204179 147.582546,102.407746 143.31068,106.679612 C139.038814,110.951478 133.873817,113.087379 127.815534,113.087379 Z"></path>
        </g>
    </g>
</svg>