<?xml version="1.0" encoding="UTF-8"?>
<svg width="256px" height="256px" viewBox="0 0 256 256" version="1.1" xmlns="http://www.w3.org/2000/svg" xmlns:xlink="http://www.w3.org/1999/xlink">
    <!-- Generator: sketchtool 42 (36781) - http://www.bohemiancoding.com/sketch -->
    <title>pin</title>
    <desc>Created with sketchtool.</desc>
    <defs></defs>
    <g id="Page-1" stroke="none" stroke-width="1" fill="none" fill-rule="evenodd">
        <g id="pin" fill="#000000" fill-rule="nonzero">
            <path d="M128.087379,0 C116.902857,0 106.391635,2.12295612 96.5533981,6.36893204 C86.7151612,10.614908 78.1197779,16.4142027 70.7669903,23.7669903 C63.4142027,31.1197779 57.614908,39.7151612 53.368932,49.5533981 C49.1229561,59.391635 47,69.9028567 47,81.0873786 C47,92.2719006 49.0711767,104.025828 53.2135922,116.349515 C57.3560078,128.673201 63.1035231,141.928732 70.4563107,156.116505 C77.8090983,170.304278 86.4044816,185.630986 96.2427184,202.097087 C106.080955,218.563189 116.695736,236.530647 128.087379,256 C139.479021,236.530647 150.093802,218.563189 159.932039,202.097087 C169.770276,185.630986 178.365659,170.304278 185.718447,156.116505 C193.071234,141.928732 198.81875,128.673201 202.961165,116.349515 C207.103581,104.025828 209.174757,92.2719006 209.174757,81.0873786 C209.174757,69.9028567 207.051801,59.391635 202.805825,49.5533981 C198.559849,39.7151612 192.760555,31.1197779 185.407767,23.7669903 C178.054979,16.4142027 169.459596,10.614908 159.621359,6.36893204 C149.783122,2.12295612 139.271901,0 128.087379,0 Z M128.087379,108.116505 C120.009668,108.116505 113.123006,105.268637 107.427184,99.5728155 C101.731363,93.8769942 98.8834951,87.0938905 98.8834951,79.223301 C98.8834951,71.1455907 101.731363,64.2589282 107.427184,58.5631068 C113.123006,52.8672854 120.009668,50.0194175 128.087379,50.0194175 C136.165089,50.0194175 143.051751,52.8672854 148.747573,58.5631068 C154.443394,64.2589282 157.291262,71.1455907 157.291262,79.223301 C157.291262,87.0938905 154.443394,93.8769942 148.747573,99.5728155 C143.051751,105.268637 136.165089,108.116505 128.087379,108.116505 Z"></path>
        </g>
    </g>
</svg>