<?xml version="1.0" encoding="UTF-8"?>
<svg width="16px" height="16px" viewBox="0 0 16 16" version="1.1" xmlns="http://www.w3.org/2000/svg" xmlns:xlink="http://www.w3.org/1999/xlink">
    
    <title>Icon/pinterest</title>
    <desc>Created with sketchtool.</desc>
    <g id="Icons" stroke="none" stroke-width="1" fill="none" fill-rule="evenodd">
        <g id="Icon/pinterest" fill="#00205B">
            <path d="M8,5.32907052e-15 C3.582,5.32907052e-15 0,3.58135714 0,8 C0,11.3892857 2.10864286,14.284 5.08464286,15.4492857 C5.01464286,14.8166429 4.95135714,13.846 5.11264286,13.1553571 C5.258,12.5306429 6.05064286,9.17864286 6.05064286,9.17864286 C6.05064286,9.17864286 5.81135714,8.69935714 5.81135714,7.99064286 C5.81135714,6.87864286 6.456,6.048 7.25864286,6.048 C7.94064286,6.048 8.27064286,6.56064286 8.27064286,7.17464286 C8.27064286,7.86064286 7.834,8.88664286 7.608,9.838 C7.41935714,10.634 8.00728571,11.284 8.79264286,11.284 C10.2146429,11.284 11.3073571,9.78471429 11.3073571,7.62064286 C11.3073571,5.70535714 9.93135714,4.366 7.966,4.366 C5.69,4.366 4.354,6.07335714 4.354,7.83735714 C4.354,8.52464286 4.61864286,9.26264286 4.94935714,9.66264286 C5.01464286,9.742 5.024,9.812 5.00464286,9.89264286 L4.78264286,10.7993571 C4.74735714,10.946 4.66664286,10.9773571 4.51464286,10.9066429 C3.51535714,10.4413571 2.89064286,8.98064286 2.89064286,7.80735714 C2.89064286,5.284 4.724,2.966 8.17664286,2.966 C10.952,2.966 13.1086429,4.944 13.1086429,7.58671429 C13.1086429,10.344 11.3706429,12.5626429 8.95735714,12.5626429 C8.14664286,12.5626429 7.38464286,12.142 7.124,11.644 L6.62535714,13.546 C6.44464286,14.2413571 5.95735714,15.1126429 5.63064286,15.6433571 C6.39810849,15.8802362 7.1968095,16.0004591 8,16 C12.418,16 16,12.418 16,8 C16,3.58135714 12.418,5.32907052e-15 8,5.32907052e-15 Z" id="Path"></path>
        </g>
    </g>
</svg>