<?xml version="1.0" encoding="UTF-8"?>
<svg width="16px" height="16px" viewBox="0 0 16 16" version="1.1" xmlns="http://www.w3.org/2000/svg" xmlns:xlink="http://www.w3.org/1999/xlink">
    
    <title>Icon/pinterest</title>
    <desc>Created with sketchtool.</desc>
    <g id="Icons" stroke="none" stroke-width="1" fill="none" fill-rule="evenodd">
        <g id="Icon/pinterest" fill="#00205B">
            <path d="M14.3610957,4.44901519 C13.9245533,1.28702993 10.7767093,-0.322959812 7.41808679,0.0540191732 C4.76274968,0.352016785 2.11539811,2.50102727 2.00550668,5.57399812 C1.93856624,7.44997845 2.47004772,8.85697192 4.25325306,9.25299722 C5.02548353,7.88501746 4.00451854,7.5860001 3.84467646,6.59499932 C3.19032295,2.54500815 8.51197316,-0.220984694 11.2991866,2.60902221 C13.2292534,4.56901688 11.9575164,10.5949898 8.84864711,9.96800728 C5.87063538,9.37000545 10.3071732,4.57303009 7.93057388,3.63203002 C5.99850247,2.8660324 4.97254241,5.97203003 5.88861104,7.51603201 C5.35114862,10.1710364 4.19433101,12.6710058 4.66284838,16 C6.18131528,14.8960042 6.69380237,12.7850206 7.11338783,10.5820291 C7.87661404,11.0470356 8.2852235,11.5280292 9.25824244,11.6030303 C12.846638,11.8819816 14.8536025,8.016993 14.3610957,4.44901519 Z" id="Path"></path>
        </g>
    </g>
</svg>