<?xml version="1.0" encoding="UTF-8"?>
<svg width="256px" height="256px" viewBox="0 0 256 256" version="1.1" xmlns="http://www.w3.org/2000/svg" xmlns:xlink="http://www.w3.org/1999/xlink">
    
    <title>pinterest</title>
    <desc>Created with sketchtool.</desc>
    <defs></defs>
    <g id="Page-1" stroke="none" stroke-width="1" fill="none" fill-rule="evenodd">
        <g id="pinterest" fill="#000000" fill-rule="nonzero">
            <path d="M128,16 C66.148,16 16,66.1386667 16,128 C16,175.450667 45.5213333,215.976 87.1853333,232.290667 C86.2053333,223.433333 85.3186667,209.844 87.5773333,200.174667 C89.612,191.429333 100.709333,144.501333 100.709333,144.501333 C100.709333,144.501333 97.3586667,137.790667 97.3586667,127.869333 C97.3586667,112.301333 106.384,100.672 117.621333,100.672 C127.169333,100.672 131.789333,107.849333 131.789333,116.445333 C131.789333,126.049333 125.676,140.413333 122.512,153.732 C119.870667,164.876 128.102667,173.976 139.097333,173.976 C159.005333,173.976 174.302667,152.985333 174.302667,122.689333 C174.302667,95.8746667 155.038667,77.124 127.524,77.124 C95.66,77.124 76.956,101.026667 76.956,125.722667 C76.956,135.345333 80.6613333,145.677333 85.2906667,151.277333 C86.2053333,152.388 86.336,153.368 86.0653333,154.497333 L82.9573333,167.190667 C82.4626667,169.244 81.3333333,169.682667 79.2053333,168.693333 C65.2146667,162.178667 56.4693333,141.729333 56.4693333,125.302667 C56.4693333,89.976 82.136,57.524 130.473333,57.524 C169.328,57.524 199.521333,85.216 199.521333,122.213333 C199.521333,160.816 175.189333,191.877333 141.402667,191.877333 C130.053333,191.877333 119.385333,185.988 115.736,179.016 L108.754667,205.644 C106.225333,215.378667 99.4026667,227.577333 94.8293333,235.006667 C105.32,238.245333 116.454667,240 128,240 C189.852,240 240,189.852 240,128 C240,66.1386667 189.852,16 128,16 Z"></path>
        </g>
    </g>
</svg>