<?xml version="1.0" encoding="UTF-8"?>
<svg width="16px" height="16px" viewBox="0 0 16 16" version="1.1" xmlns="http://www.w3.org/2000/svg" xmlns:xlink="http://www.w3.org/1999/xlink">
    
    <title>Icon/play-circle</title>
    <desc>Created with sketchtool.</desc>
    <g id="Icons" stroke="none" stroke-width="1" fill="none" fill-rule="evenodd">
        <g id="Icon/play-circle" fill="#18225E">
            <path d="M7.99894473,15.2391505 C4.00791452,15.2391505 0.760849492,11.9920855 0.760849492,8 C0.760849492,4.00685925 4.00791452,0.759794222 7.99894473,0.759794222 C11.9910302,0.759794222 15.2391505,4.00685925 15.2391505,8 C15.2391505,11.9920855 11.9910302,15.2391505 7.99894473,15.2391505 M7.99894473,0 C3.58791716,0 0,3.58897243 0,8 C0,12.4099723 3.58791716,16 7.99894473,16 C12.4110276,16 16,12.4099723 16,8 C16,3.58897243 12.4110276,0 7.99894473,0 M5.67925076,3.92180451 C5.61593457,3.88487007 5.53573407,3.88487007 5.47347316,3.92074924 C5.4091017,3.95768368 5.36900145,4.02627622 5.36900145,4.1001451 L5.36900145,12.2383854 C5.36900145,12.3111991 5.4091017,12.3797916 5.47347316,12.416726 C5.50513125,12.4346656 5.53995515,12.444163 5.57477905,12.444163 C5.61171349,12.444163 5.64759267,12.4346656 5.67925076,12.4156708 L12.6376995,8.34655059 C12.6999604,8.30961615 12.7390054,8.24313415 12.7390054,8.16926527 C12.7390054,8.09645166 12.6999604,8.02891439 12.6376995,7.99092468 L5.67925076,3.92180451 Z" id="play-circle"></path>
        </g>
    </g>
</svg>