<?xml version="1.0" encoding="UTF-8"?>
<svg width="256px" height="256px" viewBox="0 0 256 256" version="1.1" xmlns="http://www.w3.org/2000/svg" xmlns:xlink="http://www.w3.org/1999/xlink">
    
    <title>play-circle</title>
    <desc>Created with sketchtool.</desc>
    <defs></defs>
    <g id="Page-1" stroke="none" stroke-width="1" fill="none" fill-rule="evenodd">
        <g id="play-circle" fill="#000000" fill-rule="nonzero">
            <path d="M128,34.6666667 C179.464,34.6666667 221.333333,76.536 221.333333,128 C221.333333,179.464 179.464,221.333333 128,221.333333 C76.536,221.333333 34.6666667,179.464 34.6666667,128 C34.6666667,76.536 76.536,34.6666667 128,34.6666667 Z M128,16 C66.148,16 16,66.148 16,128 C16,189.852 66.148,240 128,240 C189.852,240 240,189.852 240,128 C240,66.148 189.852,16 128,16 Z M100,174.666667 L100,81.3333333 L184,129.362667 L100,174.666667 Z"></path>
        </g>
    </g>
</svg>