<?xml version="1.0" encoding="UTF-8"?>
<svg width="256px" height="256px" viewBox="0 0 256 256" version="1.1" xmlns="http://www.w3.org/2000/svg" xmlns:xlink="http://www.w3.org/1999/xlink">
    
    <title>puzzle</title>
    <desc>Created with sketchtool.</desc>
    <defs></defs>
    <g id="Page-1" stroke="none" stroke-width="1" fill="none" fill-rule="evenodd">
        <g id="puzzle" fill="#000000" fill-rule="nonzero">
            <g id="iconmonstr-puzzle-1" transform="translate(12.000000, 12.000000)">
                <path d="M23.9636667,174 C33.4176667,174 36.6173333,168.934667 40.4743333,165.087333 C48.3333333,157.199333 58,160.553667 58,173.275 L58,232 L116.725,232 C129.436667,232 132.800667,222.333333 124.912667,214.474333 C121.065333,210.617333 116,207.417667 116,197.963667 C116,187.456 126.710667,174 145,174 C163.289333,174 174,187.456 174,197.963667 C174,207.417667 168.934667,210.617333 165.087333,214.474333 C157.199333,222.333333 160.553667,232 173.275,232 L232,232 L232,173.275 C232,160.563333 222.333333,157.199333 214.474333,165.087333 C210.617333,168.934667 207.417667,174 197.963667,174 C187.456,174 174,163.289333 174,145 C174,126.710667 187.456,116 197.963667,116 C207.417667,116 210.617333,121.065333 214.474333,124.912667 C222.333333,132.800667 232,129.446333 232,116.725 L232,58 L173.275,58 C160.563333,58 157.199333,48.3333333 165.087333,40.4743333 C168.934667,36.6173333 174,33.4176667 174,23.9636667 C174,13.456 163.289333,8.8817842e-16 145,8.8817842e-16 C126.710667,8.8817842e-16 116,13.456 116,23.9636667 C116,33.4176667 121.065333,36.6173333 124.912667,40.4743333 C132.800667,48.3333333 129.446333,58 116.725,58 L58,58 L58,116.725 C58,129.436667 48.3333333,132.800667 40.4743333,124.912667 C36.6173333,121.065333 33.4176667,116 23.9636667,116 C13.456,116 8.8817842e-16,126.710667 8.8817842e-16,145 C8.8817842e-16,163.289333 13.456,174 23.9636667,174 Z" id="Shape"></path>
            </g>
        </g>
    </g>
</svg>