<?xml version="1.0" encoding="UTF-8" standalone="no"?>
<svg width="256px" height="256px" viewBox="0 0 256 256" version="1.1" xmlns="http://www.w3.org/2000/svg" xmlns:xlink="http://www.w3.org/1999/xlink">
    <!-- Generator: sketchtool 41 (35326) - http://www.bohemiancoding.com/sketch -->
    <title>question</title>
    <desc>Created with sketchtool.</desc>
    <defs></defs>
    <g id="Page-1" stroke="none" stroke-width="1" fill="none" fill-rule="evenodd">
        <g id="question" fill="#000000">
            <path d="M128,32 C114.79605,32 102.36899,34.5242466 90.7184466,39.5728155 C79.0679029,44.6213845 68.8932474,51.4951021 60.1941748,60.1941748 C51.4951021,68.8932474 44.6213845,79.0679029 39.5728155,90.7184466 C34.5242466,102.36899 32,114.79605 32,128 C32,141.20395 34.5242466,153.63101 39.5728155,165.281553 C44.6213845,176.932097 51.4951021,187.106753 60.1941748,195.805825 C68.8932474,204.504898 79.0679029,211.378616 90.7184466,216.427184 C102.36899,221.475753 114.79605,224 128,224 C141.20395,224 153.63101,221.475753 165.281553,216.427184 C176.932097,211.378616 187.106753,204.504898 195.805825,195.805825 C204.504898,187.106753 211.378616,176.932097 216.427184,165.281553 C221.475753,153.63101 224,141.20395 224,128 C224,114.79605 221.475753,102.36899 216.427184,90.7184466 C211.378616,79.0679029 204.504898,68.8932474 195.805825,60.1941748 C187.106753,51.4951021 176.932097,44.6213845 165.281553,39.5728155 C153.63101,34.5242466 141.20395,32 128,32 Z M128.932039,191.84466 C125.203865,191.84466 122.019431,190.524285 119.378641,187.883495 C116.737851,185.242705 115.417476,181.980602 115.417476,178.097087 C115.417476,174.368913 116.737851,171.184479 119.378641,168.543689 C122.019431,165.902899 125.203865,164.582524 128.932039,164.582524 C132.815553,164.582524 136.077657,165.902899 138.718447,168.543689 C141.359237,171.184479 142.679612,174.368913 142.679612,178.097087 C142.679612,181.980602 141.359237,185.242705 138.718447,187.883495 C136.077657,190.524285 132.893223,191.84466 129.165049,191.84466 L128.932039,191.84466 Z M139.883495,151.533981 L139.883495,153.864078 L117.281553,153.864078 L117.281553,151.533981 C117.281553,147.961147 117.786403,144.077691 118.796117,139.883495 C119.80583,135.689299 122.330077,131.728174 126.368932,128 C130.407787,124.116485 134.446582,120.349533 138.485437,116.699029 C142.524292,113.048525 144.543689,108.815558 144.543689,104 C144.543689,98.7184202 142.912638,94.6796256 139.650485,91.8834951 C136.388333,89.0873647 132.427208,87.6893204 127.76699,87.6893204 C119.999961,87.6893204 115.262144,90.5242435 113.553398,96.1941748 C111.844652,101.864106 110.912622,105.631059 110.757282,107.495146 L88.8543689,107.495146 C89.1650501,99.1067542 91.844635,90.2524738 96.8932039,80.9320388 C101.941773,71.6116039 112.232932,66.9514563 127.76699,66.9514563 C141.436962,66.9514563 151.417444,70.6795744 157.708738,78.1359223 C164.000031,85.5922703 167.145631,93.5921903 167.145631,102.135922 C167.145631,115.650553 162.601987,125.087352 153.514563,130.446602 C144.427139,135.805852 139.883495,142.834908 139.883495,151.533981 Z"></path>
        </g>
    </g>
</svg>