<?xml version="1.0" encoding="UTF-8" standalone="no"?>
<svg width="256px" height="256px" viewBox="0 0 256 256" version="1.1" xmlns="http://www.w3.org/2000/svg" xmlns:xlink="http://www.w3.org/1999/xlink">
    <!-- Generator: sketchtool 41 (35326) - http://www.bohemiancoding.com/sketch -->
    <title>question</title>
    <desc>Created with sketchtool.</desc>
    <defs></defs>
    <g id="Page-1" stroke="none" stroke-width="1" fill="none" fill-rule="evenodd">
        <g id="question" fill="#000000">
            <path d="M128,0 C110.394734,0 93.8253204,3.36566214 78.2912621,10.0970874 C62.7572039,16.8285126 49.1909965,25.9934695 37.592233,37.592233 C25.9934695,49.1909965 16.8285126,62.7572039 10.0970874,78.2912621 C3.36566214,93.8253204 0,110.394734 0,128 C0,145.605266 3.36566214,162.17468 10.0970874,177.708738 C16.8285126,193.242796 25.9934695,206.809003 37.592233,218.407767 C49.1909965,230.00653 62.7572039,239.171487 78.2912621,245.902913 C93.8253204,252.634338 110.394734,256 128,256 C145.605266,256 162.17468,252.634338 177.708738,245.902913 C193.242796,239.171487 206.809003,230.00653 218.407767,218.407767 C230.00653,206.809003 239.171487,193.242796 245.902913,177.708738 C252.634338,162.17468 256,145.605266 256,128 C256,110.394734 252.634338,93.8253204 245.902913,78.2912621 C239.171487,62.7572039 230.00653,49.1909965 218.407767,37.592233 C206.809003,25.9934695 193.242796,16.8285126 177.708738,10.0970874 C162.17468,3.36566214 145.605266,0 128,0 Z M129.242718,213.126214 C124.27182,213.126214 120.025908,211.365713 116.504854,207.84466 C112.983801,204.323607 111.223301,199.974136 111.223301,194.796117 C111.223301,189.825218 112.983801,185.579306 116.504854,182.058252 C120.025908,178.537199 124.27182,176.776699 129.242718,176.776699 C134.420738,176.776699 138.770209,178.537199 142.291262,182.058252 C145.812315,185.579306 147.572816,189.825218 147.572816,194.796117 C147.572816,199.974136 145.812315,204.323607 142.291262,207.84466 C138.770209,211.365713 134.524297,213.126214 129.553398,213.126214 L129.242718,213.126214 Z M143.84466,159.378641 L143.84466,162.485437 L113.708738,162.485437 L113.708738,159.378641 C113.708738,154.614863 114.38187,149.436921 115.728155,143.84466 C117.07444,138.252399 120.440103,132.970899 125.825243,128 C131.210383,122.821981 136.595442,117.799377 141.980583,112.932039 C147.365723,108.064701 150.058252,102.420744 150.058252,96 C150.058252,88.9578936 147.883517,83.5728342 143.533981,79.8446602 C139.184444,76.1164862 133.902944,74.2524272 127.68932,74.2524272 C117.333282,74.2524272 111.016193,78.0323247 108.737864,85.592233 C106.459536,93.1521414 105.21683,98.1747449 105.009709,100.660194 L75.8058252,100.660194 C76.2200668,89.4756722 79.7928466,77.669965 86.5242718,65.2427184 C93.2556971,52.8154718 106.977243,46.6019417 127.68932,46.6019417 C145.915949,46.6019417 159.223259,51.5727658 167.61165,61.5145631 C176.000042,71.4563604 180.194175,82.1229204 180.194175,93.5145631 C180.194175,111.534071 174.135983,124.116469 162.019417,131.262136 C149.902852,138.407803 143.84466,147.779877 143.84466,159.378641 Z"></path>
        </g>
    </g>
</svg>