<?xml version="1.0" encoding="UTF-8"?>
<svg width="256px" height="256px" viewBox="0 0 256 256" version="1.1" xmlns="http://www.w3.org/2000/svg" xmlns:xlink="http://www.w3.org/1999/xlink">
    
    <title>question</title>
    <desc>Created with sketchtool.</desc>
    <defs></defs>
    <g id="Page-1" stroke="none" stroke-width="1" fill="none" fill-rule="evenodd">
        <g id="question" fill="#000000" fill-rule="nonzero">
            <path d="M128,16 C112.595392,16 98.0971553,18.9449544 84.5048544,24.8349515 C70.9125534,30.7249485 59.0421219,38.7442858 48.8932039,48.8932039 C38.7442858,59.0421219 30.7249485,70.9125534 24.8349515,84.5048544 C18.9449544,98.0971553 16,112.595392 16,128 C16,143.404608 18.9449544,157.902845 24.8349515,171.495146 C30.7249485,185.087447 38.7442858,196.957878 48.8932039,207.106796 C59.0421219,217.255714 70.9125534,225.275051 84.5048544,231.165049 C98.0971553,237.055046 112.595392,240 128,240 C143.404608,240 157.902845,237.055046 171.495146,231.165049 C185.087447,225.275051 196.957878,217.255714 207.106796,207.106796 C217.255714,196.957878 225.275051,185.087447 231.165049,171.495146 C237.055046,157.902845 240,143.404608 240,128 C240,112.595392 237.055046,98.0971553 231.165049,84.5048544 C225.275051,70.9125534 217.255714,59.0421219 207.106796,48.8932039 C196.957878,38.7442858 185.087447,30.7249485 171.495146,24.8349515 C157.902845,18.9449544 143.404608,16 128,16 Z M129.087379,202.485437 C124.737842,202.485437 121.022669,200.944999 117.941748,197.864078 C114.860826,194.783156 113.320388,190.977369 113.320388,186.446602 C113.320388,182.097066 114.860826,178.381892 117.941748,175.300971 C121.022669,172.220049 124.737842,170.679612 129.087379,170.679612 C133.618146,170.679612 137.423933,172.220049 140.504854,175.300971 C143.585776,178.381892 145.126214,182.097066 145.126214,186.446602 C145.126214,190.977369 143.585776,194.783156 140.504854,197.864078 C137.423933,200.944999 133.70876,202.485437 129.359223,202.485437 L129.087379,202.485437 Z M141.864078,155.456311 L141.864078,158.174757 L115.495146,158.174757 L115.495146,155.456311 C115.495146,151.288005 116.084137,146.757306 117.262136,141.864078 C118.440135,136.970849 121.38509,132.349536 126.097087,128 C130.809085,123.469233 135.521012,119.074455 140.23301,114.815534 C144.945007,110.556613 147.300971,105.618151 147.300971,100 C147.300971,93.8381569 145.398077,89.1262299 141.592233,85.8640777 C137.786389,82.6019254 133.165076,80.9708738 127.728155,80.9708738 C118.666621,80.9708738 113.139169,84.2782841 111.145631,90.8932039 C109.152094,97.5081237 108.064726,101.902902 107.883495,104.07767 L82.3300971,104.07767 C82.6925584,94.2912132 85.8187408,83.9612194 91.7087379,73.0873786 C97.598735,62.2135379 109.605087,56.776699 127.728155,56.776699 C143.676455,56.776699 155.320352,61.1261701 162.660194,69.8252427 C170.000037,78.5243153 173.669903,87.8575553 173.669903,97.8252427 C173.669903,113.592312 168.368985,124.60191 157.76699,130.854369 C147.164996,137.106827 141.864078,145.307393 141.864078,155.456311 Z"></path>
        </g>
    </g>
</svg>