<?xml version="1.0" encoding="UTF-8"?>
<svg width="16px" height="16px" viewBox="0 0 16 16" version="1.1" xmlns="http://www.w3.org/2000/svg" xmlns:xlink="http://www.w3.org/1999/xlink">
    
    <title>Icon/reward-cert</title>
    <desc>Created with sketchtool.</desc>
    <g id="Icons" stroke="none" stroke-width="1" fill="none" fill-rule="evenodd">
        <g id="Icon/reward-cert" fill="#00205B">
            <path d="M3.39685,7.63235 L1.50885,8.68835 L1.92085,6.62735 C2.41585,6.91335 2.98085,7.08935 3.59185,7.08935 C4.15085,7.08935 4.67085,6.93935 5.13485,6.69635 L5.62985,8.66935 L3.74685,7.63135 C3.63685,7.57235 3.50585,7.57235 3.39685,7.63235 L3.39685,7.63235 Z M0.94885,3.72535 C0.94885,2.26835 2.13385,1.08235 3.59185,1.08235 C5.04885,1.08235 6.23485,2.26835 6.23485,3.72535 C6.23485,5.18335 5.04885,6.36835 3.59185,6.36835 C2.13385,6.36835 0.94885,5.18335 0.94885,3.72535 L0.94885,3.72535 Z M6.00585,9.69835 L3.57385,8.35935 L1.17885,9.69735 C1.05685,9.76435 0.90485,9.75735 0.79185,9.67435 C0.67785,9.59135 0.62285,9.45035 0.64985,9.31335 L1.27985,6.15635 C0.63485,5.54335 0.22785,4.68335 0.22785,3.72535 C0.22785,1.87035 1.73785,0.36135 3.59185,0.36135 C5.44685,0.36135 6.95585,1.87035 6.95585,3.72535 C6.95585,4.74435 6.48985,5.64935 5.77085,6.26635 L6.52985,9.29535 C6.56385,9.43535 6.51285,9.58135 6.39985,9.66835 C6.33485,9.71835 6.25785,9.74335 6.17985,9.74335 C6.12085,9.74335 6.06085,9.72935 6.00585,9.69835 Z M7.72015,5.74365 C7.52115,5.74365 7.36015,5.58265 7.36015,5.38365 C7.36015,5.18365 7.52115,5.02265 7.72015,5.02265 L12.50615,5.02265 C12.70515,5.02265 12.86615,5.18365 12.86615,5.38365 C12.86615,5.58265 12.70515,5.74365 12.50615,5.74365 L7.72015,5.74365 Z M7.72015,8.02395 C7.52115,8.02395 7.36015,7.86295 7.36015,7.66395 C7.36015,7.46395 7.52115,7.30295 7.72015,7.30295 L10.72015,7.30295 C10.91915,7.30295 11.08015,7.46395 11.08015,7.66395 C11.08015,7.86295 10.91915,8.02395 10.72015,8.02395 L7.72015,8.02395 Z M15.05115,13.11665 L15.05115,13.02365 L5.83115,13.02365 L5.83115,13.11665 C5.83115,13.82965 5.65115,14.46465 5.35715,14.91865 L10.63815,14.91865 L13.61915,14.91865 C14.40915,14.91865 15.05115,14.11065 15.05115,13.11665 Z M15.41115,12.30365 C15.61115,12.30365 15.77215,12.46465 15.77215,12.66365 L15.77215,13.11665 C15.77215,14.50765 14.80615,15.63865 13.61915,15.63865 L10.63815,15.63865 L4.21715,15.63865 L3.67815,15.63865 C2.83315,15.63865 2.14615,14.94465 2.14615,14.09165 L2.14615,10.88365 C2.14615,10.68365 2.30715,10.52265 2.50615,10.52265 C2.70515,10.52265 2.86615,10.68365 2.86615,10.88365 L2.86615,14.09165 C2.86615,14.54765 3.23115,14.91865 3.67815,14.91865 L4.21715,14.91865 C4.64015,14.91865 5.11115,14.17865 5.11115,13.11665 L5.11115,12.66365 C5.11115,12.46465 5.27215,12.30365 5.47115,12.30365 L15.41115,12.30365 Z M8.00625,2.24365 C7.80725,2.24365 7.64625,2.08265 7.64625,1.88365 C7.64625,1.68365 7.80725,1.52265 8.00625,1.52265 L14.26125,1.52265 C14.46025,1.52265 14.62125,1.68365 14.62125,1.88365 L14.62125,10.66265 C14.62125,10.86165 14.46025,11.02265 14.26125,11.02265 C14.06225,11.02265 13.90125,10.86165 13.90125,10.66265 L13.90125,2.24365 L8.00625,2.24365 Z" id="Icon-Color"></path>
        </g>
    </g>
</svg>