<?xml version="1.0" encoding="UTF-8"?>
<svg width="16px" height="16px" viewBox="0 0 16 16" version="1.1" xmlns="http://www.w3.org/2000/svg" xmlns:xlink="http://www.w3.org/1999/xlink">
    
    <title>Icon/reward-cert</title>
    <desc>Created with sketchtool.</desc>
    <g id="Icons" stroke="none" stroke-width="1" fill="none" fill-rule="evenodd">
        <g id="Icon/reward-cert" fill="#00205B">
            <path d="M3.39685,7.63235 L1.50885,8.68835 L1.92085,6.62735 C2.41585,6.91335 2.98085,7.08935 3.59185,7.08935 C4.15085,7.08935 4.67085,6.93935 5.13485,6.69635 L5.62985,8.66935 L3.74685,7.63135 C3.63685,7.57235 3.50585,7.57235 3.39685,7.63235 L3.39685,7.63235 Z M0.94885,3.72535 C0.94885,2.26835 2.13385,1.08235 3.59185,1.08235 C5.04885,1.08235 6.23485,2.26835 6.23485,3.72535 C6.23485,5.18335 5.04885,6.36835 3.59185,6.36835 C2.13385,6.36835 0.94885,5.18335 0.94885,3.72535 L0.94885,3.72535 Z M2.50615,10.52265 C2.680275,10.52265 2.82530625,10.6459156 2.85884336,10.8107164 L2.86615,10.88365 L2.86615,14.09165 C2.86615,14.5125731 3.17715592,14.8610701 3.57658059,14.9121944 L3.67815,14.91865 L4.21715,14.91865 C4.61526765,14.91865 5.05590433,14.2631483 5.10636636,13.3006341 L5.11115,13.11665 L5.11115,12.66365 C5.11115,12.489525 5.23441563,12.3444937 5.39854648,12.3109566 L5.47115,12.30365 L15.41115,12.30365 C15.58615,12.30365 15.7312906,12.4269156 15.7648414,12.5910465 L15.77215,12.66365 L15.77215,13.11665 C15.77215,14.4496917 14.8849729,15.5439486 13.7663201,15.6328224 L13.61915,15.63865 L3.67815,15.63865 C2.88009444,15.63865 2.22297099,15.0196191 2.1524204,14.2322527 L2.14615,14.09165 L2.14615,10.88365 C2.14615,10.68365 2.30715,10.52265 2.50615,10.52265 Z M15.05115,13.02365 L5.83115,13.02365 L5.83115,13.11665 C5.83115,13.7504278 5.68892778,14.3225759 5.45083724,14.7607543 L5.35715,14.91865 L13.61915,14.91865 C14.3675711,14.91865 14.9831611,14.1934644 15.0458868,13.271961 L15.05115,13.11665 L15.05115,13.02365 Z M14.26125,1.52265 C14.46025,1.52265 14.62125,1.68365 14.62125,1.88365 L14.62125,1.88365 L14.62125,10.66265 C14.62125,10.86165 14.46025,11.02265 14.26125,11.02265 C14.06225,11.02265 13.90125,10.86165 13.90125,10.66265 L13.90125,10.66265 L13.90125,2.24365 L8.00625,2.24365 C7.80725,2.24365 7.64625,2.08265 7.64625,1.88365 C7.64625,1.68365 7.80725,1.52265 8.00625,1.52265 L8.00625,1.52265 Z M3.59185,0.36135 C5.44685,0.36135 6.95585,1.87035 6.95585,3.72535 C6.95585,4.67156429 6.55404388,5.51948265 5.92097136,6.12979096 L5.77085,6.26635 L6.52985,9.29535 C6.56385,9.43535 6.51285,9.58135 6.39985,9.66835 C6.33485,9.71835 6.25785,9.74335 6.17985,9.74335 C6.14051667,9.74335 6.10073889,9.73712778 6.06229444,9.72379444 L6.00585,9.69835 L3.57385,8.35935 L1.17885,9.69735 C1.05685,9.76435 0.90485,9.75735 0.79185,9.67435 C0.70065,9.60795 0.64721,9.50443 0.643306,9.395534 L0.64985,9.31335 L1.27985,6.15635 C0.63485,5.54335 0.22785,4.68335 0.22785,3.72535 C0.22785,1.87035 1.73785,0.36135 3.59185,0.36135 Z M10.72015,7.30295 C10.91915,7.30295 11.08015,7.46395 11.08015,7.66395 C11.08015,7.838075 10.9568844,7.98310625 10.7927535,8.01664336 L10.72015,8.02395 L7.72015,8.02395 C7.52115,8.02395 7.36015,7.86295 7.36015,7.66395 C7.36015,7.48895 7.48341563,7.34380937 7.64754648,7.31025859 L7.72015,7.30295 L10.72015,7.30295 Z M12.50615,5.02265 C12.70515,5.02265 12.86615,5.18365 12.86615,5.38365 C12.86615,5.557775 12.7428844,5.70280625 12.5787535,5.73634336 L12.50615,5.74365 L7.72015,5.74365 C7.52115,5.74365 7.36015,5.58265 7.36015,5.38365 C7.36015,5.20865 7.48341563,5.06350937 7.64754648,5.02995859 L7.72015,5.02265 L12.50615,5.02265 Z" id="Icon-Color"></path>
        </g>
    </g>
</svg>