<?xml version="1.0" encoding="UTF-8"?>
<svg width="256px" height="256px" viewBox="0 0 256 256" version="1.1" xmlns="http://www.w3.org/2000/svg" xmlns:xlink="http://www.w3.org/1999/xlink">
    
    <title>ribbon-check</title>
    <desc>Created with sketchtool.</desc>
    <defs></defs>
    <g id="Page-1" stroke="none" stroke-width="1" fill="none" fill-rule="evenodd">
        <g id="ribbon-check" fill-rule="nonzero" fill="#000000">
            <path d="M166.673875,156.18375 L166.673875,240 L127.850125,210.57375 L88.20125,240 L88.20125,155.075125 C99.83,162.425125 113.599,166.68375 128.341875,166.68375 C142.327,166.68375 155.43625,162.85125 166.673875,156.18375 L166.673875,156.18375 Z M127.858875,151.71775 C90.45,151.71775 60,121.27825 60,83.858875 C60,46.4395 90.45,16 127.858875,16 C165.268625,16 195.71775,46.4395 195.71775,83.858875 C195.71775,121.27825 165.26775,151.71775 127.858875,151.71775 Z M117.283625,115.83225 L170.159875,62.067 L160.141125,52.133125 L117.099875,95.970625 L95.399875,75.264625 L85.556125,85.383125 L117.283625,115.833125 L117.283625,115.83225 Z" id="Shape"></path>
        </g>
    </g>
</svg>