<?xml version="1.0" encoding="UTF-8"?>
<svg width="16px" height="16px" viewBox="0 0 16 16" version="1.1" xmlns="http://www.w3.org/2000/svg" xmlns:xlink="http://www.w3.org/1999/xlink">
    
    <title>Icon/ribbon</title>
    <desc>Created with sketchtool.</desc>
    <g id="Icons" stroke="none" stroke-width="1" fill="none" fill-rule="evenodd">
        <g id="Icon/ribbon" fill="#00205B">
            <path d="M10.0395,10.2480328 C9.8425,10.5500328 9.3705,10.7020328 9.0335,10.5740328 C8.7445,10.4640328 8.3725,10.4090328 8.0005,10.4090328 C7.6285,10.4090328 7.2565,10.4640328 6.9675,10.5740328 C6.6295,10.7020328 6.1585,10.5500328 5.9615,10.2480328 C5.6215,9.72803279 4.8875,9.19403279 4.2885,9.03203279 C3.9385,8.93803279 3.6485,8.53803279 3.6675,8.17603279 C3.6965,7.55703279 3.4165,6.69303279 3.0275,6.21103279 C2.8015,5.92903279 2.8015,5.43503279 3.0275,5.15303279 C3.4165,4.67103279 3.6965,3.80803279 3.6675,3.18703279 C3.6485,2.82603279 3.9385,2.42703279 4.2885,2.33203279 C4.8875,2.17003279 5.6215,1.63603279 5.9615,1.11603279 C6.1585,0.814032795 6.6295,0.661032795 6.9675,0.790032795 C7.5455,1.01103279 8.4555,1.01103279 9.0335,0.790032795 C9.3755,0.661032795 9.8425,0.813032795 10.0395,1.11503279 C10.3765,1.63503279 11.1105,2.17003279 11.7125,2.33203279 C12.0615,2.42703279 12.3525,2.82603279 12.3335,3.18803279 C12.3025,3.80803279 12.5835,4.67203279 12.9725,5.15303279 C13.1985,5.43503279 13.1985,5.92903279 12.9725,6.21003279 C12.5835,6.69203279 12.3025,7.55603279 12.3335,8.17703279 C12.3525,8.53803279 12.0615,8.93803279 11.7125,9.03203279 C11.1115,9.19403279 10.3765,9.72803279 10.0395,10.2480328 L10.0395,10.2480328 Z M12.1975,14.9020328 L8.1745,12.6850328 C8.0655,12.6250328 7.9335,12.6260328 7.8245,12.6860328 L3.8275,14.9210328 L4.7935,10.0850328 C5.0255,10.2530328 5.2355,10.4550328 5.3575,10.6420328 C5.6455,11.0820328 6.1735,11.3420328 6.6965,11.3420328 C6.8765,11.3420328 7.0555,11.3110328 7.2235,11.2470328 C7.6375,11.0890328 8.3635,11.0890328 8.7775,11.2470328 C9.4355,11.4980328 10.2585,11.2330328 10.6435,10.6410328 C10.7305,10.5050328 10.8715,10.3670328 11.0265,10.2350328 L12.1975,14.9020328 Z M13.0525,8.14103279 C13.0305,7.69803279 13.2545,7.00703279 13.5325,6.66203279 C13.9755,6.11303279 13.9755,5.25103279 13.5325,4.70203279 C13.2545,4.35703279 13.0305,3.66603279 13.0525,3.22403279 C13.0885,2.51803279 12.5825,1.82103279 11.8995,1.63703279 C11.4715,1.52103279 10.8845,1.09403279 10.6435,0.723032795 C10.2565,0.131032795 9.4345,-0.132967205 8.7775,0.117032795 C8.3635,0.275032795 7.6375,0.275032795 7.2235,0.117032795 C6.5675,-0.131967205 5.7455,0.131032795 5.3575,0.723032795 C5.1155,1.09403279 4.5275,1.52103279 4.1015,1.63703279 C3.4185,1.82103279 2.9125,2.51803279 2.9485,3.22303279 C2.9695,3.66603279 2.7445,4.35703279 2.4675,4.70203279 C2.0245,5.25103279 2.0245,6.11303279 2.4675,6.66203279 C2.7445,7.00703279 2.9695,7.69803279 2.9485,8.14003279 C2.9125,8.84603279 3.4185,9.54303279 4.1015,9.72703279 C4.1105,9.73003279 4.1215,9.73703279 4.1305,9.74003279 C4.1295,9.74603279 4.1245,9.75103279 4.1235,9.75703279 L2.9685,15.5460328 C2.9405,15.6840328 2.9965,15.8250328 3.1095,15.9080328 C3.2235,15.9910328 3.3755,15.9990328 3.4975,15.9310328 L8.0015,13.4120328 L12.5735,15.9320328 C12.6285,15.9620328 12.6875,15.9770328 12.7475,15.9770328 C12.8255,15.9770328 12.9025,15.9520328 12.9675,15.9020328 C13.0805,15.8140328 13.1315,15.6680328 13.0975,15.5290328 L11.6705,9.83803279 C11.6695,9.83303279 11.6655,9.82903279 11.6635,9.82403279 C11.7435,9.78703279 11.8255,9.74803279 11.8995,9.72703279 C12.5825,9.54303279 13.0885,8.84603279 13.0525,8.14103279 L13.0525,8.14103279 Z M9.8588,2.78953279 C9.7008,2.91053279 9.6698,3.13553279 9.7908,3.29353279 C10.2618,3.91353279 10.5108,4.65153279 10.5108,5.42953279 C10.5108,6.84853279 9.6678,8.12253279 8.3598,8.67653279 C8.1768,8.75353279 8.0908,8.96453279 8.1698,9.14753279 C8.2268,9.28553279 8.3608,9.36753279 8.5008,9.36753279 C8.5468,9.36753279 8.5948,9.35853279 8.6408,9.33953279 C10.2138,8.67353279 11.2318,7.13853279 11.2318,5.42953279 C11.2318,4.49253279 10.9308,3.60253279 10.3628,2.85753279 C10.2428,2.69853279 10.0138,2.66853279 9.8588,2.78953279" id="Icon-Color"></path>
        </g>
    </g>
</svg>