<?xml version="1.0" encoding="UTF-8"?>
<svg width="256px" height="256px" viewBox="0 0 256 256" version="1.1" xmlns="http://www.w3.org/2000/svg" xmlns:xlink="http://www.w3.org/1999/xlink">
    
    <title>rotate</title>
    <desc>Created with sketchtool.</desc>
    <defs></defs>
    <g id="Page-1" stroke="none" stroke-width="1" fill="none" fill-rule="evenodd">
        <g id="rotate" fill="#000000">
            <path d="M125,189.293158 C60.112077,188.808586 8,172.647771 8,152.782609 L8,105.826087 C8,125.69125 60.112077,141.852065 125,142.336636 L125,113.304348 L177.054772,165.385817 L125,217.467286 L125,189.293172 Z M193.217391,183.444956 L193.217391,136.488435 C226.188643,129.979262 248,118.677896 248,105.826087 L248,152.782609 C248,165.634418 226.188643,176.935784 193.217391,183.444956 Z M121.582861,56.3116541 C123.707726,56.2779394 125.847243,56.2608696 128,56.2608696 C194.27417,56.2608696 248,72.4389782 248,92.3956865 C248,96.4587809 245.773006,100.365248 241.666524,104.010446 C225.603185,89.7515245 180.781049,79.4903948 128,79.4903948 C125.847243,79.4903948 123.707726,79.5074646 121.582861,79.5411793 L121.582862,100.245414 L89,67.6033219 L121.582862,35.0786426 L121.582862,56.3116549 Z M76.6100006,59.7327171 L76.6100006,82.9622423 C47.4771393,87.1258015 24.8002188,94.7194495 14.3334798,104.010449 C10.2269945,100.365248 8,96.4587809 8,92.3956865 C8,77.9764425 36.0472506,65.5297941 76.6099939,59.7327181 Z"></path>
        </g>
    </g>
</svg>