<?xml version="1.0" encoding="UTF-8"?>
<svg width="16px" height="16px" viewBox="0 0 16 16" version="1.1" xmlns="http://www.w3.org/2000/svg" xmlns:xlink="http://www.w3.org/1999/xlink">
    
    <title>Icon/rotate</title>
    <desc>Created with sketchtool.</desc>
    <g id="Icons" stroke="none" stroke-width="1" fill="none" fill-rule="evenodd">
        <g id="Icon/rotate" fill="#00205B">
            <path d="M2.7054751,5.1604 C2.8434751,5.0174 3.0714751,5.0154 3.2154751,5.1544 L3.2154751,5.1544 L5.8384751,7.7164 C5.9794751,7.8564 5.9824751,8.0834 5.8434751,8.2264 C5.7054751,8.3674 5.4764751,8.3704 5.3344751,8.2324 L5.3344751,8.2324 L3.3534751,6.2974 L3.3534751,11.0864 C3.3534751,13.0404 4.9424751,14.6294 6.8964751,14.6294 L6.8964751,14.6294 L9.6124751,14.6294 C9.8114751,14.6294 9.9724751,14.7904 9.9724751,14.9894 C9.9724751,15.1894 9.8114751,15.3504 9.6124751,15.3504 L9.6124751,15.3504 L6.8964751,15.3504 C4.5464751,15.3504 2.6334751,13.4374 2.6334751,11.0864 L2.6334751,11.0864 L2.6334751,6.2654 L0.658475097,8.2884 C0.588475097,8.3604 0.494475097,8.3974 0.400475097,8.3974 C0.309475097,8.3974 0.218475097,8.3624 0.148475097,8.2944 C0.00747509684,8.1544 0.00447509684,7.9274 0.142475097,7.7844 L0.142475097,7.7844 Z M9.1037751,0.6496 C11.4547751,0.6496 13.3677751,2.5616 13.3677751,4.9126 L13.3677751,4.9126 L13.3677751,9.7326 L15.3407751,7.7106 C15.4787751,7.5696 15.7067751,7.5646 15.8507751,7.7046 C15.9927751,7.8436 15.9957751,8.0716 15.8567751,8.2146 L15.8567751,8.2146 L13.2947751,10.8386 C13.2277751,10.9056 13.1367751,10.9446 13.0407751,10.9466 L13.0407751,10.9466 C12.9437751,10.9466 12.8527751,10.9096 12.7857751,10.8446 L12.7857751,10.8446 L10.1627751,8.2826 C10.0207751,8.1426 10.0177751,7.9156 10.1567751,7.7726 C10.2937751,7.6306 10.5227751,7.6276 10.6657751,7.7666 L10.6657751,7.7666 L12.6467751,9.7016 L12.6467751,4.9126 C12.6467751,2.9596 11.0577751,1.3706 9.1037751,1.3706 L9.1037751,1.3706 L6.3877751,1.3706 C6.1887751,1.3706 6.0277751,1.2096 6.0277751,1.0106 C6.0277751,0.8106 6.1887751,0.6496 6.3877751,0.6496 L6.3877751,0.6496 Z" id="Icon-Color"></path>
        </g>
    </g>
</svg>