<?xml version="1.0" encoding="UTF-8"?>
<svg width="16px" height="16px" viewBox="0 0 16 16" version="1.1" xmlns="http://www.w3.org/2000/svg" xmlns:xlink="http://www.w3.org/1999/xlink">
    
    <title>Icon/shipment</title>
    <desc>Created with sketchtool.</desc>
    <g id="Icons" stroke="none" stroke-width="1" fill="none" fill-rule="evenodd">
        <g id="Icon/shipment" fill="#00205B">
            <path d="M15.28284,10.7725039 L9.78383996,13.5715039 L9.78383996,6.9585039 L15.28284,4.5415039 L15.28284,10.7725039 Z M3.18083996,8.9865039 L7.10083996,10.5555039 C7.14483996,10.5715039 7.18883996,10.5805039 7.23283996,10.5805039 C7.37283996,10.5805039 7.50683996,10.4965039 7.55983996,10.3575039 C7.63383996,10.1765039 7.54583996,9.9715039 7.36383996,9.8985039 L3.17883996,8.2245039 L3.17783996,7.0225039 L6.11983996,8.1995039 C6.16383996,8.2155039 6.20783996,8.2245039 6.25183996,8.2245039 C6.39083996,8.2245039 6.52483996,8.1405039 6.57983996,8.0025039 C6.65183996,7.8215039 6.56383996,7.6155039 6.38283996,7.5425039 L3.17583996,6.2595039 L3.17183996,4.5285039 L9.07683996,6.9635039 L9.07683996,13.5865039 L3.18483996,10.7655039 L3.18083996,8.9865039 Z M6.11483996,3.2645039 L11.60684,5.3845039 L9.42683996,6.3435039 L5.77283996,4.8365039 L3.82583996,4.0335039 L6.11483996,3.2645039 Z M9.21183996,2.2245039 L14.65584,4.0445039 L12.50884,4.9885039 C12.49084,4.9775039 12.47684,4.9625039 12.45684,4.9555039 L7.16483996,2.9125039 L9.21183996,2.2245039 Z M15.98684,3.9895039 C15.98684,3.9875039 15.98884,3.9855039 15.98884,3.9835039 C15.98784,3.9715039 15.97884,3.9625039 15.97684,3.9515039 C15.96984,3.8995039 15.95484,3.8525039 15.92684,3.8095039 C15.91284,3.7895039 15.89584,3.7755039 15.87984,3.7595039 C15.86184,3.7415039 15.85084,3.7185039 15.82984,3.7045039 C15.81484,3.6955039 15.79684,3.6955039 15.78084,3.6885039 C15.76784,3.6825039 15.76184,3.6685039 15.74884,3.6645039 L9.32383996,1.5165039 C9.25083996,1.4915039 9.17183996,1.4935039 9.09983996,1.5165039 L2.70483996,3.6645039 C2.69083996,3.6685039 2.68483996,3.6815039 2.67283996,3.6875039 C2.65583996,3.6955039 2.63683996,3.6955039 2.61983996,3.7065039 C2.59783996,3.7215039 2.58783996,3.7445039 2.56983996,3.7625039 C2.55383996,3.7785039 2.53783996,3.7915039 2.52583996,3.8105039 C2.49583996,3.8565039 2.47783996,3.9085039 2.47183996,3.9635039 C2.47083996,3.9725039 2.46483996,3.9785039 2.46383996,3.9875039 C2.46383996,3.9895039 2.46583996,3.9905039 2.46583996,3.9925039 C2.46583996,3.9955039 2.46283996,3.9975039 2.46283996,4.0015039 L2.46783996,5.9765039 L0.494839958,5.1875039 C0.313839958,5.1175039 0.106839958,5.2025039 0.0358399578,5.3845039 C-0.0371600422,5.5655039 0.0508399578,5.7715039 0.231839958,5.8435039 L2.46983996,6.7385039 L2.47183996,7.9415039 L1.47583996,7.5425039 C1.29683996,7.4735039 1.08883996,7.5585039 1.01583996,7.7395039 C0.943839958,7.9205039 1.03183996,8.1265039 1.21383996,8.1995039 L2.47383996,8.7035039 L2.47883996,10.9895039 C2.47983996,11.1255039 2.55783996,11.2495039 2.67983996,11.3075039 L9.27783996,14.4665039 C9.32283996,14.4885039 9.37283996,14.4984961 9.42183996,14.4995039 C9.42483996,14.4995039 9.42783996,14.5015039 9.42983996,14.5015039 C9.48483996,14.5015039 9.54083996,14.4895039 9.59083996,14.4635039 L15.79684,11.3035039 C15.91484,11.2435039 15.98984,11.1225039 15.98984,10.9895039 L15.98984,4.0005039 C15.98984,3.9965039 15.98684,3.9935039 15.98684,3.9895039 L15.98684,3.9895039 Z" id="Icon-Color"></path>
        </g>
    </g>
</svg>