<?xml version="1.0" encoding="UTF-8"?>
<svg width="256px" height="256px" viewBox="0 0 256 256" version="1.1" xmlns="http://www.w3.org/2000/svg" xmlns:xlink="http://www.w3.org/1999/xlink">
    <!-- Generator: sketchtool 42 (36781) - http://www.bohemiancoding.com/sketch -->
    <title>shipment</title>
    <desc>Created with sketchtool.</desc>
    <defs></defs>
    <g id="Page-1" stroke="none" stroke-width="1" fill="none" fill-rule="evenodd">
        <g id="shipment" fill="#000000" fill-rule="nonzero">
            <path d="M201.50495,167.194059 L204.293069,165.673267 L204.293069,180.374257 L201.50495,181.89505 L201.50495,167.194059 Z M196.435644,170.235644 L199.477228,168.461386 L199.477228,183.162376 L196.435644,184.936634 L196.435644,170.235644 Z M217.980198,157.815842 L220.768317,156.041584 L220.768317,170.742574 L217.980198,172.263366 L217.980198,157.815842 Z M256,84.3108911 L256,182.655446 L174.384158,230.306931 L71.9841584,170.489109 L71.9841584,72.1445545 L153.853465,25 L256,84.3108911 Z M138.392079,51.1069307 L218.233663,98.2514851 L234.455446,89.1267327 L153.6,42.4891089 L138.392079,51.1069307 Z M166.526733,135.257426 L86.9386139,89.1267327 L86.9386139,161.871287 L166.526733,208.255446 L166.526733,135.257426 Z M190.09901,113.712871 L111.524752,66.8217822 L94.7960396,76.4534653 L174.384158,122.584158 L190.09901,113.712871 Z M241.045545,102.560396 L226.851485,110.671287 L226.851485,137.285149 L226.59802,137.285149 L226.59802,137.538614 L198.463366,153 L198.463366,152.746535 L198.463366,153 L198.463366,126.132673 L181.481188,135.764356 L181.481188,208.762376 L241.045545,174.291089 L241.045545,102.560396 Z M208.348515,163.392079 L211.136634,161.617822 L211.136634,176.318812 L208.348515,178.093069 L208.348515,163.392079 Z M225.077228,153.506931 L227.865347,151.986139 L227.865347,166.687129 L225.077228,168.207921 L225.077228,153.506931 Z M213.164356,160.60396 L215.952475,158.829703 L215.952475,173.530693 L213.164356,175.30495 L213.164356,160.60396 Z M10.1386139,89.380198 L56.7762376,89.380198 L56.7762376,104.334653 L15.2079208,104.334653 L10.1386139,89.380198 Z M0,113.712871 L56.7762376,113.712871 L56.7762376,128.667327 L5.06930693,128.667327 L0,113.712871 Z M29.9089109,153.253465 L25.0930693,138.29901 L56.7762376,138.29901 L56.7762376,153.253465 L29.9089109,153.253465 Z"></path>
        </g>
    </g>
</svg>