<?xml version="1.0" encoding="UTF-8"?>
<svg width="256px" height="256px" viewBox="0 0 256 256" version="1.1" xmlns="http://www.w3.org/2000/svg" xmlns:xlink="http://www.w3.org/1999/xlink">
    
    <title>shipment</title>
    <desc>Created with sketchtool.</desc>
    <defs></defs>
    <g id="Page-1" stroke="none" stroke-width="1" fill="none" fill-rule="evenodd">
        <g id="shipment" fill="#000000" fill-rule="nonzero">
            <path d="M192.316832,162.419802 L194.756436,161.089109 L194.756436,173.952475 L192.316832,175.283168 L192.316832,162.419802 Z M187.881188,165.081188 L190.542574,163.528713 L190.542574,176.392079 L187.881188,177.944554 L187.881188,165.081188 Z M206.732673,154.213861 L209.172277,152.661386 L209.172277,165.524752 L206.732673,166.855446 L206.732673,154.213861 Z M240,89.8970297 L240,175.948515 L168.586139,217.643564 L78.9861386,165.30297 L78.9861386,79.2514851 L150.621782,38 L240,89.8970297 Z M137.093069,60.8435644 L206.954455,102.09505 L221.148515,94.1108911 L150.4,53.3029703 L137.093069,60.8435644 Z M161.710891,134.475248 L92.0712871,94.1108911 L92.0712871,157.762376 L161.710891,198.348515 L161.710891,134.475248 Z M182.336634,115.623762 L113.584158,74.5940594 L98.9465347,83.0217822 L168.586139,123.386139 L182.336634,115.623762 Z M226.914851,105.865347 L214.49505,112.962376 L214.49505,136.249505 L214.273267,136.249505 L214.273267,136.471287 L189.655446,150 L189.655446,149.778218 L189.655446,150 L189.655446,126.491089 L174.79604,134.918812 L174.79604,198.792079 L226.914851,168.629703 L226.914851,105.865347 Z M198.30495,159.093069 L200.744554,157.540594 L200.744554,170.40396 L198.30495,171.956436 L198.30495,159.093069 Z M212.942574,150.443564 L215.382178,149.112871 L215.382178,161.976238 L212.942574,163.306931 L212.942574,150.443564 Z M202.518812,156.653465 L204.958416,155.10099 L204.958416,167.964356 L202.518812,169.516832 L202.518812,156.653465 Z M24.8712871,94.3326733 L65.6792079,94.3326733 L65.6792079,107.417822 L29.3069307,107.417822 L24.8712871,94.3326733 Z M16,115.623762 L65.6792079,115.623762 L65.6792079,128.708911 L20.4356436,128.708911 L16,115.623762 Z M42.170297,150.221782 L37.9564356,137.136634 L65.6792079,137.136634 L65.6792079,150.221782 L42.170297,150.221782 Z"></path>
        </g>
    </g>
</svg>