<?xml version="1.0" encoding="UTF-8"?>
<svg width="16px" height="16px" viewBox="0 0 16 16" version="1.1" xmlns="http://www.w3.org/2000/svg" xmlns:xlink="http://www.w3.org/1999/xlink">
    
    <title>Icon/ship-delay</title>
    <desc>Created with sketchtool.</desc>
    <g id="Icons" stroke="none" stroke-width="1" fill="none" fill-rule="evenodd">
        <g id="Icon/ship-delay" fill="#00205B">
            <path d="M6.14957062,3.2132 C6.33457062,3.1412 6.54357062,3.2332 6.61457062,3.4202 C6.68557062,3.6052 6.59257062,3.8132 6.40757062,3.8852 L6.40757062,3.8852 L6.20557062,3.9632 C6.20757062,3.9682 6.21257062,3.9692 6.21457062,3.9742 L6.21457062,3.9742 L6.77657062,5.4342 C7.14357062,6.3872 6.91657062,7.4172 6.28957062,8.1402 C7.23957062,8.2552 8.09857062,8.8672 8.46457062,9.8202 L8.46457062,9.8202 L9.02757062,11.2792 C9.03757062,11.3042 9.02157062,11.3282 9.02557062,11.3542 L9.02557062,11.3542 L9.24957062,11.2682 C9.43357062,11.1952 9.64257062,11.2892 9.71357062,11.4752 C9.78557062,11.6602 9.69257062,11.8682 9.50657062,11.9392 L9.50657062,11.9392 L4.07857062,14.0292 C4.03657062,14.0462 3.99257062,14.0542 3.94957062,14.0542 C3.80457062,14.0542 3.66757062,13.9662 3.61357062,13.8222 C3.54157062,13.6372 3.63457062,13.4292 3.82057062,13.3572 L3.82057062,13.3572 L4.08557062,13.2552 C4.07257062,13.2342 4.04957062,13.2232 4.04157062,13.1992 L4.04157062,13.1992 L3.47857062,11.7402 C3.11357062,10.7892 3.33857062,9.7632 3.96157062,9.0402 C3.01357062,8.9232 2.15657062,8.3052 1.79057062,7.3542 L1.79057062,7.3542 L1.22857062,5.8932 L1.22857062,5.8932 L1.22657062,5.8792 L0.978570625,5.9752 C0.936570625,5.9912 0.892570625,5.9992 0.849570625,5.9992 C0.705570625,5.9992 0.568570625,5.9112 0.513570625,5.7682 C0.442570625,5.5822 0.535570625,5.3742 0.720570625,5.3032 L0.720570625,5.3032 Z M7.79257062,10.0792 C7.40757062,9.0742 6.27957062,8.5722 5.27057062,8.9582 C4.26657062,9.3452 3.76457062,10.4772 4.15057062,11.4812 L4.15057062,11.4812 L4.58357062,12.6042 L4.87757062,12.4912 C4.87657062,12.1642 5.20357062,11.7892 5.71557062,11.5922 C6.22857062,11.3952 6.72057062,11.4542 6.94057062,11.6972 L6.94057062,11.6972 L8.22557062,11.2022 Z M12.4199706,8.4535 C13.4429706,8.4535 14.2759706,9.2865 14.2759706,10.3095 C14.2759706,11.3335 13.4429706,12.1665 12.4199706,12.1665 C11.3969706,12.1665 10.5639706,11.3335 10.5639706,10.3095 C10.5639706,9.2865 11.3969706,8.4535 12.4199706,8.4535 Z M12.4199706,9.1745 C11.7939706,9.1745 11.2839706,9.6835 11.2839706,10.3095 C11.2839706,10.9355 11.7939706,11.4455 12.4199706,11.4455 C13.0459706,11.4455 13.5559706,10.9355 13.5559706,10.3095 C13.5559706,9.6835 13.0459706,9.1745 12.4199706,9.1745 Z M1.44127062,1.9458 L10.4552706,1.9458 C10.6293956,1.9458 10.7744269,2.06906562 10.807964,2.23319648 L10.8152706,2.3058 L10.8152706,4.3688 L12.2322706,4.3688 C12.3042706,4.3688 12.3740206,4.390175 12.4326612,4.42912812 L12.4872706,4.4738 L15.4052706,7.3918 C15.4555206,7.44205 15.4894581,7.5063625 15.5032862,7.57587812 L15.5102706,7.6468 L15.5102706,10.0928 C15.5102706,10.266925 15.387005,10.4127219 15.2228741,10.4464504 L15.1502706,10.4538 L14.7442706,10.4538 C14.5452706,10.4538 14.3842706,10.2918 14.3842706,10.0928 C14.3842706,9.918675 14.5075362,9.77364375 14.6716671,9.74010664 L14.7442706,9.7328 L14.7902706,9.7328 L14.7902706,7.7958 L12.0832706,5.0888 L10.8152706,5.0888 L10.8152706,8.3058 C10.8152706,8.5048 10.6542706,8.6658 10.4552706,8.6658 C10.2811456,8.6658 10.1353487,8.54253437 10.1016202,8.37840352 L10.0942706,8.3058 L10.0942706,2.6658 L1.80127062,2.6658 L1.80127062,2.8058 C1.80127062,3.0048 1.64027062,3.1658 1.44127062,3.1658 C1.26714562,3.1658 1.12211437,3.04253437 1.08857727,2.87840352 L1.08127062,2.8058 L1.08127062,2.3058 C1.08127062,2.131675 1.20453625,1.98664375 1.36866711,1.95310664 L1.44127062,1.9458 L10.4552706,1.9458 Z M5.67157062,4.5682 L2.02957062,5.9712 L2.42257062,6.9922 L4.44457062,6.5832 L5.98957062,5.3932 L5.67157062,4.5682 Z" id="Icon-Color"></path>
        </g>
    </g>
</svg>