<?xml version="1.0" encoding="UTF-8" standalone="no"?>
<svg width="256px" height="256px" viewBox="0 0 256 256" version="1.1" xmlns="http://www.w3.org/2000/svg" xmlns:xlink="http://www.w3.org/1999/xlink">
    <!-- Generator: sketchtool 41 (35326) - http://www.bohemiancoding.com/sketch -->
    <title>shipment</title>
    <desc>Created with sketchtool.</desc>
    <defs></defs>
    <g id="Page-1" stroke="none" stroke-width="1" fill="none" fill-rule="evenodd">
        <g id="shipment" fill="#000000">
            <path d="M183.128713,157.645545 L185.219802,156.50495 L185.219802,167.530693 L183.128713,168.671287 L183.128713,157.645545 Z M179.326733,159.926733 L181.607921,158.59604 L181.607921,169.621782 L179.326733,170.952475 L179.326733,159.926733 Z M195.485149,150.611881 L197.576238,149.281188 L197.576238,160.306931 L195.485149,161.447525 L195.485149,150.611881 Z M224,95.4831683 L224,169.241584 L162.788119,204.980198 L85.9881188,160.116832 L85.9881188,86.3584158 L147.390099,51 L224,95.4831683 Z M135.794059,70.580198 L195.675248,105.938614 L207.841584,99.0950495 L147.2,64.1168317 L135.794059,70.580198 Z M156.89505,133.693069 L97.2039604,99.0950495 L97.2039604,153.653465 L156.89505,188.441584 L156.89505,133.693069 Z M174.574257,117.534653 L115.643564,82.3663366 L103.09703,89.590099 L162.788119,124.188119 L174.574257,117.534653 Z M212.784158,109.170297 L202.138614,115.253465 L202.138614,135.213861 L201.948515,135.213861 L201.948515,135.40396 L180.847525,147 L180.847525,146.809901 L180.847525,147 L180.847525,126.849505 L168.110891,134.073267 L168.110891,188.821782 L212.784158,162.968317 L212.784158,109.170297 Z M188.261386,154.794059 L190.352475,153.463366 L190.352475,164.489109 L188.261386,165.819802 L188.261386,154.794059 Z M200.807921,147.380198 L202.89901,146.239604 L202.89901,157.265347 L200.807921,158.405941 L200.807921,147.380198 Z M191.873267,152.70297 L193.964356,151.372277 L193.964356,162.39802 L191.873267,163.728713 L191.873267,152.70297 Z M39.6039604,99.2851485 L74.5821782,99.2851485 L74.5821782,110.50099 L43.4059406,110.50099 L39.6039604,99.2851485 Z M32,117.534653 L74.5821782,117.534653 L74.5821782,128.750495 L35.8019802,128.750495 L32,117.534653 Z M54.4316832,147.190099 L50.819802,135.974257 L74.5821782,135.974257 L74.5821782,147.190099 L54.4316832,147.190099 Z"></path>
        </g>
    </g>
</svg>