<?xml version="1.0" encoding="UTF-8"?>
<svg width="256px" height="256px" viewBox="0 0 256 256" version="1.1" xmlns="http://www.w3.org/2000/svg" xmlns:xlink="http://www.w3.org/1999/xlink">
    
    <title>sms</title>
    <desc>Created with sketchtool.</desc>
    <defs></defs>
    <g id="Page-1" stroke="none" stroke-width="1" fill="none" fill-rule="evenodd">
        <g id="sms" fill="#000000" fill-rule="nonzero">
            <path d="M127.995334,43.6658889 C179.457189,43.6658889 221.324778,77.1898254 221.324778,118.394775 C221.324778,164.284863 173.306779,192.694346 128.835299,192.694346 C110.757385,192.694346 97.2619474,188.989167 87.8263406,186.68393 C78.4933961,192.405025 72.9402942,196.362193 47.9560018,203.669889 C52.9491271,190.855756 54.7037207,178.022957 53.5744344,163.864881 C45.7534269,154.531936 34.6752219,141.465814 34.6752219,118.394775 C34.6658889,77.1898254 76.5334778,43.6658889 127.995334,43.6658889 Z M127.995334,25 C68.8431315,25 16,64.4410233 16,118.394775 C16,137.527311 22.887713,156.314529 35.1045373,170.892588 C35.6178493,187.971876 25.5569351,212.480188 16.503979,230.324778 C40.7883005,225.938294 75.310862,216.250698 90.9622099,206.656431 C104.196325,209.876297 116.861131,211.350902 128.844631,211.350902 C194.95921,211.350902 240,166.20745 240,118.385442 C239.990667,64.151702 186.783551,25 127.995334,25 Z M95.3300279,118.329445 C95.3300279,126.066456 89.0676222,132.328861 81.3306112,132.328861 C73.6029332,132.328861 67.3311945,126.066456 67.3311945,118.329445 C67.3311945,110.592434 73.6029332,104.330028 81.3306112,104.330028 C89.0676222,104.330028 95.3300279,110.592434 95.3300279,118.329445 Z M127.995334,104.330028 C120.267656,104.330028 113.995917,110.592434 113.995917,118.329445 C113.995917,126.066456 120.267656,132.328861 127.995334,132.328861 C135.732344,132.328861 141.99475,126.066456 141.99475,118.329445 C141.99475,110.592434 135.732344,104.330028 127.995334,104.330028 Z M174.660056,104.330028 C166.932378,104.330028 160.660639,110.592434 160.660639,118.329445 C160.660639,126.066456 166.932378,132.328861 174.660056,132.328861 C182.397067,132.328861 188.659473,126.066456 188.659473,118.329445 C188.659473,110.592434 182.397067,104.330028 174.660056,104.330028 Z"></path>
        </g>
    </g>
</svg>