<?xml version="1.0" encoding="UTF-8"?>
<svg width="256px" height="256px" viewBox="0 0 256 256" version="1.1" xmlns="http://www.w3.org/2000/svg" xmlns:xlink="http://www.w3.org/1999/xlink">
    
    <title>sms</title>
    <desc>Created with sketchtool.</desc>
    <defs></defs>
    <g id="Page-1" stroke="none" stroke-width="1" fill="none" fill-rule="evenodd">
        <g id="sms" fill="#000000" fill-rule="nonzero">
            <path d="M122.88,35.48 C179.34336,35.48 225.28,72.26208 225.28,117.47168 C225.28,167.82176 172.5952,198.99232 123.8016,198.99232 C103.96672,198.99232 89.15968,194.92704 78.80704,192.39776 C68.56704,198.67488 62.47424,203.01664 35.06176,211.03456 C40.54016,196.97504 42.46528,182.89504 41.22624,167.36096 C32.64512,157.12096 20.49024,142.78496 20.49024,117.47168 C20.48,72.26208 66.41664,35.48 122.88,35.48 Z M122.88,15 C57.97888,15 0,58.27424 0,117.47168 C0,138.46368 7.55712,159.0768 20.96128,175.07168 C21.52448,193.81088 10.48576,220.70112 0.55296,240.28 C27.19744,235.4672 65.0752,224.83808 82.24768,214.31136 C96.768,217.84416 110.66368,219.46208 123.81184,219.46208 C196.352,219.46208 245.77024,169.9312 245.77024,117.46144 C245.76,57.9568 187.38176,15 122.88,15 Z M87.04,117.4 C87.04,125.88896 80.16896,132.76 71.68,132.76 C63.20128,132.76 56.32,125.88896 56.32,117.4 C56.32,108.91104 63.20128,102.04 71.68,102.04 C80.16896,102.04 87.04,108.91104 87.04,117.4 Z M122.88,102.04 C114.40128,102.04 107.52,108.91104 107.52,117.4 C107.52,125.88896 114.40128,132.76 122.88,132.76 C131.36896,132.76 138.24,125.88896 138.24,117.4 C138.24,108.91104 131.36896,102.04 122.88,102.04 Z M174.08,102.04 C165.60128,102.04 158.72,108.91104 158.72,117.4 C158.72,125.88896 165.60128,132.76 174.08,132.76 C182.56896,132.76 189.44,125.88896 189.44,117.4 C189.44,108.91104 182.56896,102.04 174.08,102.04 Z"></path>
        </g>
    </g>
</svg>