<?xml version="1.0" encoding="UTF-8"?>
<svg width="256px" height="256px" viewBox="0 0 256 256" version="1.1" xmlns="http://www.w3.org/2000/svg" xmlns:xlink="http://www.w3.org/1999/xlink">
    
    <title>sms</title>
    <desc>Created with sketchtool.</desc>
    <defs></defs>
    <g id="Page-1" stroke="none" stroke-width="1" fill="none" fill-rule="evenodd">
        <g id="sms" fill-rule="nonzero" fill="#000000">
            <g id="iconmonstr-speech-bubble-4" transform="translate(0.000000, 15.000000)">
                <path d="M122.88,20.48 C179.34336,20.48 225.28,57.26208 225.28,102.47168 C225.28,152.82176 172.5952,183.99232 123.8016,183.99232 C103.96672,183.99232 89.15968,179.92704 78.80704,177.39776 C68.56704,183.67488 62.47424,188.01664 35.06176,196.03456 C40.54016,181.97504 42.46528,167.89504 41.22624,152.36096 C32.64512,142.12096 20.49024,127.78496 20.49024,102.47168 C20.48,57.26208 66.41664,20.48 122.88,20.48 Z M122.88,1.64135372e-14 C57.97888,1.64135372e-14 0,43.27424 0,102.47168 C0,123.46368 7.55712,144.0768 20.96128,160.07168 C21.52448,178.81088 10.48576,205.70112 0.55296,225.28 C27.19744,220.4672 65.0752,209.83808 82.24768,199.31136 C96.768,202.84416 110.66368,204.46208 123.81184,204.46208 C196.352,204.46208 245.77024,154.9312 245.77024,102.46144 C245.76,42.9568 187.38176,-1.77635684e-15 122.88,1.64135372e-14 Z M87.04,102.4 C87.04,110.88896 80.16896,117.76 71.68,117.76 C63.20128,117.76 56.32,110.88896 56.32,102.4 C56.32,93.91104 63.20128,87.04 71.68,87.04 C80.16896,87.04 87.04,93.91104 87.04,102.4 Z M122.88,87.04 C114.40128,87.04 107.52,93.91104 107.52,102.4 C107.52,110.88896 114.40128,117.76 122.88,117.76 C131.36896,117.76 138.24,110.88896 138.24,102.4 C138.24,93.91104 131.36896,87.04 122.88,87.04 Z M174.08,87.04 C165.60128,87.04 158.72,93.91104 158.72,102.4 C158.72,110.88896 165.60128,117.76 174.08,117.76 C182.56896,117.76 189.44,110.88896 189.44,102.4 C189.44,93.91104 182.56896,87.04 174.08,87.04 Z" id="Shape"></path>
            </g>
        </g>
    </g>
</svg>