<?xml version="1.0" encoding="UTF-8"?>
<svg width="16px" height="16px" viewBox="0 0 16 16" version="1.1" xmlns="http://www.w3.org/2000/svg" xmlns:xlink="http://www.w3.org/1999/xlink">
    
    <title>Icon/sort-down</title>
    <desc>Created with sketchtool.</desc>
    <g id="Icons" stroke="none" stroke-width="1" fill="none" fill-rule="evenodd">
        <g id="Icon/sort-down" fill="#00205B">
            <path d="M10.750833,5.6248 C10.924958,5.6248 11.0699893,5.74883125 11.1035264,5.91248359 L11.110833,5.9848 L11.110833,10.7718 L13.770833,8.5018 C13.921833,8.3748 14.148833,8.3908 14.277833,8.5418 C14.3892616,8.67122857 14.3912208,8.85649388 14.2944161,8.98865131 L14.237833,9.0498 L10.996833,11.8158 C10.928833,11.8728 10.845833,11.9018 10.762833,11.9018 C10.7074997,11.9018 10.6526108,11.8893556 10.6023145,11.8641704 L10.530833,11.8168 L7.26283304,9.0508 C7.11083304,8.9218 7.09183304,8.6948 7.22083304,8.5428 C7.33140447,8.41251429 7.51471059,8.38141224 7.65928785,8.45516152 L7.72783304,8.5008 L10.389833,10.7538 L10.389833,5.9848 C10.389833,5.7868 10.550833,5.6248 10.750833,5.6248 Z M4.49563304,10.0985 C4.69463304,10.0985 4.85563304,10.2595 4.85563304,10.4585 C4.85563304,10.632625 4.73236742,10.7776562 4.56823656,10.8111934 L4.49563304,10.8185 L1.99563304,10.8185 C1.79663304,10.8185 1.63563304,10.6575 1.63563304,10.4585 C1.63563304,10.284375 1.75889867,10.1393437 1.92302953,10.1058066 L1.99563304,10.0985 L4.49563304,10.0985 Z M1.99563304,7.0985 L6.49563304,7.0985 C6.69463304,7.0985 6.85563304,7.2595 6.85563304,7.4585 C6.85563304,7.632625 6.73236742,7.77765625 6.56823656,7.81119336 L6.49563304,7.8185 L1.99563304,7.8185 C1.79663304,7.8185 1.63563304,7.6575 1.63563304,7.4585 C1.63563304,7.284375 1.75889867,7.13934375 1.92302953,7.10580664 L1.99563304,7.0985 L6.49563304,7.0985 Z M13.995633,4.0982 C14.194633,4.0982 14.355633,4.2592 14.355633,4.4582 C14.355633,4.6572 14.194633,4.8182 13.995633,4.8182 L13.995633,4.8182 L1.99563304,4.8182 C1.79663304,4.8182 1.63563304,4.6572 1.63563304,4.4582 C1.63563304,4.2592 1.79663304,4.0982 1.99563304,4.0982 L1.99563304,4.0982 Z" id="Icon-Color"></path>
        </g>
    </g>
</svg>