<?xml version="1.0" encoding="UTF-8"?>
<svg width="16px" height="16px" viewBox="0 0 16 16" version="1.1" xmlns="http://www.w3.org/2000/svg" xmlns:xlink="http://www.w3.org/1999/xlink">
    
    <title>Icon/sort-up</title>
    <desc>Created with sketchtool.</desc>
    <g id="Icons" stroke="none" stroke-width="1" fill="none" fill-rule="evenodd">
        <g id="Icon/sort-up" fill="#00205B">
            <path d="M4.49613304,10.09895 C4.69513304,10.09895 4.85613304,10.25995 4.85613304,10.45895 C4.85613304,10.65795 4.69513304,10.81895 4.49613304,10.81895 L1.99613304,10.81895 C1.79713304,10.81895 1.63613304,10.65795 1.63613304,10.45895 C1.63613304,10.25995 1.79713304,10.09895 1.99613304,10.09895 L4.49613304,10.09895 Z M6.49613304,7.09895 C6.69513304,7.09895 6.85613304,7.25995 6.85613304,7.45895 C6.85613304,7.65795 6.69513304,7.81895 6.49613304,7.81895 L1.99613304,7.81895 C1.79713304,7.81895 1.63613304,7.65795 1.63613304,7.45895 C1.63613304,7.25995 1.79713304,7.09895 1.99613304,7.09895 L6.49613304,7.09895 Z M1.99613304,4.81865 C1.79713304,4.81865 1.63613304,4.65765 1.63613304,4.45865 C1.63613304,4.25965 1.79713304,4.09865 1.99613304,4.09865 L13.996133,4.09865 C14.195133,4.09865 14.356133,4.25965 14.356133,4.45865 C14.356133,4.65765 14.195133,4.81865 13.996133,4.81865 L1.99613304,4.81865 Z M14.237333,8.47735 C14.388333,8.60635 14.407333,8.83335 14.277333,8.98535 C14.148333,9.13835 13.922333,9.15435 13.770333,9.02535 L11.110333,6.75435 L11.110333,11.54135 C11.110333,11.74035 10.949333,11.90135 10.750333,11.90135 C10.550333,11.90135 10.389333,11.74035 10.389333,11.54135 L10.389333,6.77335 L7.72833304,9.02635 C7.66133304,9.08335 7.57833304,9.11135 7.49633304,9.11135 C7.39433304,9.11135 7.29333304,9.06835 7.22133304,8.98335 C7.09233304,8.83235 7.11133304,8.60435 7.26333304,8.47635 L10.531333,5.71035 C10.666333,5.59735 10.862333,5.59735 10.997333,5.71135 L14.237333,8.47735 Z" id="Icon-Color"></path>
        </g>
    </g>
</svg>