<?xml version="1.0" encoding="UTF-8"?>
<svg width="16px" height="16px" viewBox="0 0 16 16" version="1.1" xmlns="http://www.w3.org/2000/svg" xmlns:xlink="http://www.w3.org/1999/xlink">
    
    <title>Icon/specs</title>
    <desc>Created with sketchtool.</desc>
    <g id="Icons" stroke="none" stroke-width="1" fill="none" fill-rule="evenodd">
        <g id="Icon/specs" fill="#00205B">
            <path d="M4.71305,14.55925 L14.56705,14.55925 L14.56705,4.58825 L4.71305,4.58825 L4.71305,14.55925 Z M14.92805,3.86825 C15.12705,3.86825 15.28805,4.02925 15.28805,4.22825 L15.28805,14.91925 C15.28805,15.11825 15.12705,15.27925 14.92805,15.27925 L4.35305,15.27925 C4.15405,15.27925 3.99305,15.11825 3.99305,14.91925 L3.99305,4.22825 C3.99305,4.02925 4.15405,3.86825 4.35305,3.86825 L14.92805,3.86825 Z M2.08195,5.70255 L2.08195,13.44455 L2.72795,13.44455 L1.71895,14.84455 L0.71595,13.44455 L1.36095,13.44455 L1.36095,5.70255 L0.71195,5.70255 L1.72395,4.30355 L2.72395,5.70255 L2.08195,5.70255 Z M5.84855,2.09075 L5.84855,2.73675 L4.44955,1.72775 L5.84855,0.72475 L5.84855,1.37075 L13.59155,1.37075 L13.59155,0.72075 L14.99055,1.73175 L13.59155,2.73175 L13.59155,2.09075 L5.84855,2.09075 Z" id="Icon-Color"></path>
        </g>
    </g>
</svg>