<?xml version="1.0" encoding="UTF-8"?>
<svg width="256px" height="256px" viewBox="0 0 256 256" version="1.1" xmlns="http://www.w3.org/2000/svg" xmlns:xlink="http://www.w3.org/1999/xlink">
    
    <title>specs</title>
    <desc>Created with sketchtool.</desc>
    <defs></defs>
    <g id="Page-1" stroke="none" stroke-width="1" fill="none" fill-rule="evenodd">
        <g id="specs" fill="#000000" fill-rule="nonzero">
            <path d="M28.49707,76.8249122 L39.745605,76.8249122 L22.9184204,46.2915138 L6,76.8249122 L17.248535,76.8249122 L17.248535,215.466602 L6,215.466602 L22.8271846,246 L39.745605,215.466602 L28.49707,215.466602 L28.49707,76.8249122 Z M76.7528751,17.2419476 L76.7528751,5.99341259 L46.2194767,22.8205972 L76.7528751,39.7390176 L76.7528751,28.4904826 L215.460639,28.4904826 L215.460639,39.7390176 L245.994037,22.8205972 L215.460639,5.99341259 L215.460639,17.2419476 L76.7528751,17.2419476 Z M245.968747,45.9791765 L245.968747,245.875059 L45.9947911,245.875059 L45.9947911,45.9791765 L245.968747,45.9791765 Z M225.971351,65.9687648 L65.9921866,65.9687648 L65.9921866,225.885471 L225.971351,225.885471 L225.971351,65.9687648 Z"></path>
        </g>
    </g>
</svg>