<?xml version="1.0" encoding="UTF-8"?>
<svg width="256px" height="256px" viewBox="0 0 256 256" version="1.1" xmlns="http://www.w3.org/2000/svg" xmlns:xlink="http://www.w3.org/1999/xlink">
    
    <title>speed</title>
    <desc>Created with sketchtool.</desc>
    <defs></defs>
    <g id="Page-1" stroke="none" stroke-width="1" fill="none" fill-rule="evenodd">
        <g id="speed" fill="#000000" fill-rule="nonzero">
            <path d="M164.493333,140.506667 L189.096,102.930667 L184.858667,99.1413333 L150.577333,128.065333 C144.277333,126.777333 137.492,128.7 132.9,133.833333 C126.030667,141.514667 126.693333,153.321333 134.384,160.190667 C142.074667,167.06 153.872,166.397333 160.741333,158.706667 C165.333333,153.573333 166.481333,146.62 164.493333,140.506667 Z M128,41.144 L128,16 L165.333333,16 L165.333333,41.144 C151.902667,38.876 141.141333,38.9226667 128,41.144 Z M210.609333,60.408 L223.741333,47.276 L236.938667,60.4733333 L224.609333,72.8026667 C220.297333,68.2853333 215.612,64.1506667 210.609333,60.408 Z M34.6666667,100 L109.333333,100 L109.333333,118.666667 L34.6666667,118.666667 L34.6666667,100 Z M16,137.333333 L90.6666667,137.333333 L90.6666667,156 L16,156 L16,137.333333 Z M44,174.666667 L109.333333,174.666667 L109.333333,193.333333 L44,193.333333 L44,174.666667 Z M240,146.666667 C240,198.214667 198.214667,240 146.666667,240 C120.626667,240 97.2,229.22 80.2973333,212 L110.910667,212 C121.532,217.889333 133.674667,221.333333 146.666667,221.333333 C187.836,221.333333 221.333333,187.836 221.333333,146.666667 C221.333333,105.497333 187.836,72 146.666667,72 C133.674667,72 121.532,75.444 110.910667,81.3333333 L80.2973333,81.3333333 C97.2,64.1133333 120.626667,53.3333333 146.666667,53.3333333 C198.214667,53.3333333 240,95.1186667 240,146.666667 Z"></path>
        </g>
    </g>
</svg>