<?xml version="1.0" encoding="UTF-8"?>
<svg width="256px" height="256px" viewBox="0 0 256 256" version="1.1" xmlns="http://www.w3.org/2000/svg" xmlns:xlink="http://www.w3.org/1999/xlink">
    
    <title>speed</title>
    <desc>Created with sketchtool.</desc>
    <defs></defs>
    <g id="Page-1" stroke="none" stroke-width="1" fill="none" fill-rule="evenodd">
        <g id="speed" fill="#000000" fill-rule="nonzero">
            <path d="M167.1,141.4 L193.46,101.14 L188.92,97.08 L152.19,128.07 C145.44,126.69 138.17,128.75 133.25,134.25 C125.89,142.48 126.6,155.13 134.84,162.49 C143.08,169.85 155.72,169.14 163.08,160.9 C168,155.4 169.23,147.95 167.1,141.4 L167.1,141.4 Z M128,34.94 L128,8 L168,8 L168,34.94 C153.61,32.51 142.08,32.56 128,34.94 Z M216.51,55.58 L230.58,41.51 L244.72,55.65 L231.51,68.86 C226.89,64.02 221.87,59.59 216.51,55.58 L216.51,55.58 Z M28,98 L108,98 L108,118 L28,118 L28,98 Z M8,138 L88,138 L88,158 L8,158 L8,138 Z M38,178 L108,178 L108,198 L38,198 L38,178 Z M248,148 C248,203.23 203.23,248 148,248 C120.1,248 95,236.45 76.89,218 L109.69,218 C121.07,224.31 134.08,228 148,228 C192.11,228 228,192.11 228,148 C228,103.89 192.11,68 148,68 C134.08,68 121.07,71.69 109.69,78 L76.89,78 C95,59.55 120.1,48 148,48 C203.23,48 248,92.77 248,148 Z"></path>
        </g>
    </g>
</svg>