<?xml version="1.0" encoding="UTF-8"?>
<svg width="16px" height="16px" viewBox="0 0 16 16" version="1.1" xmlns="http://www.w3.org/2000/svg" xmlns:xlink="http://www.w3.org/1999/xlink">
    
    <title>Icon/stack-o</title>
    <desc>Created with sketchtool.</desc>
    <g id="Icons" stroke="none" stroke-width="1" fill="none" fill-rule="evenodd">
        <g id="Icon/stack-o" fill="#00205B">
            <path d="M12.8575,8.957875 C12.8555,8.958875 12.8535,8.957875 12.8515,8.958875 L8.0005,11.977875 L3.1475,8.959875 L3.1465,8.959875 L1.6015,7.999875 L2.9575,7.157875 L7.8095,10.174875 C7.8685,10.210875 7.9335,10.228875 8.0005,10.228875 C8.0665,10.228875 8.1315,10.210875 8.1905,10.174875 L13.0445,7.157875 L14.3985,7.999875 L12.8575,8.957875 Z M14.3985,10.531875 L8.0005,14.509875 L1.6015,10.531875 L2.9575,9.689875 L7.8095,12.707875 C7.8685,12.743875 7.9335,12.761875 8.0005,12.761875 C8.0665,12.761875 8.1315,12.743875 8.1905,12.707875 L13.0445,9.689875 L14.3985,10.531875 Z M8.0005,1.489875 L14.3985,5.466875 L12.8575,6.425875 C12.8555,6.426875 12.8535,6.425875 12.8515,6.426875 L8.0005,9.445875 L3.1475,6.427875 L3.1465,6.427875 L1.6015,5.466875 L8.0005,1.489875 Z M15.4405,7.999875 C15.4405,7.874875 15.3765,7.758875 15.2705,7.693875 L13.7255,6.732875 L15.2705,5.772875 C15.3765,5.707875 15.4405,5.591875 15.4405,5.466875 C15.4405,5.342875 15.3765,5.226875 15.2705,5.161875 L8.1905,0.760875 C8.0735,0.687875 7.9265,0.687875 7.8095,0.760875 L0.7295,5.161875 C0.6245,5.226875 0.5595,5.342875 0.5595,5.466875 C0.5595,5.591875 0.6245,5.707875 0.7295,5.772875 L2.2745,6.733875 L0.7295,7.693875 C0.6245,7.758875 0.5595,7.874875 0.5595,7.999875 C0.5595,8.123875 0.6245,8.239875 0.7295,8.304875 L2.2745,9.265875 L0.7295,10.225875 C0.6245,10.290875 0.5595,10.406875 0.5595,10.531875 C0.5595,10.655875 0.6245,10.771875 0.7295,10.836875 L7.8095,15.239875 C7.8685,15.275875 7.9335,15.293875 8.0005,15.293875 C8.0665,15.293875 8.1315,15.275875 8.1905,15.239875 L15.2705,10.836875 C15.3765,10.771875 15.4405,10.655875 15.4405,10.531875 C15.4405,10.406875 15.3765,10.290875 15.2705,10.225875 L13.7255,9.265875 L15.2705,8.304875 C15.3765,8.239875 15.4405,8.123875 15.4405,7.999875 L15.4405,7.999875 Z" id="Icon-Color"></path>
        </g>
    </g>
</svg>