<?xml version="1.0" encoding="UTF-8"?>
<svg width="16px" height="16px" viewBox="0 0 16 16" version="1.1" xmlns="http://www.w3.org/2000/svg" xmlns:xlink="http://www.w3.org/1999/xlink">
    
    <title>Icon/star</title>
    <desc>Created with sketchtool.</desc>
    <g id="Icons" stroke="none" stroke-width="1" fill="none" fill-rule="evenodd">
        <g id="Icon/star" fill="#00205B">
            <path d="M15.9768342,6.20795881 C15.934172,6.07136901 15.8159359,5.97090979 15.6725762,5.94944618 L10.6155983,5.22561083 L8.338909,0.706810102 C8.27555957,0.580956281 8.14571654,0.500973519 8.00317603,0.5 C7.86132687,0.503283036 7.73259585,0.582580803 7.66744305,0.706810102 L5.40124545,5.23595133 L0.344267484,5.95978669 C0.194606891,5.9692904 0.0658495604,6.06753739 0.019026162,6.20795881 C-0.0261101923,6.34280348 0.0105166454,6.49121115 0.113451062,6.5905575 L3.79602216,10.1166697 L2.9357064,15.0801122 C2.91383798,15.2204601 2.97488271,15.3608458 3.09308123,15.4420299 C3.21440578,15.5193234 3.3704396,15.5193234 3.49176415,15.4420299 L8.01366768,13.0947352 L12.5460629,15.4420299 C12.6688068,15.514427 12.8220018,15.514427 12.9447458,15.4420299 C13.0570636,15.356859 13.1133654,15.2181323 13.091629,15.0801122 L12.2208216,10.1063292 L15.8824093,6.58021699 C15.9911212,6.48862033 16.0290221,6.33920089 15.9768342,6.20795881 Z" id="Icon-Color"></path>
        </g>
    </g>
</svg>