<?xml version="1.0" encoding="UTF-8"?>
<svg width="16px" height="16px" viewBox="0 0 16 16" version="1.1" xmlns="http://www.w3.org/2000/svg" xmlns:xlink="http://www.w3.org/1999/xlink">
    
    <title>Icon/star-o</title>
    <desc>Created with sketchtool.</desc>
    <g id="Icons" stroke="none" stroke-width="1" fill="none" fill-rule="evenodd">
        <g id="Icon/star-o" fill="#00205B">
            <path d="M1.51801093,6.6235 L4.62501093,9.6495 C4.71001093,9.7325 4.74901093,9.8515 4.72901093,9.9685 L4.00001093,14.2435 L7.83501093,12.2225 C7.94101093,12.1665 8.06701093,12.1675 8.17001093,12.2225 L12.0100109,14.2385 L11.2750109,9.9645 C11.2540109,9.8485 11.2930109,9.7285 11.3780109,9.6455 L14.4820109,6.6175 L10.1900109,5.9965 C10.0720109,5.9785 9.97101093,5.9055 9.91901093,5.7995 L7.99701093,1.9125 L6.08001093,5.8015 C6.02801093,5.9085 5.92601093,5.9815 5.80901093,5.9985 L1.51801093,6.6235 Z M3.52301093,15.2615 C3.44801093,15.2615 3.37401093,15.2385 3.31201093,15.1935 C3.20001093,15.1125 3.14501093,14.9765 3.16801093,14.8415 L3.98701093,10.0335 L0.493010927,6.6305 C0.395010927,6.5355 0.360010927,6.3925 0.402010927,6.2615 C0.445010927,6.1315 0.557010927,6.0365 0.693010927,6.0165 L5.51801093,5.3135 L7.67301093,0.9395 C7.73401093,0.8165 7.85901093,0.7385 7.99601093,0.7385 C8.13301093,0.7385 8.25801093,0.8165 8.31901093,0.9385 L10.4810109,5.3105 L15.3070109,6.0095 C15.4430109,6.0295 15.5550109,6.1235 15.5980109,6.2545 C15.6400109,6.3845 15.6050109,6.5275 15.5060109,6.6235 L12.0160109,10.0295 L12.8430109,14.8345 C12.8660109,14.9695 12.8110109,15.1065 12.7000109,15.1865 C12.5890109,15.2675 12.4430109,15.2775 12.3210109,15.2145 L8.00301093,12.9475 L3.69101093,15.2205 C3.63801093,15.2475 3.58001093,15.2615 3.52301093,15.2615 L3.52301093,15.2615 Z" id="Icon-Color"></path>
        </g>
    </g>
</svg>