<?xml version="1.0" encoding="UTF-8"?>
<svg width="16px" height="16px" viewBox="0 0 16 16" version="1.1" xmlns="http://www.w3.org/2000/svg" xmlns:xlink="http://www.w3.org/1999/xlink">
    
    <title>Icon/star</title>
    <desc>Created with sketchtool.</desc>
    <g id="Icons" stroke="none" stroke-width="1" fill="none" fill-rule="evenodd">
        <g id="Icon/star">
            <g id="Group">
                <path d="M15.977,6.208 C15.9336808,6.07053824 15.8155975,5.96993439 15.673,5.949 L10.616,5.226 L8.339,0.706 C8.27449174,0.579758156 8.14476836,0.500225366 8.003,0.5 C7.86171513,0.502847966 7.73308716,0.58209198 7.667,0.707 L5.401,5.236 L0.344,5.96 C0.198850377,5.96904217 0.0728253604,6.06316419 0.0229512593,6.19977586 C-0.0269228418,6.33638752 0.00881758514,6.48956677 0.114,6.59 L3.796,10.117 L2.936,15.08 C2.91425715,15.220832 2.97532342,15.3616345 3.093,15.442 C3.214751,15.5193593 3.370249,15.5193593 3.492,15.442 L8.014,13.095 L12.546,15.442 C12.6691101,15.5145357 12.8218899,15.5145357 12.945,15.442 C13.0570316,15.3576933 13.1135364,15.2185456 13.092,15.08 L12.221,10.106 L15.882,6.58 C15.9905137,6.48942296 16.0287963,6.33951642 15.977,6.208 L15.977,6.208 Z" id="Background" fill="#F2F3F3"></path>
                <path d="M15.977,6.208 C15.9336808,6.07053824 15.8155975,5.96993439 15.673,5.949 L10.616,5.226 L8.339,0.706 C8.27449174,0.579758156 8.14476836,0.500225366 8.003,0.5 C7.86171513,0.502847966 7.73308716,0.58209198 7.667,0.707 L5.401,5.236 L0.344,5.96 C0.198850377,5.96904217 0.0728253604,6.06316419 0.0229512593,6.19977586 C-0.0269228418,6.33638752 0.00881758514,6.48956677 0.114,6.59 L3.796,10.117 L2.936,15.08 C2.91425715,15.220832 2.97532342,15.3616345 3.093,15.442 C3.214751,15.5193593 3.370249,15.5193593 3.492,15.442 L8.014,13.095 L12.546,15.442 C12.6691101,15.5145357 12.8218899,15.5145357 12.945,15.442 C13.0570316,15.3576933 13.1135364,15.2185456 13.092,15.08 L12.221,10.106 L15.882,6.58 C15.9905137,6.48942296 16.0287963,6.33951642 15.977,6.208 L15.977,6.208 Z" id="Foreground" fill="#00205B"></path>
            </g>
        </g>
    </g>
</svg>