<?xml version="1.0" encoding="UTF-8"?>
<svg width="16px" height="16px" viewBox="0 0 16 16" version="1.1" xmlns="http://www.w3.org/2000/svg" xmlns:xlink="http://www.w3.org/1999/xlink">
    
    <title>Icon/store</title>
    <desc>Created with sketchtool.</desc>
    <g id="Icons" stroke="none" stroke-width="1" fill="none" fill-rule="evenodd">
        <g id="Icon/store" fill="#00205B">
            <path d="M1.289,6.0295 L2.882,3.2105 L3.728,3.2105 L3.728,4.0315 C3.728,4.2305 3.89,4.3915 4.089,4.3915 L12.089,4.3915 C12.288,4.3915 12.449,4.2305 12.449,4.0315 L12.449,3.2105 L13.118,3.2105 L14.711,6.0295 L1.289,6.0295 Z M13.728,14.0015 C13.728,14.3305 13.508,14.6075 13.245,14.6075 L11.449,14.6075 L11.449,10.0315 C11.449,9.8325 11.288,9.6715 11.089,9.6715 L5.089,9.6715 C4.89,9.6715 4.728,9.8325 4.728,10.0315 L4.728,14.6075 L2.933,14.6075 C2.67,14.6075 2.449,14.3305 2.449,14.0015 L2.449,6.7505 L13.728,6.7505 L13.728,14.0015 Z M5.449,14.6075 L10.728,14.6075 L10.728,10.3915 L5.449,10.3915 L5.449,14.6075 Z M4.449,3.6705 L11.728,3.6705 L11.728,1.3915 L4.449,1.3915 L4.449,3.6705 Z M15.642,6.2135 L13.642,2.6735 C13.578,2.5595 13.458,2.4895 13.328,2.4895 L12.449,2.4895 L12.449,1.0315 C12.449,0.8325 12.288,0.6715 12.089,0.6715 L4.089,0.6715 C3.89,0.6715 3.728,0.8325 3.728,1.0315 L3.728,2.4895 L2.672,2.4895 C2.542,2.4895 2.422,2.5595 2.358,2.6735 L0.358,6.2135 C0.296,6.3245 0.297,6.4615 0.361,6.5715 C0.426,6.6815 0.544,6.7505 0.672,6.7505 L1.728,6.7505 L1.728,14.0015 C1.728,14.7325 2.268,15.3285 2.933,15.3285 L13.245,15.3285 C13.909,15.3285 14.449,14.7325 14.449,14.0015 L14.449,6.7505 L15.328,6.7505 C15.456,6.7505 15.574,6.6815 15.639,6.5715 C15.703,6.4615 15.704,6.3245 15.642,6.2135 L15.642,6.2135 Z" id="Icon-Color"></path>
        </g>
    </g>
</svg>