<?xml version="1.0" encoding="UTF-8"?>
<svg width="16px" height="16px" viewBox="0 0 16 16" version="1.1" xmlns="http://www.w3.org/2000/svg" xmlns:xlink="http://www.w3.org/1999/xlink">
    
    <title>Icon/twitter</title>
    <desc>Created with sketchtool.</desc>
    <g id="Icons" stroke="none" stroke-width="1" fill="none" fill-rule="evenodd">
        <g id="Icon/twitter" fill="#00205B">
            <path d="M16,3.038 C15.4113333,3.29933333 14.7786667,3.47533333 14.1146667,3.55466667 C14.7926667,3.14866667 15.3133333,2.50533333 15.558,1.73866667 C14.924,2.11466667 14.2213333,2.388 13.4733333,2.53533333 C12.8753333,1.89733333 12.0213333,1.49866667 11.0773333,1.49866667 C8.958,1.49866667 7.40066667,3.476 7.87933333,5.52866667 C5.152,5.392 2.73333333,4.08533333 1.114,2.09933333 C0.254,3.57466667 0.668,5.50466667 2.12933333,6.482 C1.592,6.46466667 1.08533333,6.31733333 0.643333333,6.07133333 C0.607333333,7.592 1.69733333,9.01466667 3.276,9.33133333 C2.814,9.45666667 2.308,9.486 1.79333333,9.38733333 C2.21066667,10.6913333 3.42266667,11.64 4.86,11.6666667 C3.48,12.7486667 1.74133333,13.232 0,13.0266667 C1.45266667,13.958 3.17866667,14.5013333 5.032,14.5013333 C11.1266667,14.5013333 14.57,9.354 14.362,4.73733333 C15.0033333,4.274 15.56,3.696 16,3.038 Z" id="Icon-Color"></path>
        </g>
    </g>
</svg>