<?xml version="1.0" encoding="UTF-8"?>
<svg width="16px" height="16px" viewBox="0 0 16 16" version="1.1" xmlns="http://www.w3.org/2000/svg" xmlns:xlink="http://www.w3.org/1999/xlink">
    
    <title>Icon/twitter</title>
    <desc>Created with sketchtool.</desc>
    <g id="Icons" stroke="none" stroke-width="1" fill="none" fill-rule="evenodd">
        <g id="Icon/twitter" fill="#00205B">
            <path d="M16,3.53933333 C15.4113333,3.80066667 14.7786667,3.97666667 14.1146667,4.056 C14.7926667,3.65 15.3133333,3.00666667 15.558,2.24 C14.924,2.616 14.2213333,2.88933333 13.4733333,3.03666667 C12.8753333,2.39866667 12.0213333,2 11.0773333,2 C8.958,2 7.40066667,3.97733333 7.87933333,6.03 C5.152,5.89333333 2.73333333,4.58666667 1.114,2.60066667 C0.254,4.076 0.668,6.006 2.12933333,6.98333333 C1.592,6.966 1.08533333,6.81866667 0.643333333,6.57266667 C0.607333333,8.09333333 1.69733333,9.516 3.276,9.83266667 C2.814,9.958 2.308,9.98733333 1.79333333,9.88866667 C2.21066667,11.1926667 3.42266667,12.1413333 4.86,12.168 C3.48,13.25 1.74133333,13.7333333 0,13.528 C1.45266667,14.4593333 3.17866667,15.0026667 5.032,15.0026667 C11.1266667,15.0026667 14.57,9.85533333 14.362,5.23866667 C15.0033333,4.77533333 15.56,4.19733333 16,3.53933333 Z" id="Icon-Color"></path>
        </g>
    </g>
</svg>