<?xml version="1.0" encoding="UTF-8"?>
<svg width="16px" height="16px" viewBox="0 0 16 16" version="1.1" xmlns="http://www.w3.org/2000/svg" xmlns:xlink="http://www.w3.org/1999/xlink">
    
    <title>Icon/twitter</title>
    <desc>Created with sketchtool.</desc>
    <g id="Icons" stroke="none" stroke-width="1" fill="none" fill-rule="evenodd">
        <g id="Icon/twitter" fill="#00205B">
            <path d="M5.067,14.5125 C11.035,14.5125 14.297,9.5685 14.297,5.2815 C14.297,5.1405 14.296,5.0005 14.289,4.8615 C14.922,4.4035 15.473,3.8315 15.907,3.1815 C15.326,3.4395 14.7,3.6145 14.044,3.6925 C14.713,3.2905 15.228,2.6555 15.47,1.8975 C14.843,2.2695 14.15,2.5395 13.411,2.6855 C12.818,2.0545 11.975,1.6595 11.043,1.6595 C9.251,1.6595 7.797,3.1135 7.797,4.9045 C7.797,5.1585 7.826,5.4065 7.881,5.6445 C5.185,5.5085 2.794,4.2175 1.194,2.2535 C0.915,2.7335 0.755,3.2905 0.755,3.8845 C0.755,5.0105 1.328,6.0045 2.198,6.5855 C1.667,6.5695 1.166,6.4225 0.729,6.1795 C0.728,6.1935 0.728,6.2065 0.728,6.2215 C0.728,7.7925 1.846,9.1045 3.331,9.4025 C3.058,9.4765 2.772,9.5165 2.476,9.5165 C2.267,9.5165 2.063,9.4945 1.866,9.4575 C2.279,10.7465 3.476,11.6845 4.897,11.7105 C3.786,12.5805 2.387,13.0995 0.867,13.0995 C0.605,13.0995 0.347,13.0845 0.093,13.0545 C1.529,13.9755 3.234,14.5125 5.067,14.5125" id="Icon-Color"></path>
        </g>
    </g>
</svg>