<?xml version="1.0" encoding="UTF-8"?>
<svg width="256px" height="256px" viewBox="0 0 256 256" version="1.1" xmlns="http://www.w3.org/2000/svg" xmlns:xlink="http://www.w3.org/1999/xlink">
    
    <title>twitter</title>
    <desc>Created with sketchtool.</desc>
    <defs></defs>
    <g id="Page-1" stroke="none" stroke-width="1" fill="none" fill-rule="evenodd">
        <g id="twitter" fill="#000000" fill-rule="nonzero">
            <path d="M128,16 C66.148,16 16,66.148 16,128 C16,189.852 66.148,240 128,240 C189.852,240 240,189.852 240,128 C240,66.148 189.852,16 128,16 Z M184.616,106.02 C186.324,143.726667 158.202667,185.764 108.418667,185.764 C93.28,185.764 79.196,181.321333 67.3333333,173.714667 C81.5573333,175.394667 95.7533333,171.437333 107.018667,162.617333 C95.296,162.402667 85.3933333,154.646667 81.968,143.997333 C86.1773333,144.8 90.3213333,144.566667 94.0826667,143.54 C81.1933333,140.945333 72.2893333,129.334667 72.5786667,116.912 C76.2,118.918667 80.3253333,120.122667 84.7213333,120.262667 C72.784,112.282667 69.4053333,96.5186667 76.424,84.4693333 C89.64,100.690667 109.398667,111.358667 131.677333,112.478667 C127.766667,95.716 140.488,79.56 157.801333,79.56 C165.501333,79.56 172.473333,82.8173333 177.364,88.0253333 C183.468,86.8306667 189.217333,84.5906667 194.388,81.52 C192.381333,87.7826667 188.134667,93.028 182.6,96.3506667 C188.022667,95.6973333 193.193333,94.26 197.990667,92.1226667 C194.406667,97.5173333 189.870667,102.24 184.616,106.02 Z"></path>
        </g>
    </g>
</svg>