<?xml version="1.0" encoding="UTF-8"?>
<svg width="16px" height="16px" viewBox="0 0 16 16" version="1.1" xmlns="http://www.w3.org/2000/svg" xmlns:xlink="http://www.w3.org/1999/xlink">
    
    <title>Icon/unlink</title>
    <desc>Created with sketchtool.</desc>
    <g id="Icons" stroke="none" stroke-width="1" fill="none" fill-rule="evenodd">
        <g id="Icon/unlink" fill="#00205B">
            <path d="M4.40384567,6.91538887 C4.54443728,7.05598048 4.54443728,7.2833201 4.40384567,7.42291461 L1.58503372,10.245715 C0.435373242,11.3973697 0.436370345,13.2709274 1.58802503,14.421585 C2.73967972,15.5702483 4.61323743,15.5702483 5.76389502,14.4175965 L8.58270697,11.5947962 C8.72230148,11.4542046 8.95163531,11.4552017 9.09023271,11.5947962 C9.23082432,11.7343907 9.23082432,11.9617303 9.09122982,12.1023219 L6.27142076,14.9251223 C5.55649746,15.6420398 4.61423454,16 3.67396582,16 C2.73569131,16 1.79641969,15.644034 1.08049929,14.9301078 C-0.350344415,13.4992641 -0.352338623,11.1710271 1.07750798,9.73818923 L3.89631993,6.91638597 C4.03591443,6.77579436 4.26425116,6.77679146 4.40384567,6.91538887 Z M3.9557473,3.24185969 L12.7511984,12.0522673 C12.89179,12.1918618 12.89179,12.4192015 12.7502013,12.5597931 C12.680404,12.6295903 12.5886705,12.664489 12.496937,12.664489 C12.4052034,12.664489 12.3124728,12.6295903 12.2426755,12.5597931 L3.44722445,3.74938543 C3.30663284,3.60879382 3.30663284,3.3814542 3.44822156,3.24185969 C3.58582186,3.10226518 3.81515569,3.10226518 3.9557473,3.24185969 Z M14.9185028,1.0702677 C16.3503436,2.5011114 16.3523378,4.82934837 14.9234883,6.26218628 L12.1046764,9.08498664 C12.0348791,9.1547839 11.9421485,9.18968253 11.850415,9.18968253 C11.7586814,9.18968253 11.6659508,9.1547839 11.5961535,9.08498664 C11.4555619,8.94439503 11.4555619,8.71705541 11.5961535,8.5774609 L14.4149655,5.75466053 C15.564626,4.60200874 15.5636289,2.72944813 14.4109771,1.57879055 C13.2603195,0.430127173 11.3877589,0.430127173 10.2371013,1.58277896 L7.41828935,4.40557933 C7.27769774,4.54517384 7.05035812,4.54517384 6.9097665,4.40557933 C6.76917489,4.26598482 6.76917489,4.03764809 6.9097665,3.89805358 L9.72857845,1.07525322 C11.1584251,-0.356587588 13.4856649,-0.358581795 14.9185028,1.0702677 Z" id="Icon-Color"></path>
        </g>
    </g>
</svg>