<?xml version="1.0" encoding="UTF-8"?>
<svg width="16px" height="16px" viewBox="0 0 16 16" version="1.1" xmlns="http://www.w3.org/2000/svg" xmlns:xlink="http://www.w3.org/1999/xlink">
    
    <title>Icon/unlock</title>
    <desc>Created with sketchtool.</desc>
    <g id="Icons" stroke="none" stroke-width="1" fill="none" fill-rule="evenodd">
        <g id="Icon/unlock" fill="#00205B">
            <path d="M2.765,14.6985 L13.234,14.6985 L13.234,6.9185 L2.765,6.9185 L2.765,14.6985 Z M13.595,6.1985 L11.378,6.1985 L11.378,3.6985 C11.378,1.9795 10.076,0.5815 8.478,0.5815 L7.347,0.5815 C6.69,0.5815 6.045,0.8255 5.532,1.2705 C5.383,1.4005 5.366,1.6275 5.496,1.7775 C5.627,1.9285 5.855,1.9445 6.005,1.8145 C6.392,1.4785 6.856,1.3005 7.347,1.3005 L8.478,1.3005 C9.68,1.3005 10.657,2.3765 10.657,3.6985 L10.657,6.1985 L2.405,6.1985 C2.206,6.1985 2.045,6.3595 2.045,6.5585 L2.045,15.0585 C2.045,15.2575 2.206,15.4185 2.405,15.4185 L13.595,15.4185 C13.794,15.4185 13.955,15.2575 13.955,15.0585 L13.955,6.5585 C13.955,6.3595 13.794,6.1985 13.595,6.1985 L13.595,6.1985 Z" id="Icon-Color"></path>
        </g>
    </g>
</svg>