<?xml version="1.0" encoding="UTF-8"?>
<svg width="256px" height="256px" viewBox="0 0 256 256" version="1.1" xmlns="http://www.w3.org/2000/svg" xmlns:xlink="http://www.w3.org/1999/xlink">
    
    <title>upload</title>
    <desc>Created with sketchtool.</desc>
    <defs></defs>
    <g id="Page-1" stroke="none" stroke-width="1" fill="none" fill-rule="evenodd">
        <g id="upload" fill="#000000" fill-rule="nonzero">
            <path d="M168,162 L138,162 L138,212 L118,212 L118,162 L88,162 L128,122 L168,162 Z M202.79,102.92 C200.67,63.41 168.06,32 128,32 C87.94,32 55.33,63.41 53.21,102.92 C27.51,107.55 8,129.98 8,157 C8,187.37 32.63,212 63,212 L98,212 L98,192 L63,192 C43.7,192 28,176.3 28,157 C28,129.03 52.79,118.67 72.33,119.8 C70.66,77.62 94.41,52 128,52 C162.53,52 186.91,79.97 183.67,119.8 C201.12,119.34 228,127.31 228,157 C228,176.3 212.3,192 193,192 L158,192 L158,212 L193,212 C223.37,212 248,187.37 248,157 C248,129.98 228.49,107.55 202.79,102.92 Z"></path>
        </g>
    </g>
</svg>