<?xml version="1.0" encoding="UTF-8"?>
<svg width="256px" height="256px" viewBox="0 0 256 256" version="1.1" xmlns="http://www.w3.org/2000/svg" xmlns:xlink="http://www.w3.org/1999/xlink">
    
    <title>upload</title>
    <desc>Created with sketchtool.</desc>
    <defs></defs>
    <g id="Page-1" stroke="none" stroke-width="1" fill="none" fill-rule="evenodd">
        <g id="upload" fill="#000000" fill-rule="nonzero">
            <path d="M168,168 L138,168 L138,218 L118,218 L118,168 L88,168 L128,128 L168,168 Z M202.79,108.92 C200.67,69.41 168.06,38 128,38 C87.94,38 55.33,69.41 53.21,108.92 C27.51,113.55 8,135.98 8,163 C8,193.37 32.63,218 63,218 L98,218 L98,198 L63,198 C43.7,198 28,182.3 28,163 C28,135.03 52.79,124.67 72.33,125.8 C70.66,83.62 94.41,58 128,58 C162.53,58 186.91,85.97 183.67,125.8 C201.12,125.34 228,133.31 228,163 C228,182.3 212.3,198 193,198 L158,198 L158,218 L193,218 C223.37,218 248,193.37 248,163 C248,135.98 228.49,113.55 202.79,108.92 Z"></path>
        </g>
    </g>
</svg>