<?xml version="1.0" encoding="UTF-8"?>
<svg width="16px" height="16px" viewBox="0 0 16 16" version="1.1" xmlns="http://www.w3.org/2000/svg" xmlns:xlink="http://www.w3.org/1999/xlink">
    
    <title>Icon/upload</title>
    <desc>Created with sketchtool.</desc>
    <g id="Icons" stroke="none" stroke-width="1" fill="none" fill-rule="evenodd">
        <g id="Icon/upload" fill="#00205B">
            <path d="M6.93157452,6.43335763 C7.07021015,6.31230009 7.27402522,6.31335277 7.41266085,6.4344103 L7.41266085,6.4344103 L10.5402392,9.15030973 C10.696463,9.2861047 10.7161203,9.52506174 10.581623,9.68401555 C10.4481604,9.8450747 10.2143421,9.86507551 10.0570837,9.72612252 L10.0570837,9.72612252 L7.53163919,7.53234949 L7.53163919,14.1210373 C7.53163919,14.3305195 7.36506951,14.5 7.15815066,14.5 C6.95226641,14.5 6.78569673,14.3305195 6.78569673,14.1210373 L6.78569673,14.1210373 L6.78569673,7.55129762 L4.25921759,9.72717519 C4.18886518,9.78823029 4.10299386,9.81770517 4.01815713,9.81770517 C3.91366311,9.81770517 3.8081345,9.77138751 3.73467831,9.68296287 C3.60121565,9.52400907 3.61983834,9.28399935 3.77813126,9.14925705 L3.77813126,9.14925705 Z M6.67934045,1.5 C9.39515034,1.5 11.6774652,3.48639621 12.1430327,6.18229483 C12.2847721,6.16334669 12.4203039,6.15281995 12.552732,6.15281995 C14.4532816,6.15281995 16,7.72656788 16,9.66138305 C16,10.1435078 15.9368898,10.5487874 15.785839,11.0603871 C15.1909473,12.4730758 14.2784352,13.1688935 13.0607177,13.1688935 L13.0607177,13.1688935 L10.5942451,13.1688935 C10.3883608,13.1688935 10.2217911,12.9994129 10.2217911,12.7899308 C10.2217911,12.5793959 10.3883608,12.4099154 10.5942451,12.4099154 L10.5942451,12.4099154 L13.0607177,12.4099154 C13.9784028,12.4099154 14.6219205,11.8993684 15.0864533,10.8003765 C15.2023278,10.4056237 15.2540575,10.0635046 15.2540575,9.66138305 C15.2540575,8.14553221 14.0425477,6.91179805 12.552732,6.91179805 C12.3571937,6.91179805 12.1544132,6.9381149 11.9174911,6.99706466 C11.8119625,7.02127617 11.7022955,7.00127536 11.614355,6.9381149 C11.5264145,6.87600713 11.4695118,6.77705575 11.4581313,6.66757763 C11.2025865,4.15484433 9.14788231,2.2589781 6.67934045,2.2589781 C4.01422567,2.2589781 1.84675073,4.46433054 1.84675073,7.1749666 C1.84675073,7.51287502 1.88296153,7.85183611 1.95848691,8.20974533 C1.99262852,8.37185716 1.91917232,8.53923236 1.77536372,8.62028827 C1.14012286,8.98030285 0.745942451,9.65611968 0.745942451,10.3835176 C0.745942451,11.5014575 1.63879728,12.4099154 2.73857097,12.4099154 L2.73857097,12.4099154 L4.3866796,12.4099154 C4.59359845,12.4099154 4.76016812,12.5793959 4.76016812,12.7899308 C4.76016812,12.9994129 4.59359845,13.1688935 4.3866796,13.1688935 L4.3866796,13.1688935 L2.73857097,13.1688935 C1.22909796,13.1688935 -4.08562073e-14,11.9193692 -4.08562073e-14,10.3835176 C-4.08562073e-14,9.47295437 0.446944714,8.62449897 1.18047203,8.10553059 C1.12770773,7.78972833 1.10184287,7.48340014 1.10184287,7.1749666 C1.10184287,4.04536621 3.60452635,1.5 6.67934045,1.5 Z" id="upload"></path>
        </g>
    </g>
</svg>