<?xml version="1.0" encoding="UTF-8"?>
<svg width="256px" height="256px" viewBox="0 0 256 256" version="1.1" xmlns="http://www.w3.org/2000/svg" xmlns:xlink="http://www.w3.org/1999/xlink">
    
    <title>uxd</title>
    <desc>Created with sketchtool.</desc>
    <defs></defs>
    <g id="Page-1" stroke="none" stroke-width="1" fill="none" fill-rule="evenodd">
        <g id="uxd" fill="#000000">
            <path d="M128.000571,196 C73.8767812,196 30,152.123219 30,97.9994293 C30,43.8767812 73.8767812,0 128.000571,0 C182.123219,0 226,43.8756398 226,97.9994293 C226,152.123219 182.12436,196 128.000571,196 L128.000571,196 Z M61,126 C73.6027076,150.181795 98.9007359,166.691318 128.056835,166.691318 C157.210498,166.691318 182.509745,150.181795 195.112452,126 L61,126 L61,126 Z" id="Combined-Shape"></path>
            <path d="M193.060614,191.289277 C240.226589,213.487808 244.850006,255.66 244.850006,255.66 L11,255.66 C11,255.66 15.5657912,212.295112 61.915797,190.366497 C79.3412255,206.288141 102.536842,216 128.000571,216 L128.000571,216 C152.968583,216 175.75569,206.662592 193.060614,191.289277 Z" id="Combined-Shape" fill-rule="nonzero"></path>
        </g>
    </g>
</svg>