<?xml version="1.0" encoding="UTF-8"?>
<svg width="256px" height="256px" viewBox="0 0 256 256" version="1.1" xmlns="http://www.w3.org/2000/svg" xmlns:xlink="http://www.w3.org/1999/xlink">
    
    <title>warning</title>
    <desc>Created with sketchtool.</desc>
    <defs></defs>
    <g id="Page-1" stroke="none" stroke-width="1" fill="none" fill-rule="evenodd">
        <g id="warning" fill="#000000" fill-rule="nonzero">
            <path d="M125.33486,15.564011 L4.36688071,237.33864 L4.36688071,237.33864 C3.57349252,238.793185 4.10946603,240.615495 5.56401104,241.408883 C6.00467684,241.649246 6.49861046,241.775196 7.00056743,241.775196 L248.936526,241.775196 L248.936526,241.775196 C250.59338,241.775196 251.936526,240.432051 251.936526,238.775196 C251.936526,238.273239 251.810576,237.779306 251.570213,237.33864 L130.602234,15.564011 L130.602234,15.564011 C129.808845,14.109466 127.986535,13.5734925 126.53199,14.3668807 C126.026291,14.6427168 125.610696,15.0583115 125.33486,15.564011 Z M133.025543,172.755585 C132.735543,175.585585 130.365543,177.735585 127.525543,177.735585 C124.685543,177.735585 122.315543,175.585585 122.025543,172.755585 L114.015543,92.6555854 C113.215543,84.6555854 119.515543,77.7355854 127.525543,77.7355854 C135.535543,77.7355854 141.835543,84.6555854 141.035543,92.6655854 L133.025543,172.755585 L133.025543,172.755585 Z M127.446941,217.735585 C120.546941,217.735585 114.946941,212.135585 114.946941,205.235585 C114.946941,198.335585 120.546941,192.735585 127.446941,192.735585 C134.346941,192.735585 139.946941,198.335585 139.946941,205.235585 C139.946941,212.135585 134.346941,217.735585 127.446941,217.735585 Z"></path>
        </g>
    </g>
</svg>