<?xml version="1.0" encoding="UTF-8"?>
<svg width="16px" height="16px" viewBox="0 0 16 16" version="1.1" xmlns="http://www.w3.org/2000/svg" xmlns:xlink="http://www.w3.org/1999/xlink">
    
    <title>Icon/warning</title>
    <desc>Created with sketchtool.</desc>
    <g id="Icons" stroke="none" stroke-width="1" fill="none" fill-rule="evenodd">
        <g id="Icon/warning" fill="#00205B">
            <path d="M1.9422,14.63175 L8.3602,1.79675 L14.7782,14.63175 L1.9422,14.63175 Z M15.6822,14.83075 L8.6822,0.83075 C8.5592,0.58675 8.1612,0.58675 8.0382,0.83075 L1.0382,14.83075 C0.9822,14.94275 0.9882,15.07475 1.0532,15.18075 C1.1202,15.28675 1.2352,15.35175 1.3602,15.35175 L15.3602,15.35175 C15.4852,15.35175 15.6002,15.28675 15.6672,15.18075 C15.7322,15.07475 15.7382,14.94275 15.6822,14.83075 L15.6822,14.83075 Z M7.7772,10.06335 L8.9442,10.06335 L9.1962,5.49135 L7.5252,5.49135 L7.7772,10.06335 Z M8.3602,11.17425 C7.8722,11.17425 7.4762,11.57025 7.4762,12.05825 C7.4762,12.54625 7.8722,12.94225 8.3602,12.94225 C8.8482,12.94225 9.2442,12.54625 9.2442,12.05825 C9.2442,11.57025 8.8482,11.17425 8.3602,11.17425" id="Icon-Color"></path>
        </g>
    </g>
</svg>