<?xml version="1.0" encoding="UTF-8"?>
<svg width="256px" height="256px" viewBox="0 0 256 256" version="1.1" xmlns="http://www.w3.org/2000/svg" xmlns:xlink="http://www.w3.org/1999/xlink">
    
    <title>warning</title>
    <desc>Created with sketchtool.</desc>
    <defs></defs>
    <g id="Page-1" stroke="none" stroke-width="1" fill="none" fill-rule="evenodd">
        <g id="warning" fill="#000000" fill-rule="nonzero">
            <path d="M125.36657,26.8791673 L16.5650891,226.348548 L16.5650891,226.348548 C15.7717009,227.803093 16.3076744,229.625403 17.7622194,230.418791 C18.2028852,230.659154 18.6968189,230.785105 19.1987758,230.785105 L236.801737,230.785105 L236.801737,230.785105 C238.458591,230.785105 239.801737,229.441959 239.801737,227.785105 C239.801737,227.283148 239.675787,226.789214 239.435424,226.348548 L130.633943,26.8791673 L130.633943,26.8791673 C129.840555,25.4246223 128.018245,24.8886488 126.5637,25.682037 C126.058,25.9578731 125.642406,26.3734677 125.36657,26.8791673 Z M132.569035,168.428851 C132.307032,170.985635 130.165839,172.928067 127.600021,172.928067 C125.034203,172.928067 122.89301,170.985635 122.631007,168.428851 L115.394316,96.0619423 C114.671551,88.834286 120.36333,82.5823633 127.600021,82.5823633 C134.836712,82.5823633 140.528491,88.834286 139.805726,96.0709769 L132.569035,168.428851 L132.569035,168.428851 Z M127.529008,209.066349 C121.295154,209.066349 116.235795,204.006989 116.235795,197.773136 C116.235795,191.539282 121.295154,186.479923 127.529008,186.479923 C133.762861,186.479923 138.822221,191.539282 138.822221,197.773136 C138.822221,204.006989 133.762861,209.066349 127.529008,209.066349 Z"></path>
        </g>
    </g>
</svg>