<?xml version="1.0" encoding="UTF-8"?>
<svg width="16px" height="16px" viewBox="0 0 16 16" version="1.1" xmlns="http://www.w3.org/2000/svg" xmlns:xlink="http://www.w3.org/1999/xlink">
    
    <title>Icon/youtube</title>
    <desc>Created with sketchtool.</desc>
    <g id="Icons" stroke="none" stroke-width="1" fill="none" fill-rule="evenodd">
        <g id="Icon/youtube" fill="#00205B">
            <path d="M6.4027,10.487 L6.4027,5.685 L10.5607,8.086 L6.4027,10.487 Z M15.6717,4.233 C15.4877,3.545 14.9447,3.003 14.2567,2.818 C13.0077,2.484 8.0037,2.484 8.0037,2.484 C8.0037,2.484 2.9977,2.484 1.7497,2.818 C1.0607,3.003 0.5187,3.545 0.3347,4.233 C0.0007,5.482 0.0007,8.086 0.0007,8.086 C0.0007,8.086 0.0007,10.69 0.3347,11.938 C0.5187,12.627 1.0607,13.17 1.7497,13.353 C2.9977,13.688 8.0037,13.688 8.0037,13.688 C8.0037,13.688 13.0077,13.688 14.2567,13.353 C14.9447,13.17 15.4877,12.627 15.6717,11.938 C16.0067,10.69 16.0067,8.086 16.0067,8.086 C16.0067,8.086 16.0067,5.482 15.6717,4.233 L15.6717,4.233 Z" id="Icon-Color"></path>
        </g>
    </g>
</svg>