<?xml version="1.0" encoding="UTF-8"?>
<svg width="16px" height="16px" viewBox="0 0 16 16" version="1.1" xmlns="http://www.w3.org/2000/svg" xmlns:xlink="http://www.w3.org/1999/xlink">
    
    <title>Icon/youtube</title>
    <desc>Created with sketchtool.</desc>
    <g id="Icons" stroke="none" stroke-width="1" fill="none" fill-rule="evenodd">
        <g id="Icon/youtube" fill="#00205B">
            <path d="M7.66197183,2.44897959 C9.99061033,2.44897959 11.8685446,2.52374081 13.2957746,2.67326324 C14.7892771,2.67326324 15.7746479,3.65396213 15.7746479,5.14038343 C15.9248826,6.43624453 16,7.40814036 16,8.05607091 C16,8.67908106 15.9248826,9.61359628 15.7746479,10.8596166 C15.7746479,12.3460379 14.7892771,13.3267368 13.2957746,13.3267368 C11.0422535,13.4762592 9.35211268,13.5510204 8.22535211,13.5510204 C6.98959027,13.5510204 5.14921469,13.4762592 2.70422535,13.3267368 C1.21072293,13.3267368 0.112676056,12.3460379 0.112676056,10.8596166 C0.0417318727,10.6477931 0.00428910914,9.80246065 0.000347765606,8.32361916 L0,8.05607091 C0,6.33656291 0.0375586854,5.36466708 0.112676056,5.14038343 C0.112676056,3.65396213 1.21072293,2.67326324 2.70422535,2.67326324 C3.83098592,2.52374081 5.48356808,2.44897959 7.66197183,2.44897959 Z M6.36734694,5.55102041 L6.36734694,10.4489796 L10.2857143,8.05695301 L6.36734694,5.55102041 Z" id="Icon-Color"></path>
        </g>
    </g>
</svg>