<?xml version="1.0" encoding="UTF-8"?>
<svg width="16px" height="16px" viewBox="0 0 16 16" version="1.1" xmlns="http://www.w3.org/2000/svg" xmlns:xlink="http://www.w3.org/1999/xlink">
    
    <title>Icon/youtube</title>
    <desc>Created with sketchtool.</desc>
    <g id="Icons" stroke="none" stroke-width="1" fill="none" fill-rule="evenodd">
        <g id="Icon/youtube" fill="#00205B">
            <path d="M12.6113778,11.7034667 L11.7333333,11.7034667 L11.7374222,11.1934222 C11.7374222,10.9667556 11.9235556,10.7813333 12.1509333,10.7813333 L12.2069333,10.7813333 C12.4348444,10.7813333 12.6215111,10.9667556 12.6215111,11.1934222 L12.6113778,11.7034667 Z M9.31786667,10.6104889 C9.09511111,10.6104889 8.91288889,10.7601778 8.91288889,10.9434667 L8.91288889,13.424 C8.91288889,13.6069333 9.09511111,13.7562667 9.31786667,13.7562667 C9.54151111,13.7562667 9.72391111,13.6069333 9.72391111,13.424 L9.72391111,10.9434667 C9.72391111,10.76 9.54151111,10.6104889 9.31786667,10.6104889 Z M14.6666667,9.22293333 L14.6666667,13.9418667 C14.6666667,15.0737778 13.6851556,16 12.4853333,16 L3.51484444,16 C2.31466667,16 1.33333333,15.0737778 1.33333333,13.9418667 L1.33333333,9.22293333 C1.33333333,8.09102222 2.31466667,7.16462222 3.51484444,7.16462222 L12.4853333,7.16462222 C13.6851556,7.16462222 14.6666667,8.09102222 14.6666667,9.22293333 Z M4.11324444,14.4542222 L4.11253333,9.48337778 L5.22453333,9.48373333 L5.22453333,8.7472 L2.26026667,8.74275556 L2.26026667,9.46684444 L3.1856,9.46951111 L3.1856,14.4542222 L4.11324444,14.4542222 Z M7.44657778,10.2238222 L6.51946667,10.2238222 L6.51946667,12.8782222 C6.51946667,13.2622222 6.54275556,13.4542222 6.51804444,13.5219556 C6.44266667,13.7278222 6.10382222,13.9464889 5.97173333,13.5441778 C5.94933333,13.4737778 5.96906667,13.2613333 5.96871111,12.8965333 L5.96497778,10.2238222 L5.04302222,10.2238222 L5.04586667,12.8545778 C5.04657778,13.2577778 5.0368,13.5584 5.04906667,13.6952889 C5.07164444,13.9365333 5.06364444,14.2177778 5.28746667,14.3784889 C5.70453333,14.6789333 6.504,14.3336889 6.704,13.9041778 L6.70222222,14.4522667 L7.44675556,14.4531556 L7.44657778,10.2238222 L7.44657778,10.2238222 Z M10.4124469,13.2634667 L10.4104889,11.0542222 C10.4097778,10.2122667 9.77991111,9.70808889 8.92497778,10.3893333 L8.92871111,8.74684444 L8.00266667,8.74826667 L7.99822222,14.4176 L8.75982222,14.4065778 L8.82915556,14.0535111 C9.80213333,14.9461333 10.4138667,14.3344 10.4124469,13.2634667 Z M13.3139556,12.9706667 L12.6188444,12.9744 C12.6184889,13.0019556 12.6174222,13.0337778 12.6170667,13.0684444 L12.6170667,13.4563556 C12.6170667,13.664 12.4455111,13.8330667 12.2371556,13.8330667 L12.1009778,13.8330667 C11.8922667,13.8330667 11.7207111,13.664 11.7207111,13.4563556 L11.7207111,13.4133333 L11.7207111,12.9866667 L11.7207111,12.4360889 L13.3125333,12.4360889 L13.3125333,11.8369778 C13.3125333,11.3991111 13.3013333,10.9614222 13.2650667,10.7111111 C13.1511111,9.91928889 12.0396444,9.7936 11.4782222,10.1989333 C11.3020444,10.3255111 11.1674667,10.4949333 11.0892444,10.7224889 C11.0103111,10.9502222 10.9710222,11.2613333 10.9710222,11.6565333 L10.9710222,12.9738667 C10.9713778,15.1637333 13.6312889,14.8542222 13.3139556,12.9706667 Z M9.74808889,5.81902222 C9.79591111,5.93528889 9.87022222,6.02951111 9.97102222,6.10062222 C10.0705778,6.17066667 10.1978667,6.20586667 10.3504,6.20586667 C10.4840889,6.20586667 10.6024889,6.16977778 10.7056,6.09528889 C10.8083556,6.02115556 10.8949333,5.9104 10.9656889,5.76266667 L10.9480889,6.1264 L11.9815111,6.1264 L11.9815111,1.73155556 L11.168,1.73155556 L11.168,5.152 C11.168,5.33724444 11.0154667,5.48888889 10.8289778,5.48888889 C10.6435556,5.48888889 10.4904889,5.33724444 10.4904889,5.152 L10.4904889,1.73155556 L9.64142222,1.73155556 L9.64142222,4.69582222 C9.64142222,5.07342222 9.64835556,5.32515556 9.65955556,5.4528 C9.67111111,5.57955556 9.70026667,5.70115556 9.74808889,5.81902222 Z M6.61635556,3.33688889 C6.61635556,2.91502222 6.65155556,2.5856 6.72142222,2.34808889 C6.79182222,2.11146667 6.91822222,1.92124444 7.10133333,1.77777778 C7.28391111,1.6336 7.51768889,1.56142222 7.80195556,1.56142222 C8.04106667,1.56142222 8.24586667,1.60835556 8.41688889,1.70026667 C8.5888,1.79271111 8.72142222,1.91271111 8.81333333,2.0608 C8.90702222,2.20942222 8.97066667,2.36213333 9.00462222,2.5184 C9.03928889,2.6768 9.05635556,2.91573333 9.05635556,3.23804444 L9.05635556,4.34951111 C9.05635556,4.75715556 9.04,5.05706667 9.00817778,5.24746667 C8.97671111,5.4384 8.90915556,5.61546667 8.80444444,5.78151111 C8.70133333,5.94577778 8.56817778,6.06862222 8.40675556,6.14702222 C8.24355556,6.22613333 8.05688889,6.26488889 7.84604444,6.26488889 C7.61048889,6.26488889 7.41208889,6.23235556 7.24853333,6.16444444 C7.08444444,6.09688889 6.95768889,5.99502222 6.86737778,5.85973333 C6.77617778,5.72426667 6.712,5.55928889 6.67324444,5.36693333 C6.63431111,5.17475556 6.61582222,4.88568889 6.61582222,4.50044444 L6.61635556,3.33688889 L6.61635556,3.33688889 Z M7.42577778,5.08266667 C7.42577778,5.33155556 7.61102222,5.53475556 7.83662222,5.53475556 C8.0624,5.53475556 8.24693333,5.33155556 8.24693333,5.08266667 L8.24693333,2.74311111 C8.24693333,2.49457778 8.0624,2.29137778 7.83662222,2.29137778 C7.61102222,2.29137778 7.42577778,2.49457778 7.42577778,2.74311111 L7.42577778,5.08266667 Z M4.56568889,6.264 L5.54062222,6.264 L5.54168889,2.89333333 L6.69368889,0.00586666667 L5.62737778,0.00586666667 L5.01493333,2.15057778 L4.39377778,0 L3.33848889,0 L4.56408889,2.89493333 L4.56568889,6.264 Z" id="Icon-Color"></path>
        </g>
    </g>
</svg>