<?xml version="1.0" encoding="UTF-8" standalone="no"?>
<svg width="256px" height="256px" viewBox="0 0 256 256" version="1.1" xmlns="http://www.w3.org/2000/svg" xmlns:xlink="http://www.w3.org/1999/xlink">
    <!-- Generator: sketchtool 41 (35326) - http://www.bohemiancoding.com/sketch -->
    <title>zoom</title>
    <desc>Created with sketchtool.</desc>
    <defs></defs>
    <g id="Page-1" stroke="none" stroke-width="1" fill="none" fill-rule="evenodd">
        <g id="zoom" fill="#000000">
            <path d="M138.666667,106.666667 L106.666667,106.666667 L106.666667,138.666667 L85.3333333,138.666667 L85.3333333,106.666667 L53.3333333,106.666667 L53.3333333,85.3333333 L85.3333333,85.3333333 L85.3333333,53.3333333 L106.666667,53.3333333 L106.666667,85.3333333 L138.666667,85.3333333 L138.666667,106.666667 Z M225.834667,256 L147.04,177.205333 C132.234667,186.528 114.784,192 96,192 C42.976,192 0,149.024 0,96 C0,42.976 42.976,0 96,0 C149.024,0 192,42.976 192,96 C192,114.784 186.517333,132.245333 177.205333,147.04 L256,225.834667 L225.834667,256 Z M96,170.666667 C137.162667,170.666667 170.666667,137.173333 170.666667,96 C170.666667,54.8266667 137.162667,21.3333333 96,21.3333333 C54.8373333,21.3333333 21.3333333,54.8266667 21.3333333,96 C21.3333333,137.173333 54.8373333,170.666667 96,170.666667 Z"></path>
        </g>
    </g>
</svg>