<?xml version="1.0" encoding="UTF-8"?>
<svg width="256px" height="256px" viewBox="0 0 256 256" version="1.1" xmlns="http://www.w3.org/2000/svg" xmlns:xlink="http://www.w3.org/1999/xlink">
    
    <title>zoom-in</title>
    <desc>Created with sketchtool.</desc>
    <defs></defs>
    <g id="Page-1" stroke="none" stroke-width="1" fill="none" fill-rule="evenodd">
        <g id="zoom-in" fill="#000000" fill-rule="nonzero">
            <path d="M137.333333,109.333333 L109.333333,109.333333 L109.333333,137.333333 L90.6666667,137.333333 L90.6666667,109.333333 L62.6666667,109.333333 L62.6666667,90.6666667 L90.6666667,90.6666667 L90.6666667,62.6666667 L109.333333,62.6666667 L109.333333,90.6666667 L137.333333,90.6666667 L137.333333,109.333333 Z M213.605333,240 L144.66,171.054667 C131.705333,179.212 116.436,184 100,184 C53.604,184 16,146.396 16,100 C16,53.604 53.604,16 100,16 C146.396,16 184,53.604 184,100 C184,116.436 179.202667,131.714667 171.054667,144.66 L240,213.605333 L213.605333,240 Z M100,165.333333 C136.017333,165.333333 165.333333,136.026667 165.333333,100 C165.333333,63.9733333 136.017333,34.6666667 100,34.6666667 C63.9826667,34.6666667 34.6666667,63.9733333 34.6666667,100 C34.6666667,136.026667 63.9826667,165.333333 100,165.333333 Z" id="zoom"></path>
        </g>
    </g>
</svg>