<?xml version="1.0" encoding="UTF-8"?>
<svg width="16px" height="16px" viewBox="0 0 16 16" version="1.1" xmlns="http://www.w3.org/2000/svg" xmlns:xlink="http://www.w3.org/1999/xlink">
    
    <title>Icon/zoom-out</title>
    <desc>Created with sketchtool.</desc>
    <g id="Icons" stroke="none" stroke-width="1" fill="none" fill-rule="evenodd">
        <g id="Icon/zoom-out" fill="#00205B">
            <path d="M13.3258427,14.3340927 L9.14584272,10.1150927 L9.52984272,9.73609272 C9.56284272,9.70409272 9.60384272,9.68109272 9.63784272,9.64809272 C9.66884272,9.61609272 9.68984272,9.57909272 9.72084272,9.54609272 L10.1298427,9.14209272 L14.3088427,13.3600927 L13.3258427,14.3340927 Z M5.97284272,10.4260927 C4.78284272,10.4200927 3.66684272,9.95209272 2.82884272,9.10509272 C1.09984272,7.35909272 1.11284272,4.53309272 2.85784272,2.80409272 C3.72584272,1.94509272 4.85984272,1.51609272 5.99484272,1.51609272 C7.14284272,1.51609272 8.29084272,1.95609272 9.16084272,2.83409272 C10.8578427,4.54809272 10.8658427,7.30009272 9.21284272,9.03709272 L9.02684272,9.22109272 C8.19484272,9.99709272 7.14684272,10.4080927 5.97284272,10.4260927 L5.97284272,10.4260927 Z M15.0738427,13.1090927 L10.4908427,8.48409272 C11.5848427,6.52209272 11.3298427,4.00109272 9.67284272,2.32809272 C7.66484272,0.300092716 4.37984272,0.285092716 2.35184272,2.29209272 C0.324842716,4.30009272 0.308842716,7.58409272 2.31684272,9.61209272 C3.29084272,10.5950927 4.58784272,11.1400927 5.96984272,11.1460927 L5.99584272,11.1460927 C6.88784272,11.1460927 7.73384272,10.9010927 8.49284272,10.4790927 L13.0668427,15.0970927 C13.1378427,15.1670927 13.2298427,15.2030927 13.3228427,15.2030927 C13.4148427,15.2030927 13.5068427,15.1680927 13.5758427,15.0990927 L15.0708427,13.6190927 C15.1388427,13.5510927 15.1778427,13.4600927 15.1788427,13.3650927 C15.1788427,13.2690927 15.1408427,13.1770927 15.0738427,13.1090927 L15.0738427,13.1090927 Z M8.64324272,5.61139272 L3.34024272,5.61139272 C3.14124272,5.61139272 2.98024272,5.77239272 2.98024272,5.97139272 C2.98024272,6.17039272 3.14124272,6.33139272 3.34024272,6.33139272 L8.64324272,6.33139272 C8.84224272,6.33139272 9.00324272,6.17039272 9.00324272,5.97139272 C9.00324272,5.77239272 8.84224272,5.61139272 8.64324272,5.61139272" id="Icon-Color"></path>
        </g>
    </g>
</svg>