<svg xmlns="http://www.w3.org/2000/svg" width="271" height="73" viewBox="0 0 271 73">
  <defs>
    <radialGradient id="a" cx="50.091%" cy="49.924%" r="50.119%" fx="50.091%" fy="49.924%">
      <stop stop-color="#797979" offset="0%"/>
      <stop stop-color="#4C4C4C" offset="100%"/>
    </radialGradient>
  </defs>
  <g fill="none" fill-rule="evenodd">
    <rect width="270.95" height="73" fill="#FFFFFF"/>
    <g transform="translate(6.29 8.29)">
      <circle cx="27.771" cy="27.771" r="27.771" fill="#F5BB60"/>
      <circle cx="25" cy="25" r="25" fill="#E86F32"/>
      <circle cx="28.313" cy="21.687" r="21.687" fill="#E53D42"/>
      <ellipse cx="30.06" cy="23.373" fill="#BFD141" rx="19.94" ry="19.94"/>
      <circle cx="28.614" cy="24.88" r="18.494" fill="#6DB64C"/>
      <circle cx="25.663" cy="21.928" r="15.542" fill="#AFDBE7"/>
      <ellipse cx="28.193" cy="19.398" fill="#57BADF" rx="13.012" ry="13.012"/>
      <ellipse cx="29.819" cy="20.964" fill="#02B2D6" rx="11.446" ry="11.446"/>
      <ellipse cx="28.133" cy="22.651" fill="url(#a)" rx="9.759" ry="9.759"/>
      <ellipse cx="28.133" cy="22.651" fill="#231F20" rx="9.759" ry="9.759"/>
      <ellipse cx="32.042" cy="19.094" fill="#FFFFFF" transform="rotate(24.166 32.042 19.094)" rx="1.928" ry="3.012"/>
    </g>
    <path fill="#382F27" d="M70.8072289 25.4578313C70.8072289 25.2771084 70.9277108 25.1566265 71.1686747 25.1566265L79.9036145 25.1566265C84.9036145 25.1566265 87.253012 27.4457831 87.253012 30.939759 87.253012 33.4096386 85.9879518 34.7951807 84.5421687 35.5180723L84.5421687 35.5783133C85.9879518 36.060241 87.6746988 37.8072289 87.6746988 40.4578313 87.6746988 44.7951807 84.7228916 46.8433735 79.6024096 46.8433735L71.1686747 46.8433735C70.9879518 46.8433735 70.8072289 46.7228916 70.8072289 46.5421687L70.8072289 25.4578313 70.8072289 25.4578313zM79.7831325 34.1927711C81.8313253 34.1927711 83.1566265 33.0481928 83.1566265 31.3614458 83.1566265 29.6144578 81.8915663 28.4698795 79.7831325 28.4698795L75.0843373 28.4698795C74.9638554 28.4698795 74.9036145 28.5301205 74.9036145 28.6506024L74.9036145 34.0120482C74.9036145 34.1325301 74.9638554 34.1927711 75.0843373 34.1927711L79.7831325 34.1927711 79.7831325 34.1927711zM75.0843373 43.5301205L80.0240964 43.5301205C82.313253 43.5301205 83.5783133 42.3253012 83.5783133 40.5180723 83.5783133 38.7108434 82.313253 37.5060241 80.0240964 37.5060241L75.0843373 37.5060241C74.9638554 37.5060241 74.9036145 37.5662651 74.9036145 37.686747L74.9036145 43.3493976C74.9036145 43.4698795 74.9638554 43.5301205 75.0843373 43.5301205zM90.5060241 46.9036145C90.3253012 46.9036145 90.1445783 46.7831325 90.1445783 46.6024096L90.1445783 31.7831325C90.1445783 31.6024096 90.2650602 31.4819277 90.5060241 31.4819277L93.6987952 31.4819277C93.8795181 31.4819277 94.060241 31.6024096 94.060241 31.7831325L94.060241 33.1084337 94.1204819 33.1084337C94.9036145 31.9036145 96.3493976 31.1204819 98.4578313 31.1204819 99.7831325 31.1204819 101.108434 31.6024096 101.951807 32.3855422 102.13253 32.5662651 102.13253 32.686747 102.012048 32.8072289L100.204819 34.9759036C100.084337 35.1566265 99.9036145 35.1566265 99.7228916 35.0361446 98.939759 34.6144578 98.1566265 34.313253 97.253012 34.313253 95.0843373 34.313253 94.1204819 35.7590361 94.1204819 38.2289157L94.1204819 46.6024096C94.1204819 46.7831325 94 46.9036145 93.7590361 46.9036145L90.5060241 46.9036145 90.5060241 46.9036145zM102.614458 42.9879518C102.253012 41.9036145 102.072289 40.8795181 102.072289 39.1927711 102.072289 37.5060241 102.253012 36.4819277 102.614458 35.3975904 103.578313 32.686747 106.108434 31.1204819 109.481928 31.1204819 112.855422 31.1204819 115.385542 32.686747 116.349398 35.3975904 116.710843 36.4819277 116.891566 37.5060241 116.891566 39.1927711 116.891566 40.8795181 116.710843 41.9036145 116.349398 42.9879518 115.385542 45.6987952 112.855422 47.2650602 109.481928 47.2650602 106.108434 47.2048193 103.578313 45.6385542 102.614458 42.9879518zM112.614458 42.0240964C112.915663 41.2409639 112.975904 40.5180723 112.975904 39.1927711 112.975904 37.8674699 112.915663 37.2048193 112.614458 36.3614458 112.13253 35.0963855 111.048193 34.373494 109.481928 34.373494 107.915663 34.373494 106.831325 35.0963855 106.349398 36.3614458 106.048193 37.2048193 105.987952 37.8674699 105.987952 39.1927711 105.987952 40.5180723 106.048193 41.2409639 106.349398 42.0240964 106.831325 43.2891566 107.915663 44.0120482 109.481928 44.0120482 111.048193 44.0120482 112.13253 43.2891566 112.614458 42.0240964zM133.698795 46.9036145C133.518072 46.9036145 133.337349 46.7831325 133.277108 46.6024096L130.084337 36.7228916 130.024096 36.7228916 126.771084 46.6024096C126.710843 46.7831325 126.590361 46.9036145 126.349398 46.9036145L123.518072 46.9036145C123.337349 46.9036145 123.156627 46.7831325 123.096386 46.6024096L117.795181 31.7831325C117.73494 31.6024096 117.855422 31.4819277 118.036145 31.4819277L121.349398 31.4819277C121.590361 31.4819277 121.710843 31.6024096 121.771084 31.7831325L124.963855 41.9638554 125.024096 41.9638554 128.216867 31.7831325C128.277108 31.6024096 128.457831 31.4819277 128.638554 31.4819277L131.108434 31.4819277C131.289157 31.4819277 131.46988 31.6024096 131.53012 31.7831325L134.903614 41.9638554 134.963855 41.9638554 138.036145 31.7831325C138.096386 31.5421687 138.216867 31.4819277 138.457831 31.4819277L141.771084 31.4819277C141.951807 31.4819277 142.072289 31.6024096 142.012048 31.7831325L136.771084 46.5421687C136.710843 46.7228916 136.590361 46.8433735 136.349398 46.8433735L133.698795 46.8433735 133.698795 46.9036145zM142.855422 44.7951807C142.73494 44.6746988 142.73494 44.4939759 142.855422 44.373494L144.843373 42.4457831C144.963855 42.3253012 145.204819 42.3253012 145.325301 42.4457831 146.53012 43.4698795 148.457831 44.1927711 150.204819 44.1927711 152.253012 44.1927711 153.277108 43.4096386 153.277108 42.3855422 153.277108 41.4819277 152.674699 40.8795181 150.506024 40.6987952L148.698795 40.5180723C145.325301 40.2168675 143.578313 38.5903614 143.578313 36 143.578313 33.0481928 145.86747 31.1204819 150.024096 31.1204819 152.614458 31.1204819 154.783133 31.9036145 156.289157 32.9879518 156.46988 33.1084337 156.46988 33.2891566 156.349398 33.4096386L154.662651 35.2771084C154.542169 35.4578313 154.361446 35.4578313 154.180723 35.3373494 153.156627 34.6746988 151.46988 34.0722892 149.843373 34.0722892 148.156627 34.0722892 147.313253 34.7349398 147.313253 35.6987952 147.313253 36.6024096 147.915663 37.1445783 150.024096 37.3253012L151.831325 37.5060241C155.325301 37.8072289 157.012048 39.4939759 157.012048 42.0240964 157.012048 45.0963855 154.60241 47.2650602 150.024096 47.2650602 146.590361 47.2048193 144.240964 46 142.855422 44.7951807zM159.662651 42.9277108C159.301205 41.9638554 159.060241 40.7590361 159.060241 39.1325301 159.060241 37.5060241 159.240964 36.3012048 159.60241 35.3373494 160.566265 32.626506 163.096386 31.060241 166.409639 31.060241 169.843373 31.060241 172.313253 32.686747 173.277108 35.3373494 173.638554 36.4216867 173.819277 37.5060241 173.819277 39.9759036 173.819277 40.1566265 173.698795 40.2771084 173.457831 40.2771084L163.156627 40.2771084C163.036145 40.2771084 162.975904 40.3373494 162.975904 40.4578313 162.975904 40.8795181 163.096386 41.3012048 163.216867 41.6626506 163.759036 43.1686747 165.084337 44.0120482 166.951807 44.0120482 168.819277 44.0120482 170.024096 43.3493976 170.86747 42.5662651 171.048193 42.3855422 171.228916 42.3855422 171.409639 42.5060241L173.457831 44.1927711C173.638554 44.313253 173.638554 44.4939759 173.518072 44.6144578 172.072289 46.1204819 169.722892 47.2650602 166.650602 47.2650602 163.096386 47.2048193 160.626506 45.6385542 159.662651 42.9277108zM169.722892 36.1204819C169.301205 34.8554217 168.036145 34.1325301 166.46988 34.1325301 164.903614 34.1325301 163.638554 34.8554217 163.156627 36.1204819 163.036145 36.4819277 162.975904 36.9036145 162.975904 37.4457831 162.975904 37.5662651 163.036145 37.626506 163.156627 37.626506L169.722892 37.626506C169.843373 37.626506 169.903614 37.5662651 169.903614 37.4457831 169.963855 36.9036145 169.903614 36.4819277 169.722892 36.1204819zM176.710843 46.9036145C176.53012 46.9036145 176.349398 46.7831325 176.349398 46.6024096L176.349398 31.7831325C176.349398 31.6024096 176.46988 31.4819277 176.710843 31.4819277L179.903614 31.4819277C180.084337 31.4819277 180.26506 31.6024096 180.26506 31.7831325L180.26506 33.1084337 180.325301 33.1084337C181.108434 31.9036145 182.554217 31.1204819 184.662651 31.1204819 185.987952 31.1204819 187.313253 31.6024096 188.156627 32.3855422 188.337349 32.5662651 188.337349 32.686747 188.216867 32.8072289L186.409639 34.9759036C186.289157 35.1566265 186.108434 35.1566265 185.927711 35.0361446 185.144578 34.6144578 184.361446 34.313253 183.457831 34.313253 181.289157 34.313253 180.325301 35.7590361 180.325301 38.2289157L180.325301 46.6024096C180.325301 46.7831325 180.204819 46.9036145 179.963855 46.9036145L176.710843 46.9036145 176.710843 46.9036145zM188.759036 44.373494C188.638554 44.253012 188.578313 44.0722892 188.698795 43.8915663L190.86747 41.6024096C190.987952 41.4216867 191.228916 41.4216867 191.349398 41.5421687 192.855422 42.686747 195.144578 43.8313253 197.73494 43.8313253 200.566265 43.8313253 202.192771 42.5060241 202.192771 40.6987952 202.192771 39.1325301 201.168675 38.1084337 197.915663 37.686747L196.650602 37.5060241C192.13253 36.9036145 189.542169 34.9156627 189.542169 31.3012048 189.542169 27.3855422 192.674699 24.7349398 197.493976 24.7349398 200.445783 24.7349398 203.216867 25.5783133 205.084337 26.9036145 205.26506 27.0240964 205.26506 27.1445783 205.144578 27.3253012L203.457831 29.6746988C203.337349 29.8554217 203.156627 29.8554217 202.975904 29.7951807 201.048193 28.6506024 199.301205 28.1084337 197.313253 28.1084337 194.903614 28.1084337 193.638554 29.313253 193.638554 31 193.638554 32.5060241 194.783133 33.5301205 197.975904 33.9518072L199.240964 34.1325301C203.759036 34.7349398 206.289157 36.6626506 206.289157 40.4578313 206.289157 44.313253 203.277108 47.2048193 197.433735 47.2048193 193.939759 47.2048193 190.626506 45.939759 188.759036 44.373494zM213.457831 47.1445783C210.084337 47.1445783 208.819277 45.6385542 208.819277 42.626506L208.819277 34.4939759C208.819277 34.373494 208.759036 34.313253 208.638554 34.313253L207.493976 34.313253C207.313253 34.313253 207.13253 34.1927711 207.13253 34.0120482L207.13253 31.8433735C207.13253 31.6626506 207.253012 31.5421687 207.493976 31.5421687L208.578313 31.5421687C208.698795 31.5421687 208.759036 31.4819277 208.759036 31.3614458L208.759036 27.1445783C208.759036 26.9638554 208.879518 26.8433735 209.120482 26.8433735L212.313253 26.8433735C212.493976 26.8433735 212.674699 26.9638554 212.674699 27.1445783L212.674699 31.3614458C212.674699 31.4819277 212.73494 31.5421687 212.855422 31.5421687L215.084337 31.5421687C215.26506 31.5421687 215.445783 31.6626506 215.445783 31.8433735L215.445783 34.0120482C215.445783 34.1927711 215.325301 34.313253 215.084337 34.313253L212.915663 34.313253C212.795181 34.313253 212.73494 34.373494 212.73494 34.4939759L212.73494 42.5060241C212.73494 43.5903614 213.216867 43.9518072 214.301205 43.9518072L215.144578 43.9518072C215.325301 43.9518072 215.506024 44.0722892 215.506024 44.253012L215.506024 46.8433735C215.506024 47.0240964 215.385542 47.1445783 215.144578 47.1445783L213.457831 47.1445783zM228.096386 46.9036145C227.915663 46.9036145 227.73494 46.7831325 227.73494 46.6024096L227.73494 45.4578313 227.674699 45.4578313C226.891566 46.5421687 225.325301 47.2650602 222.975904 47.2650602 219.903614 47.2650602 217.373494 45.8192771 217.373494 42.5662651 217.373494 39.1927711 219.903614 37.686747 224.060241 37.686747L227.433735 37.686747C227.554217 37.686747 227.614458 37.626506 227.614458 37.5060241L227.614458 36.7831325C227.614458 35.0361446 226.710843 34.253012 223.939759 34.253012 222.072289 34.253012 220.927711 34.7349398 220.144578 35.3373494 219.963855 35.4578313 219.783133 35.4578313 219.662651 35.2771084L218.39759 33.1686747C218.277108 32.9879518 218.337349 32.8674699 218.457831 32.746988 219.783133 31.8433735 221.650602 31.2409639 224.361446 31.2409639 229.421687 31.2409639 231.289157 32.8674699 231.289157 36.6024096L231.289157 46.6626506C231.289157 46.8433735 231.168675 46.9638554 230.927711 46.9638554L228.096386 46.9638554 228.096386 46.9036145zM227.73494 41.7228916L227.73494 40.5180723C227.73494 40.3975904 227.674699 40.3373494 227.554217 40.3373494L224.783133 40.3373494C222.313253 40.3373494 221.168675 41 221.168675 42.4457831 221.168675 43.7108434 222.192771 44.373494 224.060241 44.373494 226.409639 44.313253 227.73494 43.4698795 227.73494 41.7228916zM234.421687 42.9879518C234.060241 42.0240964 233.879518 40.8192771 233.879518 39.1927711 233.879518 37.5662651 234.060241 36.3614458 234.421687 35.3975904 235.385542 32.626506 237.975904 31.1204819 241.289157 31.1204819 243.759036 31.1204819 245.746988 32.0240964 247.072289 33.5301205 247.192771 33.6506024 247.192771 33.8313253 247.012048 33.9518072L244.843373 35.6987952C244.662651 35.8192771 244.481928 35.8192771 244.361446 35.6385542 243.518072 34.7951807 242.674699 34.313253 241.289157 34.313253 239.783133 34.313253 238.638554 34.9759036 238.156627 36.3012048 237.855422 37.0843373 237.795181 37.9879518 237.795181 39.1325301 237.795181 40.2771084 237.855422 41.2409639 238.156627 42.0240964 238.638554 43.3493976 239.783133 44.0120482 241.289157 44.0120482 242.674699 44.0120482 243.518072 43.5301205 244.361446 42.686747 244.481928 42.5060241 244.662651 42.5060241 244.843373 42.626506L247.012048 44.373494C247.192771 44.4939759 247.13253 44.6746988 247.072289 44.7951807 245.746988 46.2409639 243.759036 47.1445783 241.289157 47.1445783 237.915663 47.2048193 235.385542 45.6987952 234.421687 42.9879518zM260.566265 46.9036145C260.325301 46.9036145 260.144578 46.7831325 260.024096 46.6024096L255.807229 40.1566265 253.578313 42.5662651 253.578313 46.6024096C253.578313 46.7831325 253.457831 46.9036145 253.216867 46.9036145L250.024096 46.9036145C249.843373 46.9036145 249.662651 46.7831325 249.662651 46.6024096L249.662651 25.4578313C249.662651 25.2771084 249.783133 25.1566265 250.024096 25.1566265L253.216867 25.1566265C253.39759 25.1566265 253.578313 25.2771084 253.578313 25.4578313L253.578313 37.9879518 259.301205 31.7831325C259.481928 31.5421687 259.662651 31.4819277 259.963855 31.4819277L263.518072 31.4819277C263.698795 31.4819277 263.819277 31.6626506 263.638554 31.7831325L258.337349 37.3855422 264.421687 46.5421687C264.542169 46.6626506 264.481928 46.8433735 264.240964 46.8433735L260.566265 46.8433735 260.566265 46.9036145z"/>
  </g>
</svg>
