<svg xmlns="http://www.w3.org/2000/svg" viewBox="0 0 70 12">
  <path fill="#3EB1F3" fill-rule="evenodd" stroke="#3EB1F3" stroke-width=".5" d="M3.96259764,14.6318359 L3.96259764,19 L3.29267576,19 L3.29267576,9.00585938 L4.65986326,9.00585938 C5.63512856,9.00585938 6.34833757,9.2360003 6.7995117,9.69628906 C7.25068583,10.1565778 7.47626951,10.844722 7.47626951,11.7607422 C7.47626951,12.453454 7.35322387,13.0231097 7.10712889,13.4697266 C6.86103391,13.9163434 6.44860314,14.251301 5.8698242,14.4746094 L7.85224608,19 L7.10029295,19 L5.23408201,14.6318359 L3.96259764,14.6318359 Z M3.96259764,14.0166016 L4.89912108,14.0166016 C5.5052439,14.0166016 5.97236162,13.8297545 6.30048826,13.4560547 C6.6286149,13.0823549 6.79267576,12.5263709 6.79267576,11.7880859 C6.79267576,11.0361291 6.62519697,10.4938168 6.29023436,10.1611328 C5.95527174,9.82844886 5.42777051,9.66210938 4.70771483,9.66210938 L3.96259764,9.66210938 L3.96259764,14.0166016 Z M14.8676758,13.9892578 C14.8676758,15.643563 14.6204452,16.9150346 14.1259765,17.8037109 C13.6315079,18.6923873 12.9171596,19.1367188 11.9829101,19.1367188 C11.039546,19.1367188 10.3240584,18.6889693 9.83642577,17.793457 C9.34879312,16.8979447 9.10498045,15.6253338 9.10498045,13.9755859 C9.10498045,12.2529211 9.3465145,10.9700563 9.82958983,10.1269531 C10.3126652,9.28384995 11.0372673,8.86230469 12.003418,8.86230469 C12.9331101,8.86230469 13.6429012,9.30549687 14.1328125,10.1918945 C14.6227238,11.0782922 14.8676758,12.3440673 14.8676758,13.9892578 L14.8676758,13.9892578 Z M9.80224608,13.9892578 C9.80224608,15.4749423 9.98795386,16.5971642 10.359375,17.355957 C10.7307961,18.1147499 11.2719691,18.4941406 11.9829101,18.4941406 C12.6984085,18.4941406 13.2418601,18.1181678 13.6132812,17.3662109 C13.9847024,16.6142541 14.1704101,15.4886143 14.1704101,13.9892578 C14.1704101,12.5081306 13.9881203,11.390466 13.6235351,10.6362305 C13.25895,9.88199493 12.7189163,9.50488281 12.003418,9.50488281 C11.2696903,9.50488281 10.7194029,9.88655217 10.352539,10.6499023 C9.98567523,11.4132525 9.80224608,12.5263599 9.80224608,13.9892578 L9.80224608,13.9892578 Z M19.743457,9.49121094 C18.9915001,9.49121094 18.3933616,9.88883066 17.9490234,10.684082 C17.5046853,11.4793334 17.2825195,12.5810476 17.2825195,13.9892578 C17.2825195,14.905278 17.3850576,15.7027961 17.5901367,16.3818359 C17.7952159,17.0608758 18.0891582,17.5826805 18.4719726,17.9472656 C18.8547871,18.3118508 19.2991186,18.4941406 19.8049805,18.4941406 C20.3245143,18.4941406 20.7711244,18.4007171 21.1448242,18.2138672 L21.1448242,18.8291016 C20.7893537,19.0341807 20.322236,19.1367188 19.743457,19.1367188 C19.1099903,19.1367188 18.5551456,18.9316427 18.0789062,18.5214844 C17.6026669,18.1113261 17.2346693,17.5177448 16.9749023,16.7407227 C16.7151354,15.9637005 16.5852539,15.0419975 16.5852539,13.9755859 C16.5852539,12.3805259 16.8689425,11.1272832 17.4363281,10.2158203 C18.0037138,9.30435742 18.7773063,8.84863281 19.7571289,8.84863281 C20.367809,8.84863281 20.9010068,8.98990744 21.3567383,9.27246094 L21.0491211,9.86035156 C20.6663067,9.61425658 20.2310897,9.49121094 19.743457,9.49121094 L19.743457,9.49121094 Z M27.5450195,19 L26.7930664,19 L24.4415039,14.0166016 L23.669043,15.0351562 L23.669043,19 L22.9991211,19 L22.9991211,9.00585938 L23.669043,9.00585938 L23.669043,14.296875 C23.901466,13.8593728 24.8858312,12.0957186 26.622168,9.00585938 L27.3536133,9.00585938 L24.8448242,13.4013672 L27.5450195,19 Z M32.4618164,19 L28.8387695,19 L28.8387695,9.00585938 L32.4618164,9.00585938 L32.4618164,9.6484375 L29.5086914,9.6484375 L29.5086914,13.4423828 L32.2977539,13.4423828 L32.2977539,14.0849609 L29.5086914,14.0849609 L29.5086914,18.3574219 L32.4618164,18.3574219 L32.4618164,19 Z M36.0866211,19 L35.4166992,19 L35.4166992,9.6484375 L33.4274414,9.6484375 L33.4274414,9.00585938 L38.0758789,9.00585938 L38.0758789,9.6484375 L36.0866211,9.6484375 L36.0866211,19 Z M39.4858398,9.00585938 L41.3999023,9.00585938 C42.1837604,9.00585938 42.7864562,9.2063782 43.2080078,9.60742188 C43.6295594,10.0084655 43.840332,10.6009075 43.840332,11.3847656 C43.840332,12.738288 43.3458708,13.5130199 42.3569336,13.7089844 L42.3569336,13.7636719 C42.9265979,13.8821621 43.3504218,14.1362285 43.628418,14.5258789 C43.9064142,14.9155293 44.0454102,15.4589809 44.0454102,16.15625 C44.0454102,17.0494836 43.84717,17.7467423 43.4506836,18.2480469 C43.0541972,18.7493515 42.4982132,19 41.7827148,19 L39.4858398,19 L39.4858398,9.00585938 Z M40.1557617,13.4560547 L41.4135742,13.4560547 C42.0379263,13.4560547 42.4833971,13.2840186 42.75,12.9399414 C43.0166029,12.5958642 43.1499023,12.0729202 43.1499023,11.3710938 C43.1499023,10.8059868 43.0029312,10.3730484 42.7089844,10.0722656 C42.4150376,9.77148287 41.9786813,9.62109375 41.3999023,9.62109375 L40.1557617,9.62109375 L40.1557617,13.4560547 Z M40.1557617,14.0712891 L40.1557617,18.3847656 L41.6938477,18.3847656 C42.7967178,18.3847656 43.3481445,17.6373773 43.3481445,16.1425781 C43.3481445,15.4772102 43.1863623,14.9656593 42.862793,14.6079102 C42.5392236,14.250161 42.0857777,14.0712891 41.5024414,14.0712891 L40.1557617,14.0712891 Z M49.509082,19 L45.8860352,19 L45.8860352,9.00585938 L49.509082,9.00585938 L49.509082,9.6484375 L46.555957,9.6484375 L46.555957,13.4423828 L49.3450195,13.4423828 L49.3450195,14.0849609 L46.555957,14.0849609 L46.555957,18.3574219 L49.509082,18.3574219 L49.509082,19 Z M51.4727539,19 L51.4727539,9.00585938 L52.1426758,9.00585938 L52.1426758,18.3574219 L54.959082,18.3574219 L54.959082,19 L51.4727539,19 Z M57.9139649,19 L57.244043,19 L57.244043,9.6484375 L55.2547852,9.6484375 L55.2547852,9.00585938 L59.9032227,9.00585938 L59.9032227,9.6484375 L57.9139649,9.6484375 L57.9139649,19 Z M60.287793,18.3847656 C60.287793,17.897133 60.4655256,17.6533203 60.8209961,17.6533203 C60.9668302,17.6533203 61.0921544,17.7080073 61.1969727,17.8173828 C61.3017909,17.9267584 61.3541992,18.1158841 61.3541992,18.3847656 C61.3541992,18.6445325 61.3017909,18.8302403 61.1969727,18.9418945 C61.0921544,19.0535487 60.9668302,19.109375 60.8209961,19.109375 C60.4655256,19.109375 60.287793,18.867841 60.287793,18.3847656 L60.287793,18.3847656 Z M63.5571289,19 L63.5571289,9.00585938 L64.2270508,9.00585938 L64.2270508,19 L63.5571289,19 Z M72.0422852,13.9892578 C72.0422852,15.643563 71.7950546,16.9150346 71.300586,17.8037109 C70.8061173,18.6923873 70.091769,19.1367188 69.1575195,19.1367188 C68.2141555,19.1367188 67.4986678,18.6889693 67.0110352,17.793457 C66.5234025,16.8979447 66.2795899,15.6253338 66.2795899,13.9755859 C66.2795899,12.2529211 66.5211239,10.9700563 67.0041992,10.1269531 C67.4872746,9.28384995 68.2118767,8.86230469 69.1780274,8.86230469 C70.1077195,8.86230469 70.8175106,9.30549687 71.3074219,10.1918945 C71.7973332,11.0782922 72.0422852,12.3440673 72.0422852,13.9892578 L72.0422852,13.9892578 Z M66.9768555,13.9892578 C66.9768555,15.4749423 67.1625633,16.5971642 67.5339844,17.355957 C67.9054055,18.1147499 68.4465785,18.4941406 69.1575195,18.4941406 C69.8730179,18.4941406 70.4164695,18.1181678 70.7878906,17.3662109 C71.1593118,16.6142541 71.3450195,15.4886143 71.3450195,13.9892578 C71.3450195,12.5081306 71.1627297,11.390466 70.7981445,10.6362305 C70.4335594,9.88199493 69.8935257,9.50488281 69.1780274,9.50488281 C68.4442997,9.50488281 67.8940123,9.88655217 67.5271485,10.6499023 C67.1602846,11.4132525 66.9768555,12.5263599 66.9768555,13.9892578 L66.9768555,13.9892578 Z" transform="translate(-3 -8)"/>
</svg>
