<?xml version="1.0" encoding="UTF-8"?>
<svg width="16px" height="16px" viewBox="0 0 16 16" version="1.1" xmlns="http://www.w3.org/2000/svg" xmlns:xlink="http://www.w3.org/1999/xlink">
    
    <title>Icon/arrow-up</title>
    <desc>Created with sketchtool.</desc>
    <g id="Icons" stroke="none" stroke-width="1" fill="none" fill-rule="evenodd">
        <g id="Icon/arrow-up" fill="#00205B">
            <path d="M13.7863298,6.014 L8.34732981,1.371 C8.16132981,1.212 7.88732981,1.213 7.69932981,1.37 L2.21532981,6.013 C2.00432981,6.191 1.97832981,6.507 2.15632981,6.718 C2.25532981,6.834 2.39632981,6.894 2.53832981,6.894 C2.65232981,6.894 2.76732981,6.855 2.86132981,6.776 L7.50032981,2.849 L7.50032981,14.248 C7.50032981,14.525 7.72432981,14.748 8.00032981,14.748 C8.27632981,14.748 8.50032981,14.525 8.50032981,14.248 L8.50032981,2.816 L13.1383298,6.775 C13.3473298,6.953 13.6633298,6.93 13.8423298,6.719 C14.0213298,6.509 13.9963298,6.193 13.7863298,6.014" id="Icon-Color"></path>
        </g>
    </g>
</svg>