<?xml version="1.0" encoding="UTF-8"?>
<svg width="16px" height="16px" viewBox="0 0 16 16" version="1.1" xmlns="http://www.w3.org/2000/svg" xmlns:xlink="http://www.w3.org/1999/xlink">
    
    <title>Icon/cart</title>
    <desc>Created with sketchtool.</desc>
    <g id="Icons" stroke="none" stroke-width="1" fill="none" fill-rule="evenodd">
        <g id="Icon/cart" fill="#00205B">
            <path d="M5.08144455,14.64065 C4.50444455,14.64065 4.03544455,14.17065 4.03544455,13.59465 C4.03544455,13.01665 4.50444455,12.54765 5.08144455,12.54765 C5.65844455,12.54765 6.12744455,13.01665 6.12744455,13.59465 C6.12744455,14.17065 5.65844455,14.64065 5.08144455,14.64065 M5.08144455,11.82765 C6.05544455,11.82765 6.84844455,12.61965 6.84844455,13.59465 C6.84844455,14.56865 6.05544455,15.36065 5.08144455,15.36065 C4.10744455,15.36065 3.31444455,14.56865 3.31444455,13.59465 C3.31444455,12.61965 4.10744455,11.82765 5.08144455,11.82765 Z M12.3001446,11.82765 C13.2751446,11.82765 14.0681446,12.61965 14.0681446,13.59465 C14.0681446,14.56865 13.2751446,15.36065 12.3001446,15.36065 C11.3261446,15.36065 10.5331446,14.56865 10.5331446,13.59465 C10.5331446,12.61965 11.3261446,11.82765 12.3001446,11.82765 Z M12.3001446,12.54765 C11.7231446,12.54765 11.2541446,13.01665 11.2541446,13.59465 C11.2541446,14.17065 11.7231446,14.64065 12.3001446,14.64065 C12.8771446,14.64065 13.3471446,14.17065 13.3471446,13.59465 C13.3471446,13.01665 12.8771446,12.54765 12.3001446,12.54765 Z M0.419544555,0.63935 L1.55454455,0.63935 C1.67704455,0.63935 1.78982233,0.70185 1.85584085,0.801965741 L1.88954455,0.86635 L4.66854455,7.88135 C4.80721122,7.86001667 4.94987789,7.84312778 5.09891492,7.83423889 L5.32754455,7.82735 L12.8385446,7.82735 L15.2475446,1.81835 C15.3225446,1.63335 15.5325446,1.54635 15.7155446,1.61835 C15.8765446,1.6831 15.9655758,1.85120937 15.9357438,2.01616055 L15.9155446,2.08635 L13.4155446,8.32135 C13.3697112,8.43551667 13.2704057,8.51635 13.1535075,8.54012315 L13.0815446,8.54735 L5.32754455,8.54735 C4.46354455,8.54735 3.54389913,8.83544972 3.44948769,9.63186903 L3.44154455,9.76935 L3.44154455,10.82735 L14.0815446,10.82735 C14.2805446,10.82735 14.4415446,10.98835 14.4415446,11.18735 C14.4415446,11.361475 14.3182789,11.5065062 14.1541481,11.5400434 L14.0815446,11.54735 L3.08154455,11.54735 C2.90741955,11.54735 2.7623883,11.4240844 2.7288512,11.2599535 L2.72154455,11.18735 L2.72154455,9.76935 C2.72154455,9.03201667 3.12835344,8.46280778 3.81676352,8.13652274 L3.96854455,8.07035 L1.30954455,1.35935 L0.419544555,1.35935 C0.220544555,1.35935 0.0585445546,1.19835 0.0585445546,0.99935 C0.0585445546,0.825225 0.182575805,0.68019375 0.34689807,0.646656641 L0.419544555,0.63935 L1.55454455,0.63935 Z" id="Icon-Color"></path>
        </g>
    </g>
</svg>