<?xml version="1.0" encoding="UTF-8"?>
<svg width="16px" height="16px" viewBox="0 0 16 16" version="1.1" xmlns="http://www.w3.org/2000/svg" xmlns:xlink="http://www.w3.org/1999/xlink">
    
    <title>Icon/chat-single</title>
    <desc>Created with sketchtool.</desc>
    <g id="Icons" stroke="none" stroke-width="1" fill="none" fill-rule="evenodd">
        <g id="Icon/chat-single" fill="#00205B">
            <path d="M14.327,9.9175 L7.813,9.9175 C7.697,9.9175 7.588,9.9735 7.52,10.0675 L4.875,13.7665 L4.875,10.2775 C4.875,10.0785 4.714,9.9175 4.514,9.9175 L1.673,9.9175 L1.673,1.4725 L14.327,1.4725 L14.327,9.9175 Z M14.687,0.7525 L1.312,0.7525 C1.113,0.7525 0.952,0.9135 0.952,1.1125 L0.952,10.2775 C0.952,10.4765 1.113,10.6375 1.312,10.6375 L4.154,10.6375 L4.154,14.8875 C4.154,15.0435 4.256,15.1825 4.404,15.2305 C4.44,15.2425 4.477,15.2475 4.514,15.2475 C4.629,15.2475 4.738,15.1935 4.807,15.0975 L7.999,10.6375 L14.687,10.6375 C14.887,10.6375 15.048,10.4765 15.048,10.2775 L15.048,1.1125 C15.048,0.9135 14.887,0.7525 14.687,0.7525 L14.687,0.7525 Z M4.0829,4.543 L11.9159,4.543 C12.1149,4.543 12.2759,4.382 12.2759,4.183 C12.2759,3.984 12.1149,3.823 11.9159,3.823 L4.0829,3.823 C3.8839,3.823 3.7229,3.984 3.7229,4.183 C3.7229,4.382 3.8839,4.543 4.0829,4.543 M4.0829,6.9527 L11.9159,6.9527 C12.1149,6.9527 12.2759,6.7917 12.2759,6.5927 C12.2759,6.3937 12.1149,6.2327 11.9159,6.2327 L4.0829,6.2327 C3.8839,6.2327 3.7229,6.3937 3.7229,6.5927 C3.7229,6.7917 3.8839,6.9527 4.0829,6.9527" id="Icon-Color"></path>
        </g>
    </g>
</svg>