<?xml version="1.0" encoding="UTF-8"?>
<svg width="16px" height="16px" viewBox="0 0 16 16" version="1.1" xmlns="http://www.w3.org/2000/svg" xmlns:xlink="http://www.w3.org/1999/xlink">
    
    <title>Icon/chat-double-o</title>
    <desc>Created with sketchtool.</desc>
    <g id="Icons" stroke="none" stroke-width="1" fill="none" fill-rule="evenodd">
        <g id="Icon/chat-double-o" fill="#00205B">
            <path d="M14.7725,11.037 L13.6365,11.037 C13.4375,11.037 13.2765,11.198 13.2765,11.397 L13.2765,12.91 L11.8095,11.165 C11.7415,11.084 11.6405,11.037 11.5345,11.037 L7.9265,11.037 L7.9265,10.552 L12.7425,10.552 C12.9415,10.552 13.1025,10.391 13.1025,10.192 L13.1025,5.257 L14.7725,5.257 L14.7725,11.037 Z M6.5135,9.832 C6.3965,9.832 6.2865,9.889 6.2185,9.985 L3.5745,13.757 L3.5745,10.192 C3.5745,9.993 3.4135,9.832 3.2135,9.832 L1.2275,9.832 L1.2275,1.463 L12.3815,1.463 L12.3815,9.832 L7.5685,9.832 C7.5685,9.832 7.5675,9.831 7.5665,9.831 C7.5655,9.831 7.5645,9.832 7.5645,9.832 L6.5135,9.832 Z M15.1325,4.537 L13.1025,4.537 L13.1025,1.103 C13.1025,0.904 12.9415,0.743 12.7425,0.743 L0.8675,0.743 C0.6685,0.743 0.5065,0.904 0.5065,1.103 L0.5065,10.192 C0.5065,10.391 0.6685,10.552 0.8675,10.552 L2.8535,10.552 L2.8535,14.897 C2.8535,15.054 2.9565,15.193 3.1055,15.24 C3.1415,15.251 3.1775,15.257 3.2135,15.257 C3.3295,15.257 3.4395,15.202 3.5085,15.103 L6.7015,10.552 L7.2065,10.552 L7.2065,11.397 C7.2065,11.596 7.3675,11.757 7.5665,11.757 L11.3665,11.757 L13.3615,14.129 C13.4305,14.211 13.5325,14.257 13.6365,14.257 C13.6775,14.257 13.7195,14.25 13.7595,14.235 C13.9025,14.183 13.9975,14.048 13.9975,13.897 L13.9975,11.757 L15.1325,11.757 C15.3325,11.757 15.4935,11.596 15.4935,11.397 L15.4935,4.897 C15.4935,4.698 15.3325,4.537 15.1325,4.537 L15.1325,4.537 Z M2.8878,4.5824 L10.7208,4.5824 C10.9198,4.5824 11.0808,4.4214 11.0808,4.2224 C11.0808,4.0234 10.9198,3.8624 10.7208,3.8624 L2.8878,3.8624 C2.6888,3.8624 2.5278,4.0234 2.5278,4.2224 C2.5278,4.4214 2.6888,4.5824 2.8878,4.5824 M11.0811,6.5712 C11.0811,6.3722 10.9201,6.2112 10.7211,6.2112 L2.8881,6.2112 C2.6881,6.2112 2.5271,6.3722 2.5271,6.5712 C2.5271,6.7702 2.6881,6.9312 2.8881,6.9312 L10.7211,6.9312 C10.9201,6.9312 11.0811,6.7702 11.0811,6.5712" id="Icon-Color"></path>
        </g>
    </g>
</svg>