<?xml version="1.0" encoding="UTF-8"?>
<svg width="16px" height="16px" viewBox="0 0 16 16" version="1.1" xmlns="http://www.w3.org/2000/svg" xmlns:xlink="http://www.w3.org/1999/xlink">
    
    <title>Icon/credit-card</title>
    <desc>Created with sketchtool.</desc>
    <g id="Icons" stroke="none" stroke-width="1" fill="none" fill-rule="evenodd">
        <g id="Icon/credit-card" fill="#00205B">
            <path d="M14.4465,12.5775 L1.5535,12.5775 C1.1715,12.5775 0.8605,12.2905 0.8605,11.9375 L0.8605,6.0315 C0.8675,6.0325 0.8735,6.0355 0.8805,6.0355 L15.1095,6.0355 C15.1205,6.0355 15.1295,6.0305 15.1395,6.0295 L15.1395,11.9375 C15.1395,12.2905 14.8295,12.5775 14.4465,12.5775 M1.5535,3.4225 L14.4465,3.4225 C14.8295,3.4225 15.1395,3.7095 15.1395,4.0625 L15.1395,5.3225 C15.1295,5.3215 15.1205,5.3155 15.1095,5.3155 L0.8805,5.3155 C0.8735,5.3155 0.8675,5.3195 0.8605,5.3195 L0.8605,4.0625 C0.8605,3.7095 1.1715,3.4225 1.5535,3.4225 M14.4465,2.7025 L1.5535,2.7025 C0.7745,2.7025 0.1395,3.3125 0.1395,4.0625 L0.1395,11.9375 C0.1395,12.6875 0.7745,13.2975 1.5535,13.2975 L14.4465,13.2975 C15.2255,13.2975 15.8605,12.6875 15.8605,11.9375 L15.8605,4.0625 C15.8605,3.3125 15.2255,2.7025 14.4465,2.7025 M4.5003,8.1414 L2.5003,8.1414 C2.3013,8.1414 2.1403,8.3024 2.1403,8.5014 C2.1403,8.7004 2.3013,8.8614 2.5003,8.8614 L4.5003,8.8614 C4.6993,8.8614 4.8603,8.7004 4.8603,8.5014 C4.8603,8.3024 4.6993,8.1414 4.5003,8.1414 M10.5003,8.1414 L6.5003,8.1414 C6.3013,8.1414 6.1403,8.3024 6.1403,8.5014 C6.1403,8.7004 6.3013,8.8614 6.5003,8.8614 L10.5003,8.8614 C10.6993,8.8614 10.8603,8.7004 10.8603,8.5014 C10.8603,8.3024 10.6993,8.1414 10.5003,8.1414" id="Icon-Color"></path>
        </g>
    </g>
</svg>