<?xml version="1.0" encoding="UTF-8"?>
<svg width="16px" height="16px" viewBox="0 0 16 16" version="1.1" xmlns="http://www.w3.org/2000/svg" xmlns:xlink="http://www.w3.org/1999/xlink">
    
    <title>Icon/delete</title>
    <desc>Created with sketchtool.</desc>
    <g id="Icons" stroke="none" stroke-width="1" fill="none" fill-rule="evenodd">
        <g id="Icon/delete" fill="#00205B">
            <path d="M14.3895,3.6765 L1.6105,3.6765 L1.6105,2.6275 L5.6935,2.6275 L10.3095,2.6275 L14.3895,2.6275 L14.3895,3.6765 Z M10.9895,15.0855 L4.9725,15.0855 L3.0235,4.3965 L12.9315,4.3965 L10.9895,15.0855 Z M6.0535,1.9075 L9.9495,1.9075 L9.9495,0.9155 L6.0535,0.9155 L6.0535,1.9075 Z M14.7495,1.9075 L10.6695,1.9075 L10.6695,0.5555 C10.6695,0.3565 10.5085,0.1955 10.3095,0.1955 L5.6935,0.1955 C5.4935,0.1955 5.3325,0.3565 5.3325,0.5555 L5.3325,1.9075 L1.2495,1.9075 C1.0505,1.9075 0.8895,2.0685 0.8895,2.2675 L0.8895,4.0365 C0.8895,4.2355 1.0505,4.3965 1.2495,4.3965 L2.2905,4.3965 L4.3175,15.5095 C4.3485,15.6805 4.4975,15.8045 4.6715,15.8045 L11.2895,15.8045 C11.4635,15.8045 11.6135,15.6805 11.6445,15.5095 L13.6635,4.3965 L14.7495,4.3965 C14.9495,4.3965 15.1105,4.2355 15.1105,4.0365 L15.1105,2.2675 C15.1105,2.0685 14.9495,1.9075 14.7495,1.9075 L14.7495,1.9075 Z M9.1034,13.4109 C9.1224,13.4139 9.1414,13.4149 9.1604,13.4149 C9.3334,13.4149 9.4874,13.2889 9.5154,13.1129 L10.6654,5.9499 C10.6964,5.7539 10.5624,5.5689 10.3664,5.5369 C10.1714,5.5049 9.9864,5.6399 9.9544,5.8359 L8.8044,12.9979 C8.7734,13.1949 8.9074,13.3789 9.1034,13.4109" id="Icon-Color"></path>
        </g>
    </g>
</svg>