<?xml version="1.0" encoding="UTF-8"?>
<svg width="16px" height="16px" viewBox="0 0 16 16" version="1.1" xmlns="http://www.w3.org/2000/svg" xmlns:xlink="http://www.w3.org/1999/xlink">
    
    <title>Icon/delivered</title>
    <desc>Created with sketchtool.</desc>
    <g id="Icons" stroke="none" stroke-width="1" fill="none" fill-rule="evenodd">
        <g id="Icon/delivered" fill="#00205B">
            <path d="M11.64005,4.71385 L13.12005,4.71385 L13.12005,3.23385 L11.64005,3.23385 L11.64005,4.71385 Z M1.95605,7.82385 L6.03005,7.82385 C6.13725,7.82385 6.23677,7.87185 6.304546,7.951466 L6.34905,8.01685 L7.27505,9.77185 L7.28305,9.80785 C7.30105,9.84585 7.30905,9.88785 7.31205,9.93185 C7.31205,9.93885 7.31605,9.94485 7.31605,9.95085 L7.31655,9.95335 L7.31705,9.95585 L7.31705,14.93885 C7.31705,15.112975 7.19301875,15.2580063 7.02869648,15.2915434 L6.95605,15.29885 L1.03105,15.29885 C0.856925,15.29885 0.71189375,15.1755844 0.678356641,15.0114535 L0.67105,14.93885 L0.67155,9.95335 C0.67205,9.94485 0.67605,9.93785 0.67605,9.93185 C0.67905,9.88785 0.68805,9.84585 0.70505,9.80785 L0.7083,9.789475 L0.7083,9.789475 L0.71305,9.77185 L1.63805,8.01685 C1.68765,7.92245 1.77565,7.85557 1.877474,7.832594 L1.95605,7.82385 L6.03005,7.82385 Z M6.59605,10.31585 L1.39205,10.31585 L1.39205,14.57785 L6.59605,14.57785 L6.59605,10.31585 Z M14.96895,0.70115 C15.143075,0.70115 15.2881062,0.824415625 15.3216434,0.988546484 L15.32895,1.06115 L15.32895,14.04015 C15.32895,14.214275 15.2056844,14.3593063 15.0415535,14.3928434 L14.96895,14.40015 L8.54195,14.40015 C8.34295,14.40015 8.18195,14.23915 8.18195,14.04015 C8.18195,13.866025 8.30521562,13.7209938 8.46934648,13.6874566 L8.54195,13.68015 L14.60895,13.68015 L14.60895,1.42215 L6.65495,1.42215 L6.65495,7.06115 C6.65495,7.26115 6.49295,7.42215 6.29395,7.42215 C6.119825,7.42215 5.97479375,7.29888438 5.94125664,7.13408359 L5.93395,7.06115 L5.93395,1.06115 C5.93395,0.887025 6.05721562,0.74199375 6.22134648,0.708456641 L6.29395,0.70115 L14.96895,0.70115 Z M5.42235,11.41345 C5.62135,11.41345 5.78235,11.57445 5.78235,11.77345 C5.78235,11.97245 5.62135,12.13345 5.42235,12.13345 L5.42235,12.13345 L2.51935,12.13345 C2.32035,12.13345 2.15935,11.97245 2.15935,11.77345 C2.15935,11.57445 2.32035,11.41345 2.51935,11.41345 L2.51935,11.41345 Z M13.15445,8.21385 C13.60145,8.21385 13.96445,8.57585 13.96445,9.02285 C13.96445,9.46985 13.60145,9.83185 13.15445,9.83185 C12.70745,9.83185 12.34445,9.46985 12.34445,9.02285 C12.34445,8.57585 12.70745,8.21385 13.15445,8.21385 Z M3.63205,8.54485 L2.17305,8.54485 L1.62805,9.57885 L3.63305,9.57885 L3.63205,8.54485 Z M5.81405,8.54485 L4.35305,8.54485 L4.35405,9.57885 L6.35905,9.57885 L5.81405,8.54485 Z M13.48105,2.51285 C13.655175,2.51285 13.8002062,2.63611563 13.8337434,2.80024648 L13.84105,2.87285 L13.84105,5.07385 C13.84105,5.24885 13.7177844,5.39399063 13.5536535,5.42754141 L13.48105,5.43485 L11.27905,5.43485 C11.104925,5.43485 10.9598937,5.31158438 10.9263566,5.14678359 L10.91905,5.07385 L10.91905,2.87285 C10.91905,2.698725 11.0423156,2.55369375 11.2064465,2.52015664 L11.27905,2.51285 L13.48105,2.51285 Z M9.95105,2.51285 C10.125175,2.51285 10.2709719,2.63611563 10.3047004,2.80024648 L10.31205,2.87285 L10.31205,5.07385 C10.31205,5.24885 10.1880187,5.39399063 10.0236965,5.42754141 L9.95105,5.43485 L7.75005,5.43485 C7.575925,5.43485 7.43089375,5.31158438 7.39735664,5.14678359 L7.39005,5.07385 L7.39005,2.87285 C7.39005,2.698725 7.51331562,2.55369375 7.67744648,2.52015664 L7.75005,2.51285 L9.95105,2.51285 Z M9.59105,3.23385 L8.11105,3.23385 L8.11105,4.71385 L9.59105,4.71385 L9.59105,3.23385 Z" id="Icon-Color"></path>
        </g>
    </g>
</svg>