<?xml version="1.0" encoding="UTF-8"?>
<svg width="16px" height="16px" viewBox="0 0 16 16" version="1.1" xmlns="http://www.w3.org/2000/svg" xmlns:xlink="http://www.w3.org/1999/xlink">
    
    <title>Icon/delivered</title>
    <desc>Created with sketchtool.</desc>
    <g id="Icons" stroke="none" stroke-width="1" fill="none" fill-rule="evenodd">
        <g id="Icon/delivered" fill="#00205B">
            <path d="M11.64005,4.71385 L13.12005,4.71385 L13.12005,3.23385 L11.64005,3.23385 L11.64005,4.71385 Z M13.48105,2.51285 C13.68005,2.51285 13.84105,2.67385 13.84105,2.87285 L13.84105,5.07385 C13.84105,5.27385 13.68005,5.43485 13.48105,5.43485 L11.27905,5.43485 C11.08005,5.43485 10.91905,5.27385 10.91905,5.07385 L10.91905,2.87285 C10.91905,2.67385 11.08005,2.51285 11.27905,2.51285 L13.48105,2.51285 Z M8.11105,4.71385 L9.59105,4.71385 L9.59105,3.23385 L8.11105,3.23385 L8.11105,4.71385 Z M10.31205,5.07385 C10.31205,5.27385 10.15005,5.43485 9.95105,5.43485 L7.75005,5.43485 C7.55105,5.43485 7.39005,5.27385 7.39005,5.07385 L7.39005,2.87285 C7.39005,2.67385 7.55105,2.51285 7.75005,2.51285 L9.95105,2.51285 C10.15005,2.51285 10.31205,2.67385 10.31205,2.87285 L10.31205,5.07385 Z M13.15445,8.21385 C13.60145,8.21385 13.96445,8.57585 13.96445,9.02285 C13.96445,9.46985 13.60145,9.83185 13.15445,9.83185 C12.70745,9.83185 12.34445,9.46985 12.34445,9.02285 C12.34445,8.57585 12.70745,8.21385 13.15445,8.21385 Z M14.96895,0.70115 C15.16795,0.70115 15.32895,0.86215 15.32895,1.06115 L15.32895,14.04015 C15.32895,14.23915 15.16795,14.40015 14.96895,14.40015 L8.54195,14.40015 C8.34295,14.40015 8.18195,14.23915 8.18195,14.04015 C8.18195,13.84115 8.34295,13.68015 8.54195,13.68015 L14.60895,13.68015 L14.60895,1.42215 L6.65495,1.42215 L6.65495,7.06115 C6.65495,7.26115 6.49295,7.42215 6.29395,7.42215 C6.09495,7.42215 5.93395,7.26115 5.93395,7.06115 L5.93395,1.06115 C5.93395,0.86215 6.09495,0.70115 6.29395,0.70115 L14.96895,0.70115 Z M1.39205,14.57785 L6.59605,14.57785 L6.59605,10.31585 L1.39205,10.31585 L1.39205,14.57785 Z M2.17305,8.54485 L1.62805,9.57885 L3.63305,9.57885 L3.63205,8.54485 L2.17305,8.54485 Z M6.35905,9.57885 L5.81405,8.54485 L4.35305,8.54485 L4.35405,9.57885 L6.35905,9.57885 Z M7.31205,9.93185 C7.31205,9.93885 7.31605,9.94485 7.31605,9.95085 C7.31605,9.95285 7.31705,9.95385 7.31705,9.95585 L7.31705,14.93885 C7.31705,15.13785 7.15505,15.29885 6.95605,15.29885 L1.03105,15.29885 C0.83205,15.29885 0.67105,15.13785 0.67105,14.93885 L0.67105,9.95585 C0.67105,9.95385 0.67205,9.95285 0.67205,9.95085 C0.67205,9.94485 0.67605,9.93785 0.67605,9.93185 C0.67905,9.88785 0.68805,9.84585 0.70505,9.80785 C0.70905,9.79585 0.70705,9.78285 0.71305,9.77185 L1.63805,8.01685 C1.70005,7.89885 1.82205,7.82385 1.95605,7.82385 L6.03005,7.82385 C6.16405,7.82385 6.28605,7.89885 6.34905,8.01685 L7.27505,9.77185 C7.28005,9.78285 7.27805,9.79585 7.28305,9.80785 C7.30105,9.84585 7.30905,9.88785 7.31205,9.93185 Z M2.15935,11.77345 C2.15935,11.57445 2.32035,11.41345 2.51935,11.41345 L5.42235,11.41345 C5.62135,11.41345 5.78235,11.57445 5.78235,11.77345 C5.78235,11.97245 5.62135,12.13345 5.42235,12.13345 L2.51935,12.13345 C2.32035,12.13345 2.15935,11.97245 2.15935,11.77345 Z" id="Icon-Color"></path>
        </g>
    </g>
</svg>