<?xml version="1.0" encoding="UTF-8"?>
<svg width="16px" height="16px" viewBox="0 0 16 16" version="1.1" xmlns="http://www.w3.org/2000/svg" xmlns:xlink="http://www.w3.org/1999/xlink">
    
    <title>Icon/envelope</title>
    <desc>Created with sketchtool.</desc>
    <g id="Icons" stroke="none" stroke-width="1" fill="none" fill-rule="evenodd">
        <g id="Icon/envelope" fill="#00205B">
            <path d="M13.2284,4.5757 C13.3784,4.4487 13.6064,4.4647 13.7354,4.6157 C13.8654,4.7667 13.8464,4.9937 13.6954,5.1237 L10.6844,7.6937 L13.2854,9.9137 C13.4364,10.0427 13.4554,10.2697 13.3254,10.4217 C13.2534,10.5047 13.1534,10.5477 13.0514,10.5477 C12.9684,10.5477 12.8854,10.5187 12.8184,10.4617 L10.1294,8.1667 L8.2554,9.7657 C8.1884,9.8237 8.1054,9.8517 8.0224,9.8517 C7.9394,9.8517 7.8574,9.8237 7.7904,9.7667 L5.9814,8.2367 C5.9714,8.2477 5.9744,8.2637 5.9624,8.2737 L3.2334,10.6037 C3.1654,10.6607 3.0824,10.6897 2.9994,10.6897 C2.8984,10.6897 2.7974,10.6467 2.7264,10.5637 C2.5964,10.4117 2.6154,10.1847 2.7664,10.0557 L5.4374,7.7757 L2.3054,5.1247 C2.1534,4.9957 2.1344,4.7687 2.2634,4.6177 C2.3924,4.4647 2.6194,4.4467 2.7704,4.5747 L8.0214,9.0197 L13.2284,4.5757 Z M15.1395,11.9375 L15.1395,4.0625 C15.1395,3.7095 14.8275,3.4225 14.4455,3.4225 L1.5535,3.4225 C1.1705,3.4225 0.8605,3.7095 0.8605,4.0625 L0.8605,11.9375 C0.8605,12.2905 1.1705,12.5775 1.5535,12.5775 L14.4455,12.5775 C14.8275,12.5775 15.1395,12.2905 15.1395,11.9375 Z M14.4455,2.7025 C15.2255,2.7025 15.8605,3.3125 15.8605,4.0625 L15.8605,11.9375 C15.8605,12.6875 15.2255,13.2975 14.4455,13.2975 L1.5535,13.2975 C0.7745,13.2975 0.1395,12.6875 0.1395,11.9375 L0.1395,4.0625 C0.1395,3.3125 0.7745,2.7025 1.5535,2.7025 L14.4455,2.7025 Z" id="Icon-Color"></path>
        </g>
    </g>
</svg>