<?xml version="1.0" encoding="UTF-8"?>
<svg width="16px" height="16px" viewBox="0 0 16 16" version="1.1" xmlns="http://www.w3.org/2000/svg" xmlns:xlink="http://www.w3.org/1999/xlink">
    
    <title>Icon/error</title>
    <desc>Created with sketchtool.</desc>
    <g id="Icons" stroke="none" stroke-width="1" fill="none" fill-rule="evenodd">
        <g id="Icon/error" fill="#00205B">
            <path d="M14.6295,10.87675 L10.5615,14.94575 L4.8075,14.94575 L0.7375,10.87675 L0.7375,5.12375 L4.8075,1.05375 L10.5615,1.05375 L14.6295,5.12375 L14.6295,10.87675 Z M15.2585,4.70975 L10.9745,0.42475 C10.9055,0.35575 10.8125,0.31675 10.7135,0.31675 L4.6535,0.31675 C4.5565,0.31675 4.4625,0.35575 4.3935,0.42475 L0.1085,4.70975 C0.0385,4.77875 -0.0005,4.87275 -0.0005,4.97075 L-0.0005,11.02875 C-0.0005,11.12675 0.0385,11.22075 0.1085,11.28975 L4.3935,15.57475 C4.4625,15.64375 4.5565,15.68275 4.6535,15.68275 L10.7135,15.68275 C10.8125,15.68275 10.9055,15.64375 10.9745,15.57475 L15.2585,11.28975 C15.3275,11.22075 15.3665,11.12675 15.3665,11.02875 L15.3665,4.97075 C15.3665,4.87375 15.3275,4.77875 15.2585,4.70975 L15.2585,4.70975 Z M8.5719,9.09455 L8.8899,2.77455 L6.7829,2.77455 L7.0999,9.09455 L8.5719,9.09455 Z M7.8365,10.43585 C7.2205,10.43585 6.7215,10.93585 6.7215,11.55085 C6.7215,12.16585 7.2205,12.66585 7.8365,12.66585 C8.4515,12.66585 8.9505,12.16585 8.9505,11.55085 C8.9505,10.93585 8.4515,10.43585 7.8365,10.43585" id="Icon-Color"></path>
        </g>
    </g>
</svg>