<?xml version="1.0" encoding="UTF-8"?>
<svg width="16px" height="16px" viewBox="0 0 16 16" version="1.1" xmlns="http://www.w3.org/2000/svg" xmlns:xlink="http://www.w3.org/1999/xlink">
    
    <title>Icon/facebook</title>
    <desc>Created with sketchtool.</desc>
    <g id="Icons" stroke="none" stroke-width="1" fill="none" fill-rule="evenodd">
        <g id="Icon/facebook" fill="#00205B">
            <path d="M6.50567452,15.9847572 C2.80156986,15.2794211 0,12.000733 0,8.0625843 C0,3.60974195 3.581722,0 8,0 C12.418278,0 16,3.60974195 16,8.0625843 C16,12.0298908 13.1567913,15.3279353 9.41190303,16 L9.41190303,9.52479715 L11.3621173,9.52479715 C11.3621173,9.52479715 11.5447634,8.45976001 11.6332983,7.2952466 C11.3794656,7.2952466 9.42289245,7.2952466 9.42289245,7.2952466 C9.42289245,7.2952466 9.42289245,6.0030367 9.42289245,5.77653878 C9.42289245,5.54955008 9.73975947,5.24421959 10.0529416,5.24421959 C10.3655368,5.24421959 11.0252932,5.24421959 11.6363636,5.24421959 C11.6363636,4.94180315 11.6363636,3.89688825 11.6363636,2.93184884 C10.8206031,2.93184884 9.89253522,2.93184884 9.48344839,2.93184884 C6.43383567,2.93169547 6.50567452,5.15508052 6.50567452,5.48697481 C6.50567452,5.81945192 6.50567452,7.3034366 6.50567452,7.3034366 L5.09090909,7.3034366 L5.09090909,9.52461311 L6.50567452,9.52461311 L6.50567452,15.9847572 Z" id="Icon-Color"></path>
        </g>
    </g>
</svg>