<?xml version="1.0" encoding="UTF-8"?>
<svg width="16px" height="16px" viewBox="0 0 16 16" version="1.1" xmlns="http://www.w3.org/2000/svg" xmlns:xlink="http://www.w3.org/1999/xlink">
    
    <title>Icon/gift</title>
    <desc>Created with sketchtool.</desc>
    <g id="Icons" stroke="none" stroke-width="1" fill="none" fill-rule="evenodd">
        <g id="Icon/gift" fill="#00205B">
            <path d="M14.6395,6.70903829 L13.1565,6.70903829 L10.9595,6.70903829 C10.7275,5.62303829 10.2865,5.29003829 9.7005,4.97303829 C9.6085,4.92403829 9.5195,4.87203829 9.4305,4.81603829 L14.6395,4.81603829 L14.6395,6.70903829 Z M13.6395,7.92403829 L13.6395,14.6520383 C13.6395,14.9250383 13.4225,15.1470383 13.1565,15.1470383 L8.3605,15.1470383 L8.3605,7.43003829 L10.3465,7.43003829 C10.3705,7.64603829 10.3915,7.88503829 10.4055,8.16403829 C10.4455,9.00703829 10.7015,9.60503829 11.1655,9.94003829 C11.4775,10.1660383 11.8155,10.2200383 12.0665,10.2200383 C12.2855,10.2200383 12.4405,10.1790383 12.4525,10.1750383 C12.6435,10.1230383 12.7535,9.92703829 12.7025,9.73603829 C12.6545,9.54603829 12.4595,9.43103829 12.2645,9.48003829 C12.2595,9.48003829 11.8795,9.57303829 11.5825,9.35403829 C11.3115,9.15303829 11.1535,8.73003829 11.1235,8.12903829 C11.1115,7.87103829 11.0925,7.64403829 11.0695,7.43003829 L13.1565,7.43003829 C13.4225,7.43003829 13.6395,7.65103829 13.6395,7.92403829 L13.6395,7.92403829 Z M2.3605,14.6520383 L2.3605,7.92403829 C2.3605,7.65103829 2.5765,7.43003829 2.8425,7.43003829 L6.0225,7.43003829 C5.6925,7.81803829 5.2845,8.10003829 4.7325,8.19003829 C3.3245,8.42503829 3.1485,10.0610383 3.1415,10.1300383 C3.1215,10.3270383 3.2665,10.5030383 3.4635,10.5220383 C3.4765,10.5230383 3.4885,10.5240383 3.4995,10.5240383 C3.6825,10.5240383 3.8385,10.3870383 3.8585,10.2010383 C3.8635,10.1540383 3.9895,9.04403829 4.8495,8.90103829 C5.8195,8.74003829 6.4435,8.15903829 6.9065,7.43003829 L7.6395,7.43003829 L7.6395,15.1470383 L2.8425,15.1470383 C2.5765,15.1470383 2.3605,14.9250383 2.3605,14.6520383 L2.3605,14.6520383 Z M1.3605,4.81603829 L7.2955,4.81603829 C7.2445,4.94903829 7.1925,5.08003829 7.1415,5.21403829 C6.9405,5.74103829 6.7435,6.25703829 6.5045,6.70903829 L2.8425,6.70903829 L1.3605,6.70903829 L1.3605,4.81603829 Z M4.8765,1.31603829 C5.1605,1.00803829 5.5475,0.853038293 5.9355,0.853038293 C6.2835,0.853038293 6.6305,0.977038293 6.9055,1.23003829 C6.9065,1.23003829 6.9065,1.23003829 6.9065,1.23003829 C7.5365,1.81003829 7.9015,3.10803829 7.4105,3.64403829 C6.9195,4.17903829 5.5945,3.92303829 4.9635,3.34503829 C4.3805,2.80903829 4.3415,1.89803829 4.8765,1.31603829 L4.8765,1.31603829 Z M9.0925,1.23003829 C9.6755,0.693038293 10.5845,0.731038293 11.1205,1.31503829 C11.6575,1.89803829 11.6185,2.80903829 11.0355,3.34503829 C10.7245,3.63003829 10.2245,3.85003829 9.7315,3.91703829 C9.2215,3.98503829 8.8115,3.88603829 8.5895,3.64403829 C8.0985,3.10803829 8.4625,1.81003829 9.0925,1.23003829 L9.0925,1.23003829 Z M9.3575,5.60603829 C9.7175,5.80103829 10.0235,5.98103829 10.2155,6.70903829 L7.3015,6.70903829 C7.4925,6.30303829 7.6575,5.88003829 7.8135,5.47103829 C7.8975,5.25003829 7.9825,5.03103829 8.0695,4.81603829 L8.3815,4.81603829 C8.7095,5.25203829 9.0685,5.45003829 9.3575,5.60603829 L9.3575,5.60603829 Z M14.9995,4.09603829 L11.2335,4.09603829 C11.3355,4.02603829 11.4365,3.95403829 11.5225,3.87503829 C11.9475,3.48503829 12.1945,2.95403829 12.2175,2.37803829 C12.2425,1.80303829 12.0405,1.25303829 11.6525,0.829038293 C10.8475,-0.0459617065 9.4815,-0.103961707 8.6065,0.700038293 L8.6055,0.700038293 C8.3765,0.910038293 8.1685,1.20703829 7.9985,1.54003829 C7.8295,1.20703829 7.6205,0.910038293 7.3925,0.700038293 C6.5165,-0.103961707 5.1525,-0.0449617065 4.3465,0.829038293 C3.5435,1.70403829 3.6015,3.07003829 4.4765,3.87503829 C4.5635,3.95403829 4.6625,4.02603829 4.7655,4.09603829 L0.9995,4.09603829 C0.8005,4.09603829 0.6395,4.25703829 0.6395,4.45603829 L0.6395,7.06903829 C0.6395,7.26903829 0.8005,7.43003829 0.9995,7.43003829 L1.7485,7.43003829 C1.6805,7.58103829 1.6395,7.74703829 1.6395,7.92403829 L1.6395,14.6520383 C1.6395,15.3220383 2.1795,15.8670383 2.8425,15.8670383 L13.1565,15.8670383 C13.8205,15.8670383 14.3605,15.3220383 14.3605,14.6520383 L14.3605,7.92403829 C14.3605,7.74703829 14.3195,7.58103829 14.2505,7.43003829 L14.9995,7.43003829 C15.1995,7.43003829 15.3605,7.26903829 15.3605,7.06903829 L15.3605,4.45603829 C15.3605,4.25703829 15.1995,4.09603829 14.9995,4.09603829 L14.9995,4.09603829 Z" id="Icon-Color"></path>
        </g>
    </g>
</svg>