<?xml version="1.0" encoding="UTF-8"?>
<svg width="16px" height="16px" viewBox="0 0 16 16" version="1.1" xmlns="http://www.w3.org/2000/svg" xmlns:xlink="http://www.w3.org/1999/xlink">
    
    <title>Icon/grid</title>
    <desc>Created with sketchtool.</desc>
    <g id="Icons" stroke="none" stroke-width="1" fill="none" fill-rule="evenodd">
        <g id="Icon/grid" fill="#00205B">
            <path d="M9.377,14.571 L14.518,14.571 L14.518,9.428 L9.377,9.428 L9.377,14.571 Z M14.879,8.709 C15.078,8.709 15.239,8.87 15.239,9.069 L15.239,14.931 C15.239,15.13 15.078,15.291 14.879,15.291 L9.017,15.291 C8.818,15.291 8.657,15.13 8.657,14.931 L8.657,9.069 C8.657,8.87 8.818,8.709 9.017,8.709 L14.879,8.709 Z M1.412,14.571 L6.555,14.571 L6.555,9.428 L1.412,9.428 L1.412,14.571 Z M6.916,8.709 C7.115,8.709 7.276,8.87 7.276,9.069 L7.276,14.931 C7.276,15.13 7.115,15.291 6.916,15.291 L1.052,15.291 C0.853,15.291 0.692,15.13 0.692,14.931 L0.692,9.069 C0.692,8.87 0.853,8.709 1.052,8.709 L6.916,8.709 Z M9.448,6.571 L14.588,6.571 L14.588,1.428 L9.448,1.428 L9.448,6.571 Z M14.948,0.709 C15.147,0.709 15.308,0.87 15.308,1.069 L15.308,6.931 C15.308,7.13 15.147,7.291 14.948,7.291 L9.088,7.291 C8.888,7.291 8.727,7.13 8.727,6.931 L8.727,1.069 C8.727,0.87 8.888,0.709 9.088,0.709 L14.948,0.709 Z M1.412,6.571 L6.555,6.571 L6.555,1.428 L1.412,1.428 L1.412,6.571 Z M6.916,0.709 C7.115,0.709 7.276,0.87 7.276,1.069 L7.276,6.931 C7.276,7.13 7.115,7.291 6.916,7.291 L1.052,7.291 C0.853,7.291 0.692,7.13 0.692,6.931 L0.692,1.069 C0.692,0.87 0.853,0.709 1.052,0.709 L6.916,0.709 Z" id="Icon-Color"></path>
        </g>
    </g>
</svg>