<?xml version="1.0" encoding="UTF-8"?>
<svg width="16px" height="16px" viewBox="0 0 16 16" version="1.1" xmlns="http://www.w3.org/2000/svg" xmlns:xlink="http://www.w3.org/1999/xlink">
    
    <title>Icon/link-circle</title>
    <desc>Created with sketchtool.</desc>
    <g id="Icons" stroke="none" stroke-width="1" fill="none" fill-rule="evenodd">
        <g id="Icon/link-circle" fill="#00205B">
            <path d="M7.99947233,15.2402058 C4.00817888,15.2402058 0.760899677,11.9920855 0.760899677,8 C0.760899677,4.00791452 4.00817888,0.759794222 7.99947233,0.759794222 C11.9918211,0.759794222 15.2391003,4.00791452 15.2391003,8 C15.2391003,11.9920855 11.9918211,15.2402058 7.99947233,15.2402058 M7.99947233,0 C3.58815382,0 0,3.58897243 0,8 C0,12.4110276 3.58815382,16 7.99947233,16 C12.4107908,16 16,12.4110276 16,8 C16,3.58897243 12.4107908,0 7.99947233,0 M8.13751072,6.45445192 C7.93699624,6.39852262 7.72698371,6.51882337 7.67105072,6.7203799 C7.61617308,6.92299169 7.73437108,7.1319351 7.93805158,7.18680913 C8.18711167,7.25540166 8.41823099,7.38942092 8.60186004,7.57409313 C8.88680166,7.85796069 9.04193655,8.23469199 9.04193655,8.6356945 C9.04193655,9.03669701 8.88680166,9.41342831 8.60186004,9.69729587 L6.67375503,11.6252737 C6.10914847,12.1919536 5.11924016,12.1919536 4.55252292,11.6252737 C4.26758129,11.3414061 4.11244641,10.9646748 4.11244641,10.5636723 C4.11244641,10.1626698 4.26758129,9.78593853 4.55252292,9.50207097 L5.49705165,8.55654927 C5.6458545,8.4088115 5.6458545,8.16821 5.49705165,8.01941696 C5.3482488,7.8716792 5.10763142,7.8716792 4.95882857,8.01941696 L4.01429985,8.96493866 C3.58688741,9.39232291 3.35260207,9.96005804 3.35260207,10.5636723 C3.35260207,11.1672866 3.58688741,11.7350218 4.01429985,12.1634613 C4.44171229,12.5897903 5.00948486,12.8251154 5.61313898,12.8251154 C6.21784843,12.8251154 6.785621,12.5897903 7.2119781,12.162406 L9.14008311,10.2344282 C10.0212915,9.35327793 10.0212915,7.91916634 9.13902777,7.03696082 C8.86147352,6.75942488 8.51426687,6.55786836 8.13751072,6.45445192 M8.78781083,4.16398892 L6.85970582,6.09196676 C6.43334872,6.51829574 6.19800805,7.08708614 6.19800805,7.69070044 C6.19800805,8.29431473 6.43334872,8.86204986 6.85970582,9.28837884 C7.13937075,9.56802533 7.48552206,9.76958185 7.86227821,9.87194302 C7.89604907,9.88038517 7.92981993,9.88460625 7.96253545,9.88460625 C8.12927907,9.88460625 8.28230328,9.77380293 8.32873821,9.60495977 C8.38361586,9.40234798 8.26436251,9.19340456 8.06279269,9.13853054 C7.81162192,9.07099327 7.58155794,8.93697401 7.3979289,8.75124654 C7.11298727,8.46843424 6.95785238,8.09170294 6.95785238,7.69070044 C6.95785238,7.28969793 7.11298727,6.91191136 7.3979289,6.62909906 L9.3260339,4.70112122 C9.89064046,4.13444137 10.8805488,4.13444137 11.4483214,4.70112122 C12.0329794,5.28574067 12.0329794,6.23864925 11.4483214,6.82432397 L10.392982,7.87853845 C10.2452345,8.02627622 10.2452345,8.26687772 10.392982,8.41461549 C10.5417848,8.56340852 10.7834576,8.56340852 10.9312051,8.41461549 L11.9854891,7.36145627 C12.4129015,6.93407202 12.6471869,6.36633689 12.6471869,5.7627226 C12.6471869,5.1591083 12.4129015,4.59137317 11.9854891,4.16398892 C11.1306642,3.31027569 9.64158037,3.30922042 8.78781083,4.16398892" id="link-circle"></path>
        </g>
    </g>
</svg>