<?xml version="1.0" encoding="UTF-8"?>
<svg width="16px" height="16px" viewBox="0 0 16 16" version="1.1" xmlns="http://www.w3.org/2000/svg" xmlns:xlink="http://www.w3.org/1999/xlink">
    
    <title>Icon/lock</title>
    <desc>Created with sketchtool.</desc>
    <g id="Icons" stroke="none" stroke-width="1" fill="none" fill-rule="evenodd">
        <g id="Icon/lock" fill="#00205B">
            <path d="M2.765,14.6985 L13.234,14.6985 L13.234,6.9185 L2.765,6.9185 L2.765,14.6985 Z M5.281,3.6985 C5.281,2.3765 6.259,1.3005 7.461,1.3005 L8.592,1.3005 C9.107,1.3005 9.607,1.5045 10.001,1.8735 C10.418,2.2645 10.657,2.8825 10.657,3.5695 L10.657,6.1985 L5.281,6.1985 L5.281,3.6985 Z M13.595,6.1985 L11.378,6.1985 L11.378,3.5695 C11.378,2.6845 11.056,1.8755 10.493,1.3485 C9.965,0.8535 9.29,0.5815 8.592,0.5815 L7.461,0.5815 C5.862,0.5815 4.561,1.9795 4.561,3.6985 L4.561,6.1985 L2.405,6.1985 C2.206,6.1985 2.045,6.3595 2.045,6.5585 L2.045,15.0585 C2.045,15.2575 2.206,15.4185 2.405,15.4185 L13.595,15.4185 C13.794,15.4185 13.955,15.2575 13.955,15.0585 L13.955,6.5585 C13.955,6.3595 13.794,6.1985 13.595,6.1985 L13.595,6.1985 Z" id="Icon-Color"></path>
        </g>
    </g>
</svg>