<?xml version="1.0" encoding="UTF-8"?>
<svg width="16px" height="16px" viewBox="0 0 16 16" version="1.1" xmlns="http://www.w3.org/2000/svg" xmlns:xlink="http://www.w3.org/1999/xlink">
    
    <title>Icon/lock-check</title>
    <desc>Created with sketchtool.</desc>
    <g id="Icons" stroke="none" stroke-width="1" fill="none" fill-rule="evenodd">
        <g id="Icon/lock-check" fill="#00205B">
            <path d="M2.7655,14.6985 L13.2345,14.6985 L13.2345,6.9185 L2.7655,6.9185 L2.7655,14.6985 Z M5.2815,3.6985 C5.2815,2.3765 6.2585,1.3005 7.4605,1.3005 L8.5915,1.3005 C9.1065,1.3005 9.6065,1.5045 10.0005,1.8735 C10.4175,2.2645 10.6575,2.8825 10.6575,3.5695 L10.6575,6.1985 L5.2825,6.1985 L5.2815,3.6985 Z M13.5945,6.1985 C13.7935,6.1985 13.9555,6.3595 13.9555,6.5585 L13.9555,15.0585 C13.9555,15.2575 13.7935,15.4185 13.5945,15.4185 L2.4055,15.4185 C2.2065,15.4185 2.0445,15.2575 2.0445,15.0585 L2.0445,6.5585 C2.0445,6.3595 2.2065,6.1985 2.4055,6.1985 L4.5615,6.1985 L4.5605,3.6985 C4.5605,1.9795 5.8625,0.5815 7.4605,0.5815 L8.5915,0.5815 C9.2905,0.5815 9.9645,0.8535 10.4935,1.3485 C11.0555,1.8745 11.3775,2.6845 11.3775,3.5695 L11.3775,6.1985 L13.5945,6.1985 Z" id="lock-check"></path>
        </g>
    </g>
</svg>