<?xml version="1.0" encoding="UTF-8"?>
<svg width="16px" height="16px" viewBox="0 0 16 16" version="1.1" xmlns="http://www.w3.org/2000/svg" xmlns:xlink="http://www.w3.org/1999/xlink">
    
    <title>Icon/loyalty</title>
    <desc>Created with sketchtool.</desc>
    <g id="Icons" stroke="none" stroke-width="1" fill="none" fill-rule="evenodd">
        <g id="Icon/loyalty" fill="#00205B">
            <path d="M12.7575,7.7952 C12.7625,7.7082 12.7835,7.6252 12.7835,7.5362 L12.7835,3.6862 L14.9005,3.6862 C14.4995,5.2402 13.7455,6.6542 12.7575,7.7952 M8.3415,11.2572 L7.3775,11.2572 C5.3245,11.2572 3.6555,9.5882 3.6555,7.5362 L3.6555,1.9372 L12.0635,1.9372 L12.0635,7.5362 C12.0635,9.5882 10.3945,11.2572 8.3415,11.2572 M0.8195,3.6862 L2.9355,3.6862 L2.9355,7.5362 C2.9355,7.6242 2.9555,7.7072 2.9615,7.7942 C1.9745,6.6542 1.2205,5.2402 0.8195,3.6862 M15.6435,3.1032 C15.7115,3.1902 15.7365,3.3042 15.7095,3.4112 L15.6325,3.7272 C15.1165,5.8342 14.0125,7.7402 12.5235,9.0942 C12.5115,9.1052 12.4945,9.1012 12.4825,9.1092 C11.8445,10.7812 10.2355,11.9782 8.3415,11.9782 L7.3775,11.9782 C5.4845,11.9782 3.8755,10.7812 3.2365,9.1092 C3.2255,9.1012 3.2085,9.1052 3.1965,9.0942 C1.7075,7.7422 0.6035,5.8362 0.0875,3.7272 L0.0105,3.4112 C-0.0155,3.3042 0.0085,3.1902 0.0765,3.1032 C0.1455,3.0162 0.2495,2.9652 0.3605,2.9652 L2.9355,2.9652 L2.9355,1.5762 C2.9355,1.3772 3.0965,1.2162 3.2955,1.2162 L12.4235,1.2162 C12.6225,1.2162 12.7835,1.3772 12.7835,1.5762 L12.7835,2.9652 L15.3605,2.9652 C15.4705,2.9652 15.5745,3.0162 15.6435,3.1032 Z M11.4928,14.0628 C11.6918,14.0628 11.8528,14.2238 11.8528,14.4228 C11.8528,14.6228 11.6918,14.7838 11.4928,14.7838 L4.2258,14.7838 C4.0268,14.7838 3.8658,14.6228 3.8658,14.4228 C3.8658,14.2238 4.0268,14.0628 4.2258,14.0628 L11.4928,14.0628 Z M9.7086,13.4368 L6.0106,13.4368 C5.8116,13.4368 5.6496,13.2758 5.6496,13.0768 C5.6496,12.8768 5.8116,12.7158 6.0106,12.7158 L9.7086,12.7158 C9.9076,12.7158 10.0686,12.8768 10.0686,13.0768 C10.0686,13.2758 9.9076,13.4368 9.7086,13.4368 Z" id="Icon-Color"></path>
        </g>
    </g>
</svg>