<?xml version="1.0" encoding="UTF-8"?>
<svg width="16px" height="16px" viewBox="0 0 16 16" version="1.1" xmlns="http://www.w3.org/2000/svg" xmlns:xlink="http://www.w3.org/1999/xlink">
    
    <title>Icon/p1exclusive</title>
    <desc>Created with sketchtool.</desc>
    <g id="Icons" stroke="none" stroke-width="1" fill="none" fill-rule="evenodd">
        <g id="Icon/p1exclusive" fill="#00205B">
            <path d="M4.46171044,13.1491451 C4.37971044,13.2211451 4.25671044,13.2651451 4.10771044,13.2711451 C3.98871044,13.2821451 3.85271044,13.2471451 3.76171044,13.1811451 C3.75971044,13.1791451 3.75671044,13.1771451 3.75371044,13.1751451 C3.75671044,13.1721451 3.75971044,13.1701451 3.76271044,13.1691451 C3.84471044,13.0961451 3.96771044,13.0521451 4.11671044,13.0461451 C4.24171044,13.0371451 4.37271044,13.0721451 4.46271044,13.1371451 C4.46471044,13.1391451 4.46771044,13.1401451 4.47071044,13.1421451 C4.46771044,13.1451451 4.46471044,13.1471451 4.46171044,13.1491451 M2.86371044,11.3911451 C2.72571044,11.4581451 2.54271044,11.4711451 2.34671044,11.4201451 C2.16771044,11.3801451 2.00971044,11.2861451 1.91071044,11.1621451 C1.88371044,11.1281451 1.85971044,11.0961451 1.83771044,11.0681451 C1.86871044,11.0521451 1.90271044,11.0361451 1.94071044,11.0181451 L1.94171044,11.0181451 C2.08171044,10.9521451 2.26471044,10.9401451 2.45771044,10.9871451 C2.63771044,11.0291451 2.79671044,11.1231451 2.89471044,11.2461451 C2.92171044,11.2801451 2.94471044,11.3111451 2.96771044,11.3401451 C2.93771044,11.3571451 2.90271044,11.3731451 2.86371044,11.3911451 M2.07771044,9.25814511 C1.88171044,9.25914511 1.67971044,9.19814511 1.48471044,9.05614511 C1.30171044,8.92914511 1.16471044,8.74914511 1.10871044,8.56214511 C1.08771044,8.49214511 1.06971044,8.43114511 1.05671044,8.37514511 C1.10871044,8.37114511 1.16871044,8.36614511 1.23971044,8.36214511 C1.42471044,8.36014511 1.63671044,8.42114511 1.83171044,8.56314511 C2.01671044,8.69214511 2.15271044,8.87114511 2.20771044,9.05614511 C2.23071044,9.12814511 2.24671044,9.19114511 2.26171044,9.24514511 C2.20771044,9.25014511 2.14871044,9.25414511 2.07771044,9.25814511 M1.73271044,6.50914511 C1.54471044,6.50314511 1.34071044,6.41614511 1.15671044,6.25614511 C0.985710442,6.11314511 0.863710442,5.92114511 0.822710442,5.73314511 C0.808710442,5.66014511 0.795710442,5.59714511 0.785710442,5.54114511 C0.840710442,5.54214511 0.899710442,5.54114511 0.969710442,5.54314511 C1.15671044,5.54914511 1.36071044,5.63714511 1.54371044,5.79514511 C1.71571044,5.93914511 1.83771044,6.13014511 1.87771044,6.32114511 C1.89371044,6.39414511 1.90471044,6.45814511 1.91471044,6.51114511 C1.86371044,6.51214511 1.80171044,6.51114511 1.73271044,6.50914511 M2.30371044,3.98714511 C2.25471044,3.97014511 2.19871044,3.95214511 2.13471044,3.92714511 C1.95671044,3.86314511 1.78871044,3.71414511 1.66071044,3.50414511 C1.53971044,3.31414511 1.48171044,3.09314511 1.49971044,2.90014511 C1.50671044,2.82814511 1.51471044,2.76714511 1.52371044,2.71114511 C1.57071044,2.72614511 1.62671044,2.74614511 1.69071044,2.76914511 C1.86771044,2.83514511 2.03771044,2.98214511 2.16471044,3.19214511 C2.28571044,3.38214511 2.34471044,3.60314511 2.32571044,3.79714511 C2.31871044,3.87014511 2.31171044,3.93214511 2.30371044,3.98714511 M6.21471044,13.4031451 C6.38671044,13.4891451 6.45671044,13.6991451 6.37071044,13.8711451 C6.30971044,13.9931451 6.18571044,14.0641451 6.05871044,14.0641451 C6.00471044,14.0641451 5.95171044,14.0521451 5.90171044,14.0271451 C5.61371044,13.8831451 5.33971044,13.7161451 5.07871044,13.5291451 C5.03371044,13.5741451 4.98471044,13.6201451 4.91971044,13.6771451 C4.71471044,13.8541451 4.44071044,13.9581451 4.14871044,13.9661451 C4.12071044,13.9681451 4.09571044,13.9691451 4.06871044,13.9691451 C3.80471044,13.9691451 3.55171044,13.8911451 3.35171044,13.7461451 C3.19271044,13.6301451 3.11671044,13.5601451 3.05071044,13.4991451 C2.98571044,13.4391451 2.90671044,13.3141451 2.89971044,13.2281451 C2.89071044,13.1321451 2.92771044,13.0221451 2.99071044,12.9501451 C3.09171044,12.8411451 3.16071044,12.7651451 3.30471044,12.6411451 L3.30571044,12.6401451 C3.46071044,12.5051451 3.66271044,12.4301451 3.87771044,12.3901451 C3.73371044,12.2191451 3.60071044,12.0441451 3.47271044,11.8581451 C3.38371044,11.9111451 3.29171044,11.9611451 3.16071044,12.0221451 C2.98271044,12.1071451 2.78171044,12.1491451 2.57371044,12.1491451 C2.44971044,12.1491451 2.32271044,12.1341451 2.19571044,12.1031451 C1.85671044,12.0251451 1.56171044,11.8451451 1.36371044,11.5951451 C1.22071044,11.4161451 1.15271044,11.3071451 1.09571044,11.2151451 C1.04771044,11.1381451 0.992710442,10.9661451 1.01271044,10.8771451 C1.03271044,10.7851451 1.10171044,10.6891451 1.18271044,10.6401451 C1.32571044,10.5511451 1.43271044,10.4851451 1.64671044,10.3851451 C1.93271044,10.2521451 2.27371044,10.2241451 2.60971044,10.3061451 C2.62171044,10.3091451 2.63171044,10.3161451 2.64371044,10.3191451 C2.59171044,10.1891451 2.55571044,10.0501451 2.51071044,9.91614511 C2.41171044,9.93014511 2.29671044,9.94514511 2.11371044,9.95514511 C2.09071044,9.95614511 2.06671044,9.95714511 2.04371044,9.95714511 C1.71471044,9.95714511 1.37871044,9.84214511 1.08971044,9.63114511 C0.771710442,9.40914511 0.541710442,9.10214511 0.440710442,8.76414511 C0.362710442,8.50914511 0.336710442,8.36814511 0.315710442,8.24614511 C0.281710442,8.08814511 0.302710442,7.98114511 0.359710442,7.89614511 C0.413710442,7.81714511 0.518710442,7.75014511 0.611710442,7.73314511 C0.797710442,7.70214511 0.937710442,7.67814511 1.20371044,7.66514511 C1.51471044,7.65214511 1.82271044,7.75314511 2.10471044,7.92514511 C2.08471044,7.69014511 2.05971044,7.45714511 2.05971044,7.21714511 C2.05971044,7.21314511 2.06071044,7.21014511 2.06071044,7.20614511 C2.00871044,7.20814511 1.95371044,7.21014511 1.88471044,7.21014511 C1.83171044,7.21014511 1.77371044,7.20914511 1.70871044,7.20614511 C1.35771044,7.19514511 1.00471044,7.04814511 0.715710442,6.79614511 C0.416710442,6.54714511 0.214710442,6.22214511 0.140710442,5.87814511 C0.0837104419,5.61114511 0.0707104419,5.46814511 0.0587104419,5.34314511 C0.0487104419,5.24914511 0.0787104419,5.06914511 0.139710442,4.99714511 C0.205710442,4.91714511 0.303710442,4.86914511 0.407710442,4.86314511 C0.584710442,4.84814511 0.724710442,4.83414511 0.992710442,4.84614511 L0.993710442,4.84614511 C1.34271044,4.85714511 1.69571044,5.00314511 1.98571044,5.25614511 C2.08871044,5.34114511 2.16171044,5.44514511 2.24071044,5.54514511 C2.29371044,5.27414511 2.34871044,5.00414511 2.42771044,4.74314511 L2.39971044,4.73614511 C2.28071044,4.70814511 2.14371044,4.67314511 1.89471044,4.58314511 C1.56571044,4.46114511 1.27471044,4.21414511 1.07471044,3.88414511 C0.865710442,3.55514511 0.771710442,3.18414511 0.805710442,2.83214511 C0.831710442,2.56414511 0.860710442,2.42214511 0.887710442,2.30114511 C0.915710442,2.14414511 0.977710442,2.05014511 1.06671044,1.99414511 C1.15071044,1.94014511 1.27471044,1.92014511 1.37171044,1.94914511 C1.54571044,1.99014511 1.68371044,2.02314511 1.93171044,2.11414511 C2.25971044,2.23414511 2.55071044,2.48214511 2.75071044,2.81314511 C2.86971044,3.00114511 2.94071044,3.20114511 2.98271044,3.40514511 C3.09671044,3.18414511 3.20271044,2.96114511 3.33771044,2.75314511 C3.44271044,2.59114511 3.65971044,2.54514511 3.81971044,2.64914511 C3.98271044,2.75314511 4.02771044,2.97014511 3.92471044,3.13114511 C3.16071044,4.31214511 2.75871044,5.72414511 2.75871044,7.21714511 C2.75871044,9.92614511 4.11471044,12.3551451 6.21471044,13.4031451 Z M14.1160104,6.32004511 C14.0990104,6.39404511 14.0890104,6.45704511 14.0790104,6.51104511 C14.1280104,6.51204511 14.1920104,6.51104511 14.2620104,6.50904511 C14.4490104,6.50304511 14.6520104,6.41604511 14.8200104,6.27004511 C15.0080104,6.11304511 15.1300104,5.92304511 15.1700104,5.73304511 C15.1850104,5.65904511 15.1980104,5.59504511 15.2060104,5.54104511 C15.1540104,5.54204511 15.0930104,5.54204511 15.0230104,5.54304511 C14.8360104,5.54904511 14.6330104,5.63704511 14.4650104,5.78304511 C14.2770104,5.93904511 14.1550104,6.13104511 14.1160104,6.32004511 Z M12.2380104,13.1740451 C12.2370104,13.1730451 12.2340104,13.1700451 12.2310104,13.1680451 C12.1470104,13.0960451 12.0240104,13.0520451 11.8940104,13.0480451 C11.7450104,13.0360451 11.6200104,13.0720451 11.5310104,13.1360451 C11.5280104,13.1380451 11.5260104,13.1400451 11.5230104,13.1420451 L11.5300104,13.1490451 C11.6140104,13.2210451 11.7370104,13.2650451 11.8680104,13.2700451 C12.0260104,13.2800451 12.1430104,13.2460451 12.2300104,13.1810451 C12.2330104,13.1790451 12.2360104,13.1770451 12.2380104,13.1740451 Z M14.1780104,8.55204511 C13.9770104,8.69104511 13.8410104,8.87104511 13.7840104,9.05604511 C13.7620104,9.12904511 13.7460104,9.19104511 13.7320104,9.24404511 C13.7840104,9.25004511 13.8450104,9.25504511 13.9170104,9.25804511 C14.0990104,9.25504511 14.3120104,9.19804511 14.4910104,9.06704511 C14.6920104,8.92904511 14.8290104,8.74904511 14.8850104,8.56304511 C14.9060104,8.49204511 14.9240104,8.42904511 14.9370104,8.37504511 C14.8840104,8.37104511 14.8240104,8.36604511 14.7540104,8.36204511 C14.5730104,8.36304511 14.3550104,8.42304511 14.1780104,8.55204511 Z M13.5520104,10.9840451 C13.3540104,11.0290451 13.1950104,11.1220451 13.0980104,11.2460451 C13.0710104,11.2800451 13.0470104,11.3120451 13.0250104,11.3410451 C13.0560104,11.3570451 13.0910104,11.3740451 13.1300104,11.3920451 C13.2670104,11.4580451 13.4500104,11.4700451 13.6280104,11.4250451 C13.8250104,11.3810451 13.9830104,11.2860451 14.0820104,11.1620451 C14.1090104,11.1280451 14.1330104,11.0960451 14.1540104,11.0680451 C14.1230104,11.0520451 14.0900104,11.0350451 14.0520104,11.0180451 C13.9120104,10.9500451 13.7280104,10.9380451 13.5520104,10.9840451 Z M13.8410104,3.17404511 C13.7080104,3.38204511 13.6490104,3.60304511 13.6680104,3.79804511 C13.6750104,3.87004511 13.6820104,3.93204511 13.6890104,3.98604511 C13.7390104,3.97004511 13.7950104,3.95204511 13.8600104,3.92704511 C14.0360104,3.86304511 14.2050104,3.71504511 14.3220104,3.52304511 C14.4540104,3.31404511 14.5120104,3.09304511 14.4930104,2.90004511 C14.4870104,2.82704511 14.4790104,2.76404511 14.4710104,2.71204511 C14.4200104,2.72704511 14.3650104,2.74704511 14.3010104,2.76904511 C14.1230104,2.83604511 13.9560104,2.98204511 13.8410104,3.17404511 Z M14.2860104,7.20604511 C14.2200104,7.20904511 14.1610104,7.21004511 14.1090104,7.21004511 C14.0400104,7.21004511 13.9850104,7.20804511 13.9330104,7.20604511 C13.9330104,7.21004511 13.9340104,7.21404511 13.9340104,7.21704511 C13.9340104,7.45804511 13.9080104,7.69104511 13.8890104,7.92604511 C14.1740104,7.75504511 14.4850104,7.65604511 14.7900104,7.66504511 C15.0550104,7.67804511 15.1960104,7.70204511 15.3180104,7.72304511 C15.4120104,7.73904511 15.5790104,7.81704511 15.6340104,7.89604511 C15.6820104,7.97004511 15.7070104,8.08404511 15.6930104,8.17204511 C15.6570104,8.36804511 15.6310104,8.50904511 15.5530104,8.76504511 C15.4510104,9.10204511 15.2220104,9.40904511 14.9080104,9.62904511 C14.6150104,9.84204511 14.2780104,9.95704511 13.9510104,9.95704511 C13.9280104,9.95704511 13.9040104,9.95604511 13.8800104,9.95504511 C13.6960104,9.94504511 13.5820104,9.93004511 13.4830104,9.91604511 C13.4380104,10.0500451 13.4020104,10.1880451 13.3500104,10.3190451 C13.3610104,10.3160451 13.3690104,10.3090451 13.3800104,10.3070451 C13.7170104,10.2220451 14.0600104,10.2520451 14.3480104,10.3850451 C14.5640104,10.4880451 14.6730104,10.5540451 14.7660104,10.6130451 C14.8450104,10.6620451 14.9600104,10.7860451 14.9810104,10.8770451 C15.0020104,10.9720451 14.9790104,11.0920451 14.9240104,11.1740451 C14.8450104,11.3000451 14.7760104,11.4090451 14.6290104,11.5950451 C14.4300104,11.8450451 14.1370104,12.0250451 13.8010104,12.1020451 C13.6730104,12.1330451 13.5440104,12.1490451 13.4170104,12.1490451 C13.2110104,12.1490451 13.0110104,12.1070451 12.8320104,12.0230451 C12.6850104,11.9540451 12.5960104,11.9030451 12.5200104,11.8590451 C12.3930104,12.0440451 12.2590104,12.2190451 12.1170104,12.3890451 C12.3310104,12.4300451 12.5320104,12.5060451 12.6880104,12.6400451 C12.6890104,12.6410451 12.6890104,12.6410451 12.6900104,12.6410451 C12.8320104,12.7660451 12.9030104,12.8430451 12.9630104,12.9080451 C13.0290104,12.9790451 13.1020104,13.1300451 13.0950104,13.2280451 C13.0860104,13.3230451 13.0320104,13.4250451 12.9570104,13.4850451 C12.8710104,13.5640451 12.7940104,13.6340451 12.6390104,13.7460451 C12.4400104,13.8910451 12.1870104,13.9690451 11.9220104,13.9690451 C11.8970104,13.9690451 11.8710104,13.9690451 11.8450104,13.9670451 C11.5520104,13.9580451 11.2770104,13.8540451 11.0730104,13.6760451 C11.0050104,13.6180451 10.9560104,13.5710451 10.9140104,13.5300451 C10.6530104,13.7160451 10.3790104,13.8830451 10.0920104,14.0270451 C10.0420104,14.0520451 9.98801044,14.0640451 9.93501044,14.0640451 C9.80701044,14.0640451 9.68401044,13.9930451 9.62301044,13.8710451 C9.53701044,13.6990451 9.60701044,13.4890451 9.77901044,13.4030451 C11.8790104,12.3550451 13.2350104,9.92604511 13.2350104,7.21704511 C13.2350104,5.72404511 12.8320104,4.31204511 12.0690104,3.13204511 C11.9650104,2.97004511 12.0120104,2.75404511 12.1740104,2.64904511 C12.3330104,2.54504511 12.5500104,2.59104511 12.6560104,2.75404511 C12.7900104,2.96104511 12.8970104,3.18404511 13.0110104,3.40404511 C13.0530104,3.20204511 13.1230104,3.00204511 13.2400104,2.81704511 C13.4410104,2.48304511 13.7320104,2.23504511 14.0600104,2.11404511 L14.0610104,2.11404511 C14.3090104,2.02304511 14.4480104,1.99004511 14.5660104,1.96204511 C14.7200104,1.92104511 14.8310104,1.93504511 14.9240104,1.99204511 C15.0080104,2.04504511 15.0780104,2.15104511 15.0950104,2.25004511 C15.1330104,2.42304511 15.1620104,2.56404511 15.1880104,2.83204511 C15.2220104,3.18404511 15.1280104,3.55504511 14.9220104,3.88004511 C14.7190104,4.21504511 14.4280104,4.46204511 14.0990104,4.58304511 C13.8510104,4.67404511 13.7140104,4.70704511 13.5950104,4.73604511 L13.5650104,4.74404511 C13.6440104,5.00504511 13.6990104,5.27404511 13.7530104,5.54504511 C13.8300104,5.44604511 13.9030104,5.34304511 14.0030104,5.25904511 C14.2980104,5.00404511 14.6500104,4.85704511 15.0010104,4.84604511 C15.2650104,4.83504511 15.4080104,4.84804511 15.5310104,4.85804511 C15.6230104,4.86604511 15.7940104,4.92504511 15.8530104,4.99704511 C15.9210104,5.07504511 15.9520104,5.18004511 15.9410104,5.28404511 C15.9230104,5.46704511 15.9100104,5.61004511 15.8520104,5.87804511 C15.7800104,6.22204511 15.5760104,6.54804511 15.2820104,6.79304511 C14.9880104,7.04904511 14.6360104,7.19504511 14.2860104,7.20604511 Z M9.83771044,11.0456451 L9.83771044,6.30264511 L9.15071044,6.30264511 L9.15071044,5.44664511 C9.74571044,5.35864511 9.92371044,4.87564511 9.92371044,4.27064511 L10.8607104,4.27064511 L10.8607104,11.0456451 L9.83771044,11.0456451 Z M6.23021044,7.67844511 L6.23021044,11.0454451 L5.13221044,11.0454451 L5.13221044,7.70844511 L5.13221044,4.27044511 L6.23021044,4.27044511 L6.23021044,7.67844511 Z M7.27421044,4.40984511 C7.58821044,4.58684511 7.86621044,4.89984511 7.86621044,5.56684511 L7.86621044,7.05284511 C7.86621044,7.71784511 7.58821044,8.03284511 7.27421044,8.21084511 C7.27421044,8.21084511 7.10421044,8.30384511 6.87121044,8.33184511 C6.77821044,8.34484511 6.56321044,8.34784511 6.43721044,8.34884511 L6.37921044,8.34884511 L6.37921044,7.71384511 C6.62921044,7.74384511 6.73921044,7.67984511 6.79221044,7.60784511 C6.84221044,7.53984511 6.83821044,7.43684511 6.83821044,7.43684511 L6.83821044,5.18084511 C6.83821044,5.18084511 6.84221044,5.07884511 6.79221044,5.01184511 C6.73921044,4.93884511 6.62921044,4.87484511 6.37921044,4.90584511 L6.37921044,4.26984511 L6.43721044,4.26984511 C6.56321044,4.26984511 6.77821044,4.27584511 6.87121044,4.28884511 C7.10421044,4.31584511 7.27421044,4.40984511 7.27421044,4.40984511 Z" id="Icon-Color"></path>
        </g>
    </g>
</svg>