<?xml version="1.0" encoding="UTF-8"?>
<svg width="16px" height="16px" viewBox="0 0 16 16" version="1.1" xmlns="http://www.w3.org/2000/svg" xmlns:xlink="http://www.w3.org/1999/xlink">
    
    <title>Icon/p1rcc2</title>
    <desc>Created with sketchtool.</desc>
    <g id="Icons" stroke="none" stroke-width="1" fill="none" fill-rule="evenodd">
        <g id="Icon/p1rcc2" fill="#00205B">
            <path d="M14.4455,12.577 L1.5535,12.577 C1.1715,12.577 0.8605,12.29 0.8605,11.937 L0.8605,5.357 C0.8675,5.357 0.8735,5.361 0.8805,5.361 L15.1095,5.361 C15.1205,5.361 15.1295,5.356 15.1395,5.355 L15.1395,11.937 C15.1395,12.29 14.8285,12.577 14.4455,12.577 M1.5535,3.423 L14.4455,3.423 C14.8285,3.423 15.1395,3.71 15.1395,4.062 L15.1395,4.646 C15.1295,4.645 15.1205,4.64 15.1095,4.64 L0.8805,4.64 C0.8735,4.64 0.8675,4.644 0.8605,4.644 L0.8605,4.062 C0.8605,3.71 1.1715,3.423 1.5535,3.423 M14.4455,2.702 L1.5535,2.702 C0.7745,2.702 0.1395,3.312 0.1395,4.062 L0.1395,11.937 C0.1395,12.687 0.7745,13.298 1.5535,13.298 L14.4455,13.298 C15.2255,13.298 15.8605,12.687 15.8605,11.937 L15.8605,4.062 C15.8605,3.312 15.2255,2.702 14.4455,2.702 M9.0763,9.2586 C8.9913,9.3416 8.9523,9.4606 8.9723,9.5776 L9.1783,10.7686 L8.1063,10.2066 C8.0033,10.1506 7.8773,10.1526 7.7713,10.2066 L6.7013,10.7706 L6.9043,9.5776 C6.9253,9.4616 6.8863,9.3426 6.8013,9.2596 L5.9353,8.4156 L7.1323,8.2416 C7.2493,8.2246 7.3503,8.1516 7.4033,8.0446 L7.9373,6.9596 L8.4743,8.0436 C8.5263,8.1506 8.6283,8.2236 8.7453,8.2406 L9.9413,8.4136 L9.0763,9.2586 Z M10.7663,7.8056 L9.0363,7.5556 L8.2603,5.9876 C8.1993,5.8646 8.0743,5.7866 7.9373,5.7866 C7.8013,5.7866 7.6753,5.8646 7.6143,5.9876 L6.8413,7.5566 L5.1103,7.8086 C4.9743,7.8276 4.8623,7.9236 4.8193,8.0536 C4.7773,8.1846 4.8123,8.3266 4.9113,8.4226 L6.1633,9.6436 L5.8693,11.3676 C5.8463,11.5026 5.9013,11.6396 6.0133,11.7196 C6.0753,11.7656 6.1493,11.7886 6.2233,11.7886 C6.2813,11.7886 6.3393,11.7756 6.3913,11.7466 L7.9393,10.9316 L9.4893,11.7446 C9.6093,11.8106 9.7583,11.7996 9.8683,11.7176 C9.9783,11.6376 10.0343,11.5006 10.0113,11.3646 L9.7143,9.6416 L10.9663,8.4196 C11.0643,8.3236 11.0993,8.1806 11.0573,8.0506 C11.0143,7.9196 10.9023,7.8246 10.7663,7.8056 L10.7663,7.8056 Z" id="Icon-Color"></path>
        </g>
    </g>
</svg>