<?xml version="1.0" encoding="UTF-8"?>
<svg width="16px" height="16px" viewBox="0 0 16 16" version="1.1" xmlns="http://www.w3.org/2000/svg" xmlns:xlink="http://www.w3.org/1999/xlink">
    
    <title>Icon/package-search</title>
    <desc>Created with sketchtool.</desc>
    <g id="Icons" stroke="none" stroke-width="1" fill="none" fill-rule="evenodd">
        <g id="Icon/package-search" fill="#00205B">
            <path d="M10.3703722,10.965025 L10.3703722,5.073025 L15.2163722,2.926025 L15.2163722,8.476025 L10.3703722,10.965025 Z M7.03437217,1.750025 L11.8563722,3.628025 L10.0053722,4.448025 L5.09737217,2.406025 L7.03437217,1.750025 Z M9.81337217,0.809025 L14.5853722,2.418025 L12.7753722,3.220025 C12.7643722,3.214025 12.7553722,3.203025 12.7413722,3.198025 L8.09737217,1.390025 L9.81337217,0.809025 Z M1.26967217,5.835725 C2.86167217,4.257725 5.44167217,4.268725 7.02167217,5.864725 C8.31167217,7.165725 8.52067217,9.121725 7.68967217,10.656725 L7.68967217,10.656725 L11.1786722,14.178725 C11.2466722,14.246725 11.2836722,14.337725 11.2836722,14.433725 C11.2826722,14.529725 11.2446722,14.620725 11.1756722,14.687725 L11.1756722,14.687725 L10.0246722,15.826725 C9.95467217,15.895725 9.86367217,15.930725 9.77167217,15.930725 C9.67867217,15.930725 9.58667217,15.894725 9.51567217,15.823725 L9.51567217,15.823725 L6.02967217,12.303725 C5.44967217,12.612725 4.80667217,12.792725 4.13167217,12.792725 L4.13167217,12.792725 L4.11167217,12.792725 C3.02567217,12.787725 2.00567217,12.359725 1.24167217,11.586725 C0.476672171,10.815725 0.058672171,9.791725 0.063627829,8.706725 C0.069672171,7.619725 0.497672171,6.600725 1.26967217,5.835725 Z M7.31367217,11.298725 L6.67367217,11.931725 L9.77467217,15.061725 L10.4136722,14.428725 L7.31367217,11.298725 Z M4.13067217,5.379725 C3.27967217,5.379725 2.42667217,5.702725 1.77567217,6.347725 C1.14067217,6.976725 0.788672171,7.815725 0.784618575,8.709725 C0.779672171,9.603725 1.12467217,10.445725 1.75367217,11.081725 C2.38167217,11.715725 3.22067217,12.068725 4.11567217,12.073725 L4.11567217,12.073725 L4.13167217,12.073725 C5.01967217,12.073725 5.85567217,11.729725 6.48767217,11.103725 C7.79767217,9.804725 7.80867217,7.681725 6.50967217,6.370725 C5.85667217,5.710725 4.99367217,5.379725 4.13067217,5.379725 Z M9.85259439,0.0713583333 L9.92937217,0.088025 L15.6913722,2.031025 C15.6943722,2.032025 15.6953722,2.035025 15.6983722,2.036025 C15.7603722,2.059025 15.8093722,2.097025 15.8503722,2.146025 C15.8583722,2.156025 15.8643722,2.166025 15.8723722,2.177025 C15.9033722,2.226025 15.9253722,2.279025 15.9313722,2.341025 C15.9313722,2.346025 15.9353722,2.350025 15.9353722,2.356025 C15.9353722,2.358025 15.9343722,2.359025 15.9343722,2.361025 C15.9343722,2.364025 15.9363722,2.368025 15.9363722,2.372025 L15.9363722,2.372025 L15.9363722,8.695025 C15.9363722,8.830025 15.8603722,8.954025 15.7403722,9.016025 L15.7403722,9.016025 L10.1743722,11.875025 C10.1223722,11.902025 10.0663722,11.915025 10.0103722,11.915025 C9.94437217,11.915025 9.88037217,11.898025 9.82237217,11.862025 C9.71537217,11.797025 9.64937217,11.680025 9.64937217,11.555025 L9.64937217,11.555025 L9.64937217,5.080025 L4.43937217,2.913025 L4.44237217,3.548025 C4.44337217,3.747025 4.28337217,3.909025 4.08437217,3.910025 L4.08437217,3.910025 C3.88437217,3.910025 3.72337217,3.750025 3.72237217,3.552025 L3.72237217,3.552025 L3.71637217,2.493025 C3.71637217,2.465025 3.72537217,2.441025 3.73137217,2.414025 C3.72937217,2.395025 3.71637217,2.380025 3.71737217,2.361025 C3.72237217,2.210025 3.81837217,2.079025 3.96137217,2.031025 L3.96137217,2.031025 L9.69837217,0.088025 C9.77237217,0.063025 9.85437217,0.063025 9.92937217,0.088025 Z" id="Icon-Color"></path>
        </g>
    </g>
</svg>