<?xml version="1.0" encoding="UTF-8"?>
<svg width="16px" height="16px" viewBox="0 0 16 16" version="1.1" xmlns="http://www.w3.org/2000/svg" xmlns:xlink="http://www.w3.org/1999/xlink">
    
    <title>Icon/package-processing</title>
    <desc>Created with sketchtool.</desc>
    <g id="Icons" stroke="none" stroke-width="1" fill="none" fill-rule="evenodd">
        <g id="Icon/package-processing" fill="#00205B">
            <path d="M10.29205,11.200175 L10.29205,5.308175 L15.13805,3.161175 L15.13805,8.711175 L10.29205,11.200175 Z M6.95605,1.985175 L11.77805,3.863175 L9.92705,4.683175 L5.01905,2.641175 L6.95605,1.985175 Z M9.73505,1.044175 L14.50705,2.653175 L12.69705,3.455175 C12.68605,3.449175 12.67705,3.438175 12.66305,3.433175 L8.01905,1.625175 L9.73505,1.044175 Z M15.85605,2.596175 C15.85605,2.599175 15.85805,2.603175 15.85805,2.607175 L15.85805,8.930175 C15.85805,9.065175 15.78205,9.189175 15.66205,9.251175 L10.09605,12.110175 C10.04405,12.137175 9.98805,12.150175 9.93205,12.150175 C9.86605,12.150175 9.80205,12.133175 9.74405,12.097175 C9.63705,12.032175 9.57105,11.915175 9.57105,11.790175 L9.57105,5.315175 L4.35905,3.147175 L4.36405,5.663175 C4.36405,5.862175 4.20305,6.023175 4.00505,6.024175 L4.00405,6.024175 C3.80605,6.024175 3.64505,5.863175 3.64405,5.665175 L3.63805,2.727175 C3.63805,2.700175 3.64705,2.676175 3.65305,2.649175 C3.65105,2.631175 3.63805,2.615175 3.63905,2.596175 C3.64405,2.445175 3.74005,2.314175 3.88305,2.266175 L9.62005,0.323175 C9.69405,0.298175 9.77605,0.298175 9.85105,0.323175 L15.61305,2.266175 C15.61605,2.267175 15.61705,2.270175 15.62005,2.271175 C15.68205,2.294175 15.73105,2.332175 15.77205,2.381175 C15.78005,2.391175 15.78605,2.401175 15.79405,2.412175 C15.82505,2.461175 15.84705,2.514175 15.85305,2.576175 C15.85305,2.581175 15.85705,2.585175 15.85705,2.591175 C15.85705,2.593175 15.85605,2.594175 15.85605,2.596175 Z M4.93265,8.454075 C5.13165,8.454075 5.29265,8.615075 5.29265,8.814075 L5.29265,11.466075 C5.29265,11.569075 5.24765,11.668075 5.16965,11.736075 L3.23465,13.434075 C3.16565,13.494075 3.08065,13.524075 2.99665,13.524075 C2.89765,13.524075 2.79765,13.482075 2.72665,13.401075 C2.59565,13.252075 2.61065,13.024075 2.75965,12.893075 L4.57265,11.303075 L4.57265,8.814075 C4.57265,8.615075 4.73365,8.454075 4.93265,8.454075 Z M4.58695,14.974575 C6.64195,14.974575 8.31295,13.303575 8.31295,11.248575 C8.31295,9.195575 6.64195,7.524575 4.58695,7.524575 C2.53295,7.524575 0.86195,9.195575 0.86195,11.248575 C0.86195,13.303575 2.53295,14.974575 4.58695,14.974575 Z M4.58695,6.803575 C7.03795,6.803575 9.03295,8.797575 9.03295,11.248575 C9.03295,13.700575 7.03795,15.695575 4.58695,15.695575 C2.13595,15.695575 0.14195,13.700575 0.14195,11.248575 C0.14195,8.797575 2.13595,6.803575 4.58695,6.803575 Z" id="Icon-Color"></path>
        </g>
    </g>
</svg>