<?xml version="1.0" encoding="UTF-8"?>
<svg width="16px" height="16px" viewBox="0 0 16 16" version="1.1" xmlns="http://www.w3.org/2000/svg" xmlns:xlink="http://www.w3.org/1999/xlink">
    
    <title>Icon/package-delay</title>
    <desc>Created with sketchtool.</desc>
    <g id="Icons" stroke="none" stroke-width="1" fill="none" fill-rule="evenodd">
        <g id="Icon/package-delay" fill="#00205B">
            <path d="M5.81375,13.090775 L5.81375,14.421775 L5.21475,14.421775 C5.06875,14.108775 4.60575,13.873775 4.03175,13.873775 C3.45875,13.873775 2.99575,14.108775 2.84775,14.421775 L1.53475,14.421775 L1.53475,13.090775 C1.53475,11.910775 2.49475,10.950775 3.67375,10.950775 C4.85375,10.950775 5.81375,11.910775 5.81375,13.090775 L5.81375,13.090775 Z M5.81375,7.651775 L3.76175,8.261775 L1.53475,7.883775 L1.53475,6.675775 L5.81375,6.675775 L5.81375,7.651775 Z M7.15175,5.910775 C7.15175,6.110775 6.99075,6.271775 6.79175,6.271775 L6.52575,6.271775 C6.52775,6.285775 6.53475,6.299775 6.53475,6.315775 L6.53475,8.007775 C6.53475,9.120775 5.88875,10.076775 4.95975,10.549775 C5.88875,11.021775 6.53475,11.977775 6.53475,13.090775 L6.53475,14.781775 C6.53475,14.819775 6.52375,14.852775 6.51375,14.885775 L6.79175,14.885775 C6.99075,14.885775 7.15175,15.046775 7.15175,15.245775 C7.15175,15.444775 6.99075,15.606775 6.79175,15.606775 L0.50075,15.606775 C0.30075,15.606775 0.13975,15.444775 0.13975,15.245775 C0.13975,15.046775 0.30075,14.885775 0.50075,14.885775 L0.83475,14.885775 C0.82475,14.852775 0.81375,14.819775 0.81375,14.781775 L0.81375,13.090775 C0.81375,11.977775 1.45975,11.021775 2.38975,10.549775 C1.45975,10.076775 0.81375,9.120775 0.81375,8.007775 L0.81375,6.315775 C0.81375,6.299775 0.82075,6.285775 0.82275,6.271775 L0.50075,6.271775 C0.30075,6.271775 0.13975,6.110775 0.13975,5.910775 C0.13975,5.711775 0.30075,5.550775 0.50075,5.550775 L6.79175,5.550775 C6.99075,5.550775 7.15175,5.711775 7.15175,5.910775 Z M10.29425,11.288975 L15.14025,8.800975 L15.14025,3.249975 L10.29425,5.396975 L10.29425,11.288975 Z M6.95825,2.073975 L5.02125,2.729975 L9.92925,4.771975 L11.77925,3.951975 L6.95825,2.073975 Z M9.73725,1.132975 L8.02125,1.714975 L12.66525,3.522975 C12.67825,3.527975 12.68725,3.537975 12.69825,3.544975 L14.50925,2.741975 L9.73725,1.132975 Z M15.85825,2.684975 C15.85825,2.688975 15.86025,2.692975 15.86025,2.696975 L15.86025,9.019975 C15.86025,9.154975 15.78425,9.278975 15.66425,9.340975 L10.09825,12.198975 C10.04625,12.225975 9.99025,12.238975 9.93425,12.238975 C9.86825,12.238975 9.80425,12.221975 9.74625,12.185975 C9.63925,12.120975 9.57325,12.003975 9.57325,11.878975 L9.57325,5.403975 L4.36325,3.236975 L4.36625,3.871975 C4.36725,4.071975 4.17425,4.249975 4.00625,4.233975 C3.80825,4.233975 3.64725,4.073975 3.64625,3.875975 L3.64025,2.816975 C3.64025,2.787975 3.64825,2.760975 3.65425,2.732975 C3.65225,2.715975 3.64025,2.701975 3.64125,2.684975 C3.64625,2.533975 3.74225,2.402975 3.88525,2.354975 L9.62225,0.411975 C9.69625,0.386975 9.77825,0.386975 9.85325,0.411975 L15.61525,2.354975 C15.61925,2.355975 15.62125,2.359975 15.62425,2.361975 C15.68425,2.383975 15.73325,2.420975 15.77325,2.468975 C15.78225,2.479975 15.78825,2.490975 15.79625,2.503975 C15.82725,2.550975 15.84825,2.603975 15.85425,2.662975 C15.85525,2.668975 15.85925,2.673975 15.85925,2.679975 C15.85925,2.681975 15.85825,2.683975 15.85825,2.684975 Z" id="Icon-Color"></path>
        </g>
    </g>
</svg>