<?xml version="1.0" encoding="UTF-8"?>
<svg width="16px" height="16px" viewBox="0 0 16 16" version="1.1" xmlns="http://www.w3.org/2000/svg" xmlns:xlink="http://www.w3.org/1999/xlink">
    
    <title>Icon/pickup-ready</title>
    <desc>Created with sketchtool.</desc>
    <g id="Icons" stroke="none" stroke-width="1" fill="none" fill-rule="evenodd">
        <g id="Icon/pickup-ready" fill="#00205B">
            <path d="M15.4415,7.75395 C15.5085,7.82095 15.5465,7.91295 15.5465,8.00895 L15.5465,10.45595 C15.5465,10.65495 15.3855,10.81695 15.1865,10.81695 L14.7805,10.81695 C14.5815,10.81695 14.4205,10.65495 14.4205,10.45595 C14.4205,10.25695 14.5815,10.09595 14.7805,10.09595 L14.8265,10.09595 L14.8265,8.15795 L12.1195,5.45095 L10.9755,5.45095 L10.9755,8.66895 C10.9755,8.86795 10.8145,9.02895 10.6155,9.02895 C10.4165,9.02895 10.2545,8.86795 10.2545,8.66895 L10.2545,7.85795 L1.1735,7.85795 L1.1735,10.09595 L2.3135,10.09595 C2.5125,10.09595 2.6735,10.25695 2.6735,10.45595 C2.6735,10.65495 2.5125,10.81695 2.3135,10.81695 L0.8135,10.81695 C0.6145,10.81695 0.4535,10.65495 0.4535,10.45595 L0.4535,7.49695 C0.4535,7.29795 0.6145,7.13695 0.8135,7.13695 L10.2545,7.13695 L10.2545,5.09095 C10.2545,4.89195 10.4165,4.73095 10.6155,4.73095 L12.2685,4.73095 C12.3645,4.73095 12.4565,4.76895 12.5235,4.83595 L15.4415,7.75395 Z M10.0958,10.81645 L7.3138,10.81645 C7.1148,10.81645 6.9528,10.65545 6.9528,10.45645 C6.9528,10.25645 7.1148,10.09545 7.3138,10.09545 L10.0958,10.09545 C10.2948,10.09545 10.4558,10.25645 10.4558,10.45645 C10.4558,10.65545 10.2948,10.81645 10.0958,10.81645 Z M11.3204,10.67295 C11.3204,11.29895 11.8304,11.80895 12.4564,11.80895 C13.0824,11.80895 13.5914,11.29895 13.5914,10.67295 C13.5914,10.04695 13.0824,9.53695 12.4564,9.53695 C11.8304,9.53695 11.3204,10.04695 11.3204,10.67295 Z M14.3124,10.67295 C14.3124,11.69595 13.4794,12.52895 12.4564,12.52895 C11.4324,12.52895 10.5994,11.69595 10.5994,10.67295 C10.5994,9.64995 11.4324,8.81695 12.4564,8.81695 C13.4794,8.81695 14.3124,9.64995 14.3124,10.67295 Z M3.6944,10.67295 C3.6944,11.29895 4.2044,11.80895 4.8304,11.80895 C5.4564,11.80895 5.9654,11.29895 5.9654,10.67295 C5.9654,10.04695 5.4564,9.53695 4.8304,9.53695 C4.2044,9.53695 3.6944,10.04695 3.6944,10.67295 Z M6.6864,10.67295 C6.6864,11.69595 5.8534,12.52895 4.8304,12.52895 C3.8064,12.52895 2.9734,11.69595 2.9734,10.67295 C2.9734,9.64995 3.8064,8.81695 4.8304,8.81695 C5.8534,8.81695 6.6864,9.64995 6.6864,10.67295 Z M14.0001,13.30865 C14.1991,13.30865 14.3601,13.46965 14.3601,13.66865 C14.3601,13.86865 14.1991,14.02965 14.0001,14.02965 L1.8131,14.02965 C1.6141,14.02965 1.4531,13.86865 1.4531,13.66865 C1.4531,13.46965 1.6141,13.30865 1.8131,13.30865 L14.0001,13.30865 Z M4.1544,5.30865 L6.5934,5.30865 C6.7934,5.30865 6.9544,5.46965 6.9544,5.66865 C6.9544,5.86865 6.7934,6.02965 6.5934,6.02965 L4.1544,6.02965 C3.9554,6.02965 3.7944,5.86865 3.7944,5.66865 C3.7944,5.46965 3.9554,5.30865 4.1544,5.30865 Z M2.9962,3.44635 L8.0052,3.44635 L8.0052,2.69135 L2.9962,2.69135 L2.9962,3.44635 Z M2.6362,4.16735 C2.4362,4.16735 2.2752,4.00635 2.2752,3.80635 L2.2752,2.33135 C2.2752,2.13235 2.4362,1.97035 2.6362,1.97035 L8.3652,1.97035 C8.5642,1.97035 8.7252,2.13235 8.7252,2.33135 L8.7252,3.80635 C8.7252,4.00635 8.5642,4.16735 8.3652,4.16735 L8.3602,4.16735 L8.3602,6.45735 C8.3602,6.65635 8.1992,6.81735 8.0002,6.81735 C7.8012,6.81735 7.6402,6.65635 7.6402,6.45735 L7.6402,4.16735 L3.3602,4.16735 L3.3602,6.42435 C3.3602,6.62335 3.1992,6.78435 3.0002,6.78435 C2.8012,6.78435 2.6402,6.62335 2.6402,6.42435 L2.6402,4.16735 L2.6362,4.16735 Z" id="Icon-Color"></path>
        </g>
    </g>
</svg>