<?xml version="1.0" encoding="UTF-8"?>
<svg width="16px" height="16px" viewBox="0 0 16 16" version="1.1" xmlns="http://www.w3.org/2000/svg" xmlns:xlink="http://www.w3.org/1999/xlink">
    
    <title>Icon/pin-map</title>
    <desc>Created with sketchtool.</desc>
    <g id="Icons" stroke="none" stroke-width="1" fill="none" fill-rule="evenodd">
        <g id="Icon/pin-map" fill="#00205B">
            <path d="M8.0001,0.81425 C10.5411,0.81425 12.6071,2.63525 12.6071,4.87425 C12.6071,9.17025 8.2131,14.00925 8.0261,14.21125 C8.0241,14.21425 8.0151,14.21925 8.0001,14.21925 L7.9731,14.21225 C7.7861,14.00725 3.3921,9.13525 3.3921,4.87425 C3.3921,2.63525 5.4591,0.81425 8.0001,0.81425 M8.0001,14.93925 C7.7871,14.93925 7.5841,14.85225 7.4421,14.70025 C7.2461,14.48425 2.6711,9.41125 2.6711,4.87425 C2.6711,2.23825 5.0621,0.09425 8.0001,0.09425 C10.9381,0.09425 13.3281,2.23825 13.3281,4.87425 C13.3281,9.44725 8.7511,14.48725 8.5571,14.69925 C8.4151,14.85225 8.2131,14.93925 8.0001,14.93925 Z M15.7765,15.31575 C15.8665,15.42275 15.8855,15.57275 15.8265,15.69875 C15.7665,15.82575 15.6395,15.90575 15.5005,15.90575 L0.5005,15.90575 C0.3605,15.90575 0.2335,15.82575 0.1735,15.69875 C0.1145,15.57275 0.1335,15.42275 0.2235,15.31575 L2.7235,12.31575 C2.7925,12.23375 2.8935,12.18675 3.0005,12.18675 L4.5005,12.18675 C4.6995,12.18675 4.8605,12.34775 4.8605,12.54575 C4.8605,12.74475 4.6995,12.90575 4.5005,12.90575 L3.1695,12.90575 L1.2685,15.18675 L14.7315,15.18675 L12.8315,12.90575 L11.5005,12.90575 C11.3005,12.90575 11.1395,12.74475 11.1395,12.54575 C11.1395,12.34775 11.3005,12.18675 11.5005,12.18675 L13.0005,12.18675 C13.1065,12.18675 13.2085,12.23375 13.2765,12.31575 L15.7765,15.31575 Z M8.0001,3.66725 C8.9741,3.66725 9.7661,4.48525 9.7661,5.49125 C9.7661,5.69025 9.9271,5.85125 10.1261,5.85125 C10.3251,5.85125 10.4861,5.69025 10.4861,5.49125 C10.4861,4.08825 9.3711,2.94725 8.0001,2.94725 C6.6291,2.94725 5.5131,4.08825 5.5131,5.49125 C5.5131,6.08625 5.7201,6.66725 6.0951,7.12525 C6.1661,7.21125 6.2701,7.25625 6.3731,7.25625 C6.4531,7.25625 6.5341,7.23025 6.6021,7.17525 C6.7551,7.04925 6.7771,6.82225 6.6511,6.66825 C6.3821,6.33925 6.2331,5.92125 6.2331,5.49125 C6.2331,4.48525 7.0251,3.66725 8.0001,3.66725" id="Icon-Color"></path>
        </g>
    </g>
</svg>