<?xml version="1.0" encoding="UTF-8"?>
<svg width="16px" height="16px" viewBox="0 0 16 16" version="1.1" xmlns="http://www.w3.org/2000/svg" xmlns:xlink="http://www.w3.org/1999/xlink">
    
    <title>Icon/pin</title>
    <desc>Created with sketchtool.</desc>
    <g id="Icons" stroke="none" stroke-width="1" fill="none" fill-rule="evenodd">
        <g id="Icon/pin" fill="#00205B">
            <path d="M8,0.772 C5.192,0.772 2.909,2.741 2.909,5.161 C2.909,9.748 7.736,14.989 7.942,15.21 L8,15.229 C8.028,15.229 8.05,15.219 8.059,15.21 C8.264,14.991 13.092,9.793 13.092,5.161 C13.092,2.741 10.808,0.772 8,0.772 M8,15.948 C7.776,15.948 7.563,15.859 7.417,15.702 C7.202,15.472 2.188,10.028 2.188,5.161 C2.188,2.344 4.796,0.052 8,0.052 C11.205,0.052 13.812,2.344 13.812,5.161 C13.812,10.075 8.796,15.476 8.583,15.703 C8.436,15.859 8.224,15.948 8,15.948 M6.2149,7.6939 C6.1119,7.6939 6.0099,7.6499 5.9389,7.5649 C5.5309,7.0779 5.3069,6.4599 5.3069,5.8239 C5.3069,4.3309 6.5159,3.1169 8.0009,3.1169 C9.4859,3.1169 10.6939,4.3309 10.6939,5.8239 C10.6939,6.0229 10.5329,6.1839 10.3339,6.1839 C10.1349,6.1839 9.9739,6.0229 9.9739,5.8239 C9.9739,4.7289 9.0889,3.8369 8.0009,3.8369 C6.9119,3.8369 6.0279,4.7289 6.0279,5.8239 C6.0279,6.2909 6.1919,6.7449 6.4909,7.1029 C6.6179,7.2559 6.5989,7.4829 6.4449,7.6109 C6.3779,7.6669 6.2969,7.6939 6.2149,7.6939" id="Icon-Color"></path>
        </g>
    </g>
</svg>