<?xml version="1.0" encoding="UTF-8"?>
<svg width="16px" height="16px" viewBox="0 0 16 16" version="1.1" xmlns="http://www.w3.org/2000/svg" xmlns:xlink="http://www.w3.org/1999/xlink">
    
    <title>Icon/pinterest</title>
    <desc>Created with sketchtool.</desc>
    <g id="Icons" stroke="none" stroke-width="1" fill="none" fill-rule="evenodd">
        <g id="Icon/pinterest" fill="#00205B">
            <path d="M16,8 C16,9.45138889 15.6423611,10.7899306 14.9270833,12.015625 C14.2118056,13.2413194 13.2413194,14.2118056 12.015625,14.9270833 C10.7899306,15.6423611 9.45138889,16 8,16 C7.22916667,16 6.47222222,15.8888889 5.72916667,15.6666667 C6.13888889,15.0208333 6.40972222,14.4513889 6.54166667,13.9583333 C6.60416667,13.7222222 6.79166667,12.9895833 7.10416667,11.7604167 C7.24305556,12.03125 7.49652778,12.265625 7.86458333,12.4635417 C8.23263889,12.6614583 8.62847222,12.7604167 9.05208333,12.7604167 C9.89236111,12.7604167 10.6423611,12.5225694 11.3020833,12.046875 C11.9618056,11.5711806 12.4722222,10.9166667 12.8333333,10.0833333 C13.1944444,9.25 13.375,8.3125 13.375,7.27083333 C13.375,6.47916667 13.1684028,5.73611111 12.7552083,5.04166667 C12.3420139,4.34722222 11.7430556,3.78125 10.9583333,3.34375 C10.1736111,2.90625 9.28819444,2.6875 8.30208333,2.6875 C7.57291667,2.6875 6.89236111,2.78819444 6.26041667,2.98958333 C5.62847222,3.19097222 5.09201389,3.45833333 4.65104167,3.79166667 C4.21006944,4.125 3.83159722,4.50868056 3.515625,4.94270833 C3.19965278,5.37673611 2.96701389,5.82638889 2.81770833,6.29166667 C2.66840278,6.75694444 2.59375,7.22222222 2.59375,7.6875 C2.59375,8.40972222 2.73263889,9.04513889 3.01041667,9.59375 C3.28819444,10.1423611 3.69444444,10.5277778 4.22916667,10.75 C4.4375,10.8333333 4.56944444,10.7638889 4.625,10.5416667 C4.63888889,10.4930556 4.66666667,10.3854167 4.70833333,10.21875 C4.75,10.0520833 4.77777778,9.94791667 4.79166667,9.90625 C4.83333333,9.74652778 4.79513889,9.59722222 4.67708333,9.45833333 C4.32291667,9.03472222 4.14583333,8.51041667 4.14583333,7.88541667 C4.14583333,6.83680556 4.50868056,5.93576389 5.234375,5.18229167 C5.96006944,4.42881944 6.90972222,4.05208333 8.08333333,4.05208333 C9.13194444,4.05208333 9.94965278,4.33680556 10.5364583,4.90625 C11.1232639,5.47569444 11.4166667,6.21527778 11.4166667,7.125 C11.4166667,8.30555556 11.1788194,9.30902778 10.703125,10.1354167 C10.2274306,10.9618056 9.61805556,11.375 8.875,11.375 C8.45138889,11.375 8.11111111,11.2239583 7.85416667,10.921875 C7.59722222,10.6197917 7.51736111,10.2569444 7.61458333,9.83333333 C7.67013889,9.59027778 7.76215278,9.265625 7.890625,8.859375 C8.01909722,8.453125 8.12326389,8.09548611 8.203125,7.78645833 C8.28298611,7.47743056 8.32291667,7.21527778 8.32291667,7 C8.32291667,6.65277778 8.22916667,6.36458333 8.04166667,6.13541667 C7.85416667,5.90625 7.58680556,5.79166667 7.23958333,5.79166667 C6.80902778,5.79166667 6.44444444,5.98958333 6.14583333,6.38541667 C5.84722222,6.78125 5.69791667,7.27430556 5.69791667,7.86458333 C5.69791667,8.37152778 5.78472222,8.79513889 5.95833333,9.13541667 L4.92708333,13.4895833 C4.80902778,13.9756944 4.76388889,14.5902778 4.79166667,15.3333333 C3.36111111,14.7013889 2.20486111,13.7256944 1.32291667,12.40625 C0.440972222,11.0868056 0,9.61805556 0,8 C0,6.54861111 0.357638889,5.21006944 1.07291667,3.984375 C1.78819444,2.75868056 2.75868056,1.78819444 3.984375,1.07291667 C5.21006944,0.357638889 6.54861111,0 8,0 C9.45138889,0 10.7899306,0.357638889 12.015625,1.07291667 C13.2413194,1.78819444 14.2118056,2.75868056 14.9270833,3.984375 C15.6423611,5.21006944 16,6.54861111 16,8 Z" id="Icon-Color"></path>
        </g>
    </g>
</svg>