<?xml version="1.0" encoding="UTF-8"?>
<svg width="16px" height="16px" viewBox="0 0 16 16" version="1.1" xmlns="http://www.w3.org/2000/svg" xmlns:xlink="http://www.w3.org/1999/xlink">
    
    <title>Icon/question</title>
    <desc>Created with sketchtool.</desc>
    <g id="Icons" stroke="none" stroke-width="1" fill="none" fill-rule="evenodd">
        <g id="Icon/question" fill="#00205B">
            <path d="M7.7539,15.01875 C3.8849,15.01875 0.7369,11.86975 0.7369,7.99975 C0.7369,4.12975 3.8849,0.98075 7.7539,0.98075 C11.6249,0.98075 14.7739,4.12975 14.7739,7.99975 C14.7739,11.86975 11.6249,15.01875 7.7539,15.01875 M7.7539,0.24475 C3.4789,0.24475 -0.0001,3.72375 -0.0001,7.99975 C-0.0001,12.27575 3.4789,15.75475 7.7539,15.75475 C12.0309,15.75475 15.5109,12.27575 15.5109,7.99975 C15.5109,3.72375 12.0309,0.24475 7.7539,0.24475 M7.7559,10.63935 C7.1269,10.63935 6.6159,11.14935 6.6159,11.77735 C6.6159,12.40635 7.1269,12.91735 7.7559,12.91735 C8.3839,12.91735 8.8949,12.40635 8.8949,11.77735 C8.8949,11.14935 8.3839,10.63935 7.7559,10.63935 M7.7246,3.08265 C5.8276,3.08265 4.7366,4.10865 4.7366,5.64865 L4.7366,6.12465 L6.7626,6.12465 L6.7626,5.78965 C6.7626,5.18665 7.1086,4.79065 7.7246,4.79065 C8.3156,4.79065 8.7266,5.10665 8.8036,5.64065 C8.8666,6.06965 8.9526,6.38065 8.5116,6.68765 L7.8276,7.09065 C6.9156,7.61765 6.7486,7.93865 6.7486,8.75965 L6.7486,9.22065 L8.8156,9.22065 L8.8156,9.13065 C8.8156,8.82265 8.8786,8.66965 9.1486,8.51665 L9.7776,8.12965 C10.9316,7.46265 10.7666,6.90665 10.7666,5.64865 C10.7666,4.04465 9.6746,3.08265 7.7246,3.08265" id="Icon-Color"></path>
        </g>
    </g>
</svg>