<?xml version="1.0" encoding="UTF-8"?>
<svg width="16px" height="16px" viewBox="0 0 16 16" version="1.1" xmlns="http://www.w3.org/2000/svg" xmlns:xlink="http://www.w3.org/1999/xlink">
    
    <title>Icon/rrwd</title>
    <desc>Created with sketchtool.</desc>
    <g id="Icons" stroke="none" stroke-width="1" fill="none" fill-rule="evenodd">
        <g id="Icon/rrwd" fill="#00205B">
            <path d="M14.837,12.4514294 L8.439,8.04342943 L14.837,3.55542943 L14.837,12.4514294 Z M7.528,12.4514294 L1.131,8.04342943 L7.528,3.55542943 L7.528,12.4514294 Z M15.363,2.54342943 C15.246,2.48142943 15.102,2.49042943 14.99,2.56742943 L8.249,7.29542943 L8.249,2.86242943 C8.249,2.72742943 8.174,2.60442943 8.055,2.54342943 C7.938,2.48142943 7.791,2.49042943 7.682,2.56742943 L0.715,7.45442943 C0.545,7.57642943 0.442,7.77942943 0.442,8.00042943 C0.442,8.22242943 0.546,8.42642943 0.717,8.54642943 L7.682,13.4314294 C7.744,13.4744294 7.816,13.4974294 7.889,13.4974294 C7.945,13.4974294 8.003,13.4834294 8.055,13.4564294 C8.174,13.3944294 8.249,13.2714294 8.249,13.1374294 L8.249,8.70342943 L14.99,13.4314294 C15.053,13.4744294 15.125,13.4974294 15.197,13.4974294 C15.254,13.4974294 15.312,13.4834294 15.363,13.4564294 C15.483,13.3944294 15.558,13.2714294 15.558,13.1374294 L15.558,2.86242943 C15.558,2.72742943 15.483,2.60442943 15.363,2.54342943 L15.363,2.54342943 Z" id="Icon-Color"></path>
        </g>
    </g>
</svg>