<?xml version="1.0" encoding="UTF-8"?>
<svg width="16px" height="16px" viewBox="0 0 16 16" version="1.1" xmlns="http://www.w3.org/2000/svg" xmlns:xlink="http://www.w3.org/1999/xlink">
    
    <title>Icon/scheduling</title>
    <desc>Created with sketchtool.</desc>
    <g id="Icons" stroke="none" stroke-width="1" fill="none" fill-rule="evenodd">
        <g id="Icon/scheduling" fill="#00205B">
            <path d="M11.2825,8.0301 C11.4815,8.0301 11.6425,8.1911 11.6425,8.3901 L11.6425,10.9861 C11.6425,11.0901 11.5975,11.1881 11.5195,11.2571 L9.6245,12.9191 C9.5555,12.9791 9.4705,13.0091 9.3865,13.0091 C9.2875,13.0091 9.1875,12.9671 9.1165,12.8851 C8.9855,12.7361 9.0005,12.5091 9.1495,12.3781 L10.9225,10.8231 L10.9225,8.3901 C10.9225,8.1911 11.0835,8.0301 11.2825,8.0301 Z M10.9446,14.4139 C12.9516,14.4139 14.5846,12.7809 14.5846,10.7739 C14.5846,8.7679 12.9516,7.1349 10.9446,7.1349 C8.9376,7.1349 7.3046,8.7679 7.3046,10.7739 C7.3046,12.7809 8.9376,14.4139 10.9446,14.4139 Z M10.9446,6.4139 C13.3486,6.4139 15.3046,8.3699 15.3046,10.7739 C15.3046,13.1789 13.3486,15.1349 10.9446,15.1349 C8.5406,15.1349 6.5846,13.1789 6.5846,10.7739 C6.5846,8.3699 8.5406,6.4139 10.9446,6.4139 Z M6.3724,13.8651 C6.5714,13.8651 6.7324,14.0261 6.7324,14.2251 C6.7324,14.4251 6.5714,14.5861 6.3724,14.5861 L1.0564,14.5861 C0.8564,14.5861 0.6954,14.4251 0.6954,14.2251 L0.6954,2.2251 C0.6954,2.0261 0.8564,1.8651 1.0564,1.8651 L4.0844,1.8651 L4.0844,1.2251 C4.0844,1.0261 4.2454,0.8651 4.4444,0.8651 C4.6434,0.8651 4.8054,1.0261 4.8054,1.2251 L4.8054,1.8651 L10.0844,1.8651 L10.0844,1.2251 C10.0844,1.0261 10.2454,0.8651 10.4444,0.8651 C10.6434,0.8651 10.8054,1.0261 10.8054,1.2251 L10.8054,1.8651 L13.6504,1.8651 C13.8504,1.8651 14.0114,2.0261 14.0114,2.2251 L14.0114,5.7251 C14.0114,5.9251 13.8504,6.0861 13.6504,6.0861 C13.4514,6.0861 13.2904,5.9251 13.2904,5.7251 L13.2904,2.5861 L10.8054,2.5861 L10.8054,3.5791 C10.8054,3.7781 10.6434,3.9391 10.4444,3.9391 C10.2454,3.9391 10.0844,3.7781 10.0844,3.5791 L10.0844,2.5861 L4.8054,2.5861 L4.8054,3.5791 C4.8054,3.7781 4.6434,3.9391 4.4444,3.9391 C4.2454,3.9391 4.0844,3.7781 4.0844,3.5791 L4.0844,2.5861 L1.4164,2.5861 L1.4164,6.2431 L6.3724,6.2431 C6.5714,6.2431 6.7324,6.4041 6.7324,6.6031 C6.7324,6.8031 6.5714,6.9641 6.3724,6.9641 L1.4164,6.9641 L1.4164,13.8651 L6.3724,13.8651 Z" id="Icon-Color"></path>
        </g>
    </g>
</svg>