<?xml version="1.0" encoding="UTF-8"?>
<svg width="16px" height="16px" viewBox="0 0 16 16" version="1.1" xmlns="http://www.w3.org/2000/svg" xmlns:xlink="http://www.w3.org/1999/xlink">
    
    <title>Icon/search</title>
    <desc>Created with sketchtool.</desc>
    <g id="Icons" stroke="none" stroke-width="1" fill="none" fill-rule="evenodd">
        <g id="Icon/search" fill="#00205B">
            <path d="M13.3254675,14.343838 L9.14646747,10.124838 L10.1304675,9.15183802 L14.3084675,13.369838 L13.3254675,14.343838 Z M2.82946747,9.09683802 C1.10046747,7.35083802 1.11446747,4.52383802 2.85946747,2.79483802 C3.70046747,1.96283802 4.81246747,1.50483802 5.99546747,1.50483802 L6.01646747,1.50483802 C7.20746747,1.51083802 8.32446747,1.97983802 9.16146747,2.82483802 C10.8884675,4.57083802 10.8774675,7.39583802 9.13346747,9.12583802 L9.13146747,9.12783802 C7.38346747,10.855838 4.55846747,10.842838 2.82946747,9.09683802 L2.82946747,9.09683802 Z M15.0734675,13.118838 L10.4854675,8.48883802 C11.5884675,6.52483802 11.3344675,3.99583802 9.67346747,2.31883802 C8.70046747,1.33583802 7.40346747,0.791838019 6.02046747,0.784838019 L5.99446747,0.784838019 C4.62146747,0.784838019 3.32946747,1.31683802 2.35346747,2.28283802 C0.326467473,4.29183802 0.309467473,7.57483802 2.31746747,9.60383802 C3.32846747,10.623838 4.66146747,11.134838 5.99546747,11.134838 C6.85546747,11.134838 7.70646747,10.900838 8.48046747,10.474838 L13.0674675,15.106838 C13.1364675,15.175838 13.2144675,15.226838 13.3234675,15.212838 C13.4184675,15.212838 13.5094675,15.175838 13.5764675,15.108838 L15.0704675,13.628838 C15.2124675,13.488838 15.2134675,13.260838 15.0734675,13.118838 L15.0734675,13.118838 Z" id="Icon-Color"></path>
        </g>
    </g>
</svg>