<?xml version="1.0" encoding="UTF-8"?>
<svg width="16px" height="16px" viewBox="0 0 16 16" version="1.1" xmlns="http://www.w3.org/2000/svg" xmlns:xlink="http://www.w3.org/1999/xlink">
    
    <title>Icon/shipped</title>
    <desc>Created with sketchtool.</desc>
    <g id="Icons" stroke="none" stroke-width="1" fill="none" fill-rule="evenodd">
        <g id="Icon/shipped" fill="#00205B">
            <path d="M15.6095,8.335 C15.6765,8.402 15.7145,8.494 15.7145,8.59 L15.7145,11.037 C15.7145,11.236 15.5535,11.398 15.3545,11.398 L14.9485,11.398 C14.7495,11.398 14.5885,11.236 14.5885,11.037 C14.5885,10.838 14.7495,10.677 14.9485,10.677 L14.9945,10.677 L14.9945,8.739 L12.2875,6.032 L11.0185,6.032 L11.0185,6.25 L11.0185,9.25 C11.0185,9.449 10.8575,9.61 10.6585,9.61 C10.4595,9.61 10.2975,9.449 10.2975,9.25 L10.2975,6.25 L10.2975,5.672 L10.2975,3.61 L2.0055,3.61 L2.0055,4.89 L6.0765,4.89 C6.2755,4.89 6.4365,5.051 6.4365,5.25 C6.4365,5.449 6.2755,5.61 6.0765,5.61 L2.0055,5.61 L2.0055,7.89 L4.0765,7.89 C4.2755,7.89 4.4365,8.051 4.4365,8.25 C4.4365,8.449 4.2755,8.61 4.0765,8.61 L2.0055,8.61 L2.0055,10.677 L2.4815,10.677 C2.6805,10.677 2.8415,10.838 2.8415,11.037 C2.8415,11.236 2.6805,11.398 2.4815,11.398 L1.6455,11.398 C1.4465,11.398 1.2855,11.236 1.2855,11.037 L1.2855,8.61 L0.8125,8.61 C0.6135,8.61 0.4525,8.449 0.4525,8.25 C0.4525,8.051 0.6135,7.89 0.8125,7.89 L1.2855,7.89 L1.2855,5.61 L0.6455,5.61 C0.4465,5.61 0.2855,5.449 0.2855,5.25 C0.2855,5.051 0.4465,4.89 0.6455,4.89 L1.2855,4.89 L1.2855,3.25 C1.2855,3.051 1.4465,2.89 1.6455,2.89 L10.6585,2.89 C10.8575,2.89 11.0185,3.051 11.0185,3.25 L11.0185,5.312 L12.4365,5.312 C12.5325,5.312 12.6245,5.35 12.6915,5.417 L15.6095,8.335 Z M10.2628,11.3975 L7.4818,11.3975 C7.2828,11.3975 7.1208,11.2365 7.1208,11.0375 C7.1208,10.8375 7.2828,10.6765 7.4818,10.6765 L10.2628,10.6765 C10.4618,10.6765 10.6228,10.8375 10.6228,11.0375 C10.6228,11.2365 10.4618,11.3975 10.2628,11.3975 Z M11.4874,11.254 C11.4874,11.88 11.9974,12.39 12.6234,12.39 C13.2504,12.39 13.7594,11.88 13.7594,11.254 C13.7594,10.628 13.2504,10.118 12.6234,10.118 C11.9974,10.118 11.4874,10.628 11.4874,11.254 Z M14.4804,11.254 C14.4804,12.277 13.6474,13.11 12.6234,13.11 C11.5994,13.11 10.7664,12.277 10.7664,11.254 C10.7664,10.231 11.5994,9.398 12.6234,9.398 C13.6474,9.398 14.4804,10.231 14.4804,11.254 Z M3.8615,11.254 C3.8615,11.88 4.3715,12.39 4.9975,12.39 C5.6235,12.39 6.1325,11.88 6.1325,11.254 C6.1325,10.628 5.6235,10.118 4.9975,10.118 C4.3715,10.118 3.8615,10.628 3.8615,11.254 Z M6.8535,11.254 C6.8535,12.277 6.0205,13.11 4.9975,13.11 C3.9735,13.11 3.1405,12.277 3.1405,11.254 C3.1405,10.231 3.9735,9.398 4.9975,9.398 C6.0205,9.398 6.8535,10.231 6.8535,11.254 Z" id="Icon-Color"></path>
        </g>
    </g>
</svg>