<?xml version="1.0" encoding="UTF-8"?>
<svg width="16px" height="16px" viewBox="0 0 16 16" version="1.1" xmlns="http://www.w3.org/2000/svg" xmlns:xlink="http://www.w3.org/1999/xlink">
    
    <title>Icon/show</title>
    <desc>Created with sketchtool.</desc>
    <g id="Icons" stroke="none" stroke-width="1" fill="none" fill-rule="evenodd">
        <g id="Icon/show" fill="#00205B">
            <path d="M14.4144936,9.241625 C13.9594936,9.686625 13.4444936,10.191625 12.3744936,11.024625 C11.2544936,11.897625 9.76249364,12.376625 8.08949364,12.376625 C8.05949364,12.376625 8.02849364,12.376625 7.99849364,12.375625 C7.96949364,12.376625 7.94049364,12.376625 7.91249364,12.376625 C6.31349364,12.376625 4.82149364,11.897625 3.70149364,11.024625 C2.63149364,10.190625 2.11549364,9.685625 1.66049364,9.240625 C1.61349364,9.194625 1.56749364,9.149625 1.52249364,9.105625 C1.56649364,9.061625 1.61149364,9.017625 1.65749364,8.972625 C2.11249364,8.526625 2.62849364,8.021625 3.70049364,7.185625 C4.82249364,6.312625 6.31449364,5.834625 7.98749364,5.834625 C8.04349364,5.833625 8.10349364,5.833625 8.16349364,5.834625 C9.76149364,5.834625 11.2534936,6.312625 12.3754936,7.185625 C13.4444936,8.018625 13.9594936,8.523625 14.4144936,8.969625 L14.5544936,9.105625 L14.4144936,9.241625 Z M15.1954936,8.724625 L14.9184936,8.454625 C14.4494936,7.996625 13.9194936,7.475625 12.8174936,6.617625 L12.8164936,6.617625 C12.6434936,6.482625 12.4444936,6.379625 12.2564936,6.262625 L13.3004936,4.707625 C13.4114936,4.542625 13.3674936,4.318625 13.2014936,4.208625 C13.0374936,4.098625 12.8134936,4.140625 12.7024936,4.306625 L11.6314936,5.903625 C10.6594936,5.438625 9.54149364,5.186625 8.36249364,5.140625 L8.36249364,3.263625 C8.36249364,3.064625 8.20149364,2.903625 8.00249364,2.903625 C7.80349364,2.903625 7.64249364,3.064625 7.64249364,3.263625 L7.64249364,5.142625 C6.43749364,5.198625 5.29949364,5.458625 4.31449364,5.955625 L3.20949364,4.306625 C3.09849364,4.140625 2.87449364,4.098625 2.71049364,4.208625 C2.54549364,4.318625 2.50049364,4.542625 2.61149364,4.707625 L3.70349364,6.335625 C3.55649364,6.430625 3.39649364,6.510625 3.25849364,6.617625 C2.15349364,7.478625 1.62249364,7.999625 1.15349364,8.459625 C1.01849364,8.591625 0.89149364,8.717625 0.75649364,8.843625 C0.68349364,8.911625 0.64249364,9.006625 0.64249364,9.105625 C0.64249364,9.205625 0.68449364,9.301625 0.75649364,9.368625 C0.89249364,9.495625 1.02049364,9.622625 1.15649364,9.755625 C1.62549364,10.214625 2.15649364,10.733625 3.25849364,11.593625 C4.50549364,12.563625 6.15349364,13.095625 7.97349364,13.095625 C8.03749364,13.096625 8.10149364,13.096625 8.16349364,13.095625 C9.92149364,13.095625 11.5714936,12.563625 12.8174936,11.593625 C13.9194936,10.734625 14.4494936,10.214625 14.9184936,9.756625 L15.1954936,9.485625 C15.2984936,9.387625 15.3575064,9.249625 15.3575064,9.107625 C15.3584936,8.965625 15.3004936,8.826625 15.1954936,8.724625 L15.1954936,8.724625 Z M8.00039364,10.640025 C7.09639364,10.640025 6.36039364,9.905025 6.36039364,9.000025 C6.36039364,8.096025 7.09639364,7.361025 8.00039364,7.361025 C8.90439364,7.361025 9.64039364,8.096025 9.64039364,9.000025 C9.64039364,9.905025 8.90439364,10.640025 8.00039364,10.640025 M8.00039364,6.640025 C6.69839364,6.640025 5.64039364,7.699025 5.64039364,9.000025 C5.64039364,10.302025 6.69839364,11.361025 8.00039364,11.361025 C9.30239364,11.361025 10.3603936,10.302025 10.3603936,9.000025 C10.3603936,7.699025 9.30239364,6.640025 8.00039364,6.640025" id="Icon-Color"></path>
        </g>
    </g>
</svg>