<?xml version="1.0" encoding="UTF-8"?>
<svg width="16px" height="16px" viewBox="0 0 16 16" version="1.1" xmlns="http://www.w3.org/2000/svg" xmlns:xlink="http://www.w3.org/1999/xlink">
    
    <title>Icon/sms</title>
    <desc>Created with sketchtool.</desc>
    <g id="Icons" stroke="none" stroke-width="1" fill="none" fill-rule="evenodd">
        <g id="Icon/sms" fill="#00205B">
            <path d="M14.327,9.9175 L7.813,9.9175 C7.697,9.9175 7.588,9.9735 7.52,10.0675 L4.875,13.7665 L4.875,10.2775 C4.875,10.0785 4.714,9.9175 4.514,9.9175 L1.673,9.9175 L1.673,1.4725 L14.327,1.4725 L14.327,9.9175 Z M14.687,0.7525 L1.312,0.7525 C1.113,0.7525 0.952,0.9135 0.952,1.1125 L0.952,10.2775 C0.952,10.4765 1.113,10.6375 1.312,10.6375 L4.154,10.6375 L4.154,14.8875 C4.154,15.0435 4.256,15.1825 4.404,15.2305 C4.44,15.2425 4.477,15.2475 4.514,15.2475 C4.629,15.2475 4.738,15.1935 4.807,15.0975 L7.999,10.6375 L14.687,10.6375 C14.887,10.6375 15.048,10.4765 15.048,10.2775 L15.048,1.1125 C15.048,0.9135 14.887,0.7525 14.687,0.7525 L14.687,0.7525 Z M5.2157,6.6509 C5.5547,6.6509 5.8277,6.3769 5.8277,6.0389 C5.8277,5.7009 5.5547,5.4269 5.2157,5.4269 C4.8777,5.4269 4.6047,5.7009 4.6047,6.0389 C4.6047,6.3769 4.8777,6.6509 5.2157,6.6509 M7.9999,6.6509 C8.3379,6.6509 8.6119,6.3769 8.6119,6.0389 C8.6119,5.7009 8.3379,5.4269 7.9999,5.4269 C7.6619,5.4269 7.3879,5.7009 7.3879,6.0389 C7.3879,6.3769 7.6619,6.6509 7.9999,6.6509 M10.784,6.6509 C11.122,6.6509 11.395,6.3769 11.395,6.0389 C11.395,5.7009 11.122,5.4269 10.784,5.4269 C10.446,5.4269 10.172,5.7009 10.172,6.0389 C10.172,6.3769 10.446,6.6509 10.784,6.6509" id="Icon-Color"></path>
        </g>
    </g>
</svg>