<?xml version="1.0" encoding="UTF-8"?>
<svg width="16px" height="16px" viewBox="0 0 16 16" version="1.1" xmlns="http://www.w3.org/2000/svg" xmlns:xlink="http://www.w3.org/1999/xlink">
    
    <title>Icon/sort-down</title>
    <desc>Created with sketchtool.</desc>
    <g id="Icons" stroke="none" stroke-width="1" fill="none" fill-rule="evenodd">
        <g id="Icon/sort-down" fill="#00205B">
            <path d="M14.277833,8.5418 C14.407833,8.6928 14.388833,8.9198 14.237833,9.0498 L10.996833,11.8158 C10.928833,11.8728 10.845833,11.9018 10.762833,11.9018 C10.679833,11.9018 10.597833,11.8738 10.530833,11.8168 L7.26283304,9.0508 C7.11083304,8.9218 7.09183304,8.6948 7.22083304,8.5428 C7.34983304,8.3908 7.57783304,8.3738 7.72783304,8.5008 L10.389833,10.7538 L10.389833,5.9848 C10.389833,5.7868 10.550833,5.6248 10.750833,5.6248 C10.949833,5.6248 11.110833,5.7868 11.110833,5.9848 L11.110833,10.7718 L13.770833,8.5018 C13.921833,8.3748 14.148833,8.3908 14.277833,8.5418 Z M4.49563304,10.0985 C4.69463304,10.0985 4.85563304,10.2595 4.85563304,10.4585 C4.85563304,10.6575 4.69463304,10.8185 4.49563304,10.8185 L1.99563304,10.8185 C1.79663304,10.8185 1.63563304,10.6575 1.63563304,10.4585 C1.63563304,10.2595 1.79663304,10.0985 1.99563304,10.0985 L4.49563304,10.0985 Z M6.49563304,7.0985 C6.69463304,7.0985 6.85563304,7.2595 6.85563304,7.4585 C6.85563304,7.6575 6.69463304,7.8185 6.49563304,7.8185 L1.99563304,7.8185 C1.79663304,7.8185 1.63563304,7.6575 1.63563304,7.4585 C1.63563304,7.2595 1.79663304,7.0985 1.99563304,7.0985 L6.49563304,7.0985 Z M1.99563304,4.8182 C1.79663304,4.8182 1.63563304,4.6572 1.63563304,4.4582 C1.63563304,4.2592 1.79663304,4.0982 1.99563304,4.0982 L13.995633,4.0982 C14.194633,4.0982 14.355633,4.2592 14.355633,4.4582 C14.355633,4.6572 14.194633,4.8182 13.995633,4.8182 L1.99563304,4.8182 Z" id="Icon-Color"></path>
        </g>
    </g>
</svg>