<?xml version="1.0" encoding="UTF-8"?>
<svg width="16px" height="16px" viewBox="0 0 16 16" version="1.1" xmlns="http://www.w3.org/2000/svg" xmlns:xlink="http://www.w3.org/1999/xlink">
    
    <title>Icon/speed</title>
    <desc>Created with sketchtool.</desc>
    <g id="Icons" stroke="none" stroke-width="1" fill="none" fill-rule="evenodd">
        <g id="Icon/speed" fill="#00205B">
            <path d="M8.69162957,1.8363442 C12.4458155,1.8363442 15.5,5.01319974 15.5,8.9181721 C15.5,12.8231445 12.4458155,16 8.69162957,16 C6.87606412,16 5.1694326,15.2655882 3.88542437,13.9331554 C3.74421373,13.7862731 3.74320508,13.5470646 3.88441572,13.3991331 C4.02663502,13.2501525 4.25660664,13.2512016 4.39781729,13.3991331 C5.54565811,14.5888802 7.07073308,15.2435559 8.69162957,15.2435559 C12.0453824,15.2435559 14.7727652,12.4066281 14.7727652,8.9181721 C14.7727652,5.42971614 12.0453824,2.59278834 8.69162957,2.59278834 C7.7041637,2.59278834 6.72375835,2.84458666 5.85430423,3.32090516 C5.67879958,3.41952617 5.45790578,3.34713415 5.36410156,3.16353121 C5.27029735,2.9788791 5.33888538,2.75016229 5.51640733,2.65259044 C6.48773485,2.11961732 7.58615194,1.8363442 8.69162957,1.8363442 Z M1.62060734,9.5896343 L6.15952096,9.5896343 C6.36024181,9.5896343 6.52263405,9.75854901 6.52263405,9.96733179 C6.52263405,10.1500167 6.39830249,10.3021777 6.23275231,10.3373634 L6.15952096,10.3450293 L1.62060734,10.3450293 C1.41887785,10.3450293 1.2564856,10.1761146 1.2564856,9.96733179 C1.2564856,9.78464686 1.38081716,9.63248592 1.54704306,9.59730014 L1.62060734,9.5896343 L6.15952096,9.5896343 Z M8.68073618,4.07504115 C8.88145702,4.07504115 9.04384927,4.24395586 9.04384927,4.45273863 L9.04384927,4.45273863 L9.04384927,8.54026478 L13.2196498,8.54026478 C13.4203706,8.54026478 13.5827629,8.70917949 13.5827629,8.91796227 C13.5827629,9.12674505 13.4203706,9.29670892 13.2196498,9.29670892 L13.2196498,9.29670892 L8.68073618,9.29670892 C8.48001533,9.29670892 8.31762309,9.12674505 8.31762309,8.91796227 L8.31762309,8.91796227 L8.31762309,4.45273863 C8.31762309,4.24395586 8.48001533,4.07504115 8.68073618,4.07504115 Z M5.40303536,7.49131492 C5.6037562,7.49131492 5.76614845,7.66022963 5.76614845,7.86901241 C5.76614845,8.05169734 5.64181689,8.20385828 5.47626671,8.23904407 L5.40303536,8.2467099 L0.864121737,8.2467099 C0.662392243,8.2467099 0.5,8.07779519 0.5,7.86901241 C0.5,7.68632748 0.624331561,7.53416654 0.790557452,7.49898076 L0.864121737,7.49131492 L5.40303536,7.49131492 Z M6.41127937,5.39236605 C6.61200022,5.39236605 6.77439246,5.56128076 6.77439246,5.7711127 C6.77439246,5.95379763 6.6500609,6.10595857 6.48451072,6.14114435 L6.41127937,6.14881019 L1.36804201,6.14881019 C1.16732117,6.14881019 1.00492892,5.97989548 1.00492892,5.7711127 C1.00492892,5.58750975 1.12926048,5.43523406 1.29481066,5.40003393 L1.36804201,5.39236605 L6.41127937,5.39236605 Z M13.6986565,1.96266303 L14.3593206,2.64986263 L13.7500975,3.28355508 L13.0884248,2.59635548 L13.6986565,1.96266303 Z M9.67869199,0 L9.67869199,1.16456725 L7.70476889,1.16456725 L7.70476889,0 L9.67869199,0 Z" id="speed"></path>
        </g>
    </g>
</svg>