<?xml version="1.0" encoding="UTF-8"?>
<svg width="16px" height="16px" viewBox="0 0 16 16" version="1.1" xmlns="http://www.w3.org/2000/svg" xmlns:xlink="http://www.w3.org/1999/xlink">
    
    <title>Icon/star-half</title>
    <desc>Created with sketchtool.</desc>
    <g id="Icons" stroke="none" stroke-width="1" fill="none" fill-rule="evenodd">
        <g id="Icon/star-half">
            <path d="M15.9768342,6.20795881 C15.934172,6.07136901 15.8159359,5.97090979 15.6725762,5.94944618 L10.6155983,5.22561083 L8.338909,0.706810102 C8.27555957,0.580956281 8.14571654,0.500973519 8.00317603,0.5 C7.86132687,0.503283036 7.73259585,0.582580803 7.66744305,0.706810102 L5.40124545,5.23595133 L0.344267484,5.95978669 C0.194606891,5.9692904 0.0658495604,6.06753739 0.019026162,6.20795881 C-0.0261101923,6.34280348 0.0105166454,6.49121115 0.113451062,6.5905575 L3.79602216,10.1166697 L2.9357064,15.0801122 C2.91383798,15.2204601 2.97488271,15.3608458 3.09308123,15.4420299 C3.21440578,15.5193234 3.3704396,15.5193234 3.49176415,15.4420299 L8.01366768,13.0947352 L12.5460629,15.4420299 C12.6688068,15.514427 12.8220018,15.514427 12.9447458,15.4420299 C13.0570636,15.356859 13.1133654,15.2181323 13.091629,15.0801122 L12.2208216,10.1063292 L15.8824093,6.58021699 C15.9911212,6.48862033 16.0290221,6.33920089 15.9768342,6.20795881 Z" id="Background" fill="#F2F3F3"></path>
            <path d="M8.19815646,0.711733113 L8.19505792,0.705536046 C8.13205441,0.579529023 8.0039817,0.5 7.86248201,0.5 L7.86144916,0.5 C7.71994947,0.501032844 7.59084392,0.581594712 7.52887325,0.707601735 L5.30309345,5.22526338 L0.318586118,5.95238587 C0.178119273,5.97304276 0.0624406939,6.07116298 0.0180283824,6.20543276 C-0.0253510846,6.33970254 0.0107984713,6.4873993 0.113050072,6.58655237 L3.72180859,10.1002892 L2.87281045,15.0662053 C2.84802219,15.2056393 2.90586147,15.3461062 3.01947436,15.4297666 C3.08557641,15.4762446 3.1620069,15.5 3.23843739,15.5 C3.29834237,15.5 3.3572145,15.486573 3.41195526,15.4576534 L8.03909841,13.0201405 C8.16097405,12.9561041 8.23740454,12.8300971 8.23740454,12.6916959 L8.23740454,0.87802107 C8.23740454,0.820181781 8.22294472,0.763375336 8.19815646,0.711733113" id="Foreground" fill="#00205B"></path>
        </g>
    </g>
</svg>