<?xml version="1.0" encoding="utf-8"?>
<svg xmlns="http://www.w3.org/2000/svg"
xmlns:xlink="http://www.w3.org/1999/xlink">
  <symbol aria-labelledby="aarb-icon-a11y-desc aarb-icon-a11y-title"
  id="rb-icon-a11y" xmlns="http://www.w3.org/2000/svg"
  style="fill: var(--color, inherit);" viewBox="0 0 256 256">
    <desc id="aarb-icon-a11y-desc">A human figure with arms
    outstretched</desc>
    <title id="aarb-icon-a11y-title">Accessibility Logo</title>
    <path d="M98.592 154.67V79.94L42.75 75.053c-7.082-.62-12.321-6.863-11.701-13.948.62-7.083 6.869-12.323 13.945-11.704l60.756 5.316h45.496l60.755-5.316c7.082-.62 13.326 4.62 13.946 11.704.62 7.084-4.625 13.329-11.702 13.948l-55.573 4.862v74.898h-.02l24.305 84.76c1.96 6.834-1.991 13.963-8.827 15.923-6.835 1.96-13.963-1.983-15.925-8.826l-26.024-90.758a13.044 13.044 0 0 1-.265-1.099h-6.63c-.072.367-.16.733-.265 1.099L98.998 246.67c-1.96 6.834-9.088 10.787-15.925 8.826-6.835-1.96-10.79-9.08-8.827-15.924l24.346-84.904zm30.04-109.609c-12.443 0-22.53-10.087-22.53-22.53C106.102 10.087 116.189 0 128.632 0c12.444 0 22.531 10.087 22.531 22.53 0 12.444-10.087 22.531-22.53 22.531z"
    fill-rule="evenodd" />
  </symbol>
  <symbol aria-labelledby="abrb-icon-arrow-down-desc abrb-icon-arrow-down-title"
  id="rb-icon-arrow-down" xmlns="http://www.w3.org/2000/svg"
  style="fill: var(--color, inherit);" viewBox="0 0 256 256">
    <desc id="abrb-icon-arrow-down-desc">A downward arrow</desc>
    <title id="abrb-icon-arrow-down-title">Down Arrow</title>
    <path d="M230.584 137.15l-26.373-26.571-57.597 57.642V15.584h-37.228v152.637L51.789 110.58 25.416 137.15 128 239.584z"
    fill-rule="nonzero" />
  </symbol>
  <symbol aria-labelledby="acrb-icon-arrow-left-desc acrb-icon-arrow-left-title"
  id="rb-icon-arrow-left" xmlns="http://www.w3.org/2000/svg"
  style="fill: var(--color, inherit);" viewBox="0 0 256 256">
    <desc id="acrb-icon-arrow-left-desc">A leftward arrow</desc>
    <title id="acrb-icon-arrow-left-title">Left Arrow</title>
    <path d="M118.433 230.168l26.572-26.373-57.642-57.597H240V108.97H87.363l57.642-57.597L118.433 25 16 127.584z"
    fill-rule="nonzero" />
  </symbol>
  <symbol aria-labelledby="adrb-icon-arrow-right-desc adrb-icon-arrow-right-title"
  id="rb-icon-arrow-right" xmlns="http://www.w3.org/2000/svg"
  style="fill: var(--color, inherit);" viewBox="0 0 256 256">
    <desc id="adrb-icon-arrow-right-desc">A rightward arrow</desc>
    <title id="adrb-icon-arrow-right-title">Right Arrow</title>
    <path d="M137.567 25l-26.572 26.373 57.642 57.597H16v37.228h152.637l-57.642 57.597 26.572 26.373L240 127.584z"
    fill-rule="nonzero" />
  </symbol>
  <symbol aria-labelledby="aerb-icon-arrow-up-desc aerb-icon-arrow-up-title"
  id="rb-icon-arrow-up" xmlns="http://www.w3.org/2000/svg"
  style="fill: var(--color, inherit);" viewBox="0 0 256 256">
    <desc id="aerb-icon-arrow-up-desc">An upward arrow</desc>
    <title id="aerb-icon-arrow-up-title">Up Arrow</title>
    <path d="M25.416 118.017l26.373 26.572 57.597-57.642v152.637h37.228V86.947l57.597 57.642 26.373-26.572L128 15.584z"
    fill-rule="nonzero" />
  </symbol>
  <symbol aria-labelledby="afrb-icon-avatar-desc afrb-icon-avatar-title"
  id="rb-icon-avatar" xmlns="http://www.w3.org/2000/svg"
  style="fill: var(--color, inherit);" viewBox="0 0 256 256">
    <desc id="afrb-icon-avatar-desc">Silhouette representing a
    person</desc>
    <title id="afrb-icon-avatar-title">Avatar</title>
    <path d="M222.136 192.621c-18.434-4.142-34.175-9.113-47.223-14.912-13.049-5.8-15.43-16.466-7.146-32 12.634-23.82 20.142-44.79 22.524-62.913 2.382-18.123 1.191-33.346-3.573-45.67-4.763-12.323-12.427-21.592-22.99-27.806C153.165 3.107 141.256 0 128 0c-13.463 0-25.527 3.21-36.194 9.631-10.667 6.42-18.33 15.845-22.99 28.272-4.66 12.427-5.748 27.65-3.263 45.67 2.486 18.02 10.046 38.731 22.68 62.136 8.492 15.534 6.058 26.2-7.301 32-13.36 5.8-29.048 10.77-47.068 14.912-18.227 4.143-28.427 11.288-30.602 21.437C1.087 224.208 0 237.98 0 255.378h256c0-17.398-1.087-31.17-3.262-41.32-2.175-10.149-12.375-17.294-30.602-21.437z"
    fill-rule="nonzero" />
  </symbol>
  <symbol aria-labelledby="agrb-icon-basket-desc agrb-icon-basket-title"
  id="rb-icon-basket" xmlns="http://www.w3.org/2000/svg"
  style="fill: var(--color, inherit);" viewBox="0 0 256 256">
    <desc id="agrb-icon-basket-desc">A two-handled shopping
    basket</desc>
    <title id="agrb-icon-basket-title">Basket</title>
    <path d="M84.505 91.738l36.699-36.427c1.993-1.994 2.99-4.305 2.99-6.932 0-2.628-.997-4.848-2.99-6.66-1.812-1.813-4.032-2.719-6.66-2.719s-4.848.906-6.66 2.718l-50.02 50.02h26.64zm86.718 0h26.913l-50.02-50.02c-1.812-1.812-4.032-2.718-6.66-2.718s-4.848.906-6.66 2.718c-1.993 1.813-2.99 4.033-2.99 6.66 0 2.628.997 4.94 2.99 6.933l36.427 36.427zM16 105.33v21.748h5.98c2.538 0 4.848.634 6.933 1.903 2.084 1.268 3.67 3.08 4.757 5.436l40.777 82.913h107.378l40.505-82.913c1.087-2.356 2.673-4.168 4.757-5.436 2.085-1.269 4.395-1.903 6.932-1.903H240V105.33H16z"
    fill-rule="nonzero" />
  </symbol>
  <symbol aria-labelledby="ahrb-icon-book-desc ahrb-icon-book-title"
  id="rb-icon-book" xmlns="http://www.w3.org/2000/svg"
  style="fill: var(--color, inherit);" viewBox="0 0 256 256">
    <desc id="ahrb-icon-book-desc">A book laying open</desc>
    <title id="ahrb-icon-book-title">Book</title>
    <path d="M243.211 67.137v121.269l-7.733 1.243V42.603c-41.541 1.267-80.867 7.946-107.495 24.522C101.354 50.55 62.03 43.87 20.488 42.603v147.046l-7.733-1.243V67.137H.017v136.078h96.59c15.768 0 17.499 9.677 31.376 9.677 13.904 0 15.578-9.677 31.376-9.677h96.624V67.137h-12.772zM117.426 187.952c-20.755-8.235-45.914-13.533-76.445-15.828V64.928c25.074 2.104 55.074 7.2 76.445 20.495v102.53zm97.56-15.828c-30.533 2.294-55.692 7.593-76.446 15.828V85.424c21.371-13.296 51.371-18.392 76.445-20.495v107.195z"
    fill-rule="nonzero" />
  </symbol>
  <symbol aria-labelledby="airb-icon-bookmark-desc airb-icon-bookmark-title"
  id="rb-icon-bookmark" xmlns="http://www.w3.org/2000/svg"
  style="fill: var(--color, inherit);" viewBox="0 0 256 256">
    <desc id="airb-icon-bookmark-desc">A simple bookmark with a
    decorative notch</desc>
    <title id="airb-icon-bookmark-title">Bookmark</title>
    <path d="M183.456 240l-55.728-49.204L72 240V16h111.456z"
    fill-rule="nonzero" />
  </symbol>
  <symbol aria-labelledby="ajrb-icon-calendar-add-desc ajrb-icon-calendar-add-title"
  id="rb-icon-calendar-add" xmlns="http://www.w3.org/2000/svg"
  style="fill: var(--color, inherit);" viewBox="0 0 256 256">
    <desc id="ajrb-icon-calendar-add-desc">A calendar with a plus
    sign</desc>
    <title id="ajrb-icon-calendar-add-title">Add to
    Calendar</title>
    <path d="M174.667 44V25.333A9.33 9.33 0 0 1 184 16a9.33 9.33 0 0 1 9.333 9.333V44A9.33 9.33 0 0 1 184 53.333 9.33 9.33 0 0 1 174.667 44zm-112 9.333A9.33 9.33 0 0 0 72 44V25.333A9.33 9.33 0 0 0 62.667 16a9.33 9.33 0 0 0-9.334 9.333V44a9.33 9.33 0 0 0 9.334 9.333zm73.733 126c0 23.67 19.263 42.934 42.933 42.934 23.67 0 42.934-19.263 42.934-42.934 0-23.67-19.263-42.933-42.934-42.933-23.67 0-42.933 19.263-42.933 42.933zm103.6 0C240 212.84 212.84 240 179.333 240c-33.506 0-60.666-27.16-60.666-60.667 0-33.506 27.16-60.666 60.666-60.666 33.507 0 60.667 27.16 60.667 60.666zM107.121 212H34.667V72H212v35.121a79.567 79.567 0 0 1 18.667 11.835v-84.29h-28V44c0 12.283-11.928 21.83-24.808 17.677-7.756-2.501-12.526-10.369-12.526-18.517v-8.493h-84V44c0 12.283-11.928 21.83-24.808 17.677C48.77 59.176 44 51.308 44 43.16v-8.493H16v196h102.956A79.567 79.567 0 0 1 107.121 212zm100.212-25.199H186.8v20.534h-14.933v-20.534h-20.534v-14.934h20.534v-20.534H186.8v20.534h20.533v14.934z"
    fill-rule="nonzero" />
  </symbol>
  <symbol aria-labelledby="akrb-icon-cart-desc akrb-icon-cart-title"
  id="rb-icon-cart" xmlns="http://www.w3.org/2000/svg"
  style="fill: var(--color, inherit);" viewBox="0 0 256 256">
    <desc id="akrb-icon-cart-desc">A wheeled shopping cart</desc>
    <title id="akrb-icon-cart-title">Shopping Cart</title>
    <path d="M240 80.63H75.457L58.403 35H16l8.296 24.889 16.593.23 42.173 120.758c-4.763.768-8.757 3.072-11.984 6.913-3.226 3.841-4.84 8.296-4.84 13.366 0 5.685 1.998 10.563 5.992 14.634 3.995 4.071 8.834 6.107 14.519 6.107 5.838 0 10.754-2.036 14.749-6.107 3.994-4.071 5.992-8.95 5.992-14.634 0-1.075-.077-2.15-.23-3.226a17.124 17.124 0 0 0-.692-2.996h67.983c-.307.922-.537 1.92-.69 2.996a22.786 22.786 0 0 0-.231 3.226c0 5.685 1.997 10.563 5.991 14.634 3.995 4.071 8.834 6.107 14.519 6.107 5.838 0 10.754-2.036 14.749-6.107 3.994-4.071 5.992-8.95 5.992-14.634 0-3.072-.615-5.915-1.844-8.526-1.23-2.612-2.842-4.84-4.84-6.683l-5.991-17.284h-98.634l-4.609-15.671h118.453L240 80.63z"
    fill-rule="nonzero" />
  </symbol>
  <symbol aria-labelledby="alrb-icon-cart-add-desc alrb-icon-cart-add-title"
  id="rb-icon-cart-add" xmlns="http://www.w3.org/2000/svg"
  style="fill: var(--color, inherit);" viewBox="0 0 256 256">
    <desc id="alrb-icon-cart-add-desc">A wheeled shopping cart with
    a plus sign inside</desc>
    <title id="alrb-icon-cart-add-title">Add to Basket</title>
    <defs>
      <path d="M58.41 35l31.87 92.668h114.183l14.69-47.042H240l-22.587 72.372H98.953l4.641 15.674h98.627l5.998 17.287a21.358 21.358 0 0 1 4.848 6.667 19.765 19.765 0 0 1 1.849 8.525c0 5.704-2.006 10.571-5.999 14.652a19.863 19.863 0 0 1-14.75 6.096c-5.673 0-10.521-2.035-14.523-6.096-3.992-4.081-5.998-8.948-5.998-14.652 0-1.062.078-2.143.236-3.225.147-1.072.393-2.075.688-2.99h-67.997c.315.925.551 1.908.689 2.99.157 1.082.236 2.144.236 3.225 0 5.704-1.996 10.571-5.998 14.652a19.863 19.863 0 0 1-14.75 6.096c-5.684 0-10.522-2.035-14.504-6.096-4.012-4.081-5.998-8.948-5.998-14.652a20.158 20.158 0 0 1 4.847-13.353c3.226-3.845 7.218-6.136 11.977-6.923L40.888 60.124l-16.589-.246L16 35h42.41zm126.168 46.667h-28v28h-18.665v-28h-28V63h28V35h18.666v28h27.999v18.667z"
      id="ala" />
    </defs>
    <use fill-rule="nonzero" xlink:href="#ala" />
  </symbol>
  <symbol aria-labelledby="amrb-icon-chat-double-o-desc amrb-icon-chat-double-o-title"
  id="rb-icon-chat-double-o" xmlns="http://www.w3.org/2000/svg"
  style="fill: var(--color, inherit);" viewBox="0 0 256 256">
    <desc id="amrb-icon-chat-double-o-desc">Two outlined chat
    bubbles</desc>
    <title id="amrb-icon-chat-double-o-title">Open Double Chat
    Bubble</title>
    <path d="M228.31 202.039a49.278 49.278 0 0 0 8.7-15.088c1.993-5.527 2.99-11.281 2.99-17.262 0-9.605-2.492-18.304-7.476-26.097-4.984-7.793-11.462-14.226-19.437-19.3a94.53 94.53 0 0 0 2.583-10.875c.634-3.624.951-7.34.951-11.145 0-12.143-2.763-23.379-8.29-33.709-5.528-10.33-12.913-19.256-22.156-26.777-9.243-7.52-19.89-13.365-31.942-17.534C142.181 20.084 129.541 18 116.311 18c-13.23 0-25.916 2.084-38.059 6.252-12.142 4.169-22.834 10.013-32.077 17.534-9.243 7.521-16.583 16.447-22.02 26.777C18.718 78.893 16 90.13 16 102.272c0 8.699 1.495 17.171 4.485 25.417 2.99 8.246 7.204 15.631 12.641 22.156.181 7.793-1.54 16.673-5.165 26.64-3.624 9.968-7.43 19.03-11.417 27.185 10.874-1.994 22.925-4.984 36.155-8.971s23.379-8.155 30.447-12.505c4.168.906 8.246 1.677 12.233 2.31 3.987.635 7.883 1.134 11.689 1.496 2.356 6.887 6.207 13.23 11.553 19.03 5.347 5.799 11.826 10.556 19.437 14.271 7.612 3.715 16.175 6.071 25.69 7.068 9.514.997 19.799.136 30.854-2.583 4.712 2.9 11.553 5.71 20.524 8.428 8.971 2.718 17.172 4.712 24.602 5.98-2.718-5.437-5.3-11.553-7.747-18.35-2.447-6.795-3.67-12.73-3.67-17.805zM82.603 161.806c-9.424 5.437-17.67 9.378-24.738 11.825l-10.602 3.67 3.126-9.786c2.085-6.525 3.67-14.136 4.758-22.835-5.8-5.8-10.512-11.962-14.136-18.486-3.625-6.524-5.437-14.498-5.437-23.922 0-8.88 2.13-17.262 6.388-25.146 4.26-7.883 10.013-14.77 17.262-20.66 7.25-5.89 15.813-10.511 25.69-13.864 9.877-3.353 20.343-5.03 31.398-5.03s21.52 1.677 31.398 5.03c9.877 3.353 18.44 7.974 25.69 13.864 7.248 5.89 13.002 12.777 17.261 20.66 4.26 7.884 6.389 16.266 6.389 25.146 0 9.243-2.583 18.44-7.748 27.592-5.165 9.152-12.64 16.9-22.427 23.243-9.787 6.343-21.793 10.556-36.02 12.64-14.226 2.085-30.31.77-48.252-3.941zm134.02 56.272l-6.933-2.311c-4.621-1.54-9.922-4.032-15.903-7.476-17.76 4.712-32.62 4.44-44.582-.815-11.961-5.256-20.207-12.324-24.738-21.204 9.424-.544 18.35-2.13 26.777-4.757 8.427-2.628 16.13-6.026 23.107-10.195 6.977-4.168 13.184-9.016 18.62-14.543 5.438-5.528 10.06-11.463 13.865-17.806 5.256 3.806 9.424 8.382 12.505 13.728 3.08 5.346 4.621 11.1 4.621 17.262 0 5.98-1.178 11.055-3.534 15.223-2.356 4.169-5.346 8.156-8.97 11.962.724 5.618 1.766 10.51 3.126 14.68l2.038 6.252z"
    fill-rule="nonzero" />
  </symbol>
  <symbol aria-labelledby="anrb-icon-chat-help-desc anrb-icon-chat-help-title"
  id="rb-icon-chat-help" xmlns="http://www.w3.org/2000/svg"
  style="fill: var(--color, inherit);" viewBox="0 0 256 256">
    <desc id="anrb-icon-chat-help-desc">A question mark enclosed
    within a chat bubble</desc>
    <title id="anrb-icon-chat-help-title">Chat Help</title>
    <path d="M128 24c-14.86 0-29.042 2.356-42.544 7.068-13.501 4.712-25.372 11.236-35.611 19.573-10.24 8.336-18.44 18.259-24.602 29.767C19.08 91.916 16 104.557 16 118.33c0 9.605 1.676 18.984 5.03 28.136 3.352 9.152 8.019 17.443 14 24.874.362 8.518-1.496 18.395-5.574 29.63-4.077 11.237-8.382 21.295-12.912 30.176 5.98-1.088 12.505-2.492 19.573-4.214 7.068-1.722 14-3.625 20.796-5.709 6.796-2.084 13.184-4.304 19.165-6.66 5.98-2.356 10.964-4.802 14.951-7.34 21.567 5.437 41.456 6.48 59.67 3.127 18.214-3.353 33.935-9.47 47.165-18.35 13.23-8.88 23.56-19.845 30.99-32.893 7.43-13.049 11.146-26.64 11.146-40.777 0-13.773-3.08-26.414-9.243-37.922-6.162-11.508-14.407-21.476-24.738-29.903-10.33-8.427-22.245-14.952-35.747-19.573C156.77 26.311 142.68 24 128 24zm2.99 150.874c-3.262 0-6.07-1.178-8.427-3.534-2.356-2.356-3.534-5.165-3.534-8.427 0-3.263 1.178-6.072 3.534-8.428 2.356-2.356 5.165-3.534 8.427-3.534 3.444 0 6.343 1.178 8.7 3.534 2.355 2.356 3.533 5.165 3.533 8.428 0 3.262-1.178 6.07-3.534 8.427-2.356 2.356-5.255 3.534-8.699 3.534zm9.515-35.612v2.175H120.66v-2.175c0-3.08.453-6.479 1.36-10.194.906-3.715 3.17-7.295 6.796-10.738a218.118 218.118 0 0 1 10.601-9.922c3.625-3.172 5.437-6.842 5.437-11.01 0-4.712-1.45-8.336-4.35-10.874-2.899-2.537-6.433-3.806-10.601-3.806-6.887 0-11.055 2.538-12.505 7.612-1.45 5.075-2.265 8.427-2.447 10.058h-19.3c.18-7.43 2.491-15.268 6.932-23.514 4.44-8.246 13.546-12.37 27.32-12.37 12.142 0 20.977 3.308 26.505 9.923 5.527 6.615 8.291 13.728 8.291 21.34 0 11.961-4.032 20.252-12.097 24.874-8.065 4.621-12.097 10.828-12.097 18.621z"
    fill-rule="nonzero" />
  </symbol>
  <symbol aria-labelledby="aorb-icon-chat-single-desc aorb-icon-chat-single-title"
  id="rb-icon-chat-single" xmlns="http://www.w3.org/2000/svg"
  style="fill: var(--color, inherit);" viewBox="0 0 256 256">
    <desc id="aorb-icon-chat-single-desc">A chat bubble</desc>
    <title id="aorb-icon-chat-single-title">Chat</title>
    <path d="M128 29c-15.405 0-29.903 2.401-43.495 7.204-13.592 4.802-25.463 11.417-35.612 19.845-10.149 8.427-18.168 18.213-24.058 29.359C18.945 96.553 16 108.56 16 121.428c0 10.692 2.039 20.886 6.117 30.582 4.077 9.696 9.56 18.077 16.446 25.145L22.796 227.99l63.884-20.388c22.11 5.8 42.543 7.25 61.3 4.35 18.758-2.9 34.933-8.7 48.525-17.399 13.592-8.699 24.24-19.527 31.942-32.485C236.149 149.11 240 135.563 240 121.428c0-12.868-2.945-24.875-8.835-36.02-5.89-11.146-13.91-20.932-24.058-29.36-10.15-8.427-22.02-15.042-35.612-19.844C157.903 31.4 143.405 29 128 29z"
    fill-rule="nonzero" />
  </symbol>
  <symbol aria-labelledby="aprb-icon-check-desc aprb-icon-check-title"
  id="rb-icon-check" xmlns="http://www.w3.org/2000/svg"
  style="fill: var(--color, inherit);" viewBox="0 0 256 256">
    <desc id="aprb-icon-check-desc">A check mark</desc>
    <title id="aprb-icon-check-title">Check</title>
    <path d="M100 212.653l-84-80.621 26.05-26.787 57.455 54.824L213.465 44 240 70.292z"
    fill-rule="nonzero" />
  </symbol>
  <symbol aria-labelledby="aqrb-icon-check-circle-desc aqrb-icon-check-circle-title"
  id="rb-icon-check-circle" xmlns="http://www.w3.org/2000/svg"
  style="fill: var(--color, inherit);" viewBox="0 0 256 256">
    <desc id="aqrb-icon-check-circle-desc">A check mark within a
    circle</desc>
    <title id="aqrb-icon-check-circle-title">Circled Check</title>
    <path d="M128 16C66.148 16 16 66.148 16 128s50.148 112 112 112 112-50.148 112-112S189.852 16 128 16zm-11.667 154.168l-42-40.31 13.03-13.394 28.728 27.412 56.98-58.035 13.262 13.151-70 71.176z"
    fill-rule="nonzero" />
  </symbol>
  <symbol aria-labelledby="arrb-icon-chevron-down-desc arrb-icon-chevron-down-title"
  id="rb-icon-chevron-down" xmlns="http://www.w3.org/2000/svg"
  style="fill: var(--color, inherit);" viewBox="0 0 256 256">
    <desc id="arrb-icon-chevron-down-desc">A downward
    chevron</desc>
    <title id="arrb-icon-chevron-down-title">Down Chevron</title>
    <path d="M210.097 57L240 86.903 128 198.359 16 86.903 45.903 57 128 138.825z"
    fill-rule="nonzero" />
  </symbol>
  <symbol aria-labelledby="asrb-icon-chevron-left-desc asrb-icon-chevron-left-title"
  id="rb-icon-chevron-left" xmlns="http://www.w3.org/2000/svg"
  style="fill: var(--color, inherit);" viewBox="0 0 256 256">
    <desc id="asrb-icon-chevron-left-desc">A leftward
    chevron</desc>
    <title id="asrb-icon-chevron-left-title">Left Chevron</title>
    <path d="M198.36 210.097L168.455 240 57 128 168.456 16l29.903 29.903L116.534 128z"
    fill-rule="nonzero" />
  </symbol>
  <symbol aria-labelledby="atrb-icon-chevron-right-desc atrb-icon-chevron-right-title"
  id="rb-icon-chevron-right" xmlns="http://www.w3.org/2000/svg"
  style="fill: var(--color, inherit);" viewBox="0 0 256 256">
    <desc id="atrb-icon-chevron-right-desc">A rightward
    chevron</desc>
    <title id="atrb-icon-chevron-right-title">Right Chevron</title>
    <path d="M57 45.903L86.903 16l111.456 112L86.903 240 57 210.097 138.553 128z"
    fill-rule="nonzero" />
  </symbol>
  <symbol aria-labelledby="aurb-icon-chevron-up-desc aurb-icon-chevron-up-title"
  id="rb-icon-chevron-up" xmlns="http://www.w3.org/2000/svg"
  style="fill: var(--color, inherit);" viewBox="0 0 256 256">
    <desc id="aurb-icon-chevron-up-desc">An upward chevron</desc>
    <title id="aurb-icon-chevron-up-title">Up Chevron</title>
    <path d="M45.903 198.36L16 168.455 128 57l112 111.456-29.903 29.903L128 116.534z"
    fill-rule="nonzero" />
  </symbol>
  <symbol aria-labelledby="avrb-icon-circle-slash-desc avrb-icon-circle-slash-title"
  id="rb-icon-circle-slash" xmlns="http://www.w3.org/2000/svg"
  style="fill: var(--color, inherit);" viewBox="0 0 256 256">
    <desc id="avrb-icon-circle-slash-desc">A circle with a diagonal
    line through it</desc>
    <title id="avrb-icon-circle-slash-title">Circle Slash</title>
    <path d="M128 16c61.852 0 112 50.148 112 112s-50.148 112-112 112S16 189.852 16 128 66.148 16 128 16zM44 128c0 18.107 5.824 34.86 15.605 48.599L176.6 59.605C162.86 49.824 146.107 44 128 44c-46.312 0-84 37.688-84 84zm168 0c0-18.107-5.824-34.86-15.605-48.599L79.41 196.385C93.14 206.176 109.893 212 128 212c46.312 0 84-37.688 84-84z"
    fill-rule="nonzero" />
  </symbol>
  <symbol aria-labelledby="awrb-icon-close-desc awrb-icon-close-title"
  id="rb-icon-close" xmlns="http://www.w3.org/2000/svg"
  style="fill: var(--color, inherit);" viewBox="0 0 256 256">
    <desc id="awrb-icon-close-desc">An "x" character representing a
    close action</desc>
    <title id="awrb-icon-close-title">Close</title>
    <path d="M256 224.81l-97.963-97.013 96.982-97.856L224.81 0l-96.96 97.91L29.973.97 0 30.945l97.984 97.12L.971 226.027 30.944 256l97.195-98.048 97.92 97.067z"
    fill-rule="nonzero" />
  </symbol>
  <symbol aria-labelledby="axrb-icon-credit-card-desc axrb-icon-credit-card-title"
  id="rb-icon-credit-card" xmlns="http://www.w3.org/2000/svg"
  style="fill: var(--color, inherit);" viewBox="0 0 256 256">
    <desc id="axrb-icon-credit-card-desc">The back side of a credit
    card</desc>
    <title id="axrb-icon-credit-card-title">Credit Card</title>
    <path d="M232 32H24c-6.667 0-12.333 2.333-17 7S0 49.333 0 56v144c0 6.667 2.333 12.333 7 17s10.333 7 17 7h208c6.667 0 12.333-2.333 17-7s7-10.333 7-17V56c0-6.667-2.333-12.333-7-17s-10.333-7-17-7zM24 48h208c2.167 0 4.042.792 5.625 2.375C239.208 51.958 240 53.833 240 56v24H16V56c0-2.167.792-4.042 2.375-5.625C19.958 48.792 21.833 48 24 48zm208 160H24c-2.167 0-4.042-.792-5.625-2.375C16.792 204.042 16 202.167 16 200v-72h224v72c0 2.167-.792 4.042-2.375 5.625-1.583 1.583-3.458 2.375-5.625 2.375zM32 192h16v-32H32v32zm32 0h16v-32H64v32zm32 0h16v-32H96v32z"
    fill-rule="nonzero" />
  </symbol>
  <symbol aria-labelledby="ayrb-icon-cta-arrow-desc ayrb-icon-cta-arrow-title"
  id="rb-icon-cta-arrow" xmlns="http://www.w3.org/2000/svg"
  style="fill: var(--color, inherit);" viewBox="0 0 256 256">
    <desc id="ayrb-icon-cta-arrow-desc">A slim rightward chevron
    indicating a call-to-action</desc>
    <title id="ayrb-icon-cta-arrow-title">CTA Arrow</title>
    <path d="M176.515 128.105L109.827 224H79l54.672-95.895L79 32h30.827z"
    fill-rule="nonzero" />
  </symbol>
  <symbol aria-labelledby="azrb-icon-delete-desc azrb-icon-delete-title"
  id="rb-icon-delete" xmlns="http://www.w3.org/2000/svg"
  style="fill: var(--color, inherit);" viewBox="0 0 256 256">
    <desc id="azrb-icon-delete-desc">A trash can</desc>
    <title id="azrb-icon-delete-title">Delete</title>
    <path d="M44.333 72l28 168h112l28-168h-168zm177.334-37.333v18.666H35V34.667h53.303c8.4 0 15.222-10.258 15.222-18.667h49.616c0 8.41 6.814 18.667 15.223 18.667h53.303z"
    fill-rule="nonzero" />
  </symbol>
  <symbol aria-labelledby="barb-icon-dots-circle-o-desc barb-icon-dots-circle-o-title"
  id="rb-icon-dots-circle-o" xmlns="http://www.w3.org/2000/svg"
  style="fill: var(--color, inherit);" viewBox="0 0 256 256">
    <desc id="barb-icon-dots-circle-o-desc">Three dots within a
    circle</desc>
    <title id="barb-icon-dots-circle-o-title">Dots in
    Circle</title>
    <path d="M128 24.854c27.551 0 53.453 10.73 72.935 30.21 19.481 19.483 30.21 45.385 30.21 72.936 0 27.551-10.729 53.453-30.21 72.935-19.482 19.482-45.384 30.21-72.935 30.21-27.552 0-53.453-10.728-72.935-30.21-19.482-19.481-30.21-45.384-30.21-72.935 0-27.551 10.728-53.453 30.21-72.935 19.481-19.482 45.383-30.21 72.935-30.21zM128 0C57.307 0 0 57.307 0 128s57.307 128 128 128 128-57.307 128-128S198.693 0 128 0zM89.563 128c0 10.7-8.673 19.374-19.373 19.374-10.7 0-19.374-8.674-19.374-19.374s8.674-19.375 19.374-19.375S89.563 117.3 89.563 128zM128 108.625c-10.7 0-19.375 8.675-19.375 19.375S117.3 147.374 128 147.374 147.374 138.7 147.374 128 138.7 108.625 128 108.625zm57.81 0c-10.7 0-19.373 8.675-19.373 19.375s8.673 19.374 19.372 19.374c10.701 0 19.375-8.674 19.375-19.374s-8.674-19.375-19.375-19.375z"
    fill-rule="evenodd" />
  </symbol>
  <symbol aria-labelledby="bbrb-icon-edit-desc bbrb-icon-edit-title"
  id="rb-icon-edit" xmlns="http://www.w3.org/2000/svg"
  style="fill: var(--color, inherit);" viewBox="0 0 256 256">
    <desc id="bbrb-icon-edit-desc">A pencil</desc>
    <title id="bbrb-icon-edit-title">Edit</title>
    <path d="M82.602 227.68L16 239.913l13.32-65.515 53.282 53.282zM186.99 17L240 70.01 97.825 212.184l-53.01-53.01L186.99 17z"
    fill-rule="nonzero" />
  </symbol>
  <symbol aria-labelledby="bcrb-icon-envelope-desc bcrb-icon-envelope-title"
  id="rb-icon-envelope" xmlns="http://www.w3.org/2000/svg"
  style="fill: var(--color, inherit);" viewBox="0 0 256 256">
    <desc id="bcrb-icon-envelope-desc">An envelop</desc>
    <title id="bcrb-icon-envelope-title">Envelope</title>
    <path d="M128 137.427L16.544 45H240l-112 92.427zm112-62.524v135.922H16V74.631l112 92.97 112-92.698z"
    fill-rule="nonzero" />
  </symbol>
  <symbol aria-labelledby="bdrb-icon-error-desc bdrb-icon-error-title"
  id="rb-icon-error" xmlns="http://www.w3.org/2000/svg"
  style="fill: var(--color, inherit);" viewBox="0 0 256 256">
    <desc id="bdrb-icon-error-desc">An exclamation mark inside an
    octogon</desc>
    <title id="bdrb-icon-error-title">Error</title>
    <path d="M174.396 16H81.604L16 81.604v92.783L81.604 240h92.783L240 174.396V81.604L174.396 16zM128 195.667c-6.44 0-11.667-5.227-11.667-11.667 0-6.44 5.227-11.667 11.667-11.667 6.44 0 11.667 5.227 11.667 11.667 0 6.44-5.227 11.667-11.667 11.667zm5.133-44.315A5.163 5.163 0 0 1 128 156a5.163 5.163 0 0 1-5.133-4.648l-7.476-74.76c-.747-7.467 5.133-13.925 12.609-13.925s13.356 6.458 12.61 13.934l-7.477 74.751z"
    fill-rule="nonzero" />
  </symbol>
  <symbol aria-labelledby="berb-icon-filter-desc berb-icon-filter-title"
  id="rb-icon-filter" xmlns="http://www.w3.org/2000/svg"
  style="fill: var(--color, inherit);" viewBox="0 0 256 256">
    <desc id="berb-icon-filter-desc">A funnel</desc>
    <title id="berb-icon-filter-title">Filter</title>
    <path d="M26 16h204.427l-83.184 140.816V240l-38.602-28.272v-54.912z"
    fill-rule="nonzero" />
  </symbol>
  <symbol aria-labelledby="bfrb-icon-graph-line-desc bfrb-icon-graph-line-title"
  id="rb-icon-graph-line" xmlns="http://www.w3.org/2000/svg"
  style="fill: var(--color, inherit);" viewBox="0 0 256 256">
    <desc id="bfrb-icon-graph-line-desc">An ascending &amp;
    descending line graph</desc>
    <title id="bfrb-icon-graph-line-title">Line Graph</title>
    <path d="M256 241.647H0V106.56l40.747 41.431 54.677-59.66 79.528 78.098L256 118.248v123.399H256zM40.271 114.707l54.447-59.41 83.05 81.555L256 90.343V57.2l-73.115 41.83L93.975 15 40.747 73.003.001 33.228v40.534l40.27 40.946z"
    fill-rule="evenodd" />
  </symbol>
  <symbol aria-labelledby="bgrb-icon-grid-desc bgrb-icon-grid-title"
  id="rb-icon-grid" xmlns="http://www.w3.org/2000/svg"
  style="fill: var(--color, inherit);" viewBox="0 0 256 256">
    <desc id="bgrb-icon-grid-desc">A grid of 9 squares</desc>
    <title id="bgrb-icon-grid-title">Grid</title>
    <path d="M16 16h64v64H16V16zm0 80h64v64H16V96zm0 80h64v64H16v-64zM96 16h64v64H96V16zm0 80h64v64H96V96zm0 80h64v64H96v-64zm80-160h64v64h-64V16zm0 80h64v64h-64V96zm0 80h64v64h-64v-64z"
    fill-rule="evenodd" />
  </symbol>
  <symbol aria-labelledby="bhrb-icon-heart-desc bhrb-icon-heart-title"
  id="rb-icon-heart" xmlns="http://www.w3.org/2000/svg"
  style="fill: var(--color, inherit);" viewBox="0 0 256 256">
    <desc id="bhrb-icon-heart-desc">A heart</desc>
    <title id="bhrb-icon-heart-title">Heart</title>
    <path d="M128 55.316C98.619 4.898 16 19.616 16 82.794c0 43.502 51.996 87.985 112 147.54 60.013-59.555 112-104.038 112-147.54 0-63.392-82.833-77.523-112-27.478z"
    fill-rule="nonzero" />
  </symbol>
  <symbol aria-labelledby="birb-icon-heart-o-desc birb-icon-heart-o-title"
  id="rb-icon-heart-o" xmlns="http://www.w3.org/2000/svg"
  style="fill: var(--color, inherit);" viewBox="0 0 256 256">
    <desc id="birb-icon-heart-o-desc">The outline of a heart</desc>
    <title id="birb-icon-heart-o-title">Open Heart</title>
    <path d="M74.613 43.667c30.203.009 46.415 32.582 53.387 46.956 7-14.439 23.044-46.863 53.443-46.863 19.208 0 39.89 12.217 39.89 39.032 0 32.125-44.277 73.276-93.333 121.333-49.075-48.076-93.333-89.217-93.333-121.333 0-24.976 18.34-39.135 39.946-39.125zM74.623 25C44.915 25 16 45.412 16 82.792c0 43.503 51.987 87.985 112 147.541 60.013-59.556 112-104.038 112-147.541 0-37.436-28.905-57.699-58.557-57.699-20.571 0-41.496 9.726-53.443 30.222C116.007 34.725 95.128 25 74.623 25z"
    fill-rule="nonzero" />
  </symbol>
  <symbol aria-labelledby="bjrb-icon-history-desc bjrb-icon-history-title"
  id="rb-icon-history" xmlns="http://www.w3.org/2000/svg"
  style="fill: var(--color, inherit);" viewBox="0 0 256 256">
    <desc id="bjrb-icon-history-desc">A counterclockwise circular
    arrow with clock arms inside</desc>
    <title id="bjrb-icon-history-title">History</title>
    <path d="M135.322 72.95v54.779h49.085v21.966h-71.051V72.949h21.966zM128.272 16c15.366 0 29.83 2.938 43.389 8.814 13.56 5.875 25.401 13.875 35.525 24 10.125 10.124 18.125 21.966 24 35.525 5.876 13.56 8.814 28.023 8.814 43.39s-2.938 29.83-8.814 43.39c-5.875 13.559-13.875 25.4-24 35.525-10.124 10.124-21.966 18.124-35.525 24-13.56 5.876-28.023 8.814-43.39 8.814-15.006 0-29.152-2.757-42.44-8.272-13.289-5.514-24.95-13.107-34.984-22.78-10.033-9.672-18.079-20.97-24.135-33.898-6.057-12.926-9.446-26.892-10.17-41.898l24.407-4.339c0 11.932 2.305 23.187 6.915 33.763 4.61 10.576 10.848 19.796 18.712 27.66 7.865 7.865 17.085 14.057 27.661 18.577 10.577 4.52 21.921 6.78 34.034 6.78s23.458-2.305 34.034-6.915c10.576-4.61 19.797-10.848 27.661-18.712 7.865-7.865 14.102-17.085 18.712-27.661 4.61-10.577 6.915-21.921 6.915-34.034s-2.305-23.458-6.915-34.034c-4.61-10.576-10.847-19.797-18.712-27.661-7.864-7.865-17.085-14.102-27.66-18.712-10.577-4.61-21.922-6.915-34.035-6.915-11.932 0-23.503 2.214-34.712 6.644-11.209 4.43-20.7 10.53-28.474 18.305L84.61 84.61 16 97.085l12.475-68.34L47.729 48c5.062-4.881 10.666-9.31 16.813-13.288a117.638 117.638 0 0 1 19.526-10.17c6.87-2.802 14.056-4.926 21.56-6.373A119.362 119.362 0 0 1 128.27 16z"
    fill-rule="nonzero" />
  </symbol>
  <symbol aria-labelledby="bkrb-icon-home-desc bkrb-icon-home-title"
  id="rb-icon-home" xmlns="http://www.w3.org/2000/svg"
  style="fill: var(--color, inherit);" viewBox="0 0 256 256">
    <desc id="bkrb-icon-home-desc">A house</desc>
    <title id="bkrb-icon-home-title">Home</title>
    <path d="M216.893 139v90.252h-64.699V180.05h-48.388v49.203h-64.7V139H16L128 27l112 112h-23.107zM203.03 84.087L176.932 57.99V37.058h26.097v47.03z"
    fill-rule="nonzero" />
  </symbol>
  <symbol aria-labelledby="blrb-icon-horizon-desc blrb-icon-horizon-title"
  id="rb-icon-horizon" xmlns="http://www.w3.org/2000/svg"
  style="fill: var(--color, inherit);" viewBox="0 0 256 256">
    <desc id="blrb-icon-horizon-desc">A rising sun stylistically
    separated into horizontal pieces</desc>
    <title id="blrb-icon-horizon-title">Horizon Logo</title>
    <path d="M21.945 156.27h212.091a88.376 88.376 0 0 1 4.691 28.439H17.254a88.37 88.37 0 0 1 4.69-28.44zM35.9 130.017H220.08a95.113 95.113 0 0 1 10.473 17.5H25.43a95.085 95.085 0 0 1 10.473-17.5zm16.802-17.501h150.575a105.266 105.266 0 0 1 9.39 8.75H43.313a105.266 105.266 0 0 1 9.39-8.75zM72.708 99.39h110.565a113.007 113.007 0 0 1 11.17 6.563H61.537c3.595-2.4 7.325-4.591 11.171-6.563zm22.536-8.75h65.494c4.4 1.208 8.727 2.668 12.96 4.374H82.283a118.788 118.788 0 0 1 12.962-4.374zm143.483 94.068H17.254h221.473zm-87.412-96.256h-46.65a124.525 124.525 0 0 1 23.325-2.187c8.002 0 15.805.753 23.325 2.187zM34.441 107.148c40.265-38.722 93.381-36.075 93.381-36.075s51.663-3.38 93.564 35.9c37.495 35.697 34.56 77.736 34.56 77.736h-9.868s2.36-39.954-32.553-72.438c-37.284-35.008-85.703-32.505-85.703-32.505s-49.009-2.02-85.36 32.504C7.505 144.548 9.88 184.709 9.88 184.709H.04s-2.614-43.082 34.401-77.56z"
    fill-rule="evenodd" />
  </symbol>
  <symbol aria-labelledby="bmrb-icon-info-desc bmrb-icon-info-title"
  id="rb-icon-info" xmlns="http://www.w3.org/2000/svg"
  style="fill: var(--color, inherit);" viewBox="0 0 256 256">
    <desc id="bmrb-icon-info-desc">A circle with an "i"
    inside</desc>
    <title id="bmrb-icon-info-title">Info</title>
    <path d="M128 240c61.852 0 112-50.148 112-112S189.852 16 128 16 16 66.148 16 128s50.148 112 112 112zm9.333-56h-18.666v-74.667h18.666V184zM128 69.667c6.44 0 11.667 5.226 11.667 11.666S134.44 93 128 93c-6.44 0-11.667-5.227-11.667-11.667 0-6.44 5.227-11.666 11.667-11.666z"
    fill-rule="nonzero" />
  </symbol>
  <symbol aria-labelledby="bnrb-icon-lines-desc bnrb-icon-lines-title"
  id="rb-icon-lines" xmlns="http://www.w3.org/2000/svg"
  style="fill: var(--color, inherit);" viewBox="0 0 256 256">
    <desc id="bnrb-icon-lines-desc">Four lines stacked on top of
    each other</desc>
    <title id="bnrb-icon-lines-title">Lines</title>
    <path d="M16 32h224v32H16V32zm0 53h224v32H16V85zm0 54h224v32H16v-32zm0 53h224v32H16v-32z"
    fill-rule="evenodd" />
  </symbol>
  <symbol aria-labelledby="borb-icon-lock-check-desc borb-icon-lock-check-title"
  id="rb-icon-lock-check" xmlns="http://www.w3.org/2000/svg"
  style="fill: var(--color, inherit);" viewBox="0 0 256 256">
    <desc id="borb-icon-lock-check-desc">A lock with a
    checkmark</desc>
    <title id="borb-icon-lock-check-title">Lock With Check</title>
    <path d="M192 109.333V72c0-30.921-28.661-56-64-56S64 41.079 64 72v37.333H32V240h192V109.333h-32zM85.333 72c0-20.59 19.136-37.333 42.667-37.333 23.52 0 42.667 16.744 42.667 37.333v37.333H85.333V72zm36.352 130.667l-30.314-25.723 12.501-10.948 17.813 14.775 38.016-34.104 12.523 10.948-50.539 45.052z"
    fill-rule="nonzero" />
  </symbol>
  <symbol aria-labelledby="bprb-icon-menu-desc bprb-icon-menu-title"
  id="rb-icon-menu" xmlns="http://www.w3.org/2000/svg"
  style="fill: var(--color, inherit);" viewBox="0 0 256 256">
    <desc id="bprb-icon-menu-desc">Three parallel horizontal
    lines</desc>
    <title id="bprb-icon-menu-title">Menu</title>
    <path d="M240 42H16v35.34h224V42zm0 67.961H16v35.34h224v-35.34zm0 67.961H16v35.34h224v-35.34z"
    fill-rule="nonzero" />
  </symbol>
  <symbol aria-labelledby="bqrb-icon-minus-desc bqrb-icon-minus-title"
  id="rb-icon-minus" xmlns="http://www.w3.org/2000/svg"
  style="fill: var(--color, inherit);" viewBox="0 0 256 256">
    <desc id="bqrb-icon-minus-desc">A minus sign</desc>
    <title id="bqrb-icon-minus-title">Minus</title>
    <path d="M16 109h224v37.333H16z" fill-rule="nonzero" />
  </symbol>
  <symbol aria-labelledby="brrb-icon-p1apron-desc brrb-icon-p1apron-title"
  id="rb-icon-p1apron" xmlns="http://www.w3.org/2000/svg"
  style="fill: var(--color, inherit);" viewBox="0 0 256 256">
    <desc id="brrb-icon-p1apron-desc">An apron with "P1" on the
    front</desc>
    <title id="brrb-icon-p1apron-title">Pier 1 Apron</title>
    <path d="M177.483 127.27c-2.826-9.846-4.795-18.964-5.908-27.354-1.113-8.39-1.627-15.326-1.541-20.805l.128-8.22h-2.825c-1.199-25.514-4.238-41.396-9.118-47.646l-7.32-9.375C139.425 0 128.937-3.468 119.433 3.468L105.179 13.87c-4.281 4.795-7.492 10.445-9.632 16.952-2.14 6.507-3.682 12.715-4.624 18.622-.941 5.908-1.498 10.916-1.67 15.026l-.256 6.165-2.055.513c0 15.925-1.027 29.239-3.082 39.94-2.055 10.703-4.367 19.308-6.935 25.815-2.569 6.506-4.923 11.173-7.064 13.998l-3.21 4.238L61 228.085l4.11 9.632c2.74 6.422 8.561 10.745 17.466 12.971 13.185 3.254 26.455 5.009 39.812 5.266 13.356.257 26.541-.557 39.555-2.44 12.843-1.713 21.704-5.266 26.584-10.66 4.88-5.394 7.32-11.087 7.32-17.08 0-2.911-.299-8.22-.898-15.925-.6-7.706-1.242-15.625-1.927-23.76a1893.91 1893.91 0 0 0-1.926-21.575l-.9-9.375c-5.65-8.733-9.888-18.022-12.713-27.868zm-69.479 60.49v39.298h-13.1V147.69h13.1v40.07zm19.007-7.45c0 3.94-.685 6.936-2.055 8.99-1.37 2.055-2.996 3.596-4.88 4.624l-1.413.642c-.941.428-2.097.728-3.467.899h-5.651v-7.449c1.541.171 2.654.129 3.34-.128.684-.257 1.198-.642 1.54-1.156.343-.343.514-.77.514-1.284V157.45c0-.514-.171-.942-.514-1.285-.342-.513-.856-.898-1.54-1.155-.686-.257-1.799-.3-3.34-.129v-7.192l.257-.128.257-.129h2.825c1.028 0 1.798.086 2.312.257 1.37.172 2.526.428 3.467.77l1.413.515c1.884 1.027 3.51 2.568 4.88 4.623s2.055 5.051 2.055 8.99v17.723zM98.501 70.892l-.129-6.678c-.086-4.452.086-9.717.514-15.796.428-6.08 1.241-12.33 2.44-18.75 1.199-6.422 3.082-11.687 5.65-15.797 3.94-3.938 10.874-6.079 20.806-6.421 9.931-.343 17.38 1.883 22.346 6.678 2.568 3.938 4.452 9.075 5.65 15.411a160.73 160.73 0 0 1 2.44 18.75c.429 6.165.6 11.473.514 15.925l-.128 6.678H98.5zM162.2 227.058h-13.613V171.32h-7.449v-10.017c3.254-.514 5.522-2.055 6.807-4.624 1.284-2.568 1.926-5.565 1.926-8.99H162.2v79.368z"
    fill-rule="nonzero" />
  </symbol>
  <symbol aria-labelledby="bsrb-icon-p1logo-desc bsrb-icon-p1logo-title"
  id="rb-icon-p1logo" xmlns="http://www.w3.org/2000/svg"
  style="fill: var(--color, inherit);" viewBox="0 0 1083 256">
    <desc id="bsrb-icon-p1logo-desc">The Pier 1 Imports logo</desc>
    <title id="bsrb-icon-p1logo-title">Pier 1 Logo</title>
    <path d="M503.25 216h32V37.5h-32V216zm50-179.5c-2.5.167-5 .667-7.5 1.5s-4.417 2-5.75 3.5v13.75c6-1.667 9.375-.708 10.125 2.875s1.125 6.542 1.125 8.875v149H583V69.75c0-12.667-2.667-21.5-8-26.5S562.417 36 553.25 36.5zm46.75-.25c-.833 0-1.75.042-2.75.125-1 .083-1.917.125-2.75.125-.167 0-.25.042-.25.125 0 .083-.083.125-.25.125a29.058 29.058 0 0 0-6.875 1.875c-2.25.917-4.458 2.292-6.625 4.125 1 1.5 1.958 3.083 2.875 4.75a23.911 23.911 0 0 1 2.125 5.25l.5 1.5c.167.5.25 1 .25 1.5a4.462 4.462 0 0 1 1.125-.375 7.024 7.024 0 0 1 1.375-.125H591c4.333.5 6.75 2.583 7.25 6.25L599 67v149h32V69.75c0-12.167-2.667-20.792-8-25.875-5.333-5.083-13-7.625-23-7.625zM648.75 256h32V37.5h-32V256zm50-219.5c-2.5.167-5 .667-7.5 1.5s-4.417 2-5.75 3.5v13.75c6-1.667 9.375-.708 10.125 2.875s1.125 6.542 1.125 8.875v119.75c0 2.167-.375 5.042-1.125 8.625s-4.125 4.542-10.125 2.875V212c1.333 1.5 3.25 2.708 5.75 3.625 2.5.917 5 1.375 7.5 1.375 9.167.5 16.458-1.75 21.875-6.75 5.417-5 8.125-13.833 8.125-26.5v-114c0-12.667-2.708-21.5-8.125-26.5S707.917 36 698.75 36.5zM840.25 216h32V37.5h-32V216zm50-179.5a28.788 28.788 0 0 0-7.625 1.5c-2.417.833-4.292 2-5.625 3.5v13.75c5.167-1.167 8-.375 8.5 2.375s.75 5.875.75 9.375v20.75h29.25v-18c0-12.833-1.958-21.708-5.875-26.625C905.708 38.208 899.25 36 890.25 36.5zM808 41.25l-3.125-1.375c-2.083-.917-4.708-1.542-7.875-1.875-1.333-.167-2.917-.292-4.75-.375-1.833-.083-3.75-.125-5.75-.125H781v19.25c.167 0 .292-.042.375-.125.083-.083.208-.125.375-.125l1.375-.125c.917-.083 2.042-.042 3.375.125 3 .5 4.667 1.833 5 4l.5 3.25v126l-.5 3.375c-.333 2.25-2 3.542-5 3.875-1.333.167-2.458.208-3.375.125L781.75 197h-.375c-.083 0-.208-.083-.375-.25V216h5.5c2 0 3.917-.042 5.75-.125 1.833-.083 3.417-.208 4.75-.375 3.167-.333 5.792-.958 7.875-1.875L808 212.25c4.333-2.5 8.083-6.125 11.25-10.875S824 189.75 824 180.75v-108c0-9-1.583-15.875-4.75-20.625S812.333 43.75 808 41.25zm-47.5 0c-4.333 2.5-8.125 6.125-11.375 10.875S744.25 63.75 744.25 72.75v108c0 9 1.625 15.875 4.875 20.625s7.042 8.375 11.375 10.875l3 1.375c2 .917 4.583 1.542 7.75 1.875.833.167 1.667.292 2.5.375a25.11 25.11 0 0 0 2.5.125V37.5c-.833.167-1.667.25-2.5.25s-1.667.083-2.5.25c-3.167.333-5.75.958-7.75 1.875l-3 1.375zM956.5 58h11V37.5h-11V7.75h-32v176c0 12.167 2.667 20.792 8 25.875 5.333 5.083 12.583 7.625 21.75 7.625 2.167 0 4.5-.167 7-.5 2.5-.333 4.583-1.083 6.25-2.25v-16.25c-6 .833-9.333-.875-10-5.125l-1-6.375V58zm79-16.75l-3.125-1.375c-2.083-.917-4.708-1.542-7.875-1.875-1.333-.167-2.917-.292-4.75-.375-1.833-.083-3.75-.125-5.75-.125h-5.5v19.25c.167 0 .333-.042.5-.125l.25-.125c1.5-.167 2.667-.208 3.5-.125l1.25.125c3.167.5 4.917 1.833 5.25 4l.5 3.25v24h32v-15c0-9-1.625-15.875-4.875-20.625s-7.042-8.375-11.375-10.875zM1009.25 197c-3-.333-4.667-1.625-5-3.875l-.5-3.375v-33h-32v24c0 9 1.625 15.875 4.875 20.625s7.042 8.375 11.375 10.875l3.125 1.375c2.083.917 4.708 1.542 7.875 1.875 1.333.167 2.917.292 4.75.375 1.833.083 3.667.125 5.5.125h5.75v-19.25c-.167.167-.333.25-.5.25h-.5c-1.333.167-2.458.208-3.375.125l-1.375-.125zm42.5-40c0-2.5-.417-6.083-1.25-10.75s-3.333-9.25-7.5-13.75c-1.833-2-3.625-3.833-5.375-5.5-1.75-1.667-4.375-4-7.875-7l-16.25-14-.625-.5c-.417-.333-.958-.75-1.625-1.25-.333-.5-1.042-1.292-2.125-2.375s-1.958-2.208-2.625-3.375c-.667-1.333-1.292-3-1.875-5s-.875-4.25-.875-6.75V37.5c-.833.167-1.667.25-2.5.25s-1.583.083-2.25.25c-3.167.333-5.792.958-7.875 1.875L988 41.25c-4.333 2.5-8.125 6.125-11.375 10.875S971.75 63.75 971.75 72.75v20c0 2.5.417 6.083 1.25 10.75s3.333 9.25 7.5 13.75a106.07 106.07 0 0 0 5.25 5.375c1.833 1.75 4.5 4.042 8 6.875l16.25 14 .625.5c.417.333.958.833 1.625 1.5l2.125 2.125c1.083 1.083 1.958 2.208 2.625 3.375.667 1.5 1.292 3.208 1.875 5.125.583 1.917.875 4.208.875 6.875v53c.833-.167 1.667-.25 2.5-.25s1.583-.083 2.25-.25c3.167-.333 5.792-.958 7.875-1.875l3.125-1.375c4.333-2.5 8.125-6.125 11.375-10.875s4.875-11.625 4.875-20.625V157zM1056 51.25c0 3.667 1.333 6.833 4 9.5s5.917 4 9.75 4c3.667 0 6.833-1.333 9.5-4s4-5.917 4-9.75c0-3.667-1.292-6.833-3.875-9.5s-5.792-4-9.625-4-7.083 1.333-9.75 4-4 5.833-4 9.5v.25zm25.75-.25c0 3.333-1.167 6.208-3.5 8.625s-5.167 3.625-8.5 3.625c-3.5 0-6.375-1.167-8.625-3.5s-3.375-5.167-3.375-8.5V51c0-3.167 1.125-5.958 3.375-8.375S1066.25 39 1069.75 39c3.333 0 6.167 1.167 8.5 3.5s3.5 5.167 3.5 8.5zm-17.25-7v13.75h2.25v-5h3.25l3.5 5h2.75l-3.75-5.5c.833-.167 1.583-.583 2.25-1.25s1-1.583 1-2.75c0-1.333-.5-2.375-1.5-3.125s-2.167-1.125-3.5-1.125h-6.25zm2.25 6.75V46h3.75c.833 0 1.542.208 2.125.625.583.417.875.958.875 1.625 0 .833-.25 1.458-.75 1.875-.5.417-1.25.625-2.25.625h-3.75zM357.75 0c0 9.667-1.75 18-5.25 25s-10 11.167-19.5 12.5v27.25h22V216h36.75V0h-34zM97.25 216h32V37.5h-32V216zm0-184.75h32V7.75h-32v23.5zm356 184.75h32V37.5h-32V216zm0-184.75h32V7.75h-32v23.5zm-261.5 158.5l-.5 3.375c-.333 2.25-2 3.542-5 3.875-1.5.167-2.667.208-3.5.125L181.5 197h-.5c-.167 0-.25-.083-.25-.25V216h5.5c1.833 0 3.667-.042 5.5-.125 1.833-.083 3.5-.208 5-.375 3.167-.333 5.75-.958 7.75-1.875l3-1.375c4.333-2.5 8.125-6.125 11.375-10.875s4.875-11.625 4.875-20.625v-24h-32v33zM160 41.25c-4.333 2.5-8.083 6.125-11.25 10.875S144 63.75 144 72.75v108c0 9 1.583 15.875 4.75 20.625s6.917 8.375 11.25 10.875l3.125 1.375c2.083.917 4.708 1.542 7.875 1.875.667.167 1.417.292 2.25.375.833.083 1.75.125 2.75.125V37.5c-1 .167-1.917.25-2.75.25s-1.583.083-2.25.25c-3.167.333-5.792.958-7.875 1.875L160 41.25zm47.5 0l-3-1.375c-2-.917-4.583-1.542-7.75-1.875a77.408 77.408 0 0 0-5-.375 121.109 121.109 0 0 0-5.5-.125h-5.5v19.25l.25-.125a1.11 1.11 0 0 1 .5-.125l1.25-.125c.833-.083 2-.042 3.5.125 3 .5 4.667 1.833 5 4l.5 3.25v39c0 .833-.333 2.042-1 3.625-.667 1.583-2.167 2.542-4.5 2.875h-5.75V130h43.25V72.75c0-9-1.625-15.875-4.875-20.625S211.833 43.75 207.5 41.25zM237.75 216h32V37.5h-32V216zm50-179.5c-2.5.167-5 .667-7.5 1.5s-4.417 2-5.75 3.5v13.75c5.167-1.167 8-.375 8.5 2.375s.75 5.875.75 9.375v20.75H313v-18c0-12.833-1.917-21.708-5.75-26.625-3.833-4.917-10.333-7.125-19.5-6.625zm-219.5-32l-3.625-1.625C62.208 1.792 59.167 1 55.5.5 54 .333 51.792.208 48.875.125A265.217 265.217 0 0 0 41.5 0h-1.75v20.25c4-.5 7-.333 9 .5S52.167 22.5 53 23.5c.833 1.167 1.292 2.375 1.375 3.625L54.5 29v72l-.125 1.875c-.083 1.25-.542 2.458-1.375 3.625-.833 1.167-2.25 2.125-4.25 2.875s-5 .875-9 .375V130h1.75c2 0 4.458-.042 7.375-.125 2.917-.083 5.125-.208 6.625-.375 3.667-.5 6.708-1.292 9.125-2.375l3.625-1.625c5-2.833 9.417-7.042 13.25-12.625s5.75-13.625 5.75-24.125v-47.5c0-10.5-1.917-18.542-5.75-24.125-3.833-5.583-8.25-9.792-13.25-12.625zM0 216h35V0H0v216z"
    fill-rule="nonzero" />
  </symbol>
  <symbol aria-labelledby="btrb-icon-p1logo-alt-1-desc btrb-icon-p1logo-alt-1-title"
  id="rb-icon-p1logo-alt-1" xmlns="http://www.w3.org/2000/svg"
  style="fill: var(--color, inherit);" viewBox="0 0 574 256">
    <desc id="btrb-icon-p1logo-alt-1-desc">An alternate Pier 1
    Imports logo</desc>
    <title id="btrb-icon-p1logo-alt-1-title">Pier 1 Logo
    (alternate)</title>
    <g fill-rule="nonzero">
      <path d="M428.354 49.288V80.74h25.281v174.782h37.624V5.89H456.82c0 22.295-6.569 40.212-28.466 43.397zM125.572 255.522h37.026V49.089h-37.026v95.95zM125.572 41.723h37.026V5.891h-37.026v22.295zM244.415 225.263s.597 7.565-6.37 8.361c-3.384.398-5.574 0-5.574 0-.398 0-.597-.199-.995-.199v22.097h6.569c4.38 0 8.76-.2 12.143-.597 7.366-.797 12.74-3.783 12.74-3.783 9.954-5.574 18.713-15.527 18.713-36.43v-27.869h-37.027v38.42h-.199zM207.787 53.468c-9.954 5.574-18.713 15.527-18.713 36.43v124.815c0 20.902 8.76 30.855 18.713 36.43 0 0 5.375 2.985 12.74 3.782 1.593.199 3.583.398 5.574.398V49.487c-1.99 0-3.981.199-5.574.398-7.365.796-12.74 3.583-12.74 3.583zm55.142 0s-5.375-2.986-12.74-3.782c-3.186-.398-7.764-.597-12.144-.597h-6.569v22.096c.199 0 .597-.199.995-.199 0 0 2.19-.398 5.574 0 6.967.995 6.37 8.36 6.37 8.36v45.19c0 1.99-.796 6.768-6.37 7.564h-6.57v23.888h49.967v-66.09c0-20.903-8.76-30.657-18.513-36.43zM309.51 255.522h37.027V49.288H309.51V255.52zm57.73-207.628c-5.773.2-12.143 2.588-15.328 5.773v16.125c12.143-2.588 10.75 5.573 10.75 13.337v24.087h34.04V86.513c0-29.66-8.36-39.614-29.462-38.619zM79.19 10.868s-6.172-3.385-14.931-4.38c-3.384-.398-11.347-.597-15.925-.597h-2.19v23.49c9.157-1.195 13.337 1.194 15.129 3.782 1.99 2.588 1.792 6.37 1.792 6.37v83.012s.199 3.782-1.792 6.37c-1.99 2.588-5.972 4.976-15.13 3.981v23.49h2.19c4.58 0 12.542-.199 15.926-.597 8.56-.996 14.93-4.38 14.93-4.38 11.546-6.569 21.898-18.115 21.898-42.6V54.065c0-25.082-10.352-36.628-21.898-43.197zM.16 255.522h40.61V5.692H.16V255.522zM556.155 254.327h-29.462v-5.574h29.462zM556.155 226.856h-29.462v-7.764l20.504-5.574-20.504-5.573v-7.963h29.462v4.777h-23.29l23.29 6.57v4.18l-23.29 6.37h23.29zM556.155 179.279h-29.462v-10.75c0-6.37 2.588-10.351 8.76-10.351 6.17 0 8.758 3.981 8.758 10.351v5.176h11.944v5.574zm-16.323-5.574v-4.38c0-4.18-1.593-5.374-4.18-5.374-2.589 0-4.181 1.194-4.181 5.374v4.38h8.36zM556.553 131.304c0 7.962-5.574 12.342-15.129 12.342s-15.129-4.38-15.129-12.342c0-7.963 5.574-12.343 15.13-12.343 9.754 0 15.128 4.38 15.128 12.343zm-25.48 0c0 4.578 3.583 6.569 10.351 6.569 6.968 0 10.352-1.99 10.352-6.57 0-4.578-3.583-6.768-10.352-6.768-6.768 0-10.351 2.19-10.351 6.769zM556.155 100.05h-29.462V88.504c0-6.57 3.783-9.356 8.76-9.356 3.582 0 6.568 1.791 7.564 5.375l13.138-6.37v6.17l-11.944 5.574v4.778h11.944v5.375zm-16.522-5.574v-4.18c0-4.38-1.394-5.773-4.18-5.773-2.788 0-4.181 1.592-4.181 4.777v5.176h8.36zM526.693 40.728h4.778v7.564h24.684v5.574h-24.684v7.565h-4.778zM534.656 9.673c-2.389.796-3.782 2.588-3.782 5.176 0 2.389.995 4.18 3.185 4.18 4.976 0 3.981-15.129 13.536-15.129 5.972 0 8.958 3.782 8.958 10.153 0 4.777-2.787 9.356-6.967 10.948l-1.99-4.578c2.786-1.394 4.578-2.986 4.578-6.37 0-2.787-.995-4.977-3.981-4.977-5.773 0-4.579 15.13-13.736 15.13-5.375 0-8.162-4.38-8.162-9.357 0-4.778 2.389-8.56 6.57-10.352l1.79 5.176zM569.44.425v.442h-1.251v3.27h-.51V.867h-1.252V.425h3.013zm.447 0h.72l1.067 3.139 1.059-3.14h.712v3.713h-.477v-2.19c0-.077.001-.202.005-.377.003-.176.005-.363.005-.564l-1.06 3.131h-.497l-1.067-3.131v.114c0 .09.003.23.007.415.004.187.006.324.006.411v2.191h-.48V.425z" />
    </g>
  </symbol>
  <symbol aria-labelledby="burb-icon-pause-desc burb-icon-pause-title"
  id="rb-icon-pause" xmlns="http://www.w3.org/2000/svg"
  style="fill: var(--color, inherit);" viewBox="0 0 256 256">
    <desc id="burb-icon-pause-desc">A pause symbol</desc>
    <title id="burb-icon-pause-title">Pause</title>
    <path d="M50 40h60v176H50V40zm97 0h60v176h-60V40z"
    fill-rule="evenodd" />
  </symbol>
  <symbol aria-labelledby="bvrb-icon-pause-circle-desc bvrb-icon-pause-circle-title"
  id="rb-icon-pause-circle" xmlns="http://www.w3.org/2000/svg"
  style="fill: var(--color, inherit);" viewBox="0 0 256 256">
    <desc id="bvrb-icon-pause-circle-desc">A pause symbol in a
    circle</desc>
    <title id="bvrb-icon-pause-circle-title">Pause</title>
    <path d="M142.875 73.75h36.75v107.8h-36.75V73.75zm-66.5 0h36.75v107.8h-36.75V73.75zM128 16C66.148 16 16 66.148 16 128s50.148 112 112 112 112-50.148 112-112S189.852 16 128 16z"
    fill-rule="evenodd" />
  </symbol>
  <symbol id="rb-icon-phone" xmlns="http://www.w3.org/2000/svg"
  style="fill: var(--color, inherit);" viewBox="0 0 256 256">
    <title>phone</title>
    <path d="M201.474 224.467l-31.758-62.703c-.181 0-3.258 1.538-9.23 4.614a3324.802 3324.802 0 0 1-9.5 4.886c-5.067 2.353-11.038-.09-17.915-7.329-6.876-7.238-12.893-16.015-18.05-26.33-5.158-10.314-8.641-20.448-10.451-30.4-1.81-9.954-.272-16.287 4.614-19.002l19.001-9.5L96.427 16l-9.365 4.75c-6.243 3.167-9.455 4.75-9.636 4.75-3.257 1.81-7.33 4.57-12.215 8.28-4.886 3.71-8.279 10.088-10.179 19.136-1.9 9.048-1.176 21.58 2.171 37.595 3.348 16.015 11.627 37.142 24.837 63.381 13.21 26.42 25.244 45.783 36.102 58.088 10.858 12.306 20.448 20.358 28.773 24.159 8.324 3.8 15.427 4.795 21.308 2.985s10.54-3.528 13.979-5.157c.724-.181 4.117-1.81 10.179-4.886l9.093-4.614z"
    fill-rule="nonzero" />
  </symbol>
  <symbol aria-labelledby="bxrb-icon-pin-desc bxrb-icon-pin-title"
  id="rb-icon-pin" xmlns="http://www.w3.org/2000/svg"
  style="fill: var(--color, inherit);" viewBox="0 0 256 256">
    <desc id="bxrb-icon-pin-desc">A pin that indicates a
    location</desc>
    <title id="bxrb-icon-pin-title">Pin</title>
    <path d="M127.951 16c-9.786 0-18.983 1.858-27.592 5.573-8.608 3.715-16.13 8.79-22.563 15.223-6.434 6.434-11.508 13.955-15.223 22.563C58.858 67.968 57 77.165 57 86.951c0 9.787 1.812 20.072 5.437 30.855 3.625 10.783 8.654 22.382 15.087 34.796 6.434 12.414 13.955 25.825 22.563 40.233A6002.517 6002.517 0 0 1 127.951 240a6002.547 6002.547 0 0 1 27.865-47.165c8.608-14.408 16.129-27.819 22.563-40.233 6.433-12.414 11.462-24.013 15.087-34.796 3.625-10.783 5.437-21.068 5.437-30.855 0-9.786-1.858-18.983-5.573-27.592-3.715-8.608-8.79-16.13-15.223-22.563-6.434-6.434-13.955-11.508-22.563-15.223C146.935 17.858 137.738 16 127.95 16zm0 94.602c-7.068 0-13.093-2.492-18.077-7.476-4.984-4.984-7.476-10.919-7.476-17.806 0-7.068 2.492-13.093 7.476-18.077 4.984-4.984 11.01-7.476 18.077-7.476 7.068 0 13.094 2.492 18.078 7.476s7.476 11.01 7.476 18.077c0 6.887-2.492 12.822-7.476 17.806-4.984 4.984-11.01 7.476-18.078 7.476z"
    fill-rule="nonzero" />
  </symbol>
  <symbol aria-labelledby="byrb-icon-pin-map-desc byrb-icon-pin-map-title"
  id="rb-icon-pin-map" xmlns="http://www.w3.org/2000/svg"
  style="fill: var(--color, inherit);" viewBox="0 0 256 256">
    <desc id="byrb-icon-pin-map-desc">A pin indicating a location
    on a map</desc>
    <title id="byrb-icon-pin-map-title">Pin On Map</title>
    <path d="M188.893 76.893c0-8.336-1.586-16.22-4.757-23.65-3.172-7.43-7.521-13.91-13.049-19.437-5.527-5.528-12.006-9.877-19.437-13.049C144.22 17.586 136.337 16 128 16c-8.337 0-16.22 1.586-23.65 4.757-7.43 3.172-13.91 7.521-19.437 13.049-5.528 5.527-9.877 12.006-13.049 19.437-3.171 7.43-4.757 15.314-4.757 23.65 0 8.337 1.586 17.126 4.757 26.37 3.172 9.242 7.476 19.21 12.913 29.902 5.437 10.693 11.87 22.2 19.3 34.524 7.431 12.324 15.405 25.825 23.923 40.505 8.518-14.68 16.492-28.181 23.922-40.505 7.43-12.323 13.864-23.831 19.301-34.524 5.437-10.693 9.741-20.66 12.913-29.903 3.171-9.243 4.757-18.032 4.757-26.369zm-82.64-1.359c0-6.162 2.129-11.372 6.388-15.631s9.378-6.388 15.359-6.388c5.98 0 11.1 2.129 15.36 6.388 4.258 4.259 6.388 9.47 6.388 15.631 0 5.98-2.13 11.1-6.389 15.36-4.259 4.258-9.378 6.388-15.359 6.388-5.98 0-11.1-2.13-15.36-6.389-4.258-4.259-6.388-9.378-6.388-15.359zm97.048 91.34h-32.078a185.774 185.774 0 0 1-4.621 8.155l-4.893 8.155h31.534l7.34 14.408h-47.301a272.132 272.132 0 0 0-2.583 4.214 215.039 215.039 0 0 0-2.31 3.942h20.388l7.34 17.941H85.864l7.612-17.941h14.136a215.039 215.039 0 0 0-2.311-3.942 272.132 272.132 0 0 0-2.583-4.214H73.631l-5.709-14.408h26.37l-4.894-8.155a185.774 185.774 0 0 1-4.621-8.155H52.699L16 240h224l-36.699-73.126zM76.893 223.689H42.37l18.214-36.427 7.611 18.486h16.583l-7.884 17.941zm100.583-17.941h27.184l8.971 17.941h-28.815l-7.34-17.941z"
    fill-rule="nonzero" />
  </symbol>
  <symbol aria-labelledby="bzrb-icon-play-desc bzrb-icon-play-title"
  id="rb-icon-play" xmlns="http://www.w3.org/2000/svg"
  style="fill: var(--color, inherit);" viewBox="0 0 256 256">
    <desc id="bzrb-icon-play-desc">A triangular play symbol</desc>
    <title id="bzrb-icon-play-title">Play</title>
    <path d="M42 224V32l172.8 96z" fill-rule="nonzero" />
  </symbol>
  <symbol aria-labelledby="carb-icon-play-circle-desc carb-icon-play-circle-title"
  id="rb-icon-play-circle" xmlns="http://www.w3.org/2000/svg"
  style="fill: var(--color, inherit);" viewBox="0 0 256 256">
    <desc id="carb-icon-play-circle-desc">A triangular play symbol
    inside a circle</desc>
    <title id="carb-icon-play-circle-title">Play</title>
    <path d="M128 16C66.148 16 16 66.148 16 128s50.148 112 112 112 112-50.148 112-112S189.852 16 128 16zm-28 158.667V81.333l84 48.03-84 45.304z"
    fill-rule="nonzero" />
  </symbol>
  <symbol aria-labelledby="cbrb-icon-plus-desc cbrb-icon-plus-title"
  id="rb-icon-plus" xmlns="http://www.w3.org/2000/svg"
  style="fill: var(--color, inherit);" viewBox="0 0 256 256">
    <desc id="cbrb-icon-plus-desc">A plus sign</desc>
    <title id="cbrb-icon-plus-title">Plus</title>
    <path d="M240 109.333h-93.333V16h-37.334v93.333H16v37.334h93.333V240h37.334v-93.333H240z"
    fill-rule="nonzero" />
  </symbol>
  <symbol aria-labelledby="ccrb-icon-question-desc ccrb-icon-question-title"
  id="rb-icon-question" xmlns="http://www.w3.org/2000/svg"
  style="fill: var(--color, inherit);" viewBox="0 0 256 256">
    <desc id="ccrb-icon-question-desc">A circle with a question
    mark inside</desc>
    <title id="ccrb-icon-question-title">Question</title>
    <path d="M128 16c-15.405 0-29.903 2.945-43.495 8.835-13.592 5.89-25.463 13.91-35.612 24.058-10.149 10.15-18.168 22.02-24.058 35.612C18.945 98.097 16 112.595 16 128c0 15.405 2.945 29.903 8.835 43.495 5.89 13.592 13.91 25.463 24.058 35.612 10.15 10.149 22.02 18.168 35.612 24.058C98.097 237.055 112.595 240 128 240c15.405 0 29.903-2.945 43.495-8.835 13.592-5.89 25.463-13.91 35.612-24.058 10.149-10.15 18.168-22.02 24.058-35.612C237.055 157.903 240 143.405 240 128c0-15.405-2.945-29.903-8.835-43.495-5.89-13.592-13.91-25.463-24.058-35.612-10.15-10.149-22.02-18.168-35.612-24.058C157.903 18.945 143.405 16 128 16zm1.087 186.485c-4.35 0-8.064-1.54-11.145-4.62-3.081-3.082-4.622-6.888-4.622-11.418 0-4.35 1.54-8.065 4.622-11.146 3.08-3.081 6.796-4.621 11.145-4.621 4.531 0 8.337 1.54 11.418 4.621 3.08 3.08 4.621 6.796 4.621 11.146 0 4.53-1.54 8.336-4.621 11.417-3.081 3.081-6.796 4.621-11.146 4.621h-.272zm12.777-47.029v2.719h-26.369v-2.719c0-4.168.59-8.699 1.767-13.592 1.178-4.893 4.123-9.514 8.835-13.864a626.528 626.528 0 0 1 14.136-13.184c4.712-4.26 7.068-9.198 7.068-14.816 0-6.162-1.903-10.874-5.709-14.136-3.806-3.262-8.427-4.893-13.864-4.893-9.061 0-14.589 3.307-16.582 9.922-1.994 6.615-3.081 11.01-3.263 13.185H82.33c.363-9.787 3.489-20.117 9.379-30.99 5.89-10.874 17.896-16.311 36.02-16.311 15.947 0 27.591 4.35 34.931 13.048 7.34 8.7 11.01 18.033 11.01 28 0 15.767-5.301 26.777-15.903 33.03-10.602 6.252-15.903 14.452-15.903 24.601z"
    fill-rule="nonzero" />
  </symbol>
  <symbol aria-labelledby="cdrb-icon-ribbon-check-desc cdrb-icon-ribbon-check-title"
  id="rb-icon-ribbon-check" xmlns="http://www.w3.org/2000/svg"
  style="fill: var(--color, inherit);" viewBox="0 0 256 256">
    <desc id="cdrb-icon-ribbon-check-desc">A ribbon with a check
    mark on the front</desc>
    <title id="cdrb-icon-ribbon-check-title">Ribbon With Check
    Mark</title>
    <path d="M166.674 156.184V240l-38.824-29.426L88.201 240v-84.925a74.898 74.898 0 0 0 40.14 11.609 74.896 74.896 0 0 0 38.333-10.5zm-38.815-4.466C90.45 151.718 60 121.278 60 83.858 60 46.44 90.45 16 127.859 16c37.41 0 67.859 30.44 67.859 67.859 0 37.42-30.45 67.859-67.86 67.859zm-10.575-35.886l52.876-53.765-10.019-9.934L117.1 95.971 95.4 75.265l-9.844 10.118 31.728 30.45z"
    fill-rule="nonzero" />
  </symbol>
  <symbol aria-labelledby="cerb-icon-rotate-desc cerb-icon-rotate-title"
  id="rb-icon-rotate" xmlns="http://www.w3.org/2000/svg"
  style="fill: var(--color, inherit);" viewBox="0 0 256 256">
    <desc id="cerb-icon-rotate-desc">Two arrows spinning in a
    circle</desc>
    <title id="cerb-icon-rotate-title">Rotate</title>
    <path d="M125 189.293c-64.888-.484-117-16.645-117-36.51v-46.957c0 19.865 52.112 36.026 117 36.51v-29.032l52.055 52.082L125 217.467v-28.174zm68.217-5.848v-46.957C226.19 129.98 248 118.678 248 105.826v46.957c0 12.851-21.811 24.153-54.783 30.662zM121.583 56.312A404.53 404.53 0 0 1 128 56.26c66.274 0 120 16.178 120 36.135 0 4.063-2.227 7.97-6.333 11.614C225.603 89.752 180.78 79.49 128 79.49c-2.153 0-4.292.017-6.417.051v20.704L89 67.603l32.583-32.524v21.233zm-44.973 3.42v23.23C47.477 87.126 24.8 94.72 14.333 104.01 10.227 100.365 8 96.46 8 92.396c0-14.42 28.047-26.866 68.61-32.663z"
    fill-rule="evenodd" />
  </symbol>
  <symbol aria-labelledby="cfrb-icon-search-desc cfrb-icon-search-title"
  id="rb-icon-search" xmlns="http://www.w3.org/2000/svg"
  style="fill: var(--color, inherit);" viewBox="0 0 256 256">
    <desc id="cfrb-icon-search-desc">A magnifying glass</desc>
    <title id="cfrb-icon-search-title">Search</title>
    <path d="M213.605 240l-68.945-68.945C131.705 179.212 116.436 184 100 184c-46.396 0-84-37.604-84-84s37.604-84 84-84 84 37.604 84 84c0 16.436-4.797 31.715-12.945 44.66L240 213.605 213.605 240zM100 165.333c36.017 0 65.333-29.306 65.333-65.333S136.017 34.667 100 34.667c-36.017 0-65.333 29.306-65.333 65.333S63.983 165.333 100 165.333z"
    fill-rule="nonzero" />
  </symbol>
  <symbol aria-labelledby="cgrb-icon-shipment-desc cgrb-icon-shipment-title"
  id="rb-icon-shipment" xmlns="http://www.w3.org/2000/svg"
  style="fill: var(--color, inherit);" viewBox="0 0 256 256">
    <desc id="cgrb-icon-shipment-desc">A box with motion lines
    behind it</desc>
    <title id="cgrb-icon-shipment-title">Shipment</title>
    <path d="M192.317 162.42l2.44-1.33v12.862l-2.44 1.331V162.42zm-4.436 2.661l2.662-1.552v12.863l-2.662 1.553V165.08zm18.852-10.867l2.44-1.553v12.864l-2.44 1.33v-12.641zM240 89.897v86.052l-71.414 41.695-89.6-52.341V79.251L150.622 38 240 89.897zM137.093 60.844l69.861 41.251 14.195-7.984L150.4 53.303l-13.307 7.54zm24.618 73.631L92.07 94.111v63.651l69.64 40.587v-63.874zm20.626-18.851l-68.753-41.03-14.637 8.428 69.64 40.364 13.75-7.762zm44.578-9.759l-12.42 7.097v23.288h-.222v.221L189.655 150v-.222.222-23.509l-14.859 8.428v63.873l52.119-30.162v-62.765zm-28.61 53.228l2.44-1.552v12.863l-2.44 1.552v-12.863zm14.638-8.65l2.44-1.33v12.863l-2.44 1.33v-12.862zm-10.424 6.21l2.44-1.552v12.863l-2.44 1.553v-12.864zM24.87 94.333H65.68v13.085H29.307L24.87 94.333zM16 115.623h49.68v13.086H20.435L16 115.624zm26.17 34.599l-4.214-13.085H65.68v13.085H42.17z"
    fill-rule="nonzero" />
  </symbol>
  <symbol aria-labelledby="chrb-icon-sms-desc chrb-icon-sms-title"
  id="rb-icon-sms" xmlns="http://www.w3.org/2000/svg"
  style="fill: var(--color, inherit);" viewBox="0 0 256 256">
    <desc id="chrb-icon-sms-desc">A speech bubble with lines of
    text inside</desc>
    <title id="chrb-icon-sms-title">SMS</title>
    <path d="M127.995 43.666c51.462 0 93.33 33.524 93.33 74.729 0 45.89-48.018 74.3-92.49 74.3-18.078 0-31.573-3.706-41.009-6.011-9.333 5.721-14.886 9.678-39.87 16.986 4.993-12.814 6.748-25.647 5.618-39.805-7.82-9.333-18.899-22.4-18.899-45.47-.01-41.205 41.858-74.73 93.32-74.73zm0-18.666C68.843 25 16 64.441 16 118.395c0 19.132 6.888 37.92 19.105 52.498.513 17.079-9.548 41.587-18.601 59.432 24.284-4.387 58.807-14.074 74.458-23.669 13.234 3.22 25.9 4.695 37.883 4.695 66.114 0 111.155-45.144 111.155-92.966C239.99 64.152 186.784 25 127.995 25zM95.33 118.33c0 7.736-6.262 13.999-14 13.999-7.727 0-13.999-6.263-13.999-14s6.272-13.999 14-13.999c7.737 0 13.999 6.262 13.999 14zm32.665-14c-7.727 0-14 6.262-14 14 0 7.736 6.273 13.999 14 13.999 7.737 0 14-6.263 14-14s-6.263-13.999-14-13.999zm46.665 0c-7.728 0-14 6.262-14 14 0 7.736 6.272 13.999 14 13.999 7.737 0 14-6.263 14-14s-6.263-13.999-14-13.999z"
    fill-rule="nonzero" />
  </symbol>
  <symbol aria-labelledby="cirb-icon-sort-both-desc cirb-icon-sort-both-title"
  id="rb-icon-sort-both" xmlns="http://www.w3.org/2000/svg"
  style="fill: var(--color, inherit);" viewBox="0 0 256 256">
    <desc id="cirb-icon-sort-both-desc">An upward-pointing triangle
    above a downward-pointing triangle</desc>
    <title id="cirb-icon-sort-both-title">Sort Both</title>
    <path d="M127.767 16l71.767 95.69H56L127.767 16zm0 224L56 144.31h143.534L127.767 240z"
    fill-rule="nonzero" />
  </symbol>
  <symbol aria-labelledby="cjrb-icon-sort-down-desc cjrb-icon-sort-down-title"
  id="rb-icon-sort-down" xmlns="http://www.w3.org/2000/svg"
  style="fill: var(--color, inherit);" viewBox="0 0 256 256">
    <desc id="cjrb-icon-sort-down-desc">A downward-pointing
    triangle</desc>
    <title id="cjrb-icon-sort-down-title">Sort Down</title>
    <path d="M127.767 240L56 144.31h143.534z"
    fill-rule="evenodd" />
  </symbol>
  <symbol aria-labelledby="ckrb-icon-sort-up-desc ckrb-icon-sort-up-title"
  id="rb-icon-sort-up" xmlns="http://www.w3.org/2000/svg"
  style="fill: var(--color, inherit);" viewBox="0 0 256 256">
    <desc id="ckrb-icon-sort-up-desc">An upward-pointing
    triangle</desc>
    <title id="ckrb-icon-sort-up-title">Sort Up</title>
    <path d="M127.767 16l71.767 95.69H56z" fill-rule="evenodd" />
  </symbol>
  <symbol aria-labelledby="clrb-icon-specs-desc clrb-icon-specs-title"
  id="rb-icon-specs" xmlns="http://www.w3.org/2000/svg"
  style="fill: var(--color, inherit);" viewBox="0 0 256 256">
    <desc id="clrb-icon-specs-desc">A square with perpendicular
    arrows that indicate measurements</desc>
    <title id="clrb-icon-specs-title">Specs</title>
    <path d="M28.497 76.825v138.642h11.249L22.827 246 6 215.467h11.249V76.825H6l16.918-30.533 16.828 30.533H28.497zm48.256-59.583H215.46V5.993l30.533 16.828-30.533 16.918V28.49H76.753V39.74L46.219 22.821 76.753 5.993v11.249zm169.216 28.737v199.896H45.995V45.98h199.974zM225.97 65.97H65.992v159.916h159.98V65.97z"
    fill-rule="nonzero" />
  </symbol>
  <symbol aria-labelledby="cmrb-icon-speed-desc cmrb-icon-speed-title"
  id="rb-icon-speed" xmlns="http://www.w3.org/2000/svg"
  style="fill: var(--color, inherit);" viewBox="0 0 256 256">
    <desc id="cmrb-icon-speed-desc">A stopwatch with motion lines
    behind it</desc>
    <title id="cmrb-icon-speed-title">Speed</title>
    <path d="M164.493 140.507l24.603-37.576-4.237-3.79-34.282 28.924c-6.3-1.288-13.085.635-17.677 5.768-6.87 7.682-6.207 19.488 1.484 26.358 7.69 6.869 19.488 6.206 26.357-1.484 4.592-5.134 5.74-12.087 3.752-18.2zM128 41.144V16h37.333v25.144c-13.43-2.268-24.192-2.221-37.333 0zm82.61 19.264l13.131-13.132 13.198 13.197-12.33 12.33a112.488 112.488 0 0 0-14-12.395zM34.666 100h74.666v18.667H34.667V100zM16 137.333h74.667V156H16v-18.667zm28 37.334h65.333v18.666H44v-18.666zm196-28C240 198.215 198.215 240 146.667 240c-26.04 0-49.467-10.78-66.37-28h30.614c10.621 5.89 22.764 9.333 35.756 9.333 41.169 0 74.666-33.497 74.666-74.666 0-41.17-33.497-74.667-74.666-74.667-12.992 0-25.135 3.444-35.756 9.333H80.297c16.903-17.22 40.33-28 66.37-28 51.548 0 93.333 41.786 93.333 93.334z"
    fill-rule="nonzero" />
  </symbol>
  <symbol aria-labelledby="cnrb-icon-stack-o-desc cnrb-icon-stack-o-title"
  id="rb-icon-stack-o" xmlns="http://www.w3.org/2000/svg"
  style="fill: var(--color, inherit);" viewBox="0 0 256 256">
    <desc id="cnrb-icon-stack-o-desc">A square stacked on another
    square</desc>
    <title id="cnrb-icon-stack-o-title">Stack</title>
    <path d="M221.333 72v149.333H72V72h149.333zM240 53.333H53.333V240H240V53.333zM16 16v186.667h18.667v-168h168V16H16z"
    fill-rule="nonzero" />
  </symbol>
  <symbol aria-labelledby="corb-icon-star-desc corb-icon-star-title"
  id="rb-icon-star" xmlns="http://www.w3.org/2000/svg"
  style="fill: var(--color, inherit);" viewBox="0 0 256 256">
    <desc id="corb-icon-star-desc">A star</desc>
    <title id="corb-icon-star-title">Star</title>
    <path d="M128 6l39.146 80.777L256 98.893l-64.621 62.447 15.844 88.233L128 207.32l-79.223 42.253L64.62 161.34 0 99.204l88.854-12.427z"
    fill-rule="nonzero" />
  </symbol>
  <symbol id="rb-icon-star-half" xmlns="http://www.w3.org/2000/svg"
  style="fill: var(--color, inherit);" viewBox="0 0 256 256">
    <title>star-half</title>
    <path d="M88.875 86.987L0 99.264l64.683 62.165-15.787 88.31L128 207.424V6.261z"
    fill-rule="nonzero" />
  </symbol>
  <symbol aria-labelledby="cqrb-icon-star-o-desc cqrb-icon-star-o-title"
  id="rb-icon-star-o" xmlns="http://www.w3.org/2000/svg"
  style="fill: var(--color, inherit);" viewBox="0 0 256 256">
    <desc id="cqrb-icon-star-o-desc">The outline of a star</desc>
    <title id="cqrb-icon-star-o-title">Open Star</title>
    <path d="M128 55.179l24.907 51.381 56.586 7.808-41.184 39.573 10.048 56.214L128 183.232l-50.357 26.933 10.048-56.213-41.184-39.573 56.586-7.819L128 55.179zm0-48.918L88.875 86.987 0 99.264l64.683 62.165-15.787 88.31L128 207.424l79.104 42.304-15.787-88.31L256 99.265l-88.875-12.267L128 6.261z"
    fill-rule="nonzero" />
  </symbol>
  <symbol id="rb-icon-uxd" xmlns="http://www.w3.org/2000/svg"
  style="fill: var(--color, inherit);" viewBox="0 0 256 256">
    <title>uxd</title>
    <g fill-rule="evenodd">
      <path d="M128 196c-54.123 0-98-43.877-98-98S73.877 0 128 0s98 43.876 98 98c0 54.123-43.876 98-98 98zm-67-70c12.603 24.182 37.9 40.691 67.057 40.691 29.153 0 54.453-16.51 67.055-40.691H61z" />
      <path d="M193.06 191.29c47.167 22.198 51.79 64.37 51.79 64.37H11s4.566-43.365 50.916-65.294C79.34 206.288 102.536 216 128 216c24.968 0 47.755-9.337 65.06-24.71z"
      fill-rule="nonzero" />
    </g>
  </symbol>
  <symbol aria-labelledby="csrb-icon-warning-desc csrb-icon-warning-title"
  id="rb-icon-warning" xmlns="http://www.w3.org/2000/svg"
  style="fill: var(--color, inherit);" viewBox="0 0 256 256">
    <desc id="csrb-icon-warning-desc">An exclamation mark inside a
    triangle</desc>
    <title id="csrb-icon-warning-title">Warning</title>
    <path d="M125.367 26.88L16.565 226.348a3 3 0 0 0 2.634 4.436h217.603a3 3 0 0 0 2.633-4.436L130.634 26.879a3 3 0 0 0-5.267 0zm7.202 141.549a4.997 4.997 0 0 1-4.969 4.5 4.997 4.997 0 0 1-4.969-4.5l-7.237-72.367c-.722-7.228 4.97-13.48 12.206-13.48 7.237 0 12.928 6.252 12.206 13.489l-7.237 72.358zm-5.04 40.637c-6.234 0-11.293-5.059-11.293-11.293 0-6.234 5.06-11.293 11.293-11.293 6.234 0 11.293 5.06 11.293 11.293 0 6.234-5.06 11.293-11.293 11.293z"
    fill-rule="nonzero" />
  </symbol>
  <symbol id="rb-icon-wrench" xmlns="http://www.w3.org/2000/svg"
  style="fill: var(--color, inherit);" viewBox="0 0 256 256">
    <title>wrench</title>
    <path d="M52.316 3.037l43.867 43.88c4.76 21.98-27.112 54.223-49.36 49.36L2.956 52.396C.954 59.204 0 66.232 0 73.26c0 18.641 7.017 37.259 21.247 51.501 15.72 15.72 36.817 22.772 57.378 21.19a37.334 37.334 0 0 1 29.253 10.833l88.678 88.561c6.714 6.726 15.557 10.647 24.389 10.647 19.327 0 35.455-16.418 35.047-35.804-.186-8.575-4.095-17.105-10.635-23.656L156.68 107.96a37.36 37.36 0 0 1-10.833-29.253c1.594-20.56-5.48-41.657-21.178-57.366C110.414 7.098 91.797 0 73.156 0c-7.017 0-14.045 1.047-20.84 3.037zm179.88 217.5a11.625 11.625 0 0 1-11.635 11.637c-6.435 0-11.636-5.213-11.636-11.637 0-6.423 5.201-11.636 11.636-11.636a11.625 11.625 0 0 1 11.636 11.636z"
    fill-rule="nonzero" />
  </symbol>
  <symbol aria-labelledby="curb-icon-zoom-in-desc curb-icon-zoom-in-title"
  id="rb-icon-zoom-in" xmlns="http://www.w3.org/2000/svg"
  style="fill: var(--color, inherit);" viewBox="0 0 256 256">
    <desc id="curb-icon-zoom-in-desc">A magnifying glass with a
    plus sign inside</desc>
    <title id="curb-icon-zoom-in-title">Zoom In</title>
    <path d="M137.333 109.333h-28v28H90.667v-28h-28V90.667h28v-28h18.666v28h28v18.666zM213.605 240l-68.945-68.945C131.705 179.212 116.436 184 100 184c-46.396 0-84-37.604-84-84s37.604-84 84-84 84 37.604 84 84c0 16.436-4.797 31.715-12.945 44.66L240 213.605 213.605 240zM100 165.333c36.017 0 65.333-29.306 65.333-65.333S136.017 34.667 100 34.667c-36.017 0-65.333 29.306-65.333 65.333S63.983 165.333 100 165.333z"
    fill-rule="nonzero" />
  </symbol>
  <symbol aria-labelledby="cvrb-icon-zoom-out-desc cvrb-icon-zoom-out-title"
  id="rb-icon-zoom-out" xmlns="http://www.w3.org/2000/svg"
  style="fill: var(--color, inherit);" viewBox="0 0 256 256">
    <desc id="cvrb-icon-zoom-out-desc">A magnifying glass with a
    minus sign inside</desc>
    <title id="cvrb-icon-zoom-out-title">Zoom Out</title>
    <path d="M137.333 109.333H62.667V90.667h74.666v18.666zM213.605 240l-68.945-68.945C131.705 179.212 116.436 184 100 184c-46.396 0-84-37.604-84-84s37.604-84 84-84 84 37.604 84 84c0 16.436-4.797 31.715-12.945 44.66L240 213.605 213.605 240zM100 165.333c36.017 0 65.333-29.306 65.333-65.333S136.017 34.667 100 34.667c-36.017 0-65.333 29.306-65.333 65.333S63.983 165.333 100 165.333z"
    fill-rule="nonzero" />
  </symbol>
</svg>
